<?xml version="1.0" encoding="UTF-8" standalone="no"?>
<!DOCTYPE svg PUBLIC "-//W3C//DTD SVG 1.1//EN"
 "http://www.w3.org/Graphics/SVG/1.1/DTD/svg11.dtd">
<!-- Generated by graphviz version 2.40.1 (20161225.0304)
 -->
<!-- Title: src/deviceMonitor/main.cpp Pages: 1 -->
<svg width="1460pt" height="308pt"
 viewBox="0.00 0.00 1460.00 308.00" xmlns="http://www.w3.org/2000/svg" xmlns:xlink="http://www.w3.org/1999/xlink">
<g id="graph0" class="graph" transform="scale(1 1) rotate(0) translate(4 304)">
<title>src/deviceMonitor/main.cpp</title>
<polygon fill="#ffffff" stroke="transparent" points="-4,4 -4,-304 1456,-304 1456,4 -4,4"/>
<!-- Node0 -->
<g id="node1" class="node">
<title>Node0</title>
<polygon fill="#bfbfbf" stroke="#000000" points="1008,-280.5 1008,-299.5 1145,-299.5 1145,-280.5 1008,-280.5"/>
<text text-anchor="middle" x="1076.5" y="-287.5" font-family="Helvetica,sans-Serif" font-size="10.00" fill="#000000">src/deviceMonitor/main.cpp</text>
</g>
<!-- Node1 -->
<g id="node2" class="node">
<title>Node1</title>
<g id="a_node2"><a xlink:href="../../d3/de3/_logger_8hpp.html" target="_top" xlink:title="Logger.hpp">
<polygon fill="#ffffff" stroke="#000000" points="1266,-56.5 1266,-75.5 1331,-75.5 1331,-56.5 1266,-56.5"/>
<text text-anchor="middle" x="1298.5" y="-63.5" font-family="Helvetica,sans-Serif" font-size="10.00" fill="#000000">Logger.hpp</text>
</a>
</g>
</g>
<!-- Node0&#45;&gt;Node1 -->
<g id="edge1" class="edge">
<title>Node0&#45;&gt;Node1</title>
<path fill="none" stroke="#191970" d="M1123.7514,-280.4299C1172.9505,-267.9037 1248.4481,-240.9958 1289.5,-188 1312.3742,-158.4706 1308.0666,-111.9331 1303.1293,-85.6945"/>
<polygon fill="#191970" stroke="#191970" points="1306.5323,-84.8684 1301.0522,-75.8009 1299.6816,-86.3067 1306.5323,-84.8684"/>
</g>
<!-- Node3 -->
<g id="node4" class="node">
<title>Node3</title>
<g id="a_node4"><a xlink:href="../../df/d16/_rest_a_p_i_8hpp.html" target="_top" xlink:title="apis/RestAPI.hpp">
<polygon fill="#ffffff" stroke="#000000" points="1186.5,-168.5 1186.5,-187.5 1280.5,-187.5 1280.5,-168.5 1186.5,-168.5"/>
<text text-anchor="middle" x="1233.5" y="-175.5" font-family="Helvetica,sans-Serif" font-size="10.00" fill="#000000">apis/RestAPI.hpp</text>
</a>
</g>
</g>
<!-- Node0&#45;&gt;Node3 -->
<g id="edge3" class="edge">
<title>Node0&#45;&gt;Node3</title>
<path fill="none" stroke="#191970" d="M1089.8857,-280.4509C1116.9984,-261.1094 1178.6249,-217.1465 1211.6456,-193.5904"/>
<polygon fill="#191970" stroke="#191970" points="1214.0399,-196.1817 1220.1481,-187.5249 1209.9747,-190.4831 1214.0399,-196.1817"/>
</g>
<!-- Node19 -->
<g id="node20" class="node">
<title>Node19</title>
<g id="a_node20"><a xlink:href="../../d8/de2/_signal_handler_8hpp.html" target="_top" xlink:title="SignalHandler.hpp">
<polygon fill="#ffffff" stroke="#000000" points="111.5,-224.5 111.5,-243.5 207.5,-243.5 207.5,-224.5 111.5,-224.5"/>
<text text-anchor="middle" x="159.5" y="-231.5" font-family="Helvetica,sans-Serif" font-size="10.00" fill="#000000">SignalHandler.hpp</text>
</a>
</g>
</g>
<!-- Node0&#45;&gt;Node19 -->
<g id="edge22" class="edge">
<title>Node0&#45;&gt;Node19</title>
<path fill="none" stroke="#191970" d="M1007.951,-285.8138C834.4231,-275.2167 380.0682,-247.4698 217.9897,-237.5719"/>
<polygon fill="#191970" stroke="#191970" points="217.9374,-234.0623 207.7426,-236.9461 217.5107,-241.0492 217.9374,-234.0623"/>
</g>
<!-- Node24 -->
<g id="node25" class="node">
<title>Node24</title>
<g id="a_node25"><a xlink:href="../../d2/dcb/_application_8hpp.html" target="_top" xlink:title="Application.hpp">
<polygon fill="#ffffff" stroke="#000000" points="897,-224.5 897,-243.5 980,-243.5 980,-224.5 897,-224.5"/>
<text text-anchor="middle" x="938.5" y="-231.5" font-family="Helvetica,sans-Serif" font-size="10.00" fill="#000000">Application.hpp</text>
</a>
</g>
</g>
<!-- Node0&#45;&gt;Node24 -->
<g id="edge27" class="edge">
<title>Node0&#45;&gt;Node24</title>
<path fill="none" stroke="#191970" d="M1052.777,-280.3733C1030.3263,-271.2629 996.4261,-257.5062 971.3745,-247.3404"/>
<polygon fill="#191970" stroke="#191970" points="972.4957,-244.0182 961.9135,-243.5011 969.8635,-250.5045 972.4957,-244.0182"/>
</g>
<!-- Node27 -->
<g id="node28" class="node">
<title>Node27</title>
<polygon fill="#ffffff" stroke="#bfbfbf" points="710.5,-112.5 710.5,-131.5 764.5,-131.5 764.5,-112.5 710.5,-112.5"/>
<text text-anchor="middle" x="737.5" y="-119.5" font-family="Helvetica,sans-Serif" font-size="10.00" fill="#000000">iostream</text>
</g>
<!-- Node0&#45;&gt;Node27 -->
<g id="edge56" class="edge">
<title>Node0&#45;&gt;Node27</title>
<path fill="none" stroke="#191970" d="M1007.729,-283.1826C940.6173,-273.1118 839.5303,-248.3745 775.5,-188 761.5663,-174.8618 751.2351,-155.4624 744.8904,-141.0929"/>
<polygon fill="#191970" stroke="#191970" points="748.0488,-139.5723 740.9805,-131.68 741.5843,-142.2576 748.0488,-139.5723"/>
</g>
<!-- Node30 -->
<g id="node31" class="node">
<title>Node30</title>
<polygon fill="#ffffff" stroke="#bfbfbf" points="1407,-224.5 1407,-243.5 1452,-243.5 1452,-224.5 1407,-224.5"/>
<text text-anchor="middle" x="1429.5" y="-231.5" font-family="Helvetica,sans-Serif" font-size="10.00" fill="#000000">cstdlib</text>
</g>
<!-- Node0&#45;&gt;Node30 -->
<g id="edge55" class="edge">
<title>Node0&#45;&gt;Node30</title>
<path fill="none" stroke="#191970" d="M1145.0256,-282.4201C1209.3118,-274.7444 1307.9483,-261.5147 1392.5,-244 1393.966,-243.6963 1395.4602,-243.3688 1396.9662,-243.0239"/>
<polygon fill="#191970" stroke="#191970" points="1398.0375,-246.3645 1406.9046,-240.5658 1396.3568,-239.5692 1398.0375,-246.3645"/>
</g>
<!-- Node2 -->
<g id="node3" class="node">
<title>Node2</title>
<polygon fill="#ffffff" stroke="#bfbfbf" points="1275.5,-.5 1275.5,-19.5 1321.5,-19.5 1321.5,-.5 1275.5,-.5"/>
<text text-anchor="middle" x="1298.5" y="-7.5" font-family="Helvetica,sans-Serif" font-size="10.00" fill="#000000">stdio.h</text>
</g>
<!-- Node1&#45;&gt;Node2 -->
<g id="edge2" class="edge">
<title>Node1&#45;&gt;Node2</title>
<path fill="none" stroke="#191970" d="M1298.5,-56.2455C1298.5,-48.9382 1298.5,-38.6944 1298.5,-29.7046"/>
<polygon fill="#191970" stroke="#191970" points="1302.0001,-29.6426 1298.5,-19.6427 1295.0001,-29.6427 1302.0001,-29.6426"/>
</g>
<!-- Node3&#45;&gt;Node1 -->
<g id="edge18" class="edge">
<title>Node3&#45;&gt;Node1</title>
<path fill="none" stroke="#191970" d="M1248.0144,-168.4112C1259.4027,-160.1183 1274.7464,-147.1038 1283.5,-132 1291.6938,-117.8622 1295.4118,-99.6088 1297.0989,-85.8828"/>
<polygon fill="#191970" stroke="#191970" points="1300.6136,-85.898 1298.092,-75.6076 1293.6461,-85.2245 1300.6136,-85.898"/>
</g>
<!-- Node4 -->
<g id="node5" class="node">
<title>Node4</title>
<g id="a_node5"><a xlink:href="../../d6/d8f/_abstract_a_p_i_8hpp.html" target="_top" xlink:title="AbstractAPI.hpp">
<polygon fill="#ffffff" stroke="#000000" points="821,-112.5 821,-131.5 910,-131.5 910,-112.5 821,-112.5"/>
<text text-anchor="middle" x="865.5" y="-119.5" font-family="Helvetica,sans-Serif" font-size="10.00" fill="#000000">AbstractAPI.hpp</text>
</a>
</g>
</g>
<!-- Node3&#45;&gt;Node4 -->
<g id="edge4" class="edge">
<title>Node3&#45;&gt;Node4</title>
<path fill="none" stroke="#191970" d="M1186.1438,-170.7936C1117.9627,-160.4182 992.4356,-141.3163 920.3248,-130.3429"/>
<polygon fill="#191970" stroke="#191970" points="920.499,-126.8292 910.0862,-128.7849 919.4458,-133.7495 920.499,-126.8292"/>
</g>
<!-- Node6 -->
<g id="node7" class="node">
<title>Node6</title>
<polygon fill="#ffffff" stroke="#bfbfbf" points="1195.5,-56.5 1195.5,-75.5 1247.5,-75.5 1247.5,-56.5 1195.5,-56.5"/>
<text text-anchor="middle" x="1221.5" y="-63.5" font-family="Helvetica,sans-Serif" font-size="10.00" fill="#000000">memory</text>
</g>
<!-- Node3&#45;&gt;Node6 -->
<g id="edge20" class="edge">
<title>Node3&#45;&gt;Node6</title>
<path fill="none" stroke="#191970" d="M1228.8151,-168.4115C1224.6398,-159.2959 1218.8386,-145.0744 1216.5,-132 1213.7496,-116.6232 1215.3299,-98.9669 1217.4173,-85.7877"/>
<polygon fill="#191970" stroke="#191970" points="1220.8665,-86.3825 1219.206,-75.9186 1213.9787,-85.1341 1220.8665,-86.3825"/>
</g>
<!-- Node17 -->
<g id="node18" class="node">
<title>Node17</title>
<polygon fill="#ffffff" stroke="#bfbfbf" points="1349.5,-56.5 1349.5,-75.5 1405.5,-75.5 1405.5,-56.5 1349.5,-56.5"/>
<text text-anchor="middle" x="1377.5" y="-63.5" font-family="Helvetica,sans-Serif" font-size="10.00" fill="#000000">cinttypes</text>
</g>
<!-- Node3&#45;&gt;Node17 -->
<g id="edge19" class="edge">
<title>Node3&#45;&gt;Node17</title>
<path fill="none" stroke="#191970" d="M1248.4595,-168.3915C1262.2544,-159.3772 1283.158,-145.3246 1300.5,-132 1321.2328,-116.07 1343.8221,-96.4129 1359.1377,-82.713"/>
<polygon fill="#191970" stroke="#191970" points="1361.7515,-85.0692 1366.84,-75.7764 1357.067,-79.8677 1361.7515,-85.0692"/>
</g>
<!-- Node18 -->
<g id="node19" class="node">
<title>Node18</title>
<polygon fill="#ffffff" stroke="#bfbfbf" points="1225,-112.5 1225,-131.5 1274,-131.5 1274,-112.5 1225,-112.5"/>
<text text-anchor="middle" x="1249.5" y="-119.5" font-family="Helvetica,sans-Serif" font-size="10.00" fill="#000000">restbed</text>
</g>
<!-- Node3&#45;&gt;Node18 -->
<g id="edge21" class="edge">
<title>Node3&#45;&gt;Node18</title>
<path fill="none" stroke="#191970" d="M1236.287,-168.2455C1238.3977,-160.8579 1241.366,-150.4689 1243.9547,-141.4087"/>
<polygon fill="#191970" stroke="#191970" points="1247.363,-142.2195 1246.745,-131.6427 1240.6323,-140.2964 1247.363,-142.2195"/>
</g>
<!-- Node4&#45;&gt;Node1 -->
<g id="edge5" class="edge">
<title>Node4&#45;&gt;Node1</title>
<path fill="none" stroke="#191970" d="M910.0407,-117.0567C999.3678,-107.1025 1196.284,-84.9435 1255.6041,-75.861"/>
<polygon fill="#191970" stroke="#191970" points="1256.26,-79.3002 1265.5608,-74.2263 1255.1259,-72.3927 1256.26,-79.3002"/>
</g>
<!-- Node5 -->
<g id="node6" class="node">
<title>Node5</title>
<polygon fill="#ffffff" stroke="#bfbfbf" points="935.5,-56.5 935.5,-75.5 985.5,-75.5 985.5,-56.5 935.5,-56.5"/>
<text text-anchor="middle" x="960.5" y="-63.5" font-family="Helvetica,sans-Serif" font-size="10.00" fill="#000000">fstream</text>
</g>
<!-- Node4&#45;&gt;Node5 -->
<g id="edge6" class="edge">
<title>Node4&#45;&gt;Node5</title>
<path fill="none" stroke="#191970" d="M882.0477,-112.2455C896.7599,-103.5731 918.4888,-90.7645 935.3505,-80.825"/>
<polygon fill="#191970" stroke="#191970" points="937.3046,-83.736 944.1419,-75.6427 933.7498,-77.7057 937.3046,-83.736"/>
</g>
<!-- Node4&#45;&gt;Node6 -->
<g id="edge7" class="edge">
<title>Node4&#45;&gt;Node6</title>
<path fill="none" stroke="#191970" d="M910.1585,-116.3644C981.6664,-107.2189 1119.7156,-89.0344 1185.3349,-75.9725"/>
<polygon fill="#191970" stroke="#191970" points="1186.1421,-79.3796 1195.2232,-73.9223 1184.7209,-72.5254 1186.1421,-79.3796"/>
</g>
<!-- Node7 -->
<g id="node8" class="node">
<title>Node7</title>
<polygon fill="#ffffff" stroke="#bfbfbf" points="208.5,-56.5 208.5,-75.5 252.5,-75.5 252.5,-56.5 208.5,-56.5"/>
<text text-anchor="middle" x="230.5" y="-63.5" font-family="Helvetica,sans-Serif" font-size="10.00" fill="#000000">mutex</text>
</g>
<!-- Node4&#45;&gt;Node7 -->
<g id="edge8" class="edge">
<title>Node4&#45;&gt;Node7</title>
<path fill="none" stroke="#191970" d="M820.612,-116.7748C805.6404,-115.1244 788.8623,-113.3745 773.5,-112 549.6185,-91.969 487.2816,-118.5327 262.8025,-75.8171"/>
<polygon fill="#191970" stroke="#191970" points="263.1643,-72.3224 252.6825,-73.8657 261.8389,-79.1958 263.1643,-72.3224"/>
</g>
<!-- Node8 -->
<g id="node9" class="node">
<title>Node8</title>
<polygon fill="#ffffff" stroke="#bfbfbf" points="1004,-56.5 1004,-75.5 1047,-75.5 1047,-56.5 1004,-56.5"/>
<text text-anchor="middle" x="1025.5" y="-63.5" font-family="Helvetica,sans-Serif" font-size="10.00" fill="#000000">queue</text>
</g>
<!-- Node4&#45;&gt;Node8 -->
<g id="edge9" class="edge">
<title>Node4&#45;&gt;Node8</title>
<path fill="none" stroke="#191970" d="M893.005,-112.3733C921.1385,-102.5265 964.7797,-87.2521 994.214,-76.9501"/>
<polygon fill="#191970" stroke="#191970" points="995.7017,-80.1377 1003.984,-73.5306 993.3892,-73.5307 995.7017,-80.1377"/>
</g>
<!-- Node9 -->
<g id="node10" class="node">
<title>Node9</title>
<polygon fill="#ffffff" stroke="#bfbfbf" points="270.5,-56.5 270.5,-75.5 380.5,-75.5 380.5,-56.5 270.5,-56.5"/>
<text text-anchor="middle" x="325.5" y="-63.5" font-family="Helvetica,sans-Serif" font-size="10.00" fill="#000000">rapidjson/document.h</text>
</g>
<!-- Node4&#45;&gt;Node9 -->
<g id="edge10" class="edge">
<title>Node4&#45;&gt;Node9</title>
<path fill="none" stroke="#191970" d="M820.5921,-116.9842C805.6191,-115.3478 788.8452,-113.5532 773.5,-112 606.204,-95.0668 561.2915,-97.1531 390.7061,-76.0874"/>
<polygon fill="#191970" stroke="#191970" points="390.9832,-72.595 380.6277,-74.8341 390.1193,-79.5415 390.9832,-72.595"/>
</g>
<!-- Node10 -->
<g id="node11" class="node">
<title>Node10</title>
<polygon fill="#ffffff" stroke="#bfbfbf" points="663.5,-56.5 663.5,-75.5 797.5,-75.5 797.5,-56.5 663.5,-56.5"/>
<text text-anchor="middle" x="730.5" y="-63.5" font-family="Helvetica,sans-Serif" font-size="10.00" fill="#000000">rapidjson/istreamwrapper.h</text>
</g>
<!-- Node4&#45;&gt;Node10 -->
<g id="edge11" class="edge">
<title>Node4&#45;&gt;Node10</title>
<path fill="none" stroke="#191970" d="M842.2927,-112.3733C820.3301,-103.2629 787.1668,-89.5062 762.6599,-79.3404"/>
<polygon fill="#191970" stroke="#191970" points="763.9824,-76.0999 753.4045,-75.5011 761.3003,-82.5657 763.9824,-76.0999"/>
</g>
<!-- Node11 -->
<g id="node12" class="node">
<title>Node11</title>
<polygon fill="#ffffff" stroke="#bfbfbf" points="399,-56.5 399,-75.5 536,-75.5 536,-56.5 399,-56.5"/>
<text text-anchor="middle" x="467.5" y="-63.5" font-family="Helvetica,sans-Serif" font-size="10.00" fill="#000000">rapidjson/ostreamwrapper.h</text>
</g>
<!-- Node4&#45;&gt;Node11 -->
<g id="edge12" class="edge">
<title>Node4&#45;&gt;Node11</title>
<path fill="none" stroke="#191970" d="M820.618,-115.6849C753.7773,-106.2802 627.1659,-88.4656 545.1119,-76.9203"/>
<polygon fill="#191970" stroke="#191970" points="545.475,-73.437 535.0848,-75.5094 544.4996,-80.3687 545.475,-73.437"/>
</g>
<!-- Node12 -->
<g id="node13" class="node">
<title>Node12</title>
<polygon fill="#ffffff" stroke="#bfbfbf" points="816,-56.5 816,-75.5 917,-75.5 917,-56.5 816,-56.5"/>
<text text-anchor="middle" x="866.5" y="-63.5" font-family="Helvetica,sans-Serif" font-size="10.00" fill="#000000">rapidjson/schema.h</text>
</g>
<!-- Node4&#45;&gt;Node12 -->
<g id="edge13" class="edge">
<title>Node4&#45;&gt;Node12</title>
<path fill="none" stroke="#191970" d="M865.6742,-112.2455C865.8047,-104.9382 865.9876,-94.6944 866.1481,-85.7046"/>
<polygon fill="#191970" stroke="#191970" points="869.6486,-85.7036 866.3278,-75.6427 862.6497,-85.5786 869.6486,-85.7036"/>
</g>
<!-- Node13 -->
<g id="node14" class="node">
<title>Node13</title>
<polygon fill="#ffffff" stroke="#bfbfbf" points="554,-56.5 554,-75.5 645,-75.5 645,-56.5 554,-56.5"/>
<text text-anchor="middle" x="599.5" y="-63.5" font-family="Helvetica,sans-Serif" font-size="10.00" fill="#000000">rapidjson/writer.h</text>
</g>
<!-- Node4&#45;&gt;Node13 -->
<g id="edge14" class="edge">
<title>Node4&#45;&gt;Node13</title>
<path fill="none" stroke="#191970" d="M820.9776,-112.6269C775.317,-103.0141 704.1937,-88.0408 654.9172,-77.6668"/>
<polygon fill="#191970" stroke="#191970" points="655.5659,-74.2267 645.0593,-75.5914 654.1237,-81.0765 655.5659,-74.2267"/>
</g>
<!-- Node14 -->
<g id="node15" class="node">
<title>Node14</title>
<polygon fill="#ffffff" stroke="#bfbfbf" points="1065.5,-56.5 1065.5,-75.5 1117.5,-75.5 1117.5,-56.5 1065.5,-56.5"/>
<text text-anchor="middle" x="1091.5" y="-63.5" font-family="Helvetica,sans-Serif" font-size="10.00" fill="#000000">sstream</text>
</g>
<!-- Node4&#45;&gt;Node14 -->
<g id="edge15" class="edge">
<title>Node4&#45;&gt;Node14</title>
<path fill="none" stroke="#191970" d="M907.3571,-112.452C944.0179,-103.97 998.9558,-90.973 1055.3589,-76.2297"/>
<polygon fill="#191970" stroke="#191970" points="1056.3774,-79.5809 1065.1593,-73.654 1054.5981,-72.8109 1056.3774,-79.5809"/>
</g>
<!-- Node15 -->
<g id="node16" class="node">
<title>Node15</title>
<polygon fill="#ffffff" stroke="#bfbfbf" points="1136,-56.5 1136,-75.5 1177,-75.5 1177,-56.5 1136,-56.5"/>
<text text-anchor="middle" x="1156.5" y="-63.5" font-family="Helvetica,sans-Serif" font-size="10.00" fill="#000000">string</text>
</g>
<!-- Node4&#45;&gt;Node15 -->
<g id="edge16" class="edge">
<title>Node4&#45;&gt;Node15</title>
<path fill="none" stroke="#191970" d="M910.2568,-116.1592C960.5374,-109.1456 1044.6724,-96.056 1126.0531,-75.7958"/>
<polygon fill="#191970" stroke="#191970" points="1127.1252,-79.1349 1135.9615,-73.2894 1125.4085,-72.3487 1127.1252,-79.1349"/>
</g>
<!-- Node16 -->
<g id="node17" class="node">
<title>Node16</title>
<polygon fill="#ffffff" stroke="#bfbfbf" points="146.5,-56.5 146.5,-75.5 190.5,-75.5 190.5,-56.5 146.5,-56.5"/>
<text text-anchor="middle" x="168.5" y="-63.5" font-family="Helvetica,sans-Serif" font-size="10.00" fill="#000000">thread</text>
</g>
<!-- Node4&#45;&gt;Node16 -->
<g id="edge17" class="edge">
<title>Node4&#45;&gt;Node16</title>
<path fill="none" stroke="#191970" d="M820.618,-116.7067C805.6467,-115.0517 788.8674,-113.3164 773.5,-112 522.1779,-90.4713 452.4701,-122.7349 200.8611,-75.8099"/>
<polygon fill="#191970" stroke="#191970" points="201.1544,-72.3035 190.6785,-73.8865 199.8551,-79.1819 201.1544,-72.3035"/>
</g>
<!-- Node20 -->
<g id="node21" class="node">
<title>Node20</title>
<polygon fill="#ffffff" stroke="#bfbfbf" points="136,-168.5 136,-187.5 183,-187.5 183,-168.5 136,-168.5"/>
<text text-anchor="middle" x="159.5" y="-175.5" font-family="Helvetica,sans-Serif" font-size="10.00" fill="#000000">csignal</text>
</g>
<!-- Node19&#45;&gt;Node20 -->
<g id="edge23" class="edge">
<title>Node19&#45;&gt;Node20</title>
<path fill="none" stroke="#191970" d="M159.5,-224.2455C159.5,-216.9382 159.5,-206.6944 159.5,-197.7046"/>
<polygon fill="#191970" stroke="#191970" points="163.0001,-197.6426 159.5,-187.6427 156.0001,-197.6427 163.0001,-197.6426"/>
</g>
<!-- Node21 -->
<g id="node22" class="node">
<title>Node21</title>
<polygon fill="#ffffff" stroke="#bfbfbf" points="354,-112.5 354,-131.5 389,-131.5 389,-112.5 354,-112.5"/>
<text text-anchor="middle" x="371.5" y="-119.5" font-family="Helvetica,sans-Serif" font-size="10.00" fill="#000000">map</text>
</g>
<!-- Node19&#45;&gt;Node21 -->
<g id="edge24" class="edge">
<title>Node19&#45;&gt;Node21</title>
<path fill="none" stroke="#191970" d="M177.575,-224.4509C214.9831,-204.6882 301.048,-159.2199 344.8471,-136.0808"/>
<polygon fill="#191970" stroke="#191970" points="346.5628,-139.1329 353.7698,-131.3669 343.2929,-132.9435 346.5628,-139.1329"/>
</g>
<!-- Node22 -->
<g id="node23" class="node">
<title>Node22</title>
<polygon fill="#ffffff" stroke="#bfbfbf" points="0,-168.5 0,-187.5 41,-187.5 41,-168.5 0,-168.5"/>
<text text-anchor="middle" x="20.5" y="-175.5" font-family="Helvetica,sans-Serif" font-size="10.00" fill="#000000">stack</text>
</g>
<!-- Node19&#45;&gt;Node22 -->
<g id="edge25" class="edge">
<title>Node19&#45;&gt;Node22</title>
<path fill="none" stroke="#191970" d="M135.605,-224.3733C112.1695,-214.9316 76.3473,-200.4996 50.8964,-190.246"/>
<polygon fill="#191970" stroke="#191970" points="51.946,-186.8956 41.3626,-186.4051 49.3302,-193.3885 51.946,-186.8956"/>
</g>
<!-- Node23 -->
<g id="node24" class="node">
<title>Node23</title>
<polygon fill="#ffffff" stroke="#bfbfbf" points="59,-168.5 59,-187.5 118,-187.5 118,-168.5 59,-168.5"/>
<text text-anchor="middle" x="88.5" y="-175.5" font-family="Helvetica,sans-Serif" font-size="10.00" fill="#000000">stdexcept</text>
</g>
<!-- Node19&#45;&gt;Node23 -->
<g id="edge26" class="edge">
<title>Node19&#45;&gt;Node23</title>
<path fill="none" stroke="#191970" d="M147.1327,-224.2455C136.5446,-215.8943 121.0936,-203.7076 108.7107,-193.9408"/>
<polygon fill="#191970" stroke="#191970" points="110.7447,-191.0875 100.7255,-187.6427 106.4097,-196.5837 110.7447,-191.0875"/>
</g>
<!-- Node24&#45;&gt;Node1 -->
<g id="edge53" class="edge">
<title>Node24&#45;&gt;Node1</title>
<path fill="none" stroke="#191970" d="M958.8866,-224.4862C1019.2621,-196.311 1197.3596,-113.1988 1268.5747,-79.9651"/>
<polygon fill="#191970" stroke="#191970" points="1270.309,-83.0182 1277.8907,-75.6177 1267.3488,-76.6749 1270.309,-83.0182"/>
</g>
<!-- Node24&#45;&gt;Node3 -->
<g id="edge29" class="edge">
<title>Node24&#45;&gt;Node3</title>
<path fill="none" stroke="#191970" d="M980.1406,-226.0953C1031.3812,-216.3683 1118.6462,-199.8028 1176.189,-188.8794"/>
<polygon fill="#191970" stroke="#191970" points="1177.0464,-192.2792 1186.2182,-186.9755 1175.7409,-185.402 1177.0464,-192.2792"/>
</g>
<!-- Node24&#45;&gt;Node4 -->
<g id="edge28" class="edge">
<title>Node24&#45;&gt;Node4</title>
<path fill="none" stroke="#191970" d="M937.2898,-224.333C935.2331,-210.806 930.092,-185.8833 918.5,-168 910.8374,-156.1788 899.2848,-145.652 888.9192,-137.662"/>
<polygon fill="#191970" stroke="#191970" points="890.7392,-134.6567 880.6027,-131.5742 886.6045,-140.3051 890.7392,-134.6567"/>
</g>
<!-- Node24&#45;&gt;Node16 -->
<g id="edge54" class="edge">
<title>Node24&#45;&gt;Node16</title>
<path fill="none" stroke="#191970" d="M896.92,-231.2009C821.358,-225.723 656.6446,-211.9794 519.5,-188 415.0127,-169.7306 386.3321,-170.5173 287.5,-132 252.3273,-118.2924 214.7006,-95.9834 191.3865,-81.151"/>
<polygon fill="#191970" stroke="#191970" points="193.199,-78.1551 182.898,-75.6771 189.4053,-84.038 193.199,-78.1551"/>
</g>
<!-- Node25 -->
<g id="node26" class="node">
<title>Node25</title>
<g id="a_node26"><a xlink:href="../../d8/dc9/_message_processor_8hpp.html" target="_top" xlink:title="middleware/MessageProcessor.hpp">
<polygon fill="#ffffff" stroke="#000000" points="528.5,-168.5 528.5,-187.5 700.5,-187.5 700.5,-168.5 528.5,-168.5"/>
<text text-anchor="middle" x="614.5" y="-175.5" font-family="Helvetica,sans-Serif" font-size="10.00" fill="#000000">middleware/MessageProcessor.hpp</text>
</a>
</g>
</g>
<!-- Node24&#45;&gt;Node25 -->
<g id="edge30" class="edge">
<title>Node24&#45;&gt;Node25</title>
<path fill="none" stroke="#191970" d="M896.806,-226.7936C841.8088,-217.2879 744.4321,-200.4574 679.6693,-189.2638"/>
<polygon fill="#191970" stroke="#191970" points="680.0168,-185.7721 669.5668,-187.5177 678.8246,-192.6698 680.0168,-185.7721"/>
</g>
<!-- Node28 -->
<g id="node29" class="node">
<title>Node28</title>
<g id="a_node29"><a xlink:href="../../d7/d83/_data_storage_8hpp.html" target="_top" xlink:title="storage/DataStorage.hpp">
<polygon fill="#ffffff" stroke="#000000" points="785,-168.5 785,-187.5 910,-187.5 910,-168.5 785,-168.5"/>
<text text-anchor="middle" x="847.5" y="-175.5" font-family="Helvetica,sans-Serif" font-size="10.00" fill="#000000">storage/DataStorage.hpp</text>
</a>
</g>
</g>
<!-- Node24&#45;&gt;Node28 -->
<g id="edge38" class="edge">
<title>Node24&#45;&gt;Node28</title>
<path fill="none" stroke="#191970" d="M922.649,-224.2455C908.6868,-215.6534 888.1272,-203.0014 872.0404,-193.1018"/>
<polygon fill="#191970" stroke="#191970" points="873.5203,-189.9029 863.1693,-187.6427 869.8516,-195.8645 873.5203,-189.9029"/>
</g>
<!-- Node25&#45;&gt;Node4 -->
<g id="edge31" class="edge">
<title>Node25&#45;&gt;Node4</title>
<path fill="none" stroke="#191970" d="M657.3632,-168.4369C700.4102,-158.8328 766.8073,-144.0191 812.991,-133.7152"/>
<polygon fill="#191970" stroke="#191970" points="813.8157,-137.1173 822.8135,-131.5237 812.2913,-130.2853 813.8157,-137.1173"/>
</g>
<!-- Node25&#45;&gt;Node7 -->
<g id="edge34" class="edge">
<title>Node25&#45;&gt;Node7</title>
<path fill="none" stroke="#191970" d="M529.8927,-168.4721C459.141,-159.7567 364.2252,-146.1072 328.5,-132 298.2226,-120.044 267.8239,-97.5487 249.0892,-82.1751"/>
<polygon fill="#191970" stroke="#191970" points="251.2547,-79.4232 241.3445,-75.6762 246.755,-84.7854 251.2547,-79.4232"/>
</g>
<!-- Node25&#45;&gt;Node9 -->
<g id="edge35" class="edge">
<title>Node25&#45;&gt;Node9</title>
<path fill="none" stroke="#191970" d="M528.3188,-173.1545C459.8002,-167.5573 371.1726,-155.8517 344.5,-132 331.6093,-120.4726 327.2264,-100.8234 325.8487,-85.9547"/>
<polygon fill="#191970" stroke="#191970" points="329.3305,-85.524 325.2899,-75.7299 322.3409,-85.9061 329.3305,-85.524"/>
</g>
<!-- Node25&#45;&gt;Node11 -->
<g id="edge36" class="edge">
<title>Node25&#45;&gt;Node11</title>
<path fill="none" stroke="#191970" d="M601.9669,-168.4509C576.5811,-149.1094 518.8798,-105.1465 487.9624,-81.5904"/>
<polygon fill="#191970" stroke="#191970" points="490.0769,-78.8013 480.0014,-75.5249 485.8346,-84.3694 490.0769,-78.8013"/>
</g>
<!-- Node25&#45;&gt;Node13 -->
<g id="edge37" class="edge">
<title>Node25&#45;&gt;Node13</title>
<path fill="none" stroke="#191970" d="M617.1523,-168.4895C620.3535,-155.5624 624.8031,-131.7873 620.5,-112 618.4575,-102.6079 614.3211,-92.8357 610.2553,-84.7264"/>
<polygon fill="#191970" stroke="#191970" points="613.2809,-82.9622 605.4765,-75.7968 607.1091,-86.2651 613.2809,-82.9622"/>
</g>
<!-- Node26 -->
<g id="node27" class="node">
<title>Node26</title>
<polygon fill="#ffffff" stroke="#bfbfbf" points="407,-112.5 407,-131.5 502,-131.5 502,-112.5 407,-112.5"/>
<text text-anchor="middle" x="454.5" y="-119.5" font-family="Helvetica,sans-Serif" font-size="10.00" fill="#000000">condition_variable</text>
</g>
<!-- Node25&#45;&gt;Node26 -->
<g id="edge32" class="edge">
<title>Node25&#45;&gt;Node26</title>
<path fill="none" stroke="#191970" d="M586.995,-168.3733C560.6198,-159.1419 520.6149,-145.1402 491.4642,-134.9375"/>
<polygon fill="#191970" stroke="#191970" points="492.2409,-131.5012 481.6461,-131.5011 489.9284,-138.1082 492.2409,-131.5012"/>
</g>
<!-- Node25&#45;&gt;Node27 -->
<g id="edge33" class="edge">
<title>Node25&#45;&gt;Node27</title>
<path fill="none" stroke="#191970" d="M635.6445,-168.3733C655.3892,-159.3838 685.0698,-145.8706 707.3055,-135.7471"/>
<polygon fill="#191970" stroke="#191970" points="708.9806,-138.8302 716.6315,-131.5011 706.08,-132.4594 708.9806,-138.8302"/>
</g>
<!-- Node28&#45;&gt;Node1 -->
<g id="edge43" class="edge">
<title>Node28&#45;&gt;Node1</title>
<path fill="none" stroke="#191970" d="M898.654,-168.4705C943.6029,-159.8312 1010.6712,-146.2946 1068.5,-132 1135.4244,-115.457 1212.232,-92.6275 1257.9869,-78.6134"/>
<polygon fill="#191970" stroke="#191970" points="1259.2874,-81.8754 1267.8176,-75.5916 1257.2306,-75.1843 1259.2874,-81.8754"/>
</g>
<!-- Node28&#45;&gt;Node4 -->
<g id="edge39" class="edge">
<title>Node28&#45;&gt;Node4</title>
<path fill="none" stroke="#191970" d="M850.6354,-168.2455C853.01,-160.8579 856.3493,-150.4689 859.2615,-141.4087"/>
<polygon fill="#191970" stroke="#191970" points="862.6725,-142.234 862.4006,-131.6427 856.0083,-140.0919 862.6725,-142.234"/>
</g>
<!-- Node28&#45;&gt;Node6 -->
<g id="edge47" class="edge">
<title>Node28&#45;&gt;Node6</title>
<path fill="none" stroke="#191970" d="M887.6692,-168.4941C923.8952,-159.7142 978.5356,-145.9561 1025.5,-132 1082.016,-115.2056 1146.6706,-92.8015 1185.7706,-78.894"/>
<polygon fill="#191970" stroke="#191970" points="1187.137,-82.1226 1195.3783,-75.4645 1184.7837,-75.53 1187.137,-82.1226"/>
</g>
<!-- Node28&#45;&gt;Node7 -->
<g id="edge52" class="edge">
<title>Node28&#45;&gt;Node7</title>
<path fill="none" stroke="#191970" d="M784.9681,-171.3377C709.5767,-162.8131 587.6203,-147.3112 544.5,-132 527.979,-126.1337 527.0417,-117.8078 510.5,-112 407.9844,-76.0069 372.4431,-99.815 262.5289,-75.8816"/>
<polygon fill="#191970" stroke="#191970" points="263.251,-72.4566 252.7252,-73.6646 261.7069,-79.2842 263.251,-72.4566"/>
</g>
<!-- Node28&#45;&gt;Node9 -->
<g id="edge48" class="edge">
<title>Node28&#45;&gt;Node9</title>
<path fill="none" stroke="#191970" d="M801.5247,-168.4332C757.7645,-159.2743 690.0848,-144.9712 631.5,-132 592.7629,-123.4233 583.249,-120.5226 544.5,-112 489.4096,-99.8832 426.3648,-86.7141 382.1087,-77.5839"/>
<polygon fill="#191970" stroke="#191970" points="382.622,-74.1162 372.1214,-75.5262 381.2094,-80.9722 382.622,-74.1162"/>
</g>
<!-- Node28&#45;&gt;Node11 -->
<g id="edge49" class="edge">
<title>Node28&#45;&gt;Node11</title>
<path fill="none" stroke="#191970" d="M815.1014,-168.4509C746.3936,-148.2002 586.1104,-100.9589 509.5996,-78.4083"/>
<polygon fill="#191970" stroke="#191970" points="510.3982,-74.9949 499.8166,-75.5249 508.4191,-81.7093 510.3982,-74.9949"/>
</g>
<!-- Node28&#45;&gt;Node13 -->
<g id="edge50" class="edge">
<title>Node28&#45;&gt;Node13</title>
<path fill="none" stroke="#191970" d="M839.442,-168.3635C826.8548,-153.9371 801.094,-126.8386 773.5,-112 753.1183,-101.0399 698.0688,-87.3626 655.2937,-77.7819"/>
<polygon fill="#191970" stroke="#191970" points="655.7872,-74.3064 645.2668,-75.5602 654.2729,-81.1407 655.7872,-74.3064"/>
</g>
<!-- Node28&#45;&gt;Node14 -->
<g id="edge51" class="edge">
<title>Node28&#45;&gt;Node14</title>
<path fill="none" stroke="#191970" d="M861.3624,-168.4969C881.8905,-154.7207 921.8974,-128.9959 958.5,-112 975.9717,-103.8873 1022.3816,-88.3158 1055.4508,-77.5523"/>
<polygon fill="#191970" stroke="#191970" points="1056.8049,-80.7928 1065.2385,-74.3799 1054.6466,-74.1338 1056.8049,-80.7928"/>
</g>
<!-- Node28&#45;&gt;Node17 -->
<g id="edge44" class="edge">
<title>Node28&#45;&gt;Node17</title>
<path fill="none" stroke="#191970" d="M910.2615,-168.6435C964.9416,-160.1642 1046.2553,-146.7646 1116.5,-132 1213.7869,-111.5515 1239.5946,-102.4107 1339.344,-76.2816"/>
<polygon fill="#191970" stroke="#191970" points="1340.4419,-79.6124 1349.2329,-73.699 1338.673,-72.8395 1340.4419,-79.6124"/>
</g>
<!-- Node28&#45;&gt;Node21 -->
<g id="edge46" class="edge">
<title>Node28&#45;&gt;Node21</title>
<path fill="none" stroke="#191970" d="M784.736,-173.6491C683.0223,-166.266 485.6034,-150.4747 399.1801,-131.8126"/>
<polygon fill="#191970" stroke="#191970" points="399.7344,-128.3489 389.2048,-129.5229 398.1683,-135.1715 399.7344,-128.3489"/>
</g>
<!-- Node28&#45;&gt;Node27 -->
<g id="edge45" class="edge">
<title>Node28&#45;&gt;Node27</title>
<path fill="none" stroke="#191970" d="M828.3395,-168.2455C810.9889,-159.4125 785.2099,-146.2887 765.5417,-136.2758"/>
<polygon fill="#191970" stroke="#191970" points="766.9405,-133.0605 756.441,-131.6427 763.7647,-139.2986 766.9405,-133.0605"/>
</g>
<!-- Node29 -->
<g id="node30" class="node">
<title>Node29</title>
<g id="a_node30"><a xlink:href="../../d2/def/fnv_8hpp.html" target="_top" xlink:title="fnv.hpp">
<polygon fill="#ffffff" stroke="#000000" points="967,-112.5 967,-131.5 1016,-131.5 1016,-112.5 967,-112.5"/>
<text text-anchor="middle" x="991.5" y="-119.5" font-family="Helvetica,sans-Serif" font-size="10.00" fill="#000000">fnv.hpp</text>
</a>
</g>
</g>
<!-- Node28&#45;&gt;Node29 -->
<g id="edge40" class="edge">
<title>Node28&#45;&gt;Node29</title>
<path fill="none" stroke="#191970" d="M872.2545,-168.3733C895.7849,-159.2226 931.3687,-145.3844 957.5426,-135.2057"/>
<polygon fill="#191970" stroke="#191970" points="959.0171,-138.3877 967.0685,-131.5011 956.4799,-131.8636 959.0171,-138.3877"/>
</g>
<!-- Node29&#45;&gt;Node15 -->
<g id="edge42" class="edge">
<title>Node29&#45;&gt;Node15</title>
<path fill="none" stroke="#191970" d="M1016.2022,-113.6162C1045.5683,-103.6495 1094.5689,-87.0191 1126.1981,-76.2843"/>
<polygon fill="#191970" stroke="#191970" points="1127.4655,-79.5503 1135.8101,-73.022 1125.2157,-72.9217 1127.4655,-79.5503"/>
</g>
<!-- Node29&#45;&gt;Node17 -->
<g id="edge41" class="edge">
<title>Node29&#45;&gt;Node17</title>
<path fill="none" stroke="#191970" d="M1016.226,-119.8804C1072.1387,-114.8461 1212.6687,-100.8401 1339.4322,-75.9971"/>
<polygon fill="#191970" stroke="#191970" points="1340.1842,-79.4162 1349.3098,-74.0333 1338.8192,-72.5505 1340.1842,-79.4162"/>
</g>
</g>
</svg>
