<?xml version="1.0" encoding="UTF-8" standalone="no"?>
<!DOCTYPE svg PUBLIC "-//W3C//DTD SVG 1.1//EN"
 "http://www.w3.org/Graphics/SVG/1.1/DTD/svg11.dtd">
<!-- Generated by graphviz version 2.40.1 (20161225.0304)
 -->
<!-- Title: src/deviceMonitor/apis/RestAPI.hpp Pages: 1 -->
<!--zoomable 207 -->
<svg id="main" version="1.1" xmlns="http://www.w3.org/2000/svg" xmlns:xlink="http://www.w3.org/1999/xlink" xml:space="preserve" onload="init(evt)">
<style type="text/css"><![CDATA[
.edge:hover path { stroke: red; }
.edge:hover polygon { stroke: red; fill: red; }
]]></style>
<script type="text/javascript"><![CDATA[
var edges = document.getElementsByTagName('g');
if (edges && edges.length) {
  for (var i=0;i<edges.length;i++) {
    if (edges[i].id.substr(0,4)=='edge') {
      edges[i].setAttribute('class','edge');
    }
  }
}
]]></script>
        <defs>
                <circle id="rim" cx="0" cy="0" r="7"/>
                <circle id="rim2" cx="0" cy="0" r="3.5"/>
                <g id="zoomPlus">
                        <use xlink:href="#rim" fill="#404040">
                                <set attributeName="fill" to="#808080" begin="zoomplus.mouseover" end="zoomplus.mouseout"/>
                        </use>
                        <path d="M-4,0h8M0,-4v8" fill="none" stroke="white" stroke-width="1.5" pointer-events="none"/>
                </g>
                <g id="zoomMin">
                        <use xlink:href="#rim" fill="#404040">
                                <set attributeName="fill" to="#808080" begin="zoomminus.mouseover" end="zoomminus.mouseout"/>
                        </use>
                        <path d="M-4,0h8" fill="none" stroke="white" stroke-width="1.5" pointer-events="none"/>
                </g>
                <g id="dirArrow">
                        <path fill="none" stroke="white" stroke-width="1.5" d="M0,-3.0v7 M-2.5,-0.5L0,-3.0L2.5,-0.5"/>
                </g>
               <g id="resetDef">
                       <use xlink:href="#rim2" fill="#404040">
                               <set attributeName="fill" to="#808080" begin="reset.mouseover" end="reset.mouseout"/>
                       </use>
               </g>
        </defs>

<script type="text/javascript">
var viewWidth = 1192;
var viewHeight = 207;
var sectionId = 'dynsection-0';
</script>
<script xlink:href="../../svgpan.js"/>
<svg id="graph" class="graph">
<g id="viewport">
<title>src/deviceMonitor/apis/RestAPI.hpp</title>
<polygon fill="#ffffff" stroke="transparent" points="-4,4 -4,-203 1188,-203 1188,4 -4,4"/>
<!-- Node0 -->
<g id="node1" class="node">
<title>Node0</title>
<polygon fill="#bfbfbf" stroke="#000000" points="416,-168.5 416,-198.5 531,-198.5 531,-168.5 416,-168.5"/>
<text text-anchor="start" x="424" y="-186.5" font-family="Helvetica,sans-Serif" font-size="10.00" fill="#000000">src/deviceMonitor/apis</text>
<text text-anchor="middle" x="473.5" y="-175.5" font-family="Helvetica,sans-Serif" font-size="10.00" fill="#000000">/RestAPI.hpp</text>
</g>
<!-- Node1 -->
<g id="node2" class="node">
<title>Node1</title>
<g id="a_node2"><a xlink:href="../../d6/d8f/_abstract_a_p_i_8hpp.html" target="_top" xlink:title="AbstractAPI.hpp">
<polygon fill="#ffffff" stroke="#000000" points="429,-112.5 429,-131.5 518,-131.5 518,-112.5 429,-112.5"/>
<text text-anchor="middle" x="473.5" y="-119.5" font-family="Helvetica,sans-Serif" font-size="10.00" fill="#000000">AbstractAPI.hpp</text>
</a>
</g>
</g>
<!-- Node0&#45;&gt;Node1 -->
<g id="edge1" class="edge">
<title>Node0&#45;&gt;Node1</title>
<path fill="none" stroke="#191970" d="M473.5,-168.2977C473.5,-160.3834 473.5,-150.6043 473.5,-142.0759"/>
<polygon fill="#191970" stroke="#191970" points="477.0001,-141.8469 473.5,-131.8469 470.0001,-141.847 477.0001,-141.8469"/>
</g>
<!-- Node2 -->
<g id="node3" class="node">
<title>Node2</title>
<g id="a_node3"><a xlink:href="../../d3/de3/_logger_8hpp.html" target="_top" xlink:title="Logger.hpp">
<polygon fill="#ffffff" stroke="#000000" points="0,-56.5 0,-75.5 65,-75.5 65,-56.5 0,-56.5"/>
<text text-anchor="middle" x="32.5" y="-63.5" font-family="Helvetica,sans-Serif" font-size="10.00" fill="#000000">Logger.hpp</text>
</a>
</g>
</g>
<!-- Node0&#45;&gt;Node2 -->
<g id="edge16" class="edge">
<title>Node0&#45;&gt;Node2</title>
<path fill="none" stroke="#191970" d="M415.6352,-170.8547C371.3523,-160.9452 308.8536,-146.4574 254.5,-132 190.3316,-114.9319 116.5725,-92.4207 72.2971,-78.5909"/>
<polygon fill="#191970" stroke="#191970" points="73.0948,-75.1731 62.5058,-75.5237 71.0023,-81.853 73.0948,-75.1731"/>
</g>
<!-- Node5 -->
<g id="node6" class="node">
<title>Node5</title>
<polygon fill="#ffffff" stroke="#bfbfbf" points="83.5,-56.5 83.5,-75.5 135.5,-75.5 135.5,-56.5 83.5,-56.5"/>
<text text-anchor="middle" x="109.5" y="-63.5" font-family="Helvetica,sans-Serif" font-size="10.00" fill="#000000">memory</text>
</g>
<!-- Node0&#45;&gt;Node5 -->
<g id="edge18" class="edge">
<title>Node0&#45;&gt;Node5</title>
<path fill="none" stroke="#191970" d="M427.0294,-168.4992C353.3796,-144.7249 211.4184,-98.8995 145.1729,-77.5153"/>
<polygon fill="#191970" stroke="#191970" points="146.1806,-74.1628 135.5889,-74.4216 144.0302,-80.8243 146.1806,-74.1628"/>
</g>
<!-- Node16 -->
<g id="node17" class="node">
<title>Node16</title>
<polygon fill="#ffffff" stroke="#bfbfbf" points="535.5,-112.5 535.5,-131.5 591.5,-131.5 591.5,-112.5 535.5,-112.5"/>
<text text-anchor="middle" x="563.5" y="-119.5" font-family="Helvetica,sans-Serif" font-size="10.00" fill="#000000">cinttypes</text>
</g>
<!-- Node0&#45;&gt;Node16 -->
<g id="edge17" class="edge">
<title>Node0&#45;&gt;Node16</title>
<path fill="none" stroke="#191970" d="M495.7472,-168.2977C509.4967,-158.9022 527.0921,-146.8787 540.9057,-137.4395"/>
<polygon fill="#191970" stroke="#191970" points="543.0768,-140.195 549.3586,-131.6633 539.1275,-134.4155 543.0768,-140.195"/>
</g>
<!-- Node17 -->
<g id="node18" class="node">
<title>Node17</title>
<polygon fill="#ffffff" stroke="#bfbfbf" points="610,-112.5 610,-131.5 659,-131.5 659,-112.5 610,-112.5"/>
<text text-anchor="middle" x="634.5" y="-119.5" font-family="Helvetica,sans-Serif" font-size="10.00" fill="#000000">restbed</text>
</g>
<!-- Node0&#45;&gt;Node17 -->
<g id="edge19" class="edge">
<title>Node0&#45;&gt;Node17</title>
<path fill="none" stroke="#191970" d="M512.885,-168.4554C539.5127,-158.284 574.3444,-144.9787 599.9034,-135.2155"/>
<polygon fill="#191970" stroke="#191970" points="601.458,-138.3684 609.5507,-131.5303 598.9601,-131.8292 601.458,-138.3684"/>
</g>
<!-- Node1&#45;&gt;Node2 -->
<g id="edge2" class="edge">
<title>Node1&#45;&gt;Node2</title>
<path fill="none" stroke="#191970" d="M428.9683,-118.6068C356.7895,-112.7278 209.6444,-99.1705 75.4842,-75.9919"/>
<polygon fill="#191970" stroke="#191970" points="75.8916,-72.5101 65.4379,-74.2336 74.6847,-79.4053 75.8916,-72.5101"/>
</g>
<!-- Node4 -->
<g id="node5" class="node">
<title>Node4</title>
<polygon fill="#ffffff" stroke="#bfbfbf" points="574.5,-56.5 574.5,-75.5 624.5,-75.5 624.5,-56.5 574.5,-56.5"/>
<text text-anchor="middle" x="599.5" y="-63.5" font-family="Helvetica,sans-Serif" font-size="10.00" fill="#000000">fstream</text>
</g>
<!-- Node1&#45;&gt;Node4 -->
<g id="edge4" class="edge">
<title>Node1&#45;&gt;Node4</title>
<path fill="none" stroke="#191970" d="M495.1602,-112.3733C515.4772,-103.3435 546.064,-89.7494 568.875,-79.6111"/>
<polygon fill="#191970" stroke="#191970" points="570.4059,-82.7609 578.1225,-75.5011 567.5628,-76.3642 570.4059,-82.7609"/>
</g>
<!-- Node1&#45;&gt;Node5 -->
<g id="edge5" class="edge">
<title>Node1&#45;&gt;Node5</title>
<path fill="none" stroke="#191970" d="M428.8813,-117.6259C365.4738,-110.9841 245.8477,-96.8791 145.5,-76 145.4008,-75.9794 145.3014,-75.9586 145.2019,-75.9377"/>
<polygon fill="#191970" stroke="#191970" points="146.2833,-72.5964 135.7483,-73.7212 144.6853,-79.4116 146.2833,-72.5964"/>
</g>
<!-- Node6 -->
<g id="node7" class="node">
<title>Node6</title>
<polygon fill="#ffffff" stroke="#bfbfbf" points="642.5,-56.5 642.5,-75.5 686.5,-75.5 686.5,-56.5 642.5,-56.5"/>
<text text-anchor="middle" x="664.5" y="-63.5" font-family="Helvetica,sans-Serif" font-size="10.00" fill="#000000">mutex</text>
</g>
<!-- Node1&#45;&gt;Node6 -->
<g id="edge6" class="edge">
<title>Node1&#45;&gt;Node6</title>
<path fill="none" stroke="#191970" d="M507.9263,-112.447C538.3632,-103.9247 584.1931,-90.9076 632.4879,-76.2486"/>
<polygon fill="#191970" stroke="#191970" points="633.6308,-79.5593 642.1759,-73.2958 631.5899,-72.8634 633.6308,-79.5593"/>
</g>
<!-- Node7 -->
<g id="node8" class="node">
<title>Node7</title>
<polygon fill="#ffffff" stroke="#bfbfbf" points="705,-56.5 705,-75.5 748,-75.5 748,-56.5 705,-56.5"/>
<text text-anchor="middle" x="726.5" y="-63.5" font-family="Helvetica,sans-Serif" font-size="10.00" fill="#000000">queue</text>
</g>
<!-- Node1&#45;&gt;Node7 -->
<g id="edge7" class="edge">
<title>Node1&#45;&gt;Node7</title>
<path fill="none" stroke="#191970" d="M518.4713,-113.2773C569.3287,-103.3163 649.9382,-87.2136 695.0442,-75.8559"/>
<polygon fill="#191970" stroke="#191970" points="696.1091,-79.1955 704.9076,-73.2933 694.3488,-72.4204 696.1091,-79.1955"/>
</g>
<!-- Node8 -->
<g id="node9" class="node">
<title>Node8</title>
<polygon fill="#ffffff" stroke="#bfbfbf" points="766.5,-56.5 766.5,-75.5 876.5,-75.5 876.5,-56.5 766.5,-56.5"/>
<text text-anchor="middle" x="821.5" y="-63.5" font-family="Helvetica,sans-Serif" font-size="10.00" fill="#000000">rapidjson/document.h</text>
</g>
<!-- Node1&#45;&gt;Node8 -->
<g id="edge8" class="edge">
<title>Node1&#45;&gt;Node8</title>
<path fill="none" stroke="#191970" d="M518.0144,-113.4945C520.8843,-112.9791 523.7316,-112.4768 526.5,-112 625.7986,-94.8991 653.196,-92.1763 756.446,-76.1596"/>
<polygon fill="#191970" stroke="#191970" points="756.9993,-79.6157 766.3422,-74.6198 755.923,-72.6989 756.9993,-79.6157"/>
</g>
<!-- Node9 -->
<g id="node10" class="node">
<title>Node9</title>
<polygon fill="#ffffff" stroke="#bfbfbf" points="894.5,-56.5 894.5,-75.5 1028.5,-75.5 1028.5,-56.5 894.5,-56.5"/>
<text text-anchor="middle" x="961.5" y="-63.5" font-family="Helvetica,sans-Serif" font-size="10.00" fill="#000000">rapidjson/istreamwrapper.h</text>
</g>
<!-- Node1&#45;&gt;Node9 -->
<g id="edge9" class="edge">
<title>Node1&#45;&gt;Node9</title>
<path fill="none" stroke="#191970" d="M518.274,-113.2701C521.0534,-112.8157 523.8123,-112.3876 526.5,-112 681.9592,-89.5823 724.4795,-94.2543 884.1893,-76.116"/>
<polygon fill="#191970" stroke="#191970" points="884.8417,-79.5642 894.3772,-74.9462 884.0432,-72.6099 884.8417,-79.5642"/>
</g>
<!-- Node10 -->
<g id="node11" class="node">
<title>Node10</title>
<polygon fill="#ffffff" stroke="#bfbfbf" points="1047,-56.5 1047,-75.5 1184,-75.5 1184,-56.5 1047,-56.5"/>
<text text-anchor="middle" x="1115.5" y="-63.5" font-family="Helvetica,sans-Serif" font-size="10.00" fill="#000000">rapidjson/ostreamwrapper.h</text>
</g>
<!-- Node1&#45;&gt;Node10 -->
<g id="edge10" class="edge">
<title>Node1&#45;&gt;Node10</title>
<path fill="none" stroke="#191970" d="M518.2611,-113.1762C521.0438,-112.745 523.8069,-112.3477 526.5,-112 748.9919,-83.2717 809.1852,-98.0366 1036.3766,-76.0527"/>
<polygon fill="#191970" stroke="#191970" points="1037.0104,-79.5074 1046.6208,-75.0476 1036.3268,-72.5409 1037.0104,-79.5074"/>
</g>
<!-- Node11 -->
<g id="node12" class="node">
<title>Node11</title>
<polygon fill="#ffffff" stroke="#bfbfbf" points="154,-56.5 154,-75.5 255,-75.5 255,-56.5 154,-56.5"/>
<text text-anchor="middle" x="204.5" y="-63.5" font-family="Helvetica,sans-Serif" font-size="10.00" fill="#000000">rapidjson/schema.h</text>
</g>
<!-- Node1&#45;&gt;Node11 -->
<g id="edge11" class="edge">
<title>Node1&#45;&gt;Node11</title>
<path fill="none" stroke="#191970" d="M428.7782,-112.6899C382.515,-103.0589 310.1717,-87.9986 260.2188,-77.5995"/>
<polygon fill="#191970" stroke="#191970" points="260.7326,-74.1315 250.2292,-75.5198 259.3059,-80.9845 260.7326,-74.1315"/>
</g>
<!-- Node12 -->
<g id="node13" class="node">
<title>Node12</title>
<polygon fill="#ffffff" stroke="#bfbfbf" points="273,-56.5 273,-75.5 364,-75.5 364,-56.5 273,-56.5"/>
<text text-anchor="middle" x="318.5" y="-63.5" font-family="Helvetica,sans-Serif" font-size="10.00" fill="#000000">rapidjson/writer.h</text>
</g>
<!-- Node1&#45;&gt;Node12 -->
<g id="edge12" class="edge">
<title>Node1&#45;&gt;Node12</title>
<path fill="none" stroke="#191970" d="M446.8546,-112.3733C421.3036,-103.1419 382.5488,-89.1402 354.3091,-78.9375"/>
<polygon fill="#191970" stroke="#191970" points="355.3921,-75.6074 344.7978,-75.5011 353.0135,-82.1909 355.3921,-75.6074"/>
</g>
<!-- Node13 -->
<g id="node14" class="node">
<title>Node13</title>
<polygon fill="#ffffff" stroke="#bfbfbf" points="382.5,-56.5 382.5,-75.5 434.5,-75.5 434.5,-56.5 382.5,-56.5"/>
<text text-anchor="middle" x="408.5" y="-63.5" font-family="Helvetica,sans-Serif" font-size="10.00" fill="#000000">sstream</text>
</g>
<!-- Node1&#45;&gt;Node13 -->
<g id="edge13" class="edge">
<title>Node1&#45;&gt;Node13</title>
<path fill="none" stroke="#191970" d="M462.1779,-112.2455C452.5777,-103.9746 438.6108,-91.9416 427.3305,-82.2232"/>
<polygon fill="#191970" stroke="#191970" points="429.553,-79.5182 419.6924,-75.6427 424.984,-84.8214 429.553,-79.5182"/>
</g>
<!-- Node14 -->
<g id="node15" class="node">
<title>Node14</title>
<polygon fill="#ffffff" stroke="#bfbfbf" points="453,-56.5 453,-75.5 494,-75.5 494,-56.5 453,-56.5"/>
<text text-anchor="middle" x="473.5" y="-63.5" font-family="Helvetica,sans-Serif" font-size="10.00" fill="#000000">string</text>
</g>
<!-- Node1&#45;&gt;Node14 -->
<g id="edge14" class="edge">
<title>Node1&#45;&gt;Node14</title>
<path fill="none" stroke="#191970" d="M473.5,-112.2455C473.5,-104.9382 473.5,-94.6944 473.5,-85.7046"/>
<polygon fill="#191970" stroke="#191970" points="477.0001,-85.6426 473.5,-75.6427 470.0001,-85.6427 477.0001,-85.6426"/>
</g>
<!-- Node15 -->
<g id="node16" class="node">
<title>Node15</title>
<polygon fill="#ffffff" stroke="#bfbfbf" points="512.5,-56.5 512.5,-75.5 556.5,-75.5 556.5,-56.5 512.5,-56.5"/>
<text text-anchor="middle" x="534.5" y="-63.5" font-family="Helvetica,sans-Serif" font-size="10.00" fill="#000000">thread</text>
</g>
<!-- Node1&#45;&gt;Node15 -->
<g id="edge15" class="edge">
<title>Node1&#45;&gt;Node15</title>
<path fill="none" stroke="#191970" d="M484.1254,-112.2455C493.0473,-104.0549 505.988,-92.1749 516.5192,-82.5069"/>
<polygon fill="#191970" stroke="#191970" points="518.9968,-84.9837 523.9964,-75.6427 514.2629,-79.8271 518.9968,-84.9837"/>
</g>
<!-- Node3 -->
<g id="node4" class="node">
<title>Node3</title>
<polygon fill="#ffffff" stroke="#bfbfbf" points="9.5,-.5 9.5,-19.5 55.5,-19.5 55.5,-.5 9.5,-.5"/>
<text text-anchor="middle" x="32.5" y="-7.5" font-family="Helvetica,sans-Serif" font-size="10.00" fill="#000000">stdio.h</text>
</g>
<!-- Node2&#45;&gt;Node3 -->
<g id="edge3" class="edge">
<title>Node2&#45;&gt;Node3</title>
<path fill="none" stroke="#191970" d="M32.5,-56.2455C32.5,-48.9382 32.5,-38.6944 32.5,-29.7046"/>
<polygon fill="#191970" stroke="#191970" points="36.0001,-29.6426 32.5,-19.6427 29.0001,-29.6427 36.0001,-29.6426"/>
</g>
</g>
</svg>
        <g id="navigator" transform="translate(0 0)" fill="#404254">
                <rect fill="#f2f5e9" fill-opacity="0.5" stroke="#606060" stroke-width=".5" x="0" y="0" width="60" height="60"/>
                <use id="zoomplus" xlink:href="#zoomPlus" x="17" y="9" onmousedown="handleZoom(evt,'in')"/>
                <use id="zoomminus" xlink:href="#zoomMin" x="42" y="9" onmousedown="handleZoom(evt,'out')"/>
                <use id="reset" xlink:href="#resetDef" x="30" y="36" onmousedown="handleReset()"/>
                <g id="arrowUp" xlink:href="#dirArrow" transform="translate(30 24)" onmousedown="handlePan(0,-1)">
                  <use xlink:href="#rim" fill="#404040">
                        <set attributeName="fill" to="#808080" begin="arrowUp.mouseover" end="arrowUp.mouseout"/>
                  </use>
                  <path fill="none" stroke="white" stroke-width="1.5" d="M0,-3.0v7 M-2.5,-0.5L0,-3.0L2.5,-0.5"/>
                </g>
                <g id="arrowRight" xlink:href="#dirArrow" transform="rotate(90) translate(36 -43)" onmousedown="handlePan(1,0)">
                  <use xlink:href="#rim" fill="#404040">
                        <set attributeName="fill" to="#808080" begin="arrowRight.mouseover" end="arrowRight.mouseout"/>
                  </use>
                  <path fill="none" stroke="white" stroke-width="1.5" d="M0,-3.0v7 M-2.5,-0.5L0,-3.0L2.5,-0.5"/>
                </g>
                <g id="arrowDown" xlink:href="#dirArrow" transform="rotate(180) translate(-30 -48)" onmousedown="handlePan(0,1)">
                  <use xlink:href="#rim" fill="#404040">
                        <set attributeName="fill" to="#808080" begin="arrowDown.mouseover" end="arrowDown.mouseout"/>
                  </use>
                  <path fill="none" stroke="white" stroke-width="1.5" d="M0,-3.0v7 M-2.5,-0.5L0,-3.0L2.5,-0.5"/>
                </g>
                <g id="arrowLeft" xlink:href="#dirArrow" transform="rotate(270) translate(-36 17)" onmousedown="handlePan(-1,0)">
                  <use xlink:href="#rim" fill="#404040">
                        <set attributeName="fill" to="#808080" begin="arrowLeft.mouseover" end="arrowLeft.mouseout"/>
                  </use>
                  <path fill="none" stroke="white" stroke-width="1.5" d="M0,-3.0v7 M-2.5,-0.5L0,-3.0L2.5,-0.5"/>
                </g>
        </g>
        <svg viewBox="0 0 15 15" width="100%" height="30px" preserveAspectRatio="xMaxYMin meet">
         <g id="arrow_out" transform="scale(0.3 0.3)">
          <a xlink:href="_rest_a_p_i_8hpp__incl_org.svg" target="_base">
           <rect id="button" ry="5" rx="5" y="6" x="6" height="38" width="38"
                fill="#f2f5e9" fill-opacity="0.5" stroke="#606060" stroke-width="1.0"/>
           <path id="arrow"
             d="M 11.500037,31.436501 C 11.940474,20.09759 22.043105,11.32322 32.158766,21.979434 L 37.068811,17.246167 C 37.068811,17.246167 37.088388,32 37.088388,32 L 22.160133,31.978069 C 22.160133,31.978069 26.997745,27.140456 26.997745,27.140456 C 18.528582,18.264221 13.291696,25.230495 11.500037,31.436501 z"
             style="fill:#404040;"/>
          </a>
         </g>
        </svg>
</svg>
