<?xml version="1.0" encoding="UTF-8" standalone="no"?>
<!DOCTYPE svg PUBLIC "-//W3C//DTD SVG 1.1//EN"
 "http://www.w3.org/Graphics/SVG/1.1/DTD/svg11.dtd">
<!-- Generated by graphviz version 2.40.1 (20161225.0304)
 -->
<!-- Title: sighandler::SignalHandler Pages: 1 -->
<svg width="246pt" height="309pt"
 viewBox="0.00 0.00 245.50 309.00" xmlns="http://www.w3.org/2000/svg" xmlns:xlink="http://www.w3.org/1999/xlink">
<g id="graph0" class="graph" transform="scale(1 1) rotate(0) translate(4 305)">
<title>sighandler::SignalHandler</title>
<polygon fill="#ffffff" stroke="transparent" points="-4,4 -4,-305 241.5,-305 241.5,4 -4,4"/>
<!-- Node1 -->
<g id="node1" class="node">
<title>Node1</title>
<polygon fill="#bfbfbf" stroke="#000000" points="52.5,-.5 52.5,-19.5 180.5,-19.5 180.5,-.5 52.5,-.5"/>
<text text-anchor="middle" x="116.5" y="-7.5" font-family="Helvetica,sans-Serif" font-size="10.00" fill="#000000">sighandler::SignalHandler</text>
</g>
<!-- Node2 -->
<g id="node2" class="node">
<title>Node2</title>
<polygon fill="#ffffff" stroke="#bfbfbf" points="53.5,-67.5 53.5,-97.5 179.5,-97.5 179.5,-67.5 53.5,-67.5"/>
<text text-anchor="start" x="61.5" y="-85.5" font-family="Helvetica,sans-Serif" font-size="10.00" fill="#000000">std::map&lt; int, std</text>
<text text-anchor="middle" x="116.5" y="-74.5" font-family="Helvetica,sans-Serif" font-size="10.00" fill="#000000">::stack&lt; sighandler_t &gt; &gt;</text>
</g>
<!-- Node2&#45;&gt;Node1 -->
<g id="edge1" class="edge">
<title>Node2&#45;&gt;Node1</title>
<path fill="none" stroke="#9a32cd" stroke-dasharray="5,2" d="M116.5,-57.305C116.5,-44.424 116.5,-29.4836 116.5,-19.8957"/>
<polygon fill="#9a32cd" stroke="#9a32cd" points="113.0001,-57.4779 116.5,-67.478 120.0001,-57.478 113.0001,-57.4779"/>
<text text-anchor="middle" x="136.5" y="-41" font-family="Helvetica,sans-Serif" font-size="10.00" fill="#000000"> handlers</text>
</g>
<!-- Node3 -->
<g id="node3" class="node">
<title>Node3</title>
<polygon fill="#ffffff" stroke="#bfbfbf" points="0,-146.5 0,-165.5 131,-165.5 131,-146.5 0,-146.5"/>
<text text-anchor="middle" x="65.5" y="-153.5" font-family="Helvetica,sans-Serif" font-size="10.00" fill="#000000">std::stack&lt; sighandler_t &gt;</text>
</g>
<!-- Node3&#45;&gt;Node2 -->
<g id="edge2" class="edge">
<title>Node3&#45;&gt;Node2</title>
<path fill="none" stroke="#9a32cd" stroke-dasharray="5,2" d="M78.1014,-137.8392C86.6553,-125.5115 97.8376,-109.3958 105.927,-97.7376"/>
<polygon fill="#9a32cd" stroke="#9a32cd" points="74.9927,-136.18 72.1674,-146.3912 80.7438,-140.1706 74.9927,-136.18"/>
<text text-anchor="middle" x="115" y="-119" font-family="Helvetica,sans-Serif" font-size="10.00" fill="#000000"> elements</text>
</g>
<!-- Node4 -->
<g id="node4" class="node">
<title>Node4</title>
<g id="a_node4"><a xlink:title="STL class. ">
<polygon fill="#ffffff" stroke="#bfbfbf" points="20.5,-214.5 20.5,-233.5 104.5,-233.5 104.5,-214.5 20.5,-214.5"/>
<text text-anchor="middle" x="62.5" y="-221.5" font-family="Helvetica,sans-Serif" font-size="10.00" fill="#000000">std::stack&lt; T &gt;</text>
</a>
</g>
</g>
<!-- Node4&#45;&gt;Node3 -->
<g id="edge3" class="edge">
<title>Node4&#45;&gt;Node3</title>
<path fill="none" stroke="#ffa500" stroke-dasharray="5,2" d="M63.3737,-204.1951C63.9316,-191.5514 64.6302,-175.7157 65.071,-165.7247"/>
<polygon fill="#ffa500" stroke="#ffa500" points="59.8741,-204.1127 62.9298,-214.2573 66.8673,-204.4213 59.8741,-204.1127"/>
<text text-anchor="middle" x="101.5" y="-188" font-family="Helvetica,sans-Serif" font-size="10.00" fill="#000000"> &lt; sighandler_t &gt;</text>
</g>
<!-- Node5 -->
<g id="node5" class="node">
<title>Node5</title>
<polygon fill="#ffffff" stroke="#bfbfbf" points="81,-281.5 81,-300.5 110,-300.5 110,-281.5 81,-281.5"/>
<text text-anchor="middle" x="95.5" y="-288.5" font-family="Helvetica,sans-Serif" font-size="10.00" fill="#000000">T</text>
</g>
<!-- Node5&#45;&gt;Node4 -->
<g id="edge4" class="edge">
<title>Node5&#45;&gt;Node4</title>
<path fill="none" stroke="#9a32cd" stroke-dasharray="5,2" d="M73.1544,-275.8411C69.2682,-272.1202 65.7552,-267.8053 63.5,-263 59.1837,-253.8029 59.5822,-241.9941 60.6523,-233.7917"/>
<polygon fill="#9a32cd" stroke="#9a32cd" points="70.9261,-278.5401 80.8551,-282.2371 75.3987,-273.1553 70.9261,-278.5401"/>
<text text-anchor="middle" x="85" y="-255" font-family="Helvetica,sans-Serif" font-size="10.00" fill="#000000"> elements</text>
</g>
<!-- Node6 -->
<g id="node6" class="node">
<title>Node6</title>
<g id="a_node6"><a xlink:title="STL class. ">
<polygon fill="#ffffff" stroke="#bfbfbf" points="122.5,-214.5 122.5,-233.5 214.5,-233.5 214.5,-214.5 122.5,-214.5"/>
<text text-anchor="middle" x="168.5" y="-221.5" font-family="Helvetica,sans-Serif" font-size="10.00" fill="#000000">std::map&lt; K, T &gt;</text>
</a>
</g>
</g>
<!-- Node5&#45;&gt;Node6 -->
<g id="edge7" class="edge">
<title>Node5&#45;&gt;Node6</title>
<path fill="none" stroke="#9a32cd" stroke-dasharray="5,2" d="M111.3681,-273.8073C118.0195,-266.8433 125.95,-258.8464 133.5,-252 140.5326,-245.6228 148.8112,-238.9647 155.551,-233.7418"/>
<polygon fill="#9a32cd" stroke="#9a32cd" points="108.5496,-271.6953 104.2469,-281.3772 113.6481,-276.4917 108.5496,-271.6953"/>
<text text-anchor="middle" x="155" y="-255" font-family="Helvetica,sans-Serif" font-size="10.00" fill="#000000"> elements</text>
</g>
<!-- Node6&#45;&gt;Node2 -->
<g id="edge5" class="edge">
<title>Node6&#45;&gt;Node2</title>
<path fill="none" stroke="#ffa500" stroke-dasharray="5,2" d="M165.6593,-204.4662C161.9311,-182.25 154.1948,-145.2665 140.5,-116 137.5284,-109.6495 133.3148,-103.2518 129.2456,-97.7737"/>
<polygon fill="#ffa500" stroke="#ffa500" points="162.2031,-205.0192 167.2151,-214.3535 169.118,-203.931 162.2031,-205.0192"/>
<text text-anchor="start" x="158.5" y="-159" font-family="Helvetica,sans-Serif" font-size="10.00" fill="#000000"> &lt; int, std::stack&lt;</text>
<text text-anchor="middle" x="198" y="-148" font-family="Helvetica,sans-Serif" font-size="10.00" fill="#000000"> sighandler_t &gt; &gt;</text>
</g>
<!-- Node7 -->
<g id="node7" class="node">
<title>Node7</title>
<polygon fill="#ffffff" stroke="#bfbfbf" points="180,-281.5 180,-300.5 209,-300.5 209,-281.5 180,-281.5"/>
<text text-anchor="middle" x="194.5" y="-288.5" font-family="Helvetica,sans-Serif" font-size="10.00" fill="#000000">K</text>
</g>
<!-- Node7&#45;&gt;Node6 -->
<g id="edge6" class="edge">
<title>Node7&#45;&gt;Node6</title>
<path fill="none" stroke="#9a32cd" stroke-dasharray="5,2" d="M187.0736,-271.8628C182.2157,-259.3444 176.0769,-243.5252 172.2183,-233.5817"/>
<polygon fill="#9a32cd" stroke="#9a32cd" points="183.8941,-273.3441 190.7748,-281.4005 190.42,-270.8116 183.8941,-273.3441"/>
<text text-anchor="middle" x="196" y="-255" font-family="Helvetica,sans-Serif" font-size="10.00" fill="#000000"> keys</text>
</g>
</g>
</svg>
