<?xml version="1.0" encoding="UTF-8" standalone="no"?>
<!DOCTYPE svg PUBLIC "-//W3C//DTD SVG 1.1//EN"
 "http://www.w3.org/Graphics/SVG/1.1/DTD/svg11.dtd">
<!-- Generated by graphviz version 2.40.1 (20161225.0304)
 -->
<!-- Title: src/deviceMonitor/storage/DataStorage.hpp Pages: 1 -->
<!--zoomable 207 -->
<svg id="main" version="1.1" xmlns="http://www.w3.org/2000/svg" xmlns:xlink="http://www.w3.org/1999/xlink" xml:space="preserve" onload="init(evt)">
<style type="text/css"><![CDATA[
.edge:hover path { stroke: red; }
.edge:hover polygon { stroke: red; fill: red; }
]]></style>
<script type="text/javascript"><![CDATA[
var edges = document.getElementsByTagName('g');
if (edges && edges.length) {
  for (var i=0;i<edges.length;i++) {
    if (edges[i].id.substr(0,4)=='edge') {
      edges[i].setAttribute('class','edge');
    }
  }
}
]]></script>
        <defs>
                <circle id="rim" cx="0" cy="0" r="7"/>
                <circle id="rim2" cx="0" cy="0" r="3.5"/>
                <g id="zoomPlus">
                        <use xlink:href="#rim" fill="#404040">
                                <set attributeName="fill" to="#808080" begin="zoomplus.mouseover" end="zoomplus.mouseout"/>
                        </use>
                        <path d="M-4,0h8M0,-4v8" fill="none" stroke="white" stroke-width="1.5" pointer-events="none"/>
                </g>
                <g id="zoomMin">
                        <use xlink:href="#rim" fill="#404040">
                                <set attributeName="fill" to="#808080" begin="zoomminus.mouseover" end="zoomminus.mouseout"/>
                        </use>
                        <path d="M-4,0h8" fill="none" stroke="white" stroke-width="1.5" pointer-events="none"/>
                </g>
                <g id="dirArrow">
                        <path fill="none" stroke="white" stroke-width="1.5" d="M0,-3.0v7 M-2.5,-0.5L0,-3.0L2.5,-0.5"/>
                </g>
               <g id="resetDef">
                       <use xlink:href="#rim2" fill="#404040">
                               <set attributeName="fill" to="#808080" begin="reset.mouseover" end="reset.mouseout"/>
                       </use>
               </g>
        </defs>

<script type="text/javascript">
var viewWidth = 1266;
var viewHeight = 207;
var sectionId = 'dynsection-0';
</script>
<script xlink:href="../../svgpan.js"/>
<svg id="graph" class="graph">
<g id="viewport">
<title>src/deviceMonitor/storage/DataStorage.hpp</title>
<polygon fill="#ffffff" stroke="transparent" points="-4,4 -4,-203 1261.5,-203 1261.5,4 -4,4"/>
<!-- Node0 -->
<g id="node1" class="node">
<title>Node0</title>
<polygon fill="#bfbfbf" stroke="#000000" points="830,-168.5 830,-198.5 959,-198.5 959,-168.5 830,-168.5"/>
<text text-anchor="start" x="838" y="-186.5" font-family="Helvetica,sans-Serif" font-size="10.00" fill="#000000">src/deviceMonitor/storage</text>
<text text-anchor="middle" x="894.5" y="-175.5" font-family="Helvetica,sans-Serif" font-size="10.00" fill="#000000">/DataStorage.hpp</text>
</g>
<!-- Node1 -->
<g id="node2" class="node">
<title>Node1</title>
<g id="a_node2"><a xlink:href="../../d6/d8f/_abstract_a_p_i_8hpp.html" target="_top" xlink:title="../apis/AbstractAPI.hpp">
<polygon fill="#ffffff" stroke="#000000" points="610,-112.5 610,-131.5 729,-131.5 729,-112.5 610,-112.5"/>
<text text-anchor="middle" x="669.5" y="-119.5" font-family="Helvetica,sans-Serif" font-size="10.00" fill="#000000">../apis/AbstractAPI.hpp</text>
</a>
</g>
</g>
<!-- Node0&#45;&gt;Node1 -->
<g id="edge1" class="edge">
<title>Node0&#45;&gt;Node1</title>
<path fill="none" stroke="#191970" d="M839.4588,-168.4554C800.929,-157.9239 750.1078,-144.0328 714.1059,-134.1923"/>
<polygon fill="#191970" stroke="#191970" points="714.936,-130.7909 704.367,-131.5303 713.0903,-137.5432 714.936,-130.7909"/>
</g>
<!-- Node2 -->
<g id="node3" class="node">
<title>Node2</title>
<g id="a_node3"><a xlink:href="../../d3/de3/_logger_8hpp.html" target="_top" xlink:title="Logger.hpp">
<polygon fill="#ffffff" stroke="#000000" points="0,-56.5 0,-75.5 65,-75.5 65,-56.5 0,-56.5"/>
<text text-anchor="middle" x="32.5" y="-63.5" font-family="Helvetica,sans-Serif" font-size="10.00" fill="#000000">Logger.hpp</text>
</a>
</g>
</g>
<!-- Node0&#45;&gt;Node2 -->
<g id="edge19" class="edge">
<title>Node0&#45;&gt;Node2</title>
<path fill="none" stroke="#191970" d="M829.9721,-182.0976C716.4337,-178.7565 473.8801,-167.707 272.5,-132 199.7586,-119.1021 117.1415,-93.9977 70.2778,-78.7415"/>
<polygon fill="#191970" stroke="#191970" points="71.1503,-75.3442 60.5574,-75.551 68.9672,-81.9951 71.1503,-75.3442"/>
</g>
<!-- Node5 -->
<g id="node6" class="node">
<title>Node5</title>
<polygon fill="#ffffff" stroke="#bfbfbf" points="83.5,-56.5 83.5,-75.5 135.5,-75.5 135.5,-56.5 83.5,-56.5"/>
<text text-anchor="middle" x="109.5" y="-63.5" font-family="Helvetica,sans-Serif" font-size="10.00" fill="#000000">memory</text>
</g>
<!-- Node0&#45;&gt;Node5 -->
<g id="edge23" class="edge">
<title>Node0&#45;&gt;Node5</title>
<path fill="none" stroke="#191970" d="M829.9692,-180.1753C730.6716,-174.3816 534.682,-160.2559 370.5,-132 288.8391,-117.9461 195.1096,-91.7046 145.1908,-76.896"/>
<polygon fill="#191970" stroke="#191970" points="146.0991,-73.5146 135.5157,-74.0059 144.0955,-80.2218 146.0991,-73.5146"/>
</g>
<!-- Node6 -->
<g id="node7" class="node">
<title>Node6</title>
<polygon fill="#ffffff" stroke="#bfbfbf" points="153.5,-56.5 153.5,-75.5 197.5,-75.5 197.5,-56.5 153.5,-56.5"/>
<text text-anchor="middle" x="175.5" y="-63.5" font-family="Helvetica,sans-Serif" font-size="10.00" fill="#000000">mutex</text>
</g>
<!-- Node0&#45;&gt;Node6 -->
<g id="edge28" class="edge">
<title>Node0&#45;&gt;Node6</title>
<path fill="none" stroke="#191970" d="M829.6377,-177.5637C708.3758,-165.558 439.3884,-134.6363 207.7154,-76.0784"/>
<polygon fill="#191970" stroke="#191970" points="208.311,-72.6184 197.7561,-73.538 206.5808,-79.4012 208.311,-72.6184"/>
</g>
<!-- Node8 -->
<g id="node9" class="node">
<title>Node8</title>
<polygon fill="#ffffff" stroke="#bfbfbf" points="215.5,-56.5 215.5,-75.5 325.5,-75.5 325.5,-56.5 215.5,-56.5"/>
<text text-anchor="middle" x="270.5" y="-63.5" font-family="Helvetica,sans-Serif" font-size="10.00" fill="#000000">rapidjson/document.h</text>
</g>
<!-- Node0&#45;&gt;Node8 -->
<g id="edge24" class="edge">
<title>Node0&#45;&gt;Node8</title>
<path fill="none" stroke="#191970" d="M829.8966,-172.6416C770.275,-162.5118 679.3154,-146.7824 600.5,-132 504.0193,-113.9044 392.0394,-91.1331 326.461,-77.6176"/>
<polygon fill="#191970" stroke="#191970" points="326.8449,-74.1232 316.3439,-75.5301 325.4303,-80.9788 326.8449,-74.1232"/>
</g>
<!-- Node10 -->
<g id="node11" class="node">
<title>Node10</title>
<polygon fill="#ffffff" stroke="#bfbfbf" points="807,-56.5 807,-75.5 944,-75.5 944,-56.5 807,-56.5"/>
<text text-anchor="middle" x="875.5" y="-63.5" font-family="Helvetica,sans-Serif" font-size="10.00" fill="#000000">rapidjson/ostreamwrapper.h</text>
</g>
<!-- Node0&#45;&gt;Node10 -->
<g id="edge25" class="edge">
<title>Node0&#45;&gt;Node10</title>
<path fill="none" stroke="#191970" d="M892.0161,-168.1389C888.5929,-146.9692 882.4237,-108.8174 878.6712,-85.6112"/>
<polygon fill="#191970" stroke="#191970" points="882.0973,-84.8725 877.0458,-75.5595 875.187,-85.99 882.0973,-84.8725"/>
</g>
<!-- Node12 -->
<g id="node13" class="node">
<title>Node12</title>
<polygon fill="#ffffff" stroke="#bfbfbf" points="962,-56.5 962,-75.5 1053,-75.5 1053,-56.5 962,-56.5"/>
<text text-anchor="middle" x="1007.5" y="-63.5" font-family="Helvetica,sans-Serif" font-size="10.00" fill="#000000">rapidjson/writer.h</text>
</g>
<!-- Node0&#45;&gt;Node12 -->
<g id="edge26" class="edge">
<title>Node0&#45;&gt;Node12</title>
<path fill="none" stroke="#191970" d="M901.1944,-168.2163C908.5003,-152.7608 921.3421,-128.8164 937.5,-112 949.5338,-99.4758 965.5758,-88.6252 979.2665,-80.6126"/>
<polygon fill="#191970" stroke="#191970" points="981.2932,-83.4882 988.2909,-75.5331 977.8597,-77.3881 981.2932,-83.4882"/>
</g>
<!-- Node13 -->
<g id="node14" class="node">
<title>Node13</title>
<polygon fill="#ffffff" stroke="#bfbfbf" points="1071.5,-56.5 1071.5,-75.5 1123.5,-75.5 1123.5,-56.5 1071.5,-56.5"/>
<text text-anchor="middle" x="1097.5" y="-63.5" font-family="Helvetica,sans-Serif" font-size="10.00" fill="#000000">sstream</text>
</g>
<!-- Node0&#45;&gt;Node13 -->
<g id="edge27" class="edge">
<title>Node0&#45;&gt;Node13</title>
<path fill="none" stroke="#191970" d="M907.0852,-168.4629C921.1182,-152.527 945.1903,-127.5594 970.5,-112 986.0477,-102.4419 1029.6398,-87.501 1061.425,-77.2566"/>
<polygon fill="#191970" stroke="#191970" points="1062.8189,-80.4856 1071.2795,-74.1083 1060.6886,-73.8176 1062.8189,-80.4856"/>
</g>
<!-- Node16 -->
<g id="node17" class="node">
<title>Node16</title>
<g id="a_node17"><a xlink:href="../../d2/def/fnv_8hpp.html" target="_top" xlink:title="fnv.hpp">
<polygon fill="#ffffff" stroke="#000000" points="980,-112.5 980,-131.5 1029,-131.5 1029,-112.5 980,-112.5"/>
<text text-anchor="middle" x="1004.5" y="-119.5" font-family="Helvetica,sans-Serif" font-size="10.00" fill="#000000">fnv.hpp</text>
</a>
</g>
</g>
<!-- Node0&#45;&gt;Node16 -->
<g id="edge16" class="edge">
<title>Node0&#45;&gt;Node16</title>
<path fill="none" stroke="#191970" d="M921.409,-168.4554C938.7968,-158.734 961.3049,-146.15 978.5084,-136.5317"/>
<polygon fill="#191970" stroke="#191970" points="980.4335,-139.4653 987.4539,-131.5303 977.0174,-133.3554 980.4335,-139.4653"/>
</g>
<!-- Node17 -->
<g id="node18" class="node">
<title>Node17</title>
<polygon fill="#ffffff" stroke="#bfbfbf" points="1201.5,-56.5 1201.5,-75.5 1257.5,-75.5 1257.5,-56.5 1201.5,-56.5"/>
<text text-anchor="middle" x="1229.5" y="-63.5" font-family="Helvetica,sans-Serif" font-size="10.00" fill="#000000">cinttypes</text>
</g>
<!-- Node0&#45;&gt;Node17 -->
<g id="edge20" class="edge">
<title>Node0&#45;&gt;Node17</title>
<path fill="none" stroke="#191970" d="M941.8472,-168.4436C970.2596,-158.9475 1006.8996,-145.884 1038.5,-132 1055.9731,-124.323 1058.8353,-119.2254 1076.5,-112 1097.3564,-103.4691 1153.3712,-87.2369 1191.5135,-76.5158"/>
<polygon fill="#191970" stroke="#191970" points="1192.587,-79.8499 1201.2729,-73.7831 1190.6995,-73.1092 1192.587,-79.8499"/>
</g>
<!-- Node18 -->
<g id="node19" class="node">
<title>Node18</title>
<polygon fill="#ffffff" stroke="#bfbfbf" points="1085.5,-112.5 1085.5,-131.5 1139.5,-131.5 1139.5,-112.5 1085.5,-112.5"/>
<text text-anchor="middle" x="1112.5" y="-119.5" font-family="Helvetica,sans-Serif" font-size="10.00" fill="#000000">iostream</text>
</g>
<!-- Node0&#45;&gt;Node18 -->
<g id="edge21" class="edge">
<title>Node0&#45;&gt;Node18</title>
<path fill="none" stroke="#191970" d="M947.8288,-168.4554C987.4096,-157.2893 1040.3781,-142.3463 1075.4261,-132.4589"/>
<polygon fill="#191970" stroke="#191970" points="1076.577,-135.7709 1085.2511,-129.6872 1074.6764,-129.0339 1076.577,-135.7709"/>
</g>
<!-- Node19 -->
<g id="node20" class="node">
<title>Node19</title>
<polygon fill="#ffffff" stroke="#bfbfbf" points="1158,-112.5 1158,-131.5 1193,-131.5 1193,-112.5 1158,-112.5"/>
<text text-anchor="middle" x="1175.5" y="-119.5" font-family="Helvetica,sans-Serif" font-size="10.00" fill="#000000">map</text>
</g>
<!-- Node0&#45;&gt;Node19 -->
<g id="edge22" class="edge">
<title>Node0&#45;&gt;Node19</title>
<path fill="none" stroke="#191970" d="M959.097,-173.2463C1008.5069,-164.755 1078.3765,-151.3526 1148.0789,-131.7644"/>
<polygon fill="#191970" stroke="#191970" points="1149.255,-135.0686 1157.911,-128.9592 1147.3344,-128.3372 1149.255,-135.0686"/>
</g>
<!-- Node1&#45;&gt;Node2 -->
<g id="edge2" class="edge">
<title>Node1&#45;&gt;Node2</title>
<path fill="none" stroke="#191970" d="M609.6024,-120.4678C503.7028,-117.0831 276.4316,-106.7873 75.5677,-75.9328"/>
<polygon fill="#191970" stroke="#191970" points="75.8375,-72.4327 65.4181,-74.3525 74.7606,-79.3493 75.8375,-72.4327"/>
</g>
<!-- Node4 -->
<g id="node5" class="node">
<title>Node4</title>
<polygon fill="#ffffff" stroke="#bfbfbf" points="677.5,-56.5 677.5,-75.5 727.5,-75.5 727.5,-56.5 677.5,-56.5"/>
<text text-anchor="middle" x="702.5" y="-63.5" font-family="Helvetica,sans-Serif" font-size="10.00" fill="#000000">fstream</text>
</g>
<!-- Node1&#45;&gt;Node4 -->
<g id="edge4" class="edge">
<title>Node1&#45;&gt;Node4</title>
<path fill="none" stroke="#191970" d="M675.2482,-112.2455C679.7435,-104.617 686.1248,-93.7881 691.5825,-84.5267"/>
<polygon fill="#191970" stroke="#191970" points="694.7561,-86.035 696.8177,-75.6427 688.7253,-82.4811 694.7561,-86.035"/>
</g>
<!-- Node1&#45;&gt;Node5 -->
<g id="edge5" class="edge">
<title>Node1&#45;&gt;Node5</title>
<path fill="none" stroke="#191970" d="M609.9536,-120.477C513.9418,-117.2137 318.9999,-107.2502 145.8063,-75.9287"/>
<polygon fill="#191970" stroke="#191970" points="146.2131,-72.4449 135.7453,-74.0803 144.9483,-79.3297 146.2131,-72.4449"/>
</g>
<!-- Node1&#45;&gt;Node6 -->
<g id="edge6" class="edge">
<title>Node1&#45;&gt;Node6</title>
<path fill="none" stroke="#191970" d="M609.7168,-117.6543C506.5569,-109.9001 298.2326,-93.0559 207.6358,-75.7848"/>
<polygon fill="#191970" stroke="#191970" points="208.1922,-72.3267 197.6984,-73.7865 206.8121,-79.1893 208.1922,-72.3267"/>
</g>
<!-- Node7 -->
<g id="node8" class="node">
<title>Node7</title>
<polygon fill="#ffffff" stroke="#bfbfbf" points="746,-56.5 746,-75.5 789,-75.5 789,-56.5 746,-56.5"/>
<text text-anchor="middle" x="767.5" y="-63.5" font-family="Helvetica,sans-Serif" font-size="10.00" fill="#000000">queue</text>
</g>
<!-- Node1&#45;&gt;Node7 -->
<g id="edge7" class="edge">
<title>Node1&#45;&gt;Node7</title>
<path fill="none" stroke="#191970" d="M686.5703,-112.2455C701.747,-103.5731 724.1621,-90.7645 741.5563,-80.825"/>
<polygon fill="#191970" stroke="#191970" points="743.6794,-83.643 750.6253,-75.6427 740.2064,-77.5653 743.6794,-83.643"/>
</g>
<!-- Node1&#45;&gt;Node8 -->
<g id="edge8" class="edge">
<title>Node1&#45;&gt;Node8</title>
<path fill="none" stroke="#191970" d="M609.8463,-114.1481C544.974,-105.533 437.9476,-91.0977 335.8314,-76.1755"/>
<polygon fill="#191970" stroke="#191970" points="336.05,-72.6702 325.6481,-74.6833 335.035,-79.5962 336.05,-72.6702"/>
</g>
<!-- Node9 -->
<g id="node10" class="node">
<title>Node9</title>
<polygon fill="#ffffff" stroke="#bfbfbf" points="343.5,-56.5 343.5,-75.5 477.5,-75.5 477.5,-56.5 343.5,-56.5"/>
<text text-anchor="middle" x="410.5" y="-63.5" font-family="Helvetica,sans-Serif" font-size="10.00" fill="#000000">rapidjson/istreamwrapper.h</text>
</g>
<!-- Node1&#45;&gt;Node9 -->
<g id="edge9" class="edge">
<title>Node1&#45;&gt;Node9</title>
<path fill="none" stroke="#191970" d="M625.2706,-112.4369C580.7585,-102.8127 512.051,-87.957 464.3831,-77.6504"/>
<polygon fill="#191970" stroke="#191970" points="465.0608,-74.2161 454.547,-75.5237 463.5814,-81.058 465.0608,-74.2161"/>
</g>
<!-- Node1&#45;&gt;Node10 -->
<g id="edge10" class="edge">
<title>Node1&#45;&gt;Node10</title>
<path fill="none" stroke="#191970" d="M704.9127,-112.3733C739.7605,-102.9001 793.0882,-88.4032 830.8293,-78.1435"/>
<polygon fill="#191970" stroke="#191970" points="831.8178,-81.5019 840.5494,-75.5011 829.9815,-74.747 831.8178,-81.5019"/>
</g>
<!-- Node11 -->
<g id="node12" class="node">
<title>Node11</title>
<polygon fill="#ffffff" stroke="#bfbfbf" points="496,-56.5 496,-75.5 597,-75.5 597,-56.5 496,-56.5"/>
<text text-anchor="middle" x="546.5" y="-63.5" font-family="Helvetica,sans-Serif" font-size="10.00" fill="#000000">rapidjson/schema.h</text>
</g>
<!-- Node1&#45;&gt;Node11 -->
<g id="edge11" class="edge">
<title>Node1&#45;&gt;Node11</title>
<path fill="none" stroke="#191970" d="M648.3555,-112.3733C628.6108,-103.3838 598.9302,-89.8706 576.6945,-79.7471"/>
<polygon fill="#191970" stroke="#191970" points="577.92,-76.4594 567.3685,-75.5011 575.0194,-82.8302 577.92,-76.4594"/>
</g>
<!-- Node1&#45;&gt;Node12 -->
<g id="edge12" class="edge">
<title>Node1&#45;&gt;Node12</title>
<path fill="none" stroke="#191970" d="M729.1812,-112.6316C784.3096,-103.9023 868.7509,-90.341 952.0108,-76.0595"/>
<polygon fill="#191970" stroke="#191970" points="952.6311,-79.5043 961.8931,-74.36 951.4446,-72.6056 952.6311,-79.5043"/>
</g>
<!-- Node1&#45;&gt;Node13 -->
<g id="edge13" class="edge">
<title>Node1&#45;&gt;Node13</title>
<path fill="none" stroke="#191970" d="M729.2257,-118.0302C804.6171,-112.3492 938.3433,-100.047 1061.2762,-75.9779"/>
<polygon fill="#191970" stroke="#191970" points="1062.1134,-79.38 1071.2386,-73.9964 1060.7479,-72.5145 1062.1134,-79.38"/>
</g>
<!-- Node14 -->
<g id="node15" class="node">
<title>Node14</title>
<polygon fill="#ffffff" stroke="#bfbfbf" points="1142,-56.5 1142,-75.5 1183,-75.5 1183,-56.5 1142,-56.5"/>
<text text-anchor="middle" x="1162.5" y="-63.5" font-family="Helvetica,sans-Serif" font-size="10.00" fill="#000000">string</text>
</g>
<!-- Node1&#45;&gt;Node14 -->
<g id="edge14" class="edge">
<title>Node1&#45;&gt;Node14</title>
<path fill="none" stroke="#191970" d="M729.3533,-120.3023C816.3121,-116.9034 982.5722,-106.8925 1131.8751,-75.6846"/>
<polygon fill="#191970" stroke="#191970" points="1132.631,-79.1022 1141.6839,-73.5981 1131.1745,-72.2554 1132.631,-79.1022"/>
</g>
<!-- Node15 -->
<g id="node16" class="node">
<title>Node15</title>
<polygon fill="#ffffff" stroke="#bfbfbf" points="615.5,-56.5 615.5,-75.5 659.5,-75.5 659.5,-56.5 615.5,-56.5"/>
<text text-anchor="middle" x="637.5" y="-63.5" font-family="Helvetica,sans-Serif" font-size="10.00" fill="#000000">thread</text>
</g>
<!-- Node1&#45;&gt;Node15 -->
<g id="edge15" class="edge">
<title>Node1&#45;&gt;Node15</title>
<path fill="none" stroke="#191970" d="M663.926,-112.2455C659.5669,-104.617 653.3789,-93.7881 648.0867,-84.5267"/>
<polygon fill="#191970" stroke="#191970" points="651.0104,-82.5886 643.0101,-75.6427 644.9327,-86.0616 651.0104,-82.5886"/>
</g>
<!-- Node3 -->
<g id="node4" class="node">
<title>Node3</title>
<polygon fill="#ffffff" stroke="#bfbfbf" points="9.5,-.5 9.5,-19.5 55.5,-19.5 55.5,-.5 9.5,-.5"/>
<text text-anchor="middle" x="32.5" y="-7.5" font-family="Helvetica,sans-Serif" font-size="10.00" fill="#000000">stdio.h</text>
</g>
<!-- Node2&#45;&gt;Node3 -->
<g id="edge3" class="edge">
<title>Node2&#45;&gt;Node3</title>
<path fill="none" stroke="#191970" d="M32.5,-56.2455C32.5,-48.9382 32.5,-38.6944 32.5,-29.7046"/>
<polygon fill="#191970" stroke="#191970" points="36.0001,-29.6426 32.5,-19.6427 29.0001,-29.6427 36.0001,-29.6426"/>
</g>
<!-- Node16&#45;&gt;Node14 -->
<g id="edge18" class="edge">
<title>Node16&#45;&gt;Node14</title>
<path fill="none" stroke="#191970" d="M1029.1875,-113.25C1056.9474,-103.4111 1102.0487,-87.4258 1131.9921,-76.8129"/>
<polygon fill="#191970" stroke="#191970" points="1133.2626,-80.076 1141.5188,-73.4364 1130.9241,-73.4782 1133.2626,-80.076"/>
</g>
<!-- Node16&#45;&gt;Node17 -->
<g id="edge17" class="edge">
<title>Node16&#45;&gt;Node17</title>
<path fill="none" stroke="#191970" d="M1029.2444,-115.6C1033.974,-114.3923 1038.8877,-113.1484 1043.5,-112 1106.6394,-96.2784 1124.8822,-93.155 1191.507,-76.2079"/>
<polygon fill="#191970" stroke="#191970" points="1192.4162,-79.5881 1201.2389,-73.7221 1190.6837,-72.8058 1192.4162,-79.5881"/>
</g>
</g>
</svg>
        <g id="navigator" transform="translate(0 0)" fill="#404254">
                <rect fill="#f2f5e9" fill-opacity="0.5" stroke="#606060" stroke-width=".5" x="0" y="0" width="60" height="60"/>
                <use id="zoomplus" xlink:href="#zoomPlus" x="17" y="9" onmousedown="handleZoom(evt,'in')"/>
                <use id="zoomminus" xlink:href="#zoomMin" x="42" y="9" onmousedown="handleZoom(evt,'out')"/>
                <use id="reset" xlink:href="#resetDef" x="30" y="36" onmousedown="handleReset()"/>
                <g id="arrowUp" xlink:href="#dirArrow" transform="translate(30 24)" onmousedown="handlePan(0,-1)">
                  <use xlink:href="#rim" fill="#404040">
                        <set attributeName="fill" to="#808080" begin="arrowUp.mouseover" end="arrowUp.mouseout"/>
                  </use>
                  <path fill="none" stroke="white" stroke-width="1.5" d="M0,-3.0v7 M-2.5,-0.5L0,-3.0L2.5,-0.5"/>
                </g>
                <g id="arrowRight" xlink:href="#dirArrow" transform="rotate(90) translate(36 -43)" onmousedown="handlePan(1,0)">
                  <use xlink:href="#rim" fill="#404040">
                        <set attributeName="fill" to="#808080" begin="arrowRight.mouseover" end="arrowRight.mouseout"/>
                  </use>
                  <path fill="none" stroke="white" stroke-width="1.5" d="M0,-3.0v7 M-2.5,-0.5L0,-3.0L2.5,-0.5"/>
                </g>
                <g id="arrowDown" xlink:href="#dirArrow" transform="rotate(180) translate(-30 -48)" onmousedown="handlePan(0,1)">
                  <use xlink:href="#rim" fill="#404040">
                        <set attributeName="fill" to="#808080" begin="arrowDown.mouseover" end="arrowDown.mouseout"/>
                  </use>
                  <path fill="none" stroke="white" stroke-width="1.5" d="M0,-3.0v7 M-2.5,-0.5L0,-3.0L2.5,-0.5"/>
                </g>
                <g id="arrowLeft" xlink:href="#dirArrow" transform="rotate(270) translate(-36 17)" onmousedown="handlePan(-1,0)">
                  <use xlink:href="#rim" fill="#404040">
                        <set attributeName="fill" to="#808080" begin="arrowLeft.mouseover" end="arrowLeft.mouseout"/>
                  </use>
                  <path fill="none" stroke="white" stroke-width="1.5" d="M0,-3.0v7 M-2.5,-0.5L0,-3.0L2.5,-0.5"/>
                </g>
        </g>
        <svg viewBox="0 0 15 15" width="100%" height="30px" preserveAspectRatio="xMaxYMin meet">
         <g id="arrow_out" transform="scale(0.3 0.3)">
          <a xlink:href="_data_storage_8hpp__incl_org.svg" target="_base">
           <rect id="button" ry="5" rx="5" y="6" x="6" height="38" width="38"
                fill="#f2f5e9" fill-opacity="0.5" stroke="#606060" stroke-width="1.0"/>
           <path id="arrow"
             d="M 11.500037,31.436501 C 11.940474,20.09759 22.043105,11.32322 32.158766,21.979434 L 37.068811,17.246167 C 37.068811,17.246167 37.088388,32 37.088388,32 L 22.160133,31.978069 C 22.160133,31.978069 26.997745,27.140456 26.997745,27.140456 C 18.528582,18.264221 13.291696,25.230495 11.500037,31.436501 z"
             style="fill:#404040;"/>
          </a>
         </g>
        </svg>
</svg>
