<?xml version="1.0" encoding="UTF-8" standalone="no"?>
<!DOCTYPE svg PUBLIC "-//W3C//DTD SVG 1.1//EN"
 "http://www.w3.org/Graphics/SVG/1.1/DTD/svg11.dtd">
<!-- Generated by graphviz version 2.40.1 (20161225.0304)
 -->
<!-- Title: src/deviceMonitor/apis/RestAPI.cpp Pages: 1 -->
<svg width="1267pt" height="263pt"
 viewBox="0.00 0.00 1266.50 263.00" xmlns="http://www.w3.org/2000/svg" xmlns:xlink="http://www.w3.org/1999/xlink">
<g id="graph0" class="graph" transform="scale(1 1) rotate(0) translate(4 259)">
<title>src/deviceMonitor/apis/RestAPI.cpp</title>
<polygon fill="#ffffff" stroke="transparent" points="-4,4 -4,-259 1262.5,-259 1262.5,4 -4,4"/>
<!-- Node0 -->
<g id="node1" class="node">
<title>Node0</title>
<polygon fill="#bfbfbf" stroke="#000000" points="603,-224.5 603,-254.5 718,-254.5 718,-224.5 603,-224.5"/>
<text text-anchor="start" x="611" y="-242.5" font-family="Helvetica,sans-Serif" font-size="10.00" fill="#000000">src/deviceMonitor/apis</text>
<text text-anchor="middle" x="660.5" y="-231.5" font-family="Helvetica,sans-Serif" font-size="10.00" fill="#000000">/RestAPI.cpp</text>
</g>
<!-- Node1 -->
<g id="node2" class="node">
<title>Node1</title>
<g id="a_node2"><a xlink:href="../../df/d16/_rest_a_p_i_8hpp.html" target="_top" xlink:title="RestAPI.hpp">
<polygon fill="#ffffff" stroke="#000000" points="483,-168.5 483,-187.5 556,-187.5 556,-168.5 483,-168.5"/>
<text text-anchor="middle" x="519.5" y="-175.5" font-family="Helvetica,sans-Serif" font-size="10.00" fill="#000000">RestAPI.hpp</text>
</a>
</g>
</g>
<!-- Node0&#45;&gt;Node1 -->
<g id="edge1" class="edge">
<title>Node0&#45;&gt;Node1</title>
<path fill="none" stroke="#191970" d="M626.0075,-224.4554C602.9972,-214.419 572.9914,-201.3314 550.6945,-191.6061"/>
<polygon fill="#191970" stroke="#191970" points="551.9154,-188.3202 541.35,-187.5303 549.1167,-194.7364 551.9154,-188.3202"/>
</g>
<!-- Node19 -->
<g id="node20" class="node">
<title>Node19</title>
<g id="a_node20"><a xlink:href="../../d7/d83/_data_storage_8hpp.html" target="_top" xlink:title="../storage/DataStorage.hpp">
<polygon fill="#ffffff" stroke="#000000" points="828.5,-168.5 828.5,-187.5 962.5,-187.5 962.5,-168.5 828.5,-168.5"/>
<text text-anchor="middle" x="895.5" y="-175.5" font-family="Helvetica,sans-Serif" font-size="10.00" fill="#000000">../storage/DataStorage.hpp</text>
</a>
</g>
</g>
<!-- Node0&#45;&gt;Node19 -->
<g id="edge21" class="edge">
<title>Node0&#45;&gt;Node19</title>
<path fill="none" stroke="#191970" d="M717.9875,-224.4554C758.4017,-213.8789 811.7636,-199.914 849.3929,-190.0663"/>
<polygon fill="#191970" stroke="#191970" points="850.2953,-193.4481 859.0833,-187.5303 848.523,-186.6762 850.2953,-193.4481"/>
</g>
<!-- Node2 -->
<g id="node3" class="node">
<title>Node2</title>
<g id="a_node3"><a xlink:href="../../d6/d8f/_abstract_a_p_i_8hpp.html" target="_top" xlink:title="AbstractAPI.hpp">
<polygon fill="#ffffff" stroke="#000000" points="549,-112.5 549,-131.5 638,-131.5 638,-112.5 549,-112.5"/>
<text text-anchor="middle" x="593.5" y="-119.5" font-family="Helvetica,sans-Serif" font-size="10.00" fill="#000000">AbstractAPI.hpp</text>
</a>
</g>
</g>
<!-- Node1&#45;&gt;Node2 -->
<g id="edge2" class="edge">
<title>Node1&#45;&gt;Node2</title>
<path fill="none" stroke="#191970" d="M532.3898,-168.2455C543.4254,-159.8943 559.5292,-147.7076 572.4353,-137.9408"/>
<polygon fill="#191970" stroke="#191970" points="574.8959,-140.4681 580.7579,-131.6427 570.6717,-134.8862 574.8959,-140.4681"/>
</g>
<!-- Node3 -->
<g id="node4" class="node">
<title>Node3</title>
<g id="a_node4"><a xlink:href="../../d3/de3/_logger_8hpp.html" target="_top" xlink:title="Logger.hpp">
<polygon fill="#ffffff" stroke="#000000" points="0,-56.5 0,-75.5 65,-75.5 65,-56.5 0,-56.5"/>
<text text-anchor="middle" x="32.5" y="-63.5" font-family="Helvetica,sans-Serif" font-size="10.00" fill="#000000">Logger.hpp</text>
</a>
</g>
</g>
<!-- Node1&#45;&gt;Node3 -->
<g id="edge17" class="edge">
<title>Node1&#45;&gt;Node3</title>
<path fill="none" stroke="#191970" d="M482.8456,-169.7081C408.2831,-152.8171 233.3388,-113.0653 74.977,-76.0974"/>
<polygon fill="#191970" stroke="#191970" points="75.587,-72.6457 65.0529,-73.7793 73.9947,-79.4622 75.587,-72.6457"/>
</g>
<!-- Node6 -->
<g id="node7" class="node">
<title>Node6</title>
<polygon fill="#ffffff" stroke="#bfbfbf" points="83.5,-56.5 83.5,-75.5 135.5,-75.5 135.5,-56.5 83.5,-56.5"/>
<text text-anchor="middle" x="109.5" y="-63.5" font-family="Helvetica,sans-Serif" font-size="10.00" fill="#000000">memory</text>
</g>
<!-- Node1&#45;&gt;Node6 -->
<g id="edge19" class="edge">
<title>Node1&#45;&gt;Node6</title>
<path fill="none" stroke="#191970" d="M509.3664,-168.4253C492.9746,-153.5642 458.9844,-125.2772 424.5,-112 310.3832,-68.0626 269.4722,-99.611 145.6196,-75.9294"/>
<polygon fill="#191970" stroke="#191970" points="146.2596,-72.4882 135.7681,-73.9638 144.8899,-79.3529 146.2596,-72.4882"/>
</g>
<!-- Node17 -->
<g id="node18" class="node">
<title>Node17</title>
<polygon fill="#ffffff" stroke="#bfbfbf" points="1202.5,-56.5 1202.5,-75.5 1258.5,-75.5 1258.5,-56.5 1202.5,-56.5"/>
<text text-anchor="middle" x="1230.5" y="-63.5" font-family="Helvetica,sans-Serif" font-size="10.00" fill="#000000">cinttypes</text>
</g>
<!-- Node1&#45;&gt;Node17 -->
<g id="edge18" class="edge">
<title>Node1&#45;&gt;Node17</title>
<path fill="none" stroke="#191970" d="M556.2927,-173.9248C656.873,-162.4682 944.8703,-127.5485 1192.3997,-76.0497"/>
<polygon fill="#191970" stroke="#191970" points="1193.2279,-79.4523 1202.2982,-73.9769 1191.7931,-72.6009 1193.2279,-79.4523"/>
</g>
<!-- Node18 -->
<g id="node19" class="node">
<title>Node18</title>
<polygon fill="#ffffff" stroke="#bfbfbf" points="367,-112.5 367,-131.5 416,-131.5 416,-112.5 367,-112.5"/>
<text text-anchor="middle" x="391.5" y="-119.5" font-family="Helvetica,sans-Serif" font-size="10.00" fill="#000000">restbed</text>
</g>
<!-- Node1&#45;&gt;Node18 -->
<g id="edge20" class="edge">
<title>Node1&#45;&gt;Node18</title>
<path fill="none" stroke="#191970" d="M497.496,-168.3733C476.8565,-159.3435 445.7842,-145.7494 422.6111,-135.6111"/>
<polygon fill="#191970" stroke="#191970" points="423.7813,-132.3028 413.2169,-131.5011 420.9755,-138.7159 423.7813,-132.3028"/>
</g>
<!-- Node2&#45;&gt;Node3 -->
<g id="edge3" class="edge">
<title>Node2&#45;&gt;Node3</title>
<path fill="none" stroke="#191970" d="M548.6039,-117.2049C532.2129,-115.4983 513.5235,-113.6035 496.5,-112 312.387,-94.6578 262.1062,-105.4857 75.5675,-75.9518"/>
<polygon fill="#191970" stroke="#191970" points="75.8497,-72.4525 65.4221,-74.3273 74.7429,-79.3645 75.8497,-72.4525"/>
</g>
<!-- Node5 -->
<g id="node6" class="node">
<title>Node5</title>
<polygon fill="#ffffff" stroke="#bfbfbf" points="549.5,-56.5 549.5,-75.5 599.5,-75.5 599.5,-56.5 549.5,-56.5"/>
<text text-anchor="middle" x="574.5" y="-63.5" font-family="Helvetica,sans-Serif" font-size="10.00" fill="#000000">fstream</text>
</g>
<!-- Node2&#45;&gt;Node5 -->
<g id="edge5" class="edge">
<title>Node2&#45;&gt;Node5</title>
<path fill="none" stroke="#191970" d="M590.1905,-112.2455C587.6567,-104.7776 584.0823,-94.2427 580.985,-85.1137"/>
<polygon fill="#191970" stroke="#191970" points="584.2991,-83.9879 577.7716,-75.6427 577.6702,-86.237 584.2991,-83.9879"/>
</g>
<!-- Node2&#45;&gt;Node6 -->
<g id="edge6" class="edge">
<title>Node2&#45;&gt;Node6</title>
<path fill="none" stroke="#191970" d="M548.7758,-114.0532C543.9647,-113.3078 539.1357,-112.6059 534.5,-112 365.1005,-89.8581 317.3562,-107.3728 145.6225,-75.9048"/>
<polygon fill="#191970" stroke="#191970" points="146.2194,-72.4559 135.7478,-74.0669 144.9385,-79.3377 146.2194,-72.4559"/>
</g>
<!-- Node7 -->
<g id="node8" class="node">
<title>Node7</title>
<polygon fill="#ffffff" stroke="#bfbfbf" points="952.5,-56.5 952.5,-75.5 996.5,-75.5 996.5,-56.5 952.5,-56.5"/>
<text text-anchor="middle" x="974.5" y="-63.5" font-family="Helvetica,sans-Serif" font-size="10.00" fill="#000000">mutex</text>
</g>
<!-- Node2&#45;&gt;Node7 -->
<g id="edge7" class="edge">
<title>Node2&#45;&gt;Node7</title>
<path fill="none" stroke="#191970" d="M638.154,-118.74C703.2295,-113.4207 827.957,-101.0805 942.3121,-75.9316"/>
<polygon fill="#191970" stroke="#191970" points="943.2888,-79.2997 952.2828,-73.6999 941.7598,-72.4687 943.2888,-79.2997"/>
</g>
<!-- Node8 -->
<g id="node9" class="node">
<title>Node8</title>
<polygon fill="#ffffff" stroke="#bfbfbf" points="154,-56.5 154,-75.5 197,-75.5 197,-56.5 154,-56.5"/>
<text text-anchor="middle" x="175.5" y="-63.5" font-family="Helvetica,sans-Serif" font-size="10.00" fill="#000000">queue</text>
</g>
<!-- Node2&#45;&gt;Node8 -->
<g id="edge8" class="edge">
<title>Node2&#45;&gt;Node8</title>
<path fill="none" stroke="#191970" d="M548.7648,-114.1348C543.9558,-113.3738 539.1303,-112.6459 534.5,-112 392.5157,-92.1929 351.7313,-106.0159 207.1607,-75.7203"/>
<polygon fill="#191970" stroke="#191970" points="207.5383,-72.2222 197.0284,-73.5612 206.0793,-79.0685 207.5383,-72.2222"/>
</g>
<!-- Node9 -->
<g id="node10" class="node">
<title>Node9</title>
<polygon fill="#ffffff" stroke="#bfbfbf" points="1014.5,-56.5 1014.5,-75.5 1124.5,-75.5 1124.5,-56.5 1014.5,-56.5"/>
<text text-anchor="middle" x="1069.5" y="-63.5" font-family="Helvetica,sans-Serif" font-size="10.00" fill="#000000">rapidjson/document.h</text>
</g>
<!-- Node2&#45;&gt;Node9 -->
<g id="edge9" class="edge">
<title>Node2&#45;&gt;Node9</title>
<path fill="none" stroke="#191970" d="M638.0845,-117.6685C711.9799,-110.3482 864.725,-94.6197 1004.3362,-76.1094"/>
<polygon fill="#191970" stroke="#191970" points="1004.9148,-79.5633 1014.3643,-74.7719 1003.9893,-72.6247 1004.9148,-79.5633"/>
</g>
<!-- Node10 -->
<g id="node11" class="node">
<title>Node10</title>
<polygon fill="#ffffff" stroke="#bfbfbf" points="215.5,-56.5 215.5,-75.5 349.5,-75.5 349.5,-56.5 215.5,-56.5"/>
<text text-anchor="middle" x="282.5" y="-63.5" font-family="Helvetica,sans-Serif" font-size="10.00" fill="#000000">rapidjson/istreamwrapper.h</text>
</g>
<!-- Node2&#45;&gt;Node10 -->
<g id="edge10" class="edge">
<title>Node2&#45;&gt;Node10</title>
<path fill="none" stroke="#191970" d="M548.9413,-113.9766C495.5938,-104.3706 405.8963,-88.2193 345.4797,-77.3404"/>
<polygon fill="#191970" stroke="#191970" points="345.7629,-73.8352 335.3009,-75.5076 344.5224,-80.7244 345.7629,-73.8352"/>
</g>
<!-- Node11 -->
<g id="node12" class="node">
<title>Node11</title>
<polygon fill="#ffffff" stroke="#bfbfbf" points="618,-56.5 618,-75.5 755,-75.5 755,-56.5 618,-56.5"/>
<text text-anchor="middle" x="686.5" y="-63.5" font-family="Helvetica,sans-Serif" font-size="10.00" fill="#000000">rapidjson/ostreamwrapper.h</text>
</g>
<!-- Node2&#45;&gt;Node11 -->
<g id="edge11" class="edge">
<title>Node2&#45;&gt;Node11</title>
<path fill="none" stroke="#191970" d="M609.6994,-112.2455C624.1018,-103.5731 645.3732,-90.7645 661.8799,-80.825"/>
<polygon fill="#191970" stroke="#191970" points="663.725,-83.7996 670.4863,-75.6427 660.114,-77.8028 663.725,-83.7996"/>
</g>
<!-- Node12 -->
<g id="node13" class="node">
<title>Node12</title>
<polygon fill="#ffffff" stroke="#bfbfbf" points="368,-56.5 368,-75.5 469,-75.5 469,-56.5 368,-56.5"/>
<text text-anchor="middle" x="418.5" y="-63.5" font-family="Helvetica,sans-Serif" font-size="10.00" fill="#000000">rapidjson/schema.h</text>
</g>
<!-- Node2&#45;&gt;Node12 -->
<g id="edge12" class="edge">
<title>Node2&#45;&gt;Node12</title>
<path fill="none" stroke="#191970" d="M563.4164,-112.3733C534.3166,-103.0613 490.0477,-88.8953 458.097,-78.671"/>
<polygon fill="#191970" stroke="#191970" points="458.782,-75.2155 448.191,-75.5011 456.6485,-81.8824 458.782,-75.2155"/>
</g>
<!-- Node13 -->
<g id="node14" class="node">
<title>Node13</title>
<polygon fill="#ffffff" stroke="#bfbfbf" points="773,-56.5 773,-75.5 864,-75.5 864,-56.5 773,-56.5"/>
<text text-anchor="middle" x="818.5" y="-63.5" font-family="Helvetica,sans-Serif" font-size="10.00" fill="#000000">rapidjson/writer.h</text>
</g>
<!-- Node2&#45;&gt;Node13 -->
<g id="edge13" class="edge">
<title>Node2&#45;&gt;Node13</title>
<path fill="none" stroke="#191970" d="M631.9232,-112.4369C670.1875,-102.9133 729.0337,-88.2672 770.3849,-77.9753"/>
<polygon fill="#191970" stroke="#191970" points="771.3766,-81.3353 780.2353,-75.5237 769.6859,-74.5426 771.3766,-81.3353"/>
</g>
<!-- Node14 -->
<g id="node15" class="node">
<title>Node14</title>
<polygon fill="#ffffff" stroke="#bfbfbf" points="882.5,-56.5 882.5,-75.5 934.5,-75.5 934.5,-56.5 882.5,-56.5"/>
<text text-anchor="middle" x="908.5" y="-63.5" font-family="Helvetica,sans-Serif" font-size="10.00" fill="#000000">sstream</text>
</g>
<!-- Node2&#45;&gt;Node14 -->
<g id="edge14" class="edge">
<title>Node2&#45;&gt;Node14</title>
<path fill="none" stroke="#191970" d="M638.2377,-116.1362C693.579,-108.536 790.5255,-94.0881 872.5,-76 872.599,-75.9782 872.6981,-75.9562 872.7973,-75.9342"/>
<polygon fill="#191970" stroke="#191970" points="873.3414,-79.4037 882.2358,-73.647 871.6928,-72.6006 873.3414,-79.4037"/>
</g>
<!-- Node15 -->
<g id="node16" class="node">
<title>Node15</title>
<polygon fill="#ffffff" stroke="#bfbfbf" points="1143,-56.5 1143,-75.5 1184,-75.5 1184,-56.5 1143,-56.5"/>
<text text-anchor="middle" x="1163.5" y="-63.5" font-family="Helvetica,sans-Serif" font-size="10.00" fill="#000000">string</text>
</g>
<!-- Node2&#45;&gt;Node15 -->
<g id="edge15" class="edge">
<title>Node2&#45;&gt;Node15</title>
<path fill="none" stroke="#191970" d="M638.0095,-119.5696C746.2126,-113.4494 1021.6831,-96.544 1132.7781,-75.6091"/>
<polygon fill="#191970" stroke="#191970" points="1133.5672,-79.0208 1142.692,-73.6368 1132.2013,-72.1553 1133.5672,-79.0208"/>
</g>
<!-- Node16 -->
<g id="node17" class="node">
<title>Node16</title>
<polygon fill="#ffffff" stroke="#bfbfbf" points="487.5,-56.5 487.5,-75.5 531.5,-75.5 531.5,-56.5 487.5,-56.5"/>
<text text-anchor="middle" x="509.5" y="-63.5" font-family="Helvetica,sans-Serif" font-size="10.00" fill="#000000">thread</text>
</g>
<!-- Node2&#45;&gt;Node16 -->
<g id="edge16" class="edge">
<title>Node2&#45;&gt;Node16</title>
<path fill="none" stroke="#191970" d="M578.8683,-112.2455C566.1006,-103.7337 547.3562,-91.2375 532.5701,-81.3801"/>
<polygon fill="#191970" stroke="#191970" points="534.226,-78.2775 523.964,-75.6427 530.3431,-84.1019 534.226,-78.2775"/>
</g>
<!-- Node4 -->
<g id="node5" class="node">
<title>Node4</title>
<polygon fill="#ffffff" stroke="#bfbfbf" points="9.5,-.5 9.5,-19.5 55.5,-19.5 55.5,-.5 9.5,-.5"/>
<text text-anchor="middle" x="32.5" y="-7.5" font-family="Helvetica,sans-Serif" font-size="10.00" fill="#000000">stdio.h</text>
</g>
<!-- Node3&#45;&gt;Node4 -->
<g id="edge4" class="edge">
<title>Node3&#45;&gt;Node4</title>
<path fill="none" stroke="#191970" d="M32.5,-56.2455C32.5,-48.9382 32.5,-38.6944 32.5,-29.7046"/>
<polygon fill="#191970" stroke="#191970" points="36.0001,-29.6426 32.5,-19.6427 29.0001,-29.6427 36.0001,-29.6426"/>
</g>
<!-- Node19&#45;&gt;Node2 -->
<g id="edge22" class="edge">
<title>Node19&#45;&gt;Node2</title>
<path fill="none" stroke="#191970" d="M843.9275,-168.4369C789.5293,-158.3498 704.1398,-142.516 648.486,-132.1961"/>
<polygon fill="#191970" stroke="#191970" points="648.925,-128.7179 638.4544,-130.3359 647.6487,-135.6006 648.925,-128.7179"/>
</g>
<!-- Node19&#45;&gt;Node3 -->
<g id="edge26" class="edge">
<title>Node19&#45;&gt;Node3</title>
<path fill="none" stroke="#191970" d="M828.2949,-173.4717C748.5934,-167.3613 611.9871,-154.5537 496.5,-132 463.9041,-125.6343 457.1343,-118.1654 424.5,-112 273.9931,-83.5659 230.448,-101.3993 75.3235,-75.9299"/>
<polygon fill="#191970" stroke="#191970" points="75.8721,-72.4731 65.4312,-74.2724 74.7153,-79.3769 75.8721,-72.4731"/>
</g>
<!-- Node19&#45;&gt;Node6 -->
<g id="edge30" class="edge">
<title>Node19&#45;&gt;Node6</title>
<path fill="none" stroke="#191970" d="M828.3176,-175.445C755.8002,-171.282 637.5192,-160.3905 539.5,-132 519.2549,-126.1362 516.8212,-117.5942 496.5,-112 347.9892,-71.1165 300.8565,-104.2951 145.6463,-75.904"/>
<polygon fill="#191970" stroke="#191970" points="146.2286,-72.4522 135.7532,-74.0385 144.9314,-79.331 146.2286,-72.4522"/>
</g>
<!-- Node19&#45;&gt;Node7 -->
<g id="edge35" class="edge">
<title>Node19&#45;&gt;Node7</title>
<path fill="none" stroke="#191970" d="M902.2355,-168.4509C915.4701,-149.688 945.048,-107.7548 961.9743,-83.758"/>
<polygon fill="#191970" stroke="#191970" points="964.8776,-85.714 967.7816,-75.5249 959.1574,-81.6792 964.8776,-85.714"/>
</g>
<!-- Node19&#45;&gt;Node9 -->
<g id="edge31" class="edge">
<title>Node19&#45;&gt;Node9</title>
<path fill="none" stroke="#191970" d="M910.3351,-168.4509C940.6404,-148.9441 1009.8534,-104.3932 1046.2106,-80.9909"/>
<polygon fill="#191970" stroke="#191970" points="1048.1881,-83.8804 1054.7024,-75.5249 1044.3994,-77.9944 1048.1881,-83.8804"/>
</g>
<!-- Node19&#45;&gt;Node11 -->
<g id="edge32" class="edge">
<title>Node19&#45;&gt;Node11</title>
<path fill="none" stroke="#191970" d="M877.6808,-168.4509C840.894,-148.7375 756.3779,-103.4465 713.0996,-80.2543"/>
<polygon fill="#191970" stroke="#191970" points="714.7415,-77.1634 704.2741,-75.5249 711.4351,-83.3333 714.7415,-77.1634"/>
</g>
<!-- Node19&#45;&gt;Node13 -->
<g id="edge33" class="edge">
<title>Node19&#45;&gt;Node13</title>
<path fill="none" stroke="#191970" d="M888.935,-168.4509C876.0923,-149.7707 847.4601,-108.1238 830.9274,-84.0761"/>
<polygon fill="#191970" stroke="#191970" points="833.5978,-81.7825 825.0484,-75.5249 827.8295,-85.7482 833.5978,-81.7825"/>
</g>
<!-- Node19&#45;&gt;Node14 -->
<g id="edge34" class="edge">
<title>Node19&#45;&gt;Node14</title>
<path fill="none" stroke="#191970" d="M896.6084,-168.4509C898.7286,-150.184 903.398,-109.9553 906.2137,-85.6976"/>
<polygon fill="#191970" stroke="#191970" points="909.718,-85.8618 907.3944,-75.5249 902.7647,-85.0546 909.718,-85.8618"/>
</g>
<!-- Node19&#45;&gt;Node17 -->
<g id="edge27" class="edge">
<title>Node19&#45;&gt;Node17</title>
<path fill="none" stroke="#191970" d="M955.6054,-168.4642C996.179,-161.0108 1050.5101,-149.0345 1096.5,-132 1114.397,-125.371 1117.4468,-120.5695 1134.5,-112 1156.5377,-100.9256 1181.6873,-88.8967 1200.7155,-79.918"/>
<polygon fill="#191970" stroke="#191970" points="1202.233,-83.0721 1209.7912,-75.6476 1199.2527,-76.7382 1202.233,-83.0721"/>
</g>
<!-- Node20 -->
<g id="node21" class="node">
<title>Node20</title>
<g id="a_node21"><a xlink:href="../../d2/def/fnv_8hpp.html" target="_top" xlink:title="fnv.hpp">
<polygon fill="#ffffff" stroke="#000000" points="1038,-112.5 1038,-131.5 1087,-131.5 1087,-112.5 1038,-112.5"/>
<text text-anchor="middle" x="1062.5" y="-119.5" font-family="Helvetica,sans-Serif" font-size="10.00" fill="#000000">fnv.hpp</text>
</a>
</g>
</g>
<!-- Node19&#45;&gt;Node20 -->
<g id="edge23" class="edge">
<title>Node19&#45;&gt;Node20</title>
<path fill="none" stroke="#191970" d="M924.2083,-168.3733C953.0307,-158.7083 997.447,-143.8142 1028.1289,-133.5256"/>
<polygon fill="#191970" stroke="#191970" points="1029.5968,-136.725 1037.9651,-130.2273 1027.3712,-130.0882 1029.5968,-136.725"/>
</g>
<!-- Node21 -->
<g id="node22" class="node">
<title>Node21</title>
<polygon fill="#ffffff" stroke="#bfbfbf" points="1143.5,-112.5 1143.5,-131.5 1197.5,-131.5 1197.5,-112.5 1143.5,-112.5"/>
<text text-anchor="middle" x="1170.5" y="-119.5" font-family="Helvetica,sans-Serif" font-size="10.00" fill="#000000">iostream</text>
</g>
<!-- Node19&#45;&gt;Node21 -->
<g id="edge28" class="edge">
<title>Node19&#45;&gt;Node21</title>
<path fill="none" stroke="#191970" d="M947.6857,-168.4395C995.2,-159.5691 1067.2309,-145.7069 1129.5,-132 1130.7477,-131.7253 1132.0157,-131.4417 1133.2954,-131.1516"/>
<polygon fill="#191970" stroke="#191970" points="1134.2498,-134.523 1143.1928,-128.842 1132.6591,-127.7061 1134.2498,-134.523"/>
</g>
<!-- Node22 -->
<g id="node23" class="node">
<title>Node22</title>
<polygon fill="#ffffff" stroke="#bfbfbf" points="1216,-112.5 1216,-131.5 1251,-131.5 1251,-112.5 1216,-112.5"/>
<text text-anchor="middle" x="1233.5" y="-119.5" font-family="Helvetica,sans-Serif" font-size="10.00" fill="#000000">map</text>
</g>
<!-- Node19&#45;&gt;Node22 -->
<g id="edge29" class="edge">
<title>Node19&#45;&gt;Node22</title>
<path fill="none" stroke="#191970" d="M962.7278,-172.13C1024.0287,-165.8573 1117.0636,-154.0323 1206.2198,-131.5932"/>
<polygon fill="#191970" stroke="#191970" points="1207.1316,-134.9727 1215.9485,-129.0978 1205.3924,-128.1922 1207.1316,-134.9727"/>
</g>
<!-- Node20&#45;&gt;Node15 -->
<g id="edge25" class="edge">
<title>Node20&#45;&gt;Node15</title>
<path fill="none" stroke="#191970" d="M1080.0929,-112.2455C1095.879,-103.4928 1119.2639,-90.527 1137.2587,-80.5496"/>
<polygon fill="#191970" stroke="#191970" points="1139.0603,-83.5528 1146.1087,-75.6427 1135.6659,-77.4308 1139.0603,-83.5528"/>
</g>
<!-- Node20&#45;&gt;Node17 -->
<g id="edge24" class="edge">
<title>Node20&#45;&gt;Node17</title>
<path fill="none" stroke="#191970" d="M1087.289,-113.737C1115.0818,-104.4727 1160.47,-89.3433 1192.6945,-78.6018"/>
<polygon fill="#191970" stroke="#191970" points="1193.8585,-81.9032 1202.2385,-75.4205 1191.6448,-75.2625 1193.8585,-81.9032"/>
</g>
</g>
</svg>
