<?xml version="1.0" encoding="UTF-8" standalone="no"?>
<!DOCTYPE svg PUBLIC "-//W3C//DTD SVG 1.1//EN"
 "http://www.w3.org/Graphics/SVG/1.1/DTD/svg11.dtd">
<!-- Generated by graphviz version 2.40.1 (20161225.0304)
 -->
<!-- Title: src/libsignalhandler/SignalHandler.hpp Pages: 1 -->
<svg width="264pt" height="106pt"
 viewBox="0.00 0.00 263.50 106.00" xmlns="http://www.w3.org/2000/svg" xmlns:xlink="http://www.w3.org/1999/xlink">
<g id="graph0" class="graph" transform="scale(1 1) rotate(0) translate(4 102)">
<title>src/libsignalhandler/SignalHandler.hpp</title>
<polygon fill="#ffffff" stroke="transparent" points="-4,4 -4,-102 259.5,-102 259.5,4 -4,4"/>
<!-- Node5 -->
<g id="node1" class="node">
<title>Node5</title>
<polygon fill="#bfbfbf" stroke="#000000" points="86.5,-67.5 86.5,-97.5 186.5,-97.5 186.5,-67.5 86.5,-67.5"/>
<text text-anchor="start" x="94.5" y="-85.5" font-family="Helvetica,sans-Serif" font-size="10.00" fill="#000000">src/libsignalhandler</text>
<text text-anchor="middle" x="136.5" y="-74.5" font-family="Helvetica,sans-Serif" font-size="10.00" fill="#000000">/SignalHandler.hpp</text>
</g>
<!-- Node6 -->
<g id="node2" class="node">
<title>Node6</title>
<g id="a_node2"><a xlink:href="../../df/d0a/main_8cpp.html" target="_top" xlink:title="src/deviceMonitor/main.cpp">
<polygon fill="#ffffff" stroke="#000000" points="0,-6 0,-25 137,-25 137,-6 0,-6"/>
<text text-anchor="middle" x="68.5" y="-13" font-family="Helvetica,sans-Serif" font-size="10.00" fill="#000000">src/deviceMonitor/main.cpp</text>
</a>
</g>
</g>
<!-- Node5&#45;&gt;Node6 -->
<g id="edge1" class="edge">
<title>Node5&#45;&gt;Node6</title>
<path fill="none" stroke="#191970" d="M113.8705,-60.2032C101.7524,-48.2634 87.4564,-34.1776 78.1976,-25.055"/>
<polygon fill="#191970" stroke="#191970" points="111.49,-62.7713 121.0697,-67.2967 116.403,-57.785 111.49,-62.7713"/>
</g>
<!-- Node7 -->
<g id="node3" class="node">
<title>Node7</title>
<g id="a_node3"><a xlink:href="../../d2/d57/_signal_handler_8cpp.html" target="_top" xlink:title="src/libsignalhandler\l/SignalHandler.cpp">
<polygon fill="#ffffff" stroke="#000000" points="155.5,-.5 155.5,-30.5 255.5,-30.5 255.5,-.5 155.5,-.5"/>
<text text-anchor="start" x="163.5" y="-18.5" font-family="Helvetica,sans-Serif" font-size="10.00" fill="#000000">src/libsignalhandler</text>
<text text-anchor="middle" x="205.5" y="-7.5" font-family="Helvetica,sans-Serif" font-size="10.00" fill="#000000">/SignalHandler.cpp</text>
</a>
</g>
</g>
<!-- Node5&#45;&gt;Node7 -->
<g id="edge2" class="edge">
<title>Node5&#45;&gt;Node7</title>
<path fill="none" stroke="#191970" d="M159.454,-60.2113C169.4543,-50.5009 180.9176,-39.3698 189.9048,-30.6432"/>
<polygon fill="#191970" stroke="#191970" points="156.8932,-57.8193 152.1572,-67.2967 161.7697,-62.8413 156.8932,-57.8193"/>
</g>
</g>
</svg>
