<?xml version="1.0" encoding="UTF-8" standalone="no"?>
<!DOCTYPE svg PUBLIC "-//W3C//DTD SVG 1.1//EN"
 "http://www.w3.org/Graphics/SVG/1.1/DTD/svg11.dtd">
<!-- Generated by graphviz version 2.40.1 (20161225.0304)
 -->
<!-- Title: lockStream Pages: 1 -->
<!--zoomable 85 -->
<svg id="main" version="1.1" xmlns="http://www.w3.org/2000/svg" xmlns:xlink="http://www.w3.org/1999/xlink" xml:space="preserve" onload="init(evt)">
<style type="text/css"><![CDATA[
.edge:hover path { stroke: red; }
.edge:hover polygon { stroke: red; fill: red; }
]]></style>
<script type="text/javascript"><![CDATA[
var edges = document.getElementsByTagName('g');
if (edges && edges.length) {
  for (var i=0;i<edges.length;i++) {
    if (edges[i].id.substr(0,4)=='edge') {
      edges[i].setAttribute('class','edge');
    }
  }
}
]]></script>
        <defs>
                <circle id="rim" cx="0" cy="0" r="7"/>
                <circle id="rim2" cx="0" cy="0" r="3.5"/>
                <g id="zoomPlus">
                        <use xlink:href="#rim" fill="#404040">
                                <set attributeName="fill" to="#808080" begin="zoomplus.mouseover" end="zoomplus.mouseout"/>
                        </use>
                        <path d="M-4,0h8M0,-4v8" fill="none" stroke="white" stroke-width="1.5" pointer-events="none"/>
                </g>
                <g id="zoomMin">
                        <use xlink:href="#rim" fill="#404040">
                                <set attributeName="fill" to="#808080" begin="zoomminus.mouseover" end="zoomminus.mouseout"/>
                        </use>
                        <path d="M-4,0h8" fill="none" stroke="white" stroke-width="1.5" pointer-events="none"/>
                </g>
                <g id="dirArrow">
                        <path fill="none" stroke="white" stroke-width="1.5" d="M0,-3.0v7 M-2.5,-0.5L0,-3.0L2.5,-0.5"/>
                </g>
               <g id="resetDef">
                       <use xlink:href="#rim2" fill="#404040">
                               <set attributeName="fill" to="#808080" begin="reset.mouseover" end="reset.mouseout"/>
                       </use>
               </g>
        </defs>

<script type="text/javascript">
var viewWidth = 649;
var viewHeight = 85;
var sectionId = 'dynsection-3';
</script>
<script xlink:href="../../svgpan.js"/>
<svg id="graph" class="graph">
<g id="viewport">
<title>lockStream</title>
<polygon fill="#ffffff" stroke="transparent" points="-4,4 -4,-81 645,-81 645,4 -4,4"/>
<!-- Node19 -->
<g id="node1" class="node">
<title>Node19</title>
<polygon fill="#bfbfbf" stroke="#000000" points="0,-38.5 0,-57.5 66,-57.5 66,-38.5 0,-38.5"/>
<text text-anchor="middle" x="33" y="-45.5" font-family="Helvetica,sans-Serif" font-size="10.00" fill="#000000">lockStream</text>
</g>
<!-- Node20 -->
<g id="node2" class="node">
<title>Node20</title>
<g id="a_node2"><a xlink:href="../../d3/de3/_logger_8hpp.html#a7c9006aee32a6c57e648152d290c2c2d" target="_top" xlink:title="lock logger stream to perform other operations ">
<polygon fill="#ffffff" stroke="#000000" points="102,-57.5 102,-76.5 213,-76.5 213,-57.5 102,-57.5"/>
<text text-anchor="middle" x="157.5" y="-64.5" font-family="Helvetica,sans-Serif" font-size="10.00" fill="#000000">logLockLoggerStream</text>
</a>
</g>
</g>
<!-- Node19&#45;&gt;Node20 -->
<g id="edge1" class="edge">
<title>Node19&#45;&gt;Node20</title>
<path fill="none" stroke="#191970" d="M76.152,-54.5854C84.385,-55.8419 93.1115,-57.1736 101.6742,-58.4804"/>
<polygon fill="#191970" stroke="#191970" points="76.4504,-51.0905 66.0369,-53.0418 75.3943,-58.0104 76.4504,-51.0905"/>
</g>
<!-- Node21 -->
<g id="node3" class="node">
<title>Node21</title>
<g id="a_node3"><a xlink:href="../../de/d27/_logger_8cpp.html#a11eaecfa4e0eaee60ec32d2aa435f0ef" target="_top" xlink:title="writeMessage">
<polygon fill="#ffffff" stroke="#000000" points="119,-19.5 119,-38.5 196,-38.5 196,-19.5 119,-19.5"/>
<text text-anchor="middle" x="157.5" y="-26.5" font-family="Helvetica,sans-Serif" font-size="10.00" fill="#000000">writeMessage</text>
</a>
</g>
</g>
<!-- Node19&#45;&gt;Node21 -->
<g id="edge2" class="edge">
<title>Node19&#45;&gt;Node21</title>
<path fill="none" stroke="#191970" d="M76.2386,-41.4013C89.995,-39.302 105.1216,-36.9935 118.5556,-34.9433"/>
<polygon fill="#191970" stroke="#191970" points="75.3943,-37.9896 66.0369,-42.9582 76.4504,-44.9095 75.3943,-37.9896"/>
</g>
<!-- Node22 -->
<g id="node4" class="node">
<title>Node22</title>
<g id="a_node4"><a xlink:href="../../de/d27/_logger_8cpp.html#aa4df9360b15f4315ce68c9dc16bbd996" target="_top" xlink:title="loggerThreadBody">
<polygon fill="#ffffff" stroke="#000000" points="249,-38.5 249,-57.5 344,-57.5 344,-38.5 249,-38.5"/>
<text text-anchor="middle" x="296.5" y="-45.5" font-family="Helvetica,sans-Serif" font-size="10.00" fill="#000000">loggerThreadBody</text>
</a>
</g>
</g>
<!-- Node21&#45;&gt;Node22 -->
<g id="edge3" class="edge">
<title>Node21&#45;&gt;Node22</title>
<path fill="none" stroke="#191970" d="M206.4667,-35.6933C220.2204,-37.5733 235.1527,-39.6144 248.8297,-41.4839"/>
<polygon fill="#191970" stroke="#191970" points="206.6012,-32.1792 196.2192,-34.2926 205.6531,-39.1147 206.6012,-32.1792"/>
</g>
<!-- Node26 -->
<g id="node8" class="node">
<title>Node26</title>
<g id="a_node8"><a xlink:href="../../d3/de3/_logger_8hpp.html#a664f9cf48341e0b23122227e55a620b6" target="_top" xlink:title="function de&#45;initializes logger (writes all remaining message to stream a release resources) ...">
<polygon fill="#ffffff" stroke="#000000" points="381,-.5 381,-19.5 453,-19.5 453,-.5 381,-.5"/>
<text text-anchor="middle" x="417" y="-7.5" font-family="Helvetica,sans-Serif" font-size="10.00" fill="#000000">logDestroy_f</text>
</a>
</g>
</g>
<!-- Node21&#45;&gt;Node26 -->
<g id="edge7" class="edge">
<title>Node21&#45;&gt;Node26</title>
<path fill="none" stroke="#191970" d="M206.1391,-25.4388C256.8568,-21.7253 335.1812,-15.9906 380.7336,-12.6553"/>
<polygon fill="#191970" stroke="#191970" points="205.7873,-21.9551 196.0696,-26.176 206.2985,-28.9364 205.7873,-21.9551"/>
</g>
<!-- Node23 -->
<g id="node5" class="node">
<title>Node23</title>
<g id="a_node5"><a xlink:href="../../d3/de3/_logger_8hpp.html#aeda367459d679e6d5d4476e7d7aa3963" target="_top" xlink:title="initialize logger for usage ">
<polygon fill="#ffffff" stroke="#000000" points="380,-38.5 380,-57.5 454,-57.5 454,-38.5 380,-38.5"/>
<text text-anchor="middle" x="417" y="-45.5" font-family="Helvetica,sans-Serif" font-size="10.00" fill="#000000">logInitialize_f</text>
</a>
</g>
</g>
<!-- Node22&#45;&gt;Node23 -->
<g id="edge4" class="edge">
<title>Node22&#45;&gt;Node23</title>
<path fill="none" stroke="#191970" d="M354.2343,-48C362.9102,-48 371.6557,-48 379.7497,-48"/>
<polygon fill="#191970" stroke="#191970" points="354.1248,-44.5001 344.1248,-48 354.1248,-51.5001 354.1248,-44.5001"/>
</g>
<!-- Node24 -->
<g id="node6" class="node">
<title>Node24</title>
<g id="a_node6"><a xlink:href="../../df/d0a/main_8cpp.html#a59a5d10c3e8acb2a11dad76e5d644020" target="_top" xlink:title="initProcedure">
<polygon fill="#ffffff" stroke="#000000" points="491.5,-38.5 491.5,-57.5 565.5,-57.5 565.5,-38.5 491.5,-38.5"/>
<text text-anchor="middle" x="528.5" y="-45.5" font-family="Helvetica,sans-Serif" font-size="10.00" fill="#000000">initProcedure</text>
</a>
</g>
</g>
<!-- Node23&#45;&gt;Node24 -->
<g id="edge5" class="edge">
<title>Node23&#45;&gt;Node24</title>
<path fill="none" stroke="#191970" d="M464.133,-48C473.1569,-48 482.4895,-48 491.1541,-48"/>
<polygon fill="#191970" stroke="#191970" points="464.1279,-44.5001 454.1279,-48 464.1279,-51.5001 464.1279,-44.5001"/>
</g>
<!-- Node25 -->
<g id="node7" class="node">
<title>Node25</title>
<g id="a_node7"><a xlink:href="../../df/d0a/main_8cpp.html#a840291bc02cba5474a4cb46a9b9566fe" target="_top" xlink:title="main">
<polygon fill="#ffffff" stroke="#000000" points="603,-19.5 603,-38.5 641,-38.5 641,-19.5 603,-19.5"/>
<text text-anchor="middle" x="622" y="-26.5" font-family="Helvetica,sans-Serif" font-size="10.00" fill="#000000">main</text>
</a>
</g>
</g>
<!-- Node24&#45;&gt;Node25 -->
<g id="edge6" class="edge">
<title>Node24&#45;&gt;Node25</title>
<path fill="none" stroke="#191970" d="M575.6972,-38.4091C585.326,-36.4525 594.9294,-34.501 602.8736,-32.8867"/>
<polygon fill="#191970" stroke="#191970" points="574.825,-35.0147 565.7223,-40.4361 576.2191,-41.8745 574.825,-35.0147"/>
</g>
<!-- Node27 -->
<g id="node9" class="node">
<title>Node27</title>
<g id="a_node9"><a xlink:href="../../df/d0a/main_8cpp.html#a0ae2256c09ff62743965e0e07f582b3f" target="_top" xlink:title="exitProcedure">
<polygon fill="#ffffff" stroke="#000000" points="490,-.5 490,-19.5 567,-19.5 567,-.5 490,-.5"/>
<text text-anchor="middle" x="528.5" y="-7.5" font-family="Helvetica,sans-Serif" font-size="10.00" fill="#000000">exitProcedure</text>
</a>
</g>
</g>
<!-- Node26&#45;&gt;Node27 -->
<g id="edge8" class="edge">
<title>Node26&#45;&gt;Node27</title>
<path fill="none" stroke="#191970" d="M463.3304,-10C472.1321,-10 481.2564,-10 489.7912,-10"/>
<polygon fill="#191970" stroke="#191970" points="463.2009,-6.5001 453.2009,-10 463.2008,-13.5001 463.2009,-6.5001"/>
</g>
<!-- Node27&#45;&gt;Node25 -->
<g id="edge9" class="edge">
<title>Node27&#45;&gt;Node25</title>
<path fill="none" stroke="#191970" d="M577.0303,-19.8618C586.2386,-21.733 595.3547,-23.5855 602.9468,-25.1282"/>
<polygon fill="#191970" stroke="#191970" points="577.5666,-16.3993 567.0698,-17.8377 576.1725,-23.2591 577.5666,-16.3993"/>
</g>
</g>
</svg>
        <g id="navigator" transform="translate(0 0)" fill="#404254">
                <rect fill="#f2f5e9" fill-opacity="0.5" stroke="#606060" stroke-width=".5" x="0" y="0" width="60" height="60"/>
                <use id="zoomplus" xlink:href="#zoomPlus" x="17" y="9" onmousedown="handleZoom(evt,'in')"/>
                <use id="zoomminus" xlink:href="#zoomMin" x="42" y="9" onmousedown="handleZoom(evt,'out')"/>
                <use id="reset" xlink:href="#resetDef" x="30" y="36" onmousedown="handleReset()"/>
                <g id="arrowUp" xlink:href="#dirArrow" transform="translate(30 24)" onmousedown="handlePan(0,-1)">
                  <use xlink:href="#rim" fill="#404040">
                        <set attributeName="fill" to="#808080" begin="arrowUp.mouseover" end="arrowUp.mouseout"/>
                  </use>
                  <path fill="none" stroke="white" stroke-width="1.5" d="M0,-3.0v7 M-2.5,-0.5L0,-3.0L2.5,-0.5"/>
                </g>
                <g id="arrowRight" xlink:href="#dirArrow" transform="rotate(90) translate(36 -43)" onmousedown="handlePan(1,0)">
                  <use xlink:href="#rim" fill="#404040">
                        <set attributeName="fill" to="#808080" begin="arrowRight.mouseover" end="arrowRight.mouseout"/>
                  </use>
                  <path fill="none" stroke="white" stroke-width="1.5" d="M0,-3.0v7 M-2.5,-0.5L0,-3.0L2.5,-0.5"/>
                </g>
                <g id="arrowDown" xlink:href="#dirArrow" transform="rotate(180) translate(-30 -48)" onmousedown="handlePan(0,1)">
                  <use xlink:href="#rim" fill="#404040">
                        <set attributeName="fill" to="#808080" begin="arrowDown.mouseover" end="arrowDown.mouseout"/>
                  </use>
                  <path fill="none" stroke="white" stroke-width="1.5" d="M0,-3.0v7 M-2.5,-0.5L0,-3.0L2.5,-0.5"/>
                </g>
                <g id="arrowLeft" xlink:href="#dirArrow" transform="rotate(270) translate(-36 17)" onmousedown="handlePan(-1,0)">
                  <use xlink:href="#rim" fill="#404040">
                        <set attributeName="fill" to="#808080" begin="arrowLeft.mouseover" end="arrowLeft.mouseout"/>
                  </use>
                  <path fill="none" stroke="white" stroke-width="1.5" d="M0,-3.0v7 M-2.5,-0.5L0,-3.0L2.5,-0.5"/>
                </g>
        </g>
        <svg viewBox="0 0 15 15" width="100%" height="30px" preserveAspectRatio="xMaxYMin meet">
         <g id="arrow_out" transform="scale(0.3 0.3)">
          <a xlink:href="_logger_8cpp_a295eb774fde642a4021e2c059844bb69_icgraph_org.svg" target="_base">
           <rect id="button" ry="5" rx="5" y="6" x="6" height="38" width="38"
                fill="#f2f5e9" fill-opacity="0.5" stroke="#606060" stroke-width="1.0"/>
           <path id="arrow"
             d="M 11.500037,31.436501 C 11.940474,20.09759 22.043105,11.32322 32.158766,21.979434 L 37.068811,17.246167 C 37.068811,17.246167 37.088388,32 37.088388,32 L 22.160133,31.978069 C 22.160133,31.978069 26.997745,27.140456 26.997745,27.140456 C 18.528582,18.264221 13.291696,25.230495 11.500037,31.436501 z"
             style="fill:#404040;"/>
          </a>
         </g>
        </svg>
</svg>
