<?xml version="1.0" encoding="UTF-8" standalone="no"?>
<!DOCTYPE svg PUBLIC "-//W3C//DTD SVG 1.1//EN"
 "http://www.w3.org/Graphics/SVG/1.1/DTD/svg11.dtd">
<!-- Generated by graphviz version 2.40.1 (20161225.0304)
 -->
<!-- Title: loggerThreadBody Pages: 1 -->
<svg width="373pt" height="161pt"
 viewBox="0.00 0.00 373.00 161.00" xmlns="http://www.w3.org/2000/svg" xmlns:xlink="http://www.w3.org/1999/xlink">
<g id="graph0" class="graph" transform="scale(1 1) rotate(0) translate(4 157)">
<title>loggerThreadBody</title>
<polygon fill="#ffffff" stroke="transparent" points="-4,4 -4,-157 369,-157 369,4 -4,4"/>
<!-- Node37 -->
<g id="node1" class="node">
<title>Node37</title>
<polygon fill="#bfbfbf" stroke="#000000" points="0,-76.5 0,-95.5 95,-95.5 95,-76.5 0,-76.5"/>
<text text-anchor="middle" x="47.5" y="-83.5" font-family="Helvetica,sans-Serif" font-size="10.00" fill="#000000">loggerThreadBody</text>
</g>
<!-- Node38 -->
<g id="node2" class="node">
<title>Node38</title>
<g id="a_node2"><a xlink:href="../../de/d27/_logger_8cpp.html#a7b0614b46b009eec456e166c4010757e" target="_top" xlink:title="lockLoggerData">
<polygon fill="#ffffff" stroke="#000000" points="136,-133.5 136,-152.5 221,-152.5 221,-133.5 136,-133.5"/>
<text text-anchor="middle" x="178.5" y="-140.5" font-family="Helvetica,sans-Serif" font-size="10.00" fill="#000000">lockLoggerData</text>
</a>
</g>
</g>
<!-- Node37&#45;&gt;Node38 -->
<g id="edge1" class="edge">
<title>Node37&#45;&gt;Node38</title>
<path fill="none" stroke="#191970" d="M67.9707,-95.638C84.8025,-103.4848 109.3236,-114.7383 131,-124 135.2496,-125.8157 139.734,-127.6783 144.1822,-129.4936"/>
<polygon fill="#191970" stroke="#191970" points="143.1736,-132.8607 153.7569,-133.3556 145.7921,-126.3689 143.1736,-132.8607"/>
</g>
<!-- Node39 -->
<g id="node3" class="node">
<title>Node39</title>
<g id="a_node3"><a xlink:href="../../de/d27/_logger_8cpp.html#adba7e7852defaa150e7be9b81114fd62" target="_top" xlink:title="popMessage">
<polygon fill="#ffffff" stroke="#000000" points="142.5,-95.5 142.5,-114.5 214.5,-114.5 214.5,-95.5 142.5,-95.5"/>
<text text-anchor="middle" x="178.5" y="-102.5" font-family="Helvetica,sans-Serif" font-size="10.00" fill="#000000">popMessage</text>
</a>
</g>
</g>
<!-- Node37&#45;&gt;Node39 -->
<g id="edge2" class="edge">
<title>Node37&#45;&gt;Node39</title>
<path fill="none" stroke="#191970" d="M95.1646,-92.9132C107.16,-94.653 120.0192,-96.5181 131.9588,-98.2498"/>
<polygon fill="#191970" stroke="#191970" points="131.7707,-101.759 142.1696,-99.7307 132.7755,-94.8315 131.7707,-101.759"/>
</g>
<!-- Node42 -->
<g id="node6" class="node">
<title>Node42</title>
<g id="a_node6"><a xlink:href="../../de/d27/_logger_8cpp.html#aeeb83b8b6ec1dbdf1a3e72fc836caef6" target="_top" xlink:title="unlockLoggerData">
<polygon fill="#ffffff" stroke="#000000" points="131,-57.5 131,-76.5 226,-76.5 226,-57.5 131,-57.5"/>
<text text-anchor="middle" x="178.5" y="-64.5" font-family="Helvetica,sans-Serif" font-size="10.00" fill="#000000">unlockLoggerData</text>
</a>
</g>
</g>
<!-- Node37&#45;&gt;Node42 -->
<g id="edge5" class="edge">
<title>Node37&#45;&gt;Node42</title>
<path fill="none" stroke="#191970" d="M95.1646,-79.0868C103.4724,-77.8819 112.1946,-76.6168 120.7387,-75.3776"/>
<polygon fill="#191970" stroke="#191970" points="121.2573,-78.8391 130.6514,-73.9399 120.2525,-71.9116 121.2573,-78.8391"/>
</g>
<!-- Node43 -->
<g id="node7" class="node">
<title>Node43</title>
<g id="a_node7"><a xlink:href="../../de/d27/_logger_8cpp.html#a11eaecfa4e0eaee60ec32d2aa435f0ef" target="_top" xlink:title="writeMessage">
<polygon fill="#ffffff" stroke="#000000" points="140,-19.5 140,-38.5 217,-38.5 217,-19.5 140,-19.5"/>
<text text-anchor="middle" x="178.5" y="-26.5" font-family="Helvetica,sans-Serif" font-size="10.00" fill="#000000">writeMessage</text>
</a>
</g>
</g>
<!-- Node37&#45;&gt;Node43 -->
<g id="edge6" class="edge">
<title>Node37&#45;&gt;Node43</title>
<path fill="none" stroke="#191970" d="M67.9707,-76.362C84.8025,-68.5152 109.3236,-57.2617 131,-48 135.2496,-46.1843 139.734,-44.3217 144.1822,-42.5064"/>
<polygon fill="#191970" stroke="#191970" points="145.7921,-45.6311 153.7569,-38.6444 143.1736,-39.1393 145.7921,-45.6311"/>
</g>
<!-- Node40 -->
<g id="node4" class="node">
<title>Node40</title>
<g id="a_node4"><a xlink:href="../../de/d27/_logger_8cpp.html#a16c9d4e11162a42fdf0c5a47f4797336" target="_top" xlink:title="lockLoggerQueue">
<polygon fill="#ffffff" stroke="#000000" points="267.5,-123.5 267.5,-142.5 359.5,-142.5 359.5,-123.5 267.5,-123.5"/>
<text text-anchor="middle" x="313.5" y="-130.5" font-family="Helvetica,sans-Serif" font-size="10.00" fill="#000000">lockLoggerQueue</text>
</a>
</g>
</g>
<!-- Node39&#45;&gt;Node40 -->
<g id="edge3" class="edge">
<title>Node39&#45;&gt;Node40</title>
<path fill="none" stroke="#191970" d="M214.6775,-112.5035C227.8769,-115.2411 243.1295,-118.4046 257.6418,-121.4146"/>
<polygon fill="#191970" stroke="#191970" points="257.0337,-124.8629 267.5361,-123.4667 258.4553,-118.0088 257.0337,-124.8629"/>
</g>
<!-- Node41 -->
<g id="node5" class="node">
<title>Node41</title>
<g id="a_node5"><a xlink:href="../../de/d27/_logger_8cpp.html#aa47defada9b881330abec76ff50b017c" target="_top" xlink:title="unlockLoggerQueue">
<polygon fill="#ffffff" stroke="#000000" points="262,-85.5 262,-104.5 365,-104.5 365,-85.5 262,-85.5"/>
<text text-anchor="middle" x="313.5" y="-92.5" font-family="Helvetica,sans-Serif" font-size="10.00" fill="#000000">unlockLoggerQueue</text>
</a>
</g>
</g>
<!-- Node39&#45;&gt;Node41 -->
<g id="edge4" class="edge">
<title>Node39&#45;&gt;Node41</title>
<path fill="none" stroke="#191970" d="M214.6775,-102.3202C226.1403,-101.4711 239.1516,-100.5073 251.8818,-99.5643"/>
<polygon fill="#191970" stroke="#191970" points="252.2818,-103.0444 261.9959,-98.8151 251.7646,-96.0635 252.2818,-103.0444"/>
</g>
<!-- Node44 -->
<g id="node8" class="node">
<title>Node44</title>
<g id="a_node8"><a xlink:href="../../de/d27/_logger_8cpp.html#a295eb774fde642a4021e2c059844bb69" target="_top" xlink:title="lockStream">
<polygon fill="#ffffff" stroke="#000000" points="280.5,-38.5 280.5,-57.5 346.5,-57.5 346.5,-38.5 280.5,-38.5"/>
<text text-anchor="middle" x="313.5" y="-45.5" font-family="Helvetica,sans-Serif" font-size="10.00" fill="#000000">lockStream</text>
</a>
</g>
</g>
<!-- Node43&#45;&gt;Node44 -->
<g id="edge7" class="edge">
<title>Node43&#45;&gt;Node44</title>
<path fill="none" stroke="#191970" d="M217.1856,-34.4446C233.7035,-36.7694 253.0554,-39.493 270.0624,-41.8866"/>
<polygon fill="#191970" stroke="#191970" points="269.9122,-45.3998 280.3024,-43.3277 270.8878,-38.4681 269.9122,-45.3998"/>
</g>
<!-- Node45 -->
<g id="node9" class="node">
<title>Node45</title>
<g id="a_node9"><a xlink:href="../../de/d27/_logger_8cpp.html#a923bd0383982e840b71866e794fa1405" target="_top" xlink:title="unlockStream">
<polygon fill="#ffffff" stroke="#000000" points="275,-.5 275,-19.5 352,-19.5 352,-.5 275,-.5"/>
<text text-anchor="middle" x="313.5" y="-7.5" font-family="Helvetica,sans-Serif" font-size="10.00" fill="#000000">unlockStream</text>
</a>
</g>
</g>
<!-- Node43&#45;&gt;Node45 -->
<g id="edge8" class="edge">
<title>Node43&#45;&gt;Node45</title>
<path fill="none" stroke="#191970" d="M217.1856,-23.5554C232.0137,-21.4684 249.1256,-19.0601 264.7749,-16.8576"/>
<polygon fill="#191970" stroke="#191970" points="265.3942,-20.305 274.8088,-15.4454 264.4185,-13.3733 265.3942,-20.305"/>
</g>
</g>
</svg>
