<?xml version="1.0" encoding="UTF-8" standalone="no"?>
<!DOCTYPE svg PUBLIC "-//W3C//DTD SVG 1.1//EN"
 "http://www.w3.org/Graphics/SVG/1.1/DTD/svg11.dtd">
<!-- Generated by graphviz version 2.40.1 (20161225.0304)
 -->
<!-- Title: unlockLoggerQueue Pages: 1 -->
<svg width="673pt" height="66pt"
 viewBox="0.00 0.00 673.00 66.00" xmlns="http://www.w3.org/2000/svg" xmlns:xlink="http://www.w3.org/1999/xlink">
<g id="graph0" class="graph" transform="scale(1 1) rotate(0) translate(4 62)">
<title>unlockLoggerQueue</title>
<polygon fill="#ffffff" stroke="transparent" points="-4,4 -4,-62 669,-62 669,4 -4,4"/>
<!-- Node98 -->
<g id="node1" class="node">
<title>Node98</title>
<polygon fill="#bfbfbf" stroke="#000000" points="0,-19.5 0,-38.5 103,-38.5 103,-19.5 0,-19.5"/>
<text text-anchor="middle" x="51.5" y="-26.5" font-family="Helvetica,sans-Serif" font-size="10.00" fill="#000000">unlockLoggerQueue</text>
</g>
<!-- Node99 -->
<g id="node2" class="node">
<title>Node99</title>
<g id="a_node2"><a xlink:href="../../d3/de3/_logger_8hpp.html#adba8f505d8d933102efd4df16a0d6316" target="_top" xlink:title="write message to log stream ">
<polygon fill="#ffffff" stroke="#000000" points="139,-38.5 139,-57.5 240,-57.5 240,-38.5 139,-38.5"/>
<text text-anchor="middle" x="189.5" y="-45.5" font-family="Helvetica,sans-Serif" font-size="10.00" fill="#000000">logWriteMessage_f</text>
</a>
</g>
</g>
<!-- Node98&#45;&gt;Node99 -->
<g id="edge1" class="edge">
<title>Node98&#45;&gt;Node99</title>
<path fill="none" stroke="#191970" d="M113.2207,-37.4978C121.7761,-38.6757 130.4825,-39.8744 138.8058,-41.0204"/>
<polygon fill="#191970" stroke="#191970" points="113.6627,-34.0257 103.2787,-36.129 112.7079,-40.9603 113.6627,-34.0257"/>
</g>
<!-- Node100 -->
<g id="node3" class="node">
<title>Node100</title>
<g id="a_node3"><a xlink:href="../../de/d27/_logger_8cpp.html#adba7e7852defaa150e7be9b81114fd62" target="_top" xlink:title="popMessage">
<polygon fill="#ffffff" stroke="#000000" points="153.5,-.5 153.5,-19.5 225.5,-19.5 225.5,-.5 153.5,-.5"/>
<text text-anchor="middle" x="189.5" y="-7.5" font-family="Helvetica,sans-Serif" font-size="10.00" fill="#000000">popMessage</text>
</a>
</g>
</g>
<!-- Node98&#45;&gt;Node100 -->
<g id="edge2" class="edge">
<title>Node98&#45;&gt;Node100</title>
<path fill="none" stroke="#191970" d="M113.5805,-20.4527C127.1911,-18.5788 141.1644,-16.6549 153.3534,-14.9767"/>
<polygon fill="#191970" stroke="#191970" points="112.7079,-17.0397 103.2787,-21.871 113.6627,-23.9743 112.7079,-17.0397"/>
</g>
<!-- Node101 -->
<g id="node4" class="node">
<title>Node101</title>
<g id="a_node4"><a xlink:href="../../de/d27/_logger_8cpp.html#aa4df9360b15f4315ce68c9dc16bbd996" target="_top" xlink:title="loggerThreadBody">
<polygon fill="#ffffff" stroke="#000000" points="276,-.5 276,-19.5 371,-19.5 371,-.5 276,-.5"/>
<text text-anchor="middle" x="323.5" y="-7.5" font-family="Helvetica,sans-Serif" font-size="10.00" fill="#000000">loggerThreadBody</text>
</a>
</g>
</g>
<!-- Node100&#45;&gt;Node101 -->
<g id="edge3" class="edge">
<title>Node100&#45;&gt;Node101</title>
<path fill="none" stroke="#191970" d="M235.7992,-10C248.668,-10 262.6668,-10 275.624,-10"/>
<polygon fill="#191970" stroke="#191970" points="235.7624,-6.5001 225.7623,-10 235.7623,-13.5001 235.7624,-6.5001"/>
</g>
<!-- Node102 -->
<g id="node5" class="node">
<title>Node102</title>
<g id="a_node5"><a xlink:href="../../d3/de3/_logger_8hpp.html#aeda367459d679e6d5d4476e7d7aa3963" target="_top" xlink:title="initialize logger for usage ">
<polygon fill="#ffffff" stroke="#000000" points="407,-.5 407,-19.5 481,-19.5 481,-.5 407,-.5"/>
<text text-anchor="middle" x="444" y="-7.5" font-family="Helvetica,sans-Serif" font-size="10.00" fill="#000000">logInitialize_f</text>
</a>
</g>
</g>
<!-- Node101&#45;&gt;Node102 -->
<g id="edge4" class="edge">
<title>Node101&#45;&gt;Node102</title>
<path fill="none" stroke="#191970" d="M381.2343,-10C389.9102,-10 398.6557,-10 406.7497,-10"/>
<polygon fill="#191970" stroke="#191970" points="381.1248,-6.5001 371.1248,-10 381.1248,-13.5001 381.1248,-6.5001"/>
</g>
<!-- Node103 -->
<g id="node6" class="node">
<title>Node103</title>
<g id="a_node6"><a xlink:href="../../df/d0a/main_8cpp.html#a59a5d10c3e8acb2a11dad76e5d644020" target="_top" xlink:title="initProcedure">
<polygon fill="#ffffff" stroke="#000000" points="517,-.5 517,-19.5 591,-19.5 591,-.5 517,-.5"/>
<text text-anchor="middle" x="554" y="-7.5" font-family="Helvetica,sans-Serif" font-size="10.00" fill="#000000">initProcedure</text>
</a>
</g>
</g>
<!-- Node102&#45;&gt;Node103 -->
<g id="edge5" class="edge">
<title>Node102&#45;&gt;Node103</title>
<path fill="none" stroke="#191970" d="M491.4196,-10C499.9099,-10 508.6459,-10 516.7974,-10"/>
<polygon fill="#191970" stroke="#191970" points="491.241,-6.5001 481.241,-10 491.2409,-13.5001 491.241,-6.5001"/>
</g>
<!-- Node104 -->
<g id="node7" class="node">
<title>Node104</title>
<g id="a_node7"><a xlink:href="../../df/d0a/main_8cpp.html#a840291bc02cba5474a4cb46a9b9566fe" target="_top" xlink:title="main">
<polygon fill="#ffffff" stroke="#000000" points="627,-.5 627,-19.5 665,-19.5 665,-.5 627,-.5"/>
<text text-anchor="middle" x="646" y="-7.5" font-family="Helvetica,sans-Serif" font-size="10.00" fill="#000000">main</text>
</a>
</g>
</g>
<!-- Node103&#45;&gt;Node104 -->
<g id="edge6" class="edge">
<title>Node103&#45;&gt;Node104</title>
<path fill="none" stroke="#191970" d="M601.3389,-10C610.3996,-10 619.391,-10 626.9053,-10"/>
<polygon fill="#191970" stroke="#191970" points="601.1548,-6.5001 591.1547,-10 601.1547,-13.5001 601.1548,-6.5001"/>
</g>
</g>
</svg>
