<?xml version="1.0" encoding="UTF-8" standalone="no"?>
<!DOCTYPE svg PUBLIC "-//W3C//DTD SVG 1.1//EN"
 "http://www.w3.org/Graphics/SVG/1.1/DTD/svg11.dtd">
<!-- Generated by graphviz version 2.40.1 (20161225.0304)
 -->
<!-- Title: logDestroy_f Pages: 1 -->
<svg width="324pt" height="123pt"
 viewBox="0.00 0.00 324.00 123.00" xmlns="http://www.w3.org/2000/svg" xmlns:xlink="http://www.w3.org/1999/xlink">
<g id="graph0" class="graph" transform="scale(1 1) rotate(0) translate(4 119)">
<title>logDestroy_f</title>
<polygon fill="#ffffff" stroke="transparent" points="-4,4 -4,-119 320,-119 320,4 -4,4"/>
<!-- Node28 -->
<g id="node1" class="node">
<title>Node28</title>
<polygon fill="#bfbfbf" stroke="#000000" points="0,-57.5 0,-76.5 72,-76.5 72,-57.5 0,-57.5"/>
<text text-anchor="middle" x="36" y="-64.5" font-family="Helvetica,sans-Serif" font-size="10.00" fill="#000000">logDestroy_f</text>
</g>
<!-- Node29 -->
<g id="node2" class="node">
<title>Node29</title>
<g id="a_node2"><a xlink:href="../../de/d27/_logger_8cpp.html#a7b0614b46b009eec456e166c4010757e" target="_top" xlink:title="lockLoggerData">
<polygon fill="#ffffff" stroke="#000000" points="113,-95.5 113,-114.5 198,-114.5 198,-95.5 113,-95.5"/>
<text text-anchor="middle" x="155.5" y="-102.5" font-family="Helvetica,sans-Serif" font-size="10.00" fill="#000000">lockLoggerData</text>
</a>
</g>
</g>
<!-- Node28&#45;&gt;Node29 -->
<g id="edge1" class="edge">
<title>Node28&#45;&gt;Node29</title>
<path fill="none" stroke="#191970" d="M66.1549,-76.589C81.1566,-81.3594 99.4883,-87.1888 115.6338,-92.3229"/>
<polygon fill="#191970" stroke="#191970" points="114.7643,-95.719 125.3548,-95.4141 116.8856,-89.0482 114.7643,-95.719"/>
</g>
<!-- Node30 -->
<g id="node3" class="node">
<title>Node30</title>
<g id="a_node3"><a xlink:href="../../de/d27/_logger_8cpp.html#aeeb83b8b6ec1dbdf1a3e72fc836caef6" target="_top" xlink:title="unlockLoggerData">
<polygon fill="#ffffff" stroke="#000000" points="108,-57.5 108,-76.5 203,-76.5 203,-57.5 108,-57.5"/>
<text text-anchor="middle" x="155.5" y="-64.5" font-family="Helvetica,sans-Serif" font-size="10.00" fill="#000000">unlockLoggerData</text>
</a>
</g>
</g>
<!-- Node28&#45;&gt;Node30 -->
<g id="edge2" class="edge">
<title>Node28&#45;&gt;Node30</title>
<path fill="none" stroke="#191970" d="M72.1782,-67C80.2757,-67 89.061,-67 97.7883,-67"/>
<polygon fill="#191970" stroke="#191970" points="97.962,-70.5001 107.962,-67 97.9619,-63.5001 97.962,-70.5001"/>
</g>
<!-- Node31 -->
<g id="node4" class="node">
<title>Node31</title>
<g id="a_node4"><a xlink:href="../../de/d27/_logger_8cpp.html#a11eaecfa4e0eaee60ec32d2aa435f0ef" target="_top" xlink:title="writeMessage">
<polygon fill="#ffffff" stroke="#000000" points="117,-19.5 117,-38.5 194,-38.5 194,-19.5 117,-19.5"/>
<text text-anchor="middle" x="155.5" y="-26.5" font-family="Helvetica,sans-Serif" font-size="10.00" fill="#000000">writeMessage</text>
</a>
</g>
</g>
<!-- Node28&#45;&gt;Node31 -->
<g id="edge3" class="edge">
<title>Node28&#45;&gt;Node31</title>
<path fill="none" stroke="#191970" d="M66.1549,-57.411C81.1566,-52.6406 99.4883,-46.8112 115.6338,-41.6771"/>
<polygon fill="#191970" stroke="#191970" points="116.8856,-44.9518 125.3548,-38.5859 114.7643,-38.281 116.8856,-44.9518"/>
</g>
<!-- Node32 -->
<g id="node5" class="node">
<title>Node32</title>
<g id="a_node5"><a xlink:href="../../de/d27/_logger_8cpp.html#a295eb774fde642a4021e2c059844bb69" target="_top" xlink:title="lockStream">
<polygon fill="#ffffff" stroke="#000000" points="244.5,-38.5 244.5,-57.5 310.5,-57.5 310.5,-38.5 244.5,-38.5"/>
<text text-anchor="middle" x="277.5" y="-45.5" font-family="Helvetica,sans-Serif" font-size="10.00" fill="#000000">lockStream</text>
</a>
</g>
</g>
<!-- Node31&#45;&gt;Node32 -->
<g id="edge4" class="edge">
<title>Node31&#45;&gt;Node32</title>
<path fill="none" stroke="#191970" d="M194.1016,-35.0117C206.881,-37.002 221.1834,-39.2294 234.2862,-41.27"/>
<polygon fill="#191970" stroke="#191970" points="234.0655,-44.7777 244.485,-42.8583 235.1428,-37.8611 234.0655,-44.7777"/>
</g>
<!-- Node33 -->
<g id="node6" class="node">
<title>Node33</title>
<g id="a_node6"><a xlink:href="../../de/d27/_logger_8cpp.html#a923bd0383982e840b71866e794fa1405" target="_top" xlink:title="unlockStream">
<polygon fill="#ffffff" stroke="#000000" points="239,-.5 239,-19.5 316,-19.5 316,-.5 239,-.5"/>
<text text-anchor="middle" x="277.5" y="-7.5" font-family="Helvetica,sans-Serif" font-size="10.00" fill="#000000">unlockStream</text>
</a>
</g>
</g>
<!-- Node31&#45;&gt;Node33 -->
<g id="edge5" class="edge">
<title>Node31&#45;&gt;Node33</title>
<path fill="none" stroke="#191970" d="M194.1016,-22.9883C205.1161,-21.2729 217.2621,-19.3813 228.7962,-17.585"/>
<polygon fill="#191970" stroke="#191970" points="229.3885,-21.035 238.7308,-16.0378 228.3113,-14.1184 229.3885,-21.035"/>
</g>
</g>
</svg>
