<?xml version="1.0" encoding="UTF-8" standalone="no"?>
<!DOCTYPE svg PUBLIC "-//W3C//DTD SVG 1.1//EN"
 "http://www.w3.org/Graphics/SVG/1.1/DTD/svg11.dtd">
<!-- Generated by graphviz version 2.40.1 (20161225.0304)
 -->
<!-- Title: unlockLoggerData Pages: 1 -->
<svg width="537pt" height="180pt"
 viewBox="0.00 0.00 537.00 180.00" xmlns="http://www.w3.org/2000/svg" xmlns:xlink="http://www.w3.org/1999/xlink">
<g id="graph0" class="graph" transform="scale(1 1) rotate(0) translate(4 176)">
<title>unlockLoggerData</title>
<polygon fill="#ffffff" stroke="transparent" points="-4,4 -4,-176 533,-176 533,4 -4,4"/>
<!-- Node88 -->
<g id="node1" class="node">
<title>Node88</title>
<polygon fill="#bfbfbf" stroke="#000000" points="0,-76.5 0,-95.5 95,-95.5 95,-76.5 0,-76.5"/>
<text text-anchor="middle" x="47.5" y="-83.5" font-family="Helvetica,sans-Serif" font-size="10.00" fill="#000000">unlockLoggerData</text>
</g>
<!-- Node89 -->
<g id="node2" class="node">
<title>Node89</title>
<g id="a_node2"><a xlink:href="../../d3/de3/_logger_8hpp.html#a664f9cf48341e0b23122227e55a620b6" target="_top" xlink:title="function de&#45;initializes logger (writes all remaining message to stream a release resources) ...">
<polygon fill="#ffffff" stroke="#000000" points="145.5,-152.5 145.5,-171.5 217.5,-171.5 217.5,-152.5 145.5,-152.5"/>
<text text-anchor="middle" x="181.5" y="-159.5" font-family="Helvetica,sans-Serif" font-size="10.00" fill="#000000">logDestroy_f</text>
</a>
</g>
</g>
<!-- Node88&#45;&gt;Node89 -->
<g id="edge1" class="edge">
<title>Node88&#45;&gt;Node89</title>
<path fill="none" stroke="#191970" d="M67.918,-101.9886C84.3116,-114.3095 108.2677,-131.1822 131,-143 137.7322,-146.4998 145.2598,-149.6871 152.4056,-152.4092"/>
<polygon fill="#191970" stroke="#191970" points="69.7168,-98.9585 59.6442,-95.673 65.4694,-104.5227 69.7168,-98.9585"/>
</g>
<!-- Node92 -->
<g id="node5" class="node">
<title>Node92</title>
<g id="a_node5"><a xlink:href="../../de/d27/_logger_8cpp.html#aa4df9360b15f4315ce68c9dc16bbd996" target="_top" xlink:title="loggerThreadBody">
<polygon fill="#ffffff" stroke="#000000" points="134,-114.5 134,-133.5 229,-133.5 229,-114.5 134,-114.5"/>
<text text-anchor="middle" x="181.5" y="-121.5" font-family="Helvetica,sans-Serif" font-size="10.00" fill="#000000">loggerThreadBody</text>
</a>
</g>
</g>
<!-- Node88&#45;&gt;Node92 -->
<g id="edge4" class="edge">
<title>Node88&#45;&gt;Node92</title>
<path fill="none" stroke="#191970" d="M90.9383,-98.3183C109.3491,-103.5393 130.4798,-109.5316 147.697,-114.4141"/>
<polygon fill="#191970" stroke="#191970" points="91.8894,-94.9501 81.3139,-95.589 89.9796,-101.6845 91.8894,-94.9501"/>
</g>
<!-- Node93 -->
<g id="node6" class="node">
<title>Node93</title>
<g id="a_node6"><a xlink:href="../../d3/de3/_logger_8hpp.html#aeda367459d679e6d5d4476e7d7aa3963" target="_top" xlink:title="initialize logger for usage ">
<polygon fill="#ffffff" stroke="#000000" points="268,-114.5 268,-133.5 342,-133.5 342,-114.5 268,-114.5"/>
<text text-anchor="middle" x="305" y="-121.5" font-family="Helvetica,sans-Serif" font-size="10.00" fill="#000000">logInitialize_f</text>
</a>
</g>
</g>
<!-- Node88&#45;&gt;Node93 -->
<g id="edge8" class="edge">
<title>Node88&#45;&gt;Node93</title>
<path fill="none" stroke="#191970" d="M105.1628,-89.6741C141.7048,-92.56 189.8558,-97.391 232,-105 245.403,-107.4199 259.9639,-111.0093 272.5299,-114.4187"/>
<polygon fill="#191970" stroke="#191970" points="105.4163,-86.1834 95.1786,-88.9111 104.8828,-93.163 105.4163,-86.1834"/>
</g>
<!-- Node95 -->
<g id="node8" class="node">
<title>Node95</title>
<g id="a_node8"><a xlink:href="../../d3/de3/_logger_8hpp.html#ae95eab7383ada81d7f389aee9bccda23" target="_top" xlink:title="set log level during runtime ">
<polygon fill="#ffffff" stroke="#000000" points="143.5,-38.5 143.5,-57.5 219.5,-57.5 219.5,-38.5 143.5,-38.5"/>
<text text-anchor="middle" x="181.5" y="-45.5" font-family="Helvetica,sans-Serif" font-size="10.00" fill="#000000">logSetLevel_f</text>
</a>
</g>
</g>
<!-- Node88&#45;&gt;Node95 -->
<g id="edge9" class="edge">
<title>Node88&#45;&gt;Node95</title>
<path fill="none" stroke="#191970" d="M90.9383,-73.6817C109.3491,-68.4607 130.4798,-62.4684 147.697,-57.5859"/>
<polygon fill="#191970" stroke="#191970" points="89.9796,-70.3155 81.3139,-76.411 91.8894,-77.0499 89.9796,-70.3155"/>
</g>
<!-- Node96 -->
<g id="node9" class="node">
<title>Node96</title>
<g id="a_node9"><a xlink:href="../../d3/de3/_logger_8hpp.html#adba8f505d8d933102efd4df16a0d6316" target="_top" xlink:title="write message to log stream ">
<polygon fill="#ffffff" stroke="#000000" points="131,-.5 131,-19.5 232,-19.5 232,-.5 131,-.5"/>
<text text-anchor="middle" x="181.5" y="-7.5" font-family="Helvetica,sans-Serif" font-size="10.00" fill="#000000">logWriteMessage_f</text>
</a>
</g>
</g>
<!-- Node88&#45;&gt;Node96 -->
<g id="edge10" class="edge">
<title>Node88&#45;&gt;Node96</title>
<path fill="none" stroke="#191970" d="M67.918,-70.0114C84.3116,-57.6905 108.2677,-40.8178 131,-29 137.7322,-25.5002 145.2598,-22.3129 152.4056,-19.5908"/>
<polygon fill="#191970" stroke="#191970" points="65.4694,-67.4773 59.6442,-76.327 69.7168,-73.0415 65.4694,-67.4773"/>
</g>
<!-- Node90 -->
<g id="node3" class="node">
<title>Node90</title>
<g id="a_node3"><a xlink:href="../../df/d0a/main_8cpp.html#a0ae2256c09ff62743965e0e07f582b3f" target="_top" xlink:title="exitProcedure">
<polygon fill="#ffffff" stroke="#000000" points="378,-152.5 378,-171.5 455,-171.5 455,-152.5 378,-152.5"/>
<text text-anchor="middle" x="416.5" y="-159.5" font-family="Helvetica,sans-Serif" font-size="10.00" fill="#000000">exitProcedure</text>
</a>
</g>
</g>
<!-- Node89&#45;&gt;Node90 -->
<g id="edge2" class="edge">
<title>Node89&#45;&gt;Node90</title>
<path fill="none" stroke="#191970" d="M227.8205,-162C271.6843,-162 336.7854,-162 377.9094,-162"/>
<polygon fill="#191970" stroke="#191970" points="227.7038,-158.5001 217.7037,-162 227.7037,-165.5001 227.7038,-158.5001"/>
</g>
<!-- Node91 -->
<g id="node4" class="node">
<title>Node91</title>
<g id="a_node4"><a xlink:href="../../df/d0a/main_8cpp.html#a840291bc02cba5474a4cb46a9b9566fe" target="_top" xlink:title="main">
<polygon fill="#ffffff" stroke="#000000" points="491,-133.5 491,-152.5 529,-152.5 529,-133.5 491,-133.5"/>
<text text-anchor="middle" x="510" y="-140.5" font-family="Helvetica,sans-Serif" font-size="10.00" fill="#000000">main</text>
</a>
</g>
</g>
<!-- Node90&#45;&gt;Node91 -->
<g id="edge3" class="edge">
<title>Node90&#45;&gt;Node91</title>
<path fill="none" stroke="#191970" d="M465.0303,-152.1382C474.2386,-150.267 483.3547,-148.4145 490.9468,-146.8718"/>
<polygon fill="#191970" stroke="#191970" points="464.1725,-148.7409 455.0698,-154.1623 465.5666,-155.6007 464.1725,-148.7409"/>
</g>
<!-- Node92&#45;&gt;Node93 -->
<g id="edge5" class="edge">
<title>Node92&#45;&gt;Node93</title>
<path fill="none" stroke="#191970" d="M239.5515,-124C249.1301,-124 258.8278,-124 267.7182,-124"/>
<polygon fill="#191970" stroke="#191970" points="239.2484,-120.5001 229.2483,-124 239.2483,-127.5001 239.2484,-120.5001"/>
</g>
<!-- Node94 -->
<g id="node7" class="node">
<title>Node94</title>
<g id="a_node7"><a xlink:href="../../df/d0a/main_8cpp.html#a59a5d10c3e8acb2a11dad76e5d644020" target="_top" xlink:title="initProcedure">
<polygon fill="#ffffff" stroke="#000000" points="379.5,-114.5 379.5,-133.5 453.5,-133.5 453.5,-114.5 379.5,-114.5"/>
<text text-anchor="middle" x="416.5" y="-121.5" font-family="Helvetica,sans-Serif" font-size="10.00" fill="#000000">initProcedure</text>
</a>
</g>
</g>
<!-- Node93&#45;&gt;Node94 -->
<g id="edge6" class="edge">
<title>Node93&#45;&gt;Node94</title>
<path fill="none" stroke="#191970" d="M352.133,-124C361.1569,-124 370.4895,-124 379.1541,-124"/>
<polygon fill="#191970" stroke="#191970" points="352.1279,-120.5001 342.1279,-124 352.1279,-127.5001 352.1279,-120.5001"/>
</g>
<!-- Node94&#45;&gt;Node91 -->
<g id="edge7" class="edge">
<title>Node94&#45;&gt;Node91</title>
<path fill="none" stroke="#191970" d="M463.6972,-133.5909C473.326,-135.5475 482.9294,-137.499 490.8736,-139.1133"/>
<polygon fill="#191970" stroke="#191970" points="464.2191,-130.1255 453.7223,-131.5639 462.825,-136.9853 464.2191,-130.1255"/>
</g>
</g>
</svg>
