<?xml version="1.0" encoding="UTF-8" standalone="no"?>
<!DOCTYPE svg PUBLIC "-//W3C//DTD SVG 1.1//EN"
 "http://www.w3.org/Graphics/SVG/1.1/DTD/svg11.dtd">
<!-- Generated by graphviz version 2.40.1 (20161225.0304)
 -->
<!-- Title: logInitialize_f Pages: 1 -->
<svg width="483pt" height="142pt"
 viewBox="0.00 0.00 483.00 142.00" xmlns="http://www.w3.org/2000/svg" xmlns:xlink="http://www.w3.org/1999/xlink">
<g id="graph0" class="graph" transform="scale(1 1) rotate(0) translate(4 138)">
<title>logInitialize_f</title>
<polygon fill="#ffffff" stroke="transparent" points="-4,4 -4,-138 479,-138 479,4 -4,4"/>
<!-- Node50 -->
<g id="node1" class="node">
<title>Node50</title>
<polygon fill="#bfbfbf" stroke="#000000" points="0,-57.5 0,-76.5 74,-76.5 74,-57.5 0,-57.5"/>
<text text-anchor="middle" x="37" y="-64.5" font-family="Helvetica,sans-Serif" font-size="10.00" fill="#000000">logInitialize_f</text>
</g>
<!-- Node51 -->
<g id="node2" class="node">
<title>Node51</title>
<g id="a_node2"><a xlink:href="../../de/d27/_logger_8cpp.html#a7b0614b46b009eec456e166c4010757e" target="_top" xlink:title="lockLoggerData">
<polygon fill="#ffffff" stroke="#000000" points="246,-114.5 246,-133.5 331,-133.5 331,-114.5 246,-114.5"/>
<text text-anchor="middle" x="288.5" y="-121.5" font-family="Helvetica,sans-Serif" font-size="10.00" fill="#000000">lockLoggerData</text>
</a>
</g>
</g>
<!-- Node50&#45;&gt;Node51 -->
<g id="edge1" class="edge">
<title>Node50&#45;&gt;Node51</title>
<path fill="none" stroke="#191970" d="M72.1942,-76.5009C84.1634,-79.6412 97.6379,-83.0769 110,-86 152.0953,-95.9536 200.0582,-106.0981 235.6583,-113.3991"/>
<polygon fill="#191970" stroke="#191970" points="235.3237,-116.9029 245.8219,-115.4751 236.7247,-110.0446 235.3237,-116.9029"/>
</g>
<!-- Node52 -->
<g id="node3" class="node">
<title>Node52</title>
<g id="a_node3"><a xlink:href="../../de/d27/_logger_8cpp.html#aa4df9360b15f4315ce68c9dc16bbd996" target="_top" xlink:title="loggerThreadBody">
<polygon fill="#ffffff" stroke="#000000" points="110,-57.5 110,-76.5 205,-76.5 205,-57.5 110,-57.5"/>
<text text-anchor="middle" x="157.5" y="-64.5" font-family="Helvetica,sans-Serif" font-size="10.00" fill="#000000">loggerThreadBody</text>
</a>
</g>
</g>
<!-- Node50&#45;&gt;Node52 -->
<g id="edge2" class="edge">
<title>Node50&#45;&gt;Node52</title>
<path fill="none" stroke="#191970" d="M74.1372,-67C82.1891,-67 90.8901,-67 99.5286,-67"/>
<polygon fill="#191970" stroke="#191970" points="99.598,-70.5001 109.598,-67 99.5979,-63.5001 99.598,-70.5001"/>
</g>
<!-- Node56 -->
<g id="node7" class="node">
<title>Node56</title>
<g id="a_node7"><a xlink:href="../../de/d27/_logger_8cpp.html#aeeb83b8b6ec1dbdf1a3e72fc836caef6" target="_top" xlink:title="unlockLoggerData">
<polygon fill="#ffffff" stroke="#000000" points="241,-.5 241,-19.5 336,-19.5 336,-.5 241,-.5"/>
<text text-anchor="middle" x="288.5" y="-7.5" font-family="Helvetica,sans-Serif" font-size="10.00" fill="#000000">unlockLoggerData</text>
</a>
</g>
</g>
<!-- Node50&#45;&gt;Node56 -->
<g id="edge11" class="edge">
<title>Node50&#45;&gt;Node56</title>
<path fill="none" stroke="#191970" d="M72.1942,-57.4991C84.1634,-54.3588 97.6379,-50.9231 110,-48 150.2712,-38.4777 195.9125,-28.7807 230.9621,-21.5658"/>
<polygon fill="#191970" stroke="#191970" points="231.9235,-24.9416 241.0167,-19.5043 230.5175,-18.0842 231.9235,-24.9416"/>
</g>
<!-- Node52&#45;&gt;Node51 -->
<g id="edge3" class="edge">
<title>Node52&#45;&gt;Node51</title>
<path fill="none" stroke="#191970" d="M177.9707,-76.638C194.8025,-84.4848 219.3236,-95.7383 241,-105 245.2496,-106.8157 249.734,-108.6783 254.1822,-110.4936"/>
<polygon fill="#191970" stroke="#191970" points="253.1736,-113.8607 263.7569,-114.3556 255.7921,-107.3689 253.1736,-113.8607"/>
</g>
<!-- Node53 -->
<g id="node4" class="node">
<title>Node53</title>
<g id="a_node4"><a xlink:href="../../de/d27/_logger_8cpp.html#adba7e7852defaa150e7be9b81114fd62" target="_top" xlink:title="popMessage">
<polygon fill="#ffffff" stroke="#000000" points="252.5,-76.5 252.5,-95.5 324.5,-95.5 324.5,-76.5 252.5,-76.5"/>
<text text-anchor="middle" x="288.5" y="-83.5" font-family="Helvetica,sans-Serif" font-size="10.00" fill="#000000">popMessage</text>
</a>
</g>
</g>
<!-- Node52&#45;&gt;Node53 -->
<g id="edge4" class="edge">
<title>Node52&#45;&gt;Node53</title>
<path fill="none" stroke="#191970" d="M205.1646,-73.9132C217.16,-75.653 230.0192,-77.5181 241.9588,-79.2498"/>
<polygon fill="#191970" stroke="#191970" points="241.7707,-82.759 252.1696,-80.7307 242.7755,-75.8315 241.7707,-82.759"/>
</g>
<!-- Node52&#45;&gt;Node56 -->
<g id="edge7" class="edge">
<title>Node52&#45;&gt;Node56</title>
<path fill="none" stroke="#191970" d="M177.9707,-57.362C194.8025,-49.5152 219.3236,-38.2617 241,-29 245.2496,-27.1843 249.734,-25.3217 254.1822,-23.5064"/>
<polygon fill="#191970" stroke="#191970" points="255.7921,-26.6311 263.7569,-19.6444 253.1736,-20.1393 255.7921,-26.6311"/>
</g>
<!-- Node57 -->
<g id="node8" class="node">
<title>Node57</title>
<g id="a_node8"><a xlink:href="../../de/d27/_logger_8cpp.html#a11eaecfa4e0eaee60ec32d2aa435f0ef" target="_top" xlink:title="writeMessage">
<polygon fill="#ffffff" stroke="#000000" points="250,-38.5 250,-57.5 327,-57.5 327,-38.5 250,-38.5"/>
<text text-anchor="middle" x="288.5" y="-45.5" font-family="Helvetica,sans-Serif" font-size="10.00" fill="#000000">writeMessage</text>
</a>
</g>
</g>
<!-- Node52&#45;&gt;Node57 -->
<g id="edge8" class="edge">
<title>Node52&#45;&gt;Node57</title>
<path fill="none" stroke="#191970" d="M205.1646,-60.0868C216.3667,-58.4621 228.3222,-56.7281 239.5785,-55.0955"/>
<polygon fill="#191970" stroke="#191970" points="240.2836,-58.5299 249.6776,-53.6307 239.2788,-51.6024 240.2836,-58.5299"/>
</g>
<!-- Node54 -->
<g id="node5" class="node">
<title>Node54</title>
<g id="a_node5"><a xlink:href="../../de/d27/_logger_8cpp.html#a16c9d4e11162a42fdf0c5a47f4797336" target="_top" xlink:title="lockLoggerQueue">
<polygon fill="#ffffff" stroke="#000000" points="377.5,-114.5 377.5,-133.5 469.5,-133.5 469.5,-114.5 377.5,-114.5"/>
<text text-anchor="middle" x="423.5" y="-121.5" font-family="Helvetica,sans-Serif" font-size="10.00" fill="#000000">lockLoggerQueue</text>
</a>
</g>
</g>
<!-- Node53&#45;&gt;Node54 -->
<g id="edge5" class="edge">
<title>Node53&#45;&gt;Node54</title>
<path fill="none" stroke="#191970" d="M322.5662,-95.589C339.9135,-100.4719 361.2022,-106.4643 379.7492,-111.685"/>
<polygon fill="#191970" stroke="#191970" points="378.8704,-115.0735 389.4447,-114.4141 380.7671,-108.3354 378.8704,-115.0735"/>
</g>
<!-- Node55 -->
<g id="node6" class="node">
<title>Node55</title>
<g id="a_node6"><a xlink:href="../../de/d27/_logger_8cpp.html#aa47defada9b881330abec76ff50b017c" target="_top" xlink:title="unlockLoggerQueue">
<polygon fill="#ffffff" stroke="#000000" points="372,-76.5 372,-95.5 475,-95.5 475,-76.5 372,-76.5"/>
<text text-anchor="middle" x="423.5" y="-83.5" font-family="Helvetica,sans-Serif" font-size="10.00" fill="#000000">unlockLoggerQueue</text>
</a>
</g>
</g>
<!-- Node53&#45;&gt;Node55 -->
<g id="edge6" class="edge">
<title>Node53&#45;&gt;Node55</title>
<path fill="none" stroke="#191970" d="M324.6775,-86C336.1403,-86 349.1516,-86 361.8818,-86"/>
<polygon fill="#191970" stroke="#191970" points="361.9959,-89.5001 371.9959,-86 361.9958,-82.5001 361.9959,-89.5001"/>
</g>
<!-- Node58 -->
<g id="node9" class="node">
<title>Node58</title>
<g id="a_node9"><a xlink:href="../../de/d27/_logger_8cpp.html#a295eb774fde642a4021e2c059844bb69" target="_top" xlink:title="lockStream">
<polygon fill="#ffffff" stroke="#000000" points="390.5,-38.5 390.5,-57.5 456.5,-57.5 456.5,-38.5 390.5,-38.5"/>
<text text-anchor="middle" x="423.5" y="-45.5" font-family="Helvetica,sans-Serif" font-size="10.00" fill="#000000">lockStream</text>
</a>
</g>
</g>
<!-- Node57&#45;&gt;Node58 -->
<g id="edge9" class="edge">
<title>Node57&#45;&gt;Node58</title>
<path fill="none" stroke="#191970" d="M327.1856,-48C343.7035,-48 363.0554,-48 380.0624,-48"/>
<polygon fill="#191970" stroke="#191970" points="380.3024,-51.5001 390.3024,-48 380.3023,-44.5001 380.3024,-51.5001"/>
</g>
<!-- Node59 -->
<g id="node10" class="node">
<title>Node59</title>
<g id="a_node10"><a xlink:href="../../de/d27/_logger_8cpp.html#a923bd0383982e840b71866e794fa1405" target="_top" xlink:title="unlockStream">
<polygon fill="#ffffff" stroke="#000000" points="385,-.5 385,-19.5 462,-19.5 462,-.5 385,-.5"/>
<text text-anchor="middle" x="423.5" y="-7.5" font-family="Helvetica,sans-Serif" font-size="10.00" fill="#000000">unlockStream</text>
</a>
</g>
</g>
<!-- Node57&#45;&gt;Node59 -->
<g id="edge10" class="edge">
<title>Node57&#45;&gt;Node59</title>
<path fill="none" stroke="#191970" d="M322.5662,-38.411C339.9135,-33.5281 361.2022,-27.5357 379.7492,-22.315"/>
<polygon fill="#191970" stroke="#191970" points="380.7671,-25.6646 389.4447,-19.5859 378.8704,-18.9265 380.7671,-25.6646"/>
</g>
</g>
</svg>
