<?xml version="1.0" encoding="UTF-8" standalone="no"?>
<!DOCTYPE svg PUBLIC "-//W3C//DTD SVG 1.1//EN"
 "http://www.w3.org/Graphics/SVG/1.1/DTD/svg11.dtd">
<!-- Generated by graphviz version 2.40.1 (20161225.0304)
 -->
<!-- Title: lockLoggerData Pages: 1 -->
<svg width="527pt" height="180pt"
 viewBox="0.00 0.00 527.00 180.00" xmlns="http://www.w3.org/2000/svg" xmlns:xlink="http://www.w3.org/1999/xlink">
<g id="graph0" class="graph" transform="scale(1 1) rotate(0) translate(4 176)">
<title>lockLoggerData</title>
<polygon fill="#ffffff" stroke="transparent" points="-4,4 -4,-176 523,-176 523,4 -4,4"/>
<!-- Node1 -->
<g id="node1" class="node">
<title>Node1</title>
<polygon fill="#bfbfbf" stroke="#000000" points="0,-76.5 0,-95.5 85,-95.5 85,-76.5 0,-76.5"/>
<text text-anchor="middle" x="42.5" y="-83.5" font-family="Helvetica,sans-Serif" font-size="10.00" fill="#000000">lockLoggerData</text>
</g>
<!-- Node2 -->
<g id="node2" class="node">
<title>Node2</title>
<g id="a_node2"><a xlink:href="../../d3/de3/_logger_8hpp.html#a664f9cf48341e0b23122227e55a620b6" target="_top" xlink:title="function de&#45;initializes logger (writes all remaining message to stream a release resources) ...">
<polygon fill="#ffffff" stroke="#000000" points="135.5,-152.5 135.5,-171.5 207.5,-171.5 207.5,-152.5 135.5,-152.5"/>
<text text-anchor="middle" x="171.5" y="-159.5" font-family="Helvetica,sans-Serif" font-size="10.00" fill="#000000">logDestroy_f</text>
</a>
</g>
</g>
<!-- Node1&#45;&gt;Node2 -->
<g id="edge1" class="edge">
<title>Node1&#45;&gt;Node2</title>
<path fill="none" stroke="#191970" d="M61.7057,-102.2098C77.0299,-114.5682 99.4306,-131.3856 121,-143 127.5981,-146.5529 135.0041,-149.7407 142.0686,-152.4446"/>
<polygon fill="#191970" stroke="#191970" points="63.5101,-99.1626 53.5606,-95.5216 59.0679,-104.5725 63.5101,-99.1626"/>
</g>
<!-- Node5 -->
<g id="node5" class="node">
<title>Node5</title>
<g id="a_node5"><a xlink:href="../../de/d27/_logger_8cpp.html#aa4df9360b15f4315ce68c9dc16bbd996" target="_top" xlink:title="loggerThreadBody">
<polygon fill="#ffffff" stroke="#000000" points="124,-114.5 124,-133.5 219,-133.5 219,-114.5 124,-114.5"/>
<text text-anchor="middle" x="171.5" y="-121.5" font-family="Helvetica,sans-Serif" font-size="10.00" fill="#000000">loggerThreadBody</text>
</a>
</g>
</g>
<!-- Node1&#45;&gt;Node5 -->
<g id="edge4" class="edge">
<title>Node1&#45;&gt;Node5</title>
<path fill="none" stroke="#191970" d="M85.054,-98.5353C102.603,-103.7048 122.6127,-109.5991 138.9583,-114.4141"/>
<polygon fill="#191970" stroke="#191970" points="85.6336,-95.0574 75.0521,-95.589 83.6556,-101.7721 85.6336,-95.0574"/>
</g>
<!-- Node6 -->
<g id="node6" class="node">
<title>Node6</title>
<g id="a_node6"><a xlink:href="../../d3/de3/_logger_8hpp.html#aeda367459d679e6d5d4476e7d7aa3963" target="_top" xlink:title="initialize logger for usage ">
<polygon fill="#ffffff" stroke="#000000" points="258,-114.5 258,-133.5 332,-133.5 332,-114.5 258,-114.5"/>
<text text-anchor="middle" x="295" y="-121.5" font-family="Helvetica,sans-Serif" font-size="10.00" fill="#000000">logInitialize_f</text>
</a>
</g>
</g>
<!-- Node1&#45;&gt;Node6 -->
<g id="edge8" class="edge">
<title>Node1&#45;&gt;Node6</title>
<path fill="none" stroke="#191970" d="M95.4363,-89.5175C131.3395,-92.4128 179.7685,-97.3134 222,-105 235.3995,-107.4389 249.9598,-111.0319 262.5263,-114.4388"/>
<polygon fill="#191970" stroke="#191970" points="95.4301,-86.0065 85.1881,-88.718 94.8856,-92.9853 95.4301,-86.0065"/>
</g>
<!-- Node8 -->
<g id="node8" class="node">
<title>Node8</title>
<g id="a_node8"><a xlink:href="../../d3/de3/_logger_8hpp.html#ae95eab7383ada81d7f389aee9bccda23" target="_top" xlink:title="set log level during runtime ">
<polygon fill="#ffffff" stroke="#000000" points="133.5,-38.5 133.5,-57.5 209.5,-57.5 209.5,-38.5 133.5,-38.5"/>
<text text-anchor="middle" x="171.5" y="-45.5" font-family="Helvetica,sans-Serif" font-size="10.00" fill="#000000">logSetLevel_f</text>
</a>
</g>
</g>
<!-- Node1&#45;&gt;Node8 -->
<g id="edge9" class="edge">
<title>Node1&#45;&gt;Node8</title>
<path fill="none" stroke="#191970" d="M85.054,-73.4647C102.603,-68.2952 122.6127,-62.4009 138.9583,-57.5859"/>
<polygon fill="#191970" stroke="#191970" points="83.6556,-70.2279 75.0521,-76.411 85.6336,-76.9426 83.6556,-70.2279"/>
</g>
<!-- Node9 -->
<g id="node9" class="node">
<title>Node9</title>
<g id="a_node9"><a xlink:href="../../d3/de3/_logger_8hpp.html#adba8f505d8d933102efd4df16a0d6316" target="_top" xlink:title="write message to log stream ">
<polygon fill="#ffffff" stroke="#000000" points="121,-.5 121,-19.5 222,-19.5 222,-.5 121,-.5"/>
<text text-anchor="middle" x="171.5" y="-7.5" font-family="Helvetica,sans-Serif" font-size="10.00" fill="#000000">logWriteMessage_f</text>
</a>
</g>
</g>
<!-- Node1&#45;&gt;Node9 -->
<g id="edge10" class="edge">
<title>Node1&#45;&gt;Node9</title>
<path fill="none" stroke="#191970" d="M61.7057,-69.7902C77.0299,-57.4318 99.4306,-40.6144 121,-29 127.5981,-25.4471 135.0041,-22.2593 142.0686,-19.5554"/>
<polygon fill="#191970" stroke="#191970" points="59.0679,-67.4275 53.5606,-76.4784 63.5101,-72.8374 59.0679,-67.4275"/>
</g>
<!-- Node3 -->
<g id="node3" class="node">
<title>Node3</title>
<g id="a_node3"><a xlink:href="../../df/d0a/main_8cpp.html#a0ae2256c09ff62743965e0e07f582b3f" target="_top" xlink:title="exitProcedure">
<polygon fill="#ffffff" stroke="#000000" points="368,-152.5 368,-171.5 445,-171.5 445,-152.5 368,-152.5"/>
<text text-anchor="middle" x="406.5" y="-159.5" font-family="Helvetica,sans-Serif" font-size="10.00" fill="#000000">exitProcedure</text>
</a>
</g>
</g>
<!-- Node2&#45;&gt;Node3 -->
<g id="edge2" class="edge">
<title>Node2&#45;&gt;Node3</title>
<path fill="none" stroke="#191970" d="M217.8205,-162C261.6843,-162 326.7854,-162 367.9094,-162"/>
<polygon fill="#191970" stroke="#191970" points="217.7038,-158.5001 207.7037,-162 217.7037,-165.5001 217.7038,-158.5001"/>
</g>
<!-- Node4 -->
<g id="node4" class="node">
<title>Node4</title>
<g id="a_node4"><a xlink:href="../../df/d0a/main_8cpp.html#a840291bc02cba5474a4cb46a9b9566fe" target="_top" xlink:title="main">
<polygon fill="#ffffff" stroke="#000000" points="481,-133.5 481,-152.5 519,-152.5 519,-133.5 481,-133.5"/>
<text text-anchor="middle" x="500" y="-140.5" font-family="Helvetica,sans-Serif" font-size="10.00" fill="#000000">main</text>
</a>
</g>
</g>
<!-- Node3&#45;&gt;Node4 -->
<g id="edge3" class="edge">
<title>Node3&#45;&gt;Node4</title>
<path fill="none" stroke="#191970" d="M455.0303,-152.1382C464.2386,-150.267 473.3547,-148.4145 480.9468,-146.8718"/>
<polygon fill="#191970" stroke="#191970" points="454.1725,-148.7409 445.0698,-154.1623 455.5666,-155.6007 454.1725,-148.7409"/>
</g>
<!-- Node5&#45;&gt;Node6 -->
<g id="edge5" class="edge">
<title>Node5&#45;&gt;Node6</title>
<path fill="none" stroke="#191970" d="M229.5515,-124C239.1301,-124 248.8278,-124 257.7182,-124"/>
<polygon fill="#191970" stroke="#191970" points="229.2484,-120.5001 219.2483,-124 229.2483,-127.5001 229.2484,-120.5001"/>
</g>
<!-- Node7 -->
<g id="node7" class="node">
<title>Node7</title>
<g id="a_node7"><a xlink:href="../../df/d0a/main_8cpp.html#a59a5d10c3e8acb2a11dad76e5d644020" target="_top" xlink:title="initProcedure">
<polygon fill="#ffffff" stroke="#000000" points="369.5,-114.5 369.5,-133.5 443.5,-133.5 443.5,-114.5 369.5,-114.5"/>
<text text-anchor="middle" x="406.5" y="-121.5" font-family="Helvetica,sans-Serif" font-size="10.00" fill="#000000">initProcedure</text>
</a>
</g>
</g>
<!-- Node6&#45;&gt;Node7 -->
<g id="edge6" class="edge">
<title>Node6&#45;&gt;Node7</title>
<path fill="none" stroke="#191970" d="M342.133,-124C351.1569,-124 360.4895,-124 369.1541,-124"/>
<polygon fill="#191970" stroke="#191970" points="342.1279,-120.5001 332.1279,-124 342.1279,-127.5001 342.1279,-120.5001"/>
</g>
<!-- Node7&#45;&gt;Node4 -->
<g id="edge7" class="edge">
<title>Node7&#45;&gt;Node4</title>
<path fill="none" stroke="#191970" d="M453.6972,-133.5909C463.326,-135.5475 472.9294,-137.499 480.8736,-139.1133"/>
<polygon fill="#191970" stroke="#191970" points="454.2191,-130.1255 443.7223,-131.5639 452.825,-136.9853 454.2191,-130.1255"/>
</g>
</g>
</svg>
