<?xml version="1.0" encoding="UTF-8" standalone="no"?>
<!DOCTYPE svg PUBLIC "-//W3C//DTD SVG 1.1//EN"
 "http://www.w3.org/Graphics/SVG/1.1/DTD/svg11.dtd">
<!-- Generated by graphviz version 2.40.1 (20161225.0304)
 -->
<!-- Title: unlockStream Pages: 1 -->
<svg width="670pt" height="85pt"
 viewBox="0.00 0.00 670.00 85.00" xmlns="http://www.w3.org/2000/svg" xmlns:xlink="http://www.w3.org/1999/xlink">
<g id="graph0" class="graph" transform="scale(1 1) rotate(0) translate(4 81)">
<title>unlockStream</title>
<polygon fill="#ffffff" stroke="transparent" points="-4,4 -4,-81 666,-81 666,4 -4,4"/>
<!-- Node106 -->
<g id="node1" class="node">
<title>Node106</title>
<polygon fill="#bfbfbf" stroke="#000000" points="0,-38.5 0,-57.5 77,-57.5 77,-38.5 0,-38.5"/>
<text text-anchor="middle" x="38.5" y="-45.5" font-family="Helvetica,sans-Serif" font-size="10.00" fill="#000000">unlockStream</text>
</g>
<!-- Node107 -->
<g id="node2" class="node">
<title>Node107</title>
<g id="a_node2"><a xlink:href="../../d3/de3/_logger_8hpp.html#aba7f065de333fc8ff19fdfd6a1821f29" target="_top" xlink:title="unlock logger stream to resume normal loggin operations ">
<polygon fill="#ffffff" stroke="#000000" points="113,-57.5 113,-76.5 234,-76.5 234,-57.5 113,-57.5"/>
<text text-anchor="middle" x="173.5" y="-64.5" font-family="Helvetica,sans-Serif" font-size="10.00" fill="#000000">logUnlockLoggerStream</text>
</a>
</g>
</g>
<!-- Node106&#45;&gt;Node107 -->
<g id="edge1" class="edge">
<title>Node106&#45;&gt;Node107</title>
<path fill="none" stroke="#191970" d="M87.1324,-54.8446C95.4891,-56.0207 104.2653,-57.2559 112.8898,-58.4697"/>
<polygon fill="#191970" stroke="#191970" points="87.5758,-51.3726 77.1856,-53.4446 86.6002,-58.3042 87.5758,-51.3726"/>
</g>
<!-- Node108 -->
<g id="node3" class="node">
<title>Node108</title>
<g id="a_node3"><a xlink:href="../../de/d27/_logger_8cpp.html#a11eaecfa4e0eaee60ec32d2aa435f0ef" target="_top" xlink:title="writeMessage">
<polygon fill="#ffffff" stroke="#000000" points="135,-19.5 135,-38.5 212,-38.5 212,-19.5 135,-19.5"/>
<text text-anchor="middle" x="173.5" y="-26.5" font-family="Helvetica,sans-Serif" font-size="10.00" fill="#000000">writeMessage</text>
</a>
</g>
</g>
<!-- Node106&#45;&gt;Node108 -->
<g id="edge2" class="edge">
<title>Node106&#45;&gt;Node108</title>
<path fill="none" stroke="#191970" d="M87.2191,-41.1432C102.868,-38.9408 119.9801,-36.5324 134.8088,-34.4454"/>
<polygon fill="#191970" stroke="#191970" points="86.6002,-37.6958 77.1856,-42.5554 87.5758,-44.6274 86.6002,-37.6958"/>
</g>
<!-- Node109 -->
<g id="node4" class="node">
<title>Node109</title>
<g id="a_node4"><a xlink:href="../../de/d27/_logger_8cpp.html#aa4df9360b15f4315ce68c9dc16bbd996" target="_top" xlink:title="loggerThreadBody">
<polygon fill="#ffffff" stroke="#000000" points="270,-38.5 270,-57.5 365,-57.5 365,-38.5 270,-38.5"/>
<text text-anchor="middle" x="317.5" y="-45.5" font-family="Helvetica,sans-Serif" font-size="10.00" fill="#000000">loggerThreadBody</text>
</a>
</g>
</g>
<!-- Node108&#45;&gt;Node109 -->
<g id="edge3" class="edge">
<title>Node108&#45;&gt;Node109</title>
<path fill="none" stroke="#191970" d="M222.3985,-35.4519C237.7059,-37.4716 254.5714,-39.6969 269.7954,-41.7056"/>
<polygon fill="#191970" stroke="#191970" points="222.4613,-31.9299 212.0894,-34.0917 221.5456,-38.8698 222.4613,-31.9299"/>
</g>
<!-- Node113 -->
<g id="node8" class="node">
<title>Node113</title>
<g id="a_node8"><a xlink:href="../../d3/de3/_logger_8hpp.html#a664f9cf48341e0b23122227e55a620b6" target="_top" xlink:title="function de&#45;initializes logger (writes all remaining message to stream a release resources) ...">
<polygon fill="#ffffff" stroke="#000000" points="402,-.5 402,-19.5 474,-19.5 474,-.5 402,-.5"/>
<text text-anchor="middle" x="438" y="-7.5" font-family="Helvetica,sans-Serif" font-size="10.00" fill="#000000">logDestroy_f</text>
</a>
</g>
</g>
<!-- Node108&#45;&gt;Node113 -->
<g id="edge7" class="edge">
<title>Node108&#45;&gt;Node113</title>
<path fill="none" stroke="#191970" d="M222.2202,-25.5002C274.1343,-21.7711 355.1212,-15.9535 401.7052,-12.6072"/>
<polygon fill="#191970" stroke="#191970" points="221.9673,-22.0093 212.2438,-26.2169 222.4689,-28.9913 221.9673,-22.0093"/>
</g>
<!-- Node110 -->
<g id="node5" class="node">
<title>Node110</title>
<g id="a_node5"><a xlink:href="../../d3/de3/_logger_8hpp.html#aeda367459d679e6d5d4476e7d7aa3963" target="_top" xlink:title="initialize logger for usage ">
<polygon fill="#ffffff" stroke="#000000" points="401,-38.5 401,-57.5 475,-57.5 475,-38.5 401,-38.5"/>
<text text-anchor="middle" x="438" y="-45.5" font-family="Helvetica,sans-Serif" font-size="10.00" fill="#000000">logInitialize_f</text>
</a>
</g>
</g>
<!-- Node109&#45;&gt;Node110 -->
<g id="edge4" class="edge">
<title>Node109&#45;&gt;Node110</title>
<path fill="none" stroke="#191970" d="M375.2343,-48C383.9102,-48 392.6557,-48 400.7497,-48"/>
<polygon fill="#191970" stroke="#191970" points="375.1248,-44.5001 365.1248,-48 375.1248,-51.5001 375.1248,-44.5001"/>
</g>
<!-- Node111 -->
<g id="node6" class="node">
<title>Node111</title>
<g id="a_node6"><a xlink:href="../../df/d0a/main_8cpp.html#a59a5d10c3e8acb2a11dad76e5d644020" target="_top" xlink:title="initProcedure">
<polygon fill="#ffffff" stroke="#000000" points="512.5,-38.5 512.5,-57.5 586.5,-57.5 586.5,-38.5 512.5,-38.5"/>
<text text-anchor="middle" x="549.5" y="-45.5" font-family="Helvetica,sans-Serif" font-size="10.00" fill="#000000">initProcedure</text>
</a>
</g>
</g>
<!-- Node110&#45;&gt;Node111 -->
<g id="edge5" class="edge">
<title>Node110&#45;&gt;Node111</title>
<path fill="none" stroke="#191970" d="M485.133,-48C494.1569,-48 503.4895,-48 512.1541,-48"/>
<polygon fill="#191970" stroke="#191970" points="485.1279,-44.5001 475.1279,-48 485.1279,-51.5001 485.1279,-44.5001"/>
</g>
<!-- Node112 -->
<g id="node7" class="node">
<title>Node112</title>
<g id="a_node7"><a xlink:href="../../df/d0a/main_8cpp.html#a840291bc02cba5474a4cb46a9b9566fe" target="_top" xlink:title="main">
<polygon fill="#ffffff" stroke="#000000" points="624,-19.5 624,-38.5 662,-38.5 662,-19.5 624,-19.5"/>
<text text-anchor="middle" x="643" y="-26.5" font-family="Helvetica,sans-Serif" font-size="10.00" fill="#000000">main</text>
</a>
</g>
</g>
<!-- Node111&#45;&gt;Node112 -->
<g id="edge6" class="edge">
<title>Node111&#45;&gt;Node112</title>
<path fill="none" stroke="#191970" d="M596.6972,-38.4091C606.326,-36.4525 615.9294,-34.501 623.8736,-32.8867"/>
<polygon fill="#191970" stroke="#191970" points="595.825,-35.0147 586.7223,-40.4361 597.2191,-41.8745 595.825,-35.0147"/>
</g>
<!-- Node114 -->
<g id="node9" class="node">
<title>Node114</title>
<g id="a_node9"><a xlink:href="../../df/d0a/main_8cpp.html#a0ae2256c09ff62743965e0e07f582b3f" target="_top" xlink:title="exitProcedure">
<polygon fill="#ffffff" stroke="#000000" points="511,-.5 511,-19.5 588,-19.5 588,-.5 511,-.5"/>
<text text-anchor="middle" x="549.5" y="-7.5" font-family="Helvetica,sans-Serif" font-size="10.00" fill="#000000">exitProcedure</text>
</a>
</g>
</g>
<!-- Node113&#45;&gt;Node114 -->
<g id="edge8" class="edge">
<title>Node113&#45;&gt;Node114</title>
<path fill="none" stroke="#191970" d="M484.3304,-10C493.1321,-10 502.2564,-10 510.7912,-10"/>
<polygon fill="#191970" stroke="#191970" points="484.2009,-6.5001 474.2009,-10 484.2008,-13.5001 484.2009,-6.5001"/>
</g>
<!-- Node114&#45;&gt;Node112 -->
<g id="edge9" class="edge">
<title>Node114&#45;&gt;Node112</title>
<path fill="none" stroke="#191970" d="M598.0303,-19.8618C607.2386,-21.733 616.3547,-23.5855 623.9468,-25.1282"/>
<polygon fill="#191970" stroke="#191970" points="598.5666,-16.3993 588.0698,-17.8377 597.1725,-23.2591 598.5666,-16.3993"/>
</g>
</g>
</svg>
