<?xml version="1.0" encoding="UTF-8" standalone="no"?>
<!DOCTYPE svg PUBLIC "-//W3C//DTD SVG 1.1//EN"
 "http://www.w3.org/Graphics/SVG/1.1/DTD/svg11.dtd">
<!-- Generated by graphviz version 2.40.1 (20161225.0304)
 -->
<!-- Title: popMessage Pages: 1 -->
<svg width="505pt" height="28pt"
 viewBox="0.00 0.00 505.00 28.00" xmlns="http://www.w3.org/2000/svg" xmlns:xlink="http://www.w3.org/1999/xlink">
<g id="graph0" class="graph" transform="scale(1 1) rotate(0) translate(4 24)">
<title>popMessage</title>
<polygon fill="#ffffff" stroke="transparent" points="-4,4 -4,-24 501,-24 501,4 -4,4"/>
<!-- Node82 -->
<g id="node1" class="node">
<title>Node82</title>
<polygon fill="#bfbfbf" stroke="#000000" points="0,-.5 0,-19.5 72,-19.5 72,-.5 0,-.5"/>
<text text-anchor="middle" x="36" y="-7.5" font-family="Helvetica,sans-Serif" font-size="10.00" fill="#000000">popMessage</text>
</g>
<!-- Node83 -->
<g id="node2" class="node">
<title>Node83</title>
<g id="a_node2"><a xlink:href="../../de/d27/_logger_8cpp.html#aa4df9360b15f4315ce68c9dc16bbd996" target="_top" xlink:title="loggerThreadBody">
<polygon fill="#ffffff" stroke="#000000" points="108,-.5 108,-19.5 203,-19.5 203,-.5 108,-.5"/>
<text text-anchor="middle" x="155.5" y="-7.5" font-family="Helvetica,sans-Serif" font-size="10.00" fill="#000000">loggerThreadBody</text>
</a>
</g>
</g>
<!-- Node82&#45;&gt;Node83 -->
<g id="edge1" class="edge">
<title>Node82&#45;&gt;Node83</title>
<path fill="none" stroke="#191970" d="M82.2332,-10C90.6706,-10 99.4875,-10 107.962,-10"/>
<polygon fill="#191970" stroke="#191970" points="82.1783,-6.5001 72.1782,-10 82.1782,-13.5001 82.1783,-6.5001"/>
</g>
<!-- Node84 -->
<g id="node3" class="node">
<title>Node84</title>
<g id="a_node3"><a xlink:href="../../d3/de3/_logger_8hpp.html#aeda367459d679e6d5d4476e7d7aa3963" target="_top" xlink:title="initialize logger for usage ">
<polygon fill="#ffffff" stroke="#000000" points="239,-.5 239,-19.5 313,-19.5 313,-.5 239,-.5"/>
<text text-anchor="middle" x="276" y="-7.5" font-family="Helvetica,sans-Serif" font-size="10.00" fill="#000000">logInitialize_f</text>
</a>
</g>
</g>
<!-- Node83&#45;&gt;Node84 -->
<g id="edge2" class="edge">
<title>Node83&#45;&gt;Node84</title>
<path fill="none" stroke="#191970" d="M213.2343,-10C221.9102,-10 230.6557,-10 238.7497,-10"/>
<polygon fill="#191970" stroke="#191970" points="213.1248,-6.5001 203.1248,-10 213.1248,-13.5001 213.1248,-6.5001"/>
</g>
<!-- Node85 -->
<g id="node4" class="node">
<title>Node85</title>
<g id="a_node4"><a xlink:href="../../df/d0a/main_8cpp.html#a59a5d10c3e8acb2a11dad76e5d644020" target="_top" xlink:title="initProcedure">
<polygon fill="#ffffff" stroke="#000000" points="349,-.5 349,-19.5 423,-19.5 423,-.5 349,-.5"/>
<text text-anchor="middle" x="386" y="-7.5" font-family="Helvetica,sans-Serif" font-size="10.00" fill="#000000">initProcedure</text>
</a>
</g>
</g>
<!-- Node84&#45;&gt;Node85 -->
<g id="edge3" class="edge">
<title>Node84&#45;&gt;Node85</title>
<path fill="none" stroke="#191970" d="M323.4196,-10C331.9099,-10 340.6459,-10 348.7974,-10"/>
<polygon fill="#191970" stroke="#191970" points="323.241,-6.5001 313.241,-10 323.2409,-13.5001 323.241,-6.5001"/>
</g>
<!-- Node86 -->
<g id="node5" class="node">
<title>Node86</title>
<g id="a_node5"><a xlink:href="../../df/d0a/main_8cpp.html#a840291bc02cba5474a4cb46a9b9566fe" target="_top" xlink:title="main">
<polygon fill="#ffffff" stroke="#000000" points="459,-.5 459,-19.5 497,-19.5 497,-.5 459,-.5"/>
<text text-anchor="middle" x="478" y="-7.5" font-family="Helvetica,sans-Serif" font-size="10.00" fill="#000000">main</text>
</a>
</g>
</g>
<!-- Node85&#45;&gt;Node86 -->
<g id="edge4" class="edge">
<title>Node85&#45;&gt;Node86</title>
<path fill="none" stroke="#191970" d="M433.3389,-10C442.3996,-10 451.391,-10 458.9053,-10"/>
<polygon fill="#191970" stroke="#191970" points="433.1548,-6.5001 423.1547,-10 433.1547,-13.5001 433.1548,-6.5001"/>
</g>
</g>
</svg>
