<?xml version="1.0" encoding="UTF-8" standalone="no"?>
<!DOCTYPE svg PUBLIC "-//W3C//DTD SVG 1.1//EN"
 "http://www.w3.org/Graphics/SVG/1.1/DTD/svg11.dtd">
<!-- Generated by graphviz version 2.40.1 (20161225.0304)
 -->
<!-- Title: writeMessage Pages: 1 -->
<svg width="198pt" height="66pt"
 viewBox="0.00 0.00 198.00 66.00" xmlns="http://www.w3.org/2000/svg" xmlns:xlink="http://www.w3.org/1999/xlink">
<g id="graph0" class="graph" transform="scale(1 1) rotate(0) translate(4 62)">
<title>writeMessage</title>
<polygon fill="#ffffff" stroke="transparent" points="-4,4 -4,-62 194,-62 194,4 -4,4"/>
<!-- Node115 -->
<g id="node1" class="node">
<title>Node115</title>
<polygon fill="#bfbfbf" stroke="#000000" points="0,-19.5 0,-38.5 77,-38.5 77,-19.5 0,-19.5"/>
<text text-anchor="middle" x="38.5" y="-26.5" font-family="Helvetica,sans-Serif" font-size="10.00" fill="#000000">writeMessage</text>
</g>
<!-- Node116 -->
<g id="node2" class="node">
<title>Node116</title>
<g id="a_node2"><a xlink:href="../../de/d27/_logger_8cpp.html#a295eb774fde642a4021e2c059844bb69" target="_top" xlink:title="lockStream">
<polygon fill="#ffffff" stroke="#000000" points="118.5,-38.5 118.5,-57.5 184.5,-57.5 184.5,-38.5 118.5,-38.5"/>
<text text-anchor="middle" x="151.5" y="-45.5" font-family="Helvetica,sans-Serif" font-size="10.00" fill="#000000">lockStream</text>
</a>
</g>
</g>
<!-- Node115&#45;&gt;Node116 -->
<g id="edge1" class="edge">
<title>Node115&#45;&gt;Node116</title>
<path fill="none" stroke="#191970" d="M77.0721,-35.4856C87.1421,-37.1788 98.0596,-39.0144 108.3504,-40.7448"/>
<polygon fill="#191970" stroke="#191970" points="107.9357,-44.2241 118.3776,-42.4308 109.0964,-37.321 107.9357,-44.2241"/>
</g>
<!-- Node117 -->
<g id="node3" class="node">
<title>Node117</title>
<g id="a_node3"><a xlink:href="../../de/d27/_logger_8cpp.html#a923bd0383982e840b71866e794fa1405" target="_top" xlink:title="unlockStream">
<polygon fill="#ffffff" stroke="#000000" points="113,-.5 113,-19.5 190,-19.5 190,-.5 113,-.5"/>
<text text-anchor="middle" x="151.5" y="-7.5" font-family="Helvetica,sans-Serif" font-size="10.00" fill="#000000">unlockStream</text>
</a>
</g>
</g>
<!-- Node115&#45;&gt;Node117 -->
<g id="edge2" class="edge">
<title>Node115&#45;&gt;Node117</title>
<path fill="none" stroke="#191970" d="M77.0721,-22.5144C85.3439,-21.1236 94.1875,-19.6366 102.7859,-18.1909"/>
<polygon fill="#191970" stroke="#191970" points="103.4369,-21.6306 112.718,-16.5209 102.2761,-14.7275 103.4369,-21.6306"/>
</g>
</g>
</svg>
