<?xml version="1.0" encoding="UTF-8" standalone="no"?>
<!DOCTYPE svg PUBLIC "-//W3C//DTD SVG 1.1//EN"
 "http://www.w3.org/Graphics/SVG/1.1/DTD/svg11.dtd">
<!-- Generated by graphviz version 2.40.1 (20161225.0304)
 -->
<!-- Title: popMessage Pages: 1 -->
<svg width="219pt" height="66pt"
 viewBox="0.00 0.00 219.00 66.00" xmlns="http://www.w3.org/2000/svg" xmlns:xlink="http://www.w3.org/1999/xlink">
<g id="graph0" class="graph" transform="scale(1 1) rotate(0) translate(4 62)">
<title>popMessage</title>
<polygon fill="#ffffff" stroke="transparent" points="-4,4 -4,-62 215,-62 215,4 -4,4"/>
<!-- Node79 -->
<g id="node1" class="node">
<title>Node79</title>
<polygon fill="#bfbfbf" stroke="#000000" points="0,-19.5 0,-38.5 72,-38.5 72,-19.5 0,-19.5"/>
<text text-anchor="middle" x="36" y="-26.5" font-family="Helvetica,sans-Serif" font-size="10.00" fill="#000000">popMessage</text>
</g>
<!-- Node80 -->
<g id="node2" class="node">
<title>Node80</title>
<g id="a_node2"><a xlink:href="../../de/d27/_logger_8cpp.html#a16c9d4e11162a42fdf0c5a47f4797336" target="_top" xlink:title="lockLoggerQueue">
<polygon fill="#ffffff" stroke="#000000" points="113.5,-38.5 113.5,-57.5 205.5,-57.5 205.5,-38.5 113.5,-38.5"/>
<text text-anchor="middle" x="159.5" y="-45.5" font-family="Helvetica,sans-Serif" font-size="10.00" fill="#000000">lockLoggerQueue</text>
</a>
</g>
</g>
<!-- Node79&#45;&gt;Node80 -->
<g id="edge1" class="edge">
<title>Node79&#45;&gt;Node80</title>
<path fill="none" stroke="#191970" d="M72.0533,-34.5467C81.8729,-36.0574 92.7477,-37.7304 103.3966,-39.3687"/>
<polygon fill="#191970" stroke="#191970" points="103.0794,-42.861 113.4953,-40.9224 104.1438,-35.9424 103.0794,-42.861"/>
</g>
<!-- Node81 -->
<g id="node3" class="node">
<title>Node81</title>
<g id="a_node3"><a xlink:href="../../de/d27/_logger_8cpp.html#aa47defada9b881330abec76ff50b017c" target="_top" xlink:title="unlockLoggerQueue">
<polygon fill="#ffffff" stroke="#000000" points="108,-.5 108,-19.5 211,-19.5 211,-.5 108,-.5"/>
<text text-anchor="middle" x="159.5" y="-7.5" font-family="Helvetica,sans-Serif" font-size="10.00" fill="#000000">unlockLoggerQueue</text>
</a>
</g>
</g>
<!-- Node79&#45;&gt;Node81 -->
<g id="edge2" class="edge">
<title>Node79&#45;&gt;Node81</title>
<path fill="none" stroke="#191970" d="M72.0533,-23.4533C80.0362,-22.2252 88.7165,-20.8898 97.4059,-19.5529"/>
<polygon fill="#191970" stroke="#191970" points="98.218,-22.9693 107.5695,-17.9893 97.1535,-16.0507 98.218,-22.9693"/>
</g>
</g>
</svg>
