<?xml version="1.0" encoding="UTF-8" standalone="no"?>
<!DOCTYPE svg PUBLIC "-//W3C//DTD SVG 1.1//EN"
 "http://www.w3.org/Graphics/SVG/1.1/DTD/svg11.dtd">
<!-- Generated by graphviz version 2.40.1 (20161225.0304)
 -->
<!-- Title: writeMessage Pages: 1 -->
<svg width="513pt" height="66pt"
 viewBox="0.00 0.00 513.00 66.00" xmlns="http://www.w3.org/2000/svg" xmlns:xlink="http://www.w3.org/1999/xlink">
<g id="graph0" class="graph" transform="scale(1 1) rotate(0) translate(4 62)">
<title>writeMessage</title>
<polygon fill="#ffffff" stroke="transparent" points="-4,4 -4,-62 509,-62 509,4 -4,4"/>
<!-- Node118 -->
<g id="node1" class="node">
<title>Node118</title>
<polygon fill="#bfbfbf" stroke="#000000" points="0,-19.5 0,-38.5 77,-38.5 77,-19.5 0,-19.5"/>
<text text-anchor="middle" x="38.5" y="-26.5" font-family="Helvetica,sans-Serif" font-size="10.00" fill="#000000">writeMessage</text>
</g>
<!-- Node119 -->
<g id="node2" class="node">
<title>Node119</title>
<g id="a_node2"><a xlink:href="../../d3/de3/_logger_8hpp.html#a664f9cf48341e0b23122227e55a620b6" target="_top" xlink:title="function de&#45;initializes logger (writes all remaining message to stream a release resources) ...">
<polygon fill="#ffffff" stroke="#000000" points="124.5,-38.5 124.5,-57.5 196.5,-57.5 196.5,-38.5 124.5,-38.5"/>
<text text-anchor="middle" x="160.5" y="-45.5" font-family="Helvetica,sans-Serif" font-size="10.00" fill="#000000">logDestroy_f</text>
</a>
</g>
</g>
<!-- Node118&#45;&gt;Node119 -->
<g id="edge1" class="edge">
<title>Node118&#45;&gt;Node119</title>
<path fill="none" stroke="#191970" d="M87.2546,-36.5929C99.5924,-38.5144 112.6272,-40.5444 124.2263,-42.3508"/>
<polygon fill="#191970" stroke="#191970" points="87.5211,-33.0923 77.1016,-35.0117 86.4438,-40.0089 87.5211,-33.0923"/>
</g>
<!-- Node122 -->
<g id="node5" class="node">
<title>Node122</title>
<g id="a_node5"><a xlink:href="../../de/d27/_logger_8cpp.html#aa4df9360b15f4315ce68c9dc16bbd996" target="_top" xlink:title="loggerThreadBody">
<polygon fill="#ffffff" stroke="#000000" points="113,-.5 113,-19.5 208,-19.5 208,-.5 113,-.5"/>
<text text-anchor="middle" x="160.5" y="-7.5" font-family="Helvetica,sans-Serif" font-size="10.00" fill="#000000">loggerThreadBody</text>
</a>
</g>
</g>
<!-- Node118&#45;&gt;Node122 -->
<g id="edge4" class="edge">
<title>Node118&#45;&gt;Node122</title>
<path fill="none" stroke="#191970" d="M87.162,-21.4215C95.5802,-20.1105 104.3255,-18.7485 112.72,-17.4411"/>
<polygon fill="#191970" stroke="#191970" points="86.4438,-17.9911 77.1016,-22.9883 87.5211,-24.9077 86.4438,-17.9911"/>
</g>
<!-- Node120 -->
<g id="node3" class="node">
<title>Node120</title>
<g id="a_node3"><a xlink:href="../../df/d0a/main_8cpp.html#a0ae2256c09ff62743965e0e07f582b3f" target="_top" xlink:title="exitProcedure">
<polygon fill="#ffffff" stroke="#000000" points="354,-38.5 354,-57.5 431,-57.5 431,-38.5 354,-38.5"/>
<text text-anchor="middle" x="392.5" y="-45.5" font-family="Helvetica,sans-Serif" font-size="10.00" fill="#000000">exitProcedure</text>
</a>
</g>
</g>
<!-- Node119&#45;&gt;Node120 -->
<g id="edge2" class="edge">
<title>Node119&#45;&gt;Node120</title>
<path fill="none" stroke="#191970" d="M206.968,-48C250.0463,-48 313.4005,-48 353.799,-48"/>
<polygon fill="#191970" stroke="#191970" points="206.75,-44.5001 196.75,-48 206.75,-51.5001 206.75,-44.5001"/>
</g>
<!-- Node121 -->
<g id="node4" class="node">
<title>Node121</title>
<g id="a_node4"><a xlink:href="../../df/d0a/main_8cpp.html#a840291bc02cba5474a4cb46a9b9566fe" target="_top" xlink:title="main">
<polygon fill="#ffffff" stroke="#000000" points="467,-19.5 467,-38.5 505,-38.5 505,-19.5 467,-19.5"/>
<text text-anchor="middle" x="486" y="-26.5" font-family="Helvetica,sans-Serif" font-size="10.00" fill="#000000">main</text>
</a>
</g>
</g>
<!-- Node120&#45;&gt;Node121 -->
<g id="edge3" class="edge">
<title>Node120&#45;&gt;Node121</title>
<path fill="none" stroke="#191970" d="M441.0303,-38.1382C450.2386,-36.267 459.3547,-34.4145 466.9468,-32.8718"/>
<polygon fill="#191970" stroke="#191970" points="440.1725,-34.7409 431.0698,-40.1623 441.5666,-41.6007 440.1725,-34.7409"/>
</g>
<!-- Node123 -->
<g id="node6" class="node">
<title>Node123</title>
<g id="a_node6"><a xlink:href="../../d3/de3/_logger_8hpp.html#aeda367459d679e6d5d4476e7d7aa3963" target="_top" xlink:title="initialize logger for usage ">
<polygon fill="#ffffff" stroke="#000000" points="244,-.5 244,-19.5 318,-19.5 318,-.5 244,-.5"/>
<text text-anchor="middle" x="281" y="-7.5" font-family="Helvetica,sans-Serif" font-size="10.00" fill="#000000">logInitialize_f</text>
</a>
</g>
</g>
<!-- Node122&#45;&gt;Node123 -->
<g id="edge5" class="edge">
<title>Node122&#45;&gt;Node123</title>
<path fill="none" stroke="#191970" d="M218.2343,-10C226.9102,-10 235.6557,-10 243.7497,-10"/>
<polygon fill="#191970" stroke="#191970" points="218.1248,-6.5001 208.1248,-10 218.1248,-13.5001 218.1248,-6.5001"/>
</g>
<!-- Node124 -->
<g id="node7" class="node">
<title>Node124</title>
<g id="a_node7"><a xlink:href="../../df/d0a/main_8cpp.html#a59a5d10c3e8acb2a11dad76e5d644020" target="_top" xlink:title="initProcedure">
<polygon fill="#ffffff" stroke="#000000" points="355.5,-.5 355.5,-19.5 429.5,-19.5 429.5,-.5 355.5,-.5"/>
<text text-anchor="middle" x="392.5" y="-7.5" font-family="Helvetica,sans-Serif" font-size="10.00" fill="#000000">initProcedure</text>
</a>
</g>
</g>
<!-- Node123&#45;&gt;Node124 -->
<g id="edge6" class="edge">
<title>Node123&#45;&gt;Node124</title>
<path fill="none" stroke="#191970" d="M328.133,-10C337.1569,-10 346.4895,-10 355.1541,-10"/>
<polygon fill="#191970" stroke="#191970" points="328.1279,-6.5001 318.1279,-10 328.1279,-13.5001 328.1279,-6.5001"/>
</g>
<!-- Node124&#45;&gt;Node121 -->
<g id="edge7" class="edge">
<title>Node124&#45;&gt;Node121</title>
<path fill="none" stroke="#191970" d="M439.6972,-19.5909C449.326,-21.5475 458.9294,-23.499 466.8736,-25.1133"/>
<polygon fill="#191970" stroke="#191970" points="440.2191,-16.1255 429.7223,-17.5639 438.825,-22.9853 440.2191,-16.1255"/>
</g>
</g>
</svg>
