<?xml version="1.0" encoding="UTF-8" standalone="no"?>
<!DOCTYPE svg PUBLIC "-//W3C//DTD SVG 1.1//EN"
 "http://www.w3.org/Graphics/SVG/1.1/DTD/svg11.dtd">
<!-- Generated by graphviz version 2.40.1 (20161225.0304)
 -->
<!-- Title: src/deviceMonitor/storage/DataStorage.cpp Pages: 1 -->
<svg width="1266pt" height="263pt"
 viewBox="0.00 0.00 1265.50 263.00" xmlns="http://www.w3.org/2000/svg" xmlns:xlink="http://www.w3.org/1999/xlink">
<g id="graph0" class="graph" transform="scale(1 1) rotate(0) translate(4 259)">
<title>src/deviceMonitor/storage/DataStorage.cpp</title>
<polygon fill="#ffffff" stroke="transparent" points="-4,4 -4,-259 1261.5,-259 1261.5,4 -4,4"/>
<!-- Node0 -->
<g id="node1" class="node">
<title>Node0</title>
<polygon fill="#bfbfbf" stroke="#000000" points="830,-224.5 830,-254.5 959,-254.5 959,-224.5 830,-224.5"/>
<text text-anchor="start" x="838" y="-242.5" font-family="Helvetica,sans-Serif" font-size="10.00" fill="#000000">src/deviceMonitor/storage</text>
<text text-anchor="middle" x="894.5" y="-231.5" font-family="Helvetica,sans-Serif" font-size="10.00" fill="#000000">/DataStorage.cpp</text>
</g>
<!-- Node1 -->
<g id="node2" class="node">
<title>Node1</title>
<g id="a_node2"><a xlink:href="../../d7/d83/_data_storage_8hpp.html" target="_top" xlink:title="DataStorage.hpp">
<polygon fill="#ffffff" stroke="#000000" points="849.5,-168.5 849.5,-187.5 939.5,-187.5 939.5,-168.5 849.5,-168.5"/>
<text text-anchor="middle" x="894.5" y="-175.5" font-family="Helvetica,sans-Serif" font-size="10.00" fill="#000000">DataStorage.hpp</text>
</a>
</g>
</g>
<!-- Node0&#45;&gt;Node1 -->
<g id="edge1" class="edge">
<title>Node0&#45;&gt;Node1</title>
<path fill="none" stroke="#191970" d="M894.5,-224.2977C894.5,-216.3834 894.5,-206.6043 894.5,-198.0759"/>
<polygon fill="#191970" stroke="#191970" points="898.0001,-197.8469 894.5,-187.8469 891.0001,-197.847 898.0001,-197.8469"/>
</g>
<!-- Node2 -->
<g id="node3" class="node">
<title>Node2</title>
<g id="a_node3"><a xlink:href="../../d6/d8f/_abstract_a_p_i_8hpp.html" target="_top" xlink:title="../apis/AbstractAPI.hpp">
<polygon fill="#ffffff" stroke="#000000" points="610,-112.5 610,-131.5 729,-131.5 729,-112.5 610,-112.5"/>
<text text-anchor="middle" x="669.5" y="-119.5" font-family="Helvetica,sans-Serif" font-size="10.00" fill="#000000">../apis/AbstractAPI.hpp</text>
</a>
</g>
</g>
<!-- Node1&#45;&gt;Node2 -->
<g id="edge2" class="edge">
<title>Node1&#45;&gt;Node2</title>
<path fill="none" stroke="#191970" d="M856.0768,-168.4369C817.8125,-158.9133 758.9663,-144.2672 717.6151,-133.9753"/>
<polygon fill="#191970" stroke="#191970" points="718.3141,-130.5426 707.7647,-131.5237 716.6234,-137.3353 718.3141,-130.5426"/>
</g>
<!-- Node3 -->
<g id="node4" class="node">
<title>Node3</title>
<g id="a_node4"><a xlink:href="../../d3/de3/_logger_8hpp.html" target="_top" xlink:title="Logger.hpp">
<polygon fill="#ffffff" stroke="#000000" points="0,-56.5 0,-75.5 65,-75.5 65,-56.5 0,-56.5"/>
<text text-anchor="middle" x="32.5" y="-63.5" font-family="Helvetica,sans-Serif" font-size="10.00" fill="#000000">Logger.hpp</text>
</a>
</g>
</g>
<!-- Node1&#45;&gt;Node3 -->
<g id="edge20" class="edge">
<title>Node1&#45;&gt;Node3</title>
<path fill="none" stroke="#191970" d="M849.2487,-175.7994C725.5509,-169.6014 383.6014,-151.1964 272.5,-132 199.5042,-119.3876 116.6541,-94.0726 69.8772,-78.722"/>
<polygon fill="#191970" stroke="#191970" points="70.7745,-75.3323 60.1812,-75.5129 68.5749,-81.9778 70.7745,-75.3323"/>
</g>
<!-- Node6 -->
<g id="node7" class="node">
<title>Node6</title>
<polygon fill="#ffffff" stroke="#bfbfbf" points="83.5,-56.5 83.5,-75.5 135.5,-75.5 135.5,-56.5 83.5,-56.5"/>
<text text-anchor="middle" x="109.5" y="-63.5" font-family="Helvetica,sans-Serif" font-size="10.00" fill="#000000">memory</text>
</g>
<!-- Node1&#45;&gt;Node6 -->
<g id="edge24" class="edge">
<title>Node1&#45;&gt;Node6</title>
<path fill="none" stroke="#191970" d="M849.3432,-176.3984C758.2424,-172.6484 546.1528,-161.2899 370.5,-132 288.7671,-118.3711 195.0653,-91.966 145.1704,-77.0166"/>
<polygon fill="#191970" stroke="#191970" points="146.0849,-73.6367 135.5001,-74.0979 144.0622,-80.3381 146.0849,-73.6367"/>
</g>
<!-- Node7 -->
<g id="node8" class="node">
<title>Node7</title>
<polygon fill="#ffffff" stroke="#bfbfbf" points="153.5,-56.5 153.5,-75.5 197.5,-75.5 197.5,-56.5 153.5,-56.5"/>
<text text-anchor="middle" x="175.5" y="-63.5" font-family="Helvetica,sans-Serif" font-size="10.00" fill="#000000">mutex</text>
</g>
<!-- Node1&#45;&gt;Node7 -->
<g id="edge29" class="edge">
<title>Node1&#45;&gt;Node7</title>
<path fill="none" stroke="#191970" d="M849.1823,-174.5689C739.6065,-165.5757 451.9279,-137.7971 207.5282,-76.0301"/>
<polygon fill="#191970" stroke="#191970" points="208.3115,-72.6179 197.7566,-73.5363 206.5805,-79.4005 208.3115,-72.6179"/>
</g>
<!-- Node9 -->
<g id="node10" class="node">
<title>Node9</title>
<polygon fill="#ffffff" stroke="#bfbfbf" points="215.5,-56.5 215.5,-75.5 325.5,-75.5 325.5,-56.5 215.5,-56.5"/>
<text text-anchor="middle" x="270.5" y="-63.5" font-family="Helvetica,sans-Serif" font-size="10.00" fill="#000000">rapidjson/document.h</text>
</g>
<!-- Node1&#45;&gt;Node9 -->
<g id="edge25" class="edge">
<title>Node1&#45;&gt;Node9</title>
<path fill="none" stroke="#191970" d="M849.3234,-171.5361C791.5221,-163.1271 688.3638,-147.6529 600.5,-132 503.1761,-114.6618 390.3472,-91.4116 325.0227,-77.638"/>
<polygon fill="#191970" stroke="#191970" points="325.4636,-74.154 314.9561,-75.5112 324.0166,-81.0028 325.4636,-74.154"/>
</g>
<!-- Node11 -->
<g id="node12" class="node">
<title>Node11</title>
<polygon fill="#ffffff" stroke="#bfbfbf" points="807,-56.5 807,-75.5 944,-75.5 944,-56.5 807,-56.5"/>
<text text-anchor="middle" x="875.5" y="-63.5" font-family="Helvetica,sans-Serif" font-size="10.00" fill="#000000">rapidjson/ostreamwrapper.h</text>
</g>
<!-- Node1&#45;&gt;Node11 -->
<g id="edge26" class="edge">
<title>Node1&#45;&gt;Node11</title>
<path fill="none" stroke="#191970" d="M892.8801,-168.4509C889.7812,-150.184 882.9567,-109.9553 878.8416,-85.6976"/>
<polygon fill="#191970" stroke="#191970" points="882.2391,-84.7986 877.1158,-75.5249 875.3377,-85.9694 882.2391,-84.7986"/>
</g>
<!-- Node13 -->
<g id="node14" class="node">
<title>Node13</title>
<polygon fill="#ffffff" stroke="#bfbfbf" points="962,-56.5 962,-75.5 1053,-75.5 1053,-56.5 962,-56.5"/>
<text text-anchor="middle" x="1007.5" y="-63.5" font-family="Helvetica,sans-Serif" font-size="10.00" fill="#000000">rapidjson/writer.h</text>
</g>
<!-- Node1&#45;&gt;Node13 -->
<g id="edge27" class="edge">
<title>Node1&#45;&gt;Node13</title>
<path fill="none" stroke="#191970" d="M899.2587,-168.1557C906.2428,-154.4181 920.3211,-129.2468 937.5,-112 949.8406,-99.6107 966.0328,-88.711 979.7353,-80.6351"/>
<polygon fill="#191970" stroke="#191970" points="981.783,-83.4971 988.746,-75.5116 978.323,-77.4119 981.783,-83.4971"/>
</g>
<!-- Node14 -->
<g id="node15" class="node">
<title>Node14</title>
<polygon fill="#ffffff" stroke="#bfbfbf" points="1071.5,-56.5 1071.5,-75.5 1123.5,-75.5 1123.5,-56.5 1071.5,-56.5"/>
<text text-anchor="middle" x="1097.5" y="-63.5" font-family="Helvetica,sans-Serif" font-size="10.00" fill="#000000">sstream</text>
</g>
<!-- Node1&#45;&gt;Node14 -->
<g id="edge28" class="edge">
<title>Node1&#45;&gt;Node14</title>
<path fill="none" stroke="#191970" d="M903.4472,-168.2169C916.8246,-154.092 943.3806,-127.9371 970.5,-112 986.2349,-102.7532 1029.7865,-87.745 1061.5112,-77.4001"/>
<polygon fill="#191970" stroke="#191970" points="1062.9086,-80.6267 1071.3457,-74.2184 1060.7538,-73.9666 1062.9086,-80.6267"/>
</g>
<!-- Node17 -->
<g id="node18" class="node">
<title>Node17</title>
<g id="a_node18"><a xlink:href="../../d2/def/fnv_8hpp.html" target="_top" xlink:title="fnv.hpp">
<polygon fill="#ffffff" stroke="#000000" points="980,-112.5 980,-131.5 1029,-131.5 1029,-112.5 980,-112.5"/>
<text text-anchor="middle" x="1004.5" y="-119.5" font-family="Helvetica,sans-Serif" font-size="10.00" fill="#000000">fnv.hpp</text>
</a>
</g>
</g>
<!-- Node1&#45;&gt;Node17 -->
<g id="edge17" class="edge">
<title>Node1&#45;&gt;Node17</title>
<path fill="none" stroke="#191970" d="M913.6605,-168.2455C931.0111,-159.4125 956.7901,-146.2887 976.4583,-136.2758"/>
<polygon fill="#191970" stroke="#191970" points="978.2353,-139.2986 985.559,-131.6427 975.0595,-133.0605 978.2353,-139.2986"/>
</g>
<!-- Node18 -->
<g id="node19" class="node">
<title>Node18</title>
<polygon fill="#ffffff" stroke="#bfbfbf" points="1201.5,-56.5 1201.5,-75.5 1257.5,-75.5 1257.5,-56.5 1201.5,-56.5"/>
<text text-anchor="middle" x="1229.5" y="-63.5" font-family="Helvetica,sans-Serif" font-size="10.00" fill="#000000">cinttypes</text>
</g>
<!-- Node1&#45;&gt;Node18 -->
<g id="edge21" class="edge">
<title>Node1&#45;&gt;Node18</title>
<path fill="none" stroke="#191970" d="M930.3363,-168.4467C959.8576,-160.1294 1002.5555,-147.0633 1038.5,-132 1056.1021,-124.6235 1058.8353,-119.2254 1076.5,-112 1097.3564,-103.4691 1153.3712,-87.2369 1191.5135,-76.5158"/>
<polygon fill="#191970" stroke="#191970" points="1192.587,-79.8499 1201.2729,-73.7831 1190.6995,-73.1092 1192.587,-79.8499"/>
</g>
<!-- Node19 -->
<g id="node20" class="node">
<title>Node19</title>
<polygon fill="#ffffff" stroke="#bfbfbf" points="1085.5,-112.5 1085.5,-131.5 1139.5,-131.5 1139.5,-112.5 1085.5,-112.5"/>
<text text-anchor="middle" x="1112.5" y="-119.5" font-family="Helvetica,sans-Serif" font-size="10.00" fill="#000000">iostream</text>
</g>
<!-- Node1&#45;&gt;Node19 -->
<g id="edge22" class="edge">
<title>Node1&#45;&gt;Node19</title>
<path fill="none" stroke="#191970" d="M931.9755,-168.3733C972.1795,-158.0456 1035.6266,-141.7473 1075.605,-131.4776"/>
<polygon fill="#191970" stroke="#191970" points="1076.6662,-134.8187 1085.4809,-128.9407 1074.9246,-128.0388 1076.6662,-134.8187"/>
</g>
<!-- Node20 -->
<g id="node21" class="node">
<title>Node20</title>
<polygon fill="#ffffff" stroke="#bfbfbf" points="1158,-112.5 1158,-131.5 1193,-131.5 1193,-112.5 1158,-112.5"/>
<text text-anchor="middle" x="1175.5" y="-119.5" font-family="Helvetica,sans-Serif" font-size="10.00" fill="#000000">map</text>
</g>
<!-- Node1&#45;&gt;Node20 -->
<g id="edge23" class="edge">
<title>Node1&#45;&gt;Node20</title>
<path fill="none" stroke="#191970" d="M939.5378,-172.281C988.631,-165.5099 1069.5467,-152.7815 1147.8906,-131.7569"/>
<polygon fill="#191970" stroke="#191970" points="1149.203,-135.0266 1157.9261,-129.0135 1147.3571,-128.2744 1149.203,-135.0266"/>
</g>
<!-- Node2&#45;&gt;Node3 -->
<g id="edge3" class="edge">
<title>Node2&#45;&gt;Node3</title>
<path fill="none" stroke="#191970" d="M609.6024,-120.4678C503.7028,-117.0831 276.4316,-106.7873 75.5677,-75.9328"/>
<polygon fill="#191970" stroke="#191970" points="75.8375,-72.4327 65.4181,-74.3525 74.7606,-79.3493 75.8375,-72.4327"/>
</g>
<!-- Node5 -->
<g id="node6" class="node">
<title>Node5</title>
<polygon fill="#ffffff" stroke="#bfbfbf" points="677.5,-56.5 677.5,-75.5 727.5,-75.5 727.5,-56.5 677.5,-56.5"/>
<text text-anchor="middle" x="702.5" y="-63.5" font-family="Helvetica,sans-Serif" font-size="10.00" fill="#000000">fstream</text>
</g>
<!-- Node2&#45;&gt;Node5 -->
<g id="edge5" class="edge">
<title>Node2&#45;&gt;Node5</title>
<path fill="none" stroke="#191970" d="M675.2482,-112.2455C679.7435,-104.617 686.1248,-93.7881 691.5825,-84.5267"/>
<polygon fill="#191970" stroke="#191970" points="694.7561,-86.035 696.8177,-75.6427 688.7253,-82.4811 694.7561,-86.035"/>
</g>
<!-- Node2&#45;&gt;Node6 -->
<g id="edge6" class="edge">
<title>Node2&#45;&gt;Node6</title>
<path fill="none" stroke="#191970" d="M609.9536,-120.477C513.9418,-117.2137 318.9999,-107.2502 145.8063,-75.9287"/>
<polygon fill="#191970" stroke="#191970" points="146.2131,-72.4449 135.7453,-74.0803 144.9483,-79.3297 146.2131,-72.4449"/>
</g>
<!-- Node2&#45;&gt;Node7 -->
<g id="edge7" class="edge">
<title>Node2&#45;&gt;Node7</title>
<path fill="none" stroke="#191970" d="M609.7168,-117.6543C506.5569,-109.9001 298.2326,-93.0559 207.6358,-75.7848"/>
<polygon fill="#191970" stroke="#191970" points="208.1922,-72.3267 197.6984,-73.7865 206.8121,-79.1893 208.1922,-72.3267"/>
</g>
<!-- Node8 -->
<g id="node9" class="node">
<title>Node8</title>
<polygon fill="#ffffff" stroke="#bfbfbf" points="746,-56.5 746,-75.5 789,-75.5 789,-56.5 746,-56.5"/>
<text text-anchor="middle" x="767.5" y="-63.5" font-family="Helvetica,sans-Serif" font-size="10.00" fill="#000000">queue</text>
</g>
<!-- Node2&#45;&gt;Node8 -->
<g id="edge8" class="edge">
<title>Node2&#45;&gt;Node8</title>
<path fill="none" stroke="#191970" d="M686.5703,-112.2455C701.747,-103.5731 724.1621,-90.7645 741.5563,-80.825"/>
<polygon fill="#191970" stroke="#191970" points="743.6794,-83.643 750.6253,-75.6427 740.2064,-77.5653 743.6794,-83.643"/>
</g>
<!-- Node2&#45;&gt;Node9 -->
<g id="edge9" class="edge">
<title>Node2&#45;&gt;Node9</title>
<path fill="none" stroke="#191970" d="M609.8463,-114.1481C544.974,-105.533 437.9476,-91.0977 335.8314,-76.1755"/>
<polygon fill="#191970" stroke="#191970" points="336.05,-72.6702 325.6481,-74.6833 335.035,-79.5962 336.05,-72.6702"/>
</g>
<!-- Node10 -->
<g id="node11" class="node">
<title>Node10</title>
<polygon fill="#ffffff" stroke="#bfbfbf" points="343.5,-56.5 343.5,-75.5 477.5,-75.5 477.5,-56.5 343.5,-56.5"/>
<text text-anchor="middle" x="410.5" y="-63.5" font-family="Helvetica,sans-Serif" font-size="10.00" fill="#000000">rapidjson/istreamwrapper.h</text>
</g>
<!-- Node2&#45;&gt;Node10 -->
<g id="edge10" class="edge">
<title>Node2&#45;&gt;Node10</title>
<path fill="none" stroke="#191970" d="M625.2706,-112.4369C580.7585,-102.8127 512.051,-87.957 464.3831,-77.6504"/>
<polygon fill="#191970" stroke="#191970" points="465.0608,-74.2161 454.547,-75.5237 463.5814,-81.058 465.0608,-74.2161"/>
</g>
<!-- Node2&#45;&gt;Node11 -->
<g id="edge11" class="edge">
<title>Node2&#45;&gt;Node11</title>
<path fill="none" stroke="#191970" d="M704.9127,-112.3733C739.7605,-102.9001 793.0882,-88.4032 830.8293,-78.1435"/>
<polygon fill="#191970" stroke="#191970" points="831.8178,-81.5019 840.5494,-75.5011 829.9815,-74.747 831.8178,-81.5019"/>
</g>
<!-- Node12 -->
<g id="node13" class="node">
<title>Node12</title>
<polygon fill="#ffffff" stroke="#bfbfbf" points="496,-56.5 496,-75.5 597,-75.5 597,-56.5 496,-56.5"/>
<text text-anchor="middle" x="546.5" y="-63.5" font-family="Helvetica,sans-Serif" font-size="10.00" fill="#000000">rapidjson/schema.h</text>
</g>
<!-- Node2&#45;&gt;Node12 -->
<g id="edge12" class="edge">
<title>Node2&#45;&gt;Node12</title>
<path fill="none" stroke="#191970" d="M648.3555,-112.3733C628.6108,-103.3838 598.9302,-89.8706 576.6945,-79.7471"/>
<polygon fill="#191970" stroke="#191970" points="577.92,-76.4594 567.3685,-75.5011 575.0194,-82.8302 577.92,-76.4594"/>
</g>
<!-- Node2&#45;&gt;Node13 -->
<g id="edge13" class="edge">
<title>Node2&#45;&gt;Node13</title>
<path fill="none" stroke="#191970" d="M729.1812,-112.6316C784.3096,-103.9023 868.7509,-90.341 952.0108,-76.0595"/>
<polygon fill="#191970" stroke="#191970" points="952.6311,-79.5043 961.8931,-74.36 951.4446,-72.6056 952.6311,-79.5043"/>
</g>
<!-- Node2&#45;&gt;Node14 -->
<g id="edge14" class="edge">
<title>Node2&#45;&gt;Node14</title>
<path fill="none" stroke="#191970" d="M729.2257,-118.0302C804.6171,-112.3492 938.3433,-100.047 1061.2762,-75.9779"/>
<polygon fill="#191970" stroke="#191970" points="1062.1134,-79.38 1071.2386,-73.9964 1060.7479,-72.5145 1062.1134,-79.38"/>
</g>
<!-- Node15 -->
<g id="node16" class="node">
<title>Node15</title>
<polygon fill="#ffffff" stroke="#bfbfbf" points="1142,-56.5 1142,-75.5 1183,-75.5 1183,-56.5 1142,-56.5"/>
<text text-anchor="middle" x="1162.5" y="-63.5" font-family="Helvetica,sans-Serif" font-size="10.00" fill="#000000">string</text>
</g>
<!-- Node2&#45;&gt;Node15 -->
<g id="edge15" class="edge">
<title>Node2&#45;&gt;Node15</title>
<path fill="none" stroke="#191970" d="M729.3533,-120.3023C816.3121,-116.9034 982.5722,-106.8925 1131.8751,-75.6846"/>
<polygon fill="#191970" stroke="#191970" points="1132.631,-79.1022 1141.6839,-73.5981 1131.1745,-72.2554 1132.631,-79.1022"/>
</g>
<!-- Node16 -->
<g id="node17" class="node">
<title>Node16</title>
<polygon fill="#ffffff" stroke="#bfbfbf" points="615.5,-56.5 615.5,-75.5 659.5,-75.5 659.5,-56.5 615.5,-56.5"/>
<text text-anchor="middle" x="637.5" y="-63.5" font-family="Helvetica,sans-Serif" font-size="10.00" fill="#000000">thread</text>
</g>
<!-- Node2&#45;&gt;Node16 -->
<g id="edge16" class="edge">
<title>Node2&#45;&gt;Node16</title>
<path fill="none" stroke="#191970" d="M663.926,-112.2455C659.5669,-104.617 653.3789,-93.7881 648.0867,-84.5267"/>
<polygon fill="#191970" stroke="#191970" points="651.0104,-82.5886 643.0101,-75.6427 644.9327,-86.0616 651.0104,-82.5886"/>
</g>
<!-- Node4 -->
<g id="node5" class="node">
<title>Node4</title>
<polygon fill="#ffffff" stroke="#bfbfbf" points="9.5,-.5 9.5,-19.5 55.5,-19.5 55.5,-.5 9.5,-.5"/>
<text text-anchor="middle" x="32.5" y="-7.5" font-family="Helvetica,sans-Serif" font-size="10.00" fill="#000000">stdio.h</text>
</g>
<!-- Node3&#45;&gt;Node4 -->
<g id="edge4" class="edge">
<title>Node3&#45;&gt;Node4</title>
<path fill="none" stroke="#191970" d="M32.5,-56.2455C32.5,-48.9382 32.5,-38.6944 32.5,-29.7046"/>
<polygon fill="#191970" stroke="#191970" points="36.0001,-29.6426 32.5,-19.6427 29.0001,-29.6427 36.0001,-29.6426"/>
</g>
<!-- Node17&#45;&gt;Node15 -->
<g id="edge19" class="edge">
<title>Node17&#45;&gt;Node15</title>
<path fill="none" stroke="#191970" d="M1029.1875,-113.25C1056.9474,-103.4111 1102.0487,-87.4258 1131.9921,-76.8129"/>
<polygon fill="#191970" stroke="#191970" points="1133.2626,-80.076 1141.5188,-73.4364 1130.9241,-73.4782 1133.2626,-80.076"/>
</g>
<!-- Node17&#45;&gt;Node18 -->
<g id="edge18" class="edge">
<title>Node17&#45;&gt;Node18</title>
<path fill="none" stroke="#191970" d="M1029.2444,-115.6C1033.974,-114.3923 1038.8877,-113.1484 1043.5,-112 1106.6394,-96.2784 1124.8822,-93.155 1191.507,-76.2079"/>
<polygon fill="#191970" stroke="#191970" points="1192.4162,-79.5881 1201.2389,-73.7221 1190.6837,-72.8058 1192.4162,-79.5881"/>
</g>
</g>
</svg>
