<?xml version="1.0" encoding="UTF-8" standalone="no"?>
<!DOCTYPE svg PUBLIC "-//W3C//DTD SVG 1.1//EN"
 "http://www.w3.org/Graphics/SVG/1.1/DTD/svg11.dtd">
<!-- Generated by graphviz version 2.40.1 (20161225.0304)
 -->
<!-- Title: device_simulator.Device.__generate_temperature_measurement Pages: 1 -->
<svg width="296pt" height="50pt"
 viewBox="0.00 0.00 296.00 50.00" xmlns="http://www.w3.org/2000/svg" xmlns:xlink="http://www.w3.org/1999/xlink">
<g id="graph0" class="graph" transform="scale(1 1) rotate(0) translate(4 46)">
<title>device_simulator.Device.__generate_temperature_measurement</title>
<polygon fill="#ffffff" stroke="transparent" points="-4,4 -4,-46 292,-46 292,4 -4,4"/>
<!-- Node6 -->
<g id="node1" class="node">
<title>Node6</title>
<polygon fill="#bfbfbf" stroke="#000000" points="0,-.5 0,-41.5 127,-41.5 127,-.5 0,-.5"/>
<text text-anchor="start" x="8" y="-29.5" font-family="Helvetica,sans-Serif" font-size="10.00" fill="#000000">device_simulator.Device.</text>
<text text-anchor="start" x="8" y="-18.5" font-family="Helvetica,sans-Serif" font-size="10.00" fill="#000000">__generate_temperature</text>
<text text-anchor="middle" x="63.5" y="-7.5" font-family="Helvetica,sans-Serif" font-size="10.00" fill="#000000">_measurement</text>
</g>
<!-- Node7 -->
<g id="node2" class="node">
<title>Node7</title>
<g id="a_node2"><a xlink:href="../../df/d5b/namespacedevice__simulator.html#a62123025d5c9e9fb2f623db438487cc3" target="_top" xlink:title="device_simulator.random\l_boolean">
<polygon fill="#ffffff" stroke="#000000" points="163,-6 163,-36 288,-36 288,-6 163,-6"/>
<text text-anchor="start" x="171" y="-24" font-family="Helvetica,sans-Serif" font-size="10.00" fill="#000000">device_simulator.random</text>
<text text-anchor="middle" x="225.5" y="-13" font-family="Helvetica,sans-Serif" font-size="10.00" fill="#000000">_boolean</text>
</a>
</g>
</g>
<!-- Node6&#45;&gt;Node7 -->
<g id="edge1" class="edge">
<title>Node6&#45;&gt;Node7</title>
<path fill="none" stroke="#191970" d="M127.0617,-21C135.5354,-21 144.2765,-21 152.8896,-21"/>
<polygon fill="#191970" stroke="#191970" points="152.9182,-24.5001 162.9182,-21 152.9181,-17.5001 152.9182,-24.5001"/>
</g>
</g>
</svg>
