<?xml version="1.0" encoding="UTF-8" standalone="no"?>
<!DOCTYPE svg PUBLIC "-//W3C//DTD SVG 1.1//EN"
 "http://www.w3.org/Graphics/SVG/1.1/DTD/svg11.dtd">
<!-- Generated by graphviz version 2.40.1 (20161225.0304)
 -->
<!-- Title: device_simulator.Device.__generate_voltage_measurement Pages: 1 -->
<svg width="374pt" height="39pt"
 viewBox="0.00 0.00 374.00 39.00" xmlns="http://www.w3.org/2000/svg" xmlns:xlink="http://www.w3.org/1999/xlink">
<g id="graph0" class="graph" transform="scale(1 1) rotate(0) translate(4 35)">
<title>device_simulator.Device.__generate_voltage_measurement</title>
<polygon fill="#ffffff" stroke="transparent" points="-4,4 -4,-35 370,-35 370,4 -4,4"/>
<!-- Node12 -->
<g id="node1" class="node">
<title>Node12</title>
<polygon fill="#bfbfbf" stroke="#000000" points="0,-.5 0,-30.5 166,-30.5 166,-.5 0,-.5"/>
<text text-anchor="start" x="8" y="-18.5" font-family="Helvetica,sans-Serif" font-size="10.00" fill="#000000">device_simulator.Device.</text>
<text text-anchor="middle" x="83" y="-7.5" font-family="Helvetica,sans-Serif" font-size="10.00" fill="#000000">__generate_voltage_measurement</text>
</g>
<!-- Node13 -->
<g id="node2" class="node">
<title>Node13</title>
<g id="a_node2"><a xlink:href="../../df/d08/classdevice__simulator_1_1_device.html#adf7758acdc7d2e831cc3f9275abe9fcc" target="_top" xlink:title="device_simulator.Device.generate\l_message">
<polygon fill="#ffffff" stroke="#000000" points="202,-.5 202,-30.5 366,-30.5 366,-.5 202,-.5"/>
<text text-anchor="start" x="210" y="-18.5" font-family="Helvetica,sans-Serif" font-size="10.00" fill="#000000">device_simulator.Device.generate</text>
<text text-anchor="middle" x="284" y="-7.5" font-family="Helvetica,sans-Serif" font-size="10.00" fill="#000000">_message</text>
</a>
</g>
</g>
<!-- Node12&#45;&gt;Node13 -->
<g id="edge1" class="edge">
<title>Node12&#45;&gt;Node13</title>
<path fill="none" stroke="#191970" d="M176.4795,-15.5C184.9429,-15.5 193.473,-15.5 201.8283,-15.5"/>
<polygon fill="#191970" stroke="#191970" points="176.2053,-12.0001 166.2053,-15.5 176.2053,-19.0001 176.2053,-12.0001"/>
</g>
</g>
</svg>
