<?xml version="1.0" encoding="UTF-8" standalone="no"?>
<!DOCTYPE svg PUBLIC "-//W3C//DTD SVG 1.1//EN"
 "http://www.w3.org/Graphics/SVG/1.1/DTD/svg11.dtd">
<!-- Generated by graphviz version 2.40.1 (20161225.0304)
 -->
<!-- Title: device_simulator.Device.__generate_temperature_measurement Pages: 1 -->
<svg width="335pt" height="50pt"
 viewBox="0.00 0.00 335.00 50.00" xmlns="http://www.w3.org/2000/svg" xmlns:xlink="http://www.w3.org/1999/xlink">
<g id="graph0" class="graph" transform="scale(1 1) rotate(0) translate(4 46)">
<title>device_simulator.Device.__generate_temperature_measurement</title>
<polygon fill="#ffffff" stroke="transparent" points="-4,4 -4,-46 331,-46 331,4 -4,4"/>
<!-- Node8 -->
<g id="node1" class="node">
<title>Node8</title>
<polygon fill="#bfbfbf" stroke="#000000" points="0,-.5 0,-41.5 127,-41.5 127,-.5 0,-.5"/>
<text text-anchor="start" x="8" y="-29.5" font-family="Helvetica,sans-Serif" font-size="10.00" fill="#000000">device_simulator.Device.</text>
<text text-anchor="start" x="8" y="-18.5" font-family="Helvetica,sans-Serif" font-size="10.00" fill="#000000">__generate_temperature</text>
<text text-anchor="middle" x="63.5" y="-7.5" font-family="Helvetica,sans-Serif" font-size="10.00" fill="#000000">_measurement</text>
</g>
<!-- Node9 -->
<g id="node2" class="node">
<title>Node9</title>
<g id="a_node2"><a xlink:href="../../df/d08/classdevice__simulator_1_1_device.html#adf7758acdc7d2e831cc3f9275abe9fcc" target="_top" xlink:title="device_simulator.Device.generate\l_message">
<polygon fill="#ffffff" stroke="#000000" points="163,-6 163,-36 327,-36 327,-6 163,-6"/>
<text text-anchor="start" x="171" y="-24" font-family="Helvetica,sans-Serif" font-size="10.00" fill="#000000">device_simulator.Device.generate</text>
<text text-anchor="middle" x="245" y="-13" font-family="Helvetica,sans-Serif" font-size="10.00" fill="#000000">_message</text>
</a>
</g>
</g>
<!-- Node8&#45;&gt;Node9 -->
<g id="edge1" class="edge">
<title>Node8&#45;&gt;Node9</title>
<path fill="none" stroke="#191970" d="M137.3845,-21C145.8038,-21 154.4238,-21 162.9407,-21"/>
<polygon fill="#191970" stroke="#191970" points="137.2349,-17.5001 127.2349,-21 137.2349,-24.5001 137.2349,-17.5001"/>
</g>
</g>
</svg>
