<?xml version="1.0" encoding="UTF-8" standalone="no"?>
<!DOCTYPE svg PUBLIC "-//W3C//DTD SVG 1.1//EN"
 "http://www.w3.org/Graphics/SVG/1.1/DTD/svg11.dtd">
<!-- Generated by graphviz version 2.40.1 (20161225.0304)
 -->
<!-- Title: device_simulator.Device.__generate_current_measurement Pages: 1 -->
<svg width="372pt" height="39pt"
 viewBox="0.00 0.00 372.00 39.00" xmlns="http://www.w3.org/2000/svg" xmlns:xlink="http://www.w3.org/1999/xlink">
<g id="graph0" class="graph" transform="scale(1 1) rotate(0) translate(4 35)">
<title>device_simulator.Device.__generate_current_measurement</title>
<polygon fill="#ffffff" stroke="transparent" points="-4,4 -4,-35 368,-35 368,4 -4,4"/>
<!-- Node4 -->
<g id="node1" class="node">
<title>Node4</title>
<polygon fill="#bfbfbf" stroke="#000000" points="0,-.5 0,-30.5 164,-30.5 164,-.5 0,-.5"/>
<text text-anchor="start" x="8" y="-18.5" font-family="Helvetica,sans-Serif" font-size="10.00" fill="#000000">device_simulator.Device.</text>
<text text-anchor="middle" x="82" y="-7.5" font-family="Helvetica,sans-Serif" font-size="10.00" fill="#000000">__generate_current_measurement</text>
</g>
<!-- Node5 -->
<g id="node2" class="node">
<title>Node5</title>
<g id="a_node2"><a xlink:href="../../df/d08/classdevice__simulator_1_1_device.html#adf7758acdc7d2e831cc3f9275abe9fcc" target="_top" xlink:title="device_simulator.Device.generate\l_message">
<polygon fill="#ffffff" stroke="#000000" points="200,-.5 200,-30.5 364,-30.5 364,-.5 200,-.5"/>
<text text-anchor="start" x="208" y="-18.5" font-family="Helvetica,sans-Serif" font-size="10.00" fill="#000000">device_simulator.Device.generate</text>
<text text-anchor="middle" x="282" y="-7.5" font-family="Helvetica,sans-Serif" font-size="10.00" fill="#000000">_message</text>
</a>
</g>
</g>
<!-- Node4&#45;&gt;Node5 -->
<g id="edge1" class="edge">
<title>Node4&#45;&gt;Node5</title>
<path fill="none" stroke="#191970" d="M174.4658,-15.5C182.9136,-15.5 191.4335,-15.5 199.7826,-15.5"/>
<polygon fill="#191970" stroke="#191970" points="174.2135,-12.0001 164.2135,-15.5 174.2134,-19.0001 174.2135,-12.0001"/>
</g>
</g>
</svg>
