<?xml version="1.0" encoding="UTF-8" standalone="no"?>
<!DOCTYPE svg PUBLIC "-//W3C//DTD SVG 1.1//EN"
 "http://www.w3.org/Graphics/SVG/1.1/DTD/svg11.dtd">
<!-- Generated by graphviz version 2.40.1 (20161225.0304)
 -->
<!-- Title: device_simulator.Device.generate_message Pages: 1 -->
<!--zoomable 187 -->
<svg id="main" version="1.1" xmlns="http://www.w3.org/2000/svg" xmlns:xlink="http://www.w3.org/1999/xlink" xml:space="preserve" onload="init(evt)">
<style type="text/css"><![CDATA[
.edge:hover path { stroke: red; }
.edge:hover polygon { stroke: red; fill: red; }
]]></style>
<script type="text/javascript"><![CDATA[
var edges = document.getElementsByTagName('g');
if (edges && edges.length) {
  for (var i=0;i<edges.length;i++) {
    if (edges[i].id.substr(0,4)=='edge') {
      edges[i].setAttribute('class','edge');
    }
  }
}
]]></script>
        <defs>
                <circle id="rim" cx="0" cy="0" r="7"/>
                <circle id="rim2" cx="0" cy="0" r="3.5"/>
                <g id="zoomPlus">
                        <use xlink:href="#rim" fill="#404040">
                                <set attributeName="fill" to="#808080" begin="zoomplus.mouseover" end="zoomplus.mouseout"/>
                        </use>
                        <path d="M-4,0h8M0,-4v8" fill="none" stroke="white" stroke-width="1.5" pointer-events="none"/>
                </g>
                <g id="zoomMin">
                        <use xlink:href="#rim" fill="#404040">
                                <set attributeName="fill" to="#808080" begin="zoomminus.mouseover" end="zoomminus.mouseout"/>
                        </use>
                        <path d="M-4,0h8" fill="none" stroke="white" stroke-width="1.5" pointer-events="none"/>
                </g>
                <g id="dirArrow">
                        <path fill="none" stroke="white" stroke-width="1.5" d="M0,-3.0v7 M-2.5,-0.5L0,-3.0L2.5,-0.5"/>
                </g>
               <g id="resetDef">
                       <use xlink:href="#rim2" fill="#404040">
                               <set attributeName="fill" to="#808080" begin="reset.mouseover" end="reset.mouseout"/>
                       </use>
               </g>
        </defs>

<script type="text/javascript">
var viewWidth = 535;
var viewHeight = 187;
var sectionId = 'dynsection-6';
</script>
<script xlink:href="../../svgpan.js"/>
<svg id="graph" class="graph">
<g id="viewport">
<title>device_simulator.Device.generate_message</title>
<polygon fill="#ffffff" stroke="transparent" points="-4,4 -4,-183 531,-183 531,4 -4,4"/>
<!-- Node14 -->
<g id="node1" class="node">
<title>Node14</title>
<polygon fill="#bfbfbf" stroke="#000000" points="0,-79.5 0,-109.5 164,-109.5 164,-79.5 0,-79.5"/>
<text text-anchor="start" x="8" y="-97.5" font-family="Helvetica,sans-Serif" font-size="10.00" fill="#000000">device_simulator.Device.generate</text>
<text text-anchor="middle" x="82" y="-86.5" font-family="Helvetica,sans-Serif" font-size="10.00" fill="#000000">_message</text>
</g>
<!-- Node15 -->
<g id="node2" class="node">
<title>Node15</title>
<g id="a_node2"><a xlink:href="../../df/d08/classdevice__simulator_1_1_device.html#a05fef977bb7810e268f25b79cfedc9de" target="_top" xlink:title="device_simulator.Device.\l__generate_current_measurement">
<polygon fill="#ffffff" stroke="#000000" points="201,-148.5 201,-178.5 365,-178.5 365,-148.5 201,-148.5"/>
<text text-anchor="start" x="209" y="-166.5" font-family="Helvetica,sans-Serif" font-size="10.00" fill="#000000">device_simulator.Device.</text>
<text text-anchor="middle" x="283" y="-155.5" font-family="Helvetica,sans-Serif" font-size="10.00" fill="#000000">__generate_current_measurement</text>
</a>
</g>
</g>
<!-- Node14&#45;&gt;Node15 -->
<g id="edge1" class="edge">
<title>Node14&#45;&gt;Node15</title>
<path fill="none" stroke="#191970" d="M126.1103,-109.6423C156.4814,-120.0682 197.0109,-133.9814 229.2678,-145.0546"/>
<polygon fill="#191970" stroke="#191970" points="228.3979,-148.4564 238.9926,-148.393 230.6708,-141.8357 228.3979,-148.4564"/>
</g>
<!-- Node16 -->
<g id="node3" class="node">
<title>Node16</title>
<g id="a_node3"><a xlink:href="../../df/d5b/namespacedevice__simulator.html#a62123025d5c9e9fb2f623db438487cc3" target="_top" xlink:title="device_simulator.random\l_boolean">
<polygon fill="#ffffff" stroke="#000000" points="402,-79.5 402,-109.5 527,-109.5 527,-79.5 402,-79.5"/>
<text text-anchor="start" x="410" y="-97.5" font-family="Helvetica,sans-Serif" font-size="10.00" fill="#000000">device_simulator.random</text>
<text text-anchor="middle" x="464.5" y="-86.5" font-family="Helvetica,sans-Serif" font-size="10.00" fill="#000000">_boolean</text>
</a>
</g>
</g>
<!-- Node14&#45;&gt;Node16 -->
<g id="edge7" class="edge">
<title>Node14&#45;&gt;Node16</title>
<path fill="none" stroke="#191970" d="M164.1854,-99.2159C176.1946,-99.7489 188.4141,-100.2056 200,-100.5 273.754,-102.3739 292.2564,-102.7439 366,-100.5 374.3696,-100.2453 383.1336,-99.8692 391.8365,-99.4273"/>
<polygon fill="#191970" stroke="#191970" points="392.1996,-102.9129 401.9975,-98.8816 391.8241,-95.923 392.1996,-102.9129"/>
</g>
<!-- Node17 -->
<g id="node4" class="node">
<title>Node17</title>
<g id="a_node4"><a xlink:href="../../df/d08/classdevice__simulator_1_1_device.html#a5260bbe263665106b72ac295b5d50f53" target="_top" xlink:title="device_simulator.Device.\l__generate_temperature\l_measurement">
<polygon fill="#ffffff" stroke="#000000" points="219.5,-50 219.5,-91 346.5,-91 346.5,-50 219.5,-50"/>
<text text-anchor="start" x="227.5" y="-79" font-family="Helvetica,sans-Serif" font-size="10.00" fill="#000000">device_simulator.Device.</text>
<text text-anchor="start" x="227.5" y="-68" font-family="Helvetica,sans-Serif" font-size="10.00" fill="#000000">__generate_temperature</text>
<text text-anchor="middle" x="283" y="-57" font-family="Helvetica,sans-Serif" font-size="10.00" fill="#000000">_measurement</text>
</a>
</g>
</g>
<!-- Node14&#45;&gt;Node17 -->
<g id="edge3" class="edge">
<title>Node14&#45;&gt;Node17</title>
<path fill="none" stroke="#191970" d="M164.0443,-84.7037C179.0381,-82.9134 194.5994,-81.0553 209.3308,-79.2963"/>
<polygon fill="#191970" stroke="#191970" points="209.8652,-82.7575 219.3797,-78.0965 209.0352,-75.8068 209.8652,-82.7575"/>
</g>
<!-- Node18 -->
<g id="node5" class="node">
<title>Node18</title>
<g id="a_node5"><a xlink:href="../../df/d08/classdevice__simulator_1_1_device.html#afd28b25f2bfaf0a8826f5f4f78c1eec1" target="_top" xlink:title="device_simulator.Device.\l__generate_voltage_measurement">
<polygon fill="#ffffff" stroke="#000000" points="200,-.5 200,-30.5 366,-30.5 366,-.5 200,-.5"/>
<text text-anchor="start" x="208" y="-18.5" font-family="Helvetica,sans-Serif" font-size="10.00" fill="#000000">device_simulator.Device.</text>
<text text-anchor="middle" x="283" y="-7.5" font-family="Helvetica,sans-Serif" font-size="10.00" fill="#000000">__generate_voltage_measurement</text>
</a>
</g>
</g>
<!-- Node14&#45;&gt;Node18 -->
<g id="edge5" class="edge">
<title>Node14&#45;&gt;Node18</title>
<path fill="none" stroke="#191970" d="M112.0771,-79.3529C135.6395,-67.8267 169.4366,-52.0345 200,-40.5 206.2435,-38.1437 212.8145,-35.8536 219.412,-33.6775"/>
<polygon fill="#191970" stroke="#191970" points="220.6126,-36.968 229.0622,-30.5763 218.4709,-30.3037 220.6126,-36.968"/>
</g>
<!-- Node15&#45;&gt;Node16 -->
<g id="edge2" class="edge">
<title>Node15&#45;&gt;Node16</title>
<path fill="none" stroke="#191970" d="M325.315,-148.4837C338.3896,-143.7693 352.8168,-138.4911 366,-133.5 382.967,-127.0764 401.4828,-119.8128 417.8348,-113.3102"/>
<polygon fill="#191970" stroke="#191970" points="419.1924,-116.5369 427.1845,-109.5816 416.5994,-110.0349 419.1924,-116.5369"/>
</g>
<!-- Node17&#45;&gt;Node16 -->
<g id="edge4" class="edge">
<title>Node17&#45;&gt;Node16</title>
<path fill="none" stroke="#191970" d="M346.7349,-78.9278C361.2584,-80.8482 376.7977,-82.903 391.6684,-84.8694"/>
<polygon fill="#191970" stroke="#191970" points="391.4634,-88.3727 401.836,-86.2138 392.3811,-81.4331 391.4634,-88.3727"/>
</g>
<!-- Node18&#45;&gt;Node16 -->
<g id="edge6" class="edge">
<title>Node18&#45;&gt;Node16</title>
<path fill="none" stroke="#191970" d="M338.9285,-30.5954C348.0901,-33.5655 357.3953,-36.8922 366,-40.5 388.7201,-50.0262 413.0028,-63.3003 431.7733,-74.3035"/>
<polygon fill="#191970" stroke="#191970" points="430.1291,-77.3978 440.5141,-79.4964 433.7044,-71.3797 430.1291,-77.3978"/>
</g>
</g>
</svg>
        <g id="navigator" transform="translate(0 0)" fill="#404254">
                <rect fill="#f2f5e9" fill-opacity="0.5" stroke="#606060" stroke-width=".5" x="0" y="0" width="60" height="60"/>
                <use id="zoomplus" xlink:href="#zoomPlus" x="17" y="9" onmousedown="handleZoom(evt,'in')"/>
                <use id="zoomminus" xlink:href="#zoomMin" x="42" y="9" onmousedown="handleZoom(evt,'out')"/>
                <use id="reset" xlink:href="#resetDef" x="30" y="36" onmousedown="handleReset()"/>
                <g id="arrowUp" xlink:href="#dirArrow" transform="translate(30 24)" onmousedown="handlePan(0,-1)">
                  <use xlink:href="#rim" fill="#404040">
                        <set attributeName="fill" to="#808080" begin="arrowUp.mouseover" end="arrowUp.mouseout"/>
                  </use>
                  <path fill="none" stroke="white" stroke-width="1.5" d="M0,-3.0v7 M-2.5,-0.5L0,-3.0L2.5,-0.5"/>
                </g>
                <g id="arrowRight" xlink:href="#dirArrow" transform="rotate(90) translate(36 -43)" onmousedown="handlePan(1,0)">
                  <use xlink:href="#rim" fill="#404040">
                        <set attributeName="fill" to="#808080" begin="arrowRight.mouseover" end="arrowRight.mouseout"/>
                  </use>
                  <path fill="none" stroke="white" stroke-width="1.5" d="M0,-3.0v7 M-2.5,-0.5L0,-3.0L2.5,-0.5"/>
                </g>
                <g id="arrowDown" xlink:href="#dirArrow" transform="rotate(180) translate(-30 -48)" onmousedown="handlePan(0,1)">
                  <use xlink:href="#rim" fill="#404040">
                        <set attributeName="fill" to="#808080" begin="arrowDown.mouseover" end="arrowDown.mouseout"/>
                  </use>
                  <path fill="none" stroke="white" stroke-width="1.5" d="M0,-3.0v7 M-2.5,-0.5L0,-3.0L2.5,-0.5"/>
                </g>
                <g id="arrowLeft" xlink:href="#dirArrow" transform="rotate(270) translate(-36 17)" onmousedown="handlePan(-1,0)">
                  <use xlink:href="#rim" fill="#404040">
                        <set attributeName="fill" to="#808080" begin="arrowLeft.mouseover" end="arrowLeft.mouseout"/>
                  </use>
                  <path fill="none" stroke="white" stroke-width="1.5" d="M0,-3.0v7 M-2.5,-0.5L0,-3.0L2.5,-0.5"/>
                </g>
        </g>
        <svg viewBox="0 0 15 15" width="100%" height="30px" preserveAspectRatio="xMaxYMin meet">
         <g id="arrow_out" transform="scale(0.3 0.3)">
          <a xlink:href="classdevice__simulator_1_1_device_adf7758acdc7d2e831cc3f9275abe9fcc_cgraph_org.svg" target="_base">
           <rect id="button" ry="5" rx="5" y="6" x="6" height="38" width="38"
                fill="#f2f5e9" fill-opacity="0.5" stroke="#606060" stroke-width="1.0"/>
           <path id="arrow"
             d="M 11.500037,31.436501 C 11.940474,20.09759 22.043105,11.32322 32.158766,21.979434 L 37.068811,17.246167 C 37.068811,17.246167 37.088388,32 37.088388,32 L 22.160133,31.978069 C 22.160133,31.978069 26.997745,27.140456 26.997745,27.140456 C 18.528582,18.264221 13.291696,25.230495 11.500037,31.436501 z"
             style="fill:#404040;"/>
          </a>
         </g>
        </svg>
</svg>
