<?xml version="1.0" encoding="UTF-8" standalone="no"?>
<!DOCTYPE svg PUBLIC "-//W3C//DTD SVG 1.1//EN"
 "http://www.w3.org/Graphics/SVG/1.1/DTD/svg11.dtd">
<!-- Generated by graphviz version 2.40.1 (20161225.0304)
 -->
<!-- Title: sighandler::SignalHandler::isValidSignalNumber Pages: 1 -->
<svg width="464pt" height="176pt"
 viewBox="0.00 0.00 464.00 176.00" xmlns="http://www.w3.org/2000/svg" xmlns:xlink="http://www.w3.org/1999/xlink">
<g id="graph0" class="graph" transform="scale(1 1) rotate(0) translate(4 172)">
<title>sighandler::SignalHandler::isValidSignalNumber</title>
<polygon fill="#ffffff" stroke="transparent" points="-4,4 -4,-172 460,-172 460,4 -4,4"/>
<!-- Node12 -->
<g id="node1" class="node">
<title>Node12</title>
<polygon fill="#bfbfbf" stroke="#000000" points="0,-66.5 0,-96.5 128,-96.5 128,-66.5 0,-66.5"/>
<text text-anchor="start" x="8" y="-84.5" font-family="Helvetica,sans-Serif" font-size="10.00" fill="#000000">sighandler::SignalHandler</text>
<text text-anchor="middle" x="64" y="-73.5" font-family="Helvetica,sans-Serif" font-size="10.00" fill="#000000">::isValidSignalNumber</text>
</g>
<!-- Node13 -->
<g id="node2" class="node">
<title>Node13</title>
<g id="a_node2"><a xlink:href="../../d9/db5/classsighandler_1_1_signal_handler.html#abadc0a7a04c953a61bc3c807cdf94f70" target="_top" xlink:title="remove actual siignal handler and restore the previous ">
<polygon fill="#ffffff" stroke="#000000" points="164,-137.5 164,-167.5 292,-167.5 292,-137.5 164,-137.5"/>
<text text-anchor="start" x="172" y="-155.5" font-family="Helvetica,sans-Serif" font-size="10.00" fill="#000000">sighandler::SignalHandler</text>
<text text-anchor="middle" x="228" y="-144.5" font-family="Helvetica,sans-Serif" font-size="10.00" fill="#000000">::popHandler</text>
</a>
</g>
</g>
<!-- Node12&#45;&gt;Node13 -->
<g id="edge1" class="edge">
<title>Node12&#45;&gt;Node13</title>
<path fill="none" stroke="#191970" d="M103.5185,-100.9716C121.7731,-109.7335 143.8303,-119.9946 164,-128.5 171.2166,-131.5432 178.966,-134.6124 186.4939,-137.4921"/>
<polygon fill="#191970" stroke="#191970" points="104.8762,-97.7406 94.3492,-96.5437 101.8321,-104.0441 104.8762,-97.7406"/>
</g>
<!-- Node14 -->
<g id="node3" class="node">
<title>Node14</title>
<g id="a_node3"><a xlink:href="../../d9/db5/classsighandler_1_1_signal_handler.html#a77911d973919274e62f35e6226613213" target="_top" xlink:title="set neẃ signal handler saving the previoius one ">
<polygon fill="#ffffff" stroke="#000000" points="164,-88.5 164,-118.5 292,-118.5 292,-88.5 164,-88.5"/>
<text text-anchor="start" x="172" y="-106.5" font-family="Helvetica,sans-Serif" font-size="10.00" fill="#000000">sighandler::SignalHandler</text>
<text text-anchor="middle" x="228" y="-95.5" font-family="Helvetica,sans-Serif" font-size="10.00" fill="#000000">::pushHandler</text>
</a>
</g>
</g>
<!-- Node12&#45;&gt;Node14 -->
<g id="edge2" class="edge">
<title>Node12&#45;&gt;Node14</title>
<path fill="none" stroke="#191970" d="M138.2859,-91.4652C146.8158,-92.6094 155.4581,-93.7688 163.8391,-94.8931"/>
<polygon fill="#191970" stroke="#191970" points="138.723,-87.9926 128.3464,-90.1318 137.7923,-94.9304 138.723,-87.9926"/>
</g>
<!-- Node15 -->
<g id="node4" class="node">
<title>Node15</title>
<g id="a_node4"><a xlink:href="../../d9/db5/classsighandler_1_1_signal_handler.html#af6e92f781f1e28b01fa49b07060c0708" target="_top" xlink:title="set the same handler for all signals ">
<polygon fill="#ffffff" stroke="#000000" points="328,-66.5 328,-96.5 456,-96.5 456,-66.5 328,-66.5"/>
<text text-anchor="start" x="336" y="-84.5" font-family="Helvetica,sans-Serif" font-size="10.00" fill="#000000">sighandler::SignalHandler</text>
<text text-anchor="middle" x="392" y="-73.5" font-family="Helvetica,sans-Serif" font-size="10.00" fill="#000000">::setAllHandlers</text>
</a>
</g>
</g>
<!-- Node12&#45;&gt;Node15 -->
<g id="edge4" class="edge">
<title>Node12&#45;&gt;Node15</title>
<path fill="none" stroke="#191970" d="M138.1804,-79.851C146.8839,-79.7065 155.6383,-79.5836 164,-79.5 220.886,-78.9312 235.114,-78.9312 292,-79.5 303.6337,-79.6163 316.0275,-79.8088 327.9868,-80.0295"/>
<polygon fill="#191970" stroke="#191970" points="137.9502,-76.3544 128.0132,-80.0295 138.0731,-83.3533 137.9502,-76.3544"/>
</g>
<!-- Node16 -->
<g id="node5" class="node">
<title>Node16</title>
<g id="a_node5"><a xlink:href="../../d9/db5/classsighandler_1_1_signal_handler.html#ab48734d80766d73c85f0dfd9e3c332cc" target="_top" xlink:title="Construct a new Signal Handler object. ">
<polygon fill="#ffffff" stroke="#000000" points="164,-.5 164,-30.5 292,-30.5 292,-.5 164,-.5"/>
<text text-anchor="start" x="172" y="-18.5" font-family="Helvetica,sans-Serif" font-size="10.00" fill="#000000">sighandler::SignalHandler</text>
<text text-anchor="middle" x="228" y="-7.5" font-family="Helvetica,sans-Serif" font-size="10.00" fill="#000000">::SignalHandler</text>
</a>
</g>
</g>
<!-- Node12&#45;&gt;Node16 -->
<g id="edge5" class="edge">
<title>Node12&#45;&gt;Node16</title>
<path fill="none" stroke="#191970" d="M111.0067,-62.5827C136.2495,-52.424 166.9381,-40.0737 190.5502,-30.5713"/>
<polygon fill="#191970" stroke="#191970" points="109.5952,-59.3779 101.6249,-66.3583 112.2086,-65.8717 109.5952,-59.3779"/>
</g>
<!-- Node14&#45;&gt;Node15 -->
<g id="edge3" class="edge">
<title>Node14&#45;&gt;Node15</title>
<path fill="none" stroke="#191970" d="M302.2859,-93.5348C310.8158,-92.3906 319.4581,-91.2312 327.8391,-90.1069"/>
<polygon fill="#191970" stroke="#191970" points="301.7923,-90.0696 292.3464,-94.8682 302.723,-97.0074 301.7923,-90.0696"/>
</g>
</g>
</svg>
