<?xml version="1.0" encoding="UTF-8" standalone="no"?>
<!DOCTYPE svg PUBLIC "-//W3C//DTD SVG 1.1//EN"
 "http://www.w3.org/Graphics/SVG/1.1/DTD/svg11.dtd">
<!-- Generated by graphviz version 2.40.1 (20161225.0304)
 -->
<!-- Title: sighandler::SignalHandler::setAllHandlers Pages: 1 -->
<svg width="464pt" height="61pt"
 viewBox="0.00 0.00 464.00 61.00" xmlns="http://www.w3.org/2000/svg" xmlns:xlink="http://www.w3.org/1999/xlink">
<g id="graph0" class="graph" transform="scale(1 1) rotate(0) translate(4 57)">
<title>sighandler::SignalHandler::setAllHandlers</title>
<polygon fill="#ffffff" stroke="transparent" points="-4,4 -4,-57 460,-57 460,4 -4,4"/>
<!-- Node26 -->
<g id="node1" class="node">
<title>Node26</title>
<polygon fill="#bfbfbf" stroke="#000000" points="0,-22.5 0,-52.5 128,-52.5 128,-22.5 0,-22.5"/>
<text text-anchor="start" x="8" y="-40.5" font-family="Helvetica,sans-Serif" font-size="10.00" fill="#000000">sighandler::SignalHandler</text>
<text text-anchor="middle" x="64" y="-29.5" font-family="Helvetica,sans-Serif" font-size="10.00" fill="#000000">::setAllHandlers</text>
</g>
<!-- Node27 -->
<g id="node2" class="node">
<title>Node27</title>
<g id="a_node2"><a xlink:href="../../d9/db5/classsighandler_1_1_signal_handler.html#af2019408ee7ba2b36f1bf1fb61e64c16" target="_top" xlink:title="check if signal number is within correct boundaries and it is not unmaskable signals ...">
<polygon fill="#ffffff" stroke="#000000" points="328,-22.5 328,-52.5 456,-52.5 456,-22.5 328,-22.5"/>
<text text-anchor="start" x="336" y="-40.5" font-family="Helvetica,sans-Serif" font-size="10.00" fill="#000000">sighandler::SignalHandler</text>
<text text-anchor="middle" x="392" y="-29.5" font-family="Helvetica,sans-Serif" font-size="10.00" fill="#000000">::isValidSignalNumber</text>
</a>
</g>
</g>
<!-- Node26&#45;&gt;Node27 -->
<g id="edge1" class="edge">
<title>Node26&#45;&gt;Node27</title>
<path fill="none" stroke="#191970" d="M128.0097,-39.7058C139.9692,-40.0369 152.3641,-40.3255 164,-40.5 220.8825,-41.353 235.1175,-41.353 292,-40.5 300.3633,-40.3746 309.1187,-40.1902 317.8227,-39.9734"/>
<polygon fill="#191970" stroke="#191970" points="318.086,-43.4678 327.9903,-39.7058 317.9017,-36.4703 318.086,-43.4678"/>
</g>
<!-- Node28 -->
<g id="node3" class="node">
<title>Node28</title>
<g id="a_node3"><a xlink:href="../../d9/db5/classsighandler_1_1_signal_handler.html#a77911d973919274e62f35e6226613213" target="_top" xlink:title="set neẃ signal handler saving the previoius one ">
<polygon fill="#ffffff" stroke="#000000" points="164,-.5 164,-30.5 292,-30.5 292,-.5 164,-.5"/>
<text text-anchor="start" x="172" y="-18.5" font-family="Helvetica,sans-Serif" font-size="10.00" fill="#000000">sighandler::SignalHandler</text>
<text text-anchor="middle" x="228" y="-7.5" font-family="Helvetica,sans-Serif" font-size="10.00" fill="#000000">::pushHandler</text>
</a>
</g>
</g>
<!-- Node26&#45;&gt;Node28 -->
<g id="edge2" class="edge">
<title>Node26&#45;&gt;Node28</title>
<path fill="none" stroke="#191970" d="M128.3464,-28.8682C136.7313,-27.7434 145.3746,-26.5839 153.9029,-25.4399"/>
<polygon fill="#191970" stroke="#191970" points="154.3933,-28.9055 163.8391,-24.1069 153.4625,-21.9677 154.3933,-28.9055"/>
</g>
<!-- Node28&#45;&gt;Node27 -->
<g id="edge3" class="edge">
<title>Node28&#45;&gt;Node27</title>
<path fill="none" stroke="#191970" d="M292.3464,-24.1318C300.7313,-25.2566 309.3746,-26.4161 317.9029,-27.5601"/>
<polygon fill="#191970" stroke="#191970" points="317.4625,-31.0323 327.8391,-28.8931 318.3933,-24.0945 317.4625,-31.0323"/>
</g>
</g>
</svg>
