<?xml version="1.0" encoding="UTF-8" standalone="no"?>
<!DOCTYPE svg PUBLIC "-//W3C//DTD SVG 1.1//EN"
 "http://www.w3.org/Graphics/SVG/1.1/DTD/svg11.dtd">
<!-- Generated by graphviz version 2.40.1 (20161225.0304)
 -->
<!-- Title: sighandler::SignalHandler::get Pages: 1 -->
<svg width="339pt" height="28pt"
 viewBox="0.00 0.00 339.00 28.00" xmlns="http://www.w3.org/2000/svg" xmlns:xlink="http://www.w3.org/1999/xlink">
<g id="graph0" class="graph" transform="scale(1 1) rotate(0) translate(4 24)">
<title>sighandler::SignalHandler::get</title>
<polygon fill="#ffffff" stroke="transparent" points="-4,4 -4,-24 335,-24 335,4 -4,4"/>
<!-- Node8 -->
<g id="node1" class="node">
<title>Node8</title>
<polygon fill="#bfbfbf" stroke="#000000" points="0,-.5 0,-19.5 147,-19.5 147,-.5 0,-.5"/>
<text text-anchor="middle" x="73.5" y="-7.5" font-family="Helvetica,sans-Serif" font-size="10.00" fill="#000000">sighandler::SignalHandler::get</text>
</g>
<!-- Node9 -->
<g id="node2" class="node">
<title>Node9</title>
<g id="a_node2"><a xlink:href="../../df/d0a/main_8cpp.html#a59a5d10c3e8acb2a11dad76e5d644020" target="_top" xlink:title="initProcedure">
<polygon fill="#ffffff" stroke="#000000" points="183,-.5 183,-19.5 257,-19.5 257,-.5 183,-.5"/>
<text text-anchor="middle" x="220" y="-7.5" font-family="Helvetica,sans-Serif" font-size="10.00" fill="#000000">initProcedure</text>
</a>
</g>
</g>
<!-- Node8&#45;&gt;Node9 -->
<g id="edge1" class="edge">
<title>Node8&#45;&gt;Node9</title>
<path fill="none" stroke="#191970" d="M157.3167,-10C166.2409,-10 174.9514,-10 182.9032,-10"/>
<polygon fill="#191970" stroke="#191970" points="157.1792,-6.5001 147.1792,-10 157.1792,-13.5001 157.1792,-6.5001"/>
</g>
<!-- Node10 -->
<g id="node3" class="node">
<title>Node10</title>
<g id="a_node3"><a xlink:href="../../df/d0a/main_8cpp.html#a840291bc02cba5474a4cb46a9b9566fe" target="_top" xlink:title="main">
<polygon fill="#ffffff" stroke="#000000" points="293,-.5 293,-19.5 331,-19.5 331,-.5 293,-.5"/>
<text text-anchor="middle" x="312" y="-7.5" font-family="Helvetica,sans-Serif" font-size="10.00" fill="#000000">main</text>
</a>
</g>
</g>
<!-- Node9&#45;&gt;Node10 -->
<g id="edge2" class="edge">
<title>Node9&#45;&gt;Node10</title>
<path fill="none" stroke="#191970" d="M267.3389,-10C276.3996,-10 285.391,-10 292.9053,-10"/>
<polygon fill="#191970" stroke="#191970" points="267.1548,-6.5001 257.1547,-10 267.1547,-13.5001 267.1548,-6.5001"/>
</g>
</g>
</svg>
