<?xml version="1.0" encoding="UTF-8" standalone="no"?>
<!DOCTYPE svg PUBLIC "-//W3C//DTD SVG 1.1//EN"
 "http://www.w3.org/Graphics/SVG/1.1/DTD/svg11.dtd">
<!-- Generated by graphviz version 2.40.1 (20161225.0304)
 -->
<!-- Title: src/deviceMonitor/apis/AbstractAPI.cpp Pages: 1 -->
<svg width="1193pt" height="263pt"
 viewBox="0.00 0.00 1192.50 263.00" xmlns="http://www.w3.org/2000/svg" xmlns:xlink="http://www.w3.org/1999/xlink">
<g id="graph0" class="graph" transform="scale(1 1) rotate(0) translate(4 259)">
<title>src/deviceMonitor/apis/AbstractAPI.cpp</title>
<polygon fill="#ffffff" stroke="transparent" points="-4,4 -4,-259 1188.5,-259 1188.5,4 -4,4"/>
<!-- Node0 -->
<g id="node1" class="node">
<title>Node0</title>
<polygon fill="#bfbfbf" stroke="#000000" points="538.5,-224.5 538.5,-254.5 653.5,-254.5 653.5,-224.5 538.5,-224.5"/>
<text text-anchor="start" x="546.5" y="-242.5" font-family="Helvetica,sans-Serif" font-size="10.00" fill="#000000">src/deviceMonitor/apis</text>
<text text-anchor="middle" x="596" y="-231.5" font-family="Helvetica,sans-Serif" font-size="10.00" fill="#000000">/AbstractAPI.cpp</text>
</g>
<!-- Node1 -->
<g id="node2" class="node">
<title>Node1</title>
<g id="a_node2"><a xlink:href="../../d6/d8f/_abstract_a_p_i_8hpp.html" target="_top" xlink:title="AbstractAPI.hpp">
<polygon fill="#ffffff" stroke="#000000" points="496.5,-112.5 496.5,-131.5 585.5,-131.5 585.5,-112.5 496.5,-112.5"/>
<text text-anchor="middle" x="541" y="-119.5" font-family="Helvetica,sans-Serif" font-size="10.00" fill="#000000">AbstractAPI.hpp</text>
</a>
</g>
</g>
<!-- Node0&#45;&gt;Node1 -->
<g id="edge1" class="edge">
<title>Node0&#45;&gt;Node1</title>
<path fill="none" stroke="#191970" d="M581.4357,-224.4645C572.8262,-214.7783 562.3911,-201.5082 556,-188 549.09,-173.3952 545.2755,-155.439 543.2248,-141.9449"/>
<polygon fill="#191970" stroke="#191970" points="546.6682,-141.2858 541.8878,-131.8308 539.7286,-142.2033 546.6682,-141.2858"/>
</g>
<!-- Node16 -->
<g id="node17" class="node">
<title>Node16</title>
<g id="a_node17"><a xlink:href="../../d8/dc9/_message_processor_8hpp.html" target="_top" xlink:title="../middleware/MessageProcessor.hpp">
<polygon fill="#ffffff" stroke="#000000" points="565.5,-168.5 565.5,-187.5 746.5,-187.5 746.5,-168.5 565.5,-168.5"/>
<text text-anchor="middle" x="656" y="-175.5" font-family="Helvetica,sans-Serif" font-size="10.00" fill="#000000">../middleware/MessageProcessor.hpp</text>
</a>
</g>
</g>
<!-- Node0&#45;&gt;Node16 -->
<g id="edge16" class="edge">
<title>Node0&#45;&gt;Node16</title>
<path fill="none" stroke="#191970" d="M610.8315,-224.2977C619.4204,-215.4941 630.2602,-204.3833 639.1679,-195.2529"/>
<polygon fill="#191970" stroke="#191970" points="641.9152,-197.4489 646.3932,-187.8469 636.9047,-192.5606 641.9152,-197.4489"/>
</g>
<!-- Node2 -->
<g id="node3" class="node">
<title>Node2</title>
<g id="a_node3"><a xlink:href="../../d3/de3/_logger_8hpp.html" target="_top" xlink:title="Logger.hpp">
<polygon fill="#ffffff" stroke="#000000" points="190.5,-56.5 190.5,-75.5 255.5,-75.5 255.5,-56.5 190.5,-56.5"/>
<text text-anchor="middle" x="223" y="-63.5" font-family="Helvetica,sans-Serif" font-size="10.00" fill="#000000">Logger.hpp</text>
</a>
</g>
</g>
<!-- Node1&#45;&gt;Node2 -->
<g id="edge2" class="edge">
<title>Node1&#45;&gt;Node2</title>
<path fill="none" stroke="#191970" d="M496.3715,-115.5254C443.6319,-107.6606 353.0291,-93.4817 265.3561,-75.958"/>
<polygon fill="#191970" stroke="#191970" points="266.0052,-72.5185 255.5107,-73.9733 264.6218,-79.3804 266.0052,-72.5185"/>
</g>
<!-- Node4 -->
<g id="node5" class="node">
<title>Node4</title>
<polygon fill="#ffffff" stroke="#bfbfbf" points="274,-56.5 274,-75.5 324,-75.5 324,-56.5 274,-56.5"/>
<text text-anchor="middle" x="299" y="-63.5" font-family="Helvetica,sans-Serif" font-size="10.00" fill="#000000">fstream</text>
</g>
<!-- Node1&#45;&gt;Node4 -->
<g id="edge4" class="edge">
<title>Node1&#45;&gt;Node4</title>
<path fill="none" stroke="#191970" d="M496.158,-113.0079C456.0366,-104.7553 395.4189,-91.7792 334.0505,-76.1504"/>
<polygon fill="#191970" stroke="#191970" points="334.7542,-72.7176 324.1978,-73.6196 333.0126,-79.4975 334.7542,-72.7176"/>
</g>
<!-- Node5 -->
<g id="node6" class="node">
<title>Node5</title>
<polygon fill="#ffffff" stroke="#bfbfbf" points="342,-56.5 342,-75.5 394,-75.5 394,-56.5 342,-56.5"/>
<text text-anchor="middle" x="368" y="-63.5" font-family="Helvetica,sans-Serif" font-size="10.00" fill="#000000">memory</text>
</g>
<!-- Node1&#45;&gt;Node5 -->
<g id="edge5" class="edge">
<title>Node1&#45;&gt;Node5</title>
<path fill="none" stroke="#191970" d="M511.2602,-112.3733C481.5341,-102.7509 435.7958,-87.9455 404.0275,-77.6621"/>
<polygon fill="#191970" stroke="#191970" points="404.8338,-74.2443 394.2419,-74.4945 402.678,-80.9041 404.8338,-74.2443"/>
</g>
<!-- Node6 -->
<g id="node7" class="node">
<title>Node6</title>
<polygon fill="#ffffff" stroke="#bfbfbf" points="0,-56.5 0,-75.5 44,-75.5 44,-56.5 0,-56.5"/>
<text text-anchor="middle" x="22" y="-63.5" font-family="Helvetica,sans-Serif" font-size="10.00" fill="#000000">mutex</text>
</g>
<!-- Node1&#45;&gt;Node6 -->
<g id="edge6" class="edge">
<title>Node1&#45;&gt;Node6</title>
<path fill="none" stroke="#191970" d="M496.4463,-121.04C411.7374,-118.5179 221.6877,-109.5181 54.1782,-75.8424"/>
<polygon fill="#191970" stroke="#191970" points="54.6941,-72.3755 44.1955,-73.8003 53.2912,-79.2335 54.6941,-72.3755"/>
</g>
<!-- Node7 -->
<g id="node8" class="node">
<title>Node7</title>
<polygon fill="#ffffff" stroke="#bfbfbf" points="412.5,-56.5 412.5,-75.5 455.5,-75.5 455.5,-56.5 412.5,-56.5"/>
<text text-anchor="middle" x="434" y="-63.5" font-family="Helvetica,sans-Serif" font-size="10.00" fill="#000000">queue</text>
</g>
<!-- Node1&#45;&gt;Node7 -->
<g id="edge7" class="edge">
<title>Node1&#45;&gt;Node7</title>
<path fill="none" stroke="#191970" d="M522.362,-112.2455C505.5614,-103.4527 480.6366,-90.4079 461.5382,-80.4125"/>
<polygon fill="#191970" stroke="#191970" points="462.9073,-77.1787 452.4244,-75.6427 459.6614,-83.3807 462.9073,-77.1787"/>
</g>
<!-- Node8 -->
<g id="node9" class="node">
<title>Node8</title>
<polygon fill="#ffffff" stroke="#bfbfbf" points="62,-56.5 62,-75.5 172,-75.5 172,-56.5 62,-56.5"/>
<text text-anchor="middle" x="117" y="-63.5" font-family="Helvetica,sans-Serif" font-size="10.00" fill="#000000">rapidjson/document.h</text>
</g>
<!-- Node1&#45;&gt;Node8 -->
<g id="edge8" class="edge">
<title>Node1&#45;&gt;Node8</title>
<path fill="none" stroke="#191970" d="M496.3282,-116.6985C430.0876,-108.7479 301.6507,-92.9905 182.1951,-76.1397"/>
<polygon fill="#191970" stroke="#191970" points="182.5354,-72.6531 172.1434,-74.7162 181.5538,-79.5839 182.5354,-72.6531"/>
</g>
<!-- Node9 -->
<g id="node10" class="node">
<title>Node9</title>
<polygon fill="#ffffff" stroke="#bfbfbf" points="474,-56.5 474,-75.5 608,-75.5 608,-56.5 474,-56.5"/>
<text text-anchor="middle" x="541" y="-63.5" font-family="Helvetica,sans-Serif" font-size="10.00" fill="#000000">rapidjson/istreamwrapper.h</text>
</g>
<!-- Node1&#45;&gt;Node9 -->
<g id="edge9" class="edge">
<title>Node1&#45;&gt;Node9</title>
<path fill="none" stroke="#191970" d="M541,-112.2455C541,-104.9382 541,-94.6944 541,-85.7046"/>
<polygon fill="#191970" stroke="#191970" points="544.5001,-85.6426 541,-75.6427 537.5001,-85.6427 544.5001,-85.6426"/>
</g>
<!-- Node10 -->
<g id="node11" class="node">
<title>Node10</title>
<polygon fill="#ffffff" stroke="#bfbfbf" points="938.5,-56.5 938.5,-75.5 1075.5,-75.5 1075.5,-56.5 938.5,-56.5"/>
<text text-anchor="middle" x="1007" y="-63.5" font-family="Helvetica,sans-Serif" font-size="10.00" fill="#000000">rapidjson/ostreamwrapper.h</text>
</g>
<!-- Node1&#45;&gt;Node10 -->
<g id="edge10" class="edge">
<title>Node1&#45;&gt;Node10</title>
<path fill="none" stroke="#191970" d="M585.6815,-116.5162C597.79,-115.0396 610.8962,-113.45 623,-112 755.7791,-96.0933 791.4298,-92.8552 928.0849,-76.1025"/>
<polygon fill="#191970" stroke="#191970" points="928.6025,-79.5654 938.1014,-74.8726 927.7493,-72.6175 928.6025,-79.5654"/>
</g>
<!-- Node11 -->
<g id="node12" class="node">
<title>Node11</title>
<polygon fill="#ffffff" stroke="#bfbfbf" points="626.5,-56.5 626.5,-75.5 727.5,-75.5 727.5,-56.5 626.5,-56.5"/>
<text text-anchor="middle" x="677" y="-63.5" font-family="Helvetica,sans-Serif" font-size="10.00" fill="#000000">rapidjson/schema.h</text>
</g>
<!-- Node1&#45;&gt;Node11 -->
<g id="edge11" class="edge">
<title>Node1&#45;&gt;Node11</title>
<path fill="none" stroke="#191970" d="M564.3792,-112.3733C586.5045,-103.2629 619.9134,-89.5062 644.6019,-79.3404"/>
<polygon fill="#191970" stroke="#191970" points="646.0117,-82.5451 653.9258,-75.5011 643.3464,-76.0723 646.0117,-82.5451"/>
</g>
<!-- Node12 -->
<g id="node13" class="node">
<title>Node12</title>
<polygon fill="#ffffff" stroke="#bfbfbf" points="1093.5,-56.5 1093.5,-75.5 1184.5,-75.5 1184.5,-56.5 1093.5,-56.5"/>
<text text-anchor="middle" x="1139" y="-63.5" font-family="Helvetica,sans-Serif" font-size="10.00" fill="#000000">rapidjson/writer.h</text>
</g>
<!-- Node1&#45;&gt;Node12 -->
<g id="edge12" class="edge">
<title>Node1&#45;&gt;Node12</title>
<path fill="none" stroke="#191970" d="M585.7296,-118.2768C704.1573,-108.4121 1020.6395,-82.0016 1083.4129,-75.8456"/>
<polygon fill="#191970" stroke="#191970" points="1083.8167,-79.3224 1093.3857,-74.7745 1083.0691,-72.3624 1083.8167,-79.3224"/>
</g>
<!-- Node13 -->
<g id="node14" class="node">
<title>Node13</title>
<polygon fill="#ffffff" stroke="#bfbfbf" points="746,-56.5 746,-75.5 798,-75.5 798,-56.5 746,-56.5"/>
<text text-anchor="middle" x="772" y="-63.5" font-family="Helvetica,sans-Serif" font-size="10.00" fill="#000000">sstream</text>
</g>
<!-- Node1&#45;&gt;Node13 -->
<g id="edge13" class="edge">
<title>Node1&#45;&gt;Node13</title>
<path fill="none" stroke="#191970" d="M584.3539,-112.45C621.9903,-104.0194 678.1741,-91.1006 735.6744,-76.2641"/>
<polygon fill="#191970" stroke="#191970" points="736.8642,-79.5713 745.6636,-73.6705 735.1049,-72.796 736.8642,-79.5713"/>
</g>
<!-- Node14 -->
<g id="node15" class="node">
<title>Node14</title>
<polygon fill="#ffffff" stroke="#bfbfbf" points="816.5,-56.5 816.5,-75.5 857.5,-75.5 857.5,-56.5 816.5,-56.5"/>
<text text-anchor="middle" x="837" y="-63.5" font-family="Helvetica,sans-Serif" font-size="10.00" fill="#000000">string</text>
</g>
<!-- Node1&#45;&gt;Node14 -->
<g id="edge14" class="edge">
<title>Node1&#45;&gt;Node14</title>
<path fill="none" stroke="#191970" d="M585.6701,-116.369C636.8429,-109.4565 723.2897,-96.372 806.5868,-75.7797"/>
<polygon fill="#191970" stroke="#191970" points="807.6179,-79.1295 816.4637,-73.2983 805.9123,-72.3404 807.6179,-79.1295"/>
</g>
<!-- Node15 -->
<g id="node16" class="node">
<title>Node15</title>
<polygon fill="#ffffff" stroke="#bfbfbf" points="876,-56.5 876,-75.5 920,-75.5 920,-56.5 876,-56.5"/>
<text text-anchor="middle" x="898" y="-63.5" font-family="Helvetica,sans-Serif" font-size="10.00" fill="#000000">thread</text>
</g>
<!-- Node1&#45;&gt;Node15 -->
<g id="edge15" class="edge">
<title>Node1&#45;&gt;Node15</title>
<path fill="none" stroke="#191970" d="M585.6293,-116.1369C662.3323,-106.0009 815.1343,-85.5313 865.6831,-75.7972"/>
<polygon fill="#191970" stroke="#191970" points="866.7116,-79.1575 875.7769,-73.6739 865.2706,-72.3074 866.7116,-79.1575"/>
</g>
<!-- Node3 -->
<g id="node4" class="node">
<title>Node3</title>
<polygon fill="#ffffff" stroke="#bfbfbf" points="200,-.5 200,-19.5 246,-19.5 246,-.5 200,-.5"/>
<text text-anchor="middle" x="223" y="-7.5" font-family="Helvetica,sans-Serif" font-size="10.00" fill="#000000">stdio.h</text>
</g>
<!-- Node2&#45;&gt;Node3 -->
<g id="edge3" class="edge">
<title>Node2&#45;&gt;Node3</title>
<path fill="none" stroke="#191970" d="M223,-56.2455C223,-48.9382 223,-38.6944 223,-29.7046"/>
<polygon fill="#191970" stroke="#191970" points="226.5001,-29.6426 223,-19.6427 219.5001,-29.6427 226.5001,-29.6426"/>
</g>
<!-- Node16&#45;&gt;Node1 -->
<g id="edge17" class="edge">
<title>Node16&#45;&gt;Node1</title>
<path fill="none" stroke="#191970" d="M636.2308,-168.3733C617.8531,-159.4241 590.2688,-145.9917 569.5107,-135.8835"/>
<polygon fill="#191970" stroke="#191970" points="571.0343,-132.7325 560.5112,-131.5011 567.9696,-139.026 571.0343,-132.7325"/>
</g>
<!-- Node16&#45;&gt;Node6 -->
<g id="edge20" class="edge">
<title>Node16&#45;&gt;Node6</title>
<path fill="none" stroke="#191970" d="M574.1713,-168.4517C459.3755,-154.1066 244.1946,-123.7466 54.1429,-76.0533"/>
<polygon fill="#191970" stroke="#191970" points="54.8063,-72.6109 44.2531,-73.5499 53.0885,-79.3969 54.8063,-72.6109"/>
</g>
<!-- Node16&#45;&gt;Node8 -->
<g id="edge21" class="edge">
<title>Node16&#45;&gt;Node8</title>
<path fill="none" stroke="#191970" d="M610.0452,-168.4509C511.3952,-147.9522 279.6523,-99.7979 172.7823,-77.5911"/>
<polygon fill="#191970" stroke="#191970" points="173.3415,-74.1326 162.8385,-75.5249 171.9173,-80.9862 173.3415,-74.1326"/>
</g>
<!-- Node16&#45;&gt;Node10 -->
<g id="edge22" class="edge">
<title>Node16&#45;&gt;Node10</title>
<path fill="none" stroke="#191970" d="M653.4111,-168.4543C650.1685,-154.1464 646.6357,-127.2006 661,-112 662.1486,-110.7845 826.4031,-89.3509 928.1579,-76.1753"/>
<polygon fill="#191970" stroke="#191970" points="928.6388,-79.6424 938.1068,-74.8876 927.7403,-72.7003 928.6388,-79.6424"/>
</g>
<!-- Node16&#45;&gt;Node12 -->
<g id="edge23" class="edge">
<title>Node16&#45;&gt;Node12</title>
<path fill="none" stroke="#191970" d="M658.61,-168.3839C663.215,-153.4661 674.3111,-125.1029 695,-112 766.0158,-67.0235 983.2301,-86.4787 1083.2188,-75.9809"/>
<polygon fill="#191970" stroke="#191970" points="1083.8759,-79.427 1093.3823,-74.7496 1083.0339,-72.4778 1083.8759,-79.427"/>
</g>
<!-- Node17 -->
<g id="node18" class="node">
<title>Node17</title>
<polygon fill="#ffffff" stroke="#bfbfbf" points="703.5,-112.5 703.5,-131.5 798.5,-131.5 798.5,-112.5 703.5,-112.5"/>
<text text-anchor="middle" x="751" y="-119.5" font-family="Helvetica,sans-Serif" font-size="10.00" fill="#000000">condition_variable</text>
</g>
<!-- Node16&#45;&gt;Node17 -->
<g id="edge18" class="edge">
<title>Node16&#45;&gt;Node17</title>
<path fill="none" stroke="#191970" d="M672.5477,-168.2455C687.2599,-159.5731 708.9888,-146.7645 725.8505,-136.825"/>
<polygon fill="#191970" stroke="#191970" points="727.8046,-139.736 734.6419,-131.6427 724.2498,-133.7057 727.8046,-139.736"/>
</g>
<!-- Node18 -->
<g id="node19" class="node">
<title>Node18</title>
<polygon fill="#ffffff" stroke="#bfbfbf" points="817,-112.5 817,-131.5 871,-131.5 871,-112.5 817,-112.5"/>
<text text-anchor="middle" x="844" y="-119.5" font-family="Helvetica,sans-Serif" font-size="10.00" fill="#000000">iostream</text>
</g>
<!-- Node16&#45;&gt;Node18 -->
<g id="edge19" class="edge">
<title>Node16&#45;&gt;Node18</title>
<path fill="none" stroke="#191970" d="M688.3184,-168.3733C721.3794,-158.5253 772.6664,-143.2483 807.2518,-132.9463"/>
<polygon fill="#191970" stroke="#191970" points="808.3873,-136.2601 816.972,-130.0509 806.3889,-129.5514 808.3873,-136.2601"/>
</g>
</g>
</svg>
