<?xml version="1.0" encoding="UTF-8" standalone="no"?>
<!DOCTYPE svg PUBLIC "-//W3C//DTD SVG 1.1//EN"
 "http://www.w3.org/Graphics/SVG/1.1/DTD/svg11.dtd">
<!-- Generated by graphviz version 2.40.1 (20161225.0304)
 -->
<!-- Title: AbstractAPI Pages: 1 -->
<!--zoomable 209 -->
<svg id="main" version="1.1" xmlns="http://www.w3.org/2000/svg" xmlns:xlink="http://www.w3.org/1999/xlink" xml:space="preserve" onload="init(evt)">
<style type="text/css"><![CDATA[
.edge:hover path { stroke: red; }
.edge:hover polygon { stroke: red; fill: red; }
]]></style>
<script type="text/javascript"><![CDATA[
var edges = document.getElementsByTagName('g');
if (edges && edges.length) {
  for (var i=0;i<edges.length;i++) {
    if (edges[i].id.substr(0,4)=='edge') {
      edges[i].setAttribute('class','edge');
    }
  }
}
]]></script>
        <defs>
                <circle id="rim" cx="0" cy="0" r="7"/>
                <circle id="rim2" cx="0" cy="0" r="3.5"/>
                <g id="zoomPlus">
                        <use xlink:href="#rim" fill="#404040">
                                <set attributeName="fill" to="#808080" begin="zoomplus.mouseover" end="zoomplus.mouseout"/>
                        </use>
                        <path d="M-4,0h8M0,-4v8" fill="none" stroke="white" stroke-width="1.5" pointer-events="none"/>
                </g>
                <g id="zoomMin">
                        <use xlink:href="#rim" fill="#404040">
                                <set attributeName="fill" to="#808080" begin="zoomminus.mouseover" end="zoomminus.mouseout"/>
                        </use>
                        <path d="M-4,0h8" fill="none" stroke="white" stroke-width="1.5" pointer-events="none"/>
                </g>
                <g id="dirArrow">
                        <path fill="none" stroke="white" stroke-width="1.5" d="M0,-3.0v7 M-2.5,-0.5L0,-3.0L2.5,-0.5"/>
                </g>
               <g id="resetDef">
                       <use xlink:href="#rim2" fill="#404040">
                               <set attributeName="fill" to="#808080" begin="reset.mouseover" end="reset.mouseout"/>
                       </use>
               </g>
        </defs>

<script type="text/javascript">
var viewWidth = 756;
var viewHeight = 209;
var sectionId = 'dynsection-1';
</script>
<script xlink:href="../../svgpan.js"/>
<svg id="graph" class="graph">
<g id="viewport">
<title>AbstractAPI</title>
<polygon fill="#ffffff" stroke="transparent" points="-4,4 -4,-204.5 752,-204.5 752,4 -4,4"/>
<!-- Node2 -->
<g id="node1" class="node">
<title>Node2</title>
<polygon fill="#bfbfbf" stroke="#000000" points="678,-93.5 678,-112.5 748,-112.5 748,-93.5 678,-93.5"/>
<text text-anchor="middle" x="713" y="-100.5" font-family="Helvetica,sans-Serif" font-size="10.00" fill="#000000">AbstractAPI</text>
</g>
<!-- Node3 -->
<g id="node2" class="node">
<title>Node3</title>
<g id="a_node2"><a xlink:title="STL class. ">
<polygon fill="#ffffff" stroke="#bfbfbf" points="444.5,-175.5 444.5,-194.5 504.5,-194.5 504.5,-175.5 444.5,-175.5"/>
<text text-anchor="middle" x="474.5" y="-182.5" font-family="Helvetica,sans-Serif" font-size="10.00" fill="#000000">std::string</text>
</a>
</g>
</g>
<!-- Node3&#45;&gt;Node2 -->
<g id="edge1" class="edge">
<title>Node3&#45;&gt;Node2</title>
<path fill="none" stroke="#9a32cd" stroke-dasharray="5,2" d="M514.9432,-182.7941C553.8209,-179.3517 613.3845,-170.5415 660,-148 678.0389,-139.277 694.9686,-122.9455 704.6427,-112.5405"/>
<polygon fill="#9a32cd" stroke="#9a32cd" points="514.2414,-179.3391 504.5542,-183.6296 514.8026,-186.3166 514.2414,-179.3391"/>
<text text-anchor="middle" x="615" y="-178" font-family="Helvetica,sans-Serif" font-size="10.00" fill="#000000"> jsonSchema</text>
</g>
<!-- Node4 -->
<g id="node3" class="node">
<title>Node4</title>
<g id="a_node3"><a xlink:title="STL class. ">
<polygon fill="#ffffff" stroke="#bfbfbf" points="113,-170 113,-200 208,-200 208,-170 113,-170"/>
<text text-anchor="start" x="121" y="-188" font-family="Helvetica,sans-Serif" font-size="10.00" fill="#000000">std::basic_string&lt;</text>
<text text-anchor="middle" x="160.5" y="-177" font-family="Helvetica,sans-Serif" font-size="10.00" fill="#000000"> char &gt;</text>
</a>
</g>
</g>
<!-- Node4&#45;&gt;Node3 -->
<g id="edge2" class="edge">
<title>Node4&#45;&gt;Node3</title>
<path fill="none" stroke="#191970" d="M218.5497,-185C285.3489,-185 392.49,-185 444.3879,-185"/>
<polygon fill="#191970" stroke="#191970" points="218.1899,-181.5001 208.1898,-185 218.1898,-188.5001 218.1899,-181.5001"/>
</g>
<!-- Node5 -->
<g id="node4" class="node">
<title>Node5</title>
<polygon fill="#ffffff" stroke="#bfbfbf" points="397,-137.5 397,-156.5 552,-156.5 552,-137.5 397,-137.5"/>
<text text-anchor="middle" x="474.5" y="-144.5" font-family="Helvetica,sans-Serif" font-size="10.00" fill="#000000">std::queue&lt; pJsonMessage_t &gt;</text>
</g>
<!-- Node5&#45;&gt;Node2 -->
<g id="edge3" class="edge">
<title>Node5&#45;&gt;Node2</title>
<path fill="none" stroke="#9a32cd" stroke-dasharray="5,2" d="M559.0551,-135.9789C590.8616,-131.2581 627.2445,-125.1682 660,-118 667.0997,-116.4463 674.6551,-114.4931 681.7699,-112.5145"/>
<polygon fill="#9a32cd" stroke="#9a32cd" points="558.2883,-132.5537 548.8996,-137.4631 559.3006,-139.4801 558.2883,-132.5537"/>
<text text-anchor="middle" x="615" y="-136" font-family="Helvetica,sans-Serif" font-size="10.00" fill="#000000"> messageQueue</text>
</g>
<!-- Node6 -->
<g id="node5" class="node">
<title>Node6</title>
<g id="a_node5"><a xlink:title="STL class. ">
<polygon fill="#ffffff" stroke="#bfbfbf" points="117.5,-131.5 117.5,-150.5 203.5,-150.5 203.5,-131.5 117.5,-131.5"/>
<text text-anchor="middle" x="160.5" y="-138.5" font-family="Helvetica,sans-Serif" font-size="10.00" fill="#000000">std::queue&lt; T &gt;</text>
</a>
</g>
</g>
<!-- Node6&#45;&gt;Node5 -->
<g id="edge4" class="edge">
<title>Node6&#45;&gt;Node5</title>
<path fill="none" stroke="#ffa500" stroke-dasharray="5,2" d="M213.8101,-142.0187C264.0113,-142.9779 339.7963,-144.426 396.7363,-145.5141"/>
<polygon fill="#ffa500" stroke="#ffa500" points="213.567,-138.5135 203.502,-141.8217 213.4332,-145.5122 213.567,-138.5135"/>
<text text-anchor="middle" x="305" y="-148" font-family="Helvetica,sans-Serif" font-size="10.00" fill="#000000"> &lt; pJsonMessage_t &gt;</text>
</g>
<!-- Node7 -->
<g id="node6" class="node">
<title>Node7</title>
<polygon fill="#ffffff" stroke="#bfbfbf" points="0,-112.5 0,-131.5 29,-131.5 29,-112.5 0,-112.5"/>
<text text-anchor="middle" x="14.5" y="-119.5" font-family="Helvetica,sans-Serif" font-size="10.00" fill="#000000">T</text>
</g>
<!-- Node7&#45;&gt;Node6 -->
<g id="edge5" class="edge">
<title>Node7&#45;&gt;Node6</title>
<path fill="none" stroke="#9a32cd" stroke-dasharray="5,2" d="M39.2019,-125.2146C60.5514,-127.993 91.8984,-132.0724 117.3771,-135.3881"/>
<polygon fill="#9a32cd" stroke="#9a32cd" points="39.4009,-121.7111 29.0328,-123.8913 38.4975,-128.6526 39.4009,-121.7111"/>
<text text-anchor="middle" x="68.5" y="-134" font-family="Helvetica,sans-Serif" font-size="10.00" fill="#000000"> elements</text>
</g>
<!-- Node9 -->
<g id="node8" class="node">
<title>Node9</title>
<g id="a_node8"><a xlink:title="STL class. ">
<polygon fill="#ffffff" stroke="#bfbfbf" points="108,-93.5 108,-112.5 213,-112.5 213,-93.5 108,-93.5"/>
<text text-anchor="middle" x="160.5" y="-100.5" font-family="Helvetica,sans-Serif" font-size="10.00" fill="#000000">std::unique_ptr&lt; T &gt;</text>
</a>
</g>
</g>
<!-- Node7&#45;&gt;Node9 -->
<g id="edge8" class="edge">
<title>Node7&#45;&gt;Node9</title>
<path fill="none" stroke="#9a32cd" stroke-dasharray="5,2" d="M38.7669,-113.0392C41.5169,-112.2477 44.3008,-111.5426 47,-111 66.6569,-107.0488 88.5687,-104.9732 107.8572,-103.907"/>
<polygon fill="#9a32cd" stroke="#9a32cd" points="37.6021,-109.7373 29.1662,-116.1472 39.7581,-116.3971 37.6021,-109.7373"/>
<text text-anchor="middle" x="68.5" y="-114" font-family="Helvetica,sans-Serif" font-size="10.00" fill="#000000"> ptr</text>
</g>
<!-- Node8 -->
<g id="node7" class="node">
<title>Node8</title>
<polygon fill="#ffffff" stroke="#bfbfbf" points="410,-88 410,-118 539,-118 539,-88 410,-88"/>
<text text-anchor="start" x="418" y="-106" font-family="Helvetica,sans-Serif" font-size="10.00" fill="#000000">std::unique_ptr&lt; rapidjson</text>
<text text-anchor="middle" x="474.5" y="-95" font-family="Helvetica,sans-Serif" font-size="10.00" fill="#000000">::SchemaValidator &gt;</text>
</g>
<!-- Node8&#45;&gt;Node2 -->
<g id="edge6" class="edge">
<title>Node8&#45;&gt;Node2</title>
<path fill="none" stroke="#9a32cd" stroke-dasharray="5,2" d="M549.1959,-103C592.1992,-103 644.2306,-103 677.9407,-103"/>
<polygon fill="#9a32cd" stroke="#9a32cd" points="549.0416,-99.5001 539.0415,-103 549.0415,-106.5001 549.0416,-99.5001"/>
<text text-anchor="middle" x="615" y="-106" font-family="Helvetica,sans-Serif" font-size="10.00" fill="#000000"> pSchemaValidator</text>
</g>
<!-- Node9&#45;&gt;Node8 -->
<g id="edge7" class="edge">
<title>Node9&#45;&gt;Node8</title>
<path fill="none" stroke="#ffa500" stroke-dasharray="5,2" d="M223.208,-103C277.3057,-103 355.1286,-103 409.7989,-103"/>
<polygon fill="#ffa500" stroke="#ffa500" points="223.0566,-99.5001 213.0565,-103 223.0565,-106.5001 223.0566,-99.5001"/>
<text text-anchor="middle" x="305" y="-106" font-family="Helvetica,sans-Serif" font-size="10.00" fill="#000000"> &lt; rapidjson::SchemaValidator &gt;</text>
</g>
<!-- Node10 -->
<g id="node9" class="node">
<title>Node10</title>
<polygon fill="#ffffff" stroke="#bfbfbf" points="410,-39 410,-69 539,-69 539,-39 410,-39"/>
<text text-anchor="start" x="418" y="-57" font-family="Helvetica,sans-Serif" font-size="10.00" fill="#000000">std::unique_ptr&lt; rapidjson</text>
<text text-anchor="middle" x="474.5" y="-46" font-family="Helvetica,sans-Serif" font-size="10.00" fill="#000000">::SchemaDocument &gt;</text>
</g>
<!-- Node9&#45;&gt;Node10 -->
<g id="edge10" class="edge">
<title>Node9&#45;&gt;Node10</title>
<path fill="none" stroke="#ffa500" stroke-dasharray="5,2" d="M213.0057,-91.4004C219.0614,-90.1898 225.1576,-89.0281 231,-88 291.4304,-77.3661 360.7722,-67.9541 409.9634,-61.7446"/>
<polygon fill="#ffa500" stroke="#ffa500" points="211.9993,-88.0338 202.9048,-93.4689 213.4037,-94.8914 211.9993,-88.0338"/>
<text text-anchor="middle" x="305" y="-91" font-family="Helvetica,sans-Serif" font-size="10.00" fill="#000000"> &lt; rapidjson::SchemaDocument &gt;</text>
</g>
<!-- Node10&#45;&gt;Node2 -->
<g id="edge9" class="edge">
<title>Node10&#45;&gt;Node2</title>
<path fill="none" stroke="#9a32cd" stroke-dasharray="5,2" d="M549.0561,-66.0083C583.0487,-71.9075 623.7189,-79.5608 660,-88 666.8925,-89.6032 674.2288,-91.5329 681.1764,-93.4664"/>
<polygon fill="#9a32cd" stroke="#9a32cd" points="549.6438,-62.5581 539.1954,-64.3136 548.458,-69.457 549.6438,-62.5581"/>
<text text-anchor="middle" x="615" y="-91" font-family="Helvetica,sans-Serif" font-size="10.00" fill="#000000"> pSchemaDocument</text>
</g>
<!-- Node11 -->
<g id="node10" class="node">
<title>Node11</title>
<g id="a_node10"><a xlink:title="STL class. ">
<polygon fill="#ffffff" stroke="#bfbfbf" points="443,-.5 443,-19.5 506,-19.5 506,-.5 443,-.5"/>
<text text-anchor="middle" x="474.5" y="-7.5" font-family="Helvetica,sans-Serif" font-size="10.00" fill="#000000">std::thread</text>
</a>
</g>
</g>
<!-- Node11&#45;&gt;Node2 -->
<g id="edge11" class="edge">
<title>Node11&#45;&gt;Node2</title>
<path fill="none" stroke="#9a32cd" stroke-dasharray="5,2" d="M516.0028,-14.1097C555.0356,-19.3154 614.1621,-30.7292 660,-55 678.4314,-64.7593 695.4968,-82.3814 705.0513,-93.3434"/>
<polygon fill="#9a32cd" stroke="#9a32cd" points="516.4024,-10.6324 506.0439,-12.8581 515.5294,-17.5778 516.4024,-10.6324"/>
<text text-anchor="middle" x="615" y="-58" font-family="Helvetica,sans-Serif" font-size="10.00" fill="#000000"> apiThread</text>
</g>
</g>
</svg>
        <g id="navigator" transform="translate(0 0)" fill="#404254">
                <rect fill="#f2f5e9" fill-opacity="0.5" stroke="#606060" stroke-width=".5" x="0" y="0" width="60" height="60"/>
                <use id="zoomplus" xlink:href="#zoomPlus" x="17" y="9" onmousedown="handleZoom(evt,'in')"/>
                <use id="zoomminus" xlink:href="#zoomMin" x="42" y="9" onmousedown="handleZoom(evt,'out')"/>
                <use id="reset" xlink:href="#resetDef" x="30" y="36" onmousedown="handleReset()"/>
                <g id="arrowUp" xlink:href="#dirArrow" transform="translate(30 24)" onmousedown="handlePan(0,-1)">
                  <use xlink:href="#rim" fill="#404040">
                        <set attributeName="fill" to="#808080" begin="arrowUp.mouseover" end="arrowUp.mouseout"/>
                  </use>
                  <path fill="none" stroke="white" stroke-width="1.5" d="M0,-3.0v7 M-2.5,-0.5L0,-3.0L2.5,-0.5"/>
                </g>
                <g id="arrowRight" xlink:href="#dirArrow" transform="rotate(90) translate(36 -43)" onmousedown="handlePan(1,0)">
                  <use xlink:href="#rim" fill="#404040">
                        <set attributeName="fill" to="#808080" begin="arrowRight.mouseover" end="arrowRight.mouseout"/>
                  </use>
                  <path fill="none" stroke="white" stroke-width="1.5" d="M0,-3.0v7 M-2.5,-0.5L0,-3.0L2.5,-0.5"/>
                </g>
                <g id="arrowDown" xlink:href="#dirArrow" transform="rotate(180) translate(-30 -48)" onmousedown="handlePan(0,1)">
                  <use xlink:href="#rim" fill="#404040">
                        <set attributeName="fill" to="#808080" begin="arrowDown.mouseover" end="arrowDown.mouseout"/>
                  </use>
                  <path fill="none" stroke="white" stroke-width="1.5" d="M0,-3.0v7 M-2.5,-0.5L0,-3.0L2.5,-0.5"/>
                </g>
                <g id="arrowLeft" xlink:href="#dirArrow" transform="rotate(270) translate(-36 17)" onmousedown="handlePan(-1,0)">
                  <use xlink:href="#rim" fill="#404040">
                        <set attributeName="fill" to="#808080" begin="arrowLeft.mouseover" end="arrowLeft.mouseout"/>
                  </use>
                  <path fill="none" stroke="white" stroke-width="1.5" d="M0,-3.0v7 M-2.5,-0.5L0,-3.0L2.5,-0.5"/>
                </g>
        </g>
        <svg viewBox="0 0 15 15" width="100%" height="30px" preserveAspectRatio="xMaxYMin meet">
         <g id="arrow_out" transform="scale(0.3 0.3)">
          <a xlink:href="class_abstract_a_p_i__coll__graph_org.svg" target="_base">
           <rect id="button" ry="5" rx="5" y="6" x="6" height="38" width="38"
                fill="#f2f5e9" fill-opacity="0.5" stroke="#606060" stroke-width="1.0"/>
           <path id="arrow"
             d="M 11.500037,31.436501 C 11.940474,20.09759 22.043105,11.32322 32.158766,21.979434 L 37.068811,17.246167 C 37.068811,17.246167 37.088388,32 37.088388,32 L 22.160133,31.978069 C 22.160133,31.978069 26.997745,27.140456 26.997745,27.140456 C 18.528582,18.264221 13.291696,25.230495 11.500037,31.436501 z"
             style="fill:#404040;"/>
          </a>
         </g>
        </svg>
</svg>
