<?xml version="1.0" encoding="UTF-8" standalone="no"?>
<!DOCTYPE svg PUBLIC "-//W3C//DTD SVG 1.1//EN"
 "http://www.w3.org/Graphics/SVG/1.1/DTD/svg11.dtd">
<!-- Generated by graphviz version 2.40.1 (20161225.0304)
 -->
<!-- Title: src/liblogger/Logger.hpp Pages: 1 -->
<svg width="965pt" height="285pt"
 viewBox="0.00 0.00 964.50 285.00" xmlns="http://www.w3.org/2000/svg" xmlns:xlink="http://www.w3.org/1999/xlink">
<g id="graph0" class="graph" transform="scale(1 1) rotate(0) translate(4 281)">
<title>src/liblogger/Logger.hpp</title>
<polygon fill="#ffffff" stroke="transparent" points="-4,4 -4,-281 960.5,-281 960.5,4 -4,4"/>
<!-- Node2 -->
<g id="node1" class="node">
<title>Node2</title>
<polygon fill="#bfbfbf" stroke="#000000" points="571.5,-257.5 571.5,-276.5 691.5,-276.5 691.5,-257.5 571.5,-257.5"/>
<text text-anchor="middle" x="631.5" y="-264.5" font-family="Helvetica,sans-Serif" font-size="10.00" fill="#000000">src/liblogger/Logger.hpp</text>
</g>
<!-- Node3 -->
<g id="node2" class="node">
<title>Node3</title>
<g id="a_node2"><a xlink:href="../../d6/d8f/_abstract_a_p_i_8hpp.html" target="_top" xlink:title="src/deviceMonitor/apis\l/AbstractAPI.hpp">
<polygon fill="#ffffff" stroke="#000000" points="308,-190.5 308,-220.5 423,-220.5 423,-190.5 308,-190.5"/>
<text text-anchor="start" x="316" y="-208.5" font-family="Helvetica,sans-Serif" font-size="10.00" fill="#000000">src/deviceMonitor/apis</text>
<text text-anchor="middle" x="365.5" y="-197.5" font-family="Helvetica,sans-Serif" font-size="10.00" fill="#000000">/AbstractAPI.hpp</text>
</a>
</g>
</g>
<!-- Node2&#45;&gt;Node3 -->
<g id="edge1" class="edge">
<title>Node2&#45;&gt;Node3</title>
<path fill="none" stroke="#191970" d="M580.3948,-255.1843C535.4291,-244.7881 470.0157,-229.6643 423.1854,-218.837"/>
<polygon fill="#191970" stroke="#191970" points="579.6979,-258.6155 590.2294,-257.4581 581.2748,-251.7954 579.6979,-258.6155"/>
</g>
<!-- Node6 -->
<g id="node5" class="node">
<title>Node6</title>
<g id="a_node5"><a xlink:href="../../d2/dcb/_application_8hpp.html" target="_top" xlink:title="src/deviceMonitor/Application.hpp">
<polygon fill="#ffffff" stroke="#000000" points="297.5,-62 297.5,-81 461.5,-81 461.5,-62 297.5,-62"/>
<text text-anchor="middle" x="379.5" y="-69" font-family="Helvetica,sans-Serif" font-size="10.00" fill="#000000">src/deviceMonitor/Application.hpp</text>
</a>
</g>
</g>
<!-- Node2&#45;&gt;Node6 -->
<g id="edge21" class="edge">
<title>Node2&#45;&gt;Node6</title>
<path fill="none" stroke="#191970" d="M607.9185,-251.5992C576.1528,-230.5742 518.2129,-191.234 471.5,-154 440.2961,-129.1279 405.8692,-96.8469 389.375,-81.0529"/>
<polygon fill="#191970" stroke="#191970" points="606.2484,-254.6903 616.5243,-257.2704 610.1003,-248.8453 606.2484,-254.6903"/>
</g>
<!-- Node8 -->
<g id="node7" class="node">
<title>Node8</title>
<g id="a_node7"><a xlink:href="../../df/d0a/main_8cpp.html" target="_top" xlink:title="src/deviceMonitor/main.cpp">
<polygon fill="#ffffff" stroke="#000000" points="702,-.5 702,-19.5 839,-19.5 839,-.5 702,-.5"/>
<text text-anchor="middle" x="770.5" y="-7.5" font-family="Helvetica,sans-Serif" font-size="10.00" fill="#000000">src/deviceMonitor/main.cpp</text>
</a>
</g>
</g>
<!-- Node2&#45;&gt;Node8 -->
<g id="edge22" class="edge">
<title>Node2&#45;&gt;Node8</title>
<path fill="none" stroke="#191970" d="M654.4743,-251.2602C681.5238,-231.5651 725.9874,-195.3556 751.5,-154 778.6414,-110.0042 774.4979,-44.1303 771.7698,-19.6298"/>
<polygon fill="#191970" stroke="#191970" points="652.1298,-248.6334 646.0211,-257.2899 656.1948,-254.3322 652.1298,-248.6334"/>
</g>
<!-- Node10 -->
<g id="node9" class="node">
<title>Node10</title>
<g id="a_node9"><a xlink:href="../../df/d16/_rest_a_p_i_8hpp.html" target="_top" xlink:title="src/deviceMonitor/apis\l/RestAPI.hpp">
<polygon fill="#ffffff" stroke="#000000" points="627,-123.5 627,-153.5 742,-153.5 742,-123.5 627,-123.5"/>
<text text-anchor="start" x="635" y="-141.5" font-family="Helvetica,sans-Serif" font-size="10.00" fill="#000000">src/deviceMonitor/apis</text>
<text text-anchor="middle" x="684.5" y="-130.5" font-family="Helvetica,sans-Serif" font-size="10.00" fill="#000000">/RestAPI.hpp</text>
</a>
</g>
</g>
<!-- Node2&#45;&gt;Node10 -->
<g id="edge19" class="edge">
<title>Node2&#45;&gt;Node10</title>
<path fill="none" stroke="#191970" d="M639.353,-247.9602C649.9284,-222.3198 668.5364,-177.2041 678.2301,-153.7016"/>
<polygon fill="#191970" stroke="#191970" points="636.061,-246.7625 635.4836,-257.3416 642.5322,-249.4316 636.061,-246.7625"/>
</g>
<!-- Node12 -->
<g id="node11" class="node">
<title>Node12</title>
<g id="a_node11"><a xlink:href="../../d7/d83/_data_storage_8hpp.html" target="_top" xlink:title="src/deviceMonitor/storage\l/DataStorage.hpp">
<polygon fill="#ffffff" stroke="#000000" points="480,-123.5 480,-153.5 609,-153.5 609,-123.5 480,-123.5"/>
<text text-anchor="start" x="488" y="-141.5" font-family="Helvetica,sans-Serif" font-size="10.00" fill="#000000">src/deviceMonitor/storage</text>
<text text-anchor="middle" x="544.5" y="-130.5" font-family="Helvetica,sans-Serif" font-size="10.00" fill="#000000">/DataStorage.hpp</text>
</a>
</g>
</g>
<!-- Node2&#45;&gt;Node12 -->
<g id="edge20" class="edge">
<title>Node2&#45;&gt;Node12</title>
<path fill="none" stroke="#191970" d="M619.2965,-248.9753C602.0667,-223.5267 570.9165,-177.5175 554.7921,-153.7016"/>
<polygon fill="#191970" stroke="#191970" points="616.4562,-251.0232 624.9609,-257.3416 622.2527,-247.0987 616.4562,-251.0232"/>
</g>
<!-- Node14 -->
<g id="node13" class="node">
<title>Node14</title>
<g id="a_node13"><a xlink:href="../../de/d27/_logger_8cpp.html" target="_top" xlink:title="src/liblogger/Logger.cpp">
<polygon fill="#ffffff" stroke="#000000" points="836.5,-196 836.5,-215 956.5,-215 956.5,-196 836.5,-196"/>
<text text-anchor="middle" x="896.5" y="-203" font-family="Helvetica,sans-Serif" font-size="10.00" fill="#000000">src/liblogger/Logger.cpp</text>
</a>
</g>
</g>
<!-- Node2&#45;&gt;Node14 -->
<g id="edge23" class="edge">
<title>Node2&#45;&gt;Node14</title>
<path fill="none" stroke="#191970" d="M682.6284,-255.1343C732.9197,-243.463 808.7329,-225.8686 855.2881,-215.0643"/>
<polygon fill="#191970" stroke="#191970" points="681.5653,-251.788 672.6155,-257.4581 683.1479,-258.6067 681.5653,-251.788"/>
</g>
<!-- Node4 -->
<g id="node3" class="node">
<title>Node4</title>
<g id="a_node3"><a xlink:href="../../d6/db0/_abstract_a_p_i_8cpp.html" target="_top" xlink:title="src/deviceMonitor/apis\l/AbstractAPI.cpp">
<polygon fill="#ffffff" stroke="#000000" points="0,-56.5 0,-86.5 115,-86.5 115,-56.5 0,-56.5"/>
<text text-anchor="start" x="8" y="-74.5" font-family="Helvetica,sans-Serif" font-size="10.00" fill="#000000">src/deviceMonitor/apis</text>
<text text-anchor="middle" x="57.5" y="-63.5" font-family="Helvetica,sans-Serif" font-size="10.00" fill="#000000">/AbstractAPI.cpp</text>
</a>
</g>
</g>
<!-- Node3&#45;&gt;Node4 -->
<g id="edge2" class="edge">
<title>Node3&#45;&gt;Node4</title>
<path fill="none" stroke="#191970" d="M298.0091,-196.0539C256.75,-188.4853 203.7716,-175.4782 160.5,-154 125.2022,-136.4797 90.84,-105.2605 72.0901,-86.6592"/>
<polygon fill="#191970" stroke="#191970" points="297.5067,-199.5193 307.9638,-197.8168 298.7274,-192.6266 297.5067,-199.5193"/>
</g>
<!-- Node5 -->
<g id="node4" class="node">
<title>Node5</title>
<g id="a_node4"><a xlink:href="../../d8/dc9/_message_processor_8hpp.html" target="_top" xlink:title="src/deviceMonitor/middleware\l/MessageProcessor.hpp">
<polygon fill="#ffffff" stroke="#000000" points="169.5,-123.5 169.5,-153.5 315.5,-153.5 315.5,-123.5 169.5,-123.5"/>
<text text-anchor="start" x="177.5" y="-141.5" font-family="Helvetica,sans-Serif" font-size="10.00" fill="#000000">src/deviceMonitor/middleware</text>
<text text-anchor="middle" x="242.5" y="-130.5" font-family="Helvetica,sans-Serif" font-size="10.00" fill="#000000">/MessageProcessor.hpp</text>
</a>
</g>
</g>
<!-- Node3&#45;&gt;Node5 -->
<g id="edge3" class="edge">
<title>Node3&#45;&gt;Node5</title>
<path fill="none" stroke="#191970" d="M329.0317,-185.6352C310.2823,-175.422 287.7901,-163.1702 270.437,-153.7177"/>
<polygon fill="#191970" stroke="#191970" points="327.4405,-188.7539 337.8964,-190.4639 330.789,-182.6067 327.4405,-188.7539"/>
</g>
<!-- Node3&#45;&gt;Node6 -->
<g id="edge18" class="edge">
<title>Node3&#45;&gt;Node6</title>
<path fill="none" stroke="#191970" d="M368.1374,-180.2559C371.2742,-150.2327 376.3545,-101.6073 378.4966,-81.1042"/>
<polygon fill="#191970" stroke="#191970" points="364.6369,-180.0794 367.0788,-190.389 371.599,-180.8068 364.6369,-180.0794"/>
</g>
<!-- Node3&#45;&gt;Node10 -->
<g id="edge9" class="edge">
<title>Node3&#45;&gt;Node10</title>
<path fill="none" stroke="#191970" d="M433.0498,-192.3192C484.0783,-182.2242 555.7981,-167.7412 618.5,-154 621.2593,-153.3953 624.0814,-152.7677 626.9301,-152.1269"/>
<polygon fill="#191970" stroke="#191970" points="432.2613,-188.9073 423.1288,-194.2782 433.6174,-195.7747 432.2613,-188.9073"/>
</g>
<!-- Node3&#45;&gt;Node12 -->
<g id="edge13" class="edge">
<title>Node3&#45;&gt;Node12</title>
<path fill="none" stroke="#191970" d="M415.286,-186.865C443.3054,-176.3773 477.8387,-163.4515 504.1537,-153.6017"/>
<polygon fill="#191970" stroke="#191970" points="413.8096,-183.6804 405.6711,-190.4639 416.2635,-190.2362 413.8096,-183.6804"/>
</g>
<!-- Node5&#45;&gt;Node4 -->
<g id="edge4" class="edge">
<title>Node5&#45;&gt;Node4</title>
<path fill="none" stroke="#191970" d="M191.4241,-120.0023C162.3985,-109.4903 126.5146,-96.4945 99.1987,-86.6017"/>
<polygon fill="#191970" stroke="#191970" points="190.3882,-123.3495 200.9824,-123.4639 192.7718,-116.7678 190.3882,-123.3495"/>
</g>
<!-- Node5&#45;&gt;Node6 -->
<g id="edge5" class="edge">
<title>Node5&#45;&gt;Node6</title>
<path fill="none" stroke="#191970" d="M282.3031,-119.0343C307.7732,-106.5781 339.7048,-90.9619 359.8621,-81.1039"/>
<polygon fill="#191970" stroke="#191970" points="280.6911,-115.9264 273.2455,-123.4639 283.7664,-122.2147 280.6911,-115.9264"/>
</g>
<!-- Node9 -->
<g id="node8" class="node">
<title>Node9</title>
<g id="a_node8"><a xlink:href="../../d4/d7b/_message_processor_8cpp.html" target="_top" xlink:title="src/deviceMonitor/middleware\l/MessageProcessor.cpp">
<polygon fill="#ffffff" stroke="#000000" points="133.5,-56.5 133.5,-86.5 279.5,-86.5 279.5,-56.5 133.5,-56.5"/>
<text text-anchor="start" x="141.5" y="-74.5" font-family="Helvetica,sans-Serif" font-size="10.00" fill="#000000">src/deviceMonitor/middleware</text>
<text text-anchor="middle" x="206.5" y="-63.5" font-family="Helvetica,sans-Serif" font-size="10.00" fill="#000000">/MessageProcessor.cpp</text>
</a>
</g>
</g>
<!-- Node5&#45;&gt;Node9 -->
<g id="edge8" class="edge">
<title>Node5&#45;&gt;Node9</title>
<path fill="none" stroke="#191970" d="M229.5957,-114.4837C224.6073,-105.1996 219.0498,-94.8565 214.6366,-86.6432"/>
<polygon fill="#191970" stroke="#191970" points="226.5147,-116.1443 234.331,-123.2967 232.681,-112.8311 226.5147,-116.1443"/>
</g>
<!-- Node7 -->
<g id="node6" class="node">
<title>Node7</title>
<g id="a_node6"><a xlink:href="../../d0/d42/_application_8cpp.html" target="_top" xlink:title="src/deviceMonitor/Application.cpp">
<polygon fill="#ffffff" stroke="#000000" points="297.5,-.5 297.5,-19.5 461.5,-19.5 461.5,-.5 297.5,-.5"/>
<text text-anchor="middle" x="379.5" y="-7.5" font-family="Helvetica,sans-Serif" font-size="10.00" fill="#000000">src/deviceMonitor/Application.cpp</text>
</a>
</g>
</g>
<!-- Node6&#45;&gt;Node7 -->
<g id="edge6" class="edge">
<title>Node6&#45;&gt;Node7</title>
<path fill="none" stroke="#191970" d="M379.5,-51.7462C379.5,-41.0519 379.5,-28.314 379.5,-19.7449"/>
<polygon fill="#191970" stroke="#191970" points="376.0001,-51.8906 379.5,-61.8906 383.0001,-51.8907 376.0001,-51.8906"/>
</g>
<!-- Node6&#45;&gt;Node8 -->
<g id="edge7" class="edge">
<title>Node6&#45;&gt;Node8</title>
<path fill="none" stroke="#191970" d="M445.2958,-60.2977C454.1024,-58.8326 463.0185,-57.3668 471.5,-56 552.6475,-42.9228 646.3224,-28.6433 706.8814,-19.5187"/>
<polygon fill="#191970" stroke="#191970" points="444.7149,-56.8462 435.4283,-61.9462 445.8684,-63.7505 444.7149,-56.8462"/>
</g>
<!-- Node10&#45;&gt;Node6 -->
<g id="edge11" class="edge">
<title>Node10&#45;&gt;Node6</title>
<path fill="none" stroke="#191970" d="M617.1509,-122.7152C544.5489,-106.4298 470.9799,-90.7464 424.928,-81.0287"/>
<polygon fill="#191970" stroke="#191970" points="616.3973,-126.1331 626.9215,-124.9119 617.9328,-119.3035 616.3973,-126.1331"/>
</g>
<!-- Node10&#45;&gt;Node8 -->
<g id="edge12" class="edge">
<title>Node10&#45;&gt;Node8</title>
<path fill="none" stroke="#191970" d="M720.57,-117.6221C731.9711,-109.4083 743.6351,-99.0387 751.5,-87 765.3564,-65.7901 769.1097,-35.2911 770.1248,-19.8132"/>
<polygon fill="#191970" stroke="#191970" points="718.2679,-114.9551 711.9701,-123.475 722.2064,-120.7421 718.2679,-114.9551"/>
</g>
<!-- Node11 -->
<g id="node10" class="node">
<title>Node11</title>
<g id="a_node10"><a xlink:href="../../d0/d9b/_rest_a_p_i_8cpp.html" target="_top" xlink:title="src/deviceMonitor/apis\l/RestAPI.cpp">
<polygon fill="#ffffff" stroke="#000000" points="627,-56.5 627,-86.5 742,-86.5 742,-56.5 627,-56.5"/>
<text text-anchor="start" x="635" y="-74.5" font-family="Helvetica,sans-Serif" font-size="10.00" fill="#000000">src/deviceMonitor/apis</text>
<text text-anchor="middle" x="684.5" y="-63.5" font-family="Helvetica,sans-Serif" font-size="10.00" fill="#000000">/RestAPI.cpp</text>
</a>
</g>
</g>
<!-- Node10&#45;&gt;Node11 -->
<g id="edge10" class="edge">
<title>Node10&#45;&gt;Node11</title>
<path fill="none" stroke="#191970" d="M684.5,-113.0249C684.5,-104.128 684.5,-94.4287 684.5,-86.6432"/>
<polygon fill="#191970" stroke="#191970" points="681.0001,-113.2966 684.5,-123.2967 688.0001,-113.2967 681.0001,-113.2966"/>
</g>
<!-- Node12&#45;&gt;Node6 -->
<g id="edge15" class="edge">
<title>Node12&#45;&gt;Node6</title>
<path fill="none" stroke="#191970" d="M498.1692,-119.6869C467.24,-107.1278 427.8545,-91.1349 403.1514,-81.1039"/>
<polygon fill="#191970" stroke="#191970" points="496.8887,-122.9444 507.4708,-123.4639 499.5223,-116.4587 496.8887,-122.9444"/>
</g>
<!-- Node12&#45;&gt;Node9 -->
<g id="edge16" class="edge">
<title>Node12&#45;&gt;Node9</title>
<path fill="none" stroke="#191970" d="M469.7648,-123.6856C413.1433,-112.4618 335.7655,-97.1236 279.5593,-85.9822"/>
<polygon fill="#191970" stroke="#191970" points="469.2404,-127.1497 479.7301,-125.661 470.6016,-120.2833 469.2404,-127.1497"/>
</g>
<!-- Node12&#45;&gt;Node11 -->
<g id="edge14" class="edge">
<title>Node12&#45;&gt;Node11</title>
<path fill="none" stroke="#191970" d="M585.138,-119.0518C606.6502,-108.7567 632.681,-96.2991 652.7017,-86.7177"/>
<polygon fill="#191970" stroke="#191970" points="583.4281,-115.9899 575.9187,-123.4639 586.4499,-122.3041 583.4281,-115.9899"/>
</g>
<!-- Node13 -->
<g id="node12" class="node">
<title>Node13</title>
<g id="a_node12"><a xlink:href="../../dc/d79/_data_storage_8cpp.html" target="_top" xlink:title="src/deviceMonitor/storage\l/DataStorage.cpp">
<polygon fill="#ffffff" stroke="#000000" points="480,-56.5 480,-86.5 609,-86.5 609,-56.5 480,-56.5"/>
<text text-anchor="start" x="488" y="-74.5" font-family="Helvetica,sans-Serif" font-size="10.00" fill="#000000">src/deviceMonitor/storage</text>
<text text-anchor="middle" x="544.5" y="-63.5" font-family="Helvetica,sans-Serif" font-size="10.00" fill="#000000">/DataStorage.cpp</text>
</a>
</g>
</g>
<!-- Node12&#45;&gt;Node13 -->
<g id="edge17" class="edge">
<title>Node12&#45;&gt;Node13</title>
<path fill="none" stroke="#191970" d="M544.5,-113.0249C544.5,-104.128 544.5,-94.4287 544.5,-86.6432"/>
<polygon fill="#191970" stroke="#191970" points="541.0001,-113.2966 544.5,-123.2967 548.0001,-113.2967 541.0001,-113.2966"/>
</g>
</g>
</svg>
