<?xml version="1.0" encoding="UTF-8" standalone="no"?>
<!DOCTYPE svg PUBLIC "-//W3C//DTD SVG 1.1//EN"
 "http://www.w3.org/Graphics/SVG/1.1/DTD/svg11.dtd">
<!-- Generated by graphviz version 2.40.1 (20161225.0304)
 -->
<!-- Title: Application::run Pages: 1 -->
<!--zoomable 294 -->
<svg id="main" version="1.1" xmlns="http://www.w3.org/2000/svg" xmlns:xlink="http://www.w3.org/1999/xlink" xml:space="preserve" onload="init(evt)">
<style type="text/css"><![CDATA[
.edge:hover path { stroke: red; }
.edge:hover polygon { stroke: red; fill: red; }
]]></style>
<script type="text/javascript"><![CDATA[
var edges = document.getElementsByTagName('g');
if (edges && edges.length) {
  for (var i=0;i<edges.length;i++) {
    if (edges[i].id.substr(0,4)=='edge') {
      edges[i].setAttribute('class','edge');
    }
  }
}
]]></script>
        <defs>
                <circle id="rim" cx="0" cy="0" r="7"/>
                <circle id="rim2" cx="0" cy="0" r="3.5"/>
                <g id="zoomPlus">
                        <use xlink:href="#rim" fill="#404040">
                                <set attributeName="fill" to="#808080" begin="zoomplus.mouseover" end="zoomplus.mouseout"/>
                        </use>
                        <path d="M-4,0h8M0,-4v8" fill="none" stroke="white" stroke-width="1.5" pointer-events="none"/>
                </g>
                <g id="zoomMin">
                        <use xlink:href="#rim" fill="#404040">
                                <set attributeName="fill" to="#808080" begin="zoomminus.mouseover" end="zoomminus.mouseout"/>
                        </use>
                        <path d="M-4,0h8" fill="none" stroke="white" stroke-width="1.5" pointer-events="none"/>
                </g>
                <g id="dirArrow">
                        <path fill="none" stroke="white" stroke-width="1.5" d="M0,-3.0v7 M-2.5,-0.5L0,-3.0L2.5,-0.5"/>
                </g>
               <g id="resetDef">
                       <use xlink:href="#rim2" fill="#404040">
                               <set attributeName="fill" to="#808080" begin="reset.mouseover" end="reset.mouseout"/>
                       </use>
               </g>
        </defs>

<script type="text/javascript">
var viewWidth = 828;
var viewHeight = 294;
var sectionId = 'dynsection-2';
</script>
<script xlink:href="../../svgpan.js"/>
<svg id="graph" class="graph">
<g id="viewport">
<title>Application::run</title>
<polygon fill="#ffffff" stroke="transparent" points="-4,4 -4,-290 824,-290 824,4 -4,4"/>
<!-- Node13 -->
<g id="node1" class="node">
<title>Node13</title>
<polygon fill="#bfbfbf" stroke="#000000" points="0,-133.5 0,-152.5 84,-152.5 84,-133.5 0,-133.5"/>
<text text-anchor="middle" x="42" y="-140.5" font-family="Helvetica,sans-Serif" font-size="10.00" fill="#000000">Application::run</text>
</g>
<!-- Node14 -->
<g id="node2" class="node">
<title>Node14</title>
<g id="a_node2"><a xlink:href="../../d3/df5/class_message_processor.html#a1af9c4a7a077e73077f2f25cd15a6361" target="_top" xlink:title="start message processor thread ">
<polygon fill="#ffffff" stroke="#000000" points="120,-190.5 120,-209.5 246,-209.5 246,-190.5 120,-190.5"/>
<text text-anchor="middle" x="183" y="-197.5" font-family="Helvetica,sans-Serif" font-size="10.00" fill="#000000">MessageProcessor::start</text>
</a>
</g>
</g>
<!-- Node13&#45;&gt;Node14 -->
<g id="edge1" class="edge">
<title>Node13&#45;&gt;Node14</title>
<path fill="none" stroke="#191970" d="M59.6036,-152.5865C75.1789,-160.8222 98.6794,-172.6537 120,-181 125.7944,-183.2683 131.9751,-185.4315 138.1154,-187.4316"/>
<polygon fill="#191970" stroke="#191970" points="137.0806,-190.7751 147.6699,-190.4321 139.178,-184.0967 137.0806,-190.7751"/>
</g>
<!-- Node22 -->
<g id="node10" class="node">
<title>Node22</title>
<g id="a_node10"><a xlink:href="../../d3/d5f/class_abstract_a_p_i.html#a9549b687af4bbeea35907cf5297d69c9" target="_top" xlink:title="common implementation of API start procedure ">
<polygon fill="#ffffff" stroke="#000000" points="135.5,-95.5 135.5,-114.5 230.5,-114.5 230.5,-95.5 135.5,-95.5"/>
<text text-anchor="middle" x="183" y="-102.5" font-family="Helvetica,sans-Serif" font-size="10.00" fill="#000000">AbstractAPI::start</text>
</a>
</g>
</g>
<!-- Node13&#45;&gt;Node22 -->
<g id="edge9" class="edge">
<title>Node13&#45;&gt;Node22</title>
<path fill="none" stroke="#191970" d="M77.5803,-133.411C95.782,-128.5056 118.1384,-122.4804 137.5723,-117.2429"/>
<polygon fill="#191970" stroke="#191970" points="138.6864,-120.5676 147.4311,-114.5859 136.8648,-113.8088 138.6864,-120.5676"/>
</g>
<!-- Node28 -->
<g id="node16" class="node">
<title>Node28</title>
<g id="a_node16"><a xlink:href="../../d3/df5/class_message_processor.html#af438aaa750f77f32edb7ca09bebd1c46" target="_top" xlink:title="stop message processor ">
<polygon fill="#ffffff" stroke="#000000" points="120.5,-152.5 120.5,-171.5 245.5,-171.5 245.5,-152.5 120.5,-152.5"/>
<text text-anchor="middle" x="183" y="-159.5" font-family="Helvetica,sans-Serif" font-size="10.00" fill="#000000">MessageProcessor::stop</text>
</a>
</g>
</g>
<!-- Node13&#45;&gt;Node28 -->
<g id="edge15" class="edge">
<title>Node13&#45;&gt;Node28</title>
<path fill="none" stroke="#191970" d="M84.3046,-148.7006C92.5559,-149.8125 101.424,-151.0075 110.3383,-152.2087"/>
<polygon fill="#191970" stroke="#191970" points="110.0141,-155.6966 120.392,-153.5635 110.949,-148.7593 110.0141,-155.6966"/>
</g>
<!-- Node30 -->
<g id="node18" class="node">
<title>Node30</title>
<g id="a_node18"><a xlink:href="../../d3/d5f/class_abstract_a_p_i.html#a3dc02a0aa489246ab40b17354da90288" target="_top" xlink:title="stop API and deallocate resources ">
<polygon fill="#ffffff" stroke="#000000" points="135.5,-38.5 135.5,-57.5 230.5,-57.5 230.5,-38.5 135.5,-38.5"/>
<text text-anchor="middle" x="183" y="-45.5" font-family="Helvetica,sans-Serif" font-size="10.00" fill="#000000">AbstractAPI::stop</text>
</a>
</g>
</g>
<!-- Node13&#45;&gt;Node30 -->
<g id="edge18" class="edge">
<title>Node13&#45;&gt;Node30</title>
<path fill="none" stroke="#191970" d="M54.4557,-133.3699C69.6526,-121.7448 96.2589,-101.7901 120,-86 132.0847,-77.9625 145.8529,-69.5739 157.4295,-62.7291"/>
<polygon fill="#191970" stroke="#191970" points="159.3118,-65.6828 166.1698,-57.607 155.7725,-59.6435 159.3118,-65.6828"/>
</g>
<!-- Node15 -->
<g id="node3" class="node">
<title>Node15</title>
<g id="a_node3"><a xlink:href="../../d3/df5/class_message_processor.html#a081a93455dbac2a750465a3796858d6d" target="_top" xlink:title="Set the Run Flag object. ">
<polygon fill="#ffffff" stroke="#000000" points="282,-190.5 282,-209.5 439,-209.5 439,-190.5 282,-190.5"/>
<text text-anchor="middle" x="360.5" y="-197.5" font-family="Helvetica,sans-Serif" font-size="10.00" fill="#000000">MessageProcessor::setRunFlag</text>
</a>
</g>
</g>
<!-- Node14&#45;&gt;Node15 -->
<g id="edge2" class="edge">
<title>Node14&#45;&gt;Node15</title>
<path fill="none" stroke="#191970" d="M246.0796,-200C254.3876,-200 263.0239,-200 271.6614,-200"/>
<polygon fill="#191970" stroke="#191970" points="271.7819,-203.5001 281.7819,-200 271.7819,-196.5001 271.7819,-203.5001"/>
</g>
<!-- Node16 -->
<g id="node4" class="node">
<title>Node16</title>
<g id="a_node4"><a xlink:href="../../d3/df5/class_message_processor.html#a4a1eaa51c19e417a57f43cff6c459b9b" target="_top" xlink:title="thread body implementation ">
<polygon fill="#ffffff" stroke="#000000" points="282.5,-228.5 282.5,-247.5 438.5,-247.5 438.5,-228.5 282.5,-228.5"/>
<text text-anchor="middle" x="360.5" y="-235.5" font-family="Helvetica,sans-Serif" font-size="10.00" fill="#000000">MessageProcessor::threadBody</text>
</a>
</g>
</g>
<!-- Node14&#45;&gt;Node16 -->
<g id="edge3" class="edge">
<title>Node14&#45;&gt;Node16</title>
<path fill="none" stroke="#191970" d="M227.7907,-209.589C251.5303,-214.6713 280.8839,-220.9554 305.9437,-226.3203"/>
<polygon fill="#191970" stroke="#191970" points="305.5202,-229.8089 316.0313,-228.4799 306.9856,-222.964 305.5202,-229.8089"/>
</g>
<!-- Node17 -->
<g id="node5" class="node">
<title>Node17</title>
<g id="a_node5"><a xlink:href="../../d3/df5/class_message_processor.html#ab0700e40b5ae709cb970294efc37d31f" target="_top" xlink:title="get flag that indicates ">
<polygon fill="#ffffff" stroke="#000000" points="475,-190.5 475,-209.5 632,-209.5 632,-190.5 475,-190.5"/>
<text text-anchor="middle" x="553.5" y="-197.5" font-family="Helvetica,sans-Serif" font-size="10.00" fill="#000000">MessageProcessor::getRunFlag</text>
</a>
</g>
</g>
<!-- Node16&#45;&gt;Node17 -->
<g id="edge4" class="edge">
<title>Node16&#45;&gt;Node17</title>
<path fill="none" stroke="#191970" d="M409.202,-228.411C435.3588,-223.261 467.7837,-216.8768 495.2671,-211.4656"/>
<polygon fill="#191970" stroke="#191970" points="496.0127,-214.886 505.1482,-209.5201 494.6604,-208.0179 496.0127,-214.886"/>
</g>
<!-- Node18 -->
<g id="node6" class="node">
<title>Node18</title>
<g id="a_node6"><a xlink:href="../../d3/d5f/class_abstract_a_p_i.html#a4b114a5c2a103d590a4261f5c95123cd" target="_top" xlink:title="Get the next message in message queue. ">
<polygon fill="#ffffff" stroke="#000000" points="478.5,-266.5 478.5,-285.5 628.5,-285.5 628.5,-266.5 478.5,-266.5"/>
<text text-anchor="middle" x="553.5" y="-273.5" font-family="Helvetica,sans-Serif" font-size="10.00" fill="#000000">AbstractAPI::getNextMessage</text>
</a>
</g>
</g>
<!-- Node16&#45;&gt;Node18 -->
<g id="edge5" class="edge">
<title>Node16&#45;&gt;Node18</title>
<path fill="none" stroke="#191970" d="M409.202,-247.589C435.3588,-252.739 467.7837,-259.1232 495.2671,-264.5344"/>
<polygon fill="#191970" stroke="#191970" points="494.6604,-267.9821 505.1482,-266.4799 496.0127,-261.114 494.6604,-267.9821"/>
</g>
<!-- Node19 -->
<g id="node7" class="node">
<title>Node19</title>
<g id="a_node7"><a xlink:href="../../db/d85/class_data_storage.html#add6db588ead8c9218e88cf332b06e985" target="_top" xlink:title="add new record to the datastore ">
<polygon fill="#ffffff" stroke="#000000" points="491,-228.5 491,-247.5 616,-247.5 616,-228.5 491,-228.5"/>
<text text-anchor="middle" x="553.5" y="-235.5" font-family="Helvetica,sans-Serif" font-size="10.00" fill="#000000">DataStorage::addRecord</text>
</a>
</g>
</g>
<!-- Node16&#45;&gt;Node19 -->
<g id="edge6" class="edge">
<title>Node16&#45;&gt;Node19</title>
<path fill="none" stroke="#191970" d="M438.7223,-238C452.5444,-238 466.8858,-238 480.5555,-238"/>
<polygon fill="#191970" stroke="#191970" points="480.8583,-241.5001 490.8582,-238 480.8582,-234.5001 480.8583,-241.5001"/>
</g>
<!-- Node20 -->
<g id="node8" class="node">
<title>Node20</title>
<g id="a_node8"><a xlink:href="../../dd/d25/namespacefnv.html#a3d5ea8f4e1ac576cc07994d8bc74d051" target="_top" xlink:title="calculate Fnv64a hash from given string ">
<polygon fill="#ffffff" stroke="#000000" points="710,-250.5 710,-269.5 778,-269.5 778,-250.5 710,-250.5"/>
<text text-anchor="middle" x="744" y="-257.5" font-family="Helvetica,sans-Serif" font-size="10.00" fill="#000000">fnv::Fnv64a</text>
</a>
</g>
</g>
<!-- Node19&#45;&gt;Node20 -->
<g id="edge7" class="edge">
<title>Node19&#45;&gt;Node20</title>
<path fill="none" stroke="#191970" d="M616.1407,-245.2341C643.4686,-248.3901 674.8694,-252.0164 699.7136,-254.8856"/>
<polygon fill="#191970" stroke="#191970" points="699.5931,-258.3948 709.9287,-256.0653 700.3963,-251.441 699.5931,-258.3948"/>
</g>
<!-- Node21 -->
<g id="node9" class="node">
<title>Node21</title>
<g id="a_node9"><a xlink:href="../../db/d85/class_data_storage.html#a83711f8d0caac782642317ccba89f6da" target="_top" xlink:title="add measurement record to the database ">
<polygon fill="#ffffff" stroke="#000000" points="668,-201 668,-231 820,-231 820,-201 668,-201"/>
<text text-anchor="start" x="676" y="-219" font-family="Helvetica,sans-Serif" font-size="10.00" fill="#000000">DataStorage::addMeasurement</text>
<text text-anchor="middle" x="744" y="-208" font-family="Helvetica,sans-Serif" font-size="10.00" fill="#000000">Record</text>
</a>
</g>
</g>
<!-- Node19&#45;&gt;Node21 -->
<g id="edge8" class="edge">
<title>Node19&#45;&gt;Node21</title>
<path fill="none" stroke="#191970" d="M616.1407,-230.7659C629.4048,-229.2341 643.6283,-227.5915 657.596,-225.9784"/>
<polygon fill="#191970" stroke="#191970" points="658.1715,-229.4353 667.704,-224.8111 657.3684,-222.4815 658.1715,-229.4353"/>
</g>
<!-- Node23 -->
<g id="node11" class="node">
<title>Node23</title>
<g id="a_node11"><a xlink:href="../../d3/d5f/class_abstract_a_p_i.html#ada2e62db474de8b3aa0ea04e1d759d2e" target="_top" xlink:title="safely sets flag if thread should continue to work ">
<polygon fill="#ffffff" stroke="#000000" points="297.5,-38.5 297.5,-57.5 423.5,-57.5 423.5,-38.5 297.5,-38.5"/>
<text text-anchor="middle" x="360.5" y="-45.5" font-family="Helvetica,sans-Serif" font-size="10.00" fill="#000000">AbstractAPI::setRunFlag</text>
</a>
</g>
</g>
<!-- Node22&#45;&gt;Node23 -->
<g id="edge10" class="edge">
<title>Node22&#45;&gt;Node23</title>
<path fill="none" stroke="#191970" d="M205.5132,-95.4018C225.391,-87.1587 255.2829,-75.3227 282,-67 289.9865,-64.5121 298.5136,-62.152 306.8957,-59.9951"/>
<polygon fill="#191970" stroke="#191970" points="307.7759,-63.3829 316.6278,-57.5611 306.0774,-56.5921 307.7759,-63.3829"/>
</g>
<!-- Node24 -->
<g id="node12" class="node">
<title>Node24</title>
<g id="a_node12"><a xlink:href="../../d3/d5f/class_abstract_a_p_i.html#aaa52851cc8c8e3b49f134b323b9a4507" target="_top" xlink:title="deviced APIs will implement setup procedures ">
<polygon fill="#ffffff" stroke="#000000" points="303.5,-76.5 303.5,-95.5 417.5,-95.5 417.5,-76.5 303.5,-76.5"/>
<text text-anchor="middle" x="360.5" y="-83.5" font-family="Helvetica,sans-Serif" font-size="10.00" fill="#000000">AbstractAPI::setupApi</text>
</a>
</g>
</g>
<!-- Node22&#45;&gt;Node24 -->
<g id="edge11" class="edge">
<title>Node22&#45;&gt;Node24</title>
<path fill="none" stroke="#191970" d="M230.5667,-99.9083C249.8052,-97.849 272.3611,-95.4346 293.2309,-93.2006"/>
<polygon fill="#191970" stroke="#191970" points="293.7481,-96.6654 303.3188,-92.1208 293.003,-89.7051 293.7481,-96.6654"/>
</g>
<!-- Node25 -->
<g id="node13" class="node">
<title>Node25</title>
<g id="a_node13"><a xlink:href="../../d3/d5f/class_abstract_a_p_i.html#a68737cfef2126eddc4f9f2ba4158e4d9" target="_top" xlink:title="thread body representation &#45; a simple loop with no delay ">
<polygon fill="#ffffff" stroke="#000000" points="298,-114.5 298,-133.5 423,-133.5 423,-114.5 298,-114.5"/>
<text text-anchor="middle" x="360.5" y="-121.5" font-family="Helvetica,sans-Serif" font-size="10.00" fill="#000000">AbstractAPI::threadBody</text>
</a>
</g>
</g>
<!-- Node22&#45;&gt;Node25 -->
<g id="edge12" class="edge">
<title>Node22&#45;&gt;Node25</title>
<path fill="none" stroke="#191970" d="M230.5667,-110.0917C248.1437,-111.9731 268.4898,-114.151 287.7893,-116.2169"/>
<polygon fill="#191970" stroke="#191970" points="287.4502,-119.7005 297.766,-117.2848 288.1953,-112.7403 287.4502,-119.7005"/>
</g>
<!-- Node26 -->
<g id="node14" class="node">
<title>Node26</title>
<g id="a_node14"><a xlink:href="../../d3/d5f/class_abstract_a_p_i.html#a3a221fec07fb867640f701bf3113bee2" target="_top" xlink:title="safely returns flag if thread should continue to work ">
<polygon fill="#ffffff" stroke="#000000" points="490.5,-95.5 490.5,-114.5 616.5,-114.5 616.5,-95.5 490.5,-95.5"/>
<text text-anchor="middle" x="553.5" y="-102.5" font-family="Helvetica,sans-Serif" font-size="10.00" fill="#000000">AbstractAPI::getRunFlag</text>
</a>
</g>
</g>
<!-- Node25&#45;&gt;Node26 -->
<g id="edge13" class="edge">
<title>Node25&#45;&gt;Node26</title>
<path fill="none" stroke="#191970" d="M423.1616,-117.8312C441.4483,-116.031 461.5913,-114.048 480.4604,-112.1904"/>
<polygon fill="#191970" stroke="#191970" points="480.8834,-115.6658 490.4924,-111.2028 480.1976,-108.6995 480.8834,-115.6658"/>
</g>
<!-- Node27 -->
<g id="node15" class="node">
<title>Node27</title>
<g id="a_node15"><a xlink:href="../../d3/d5f/class_abstract_a_p_i.html#afb7effe52a40bc6ba22120797fd6133b" target="_top" xlink:title="derived API will implement its runtime ">
<polygon fill="#ffffff" stroke="#000000" points="509,-133.5 509,-152.5 598,-152.5 598,-133.5 509,-133.5"/>
<text text-anchor="middle" x="553.5" y="-140.5" font-family="Helvetica,sans-Serif" font-size="10.00" fill="#000000">AbstractAPI::run</text>
</a>
</g>
</g>
<!-- Node25&#45;&gt;Node27 -->
<g id="edge14" class="edge">
<title>Node25&#45;&gt;Node27</title>
<path fill="none" stroke="#191970" d="M423.1616,-130.1688C447.5149,-132.5662 475.1605,-135.2878 498.7049,-137.6057"/>
<polygon fill="#191970" stroke="#191970" points="498.5691,-141.1091 508.8639,-138.6058 499.255,-134.1428 498.5691,-141.1091"/>
</g>
<!-- Node28&#45;&gt;Node15 -->
<g id="edge16" class="edge">
<title>Node28&#45;&gt;Node15</title>
<path fill="none" stroke="#191970" d="M227.7907,-171.589C251.5303,-176.6713 280.8839,-182.9554 305.9437,-188.3203"/>
<polygon fill="#191970" stroke="#191970" points="305.5202,-191.8089 316.0313,-190.4799 306.9856,-184.964 305.5202,-191.8089"/>
</g>
<!-- Node29 -->
<g id="node17" class="node">
<title>Node29</title>
<g id="a_node17"><a xlink:href="../../d3/df5/class_message_processor.html#ad5470ea591fdda8c4a05391524823a00" target="_top" xlink:title="static method for API to notify message processor that new data are available ">
<polygon fill="#ffffff" stroke="#000000" points="295,-152.5 295,-171.5 426,-171.5 426,-152.5 295,-152.5"/>
<text text-anchor="middle" x="360.5" y="-159.5" font-family="Helvetica,sans-Serif" font-size="10.00" fill="#000000">MessageProcessor::notify</text>
</a>
</g>
</g>
<!-- Node28&#45;&gt;Node29 -->
<g id="edge17" class="edge">
<title>Node28&#45;&gt;Node29</title>
<path fill="none" stroke="#191970" d="M245.5799,-162C258.181,-162 271.5552,-162 284.555,-162"/>
<polygon fill="#191970" stroke="#191970" points="284.8784,-165.5001 294.8784,-162 284.8783,-158.5001 284.8784,-165.5001"/>
</g>
<!-- Node30&#45;&gt;Node23 -->
<g id="edge19" class="edge">
<title>Node30&#45;&gt;Node23</title>
<path fill="none" stroke="#191970" d="M230.5667,-48C247.976,-48 268.1019,-48 287.2367,-48"/>
<polygon fill="#191970" stroke="#191970" points="287.436,-51.5001 297.436,-48 287.436,-44.5001 287.436,-51.5001"/>
</g>
<!-- Node31 -->
<g id="node19" class="node">
<title>Node31</title>
<g id="a_node19"><a xlink:href="../../d3/d5f/class_abstract_a_p_i.html#a0dc4dff87790e5009577d6a6153c7faf" target="_top" xlink:title="derived APIs will implement shutdown procedures ">
<polygon fill="#ffffff" stroke="#000000" points="294.5,-.5 294.5,-19.5 426.5,-19.5 426.5,-.5 294.5,-.5"/>
<text text-anchor="middle" x="360.5" y="-7.5" font-family="Helvetica,sans-Serif" font-size="10.00" fill="#000000">AbstractAPI::shutdownApi</text>
</a>
</g>
</g>
<!-- Node30&#45;&gt;Node31 -->
<g id="edge20" class="edge">
<title>Node30&#45;&gt;Node31</title>
<path fill="none" stroke="#191970" d="M227.7907,-38.411C251.5303,-33.3287 280.8839,-27.0446 305.9437,-21.6797"/>
<polygon fill="#191970" stroke="#191970" points="306.9856,-25.036 316.0313,-19.5201 305.5202,-18.1911 306.9856,-25.036"/>
</g>
</g>
</svg>
        <g id="navigator" transform="translate(0 0)" fill="#404254">
                <rect fill="#f2f5e9" fill-opacity="0.5" stroke="#606060" stroke-width=".5" x="0" y="0" width="60" height="60"/>
                <use id="zoomplus" xlink:href="#zoomPlus" x="17" y="9" onmousedown="handleZoom(evt,'in')"/>
                <use id="zoomminus" xlink:href="#zoomMin" x="42" y="9" onmousedown="handleZoom(evt,'out')"/>
                <use id="reset" xlink:href="#resetDef" x="30" y="36" onmousedown="handleReset()"/>
                <g id="arrowUp" xlink:href="#dirArrow" transform="translate(30 24)" onmousedown="handlePan(0,-1)">
                  <use xlink:href="#rim" fill="#404040">
                        <set attributeName="fill" to="#808080" begin="arrowUp.mouseover" end="arrowUp.mouseout"/>
                  </use>
                  <path fill="none" stroke="white" stroke-width="1.5" d="M0,-3.0v7 M-2.5,-0.5L0,-3.0L2.5,-0.5"/>
                </g>
                <g id="arrowRight" xlink:href="#dirArrow" transform="rotate(90) translate(36 -43)" onmousedown="handlePan(1,0)">
                  <use xlink:href="#rim" fill="#404040">
                        <set attributeName="fill" to="#808080" begin="arrowRight.mouseover" end="arrowRight.mouseout"/>
                  </use>
                  <path fill="none" stroke="white" stroke-width="1.5" d="M0,-3.0v7 M-2.5,-0.5L0,-3.0L2.5,-0.5"/>
                </g>
                <g id="arrowDown" xlink:href="#dirArrow" transform="rotate(180) translate(-30 -48)" onmousedown="handlePan(0,1)">
                  <use xlink:href="#rim" fill="#404040">
                        <set attributeName="fill" to="#808080" begin="arrowDown.mouseover" end="arrowDown.mouseout"/>
                  </use>
                  <path fill="none" stroke="white" stroke-width="1.5" d="M0,-3.0v7 M-2.5,-0.5L0,-3.0L2.5,-0.5"/>
                </g>
                <g id="arrowLeft" xlink:href="#dirArrow" transform="rotate(270) translate(-36 17)" onmousedown="handlePan(-1,0)">
                  <use xlink:href="#rim" fill="#404040">
                        <set attributeName="fill" to="#808080" begin="arrowLeft.mouseover" end="arrowLeft.mouseout"/>
                  </use>
                  <path fill="none" stroke="white" stroke-width="1.5" d="M0,-3.0v7 M-2.5,-0.5L0,-3.0L2.5,-0.5"/>
                </g>
        </g>
        <svg viewBox="0 0 15 15" width="100%" height="30px" preserveAspectRatio="xMaxYMin meet">
         <g id="arrow_out" transform="scale(0.3 0.3)">
          <a xlink:href="class_application_a7fbff10e3b66542f549f6c693ec4e676_cgraph_org.svg" target="_base">
           <rect id="button" ry="5" rx="5" y="6" x="6" height="38" width="38"
                fill="#f2f5e9" fill-opacity="0.5" stroke="#606060" stroke-width="1.0"/>
           <path id="arrow"
             d="M 11.500037,31.436501 C 11.940474,20.09759 22.043105,11.32322 32.158766,21.979434 L 37.068811,17.246167 C 37.068811,17.246167 37.088388,32 37.088388,32 L 22.160133,31.978069 C 22.160133,31.978069 26.997745,27.140456 26.997745,27.140456 C 18.528582,18.264221 13.291696,25.230495 11.500037,31.436501 z"
             style="fill:#404040;"/>
          </a>
         </g>
        </svg>
</svg>
