<?xml version="1.0" encoding="UTF-8" standalone="no"?>
<!DOCTYPE svg PUBLIC "-//W3C//DTD SVG 1.1//EN"
 "http://www.w3.org/Graphics/SVG/1.1/DTD/svg11.dtd">
<!-- Generated by graphviz version 2.40.1 (20161225.0304)
 -->
<!-- Title: Application::get Pages: 1 -->
<svg width="388pt" height="47pt"
 viewBox="0.00 0.00 388.00 47.00" xmlns="http://www.w3.org/2000/svg" xmlns:xlink="http://www.w3.org/1999/xlink">
<g id="graph0" class="graph" transform="scale(1 1) rotate(0) translate(4 43)">
<title>Application::get</title>
<polygon fill="#ffffff" stroke="transparent" points="-4,4 -4,-43 384,-43 384,4 -4,4"/>
<!-- Node7 -->
<g id="node1" class="node">
<title>Node7</title>
<polygon fill="#bfbfbf" stroke="#000000" points="0,-19.5 0,-38.5 84,-38.5 84,-19.5 0,-19.5"/>
<text text-anchor="middle" x="42" y="-26.5" font-family="Helvetica,sans-Serif" font-size="10.00" fill="#000000">Application::get</text>
</g>
<!-- Node8 -->
<g id="node2" class="node">
<title>Node8</title>
<g id="a_node2"><a xlink:href="../../df/d0a/main_8cpp.html#a840291bc02cba5474a4cb46a9b9566fe" target="_top" xlink:title="main">
<polygon fill="#ffffff" stroke="#000000" points="342,-19.5 342,-38.5 380,-38.5 380,-19.5 342,-19.5"/>
<text text-anchor="middle" x="361" y="-26.5" font-family="Helvetica,sans-Serif" font-size="10.00" fill="#000000">main</text>
</a>
</g>
</g>
<!-- Node7&#45;&gt;Node8 -->
<g id="edge1" class="edge">
<title>Node7&#45;&gt;Node8</title>
<path fill="none" stroke="#191970" d="M94.2866,-29C166.5917,-29 293.6352,-29 341.776,-29"/>
<polygon fill="#191970" stroke="#191970" points="94.0317,-25.5001 84.0317,-29 94.0317,-32.5001 94.0317,-25.5001"/>
</g>
<!-- Node9 -->
<g id="node3" class="node">
<title>Node9</title>
<g id="a_node3"><a xlink:href="../../df/d0a/main_8cpp.html#adad1029c9dc4631507923fa3ed8ba868" target="_top" xlink:title="signalHandler">
<polygon fill="#ffffff" stroke="#000000" points="120,-.5 120,-19.5 196,-19.5 196,-.5 120,-.5"/>
<text text-anchor="middle" x="158" y="-7.5" font-family="Helvetica,sans-Serif" font-size="10.00" fill="#000000">signalHandler</text>
</a>
</g>
</g>
<!-- Node7&#45;&gt;Node9 -->
<g id="edge2" class="edge">
<title>Node7&#45;&gt;Node9</title>
<path fill="none" stroke="#191970" d="M94.2175,-20.4471C102.8523,-19.0328 111.6598,-17.5902 119.8641,-16.2464"/>
<polygon fill="#191970" stroke="#191970" points="93.5095,-17.0164 84.2068,-22.0868 94.6411,-23.9243 93.5095,-17.0164"/>
</g>
<!-- Node10 -->
<g id="node4" class="node">
<title>Node10</title>
<g id="a_node4"><a xlink:href="../../df/d0a/main_8cpp.html#a59a5d10c3e8acb2a11dad76e5d644020" target="_top" xlink:title="initProcedure">
<polygon fill="#ffffff" stroke="#000000" points="232,-.5 232,-19.5 306,-19.5 306,-.5 232,-.5"/>
<text text-anchor="middle" x="269" y="-7.5" font-family="Helvetica,sans-Serif" font-size="10.00" fill="#000000">initProcedure</text>
</a>
</g>
</g>
<!-- Node9&#45;&gt;Node10 -->
<g id="edge3" class="edge">
<title>Node9&#45;&gt;Node10</title>
<path fill="none" stroke="#191970" d="M206.429,-10C214.9522,-10 223.7016,-10 231.8553,-10"/>
<polygon fill="#191970" stroke="#191970" points="206.1999,-6.5001 196.1999,-10 206.1999,-13.5001 206.1999,-6.5001"/>
</g>
<!-- Node10&#45;&gt;Node8 -->
<g id="edge4" class="edge">
<title>Node10&#45;&gt;Node8</title>
<path fill="none" stroke="#191970" d="M316.0466,-19.7162C325.2061,-21.6078 334.3102,-23.488 341.9053,-25.0565"/>
<polygon fill="#191970" stroke="#191970" points="316.656,-16.2682 306.1547,-17.6733 315.2402,-23.1235 316.656,-16.2682"/>
</g>
</g>
</svg>
