<?xml version="1.0" encoding="UTF-8" standalone="no"?>
<!DOCTYPE svg PUBLIC "-//W3C//DTD SVG 1.1//EN"
 "http://www.w3.org/Graphics/SVG/1.1/DTD/svg11.dtd">
<!-- Generated by graphviz version 2.40.1 (20161225.0304)
 -->
<!-- Title: DataStorage::DeviceRecord Pages: 1 -->
<svg width="288pt" height="319pt"
 viewBox="0.00 0.00 288.00 319.00" xmlns="http://www.w3.org/2000/svg" xmlns:xlink="http://www.w3.org/1999/xlink">
<g id="graph0" class="graph" transform="scale(1 1) rotate(0) translate(4 315)">
<title>DataStorage::DeviceRecord</title>
<polygon fill="#ffffff" stroke="transparent" points="-4,4 -4,-315 284,-315 284,4 -4,4"/>
<!-- Node1 -->
<g id="node1" class="node">
<title>Node1</title>
<polygon fill="#bfbfbf" stroke="#000000" points="140,-.5 140,-19.5 280,-19.5 280,-.5 140,-.5"/>
<text text-anchor="middle" x="210" y="-7.5" font-family="Helvetica,sans-Serif" font-size="10.00" fill="#000000">DataStorage::DeviceRecord</text>
</g>
<!-- Node2 -->
<g id="node2" class="node">
<title>Node2</title>
<g id="a_node2"><a xlink:title="STL class. ">
<polygon fill="#ffffff" stroke="#bfbfbf" points="201,-223.5 201,-242.5 261,-242.5 261,-223.5 201,-223.5"/>
<text text-anchor="middle" x="231" y="-230.5" font-family="Helvetica,sans-Serif" font-size="10.00" fill="#000000">std::string</text>
</a>
</g>
</g>
<!-- Node2&#45;&gt;Node1 -->
<g id="edge1" class="edge">
<title>Node2&#45;&gt;Node1</title>
<path fill="none" stroke="#9a32cd" stroke-dasharray="5,2" d="M237.1413,-213.3159C247.3501,-176.9799 264.3181,-97.6384 239,-38 235.8823,-30.6561 229.7905,-24.3004 223.9917,-19.509"/>
<polygon fill="#9a32cd" stroke="#9a32cd" points="233.715,-212.5609 234.2444,-223.1425 240.4293,-214.5404 233.715,-212.5609"/>
<text text-anchor="middle" x="266" y="-124.5" font-family="Helvetica,sans-Serif" font-size="10.00" fill="#000000"> name</text>
</g>
<!-- Node5 -->
<g id="node5" class="node">
<title>Node5</title>
<g id="a_node5"><a xlink:href="../../de/dfd/struct_data_storage_1_1_value.html" target="_top" xlink:title="DataStorage::Value">
<polygon fill="#ffffff" stroke="#000000" points="123,-156.5 123,-175.5 225,-175.5 225,-156.5 123,-156.5"/>
<text text-anchor="middle" x="174" y="-163.5" font-family="Helvetica,sans-Serif" font-size="10.00" fill="#000000">DataStorage::Value</text>
</a>
</g>
</g>
<!-- Node2&#45;&gt;Node5 -->
<g id="edge5" class="edge">
<title>Node2&#45;&gt;Node5</title>
<path fill="none" stroke="#9a32cd" stroke-dasharray="5,2" d="M216.2946,-215.7147C205.4274,-202.941 191.034,-186.0224 182.1516,-175.5817"/>
<polygon fill="#9a32cd" stroke="#9a32cd" points="213.6877,-218.0519 222.8333,-223.4005 219.0193,-213.516 213.6877,-218.0519"/>
<text text-anchor="middle" x="219" y="-197" font-family="Helvetica,sans-Serif" font-size="10.00" fill="#000000"> name</text>
</g>
<!-- Node3 -->
<g id="node3" class="node">
<title>Node3</title>
<g id="a_node3"><a xlink:title="STL class. ">
<polygon fill="#ffffff" stroke="#bfbfbf" points="183.5,-280.5 183.5,-310.5 278.5,-310.5 278.5,-280.5 183.5,-280.5"/>
<text text-anchor="start" x="191.5" y="-298.5" font-family="Helvetica,sans-Serif" font-size="10.00" fill="#000000">std::basic_string&lt;</text>
<text text-anchor="middle" x="231" y="-287.5" font-family="Helvetica,sans-Serif" font-size="10.00" fill="#000000"> char &gt;</text>
</a>
</g>
</g>
<!-- Node3&#45;&gt;Node2 -->
<g id="edge2" class="edge">
<title>Node3&#45;&gt;Node2</title>
<path fill="none" stroke="#191970" d="M231,-270.3498C231,-260.6481 231,-250.1303 231,-242.7356"/>
<polygon fill="#191970" stroke="#191970" points="227.5001,-270.3705 231,-280.3705 234.5001,-270.3705 227.5001,-270.3705"/>
</g>
<!-- Node4 -->
<g id="node4" class="node">
<title>Node4</title>
<polygon fill="#ffffff" stroke="#bfbfbf" points="111,-67.5 111,-97.5 225,-97.5 225,-67.5 111,-67.5"/>
<text text-anchor="start" x="119" y="-85.5" font-family="Helvetica,sans-Serif" font-size="10.00" fill="#000000">std::map&lt; valueId,</text>
<text text-anchor="middle" x="168" y="-74.5" font-family="Helvetica,sans-Serif" font-size="10.00" fill="#000000"> DataStorage::Value &gt;</text>
</g>
<!-- Node4&#45;&gt;Node1 -->
<g id="edge3" class="edge">
<title>Node4&#45;&gt;Node1</title>
<path fill="none" stroke="#9a32cd" stroke-dasharray="5,2" d="M165.9726,-56.7597C166.4519,-50.3134 167.8648,-43.6352 171,-38 175.2956,-30.2793 182.7203,-24.1517 189.9465,-19.6217"/>
<polygon fill="#9a32cd" stroke="#9a32cd" points="162.4703,-57.1426 165.9081,-67.1642 169.4701,-57.1861 162.4703,-57.1426"/>
<text text-anchor="middle" x="205" y="-41" font-family="Helvetica,sans-Serif" font-size="10.00" fill="#000000"> measurements</text>
</g>
<!-- Node5&#45;&gt;Node4 -->
<g id="edge4" class="edge">
<title>Node5&#45;&gt;Node4</title>
<path fill="none" stroke="#9a32cd" stroke-dasharray="5,2" d="M172.5803,-146.2427C171.5098,-131.345 170.0636,-111.2186 169.0848,-97.597"/>
<polygon fill="#9a32cd" stroke="#9a32cd" points="169.1039,-146.6981 173.3117,-156.4215 176.0859,-146.1963 169.1039,-146.6981"/>
<text text-anchor="middle" x="192.5" y="-124.5" font-family="Helvetica,sans-Serif" font-size="10.00" fill="#000000"> elements</text>
</g>
<!-- Node6 -->
<g id="node6" class="node">
<title>Node6</title>
<g id="a_node6"><a xlink:title="STL class. ">
<polygon fill="#ffffff" stroke="#bfbfbf" points="0,-156.5 0,-175.5 92,-175.5 92,-156.5 0,-156.5"/>
<text text-anchor="middle" x="46" y="-163.5" font-family="Helvetica,sans-Serif" font-size="10.00" fill="#000000">std::map&lt; K, T &gt;</text>
</a>
</g>
</g>
<!-- Node6&#45;&gt;Node4 -->
<g id="edge6" class="edge">
<title>Node6&#45;&gt;Node4</title>
<path fill="none" stroke="#ffa500" stroke-dasharray="5,2" d="M47.5785,-146.0495C49.3733,-135.8538 53.1411,-123.9534 61,-116 68.5591,-108.3499 89.5282,-101.0625 110.9222,-95.25"/>
<polygon fill="#ffa500" stroke="#ffa500" points="44.0802,-145.818 46.3052,-156.1765 51.0255,-146.6913 44.0802,-145.818"/>
<text text-anchor="start" x="61" y="-130" font-family="Helvetica,sans-Serif" font-size="10.00" fill="#000000"> &lt; valueId, DataStorage</text>
<text text-anchor="middle" x="113.5" y="-119" font-family="Helvetica,sans-Serif" font-size="10.00" fill="#000000">::Value &gt;</text>
</g>
<!-- Node7 -->
<g id="node7" class="node">
<title>Node7</title>
<polygon fill="#ffffff" stroke="#bfbfbf" points="7.5,-223.5 7.5,-242.5 36.5,-242.5 36.5,-223.5 7.5,-223.5"/>
<text text-anchor="middle" x="22" y="-230.5" font-family="Helvetica,sans-Serif" font-size="10.00" fill="#000000">K</text>
</g>
<!-- Node7&#45;&gt;Node6 -->
<g id="edge7" class="edge">
<title>Node7&#45;&gt;Node6</title>
<path fill="none" stroke="#9a32cd" stroke-dasharray="5,2" d="M20.0243,-213.0305C20.0557,-206.7726 20.7831,-199.9502 23,-194 25.5917,-187.0439 30.6809,-180.5515 35.4145,-175.5732"/>
<polygon fill="#9a32cd" stroke="#9a32cd" points="16.5468,-213.5643 20.5479,-223.3745 23.5378,-213.2103 16.5468,-213.5643"/>
<text text-anchor="middle" x="35.5" y="-197" font-family="Helvetica,sans-Serif" font-size="10.00" fill="#000000"> keys</text>
</g>
<!-- Node8 -->
<g id="node8" class="node">
<title>Node8</title>
<polygon fill="#ffffff" stroke="#bfbfbf" points="55.5,-223.5 55.5,-242.5 84.5,-242.5 84.5,-223.5 55.5,-223.5"/>
<text text-anchor="middle" x="70" y="-230.5" font-family="Helvetica,sans-Serif" font-size="10.00" fill="#000000">T</text>
</g>
<!-- Node8&#45;&gt;Node6 -->
<g id="edge8" class="edge">
<title>Node8&#45;&gt;Node6</title>
<path fill="none" stroke="#9a32cd" stroke-dasharray="5,2" d="M63.1449,-213.8628C58.6607,-201.3444 52.9941,-185.5252 49.4322,-175.5817"/>
<polygon fill="#9a32cd" stroke="#9a32cd" points="59.8941,-215.1666 66.5614,-223.4005 66.484,-212.806 59.8941,-215.1666"/>
<text text-anchor="middle" x="81.5" y="-197" font-family="Helvetica,sans-Serif" font-size="10.00" fill="#000000"> elements</text>
</g>
</g>
</svg>
