<?xml version="1.0" encoding="UTF-8" standalone="no"?>
<!DOCTYPE svg PUBLIC "-//W3C//DTD SVG 1.1//EN"
 "http://www.w3.org/Graphics/SVG/1.1/DTD/svg11.dtd">
<!-- Generated by graphviz version 2.40.1 (20161225.0304)
 -->
<!-- Title: Application Pages: 1 -->
<!--zoomable 395 -->
<svg id="main" version="1.1" xmlns="http://www.w3.org/2000/svg" xmlns:xlink="http://www.w3.org/1999/xlink" xml:space="preserve" onload="init(evt)">
<style type="text/css"><![CDATA[
.edge:hover path { stroke: red; }
.edge:hover polygon { stroke: red; fill: red; }
]]></style>
<script type="text/javascript"><![CDATA[
var edges = document.getElementsByTagName('g');
if (edges && edges.length) {
  for (var i=0;i<edges.length;i++) {
    if (edges[i].id.substr(0,4)=='edge') {
      edges[i].setAttribute('class','edge');
    }
  }
}
]]></script>
        <defs>
                <circle id="rim" cx="0" cy="0" r="7"/>
                <circle id="rim2" cx="0" cy="0" r="3.5"/>
                <g id="zoomPlus">
                        <use xlink:href="#rim" fill="#404040">
                                <set attributeName="fill" to="#808080" begin="zoomplus.mouseover" end="zoomplus.mouseout"/>
                        </use>
                        <path d="M-4,0h8M0,-4v8" fill="none" stroke="white" stroke-width="1.5" pointer-events="none"/>
                </g>
                <g id="zoomMin">
                        <use xlink:href="#rim" fill="#404040">
                                <set attributeName="fill" to="#808080" begin="zoomminus.mouseover" end="zoomminus.mouseout"/>
                        </use>
                        <path d="M-4,0h8" fill="none" stroke="white" stroke-width="1.5" pointer-events="none"/>
                </g>
                <g id="dirArrow">
                        <path fill="none" stroke="white" stroke-width="1.5" d="M0,-3.0v7 M-2.5,-0.5L0,-3.0L2.5,-0.5"/>
                </g>
               <g id="resetDef">
                       <use xlink:href="#rim2" fill="#404040">
                               <set attributeName="fill" to="#808080" begin="reset.mouseover" end="reset.mouseout"/>
                       </use>
               </g>
        </defs>

<script type="text/javascript">
var viewWidth = 1530;
var viewHeight = 395;
var sectionId = 'dynsection-0';
</script>
<script xlink:href="../../svgpan.js"/>
<svg id="graph" class="graph">
<g id="viewport">
<title>Application</title>
<polygon fill="#ffffff" stroke="transparent" points="-4,4 -4,-391 1526,-391 1526,4 -4,4"/>
<!-- Node1 -->
<g id="node1" class="node">
<title>Node1</title>
<polygon fill="#bfbfbf" stroke="#000000" points="1457,-253.5 1457,-272.5 1522,-272.5 1522,-253.5 1457,-253.5"/>
<text text-anchor="middle" x="1489.5" y="-260.5" font-family="Helvetica,sans-Serif" font-size="10.00" fill="#000000">Application</text>
</g>
<!-- Node2 -->
<g id="node2" class="node">
<title>Node2</title>
<g id="a_node2"><a xlink:href="../../d3/d5f/class_abstract_a_p_i.html" target="_top" xlink:title="AbstractAPI">
<polygon fill="#ffffff" stroke="#000000" points="896,-273.5 896,-292.5 966,-292.5 966,-273.5 896,-273.5"/>
<text text-anchor="middle" x="931" y="-280.5" font-family="Helvetica,sans-Serif" font-size="10.00" fill="#000000">AbstractAPI</text>
</a>
</g>
</g>
<!-- Node2&#45;&gt;Node1 -->
<g id="edge1" class="edge">
<title>Node2&#45;&gt;Node1</title>
<path fill="none" stroke="#9a32cd" stroke-dasharray="5,2" d="M976.4128,-281.3738C1085.7827,-277.4572 1361.7616,-267.5743 1456.768,-264.1721"/>
<polygon fill="#9a32cd" stroke="#9a32cd" points="976.2287,-277.878 966.3604,-281.7337 976.4793,-284.8735 976.2287,-277.878"/>
<text text-anchor="middle" x="1273" y="-274" font-family="Helvetica,sans-Serif" font-size="10.00" fill="#000000"> api</text>
</g>
<!-- Node19 -->
<g id="node19" class="node">
<title>Node19</title>
<g id="a_node19"><a xlink:href="../../d3/df5/class_message_processor.html" target="_top" xlink:title="MessageProcessor">
<polygon fill="#ffffff" stroke="#000000" points="1105.5,-299.5 1105.5,-318.5 1206.5,-318.5 1206.5,-299.5 1105.5,-299.5"/>
<text text-anchor="middle" x="1156" y="-306.5" font-family="Helvetica,sans-Serif" font-size="10.00" fill="#000000">MessageProcessor</text>
</a>
</g>
</g>
<!-- Node2&#45;&gt;Node19 -->
<g id="edge26" class="edge">
<title>Node2&#45;&gt;Node19</title>
<path fill="none" stroke="#9a32cd" stroke-dasharray="5,2" d="M976.2424,-288.228C1013.5567,-292.5399 1066.4687,-298.6542 1105.2251,-303.1327"/>
<polygon fill="#9a32cd" stroke="#9a32cd" points="976.4919,-284.7336 966.1563,-287.0625 975.6883,-291.6874 976.4919,-284.7336"/>
<text text-anchor="middle" x="1040.5" y="-300" font-family="Helvetica,sans-Serif" font-size="10.00" fill="#000000"> api</text>
</g>
<!-- Node3 -->
<g id="node3" class="node">
<title>Node3</title>
<g id="a_node3"><a xlink:title="STL class. ">
<polygon fill="#ffffff" stroke="#bfbfbf" points="132,-67.5 132,-86.5 192,-86.5 192,-67.5 132,-67.5"/>
<text text-anchor="middle" x="162" y="-74.5" font-family="Helvetica,sans-Serif" font-size="10.00" fill="#000000">std::string</text>
</a>
</g>
</g>
<!-- Node3&#45;&gt;Node2 -->
<g id="edge2" class="edge">
<title>Node3&#45;&gt;Node2</title>
<path fill="none" stroke="#9a32cd" stroke-dasharray="5,2" d="M170.4881,-96.3074C183.2571,-125.1598 206.3133,-176.4399 210,-179 302.4956,-243.23 603.5791,-204.6804 715,-221 772.527,-229.4258 787.3408,-231.1953 843,-248 866.4527,-255.0808 892.4159,-265.7758 910.0224,-273.479"/>
<polygon fill="#9a32cd" stroke="#9a32cd" points="173.543,-94.5604 166.3042,-86.8241 167.1386,-97.386 173.543,-94.5604"/>
<text text-anchor="middle" x="468" y="-220" font-family="Helvetica,sans-Serif" font-size="10.00" fill="#000000"> jsonSchema</text>
</g>
<!-- Node12 -->
<g id="node12" class="node">
<title>Node12</title>
<g id="a_node12"><a xlink:href="../../db/d85/class_data_storage.html" target="_top" xlink:title="DataStorage">
<polygon fill="#ffffff" stroke="#000000" points="1314,-124.5 1314,-143.5 1385,-143.5 1385,-124.5 1314,-124.5"/>
<text text-anchor="middle" x="1349.5" y="-131.5" font-family="Helvetica,sans-Serif" font-size="10.00" fill="#000000">DataStorage</text>
</a>
</g>
</g>
<!-- Node3&#45;&gt;Node12 -->
<g id="edge14" class="edge">
<title>Node3&#45;&gt;Node12</title>
<path fill="none" stroke="#9a32cd" stroke-dasharray="5,2" d="M181.301,-60.7996C210.2412,-38.2132 267.4817,0 323.5,0 323.5,0 323.5,0 1156,0 1243.4459,0 1319.9093,-93.6381 1342.6452,-124.3631"/>
<polygon fill="#9a32cd" stroke="#9a32cd" points="178.872,-58.261 173.2608,-67.2479 183.2516,-63.7217 178.872,-58.261"/>
<text text-anchor="middle" x="788" y="-36" font-family="Helvetica,sans-Serif" font-size="10.00" fill="#000000"> key_name</text>
<text text-anchor="middle" x="788" y="-25" font-family="Helvetica,sans-Serif" font-size="10.00" fill="#000000">key_voltage</text>
<text text-anchor="middle" x="788" y="-14" font-family="Helvetica,sans-Serif" font-size="10.00" fill="#000000">key_current</text>
<text text-anchor="middle" x="788" y="-3" font-family="Helvetica,sans-Serif" font-size="10.00" fill="#000000">key_temperature</text>
</g>
<!-- Node14 -->
<g id="node14" class="node">
<title>Node14</title>
<g id="a_node14"><a xlink:href="../../de/d11/struct_data_storage_1_1_device_record.html" target="_top" xlink:title="DataStorage::DeviceRecord">
<polygon fill="#ffffff" stroke="#000000" points="861,-101.5 861,-120.5 1001,-120.5 1001,-101.5 861,-101.5"/>
<text text-anchor="middle" x="931" y="-108.5" font-family="Helvetica,sans-Serif" font-size="10.00" fill="#000000">DataStorage::DeviceRecord</text>
</a>
</g>
</g>
<!-- Node3&#45;&gt;Node14 -->
<g id="edge17" class="edge">
<title>Node3&#45;&gt;Node14</title>
<path fill="none" stroke="#9a32cd" stroke-dasharray="5,2" d="M202.2297,-75.8042C293.5722,-73.4938 523.5567,-69.9575 715,-86 763.7159,-90.0823 818.4181,-96.4318 860.584,-101.7101"/>
<polygon fill="#9a32cd" stroke="#9a32cd" points="201.9476,-72.3103 192.0429,-76.0716 202.1314,-79.3079 201.9476,-72.3103"/>
<text text-anchor="middle" x="468" y="-80" font-family="Helvetica,sans-Serif" font-size="10.00" fill="#000000"> name</text>
</g>
<!-- Node16 -->
<g id="node16" class="node">
<title>Node16</title>
<g id="a_node16"><a xlink:href="../../de/dfd/struct_data_storage_1_1_value.html" target="_top" xlink:title="DataStorage::Value">
<polygon fill="#ffffff" stroke="#000000" points="272.5,-87.5 272.5,-106.5 374.5,-106.5 374.5,-87.5 272.5,-87.5"/>
<text text-anchor="middle" x="323.5" y="-94.5" font-family="Helvetica,sans-Serif" font-size="10.00" fill="#000000">DataStorage::Value</text>
</a>
</g>
</g>
<!-- Node3&#45;&gt;Node16 -->
<g id="edge20" class="edge">
<title>Node3&#45;&gt;Node16</title>
<path fill="none" stroke="#9a32cd" stroke-dasharray="5,2" d="M202.3364,-81.9952C223.5189,-84.6184 249.7004,-87.8607 272.2999,-90.6594"/>
<polygon fill="#9a32cd" stroke="#9a32cd" points="202.7313,-78.5175 192.3769,-80.7618 201.8709,-85.4644 202.7313,-78.5175"/>
<text text-anchor="middle" x="231.5" y="-92" font-family="Helvetica,sans-Serif" font-size="10.00" fill="#000000"> name</text>
</g>
<!-- Node4 -->
<g id="node4" class="node">
<title>Node4</title>
<g id="a_node4"><a xlink:title="STL class. ">
<polygon fill="#ffffff" stroke="#bfbfbf" points="0,-62 0,-92 95,-92 95,-62 0,-62"/>
<text text-anchor="start" x="8" y="-80" font-family="Helvetica,sans-Serif" font-size="10.00" fill="#000000">std::basic_string&lt;</text>
<text text-anchor="middle" x="47.5" y="-69" font-family="Helvetica,sans-Serif" font-size="10.00" fill="#000000"> char &gt;</text>
</a>
</g>
</g>
<!-- Node4&#45;&gt;Node3 -->
<g id="edge3" class="edge">
<title>Node4&#45;&gt;Node3</title>
<path fill="none" stroke="#191970" d="M105.3356,-77C114.4701,-77 123.5847,-77 131.7491,-77"/>
<polygon fill="#191970" stroke="#191970" points="105.0636,-73.5001 95.0636,-77 105.0636,-80.5001 105.0636,-73.5001"/>
</g>
<!-- Node5 -->
<g id="node5" class="node">
<title>Node5</title>
<polygon fill="#ffffff" stroke="#bfbfbf" points="560,-230.5 560,-249.5 715,-249.5 715,-230.5 560,-230.5"/>
<text text-anchor="middle" x="637.5" y="-237.5" font-family="Helvetica,sans-Serif" font-size="10.00" fill="#000000">std::queue&lt; pJsonMessage_t &gt;</text>
</g>
<!-- Node5&#45;&gt;Node2 -->
<g id="edge4" class="edge">
<title>Node5&#45;&gt;Node2</title>
<path fill="none" stroke="#9a32cd" stroke-dasharray="5,2" d="M722.0613,-250.8748C759.2047,-255.8185 803.3106,-261.9152 843,-268 860.4638,-270.6774 879.8246,-273.9448 895.9298,-276.7458"/>
<polygon fill="#9a32cd" stroke="#9a32cd" points="722.1523,-247.3563 711.7791,-249.512 721.2325,-254.2956 722.1523,-247.3563"/>
<text text-anchor="middle" x="788" y="-271" font-family="Helvetica,sans-Serif" font-size="10.00" fill="#000000"> messageQueue</text>
</g>
<!-- Node6 -->
<g id="node6" class="node">
<title>Node6</title>
<g id="a_node6"><a xlink:title="STL class. ">
<polygon fill="#ffffff" stroke="#bfbfbf" points="280.5,-245.5 280.5,-264.5 366.5,-264.5 366.5,-245.5 280.5,-245.5"/>
<text text-anchor="middle" x="323.5" y="-252.5" font-family="Helvetica,sans-Serif" font-size="10.00" fill="#000000">std::queue&lt; T &gt;</text>
</a>
</g>
</g>
<!-- Node6&#45;&gt;Node5 -->
<g id="edge5" class="edge">
<title>Node6&#45;&gt;Node5</title>
<path fill="none" stroke="#ffa500" stroke-dasharray="5,2" d="M376.4953,-252.4684C426.6941,-250.0703 502.6772,-246.4406 559.7363,-243.7148"/>
<polygon fill="#ffa500" stroke="#ffa500" points="376.3235,-248.9725 366.502,-252.9458 376.6576,-255.9645 376.3235,-248.9725"/>
<text text-anchor="middle" x="468" y="-254" font-family="Helvetica,sans-Serif" font-size="10.00" fill="#000000"> &lt; pJsonMessage_t &gt;</text>
</g>
<!-- Node7 -->
<g id="node7" class="node">
<title>Node7</title>
<polygon fill="#ffffff" stroke="#bfbfbf" points="147.5,-259.5 147.5,-278.5 176.5,-278.5 176.5,-259.5 147.5,-259.5"/>
<text text-anchor="middle" x="162" y="-266.5" font-family="Helvetica,sans-Serif" font-size="10.00" fill="#000000">T</text>
</g>
<!-- Node7&#45;&gt;Node6 -->
<g id="edge6" class="edge">
<title>Node7&#45;&gt;Node6</title>
<path fill="none" stroke="#9a32cd" stroke-dasharray="5,2" d="M186.666,-266.8618C211.5465,-264.705 250.4626,-261.3314 280.4422,-258.7326"/>
<polygon fill="#9a32cd" stroke="#9a32cd" points="186.2772,-263.3823 176.6169,-267.7329 186.8818,-270.3561 186.2772,-263.3823"/>
<text text-anchor="middle" x="231.5" y="-267" font-family="Helvetica,sans-Serif" font-size="10.00" fill="#000000"> elements</text>
</g>
<!-- Node9 -->
<g id="node9" class="node">
<title>Node9</title>
<g id="a_node9"><a xlink:title="STL class. ">
<polygon fill="#ffffff" stroke="#bfbfbf" points="271,-293.5 271,-312.5 376,-312.5 376,-293.5 271,-293.5"/>
<text text-anchor="middle" x="323.5" y="-300.5" font-family="Helvetica,sans-Serif" font-size="10.00" fill="#000000">std::unique_ptr&lt; T &gt;</text>
</a>
</g>
</g>
<!-- Node7&#45;&gt;Node9 -->
<g id="edge9" class="edge">
<title>Node7&#45;&gt;Node9</title>
<path fill="none" stroke="#9a32cd" stroke-dasharray="5,2" d="M186.4447,-274.1462C210.744,-279.2619 248.5868,-287.2288 278.3564,-293.4961"/>
<polygon fill="#9a32cd" stroke="#9a32cd" points="187.1235,-270.7125 176.6169,-272.0772 185.6813,-277.5623 187.1235,-270.7125"/>
<text text-anchor="middle" x="231.5" y="-291" font-family="Helvetica,sans-Serif" font-size="10.00" fill="#000000"> ptr</text>
</g>
<!-- Node17 -->
<g id="node17" class="node">
<title>Node17</title>
<g id="a_node17"><a xlink:title="STL class. ">
<polygon fill="#ffffff" stroke="#bfbfbf" points="277.5,-154.5 277.5,-173.5 369.5,-173.5 369.5,-154.5 277.5,-154.5"/>
<text text-anchor="middle" x="323.5" y="-161.5" font-family="Helvetica,sans-Serif" font-size="10.00" fill="#000000">std::map&lt; K, T &gt;</text>
</a>
</g>
</g>
<!-- Node7&#45;&gt;Node17 -->
<g id="edge23" class="edge">
<title>Node7&#45;&gt;Node17</title>
<path fill="none" stroke="#9a32cd" stroke-dasharray="5,2" d="M185.3375,-253.827C219.0322,-231.9203 280.3517,-192.0531 308.5655,-173.7097"/>
<polygon fill="#9a32cd" stroke="#9a32cd" points="183.093,-251.1116 176.6169,-259.4968 186.9085,-256.9803 183.093,-251.1116"/>
<text text-anchor="middle" x="231.5" y="-238" font-family="Helvetica,sans-Serif" font-size="10.00" fill="#000000"> elements</text>
</g>
<!-- Node8 -->
<g id="node8" class="node">
<title>Node8</title>
<polygon fill="#ffffff" stroke="#bfbfbf" points="573,-269 573,-299 702,-299 702,-269 573,-269"/>
<text text-anchor="start" x="581" y="-287" font-family="Helvetica,sans-Serif" font-size="10.00" fill="#000000">std::unique_ptr&lt; rapidjson</text>
<text text-anchor="middle" x="637.5" y="-276" font-family="Helvetica,sans-Serif" font-size="10.00" fill="#000000">::SchemaValidator &gt;</text>
</g>
<!-- Node8&#45;&gt;Node2 -->
<g id="edge7" class="edge">
<title>Node8&#45;&gt;Node2</title>
<path fill="none" stroke="#9a32cd" stroke-dasharray="5,2" d="M712.2775,-283.7452C771.1717,-283.5446 850.6209,-283.2739 895.7663,-283.12"/>
<polygon fill="#9a32cd" stroke="#9a32cd" points="712.2611,-280.2452 702.2732,-283.7793 712.2851,-287.2451 712.2611,-280.2452"/>
<text text-anchor="middle" x="788" y="-286" font-family="Helvetica,sans-Serif" font-size="10.00" fill="#000000"> pSchemaValidator</text>
</g>
<!-- Node9&#45;&gt;Node8 -->
<g id="edge8" class="edge">
<title>Node9&#45;&gt;Node8</title>
<path fill="none" stroke="#ffa500" stroke-dasharray="5,2" d="M386.3087,-296.6034C388.9059,-296.3896 391.4778,-296.1872 394,-296 454.5706,-291.5032 523.7467,-288.2772 572.8486,-286.3103"/>
<polygon fill="#ffa500" stroke="#ffa500" points="385.877,-293.1275 376.2161,-297.477 386.4807,-300.1015 385.877,-293.1275"/>
<text text-anchor="middle" x="468" y="-299" font-family="Helvetica,sans-Serif" font-size="10.00" fill="#000000"> &lt; rapidjson::SchemaValidator &gt;</text>
</g>
<!-- Node10 -->
<g id="node10" class="node">
<title>Node10</title>
<polygon fill="#ffffff" stroke="#bfbfbf" points="573,-318 573,-348 702,-348 702,-318 573,-318"/>
<text text-anchor="start" x="581" y="-336" font-family="Helvetica,sans-Serif" font-size="10.00" fill="#000000">std::unique_ptr&lt; rapidjson</text>
<text text-anchor="middle" x="637.5" y="-325" font-family="Helvetica,sans-Serif" font-size="10.00" fill="#000000">::SchemaDocument &gt;</text>
</g>
<!-- Node9&#45;&gt;Node10 -->
<g id="edge11" class="edge">
<title>Node9&#45;&gt;Node10</title>
<path fill="none" stroke="#ffa500" stroke-dasharray="5,2" d="M386.208,-308.9912C440.3057,-314.1598 518.1286,-321.5951 572.7989,-326.8184"/>
<polygon fill="#ffa500" stroke="#ffa500" points="386.3441,-305.4884 376.0565,-308.0213 385.6783,-312.4566 386.3441,-305.4884"/>
<text text-anchor="middle" x="468" y="-326" font-family="Helvetica,sans-Serif" font-size="10.00" fill="#000000"> &lt; rapidjson::SchemaDocument &gt;</text>
</g>
<!-- Node10&#45;&gt;Node2 -->
<g id="edge10" class="edge">
<title>Node10&#45;&gt;Node2</title>
<path fill="none" stroke="#9a32cd" stroke-dasharray="5,2" d="M712.2775,-320.2611C771.1717,-310.228 850.6209,-296.6932 895.7663,-289.0023"/>
<polygon fill="#9a32cd" stroke="#9a32cd" points="711.5433,-316.8356 702.2732,-321.9654 712.719,-323.7362 711.5433,-316.8356"/>
<text text-anchor="middle" x="788" y="-318" font-family="Helvetica,sans-Serif" font-size="10.00" fill="#000000"> pSchemaDocument</text>
</g>
<!-- Node11 -->
<g id="node11" class="node">
<title>Node11</title>
<g id="a_node11"><a xlink:title="STL class. ">
<polygon fill="#ffffff" stroke="#bfbfbf" points="606,-367.5 606,-386.5 669,-386.5 669,-367.5 606,-367.5"/>
<text text-anchor="middle" x="637.5" y="-374.5" font-family="Helvetica,sans-Serif" font-size="10.00" fill="#000000">std::thread</text>
</a>
</g>
</g>
<!-- Node11&#45;&gt;Node2 -->
<g id="edge12" class="edge">
<title>Node11&#45;&gt;Node2</title>
<path fill="none" stroke="#9a32cd" stroke-dasharray="5,2" d="M679.2433,-367.4258C690.8699,-364.5804 703.4705,-361.3289 715,-358 723.1018,-355.6608 724.8593,-354.2 733,-352 781.2165,-338.9699 795.9782,-345.8396 843,-329 869.7792,-319.4098 898.5953,-303.0726 915.698,-292.6697"/>
<polygon fill="#9a32cd" stroke="#9a32cd" points="678.2306,-364.0695 669.328,-369.8135 679.8695,-370.875 678.2306,-364.0695"/>
<text text-anchor="middle" x="788" y="-355" font-family="Helvetica,sans-Serif" font-size="10.00" fill="#000000"> apiThread</text>
</g>
<!-- Node11&#45;&gt;Node19 -->
<g id="edge27" class="edge">
<title>Node11&#45;&gt;Node19</title>
<path fill="none" stroke="#9a32cd" stroke-dasharray="5,2" d="M679.3194,-375.4119C720.9267,-373.5355 786.5387,-369.7755 843,-363 938.4023,-351.5514 1048.9448,-330.6697 1109.8165,-318.5006"/>
<polygon fill="#9a32cd" stroke="#9a32cd" points="679.1169,-371.9173 669.2786,-375.8491 679.4214,-378.9107 679.1169,-371.9173"/>
<text text-anchor="middle" x="931" y="-363" font-family="Helvetica,sans-Serif" font-size="10.00" fill="#000000"> processorThread</text>
</g>
<!-- Node12&#45;&gt;Node1 -->
<g id="edge13" class="edge">
<title>Node12&#45;&gt;Node1</title>
<path fill="none" stroke="#9a32cd" stroke-dasharray="5,2" d="M1367.5654,-150.646C1397.1507,-177.9067 1455.0229,-231.2318 1478.8551,-253.1915"/>
<polygon fill="#9a32cd" stroke="#9a32cd" points="1369.7486,-147.8983 1360.0228,-143.696 1365.0052,-153.0462 1369.7486,-147.8983"/>
<text text-anchor="middle" x="1421" y="-216" font-family="Helvetica,sans-Serif" font-size="10.00" fill="#000000"> storage</text>
</g>
<!-- Node13 -->
<g id="node13" class="node">
<title>Node13</title>
<polygon fill="#ffffff" stroke="#bfbfbf" points="1080,-119 1080,-149 1232,-149 1232,-119 1080,-119"/>
<text text-anchor="start" x="1088" y="-137" font-family="Helvetica,sans-Serif" font-size="10.00" fill="#000000">std::map&lt; deviceId,</text>
<text text-anchor="middle" x="1156" y="-126" font-family="Helvetica,sans-Serif" font-size="10.00" fill="#000000"> DataStorage::DeviceRecord &gt;</text>
</g>
<!-- Node13&#45;&gt;Node12 -->
<g id="edge15" class="edge">
<title>Node13&#45;&gt;Node12</title>
<path fill="none" stroke="#9a32cd" stroke-dasharray="5,2" d="M1242.5073,-134C1267.6195,-134 1293.6626,-134 1313.7669,-134"/>
<polygon fill="#9a32cd" stroke="#9a32cd" points="1242.1986,-130.5001 1232.1986,-134 1242.1985,-137.5001 1242.1986,-130.5001"/>
<text text-anchor="middle" x="1273" y="-137" font-family="Helvetica,sans-Serif" font-size="10.00" fill="#000000"> dataStore</text>
</g>
<!-- Node14&#45;&gt;Node13 -->
<g id="edge16" class="edge">
<title>Node14&#45;&gt;Node13</title>
<path fill="none" stroke="#9a32cd" stroke-dasharray="5,2" d="M1011.3379,-119.2123C1033.57,-121.4849 1057.6316,-123.9446 1079.6309,-126.1934"/>
<polygon fill="#9a32cd" stroke="#9a32cd" points="1011.57,-115.7179 1001.2659,-118.1827 1010.8581,-122.6816 1011.57,-115.7179"/>
<text text-anchor="middle" x="1040.5" y="-126" font-family="Helvetica,sans-Serif" font-size="10.00" fill="#000000"> elements</text>
</g>
<!-- Node15 -->
<g id="node15" class="node">
<title>Node15</title>
<polygon fill="#ffffff" stroke="#bfbfbf" points="580.5,-96 580.5,-126 694.5,-126 694.5,-96 580.5,-96"/>
<text text-anchor="start" x="588.5" y="-114" font-family="Helvetica,sans-Serif" font-size="10.00" fill="#000000">std::map&lt; valueId,</text>
<text text-anchor="middle" x="637.5" y="-103" font-family="Helvetica,sans-Serif" font-size="10.00" fill="#000000"> DataStorage::Value &gt;</text>
</g>
<!-- Node15&#45;&gt;Node14 -->
<g id="edge18" class="edge">
<title>Node15&#45;&gt;Node14</title>
<path fill="none" stroke="#9a32cd" stroke-dasharray="5,2" d="M704.809,-111C751.5219,-111 813.607,-111 860.9136,-111"/>
<polygon fill="#9a32cd" stroke="#9a32cd" points="704.7865,-107.5001 694.7865,-111 704.7865,-114.5001 704.7865,-107.5001"/>
<text text-anchor="middle" x="788" y="-114" font-family="Helvetica,sans-Serif" font-size="10.00" fill="#000000"> measurements</text>
</g>
<!-- Node16&#45;&gt;Node15 -->
<g id="edge19" class="edge">
<title>Node16&#45;&gt;Node15</title>
<path fill="none" stroke="#9a32cd" stroke-dasharray="5,2" d="M384.7477,-94.236C387.8762,-94.1442 390.9744,-94.0643 394,-94 459.7629,-92.6014 476.4772,-88.2136 542,-94 554.4975,-95.1037 567.809,-97.0047 580.4023,-99.1455"/>
<polygon fill="#9a32cd" stroke="#9a32cd" points="384.5841,-90.7394 374.7042,-94.5653 384.8136,-97.7356 384.5841,-90.7394"/>
<text text-anchor="middle" x="468" y="-97" font-family="Helvetica,sans-Serif" font-size="10.00" fill="#000000"> elements</text>
</g>
<!-- Node17&#45;&gt;Node13 -->
<g id="edge24" class="edge">
<title>Node17&#45;&gt;Node13</title>
<path fill="none" stroke="#ffa500" stroke-dasharray="5,2" d="M380.0855,-162.1494C503.7857,-158.0728 807.5783,-147.8917 1062,-138 1067.7943,-137.7747 1073.7891,-137.535 1079.8176,-137.2892"/>
<polygon fill="#ffa500" stroke="#ffa500" points="379.6136,-158.663 369.7342,-162.4902 379.8439,-165.6592 379.6136,-158.663"/>
<text text-anchor="start" x="733" y="-164" font-family="Helvetica,sans-Serif" font-size="10.00" fill="#000000"> &lt; deviceId, DataStorage</text>
<text text-anchor="middle" x="788" y="-153" font-family="Helvetica,sans-Serif" font-size="10.00" fill="#000000">::DeviceRecord &gt;</text>
</g>
<!-- Node17&#45;&gt;Node15 -->
<g id="edge21" class="edge">
<title>Node17&#45;&gt;Node15</title>
<path fill="none" stroke="#ffa500" stroke-dasharray="5,2" d="M346.8172,-149.0767C360.1052,-141.362 377.3775,-132.6167 394,-128 456.064,-110.7623 530.2703,-108.0012 580.3199,-108.6027"/>
<polygon fill="#ffa500" stroke="#ffa500" points="344.6737,-146.2818 337.912,-154.4384 348.2844,-152.2788 344.6737,-146.2818"/>
<text text-anchor="start" x="415.5" y="-142" font-family="Helvetica,sans-Serif" font-size="10.00" fill="#000000"> &lt; valueId, DataStorage</text>
<text text-anchor="middle" x="468" y="-131" font-family="Helvetica,sans-Serif" font-size="10.00" fill="#000000">::Value &gt;</text>
</g>
<!-- Node18 -->
<g id="node18" class="node">
<title>Node18</title>
<polygon fill="#ffffff" stroke="#bfbfbf" points="147.5,-154.5 147.5,-173.5 176.5,-173.5 176.5,-154.5 147.5,-154.5"/>
<text text-anchor="middle" x="162" y="-161.5" font-family="Helvetica,sans-Serif" font-size="10.00" fill="#000000">K</text>
</g>
<!-- Node18&#45;&gt;Node17 -->
<g id="edge22" class="edge">
<title>Node18&#45;&gt;Node17</title>
<path fill="none" stroke="#9a32cd" stroke-dasharray="5,2" d="M186.6581,-164C210.6787,-164 247.7866,-164 277.3034,-164"/>
<polygon fill="#9a32cd" stroke="#9a32cd" points="186.6169,-160.5001 176.6169,-164 186.6169,-167.5001 186.6169,-160.5001"/>
<text text-anchor="middle" x="231.5" y="-167" font-family="Helvetica,sans-Serif" font-size="10.00" fill="#000000"> keys</text>
</g>
<!-- Node19&#45;&gt;Node1 -->
<g id="edge25" class="edge">
<title>Node19&#45;&gt;Node1</title>
<path fill="none" stroke="#9a32cd" stroke-dasharray="5,2" d="M1216.7469,-304.9188C1274.3413,-300.3936 1363.1004,-291.7164 1439,-277 1445.2522,-275.7877 1451.861,-274.1917 1458.1639,-272.5124"/>
<polygon fill="#9a32cd" stroke="#9a32cd" points="1216.4217,-301.4333 1206.7193,-305.6894 1216.9581,-308.4128 1216.4217,-301.4333"/>
<text text-anchor="middle" x="1349.5" y="-298" font-family="Helvetica,sans-Serif" font-size="10.00" fill="#000000"> processor</text>
</g>
</g>
</svg>
        <g id="navigator" transform="translate(0 0)" fill="#404254">
                <rect fill="#f2f5e9" fill-opacity="0.5" stroke="#606060" stroke-width=".5" x="0" y="0" width="60" height="60"/>
                <use id="zoomplus" xlink:href="#zoomPlus" x="17" y="9" onmousedown="handleZoom(evt,'in')"/>
                <use id="zoomminus" xlink:href="#zoomMin" x="42" y="9" onmousedown="handleZoom(evt,'out')"/>
                <use id="reset" xlink:href="#resetDef" x="30" y="36" onmousedown="handleReset()"/>
                <g id="arrowUp" xlink:href="#dirArrow" transform="translate(30 24)" onmousedown="handlePan(0,-1)">
                  <use xlink:href="#rim" fill="#404040">
                        <set attributeName="fill" to="#808080" begin="arrowUp.mouseover" end="arrowUp.mouseout"/>
                  </use>
                  <path fill="none" stroke="white" stroke-width="1.5" d="M0,-3.0v7 M-2.5,-0.5L0,-3.0L2.5,-0.5"/>
                </g>
                <g id="arrowRight" xlink:href="#dirArrow" transform="rotate(90) translate(36 -43)" onmousedown="handlePan(1,0)">
                  <use xlink:href="#rim" fill="#404040">
                        <set attributeName="fill" to="#808080" begin="arrowRight.mouseover" end="arrowRight.mouseout"/>
                  </use>
                  <path fill="none" stroke="white" stroke-width="1.5" d="M0,-3.0v7 M-2.5,-0.5L0,-3.0L2.5,-0.5"/>
                </g>
                <g id="arrowDown" xlink:href="#dirArrow" transform="rotate(180) translate(-30 -48)" onmousedown="handlePan(0,1)">
                  <use xlink:href="#rim" fill="#404040">
                        <set attributeName="fill" to="#808080" begin="arrowDown.mouseover" end="arrowDown.mouseout"/>
                  </use>
                  <path fill="none" stroke="white" stroke-width="1.5" d="M0,-3.0v7 M-2.5,-0.5L0,-3.0L2.5,-0.5"/>
                </g>
                <g id="arrowLeft" xlink:href="#dirArrow" transform="rotate(270) translate(-36 17)" onmousedown="handlePan(-1,0)">
                  <use xlink:href="#rim" fill="#404040">
                        <set attributeName="fill" to="#808080" begin="arrowLeft.mouseover" end="arrowLeft.mouseout"/>
                  </use>
                  <path fill="none" stroke="white" stroke-width="1.5" d="M0,-3.0v7 M-2.5,-0.5L0,-3.0L2.5,-0.5"/>
                </g>
        </g>
        <svg viewBox="0 0 15 15" width="100%" height="30px" preserveAspectRatio="xMaxYMin meet">
         <g id="arrow_out" transform="scale(0.3 0.3)">
          <a xlink:href="class_application__coll__graph_org.svg" target="_base">
           <rect id="button" ry="5" rx="5" y="6" x="6" height="38" width="38"
                fill="#f2f5e9" fill-opacity="0.5" stroke="#606060" stroke-width="1.0"/>
           <path id="arrow"
             d="M 11.500037,31.436501 C 11.940474,20.09759 22.043105,11.32322 32.158766,21.979434 L 37.068811,17.246167 C 37.068811,17.246167 37.088388,32 37.088388,32 L 22.160133,31.978069 C 22.160133,31.978069 26.997745,27.140456 26.997745,27.140456 C 18.528582,18.264221 13.291696,25.230495 11.500037,31.436501 z"
             style="fill:#404040;"/>
          </a>
         </g>
        </svg>
</svg>
