<?xml version="1.0" encoding="UTF-8" standalone="no"?>
<!DOCTYPE svg PUBLIC "-//W3C//DTD SVG 1.1//EN"
 "http://www.w3.org/Graphics/SVG/1.1/DTD/svg11.dtd">
<!-- Generated by graphviz version 2.40.1 (20161225.0304)
 -->
<!-- Title: fnv::Fnv64a Pages: 1 -->
<svg width="785pt" height="28pt"
 viewBox="0.00 0.00 785.00 28.00" xmlns="http://www.w3.org/2000/svg" xmlns:xlink="http://www.w3.org/1999/xlink">
<g id="graph0" class="graph" transform="scale(1 1) rotate(0) translate(4 24)">
<title>fnv::Fnv64a</title>
<polygon fill="#ffffff" stroke="transparent" points="-4,4 -4,-24 781,-24 781,4 -4,4"/>
<!-- Node1 -->
<g id="node1" class="node">
<title>Node1</title>
<polygon fill="#bfbfbf" stroke="#000000" points="0,-.5 0,-19.5 68,-19.5 68,-.5 0,-.5"/>
<text text-anchor="middle" x="34" y="-7.5" font-family="Helvetica,sans-Serif" font-size="10.00" fill="#000000">fnv::Fnv64a</text>
</g>
<!-- Node2 -->
<g id="node2" class="node">
<title>Node2</title>
<g id="a_node2"><a xlink:href="../../db/d85/class_data_storage.html#add6db588ead8c9218e88cf332b06e985" target="_top" xlink:title="add new record to the datastore ">
<polygon fill="#ffffff" stroke="#000000" points="104,-.5 104,-19.5 229,-19.5 229,-.5 104,-.5"/>
<text text-anchor="middle" x="166.5" y="-7.5" font-family="Helvetica,sans-Serif" font-size="10.00" fill="#000000">DataStorage::addRecord</text>
</a>
</g>
</g>
<!-- Node1&#45;&gt;Node2 -->
<g id="edge1" class="edge">
<title>Node1&#45;&gt;Node2</title>
<path fill="none" stroke="#191970" d="M78.2522,-10C86.502,-10 95.2652,-10 103.9436,-10"/>
<polygon fill="#191970" stroke="#191970" points="78.1221,-6.5001 68.122,-10 78.122,-13.5001 78.1221,-6.5001"/>
</g>
<!-- Node3 -->
<g id="node3" class="node">
<title>Node3</title>
<g id="a_node3"><a xlink:href="../../d3/df5/class_message_processor.html#a4a1eaa51c19e417a57f43cff6c459b9b" target="_top" xlink:title="thread body implementation ">
<polygon fill="#ffffff" stroke="#000000" points="265,-.5 265,-19.5 421,-19.5 421,-.5 265,-.5"/>
<text text-anchor="middle" x="343" y="-7.5" font-family="Helvetica,sans-Serif" font-size="10.00" fill="#000000">MessageProcessor::threadBody</text>
</a>
</g>
</g>
<!-- Node2&#45;&gt;Node3 -->
<g id="edge2" class="edge">
<title>Node2&#45;&gt;Node3</title>
<path fill="none" stroke="#191970" d="M239.3288,-10C247.7079,-10 256.2784,-10 264.7254,-10"/>
<polygon fill="#191970" stroke="#191970" points="239.2243,-6.5001 229.2243,-10 239.2242,-13.5001 239.2243,-6.5001"/>
</g>
<!-- Node4 -->
<g id="node4" class="node">
<title>Node4</title>
<g id="a_node4"><a xlink:href="../../d3/df5/class_message_processor.html#a1af9c4a7a077e73077f2f25cd15a6361" target="_top" xlink:title="start message processor thread ">
<polygon fill="#ffffff" stroke="#000000" points="457,-.5 457,-19.5 583,-19.5 583,-.5 457,-.5"/>
<text text-anchor="middle" x="520" y="-7.5" font-family="Helvetica,sans-Serif" font-size="10.00" fill="#000000">MessageProcessor::start</text>
</a>
</g>
</g>
<!-- Node3&#45;&gt;Node4 -->
<g id="edge3" class="edge">
<title>Node3&#45;&gt;Node4</title>
<path fill="none" stroke="#191970" d="M431.2707,-10C439.91,-10 448.5522,-10 456.8681,-10"/>
<polygon fill="#191970" stroke="#191970" points="431.15,-6.5001 421.15,-10 431.15,-13.5001 431.15,-6.5001"/>
</g>
<!-- Node5 -->
<g id="node5" class="node">
<title>Node5</title>
<g id="a_node5"><a xlink:href="../../de/d6b/class_application.html#a7fbff10e3b66542f549f6c693ec4e676" target="_top" xlink:title="Application::run">
<polygon fill="#ffffff" stroke="#000000" points="619,-.5 619,-19.5 703,-19.5 703,-.5 619,-.5"/>
<text text-anchor="middle" x="661" y="-7.5" font-family="Helvetica,sans-Serif" font-size="10.00" fill="#000000">Application::run</text>
</a>
</g>
</g>
<!-- Node4&#45;&gt;Node5 -->
<g id="edge4" class="edge">
<title>Node4&#45;&gt;Node5</title>
<path fill="none" stroke="#191970" d="M593.2605,-10C601.9406,-10 610.5648,-10 618.6057,-10"/>
<polygon fill="#191970" stroke="#191970" points="593.0767,-6.5001 583.0767,-10 593.0767,-13.5001 593.0767,-6.5001"/>
</g>
<!-- Node6 -->
<g id="node6" class="node">
<title>Node6</title>
<g id="a_node6"><a xlink:href="../../df/d0a/main_8cpp.html#a840291bc02cba5474a4cb46a9b9566fe" target="_top" xlink:title="main">
<polygon fill="#ffffff" stroke="#000000" points="739,-.5 739,-19.5 777,-19.5 777,-.5 739,-.5"/>
<text text-anchor="middle" x="758" y="-7.5" font-family="Helvetica,sans-Serif" font-size="10.00" fill="#000000">main</text>
</a>
</g>
</g>
<!-- Node5&#45;&gt;Node6 -->
<g id="edge5" class="edge">
<title>Node5&#45;&gt;Node6</title>
<path fill="none" stroke="#191970" d="M713.5386,-10C722.6287,-10 731.5282,-10 738.948,-10"/>
<polygon fill="#191970" stroke="#191970" points="713.2635,-6.5001 703.2634,-10 713.2634,-13.5001 713.2635,-6.5001"/>
</g>
</g>
</svg>
