<?xml version="1.0" encoding="UTF-8" standalone="no"?>
<!DOCTYPE svg PUBLIC "-//W3C//DTD SVG 1.1//EN"
 "http://www.w3.org/Graphics/SVG/1.1/DTD/svg11.dtd">
<!-- Generated by graphviz version 2.40.1 (20161225.0304)
 -->
<!-- Title: src/deviceMonitor/apis/AbstractAPI.hpp Pages: 1 -->
<!--zoomable 229 -->
<svg id="main" version="1.1" xmlns="http://www.w3.org/2000/svg" xmlns:xlink="http://www.w3.org/1999/xlink" xml:space="preserve" onload="init(evt)">
<style type="text/css"><![CDATA[
.edge:hover path { stroke: red; }
.edge:hover polygon { stroke: red; fill: red; }
]]></style>
<script type="text/javascript"><![CDATA[
var edges = document.getElementsByTagName('g');
if (edges && edges.length) {
  for (var i=0;i<edges.length;i++) {
    if (edges[i].id.substr(0,4)=='edge') {
      edges[i].setAttribute('class','edge');
    }
  }
}
]]></script>
        <defs>
                <circle id="rim" cx="0" cy="0" r="7"/>
                <circle id="rim2" cx="0" cy="0" r="3.5"/>
                <g id="zoomPlus">
                        <use xlink:href="#rim" fill="#404040">
                                <set attributeName="fill" to="#808080" begin="zoomplus.mouseover" end="zoomplus.mouseout"/>
                        </use>
                        <path d="M-4,0h8M0,-4v8" fill="none" stroke="white" stroke-width="1.5" pointer-events="none"/>
                </g>
                <g id="zoomMin">
                        <use xlink:href="#rim" fill="#404040">
                                <set attributeName="fill" to="#808080" begin="zoomminus.mouseover" end="zoomminus.mouseout"/>
                        </use>
                        <path d="M-4,0h8" fill="none" stroke="white" stroke-width="1.5" pointer-events="none"/>
                </g>
                <g id="dirArrow">
                        <path fill="none" stroke="white" stroke-width="1.5" d="M0,-3.0v7 M-2.5,-0.5L0,-3.0L2.5,-0.5"/>
                </g>
               <g id="resetDef">
                       <use xlink:href="#rim2" fill="#404040">
                               <set attributeName="fill" to="#808080" begin="reset.mouseover" end="reset.mouseout"/>
                       </use>
               </g>
        </defs>

<script type="text/javascript">
var viewWidth = 765;
var viewHeight = 229;
var sectionId = 'dynsection-1';
</script>
<script xlink:href="../../svgpan.js"/>
<svg id="graph" class="graph">
<g id="viewport">
<title>src/deviceMonitor/apis/AbstractAPI.hpp</title>
<polygon fill="#ffffff" stroke="transparent" points="-4,4 -4,-225 760.9326,-225 760.9326,4 -4,4"/>
<!-- Node15 -->
<g id="node1" class="node">
<title>Node15</title>
<polygon fill="#bfbfbf" stroke="#000000" points="304,-190.5 304,-220.5 419,-220.5 419,-190.5 304,-190.5"/>
<text text-anchor="start" x="312" y="-208.5" font-family="Helvetica,sans-Serif" font-size="10.00" fill="#000000">src/deviceMonitor/apis</text>
<text text-anchor="middle" x="361.5" y="-197.5" font-family="Helvetica,sans-Serif" font-size="10.00" fill="#000000">/AbstractAPI.hpp</text>
</g>
<!-- Node16 -->
<g id="node2" class="node">
<title>Node16</title>
<g id="a_node2"><a xlink:href="../../d6/db0/_abstract_a_p_i_8cpp.html" target="_top" xlink:title="src/deviceMonitor/apis\l/AbstractAPI.cpp">
<polygon fill="#ffffff" stroke="#000000" points="0,-56.5 0,-86.5 115,-86.5 115,-56.5 0,-56.5"/>
<text text-anchor="start" x="8" y="-74.5" font-family="Helvetica,sans-Serif" font-size="10.00" fill="#000000">src/deviceMonitor/apis</text>
<text text-anchor="middle" x="57.5" y="-63.5" font-family="Helvetica,sans-Serif" font-size="10.00" fill="#000000">/AbstractAPI.cpp</text>
</a>
</g>
</g>
<!-- Node15&#45;&gt;Node16 -->
<g id="edge1" class="edge">
<title>Node15&#45;&gt;Node16</title>
<path fill="none" stroke="#191970" d="M293.6264,-199.0652C248.5685,-192.567 189.3254,-179.6245 142.5,-154 111.2903,-136.9209 83.4447,-105.2492 68.6692,-86.5073"/>
<polygon fill="#191970" stroke="#191970" points="293.212,-202.541 303.5947,-200.4317 294.1628,-195.6059 293.212,-202.541"/>
</g>
<!-- Node17 -->
<g id="node3" class="node">
<title>Node17</title>
<g id="a_node3"><a xlink:href="../../d8/dc9/_message_processor_8hpp.html" target="_top" xlink:title="src/deviceMonitor/middleware\l/MessageProcessor.hpp">
<polygon fill="#ffffff" stroke="#000000" points="151.5,-123.5 151.5,-153.5 297.5,-153.5 297.5,-123.5 151.5,-123.5"/>
<text text-anchor="start" x="159.5" y="-141.5" font-family="Helvetica,sans-Serif" font-size="10.00" fill="#000000">src/deviceMonitor/middleware</text>
<text text-anchor="middle" x="224.5" y="-130.5" font-family="Helvetica,sans-Serif" font-size="10.00" fill="#000000">/MessageProcessor.hpp</text>
</a>
</g>
</g>
<!-- Node15&#45;&gt;Node17 -->
<g id="edge2" class="edge">
<title>Node15&#45;&gt;Node17</title>
<path fill="none" stroke="#191970" d="M321.7328,-186.0518C300.6816,-175.7567 275.2086,-163.2991 255.6169,-153.7177"/>
<polygon fill="#191970" stroke="#191970" points="320.2336,-189.2147 330.7545,-190.4639 323.3089,-182.9264 320.2336,-189.2147"/>
</g>
<!-- Node18 -->
<g id="node4" class="node">
<title>Node18</title>
<g id="a_node4"><a xlink:href="../../d2/dcb/_application_8hpp.html" target="_top" xlink:title="src/deviceMonitor/Application.hpp">
<polygon fill="#ffffff" stroke="#000000" points="297.5,-62 297.5,-81 461.5,-81 461.5,-62 297.5,-62"/>
<text text-anchor="middle" x="379.5" y="-69" font-family="Helvetica,sans-Serif" font-size="10.00" fill="#000000">src/deviceMonitor/Application.hpp</text>
</a>
</g>
</g>
<!-- Node15&#45;&gt;Node18 -->
<g id="edge17" class="edge">
<title>Node15&#45;&gt;Node18</title>
<path fill="none" stroke="#191970" d="M364.891,-180.2559C368.924,-150.2327 375.4557,-101.6073 378.2099,-81.1042"/>
<polygon fill="#191970" stroke="#191970" points="361.3924,-180.012 363.5298,-190.389 368.3301,-180.944 361.3924,-180.012"/>
</g>
<!-- Node22 -->
<g id="node8" class="node">
<title>Node22</title>
<g id="a_node8"><a xlink:href="../../df/d16/_rest_a_p_i_8hpp.html" target="_top" xlink:title="src/deviceMonitor/apis\l/RestAPI.hpp">
<polygon fill="#ffffff" stroke="#000000" points="591,-123.5 591,-153.5 706,-153.5 706,-123.5 591,-123.5"/>
<text text-anchor="start" x="599" y="-141.5" font-family="Helvetica,sans-Serif" font-size="10.00" fill="#000000">src/deviceMonitor/apis</text>
<text text-anchor="middle" x="648.5" y="-130.5" font-family="Helvetica,sans-Serif" font-size="10.00" fill="#000000">/RestAPI.hpp</text>
</a>
</g>
</g>
<!-- Node15&#45;&gt;Node22 -->
<g id="edge8" class="edge">
<title>Node15&#45;&gt;Node22</title>
<path fill="none" stroke="#191970" d="M429.1479,-189.7076C478.3233,-178.2277 544.1767,-162.8542 590.8588,-151.9563"/>
<polygon fill="#191970" stroke="#191970" points="428.176,-186.3403 419.2335,-192.0221 429.7674,-193.1571 428.176,-186.3403"/>
</g>
<!-- Node24 -->
<g id="node10" class="node">
<title>Node24</title>
<g id="a_node10"><a xlink:href="../../d7/d83/_data_storage_8hpp.html" target="_top" xlink:title="src/deviceMonitor/storage\l/DataStorage.hpp">
<polygon fill="#ffffff" stroke="#000000" points="390,-123.5 390,-153.5 519,-153.5 519,-123.5 390,-123.5"/>
<text text-anchor="start" x="398" y="-141.5" font-family="Helvetica,sans-Serif" font-size="10.00" fill="#000000">src/deviceMonitor/storage</text>
<text text-anchor="middle" x="454.5" y="-130.5" font-family="Helvetica,sans-Serif" font-size="10.00" fill="#000000">/DataStorage.hpp</text>
</a>
</g>
</g>
<!-- Node15&#45;&gt;Node24 -->
<g id="edge12" class="edge">
<title>Node15&#45;&gt;Node24</title>
<path fill="none" stroke="#191970" d="M390.8618,-184.3469C404.6998,-174.3776 420.8922,-162.7121 433.4804,-153.6432"/>
<polygon fill="#191970" stroke="#191970" points="388.671,-181.6115 382.6031,-190.2967 392.7627,-187.2911 388.671,-181.6115"/>
</g>
<!-- Node17&#45;&gt;Node16 -->
<g id="edge3" class="edge">
<title>Node17&#45;&gt;Node16</title>
<path fill="none" stroke="#191970" d="M177.7088,-119.7275C151.6294,-109.2645 119.5852,-96.4084 95.1415,-86.6017"/>
<polygon fill="#191970" stroke="#191970" points="176.4378,-122.9887 187.0219,-123.4639 179.0442,-116.492 176.4378,-122.9887"/>
</g>
<!-- Node17&#45;&gt;Node18 -->
<g id="edge4" class="edge">
<title>Node17&#45;&gt;Node18</title>
<path fill="none" stroke="#191970" d="M268.7761,-119.3613C297.7144,-106.8525 334.2761,-91.0484 357.282,-81.1039"/>
<polygon fill="#191970" stroke="#191970" points="267.0754,-116.2834 259.285,-123.4639 269.8529,-122.7088 267.0754,-116.2834"/>
</g>
<!-- Node21 -->
<g id="node7" class="node">
<title>Node21</title>
<g id="a_node7"><a xlink:href="../../d4/d7b/_message_processor_8cpp.html" target="_top" xlink:title="src/deviceMonitor/middleware\l/MessageProcessor.cpp">
<polygon fill="#ffffff" stroke="#000000" points="133.5,-56.5 133.5,-86.5 279.5,-86.5 279.5,-56.5 133.5,-56.5"/>
<text text-anchor="start" x="141.5" y="-74.5" font-family="Helvetica,sans-Serif" font-size="10.00" fill="#000000">src/deviceMonitor/middleware</text>
<text text-anchor="middle" x="206.5" y="-63.5" font-family="Helvetica,sans-Serif" font-size="10.00" fill="#000000">/MessageProcessor.cpp</text>
</a>
</g>
</g>
<!-- Node17&#45;&gt;Node21 -->
<g id="edge7" class="edge">
<title>Node17&#45;&gt;Node21</title>
<path fill="none" stroke="#191970" d="M217.8132,-113.6103C215.3805,-104.5553 212.7059,-94.5998 210.5683,-86.6432"/>
<polygon fill="#191970" stroke="#191970" points="214.4407,-114.5472 220.4155,-123.2967 221.201,-112.731 214.4407,-114.5472"/>
</g>
<!-- Node19 -->
<g id="node5" class="node">
<title>Node19</title>
<g id="a_node5"><a xlink:href="../../d0/d42/_application_8cpp.html" target="_top" xlink:title="src/deviceMonitor/Application.cpp">
<polygon fill="#ffffff" stroke="#000000" points="297.5,-.5 297.5,-19.5 461.5,-19.5 461.5,-.5 297.5,-.5"/>
<text text-anchor="middle" x="379.5" y="-7.5" font-family="Helvetica,sans-Serif" font-size="10.00" fill="#000000">src/deviceMonitor/Application.cpp</text>
</a>
</g>
</g>
<!-- Node18&#45;&gt;Node19 -->
<g id="edge5" class="edge">
<title>Node18&#45;&gt;Node19</title>
<path fill="none" stroke="#191970" d="M379.5,-51.7462C379.5,-41.0519 379.5,-28.314 379.5,-19.7449"/>
<polygon fill="#191970" stroke="#191970" points="376.0001,-51.8906 379.5,-61.8906 383.0001,-51.8907 376.0001,-51.8906"/>
</g>
<!-- Node20 -->
<g id="node6" class="node">
<title>Node20</title>
<g id="a_node6"><a xlink:href="../../df/d0a/main_8cpp.html" target="_top" xlink:title="src/deviceMonitor/main.cpp">
<polygon fill="#ffffff" stroke="#000000" points="591,-.5 591,-19.5 728,-19.5 728,-.5 591,-.5"/>
<text text-anchor="middle" x="659.5" y="-7.5" font-family="Helvetica,sans-Serif" font-size="10.00" fill="#000000">src/deviceMonitor/main.cpp</text>
</a>
</g>
</g>
<!-- Node18&#45;&gt;Node20 -->
<g id="edge6" class="edge">
<title>Node18&#45;&gt;Node20</title>
<path fill="none" stroke="#191970" d="M432.8583,-59.7802C485.991,-48.11 566.5595,-30.4137 615.9553,-19.5643"/>
<polygon fill="#191970" stroke="#191970" points="431.9591,-56.3942 422.9428,-61.9581 433.4608,-63.2312 431.9591,-56.3942"/>
</g>
<!-- Node22&#45;&gt;Node18 -->
<g id="edge10" class="edge">
<title>Node22&#45;&gt;Node18</title>
<path fill="none" stroke="#191970" d="M581.0422,-121.6982C529.4087,-108.8379 460.0641,-91.5662 417.643,-81.0003"/>
<polygon fill="#191970" stroke="#191970" points="580.2433,-125.1061 590.7928,-124.1268 581.9351,-118.3136 580.2433,-125.1061"/>
</g>
<!-- Node22&#45;&gt;Node20 -->
<g id="edge11" class="edge">
<title>Node22&#45;&gt;Node20</title>
<path fill="none" stroke="#191970" d="M713.966,-119.1313C728.8061,-111.5483 742.7523,-101.1541 751.5,-87 758.7434,-75.2799 758.7434,-67.7201 751.5,-56 740.1402,-37.6195 718.9658,-26.3377 699.7925,-19.5505"/>
<polygon fill="#191970" stroke="#191970" points="712.2185,-116.0849 704.649,-123.4979 715.1892,-122.4233 712.2185,-116.0849"/>
</g>
<!-- Node23 -->
<g id="node9" class="node">
<title>Node23</title>
<g id="a_node9"><a xlink:href="../../d0/d9b/_rest_a_p_i_8cpp.html" target="_top" xlink:title="src/deviceMonitor/apis\l/RestAPI.cpp">
<polygon fill="#ffffff" stroke="#000000" points="627,-56.5 627,-86.5 742,-86.5 742,-56.5 627,-56.5"/>
<text text-anchor="start" x="635" y="-74.5" font-family="Helvetica,sans-Serif" font-size="10.00" fill="#000000">src/deviceMonitor/apis</text>
<text text-anchor="middle" x="684.5" y="-63.5" font-family="Helvetica,sans-Serif" font-size="10.00" fill="#000000">/RestAPI.cpp</text>
</a>
</g>
</g>
<!-- Node22&#45;&gt;Node23 -->
<g id="edge9" class="edge">
<title>Node22&#45;&gt;Node23</title>
<path fill="none" stroke="#191970" d="M661.4043,-114.4837C666.3927,-105.1996 671.9502,-94.8565 676.3634,-86.6432"/>
<polygon fill="#191970" stroke="#191970" points="658.319,-112.8311 656.669,-123.2967 664.4853,-116.1443 658.319,-112.8311"/>
</g>
<!-- Node24&#45;&gt;Node18 -->
<g id="edge14" class="edge">
<title>Node24&#45;&gt;Node18</title>
<path fill="none" stroke="#191970" d="M429.9186,-116.5406C416.4734,-104.5296 400.5041,-90.2637 390.1959,-81.055"/>
<polygon fill="#191970" stroke="#191970" points="427.6919,-119.2447 437.4813,-123.2967 432.3555,-114.0243 427.6919,-119.2447"/>
</g>
<!-- Node24&#45;&gt;Node21 -->
<g id="edge15" class="edge">
<title>Node24&#45;&gt;Node21</title>
<path fill="none" stroke="#191970" d="M389.0567,-120.8198C349.6383,-110.1704 299.9721,-96.7525 262.3988,-86.6017"/>
<polygon fill="#191970" stroke="#191970" points="388.2772,-124.2346 398.844,-123.4639 390.1029,-117.4768 388.2772,-124.2346"/>
</g>
<!-- Node24&#45;&gt;Node23 -->
<g id="edge13" class="edge">
<title>Node24&#45;&gt;Node23</title>
<path fill="none" stroke="#191970" d="M516.1248,-120.5484C552.5307,-109.9432 598.1075,-96.6665 632.6584,-86.6017"/>
<polygon fill="#191970" stroke="#191970" points="514.7385,-117.3067 506.1165,-123.4639 516.6963,-124.0274 514.7385,-117.3067"/>
</g>
<!-- Node25 -->
<g id="node11" class="node">
<title>Node25</title>
<g id="a_node11"><a xlink:href="../../dc/d79/_data_storage_8cpp.html" target="_top" xlink:title="src/deviceMonitor/storage\l/DataStorage.cpp">
<polygon fill="#ffffff" stroke="#000000" points="480,-56.5 480,-86.5 609,-86.5 609,-56.5 480,-56.5"/>
<text text-anchor="start" x="488" y="-74.5" font-family="Helvetica,sans-Serif" font-size="10.00" fill="#000000">src/deviceMonitor/storage</text>
<text text-anchor="middle" x="544.5" y="-63.5" font-family="Helvetica,sans-Serif" font-size="10.00" fill="#000000">/DataStorage.cpp</text>
</a>
</g>
</g>
<!-- Node24&#45;&gt;Node25 -->
<g id="edge16" class="edge">
<title>Node24&#45;&gt;Node25</title>
<path fill="none" stroke="#191970" d="M483.2942,-117.0643C496.6016,-107.1577 512.0913,-95.6265 524.1584,-86.6432"/>
<polygon fill="#191970" stroke="#191970" points="480.8537,-114.5177 474.9224,-123.2967 485.0338,-120.1327 480.8537,-114.5177"/>
</g>
</g>
</svg>
        <g id="navigator" transform="translate(0 0)" fill="#404254">
                <rect fill="#f2f5e9" fill-opacity="0.5" stroke="#606060" stroke-width=".5" x="0" y="0" width="60" height="60"/>
                <use id="zoomplus" xlink:href="#zoomPlus" x="17" y="9" onmousedown="handleZoom(evt,'in')"/>
                <use id="zoomminus" xlink:href="#zoomMin" x="42" y="9" onmousedown="handleZoom(evt,'out')"/>
                <use id="reset" xlink:href="#resetDef" x="30" y="36" onmousedown="handleReset()"/>
                <g id="arrowUp" xlink:href="#dirArrow" transform="translate(30 24)" onmousedown="handlePan(0,-1)">
                  <use xlink:href="#rim" fill="#404040">
                        <set attributeName="fill" to="#808080" begin="arrowUp.mouseover" end="arrowUp.mouseout"/>
                  </use>
                  <path fill="none" stroke="white" stroke-width="1.5" d="M0,-3.0v7 M-2.5,-0.5L0,-3.0L2.5,-0.5"/>
                </g>
                <g id="arrowRight" xlink:href="#dirArrow" transform="rotate(90) translate(36 -43)" onmousedown="handlePan(1,0)">
                  <use xlink:href="#rim" fill="#404040">
                        <set attributeName="fill" to="#808080" begin="arrowRight.mouseover" end="arrowRight.mouseout"/>
                  </use>
                  <path fill="none" stroke="white" stroke-width="1.5" d="M0,-3.0v7 M-2.5,-0.5L0,-3.0L2.5,-0.5"/>
                </g>
                <g id="arrowDown" xlink:href="#dirArrow" transform="rotate(180) translate(-30 -48)" onmousedown="handlePan(0,1)">
                  <use xlink:href="#rim" fill="#404040">
                        <set attributeName="fill" to="#808080" begin="arrowDown.mouseover" end="arrowDown.mouseout"/>
                  </use>
                  <path fill="none" stroke="white" stroke-width="1.5" d="M0,-3.0v7 M-2.5,-0.5L0,-3.0L2.5,-0.5"/>
                </g>
                <g id="arrowLeft" xlink:href="#dirArrow" transform="rotate(270) translate(-36 17)" onmousedown="handlePan(-1,0)">
                  <use xlink:href="#rim" fill="#404040">
                        <set attributeName="fill" to="#808080" begin="arrowLeft.mouseover" end="arrowLeft.mouseout"/>
                  </use>
                  <path fill="none" stroke="white" stroke-width="1.5" d="M0,-3.0v7 M-2.5,-0.5L0,-3.0L2.5,-0.5"/>
                </g>
        </g>
        <svg viewBox="0 0 15 15" width="100%" height="30px" preserveAspectRatio="xMaxYMin meet">
         <g id="arrow_out" transform="scale(0.3 0.3)">
          <a xlink:href="_abstract_a_p_i_8hpp__dep__incl_org.svg" target="_base">
           <rect id="button" ry="5" rx="5" y="6" x="6" height="38" width="38"
                fill="#f2f5e9" fill-opacity="0.5" stroke="#606060" stroke-width="1.0"/>
           <path id="arrow"
             d="M 11.500037,31.436501 C 11.940474,20.09759 22.043105,11.32322 32.158766,21.979434 L 37.068811,17.246167 C 37.068811,17.246167 37.088388,32 37.088388,32 L 22.160133,31.978069 C 22.160133,31.978069 26.997745,27.140456 26.997745,27.140456 C 18.528582,18.264221 13.291696,25.230495 11.500037,31.436501 z"
             style="fill:#404040;"/>
          </a>
         </g>
        </svg>
</svg>
