<?xml version="1.0" encoding="UTF-8" standalone="no"?>
<!DOCTYPE svg PUBLIC "-//W3C//DTD SVG 1.1//EN"
 "http://www.w3.org/Graphics/SVG/1.1/DTD/svg11.dtd">
<!-- Generated by graphviz version 2.40.1 (20161225.0304)
 -->
<!-- Title: logData_t Pages: 1 -->
<svg width="117pt" height="106pt"
 viewBox="0.00 0.00 117.00 106.00" xmlns="http://www.w3.org/2000/svg" xmlns:xlink="http://www.w3.org/1999/xlink">
<g id="graph0" class="graph" transform="scale(1 1) rotate(0) translate(4 102)">
<title>logData_t</title>
<polygon fill="#ffffff" stroke="transparent" points="-4,4 -4,-102 113,-102 113,4 -4,4"/>
<!-- Node1 -->
<g id="node1" class="node">
<title>Node1</title>
<polygon fill="#bfbfbf" stroke="#000000" points="5,-.5 5,-19.5 64,-19.5 64,-.5 5,-.5"/>
<text text-anchor="middle" x="34.5" y="-7.5" font-family="Helvetica,sans-Serif" font-size="10.00" fill="#000000">logData_t</text>
</g>
<!-- Node2 -->
<g id="node2" class="node">
<title>Node2</title>
<g id="a_node2"><a xlink:href="../../d6/d7d/structlog_message.html" target="_top" xlink:title="logMessage">
<polygon fill="#ffffff" stroke="#000000" points="0,-78.5 0,-97.5 69,-97.5 69,-78.5 0,-78.5"/>
<text text-anchor="middle" x="34.5" y="-85.5" font-family="Helvetica,sans-Serif" font-size="10.00" fill="#000000">logMessage</text>
</a>
</g>
</g>
<!-- Node2&#45;&gt;Node1 -->
<g id="edge1" class="edge">
<title>Node2&#45;&gt;Node1</title>
<path fill="none" stroke="#9a32cd" stroke-dasharray="5,2" d="M34.5,-68.2866C34.5,-52.7395 34.5,-31.7276 34.5,-19.6426"/>
<polygon fill="#9a32cd" stroke="#9a32cd" points="31.0001,-68.4356 34.5,-78.4357 38.0001,-68.4357 31.0001,-68.4356"/>
<text text-anchor="middle" x="44" y="-52" font-family="Helvetica,sans-Serif" font-size="10.00" fill="#000000"> last</text>
<text text-anchor="middle" x="44" y="-41" font-family="Helvetica,sans-Serif" font-size="10.00" fill="#000000">first</text>
</g>
<!-- Node2&#45;&gt;Node2 -->
<g id="edge2" class="edge">
<title>Node2&#45;&gt;Node2</title>
<path fill="none" stroke="#9a32cd" stroke-dasharray="5,2" d="M79.1904,-93.9321C83.9456,-92.7838 87,-90.8064 87,-88 87,-83.5098 79.1809,-81.1419 69.0862,-80.8963"/>
<polygon fill="#9a32cd" stroke="#9a32cd" points="78.6165,-90.4751 69.0862,-95.1037 79.4228,-97.4285 78.6165,-90.4751"/>
<text text-anchor="middle" x="98" y="-85.5" font-family="Helvetica,sans-Serif" font-size="10.00" fill="#000000"> next</text>
</g>
</g>
</svg>
