<?xml version="1.0" encoding="UTF-8" standalone="no"?>
<!DOCTYPE svg PUBLIC "-//W3C//DTD SVG 1.1//EN"
 "http://www.w3.org/Graphics/SVG/1.1/DTD/svg11.dtd">
<!-- Generated by graphviz version 2.40.1 (20161225.0304)
 -->
<!-- Title: src/libsignalhandler/SignalHandler.hpp Pages: 1 -->
<svg width="244pt" height="95pt"
 viewBox="0.00 0.00 244.00 95.00" xmlns="http://www.w3.org/2000/svg" xmlns:xlink="http://www.w3.org/1999/xlink">
<g id="graph0" class="graph" transform="scale(1 1) rotate(0) translate(4 91)">
<title>src/libsignalhandler/SignalHandler.hpp</title>
<polygon fill="#ffffff" stroke="transparent" points="-4,4 -4,-91 240,-91 240,4 -4,4"/>
<!-- Node0 -->
<g id="node1" class="node">
<title>Node0</title>
<polygon fill="#bfbfbf" stroke="#000000" points="60.5,-56.5 60.5,-86.5 160.5,-86.5 160.5,-56.5 60.5,-56.5"/>
<text text-anchor="start" x="68.5" y="-74.5" font-family="Helvetica,sans-Serif" font-size="10.00" fill="#000000">src/libsignalhandler</text>
<text text-anchor="middle" x="110.5" y="-63.5" font-family="Helvetica,sans-Serif" font-size="10.00" fill="#000000">/SignalHandler.hpp</text>
</g>
<!-- Node1 -->
<g id="node2" class="node">
<title>Node1</title>
<polygon fill="#ffffff" stroke="#bfbfbf" points="0,-.5 0,-19.5 47,-19.5 47,-.5 0,-.5"/>
<text text-anchor="middle" x="23.5" y="-7.5" font-family="Helvetica,sans-Serif" font-size="10.00" fill="#000000">csignal</text>
</g>
<!-- Node0&#45;&gt;Node1 -->
<g id="edge1" class="edge">
<title>Node0&#45;&gt;Node1</title>
<path fill="none" stroke="#191970" d="M88.9944,-56.2977C75.7032,-46.9022 58.6943,-34.8787 45.3412,-25.4395"/>
<polygon fill="#191970" stroke="#191970" points="47.3561,-22.5776 37.17,-19.6633 43.3154,-28.2937 47.3561,-22.5776"/>
</g>
<!-- Node2 -->
<g id="node3" class="node">
<title>Node2</title>
<polygon fill="#ffffff" stroke="#bfbfbf" points="65,-.5 65,-19.5 100,-19.5 100,-.5 65,-.5"/>
<text text-anchor="middle" x="82.5" y="-7.5" font-family="Helvetica,sans-Serif" font-size="10.00" fill="#000000">map</text>
</g>
<!-- Node0&#45;&gt;Node2 -->
<g id="edge2" class="edge">
<title>Node0&#45;&gt;Node2</title>
<path fill="none" stroke="#191970" d="M103.5786,-56.2977C99.8539,-48.1166 95.222,-37.943 91.2496,-29.2179"/>
<polygon fill="#191970" stroke="#191970" points="94.3122,-27.4978 86.9832,-19.8469 87.9414,-30.3983 94.3122,-27.4978"/>
</g>
<!-- Node3 -->
<g id="node4" class="node">
<title>Node3</title>
<polygon fill="#ffffff" stroke="#bfbfbf" points="118,-.5 118,-19.5 159,-19.5 159,-.5 118,-.5"/>
<text text-anchor="middle" x="138.5" y="-7.5" font-family="Helvetica,sans-Serif" font-size="10.00" fill="#000000">stack</text>
</g>
<!-- Node0&#45;&gt;Node3 -->
<g id="edge3" class="edge">
<title>Node0&#45;&gt;Node3</title>
<path fill="none" stroke="#191970" d="M117.4214,-56.2977C121.1461,-48.1166 125.778,-37.943 129.7504,-29.2179"/>
<polygon fill="#191970" stroke="#191970" points="133.0586,-30.3983 134.0168,-19.8469 126.6878,-27.4978 133.0586,-30.3983"/>
</g>
<!-- Node4 -->
<g id="node5" class="node">
<title>Node4</title>
<polygon fill="#ffffff" stroke="#bfbfbf" points="177,-.5 177,-19.5 236,-19.5 236,-.5 177,-.5"/>
<text text-anchor="middle" x="206.5" y="-7.5" font-family="Helvetica,sans-Serif" font-size="10.00" fill="#000000">stdexcept</text>
</g>
<!-- Node0&#45;&gt;Node4 -->
<g id="edge4" class="edge">
<title>Node0&#45;&gt;Node4</title>
<path fill="none" stroke="#191970" d="M134.2303,-56.2977C149.0362,-46.8127 168.0228,-34.6495 182.8193,-25.1705"/>
<polygon fill="#191970" stroke="#191970" points="184.8835,-28.0047 191.4159,-19.6633 181.1075,-22.1105 184.8835,-28.0047"/>
</g>
</g>
</svg>
