<?xml version="1.0" encoding="UTF-8" standalone="no"?>
<!DOCTYPE svg PUBLIC "-//W3C//DTD SVG 1.1//EN"
 "http://www.w3.org/Graphics/SVG/1.1/DTD/svg11.dtd">
<!-- Generated by graphviz version 2.40.1 (20161225.0304)
 -->
<!-- Title: src/deviceMonitor/apis/RestAPI.hpp Pages: 1 -->
<svg width="402pt" height="162pt"
 viewBox="0.00 0.00 402.00 162.00" xmlns="http://www.w3.org/2000/svg" xmlns:xlink="http://www.w3.org/1999/xlink">
<g id="graph0" class="graph" transform="scale(1 1) rotate(0) translate(4 158)">
<title>src/deviceMonitor/apis/RestAPI.hpp</title>
<polygon fill="#ffffff" stroke="transparent" points="-4,4 -4,-158 398,-158 398,4 -4,4"/>
<!-- Node18 -->
<g id="node1" class="node">
<title>Node18</title>
<polygon fill="#bfbfbf" stroke="#000000" points="158,-123.5 158,-153.5 273,-153.5 273,-123.5 158,-123.5"/>
<text text-anchor="start" x="166" y="-141.5" font-family="Helvetica,sans-Serif" font-size="10.00" fill="#000000">src/deviceMonitor/apis</text>
<text text-anchor="middle" x="215.5" y="-130.5" font-family="Helvetica,sans-Serif" font-size="10.00" fill="#000000">/RestAPI.hpp</text>
</g>
<!-- Node19 -->
<g id="node2" class="node">
<title>Node19</title>
<g id="a_node2"><a xlink:href="../../d0/d9b/_rest_a_p_i_8cpp.html" target="_top" xlink:title="src/deviceMonitor/apis\l/RestAPI.cpp">
<polygon fill="#ffffff" stroke="#000000" points="0,-56.5 0,-86.5 115,-86.5 115,-56.5 0,-56.5"/>
<text text-anchor="start" x="8" y="-74.5" font-family="Helvetica,sans-Serif" font-size="10.00" fill="#000000">src/deviceMonitor/apis</text>
<text text-anchor="middle" x="57.5" y="-63.5" font-family="Helvetica,sans-Serif" font-size="10.00" fill="#000000">/RestAPI.cpp</text>
</a>
</g>
</g>
<!-- Node18&#45;&gt;Node19 -->
<g id="edge1" class="edge">
<title>Node18&#45;&gt;Node19</title>
<path fill="none" stroke="#191970" d="M170.5798,-119.4516C146.0252,-109.0392 116.0364,-96.3224 93.1129,-86.6017"/>
<polygon fill="#191970" stroke="#191970" points="169.4688,-122.7821 180.0417,-123.4639 172.2017,-116.3376 169.4688,-122.7821"/>
</g>
<!-- Node20 -->
<g id="node3" class="node">
<title>Node20</title>
<g id="a_node3"><a xlink:href="../../d2/dcb/_application_8hpp.html" target="_top" xlink:title="src/deviceMonitor/Application.hpp">
<polygon fill="#ffffff" stroke="#000000" points="133.5,-62 133.5,-81 297.5,-81 297.5,-62 133.5,-62"/>
<text text-anchor="middle" x="215.5" y="-69" font-family="Helvetica,sans-Serif" font-size="10.00" fill="#000000">src/deviceMonitor/Application.hpp</text>
</a>
</g>
</g>
<!-- Node18&#45;&gt;Node20 -->
<g id="edge2" class="edge">
<title>Node18&#45;&gt;Node20</title>
<path fill="none" stroke="#191970" d="M215.5,-113.1199C215.5,-101.9072 215.5,-89.4031 215.5,-81.055"/>
<polygon fill="#191970" stroke="#191970" points="212.0001,-113.2966 215.5,-123.2967 219.0001,-113.2967 212.0001,-113.2966"/>
</g>
<!-- Node22 -->
<g id="node5" class="node">
<title>Node22</title>
<g id="a_node5"><a xlink:href="../../df/d0a/main_8cpp.html" target="_top" xlink:title="src/deviceMonitor/main.cpp">
<polygon fill="#ffffff" stroke="#000000" points="257,-.5 257,-19.5 394,-19.5 394,-.5 257,-.5"/>
<text text-anchor="middle" x="325.5" y="-7.5" font-family="Helvetica,sans-Serif" font-size="10.00" fill="#000000">src/deviceMonitor/main.cpp</text>
</a>
</g>
</g>
<!-- Node18&#45;&gt;Node22 -->
<g id="edge5" class="edge">
<title>Node18&#45;&gt;Node22</title>
<path fill="none" stroke="#191970" d="M266.908,-118.7481C281.5787,-110.8699 296.3257,-100.4153 306.5,-87 321.9758,-66.5944 324.9933,-35.1929 325.4864,-19.5459"/>
<polygon fill="#191970" stroke="#191970" points="265.1809,-115.6991 257.8248,-123.324 268.3302,-121.9507 265.1809,-115.6991"/>
</g>
<!-- Node21 -->
<g id="node4" class="node">
<title>Node21</title>
<g id="a_node4"><a xlink:href="../../d0/d42/_application_8cpp.html" target="_top" xlink:title="src/deviceMonitor/Application.cpp">
<polygon fill="#ffffff" stroke="#000000" points="74.5,-.5 74.5,-19.5 238.5,-19.5 238.5,-.5 74.5,-.5"/>
<text text-anchor="middle" x="156.5" y="-7.5" font-family="Helvetica,sans-Serif" font-size="10.00" fill="#000000">src/deviceMonitor/Application.cpp</text>
</a>
</g>
</g>
<!-- Node20&#45;&gt;Node21 -->
<g id="edge3" class="edge">
<title>Node20&#45;&gt;Node21</title>
<path fill="none" stroke="#191970" d="M199.0958,-54.4007C188.3761,-43.2268 174.7618,-29.0356 165.8487,-19.7449"/>
<polygon fill="#191970" stroke="#191970" points="196.8327,-57.0974 206.2813,-61.8906 201.884,-52.2514 196.8327,-57.0974"/>
</g>
<!-- Node20&#45;&gt;Node22 -->
<g id="edge4" class="edge">
<title>Node20&#45;&gt;Node22</title>
<path fill="none" stroke="#191970" d="M241.587,-56.915C262.2642,-45.3546 290.5593,-29.535 308.4332,-19.5419"/>
<polygon fill="#191970" stroke="#191970" points="239.7079,-53.9556 232.6875,-61.8906 243.124,-60.0655 239.7079,-53.9556"/>
</g>
</g>
</svg>
