<?xml version="1.0" encoding="UTF-8" standalone="no"?>
<!DOCTYPE svg PUBLIC "-//W3C//DTD SVG 1.1//EN"
 "http://www.w3.org/Graphics/SVG/1.1/DTD/svg11.dtd">
<!-- Generated by graphviz version 2.40.1 (20161225.0304)
 -->
<!-- Title: DataStorage Pages: 1 -->
<svg width="425pt" height="497pt"
 viewBox="0.00 0.00 424.50 497.00" xmlns="http://www.w3.org/2000/svg" xmlns:xlink="http://www.w3.org/1999/xlink">
<g id="graph0" class="graph" transform="scale(1 1) rotate(0) translate(4 493)">
<title>DataStorage</title>
<polygon fill="#ffffff" stroke="transparent" points="-4,4 -4,-493 420.5,-493 420.5,4 -4,4"/>
<!-- Node1 -->
<g id="node1" class="node">
<title>Node1</title>
<polygon fill="#bfbfbf" stroke="#000000" points="0,-.5 0,-19.5 71,-19.5 71,-.5 0,-.5"/>
<text text-anchor="middle" x="35.5" y="-7.5" font-family="Helvetica,sans-Serif" font-size="10.00" fill="#000000">DataStorage</text>
</g>
<!-- Node2 -->
<g id="node2" class="node">
<title>Node2</title>
<g id="a_node2"><a xlink:title="STL class. ">
<polygon fill="#ffffff" stroke="#bfbfbf" points="77.5,-401.5 77.5,-420.5 137.5,-420.5 137.5,-401.5 77.5,-401.5"/>
<text text-anchor="middle" x="107.5" y="-408.5" font-family="Helvetica,sans-Serif" font-size="10.00" fill="#000000">std::string</text>
</a>
</g>
</g>
<!-- Node2&#45;&gt;Node1 -->
<g id="edge1" class="edge">
<title>Node2&#45;&gt;Node1</title>
<path fill="none" stroke="#9a32cd" stroke-dasharray="5,2" d="M67.738,-397.9038C44.4202,-387.4501 19.5,-370.1588 19.5,-344 19.5,-344 19.5,-344 19.5,-82.5 19.5,-59.5564 27.2354,-33.4679 31.9491,-19.7002"/>
<polygon fill="#9a32cd" stroke="#9a32cd" points="66.6378,-401.2367 77.2154,-401.8406 69.3231,-394.7723 66.6378,-401.2367"/>
<text text-anchor="middle" x="56" y="-219" font-family="Helvetica,sans-Serif" font-size="10.00" fill="#000000"> key_name</text>
<text text-anchor="middle" x="56" y="-208" font-family="Helvetica,sans-Serif" font-size="10.00" fill="#000000">key_voltage</text>
<text text-anchor="middle" x="56" y="-197" font-family="Helvetica,sans-Serif" font-size="10.00" fill="#000000">key_current</text>
<text text-anchor="middle" x="56" y="-186" font-family="Helvetica,sans-Serif" font-size="10.00" fill="#000000">key_temperature</text>
</g>
<!-- Node5 -->
<g id="node5" class="node">
<title>Node5</title>
<g id="a_node5"><a xlink:href="../../de/d11/struct_data_storage_1_1_device_record.html" target="_top" xlink:title="DataStorage::DeviceRecord">
<polygon fill="#ffffff" stroke="#000000" points="75.5,-145.5 75.5,-164.5 215.5,-164.5 215.5,-145.5 75.5,-145.5"/>
<text text-anchor="middle" x="145.5" y="-152.5" font-family="Helvetica,sans-Serif" font-size="10.00" fill="#000000">DataStorage::DeviceRecord</text>
</a>
</g>
</g>
<!-- Node2&#45;&gt;Node5 -->
<g id="edge5" class="edge">
<title>Node2&#45;&gt;Node5</title>
<path fill="none" stroke="#9a32cd" stroke-dasharray="5,2" d="M109.1567,-391.2254C111.9066,-360.0284 117.9681,-297.5315 126.5,-245 131.2874,-215.5235 139.2188,-181.0877 143.1466,-164.666"/>
<polygon fill="#9a32cd" stroke="#9a32cd" points="105.6664,-390.9629 108.2949,-401.2264 112.6406,-391.5639 105.6664,-390.9629"/>
<text text-anchor="middle" x="133.5" y="-302.5" font-family="Helvetica,sans-Serif" font-size="10.00" fill="#000000"> name</text>
</g>
<!-- Node7 -->
<g id="node7" class="node">
<title>Node7</title>
<g id="a_node7"><a xlink:href="../../de/dfd/struct_data_storage_1_1_value.html" target="_top" xlink:title="DataStorage::Value">
<polygon fill="#ffffff" stroke="#000000" points="135.5,-334.5 135.5,-353.5 237.5,-353.5 237.5,-334.5 135.5,-334.5"/>
<text text-anchor="middle" x="186.5" y="-341.5" font-family="Helvetica,sans-Serif" font-size="10.00" fill="#000000">DataStorage::Value</text>
</a>
</g>
</g>
<!-- Node2&#45;&gt;Node7 -->
<g id="edge8" class="edge">
<title>Node2&#45;&gt;Node7</title>
<path fill="none" stroke="#9a32cd" stroke-dasharray="5,2" d="M126.6024,-394.7992C141.7965,-381.9131 162.5398,-364.3207 175.2022,-353.5817"/>
<polygon fill="#9a32cd" stroke="#9a32cd" points="124.1815,-392.2631 118.8188,-401.4005 128.7092,-397.6017 124.1815,-392.2631"/>
<text text-anchor="middle" x="166.5" y="-375" font-family="Helvetica,sans-Serif" font-size="10.00" fill="#000000"> name</text>
</g>
<!-- Node3 -->
<g id="node3" class="node">
<title>Node3</title>
<g id="a_node3"><a xlink:title="STL class. ">
<polygon fill="#ffffff" stroke="#bfbfbf" points="60,-458.5 60,-488.5 155,-488.5 155,-458.5 60,-458.5"/>
<text text-anchor="start" x="68" y="-476.5" font-family="Helvetica,sans-Serif" font-size="10.00" fill="#000000">std::basic_string&lt;</text>
<text text-anchor="middle" x="107.5" y="-465.5" font-family="Helvetica,sans-Serif" font-size="10.00" fill="#000000"> char &gt;</text>
</a>
</g>
</g>
<!-- Node3&#45;&gt;Node2 -->
<g id="edge2" class="edge">
<title>Node3&#45;&gt;Node2</title>
<path fill="none" stroke="#191970" d="M107.5,-448.3498C107.5,-438.6481 107.5,-428.1303 107.5,-420.7356"/>
<polygon fill="#191970" stroke="#191970" points="104.0001,-448.3705 107.5,-458.3705 111.0001,-448.3705 104.0001,-448.3705"/>
</g>
<!-- Node4 -->
<g id="node4" class="node">
<title>Node4</title>
<polygon fill="#ffffff" stroke="#bfbfbf" points="69.5,-67.5 69.5,-97.5 221.5,-97.5 221.5,-67.5 69.5,-67.5"/>
<text text-anchor="start" x="77.5" y="-85.5" font-family="Helvetica,sans-Serif" font-size="10.00" fill="#000000">std::map&lt; deviceId,</text>
<text text-anchor="middle" x="145.5" y="-74.5" font-family="Helvetica,sans-Serif" font-size="10.00" fill="#000000"> DataStorage::DeviceRecord &gt;</text>
</g>
<!-- Node4&#45;&gt;Node1 -->
<g id="edge3" class="edge">
<title>Node4&#45;&gt;Node1</title>
<path fill="none" stroke="#9a32cd" stroke-dasharray="5,2" d="M114.1023,-61.8061C93.1041,-47.9663 66.4415,-30.3933 50.1907,-19.6825"/>
<polygon fill="#9a32cd" stroke="#9a32cd" points="112.4322,-64.8971 122.7079,-67.478 116.2844,-59.0524 112.4322,-64.8971"/>
<text text-anchor="middle" x="117.5" y="-41" font-family="Helvetica,sans-Serif" font-size="10.00" fill="#000000"> dataStore</text>
</g>
<!-- Node5&#45;&gt;Node4 -->
<g id="edge4" class="edge">
<title>Node5&#45;&gt;Node4</title>
<path fill="none" stroke="#9a32cd" stroke-dasharray="5,2" d="M145.5,-135.0177C145.5,-123.2164 145.5,-108.513 145.5,-97.668"/>
<polygon fill="#9a32cd" stroke="#9a32cd" points="142.0001,-135.2223 145.5,-145.2223 149.0001,-135.2224 142.0001,-135.2223"/>
<text text-anchor="middle" x="167" y="-119" font-family="Helvetica,sans-Serif" font-size="10.00" fill="#000000"> elements</text>
</g>
<!-- Node6 -->
<g id="node6" class="node">
<title>Node6</title>
<polygon fill="#ffffff" stroke="#bfbfbf" points="135.5,-245.5 135.5,-275.5 249.5,-275.5 249.5,-245.5 135.5,-245.5"/>
<text text-anchor="start" x="143.5" y="-263.5" font-family="Helvetica,sans-Serif" font-size="10.00" fill="#000000">std::map&lt; valueId,</text>
<text text-anchor="middle" x="192.5" y="-252.5" font-family="Helvetica,sans-Serif" font-size="10.00" fill="#000000"> DataStorage::Value &gt;</text>
</g>
<!-- Node6&#45;&gt;Node5 -->
<g id="edge6" class="edge">
<title>Node6&#45;&gt;Node5</title>
<path fill="none" stroke="#9a32cd" stroke-dasharray="5,2" d="M181.6108,-236.0572C171.5117,-213.388 156.9977,-180.8086 149.8354,-164.7317"/>
<polygon fill="#9a32cd" stroke="#9a32cd" points="178.4995,-237.6742 185.766,-245.3844 184.8937,-234.8256 178.4995,-237.6742"/>
<text text-anchor="middle" x="211.5" y="-202.5" font-family="Helvetica,sans-Serif" font-size="10.00" fill="#000000"> measurements</text>
</g>
<!-- Node7&#45;&gt;Node6 -->
<g id="edge7" class="edge">
<title>Node7&#45;&gt;Node6</title>
<path fill="none" stroke="#9a32cd" stroke-dasharray="5,2" d="M176.3522,-324.9827C175.1752,-322.0458 174.1609,-318.9929 173.5,-316 171.3916,-306.4522 171.0056,-303.4542 173.5,-294 175.1716,-287.6643 178.3478,-281.27 181.6316,-275.7906"/>
<polygon fill="#9a32cd" stroke="#9a32cd" points="173.2892,-326.6948 180.7022,-334.2644 179.6276,-323.7242 173.2892,-326.6948"/>
<text text-anchor="middle" x="195" y="-302.5" font-family="Helvetica,sans-Serif" font-size="10.00" fill="#000000"> elements</text>
</g>
<!-- Node8 -->
<g id="node8" class="node">
<title>Node8</title>
<g id="a_node8"><a xlink:title="STL class. ">
<polygon fill="#ffffff" stroke="#bfbfbf" points="283.5,-334.5 283.5,-353.5 375.5,-353.5 375.5,-334.5 283.5,-334.5"/>
<text text-anchor="middle" x="329.5" y="-341.5" font-family="Helvetica,sans-Serif" font-size="10.00" fill="#000000">std::map&lt; K, T &gt;</text>
</a>
</g>
</g>
<!-- Node8&#45;&gt;Node4 -->
<g id="edge12" class="edge">
<title>Node8&#45;&gt;Node4</title>
<path fill="none" stroke="#ffa500" stroke-dasharray="5,2" d="M341.0632,-325.3971C342.4803,-322.3544 343.7067,-319.1608 344.5,-316 346.8802,-306.5164 347.7516,-303.2213 344.5,-294 312.0577,-201.9954 214.9657,-128.241 169.4912,-97.712"/>
<polygon fill="#ffa500" stroke="#ffa500" points="337.8811,-323.9226 336.1807,-334.3801 344.0313,-327.2654 337.8811,-323.9226"/>
<text text-anchor="start" x="306.5" y="-208" font-family="Helvetica,sans-Serif" font-size="10.00" fill="#000000"> &lt; deviceId, DataStorage</text>
<text text-anchor="middle" x="361.5" y="-197" font-family="Helvetica,sans-Serif" font-size="10.00" fill="#000000">::DeviceRecord &gt;</text>
</g>
<!-- Node8&#45;&gt;Node6 -->
<g id="edge9" class="edge">
<title>Node8&#45;&gt;Node6</title>
<path fill="none" stroke="#ffa500" stroke-dasharray="5,2" d="M273.494,-331.9631C261.6946,-327.9846 249.7328,-322.7758 239.5,-316 231.078,-310.4233 214.8241,-290.1378 203.8181,-275.7079"/>
<polygon fill="#ffa500" stroke="#ffa500" points="272.7374,-335.3932 283.3258,-335.023 274.8176,-328.7094 272.7374,-335.3932"/>
<text text-anchor="start" x="239.5" y="-308" font-family="Helvetica,sans-Serif" font-size="10.00" fill="#000000"> &lt; valueId, DataStorage</text>
<text text-anchor="middle" x="292" y="-297" font-family="Helvetica,sans-Serif" font-size="10.00" fill="#000000">::Value &gt;</text>
</g>
<!-- Node9 -->
<g id="node9" class="node">
<title>Node9</title>
<polygon fill="#ffffff" stroke="#bfbfbf" points="291,-401.5 291,-420.5 320,-420.5 320,-401.5 291,-401.5"/>
<text text-anchor="middle" x="305.5" y="-408.5" font-family="Helvetica,sans-Serif" font-size="10.00" fill="#000000">K</text>
</g>
<!-- Node9&#45;&gt;Node8 -->
<g id="edge10" class="edge">
<title>Node9&#45;&gt;Node8</title>
<path fill="none" stroke="#9a32cd" stroke-dasharray="5,2" d="M303.5243,-391.0305C303.5557,-384.7726 304.2831,-377.9502 306.5,-372 309.0917,-365.0439 314.1809,-358.5515 318.9145,-353.5732"/>
<polygon fill="#9a32cd" stroke="#9a32cd" points="300.0468,-391.5643 304.0479,-401.3745 307.0378,-391.2103 300.0468,-391.5643"/>
<text text-anchor="middle" x="319" y="-375" font-family="Helvetica,sans-Serif" font-size="10.00" fill="#000000"> keys</text>
</g>
<!-- Node10 -->
<g id="node10" class="node">
<title>Node10</title>
<polygon fill="#ffffff" stroke="#bfbfbf" points="339,-401.5 339,-420.5 368,-420.5 368,-401.5 339,-401.5"/>
<text text-anchor="middle" x="353.5" y="-408.5" font-family="Helvetica,sans-Serif" font-size="10.00" fill="#000000">T</text>
</g>
<!-- Node10&#45;&gt;Node8 -->
<g id="edge11" class="edge">
<title>Node10&#45;&gt;Node8</title>
<path fill="none" stroke="#9a32cd" stroke-dasharray="5,2" d="M346.6449,-391.8628C342.1607,-379.3444 336.4941,-363.5252 332.9322,-353.5817"/>
<polygon fill="#9a32cd" stroke="#9a32cd" points="343.3941,-393.1666 350.0614,-401.4005 349.984,-390.806 343.3941,-393.1666"/>
<text text-anchor="middle" x="364" y="-375" font-family="Helvetica,sans-Serif" font-size="10.00" fill="#000000"> elements</text>
</g>
</g>
</svg>
