<?xml version="1.0" encoding="UTF-8" standalone="no"?>
<!DOCTYPE svg PUBLIC "-//W3C//DTD SVG 1.1//EN"
 "http://www.w3.org/Graphics/SVG/1.1/DTD/svg11.dtd">
<!-- Generated by graphviz version 2.40.1 (20161225.0304)
 -->
<!-- Title: src/deviceMonitor/middleware/MessageProcessor.cpp Pages: 1 -->
<!--zoomable 263 -->
<svg id="main" version="1.1" xmlns="http://www.w3.org/2000/svg" xmlns:xlink="http://www.w3.org/1999/xlink" xml:space="preserve" onload="init(evt)">
<style type="text/css"><![CDATA[
.edge:hover path { stroke: red; }
.edge:hover polygon { stroke: red; fill: red; }
]]></style>
<script type="text/javascript"><![CDATA[
var edges = document.getElementsByTagName('g');
if (edges && edges.length) {
  for (var i=0;i<edges.length;i++) {
    if (edges[i].id.substr(0,4)=='edge') {
      edges[i].setAttribute('class','edge');
    }
  }
}
]]></script>
        <defs>
                <circle id="rim" cx="0" cy="0" r="7"/>
                <circle id="rim2" cx="0" cy="0" r="3.5"/>
                <g id="zoomPlus">
                        <use xlink:href="#rim" fill="#404040">
                                <set attributeName="fill" to="#808080" begin="zoomplus.mouseover" end="zoomplus.mouseout"/>
                        </use>
                        <path d="M-4,0h8M0,-4v8" fill="none" stroke="white" stroke-width="1.5" pointer-events="none"/>
                </g>
                <g id="zoomMin">
                        <use xlink:href="#rim" fill="#404040">
                                <set attributeName="fill" to="#808080" begin="zoomminus.mouseover" end="zoomminus.mouseout"/>
                        </use>
                        <path d="M-4,0h8" fill="none" stroke="white" stroke-width="1.5" pointer-events="none"/>
                </g>
                <g id="dirArrow">
                        <path fill="none" stroke="white" stroke-width="1.5" d="M0,-3.0v7 M-2.5,-0.5L0,-3.0L2.5,-0.5"/>
                </g>
               <g id="resetDef">
                       <use xlink:href="#rim2" fill="#404040">
                               <set attributeName="fill" to="#808080" begin="reset.mouseover" end="reset.mouseout"/>
                       </use>
               </g>
        </defs>

<script type="text/javascript">
var viewWidth = 1270;
var viewHeight = 263;
var sectionId = 'dynsection-0';
</script>
<script xlink:href="../../svgpan.js"/>
<svg id="graph" class="graph">
<g id="viewport">
<title>src/deviceMonitor/middleware/MessageProcessor.cpp</title>
<polygon fill="#ffffff" stroke="transparent" points="-4,4 -4,-259 1265.5,-259 1265.5,4 -4,4"/>
<!-- Node0 -->
<g id="node1" class="node">
<title>Node0</title>
<polygon fill="#bfbfbf" stroke="#000000" points="354.5,-224.5 354.5,-254.5 500.5,-254.5 500.5,-224.5 354.5,-224.5"/>
<text text-anchor="start" x="362.5" y="-242.5" font-family="Helvetica,sans-Serif" font-size="10.00" fill="#000000">src/deviceMonitor/middleware</text>
<text text-anchor="middle" x="427.5" y="-231.5" font-family="Helvetica,sans-Serif" font-size="10.00" fill="#000000">/MessageProcessor.cpp</text>
</g>
<!-- Node1 -->
<g id="node2" class="node">
<title>Node1</title>
<g id="a_node2"><a xlink:href="../../d8/dc9/_message_processor_8hpp.html" target="_top" xlink:title="MessageProcessor.hpp">
<polygon fill="#ffffff" stroke="#000000" points="242,-168.5 242,-187.5 361,-187.5 361,-168.5 242,-168.5"/>
<text text-anchor="middle" x="301.5" y="-175.5" font-family="Helvetica,sans-Serif" font-size="10.00" fill="#000000">MessageProcessor.hpp</text>
</a>
</g>
</g>
<!-- Node0&#45;&gt;Node1 -->
<g id="edge1" class="edge">
<title>Node0&#45;&gt;Node1</title>
<path fill="none" stroke="#191970" d="M396.6769,-224.4554C376.3912,-214.554 350.0212,-201.683 330.1838,-192.0004"/>
<polygon fill="#191970" stroke="#191970" points="331.5474,-188.7714 321.0255,-187.5303 328.477,-195.062 331.5474,-188.7714"/>
</g>
<!-- Node19 -->
<g id="node20" class="node">
<title>Node19</title>
<g id="a_node20"><a xlink:href="../../d7/d83/_data_storage_8hpp.html" target="_top" xlink:title="../storage/DataStorage.hpp">
<polygon fill="#ffffff" stroke="#000000" points="547.5,-168.5 547.5,-187.5 681.5,-187.5 681.5,-168.5 547.5,-168.5"/>
<text text-anchor="middle" x="614.5" y="-175.5" font-family="Helvetica,sans-Serif" font-size="10.00" fill="#000000">../storage/DataStorage.hpp</text>
</a>
</g>
</g>
<!-- Node0&#45;&gt;Node19 -->
<g id="edge23" class="edge">
<title>Node0&#45;&gt;Node19</title>
<path fill="none" stroke="#191970" d="M473.2453,-224.4554C504.7205,-214.104 546.0649,-200.5067 575.8824,-190.7004"/>
<polygon fill="#191970" stroke="#191970" points="577.1157,-193.9793 585.5216,-187.5303 574.9287,-187.3297 577.1157,-193.9793"/>
</g>
<!-- Node2 -->
<g id="node3" class="node">
<title>Node2</title>
<g id="a_node3"><a xlink:href="../../d6/d8f/_abstract_a_p_i_8hpp.html" target="_top" xlink:title="../apis/AbstractAPI.hpp">
<polygon fill="#ffffff" stroke="#000000" points="555,-112.5 555,-131.5 674,-131.5 674,-112.5 555,-112.5"/>
<text text-anchor="middle" x="614.5" y="-119.5" font-family="Helvetica,sans-Serif" font-size="10.00" fill="#000000">../apis/AbstractAPI.hpp</text>
</a>
</g>
</g>
<!-- Node1&#45;&gt;Node2 -->
<g id="edge2" class="edge">
<title>Node1&#45;&gt;Node2</title>
<path fill="none" stroke="#191970" d="M354.951,-168.4369C409.3063,-158.712 493.5165,-143.6456 551.1819,-133.3285"/>
<polygon fill="#191970" stroke="#191970" points="552.0422,-136.7302 561.2695,-131.5237 550.8094,-129.8396 552.0422,-136.7302"/>
</g>
<!-- Node7 -->
<g id="node8" class="node">
<title>Node7</title>
<polygon fill="#ffffff" stroke="#bfbfbf" points="395.5,-56.5 395.5,-75.5 439.5,-75.5 439.5,-56.5 395.5,-56.5"/>
<text text-anchor="middle" x="417.5" y="-63.5" font-family="Helvetica,sans-Serif" font-size="10.00" fill="#000000">mutex</text>
</g>
<!-- Node1&#45;&gt;Node7 -->
<g id="edge19" class="edge">
<title>Node1&#45;&gt;Node7</title>
<path fill="none" stroke="#191970" d="M311.3901,-168.4509C331.1656,-149.3574 375.7921,-106.2697 400.4041,-82.5063"/>
<polygon fill="#191970" stroke="#191970" points="402.872,-84.9888 407.6349,-75.5249 398.0098,-79.9529 402.872,-84.9888"/>
</g>
<!-- Node9 -->
<g id="node10" class="node">
<title>Node9</title>
<polygon fill="#ffffff" stroke="#bfbfbf" points="2.5,-56.5 2.5,-75.5 112.5,-75.5 112.5,-56.5 2.5,-56.5"/>
<text text-anchor="middle" x="57.5" y="-63.5" font-family="Helvetica,sans-Serif" font-size="10.00" fill="#000000">rapidjson/document.h</text>
</g>
<!-- Node1&#45;&gt;Node9 -->
<g id="edge20" class="edge">
<title>Node1&#45;&gt;Node9</title>
<path fill="none" stroke="#191970" d="M254.7959,-168.4565C223.4261,-160.9998 181.7283,-149.0227 147.5,-132 120.5141,-118.5792 93.0952,-97.1014 75.7322,-82.3122"/>
<polygon fill="#191970" stroke="#191970" points="77.9083,-79.5665 68.0624,-75.654 73.3195,-84.8526 77.9083,-79.5665"/>
</g>
<!-- Node11 -->
<g id="node12" class="node">
<title>Node11</title>
<polygon fill="#ffffff" stroke="#bfbfbf" points="131,-56.5 131,-75.5 268,-75.5 268,-56.5 131,-56.5"/>
<text text-anchor="middle" x="199.5" y="-63.5" font-family="Helvetica,sans-Serif" font-size="10.00" fill="#000000">rapidjson/ostreamwrapper.h</text>
</g>
<!-- Node1&#45;&gt;Node11 -->
<g id="edge21" class="edge">
<title>Node1&#45;&gt;Node11</title>
<path fill="none" stroke="#191970" d="M272.2858,-168.3822C254.3487,-161.0632 232.2524,-149.2693 218.5,-132 207.9501,-118.7521 203.2581,-99.8887 201.1714,-85.7186"/>
<polygon fill="#191970" stroke="#191970" points="204.6219,-85.0885 199.9943,-75.5577 197.6684,-85.8941 204.6219,-85.0885"/>
</g>
<!-- Node13 -->
<g id="node14" class="node">
<title>Node13</title>
<polygon fill="#ffffff" stroke="#bfbfbf" points="286,-56.5 286,-75.5 377,-75.5 377,-56.5 286,-56.5"/>
<text text-anchor="middle" x="331.5" y="-63.5" font-family="Helvetica,sans-Serif" font-size="10.00" fill="#000000">rapidjson/writer.h</text>
</g>
<!-- Node1&#45;&gt;Node13 -->
<g id="edge22" class="edge">
<title>Node1&#45;&gt;Node13</title>
<path fill="none" stroke="#191970" d="M304.0578,-168.4509C308.9729,-150.1013 319.8239,-109.5908 326.3118,-85.3693"/>
<polygon fill="#191970" stroke="#191970" points="329.7421,-86.09 328.9487,-75.5249 322.9804,-84.2788 329.7421,-86.09"/>
</g>
<!-- Node17 -->
<g id="node18" class="node">
<title>Node17</title>
<polygon fill="#ffffff" stroke="#bfbfbf" points="0,-112.5 0,-131.5 95,-131.5 95,-112.5 0,-112.5"/>
<text text-anchor="middle" x="47.5" y="-119.5" font-family="Helvetica,sans-Serif" font-size="10.00" fill="#000000">condition_variable</text>
</g>
<!-- Node1&#45;&gt;Node17 -->
<g id="edge17" class="edge">
<title>Node1&#45;&gt;Node17</title>
<path fill="none" stroke="#191970" d="M258.1244,-168.4369C214.563,-158.8328 147.3723,-144.0191 100.6366,-133.7152"/>
<polygon fill="#191970" stroke="#191970" points="101.2157,-130.2588 90.6966,-131.5237 99.7085,-137.0947 101.2157,-130.2588"/>
</g>
<!-- Node18 -->
<g id="node19" class="node">
<title>Node18</title>
<polygon fill="#ffffff" stroke="#bfbfbf" points="227.5,-112.5 227.5,-131.5 281.5,-131.5 281.5,-112.5 227.5,-112.5"/>
<text text-anchor="middle" x="254.5" y="-119.5" font-family="Helvetica,sans-Serif" font-size="10.00" fill="#000000">iostream</text>
</g>
<!-- Node1&#45;&gt;Node18 -->
<g id="edge18" class="edge">
<title>Node1&#45;&gt;Node18</title>
<path fill="none" stroke="#191970" d="M293.3132,-168.2455C286.6411,-160.2958 277.0521,-148.8706 269.0747,-139.3656"/>
<polygon fill="#191970" stroke="#191970" points="271.7026,-137.0524 262.593,-131.6427 266.3408,-141.5525 271.7026,-137.0524"/>
</g>
<!-- Node3 -->
<g id="node4" class="node">
<title>Node3</title>
<g id="a_node4"><a xlink:href="../../d3/de3/_logger_8hpp.html" target="_top" xlink:title="Logger.hpp">
<polygon fill="#ffffff" stroke="#000000" points="1126,-56.5 1126,-75.5 1191,-75.5 1191,-56.5 1126,-56.5"/>
<text text-anchor="middle" x="1158.5" y="-63.5" font-family="Helvetica,sans-Serif" font-size="10.00" fill="#000000">Logger.hpp</text>
</a>
</g>
</g>
<!-- Node2&#45;&gt;Node3 -->
<g id="edge3" class="edge">
<title>Node2&#45;&gt;Node3</title>
<path fill="none" stroke="#191970" d="M674.3506,-119.2754C766.8734,-114.4574 950.3011,-102.4957 1115.2399,-75.9915"/>
<polygon fill="#191970" stroke="#191970" points="1116.2678,-79.3702 1125.5747,-74.3075 1115.142,-72.4614 1116.2678,-79.3702"/>
</g>
<!-- Node5 -->
<g id="node6" class="node">
<title>Node5</title>
<polygon fill="#ffffff" stroke="#bfbfbf" points="639.5,-56.5 639.5,-75.5 689.5,-75.5 689.5,-56.5 639.5,-56.5"/>
<text text-anchor="middle" x="664.5" y="-63.5" font-family="Helvetica,sans-Serif" font-size="10.00" fill="#000000">fstream</text>
</g>
<!-- Node2&#45;&gt;Node5 -->
<g id="edge5" class="edge">
<title>Node2&#45;&gt;Node5</title>
<path fill="none" stroke="#191970" d="M623.2093,-112.2455C630.3073,-104.2958 640.5084,-92.8706 648.995,-83.3656"/>
<polygon fill="#191970" stroke="#191970" points="651.8411,-85.4331 655.8905,-75.6427 646.6195,-80.771 651.8411,-85.4331"/>
</g>
<!-- Node6 -->
<g id="node7" class="node">
<title>Node6</title>
<polygon fill="#ffffff" stroke="#bfbfbf" points="1209.5,-56.5 1209.5,-75.5 1261.5,-75.5 1261.5,-56.5 1209.5,-56.5"/>
<text text-anchor="middle" x="1235.5" y="-63.5" font-family="Helvetica,sans-Serif" font-size="10.00" fill="#000000">memory</text>
</g>
<!-- Node2&#45;&gt;Node6 -->
<g id="edge6" class="edge">
<title>Node2&#45;&gt;Node6</title>
<path fill="none" stroke="#191970" d="M674.3386,-118.8261C798.8931,-111.9783 1083.3789,-95.0207 1199.239,-75.8483"/>
<polygon fill="#191970" stroke="#191970" points="1200.0066,-79.2674 1209.2595,-74.1065 1198.8078,-72.3708 1200.0066,-79.2674"/>
</g>
<!-- Node2&#45;&gt;Node7 -->
<g id="edge7" class="edge">
<title>Node2&#45;&gt;Node7</title>
<path fill="none" stroke="#191970" d="M578.4322,-112.4707C546.7637,-104.0003 499.2374,-91.0396 449.4642,-76.2112"/>
<polygon fill="#191970" stroke="#191970" points="450.4001,-72.838 439.8163,-73.3216 448.3916,-79.5436 450.4001,-72.838"/>
</g>
<!-- Node8 -->
<g id="node9" class="node">
<title>Node8</title>
<polygon fill="#ffffff" stroke="#bfbfbf" points="708,-56.5 708,-75.5 751,-75.5 751,-56.5 708,-56.5"/>
<text text-anchor="middle" x="729.5" y="-63.5" font-family="Helvetica,sans-Serif" font-size="10.00" fill="#000000">queue</text>
</g>
<!-- Node2&#45;&gt;Node8 -->
<g id="edge8" class="edge">
<title>Node2&#45;&gt;Node8</title>
<path fill="none" stroke="#191970" d="M634.2692,-112.3733C652.6469,-103.4241 680.2312,-89.9917 700.9893,-79.8835"/>
<polygon fill="#191970" stroke="#191970" points="702.5304,-83.026 709.9888,-75.5011 699.4657,-76.7325 702.5304,-83.026"/>
</g>
<!-- Node2&#45;&gt;Node9 -->
<g id="edge9" class="edge">
<title>Node2&#45;&gt;Node9</title>
<path fill="none" stroke="#191970" d="M554.7985,-117.6298C463.8501,-110.7074 284.9203,-96.0498 122.7882,-76.0959"/>
<polygon fill="#191970" stroke="#191970" points="122.9823,-72.5933 112.6275,-74.8356 122.1206,-79.54 122.9823,-72.5933"/>
</g>
<!-- Node10 -->
<g id="node11" class="node">
<title>Node10</title>
<polygon fill="#ffffff" stroke="#bfbfbf" points="769.5,-56.5 769.5,-75.5 903.5,-75.5 903.5,-56.5 769.5,-56.5"/>
<text text-anchor="middle" x="836.5" y="-63.5" font-family="Helvetica,sans-Serif" font-size="10.00" fill="#000000">rapidjson/istreamwrapper.h</text>
</g>
<!-- Node2&#45;&gt;Node10 -->
<g id="edge10" class="edge">
<title>Node2&#45;&gt;Node10</title>
<path fill="none" stroke="#191970" d="M652.4109,-112.4369C690.165,-102.9133 748.2265,-88.2672 789.0264,-77.9753"/>
<polygon fill="#191970" stroke="#191970" points="789.9053,-81.3633 798.7454,-75.5237 788.1931,-74.576 789.9053,-81.3633"/>
</g>
<!-- Node2&#45;&gt;Node11 -->
<g id="edge11" class="edge">
<title>Node2&#45;&gt;Node11</title>
<path fill="none" stroke="#191970" d="M554.5986,-113.9169C481.7336,-104.0845 358.5225,-87.4585 278.0958,-76.6057"/>
<polygon fill="#191970" stroke="#191970" points="278.3966,-73.1146 268.0184,-75.2459 277.4605,-80.0518 278.3966,-73.1146"/>
</g>
<!-- Node12 -->
<g id="node13" class="node">
<title>Node12</title>
<polygon fill="#ffffff" stroke="#bfbfbf" points="458,-56.5 458,-75.5 559,-75.5 559,-56.5 458,-56.5"/>
<text text-anchor="middle" x="508.5" y="-63.5" font-family="Helvetica,sans-Serif" font-size="10.00" fill="#000000">rapidjson/schema.h</text>
</g>
<!-- Node2&#45;&gt;Node12 -->
<g id="edge12" class="edge">
<title>Node2&#45;&gt;Node12</title>
<path fill="none" stroke="#191970" d="M596.0362,-112.2455C579.3926,-103.4527 554.7007,-90.4079 535.7808,-80.4125"/>
<polygon fill="#191970" stroke="#191970" points="537.2291,-77.2193 526.7522,-75.6427 533.9592,-83.4086 537.2291,-77.2193"/>
</g>
<!-- Node2&#45;&gt;Node13 -->
<g id="edge13" class="edge">
<title>Node2&#45;&gt;Node13</title>
<path fill="none" stroke="#191970" d="M566.1721,-112.4369C516.5919,-102.6259 439.5384,-87.3786 387.3713,-77.0558"/>
<polygon fill="#191970" stroke="#191970" points="387.7744,-73.5678 377.2852,-75.06 386.4156,-80.4346 387.7744,-73.5678"/>
</g>
<!-- Node14 -->
<g id="node15" class="node">
<title>Node14</title>
<polygon fill="#ffffff" stroke="#bfbfbf" points="921.5,-56.5 921.5,-75.5 973.5,-75.5 973.5,-56.5 921.5,-56.5"/>
<text text-anchor="middle" x="947.5" y="-63.5" font-family="Helvetica,sans-Serif" font-size="10.00" fill="#000000">sstream</text>
</g>
<!-- Node2&#45;&gt;Node14 -->
<g id="edge14" class="edge">
<title>Node2&#45;&gt;Node14</title>
<path fill="none" stroke="#191970" d="M674.2726,-115.0091C732.5466,-107.6899 823.7955,-94.896 911.3835,-76.0377"/>
<polygon fill="#191970" stroke="#191970" points="912.193,-79.4435 921.2165,-73.8912 910.7001,-72.6045 912.193,-79.4435"/>
</g>
<!-- Node15 -->
<g id="node16" class="node">
<title>Node15</title>
<polygon fill="#ffffff" stroke="#bfbfbf" points="992,-56.5 992,-75.5 1033,-75.5 1033,-56.5 992,-56.5"/>
<text text-anchor="middle" x="1012.5" y="-63.5" font-family="Helvetica,sans-Serif" font-size="10.00" fill="#000000">string</text>
</g>
<!-- Node2&#45;&gt;Node15 -->
<g id="edge15" class="edge">
<title>Node2&#45;&gt;Node15</title>
<path fill="none" stroke="#191970" d="M674.0789,-118.1847C745.3015,-112.8179 868.0834,-101.013 982.0536,-75.6784"/>
<polygon fill="#191970" stroke="#191970" points="983.0141,-79.0496 991.9949,-73.4286 981.469,-72.2223 983.0141,-79.0496"/>
</g>
<!-- Node16 -->
<g id="node17" class="node">
<title>Node16</title>
<polygon fill="#ffffff" stroke="#bfbfbf" points="577.5,-56.5 577.5,-75.5 621.5,-75.5 621.5,-56.5 577.5,-56.5"/>
<text text-anchor="middle" x="599.5" y="-63.5" font-family="Helvetica,sans-Serif" font-size="10.00" fill="#000000">thread</text>
</g>
<!-- Node2&#45;&gt;Node16 -->
<g id="edge16" class="edge">
<title>Node2&#45;&gt;Node16</title>
<path fill="none" stroke="#191970" d="M611.8872,-112.2455C609.9084,-104.8579 607.1256,-94.4689 604.6988,-85.4087"/>
<polygon fill="#191970" stroke="#191970" points="608.0511,-84.3966 602.0829,-75.6427 601.2895,-86.2078 608.0511,-84.3966"/>
</g>
<!-- Node4 -->
<g id="node5" class="node">
<title>Node4</title>
<polygon fill="#ffffff" stroke="#bfbfbf" points="1135.5,-.5 1135.5,-19.5 1181.5,-19.5 1181.5,-.5 1135.5,-.5"/>
<text text-anchor="middle" x="1158.5" y="-7.5" font-family="Helvetica,sans-Serif" font-size="10.00" fill="#000000">stdio.h</text>
</g>
<!-- Node3&#45;&gt;Node4 -->
<g id="edge4" class="edge">
<title>Node3&#45;&gt;Node4</title>
<path fill="none" stroke="#191970" d="M1158.5,-56.2455C1158.5,-48.9382 1158.5,-38.6944 1158.5,-29.7046"/>
<polygon fill="#191970" stroke="#191970" points="1162.0001,-29.6426 1158.5,-19.6427 1155.0001,-29.6427 1162.0001,-29.6426"/>
</g>
<!-- Node19&#45;&gt;Node2 -->
<g id="edge24" class="edge">
<title>Node19&#45;&gt;Node2</title>
<path fill="none" stroke="#191970" d="M614.5,-168.2455C614.5,-160.9382 614.5,-150.6944 614.5,-141.7046"/>
<polygon fill="#191970" stroke="#191970" points="618.0001,-141.6426 614.5,-131.6427 611.0001,-141.6427 618.0001,-141.6426"/>
</g>
<!-- Node19&#45;&gt;Node3 -->
<g id="edge28" class="edge">
<title>Node19&#45;&gt;Node3</title>
<path fill="none" stroke="#191970" d="M681.6612,-174.1805C785.0084,-167.7335 977.9541,-153.2796 1043.5,-132 1078.9079,-120.5047 1115.4727,-97.1948 1137.6027,-81.5845"/>
<polygon fill="#191970" stroke="#191970" points="1139.8154,-84.3043 1145.887,-75.6217 1135.7261,-78.6229 1139.8154,-84.3043"/>
</g>
<!-- Node19&#45;&gt;Node6 -->
<g id="edge32" class="edge">
<title>Node19&#45;&gt;Node6</title>
<path fill="none" stroke="#191970" d="M681.9058,-173.8022C791.9393,-166.5326 1005.2322,-150.5823 1078.5,-132 1126.0847,-119.9315 1177.9852,-95.7558 1208.5879,-80.2536"/>
<polygon fill="#191970" stroke="#191970" points="1210.4466,-83.2337 1217.743,-75.5516 1207.2485,-77.0069 1210.4466,-83.2337"/>
</g>
<!-- Node19&#45;&gt;Node7 -->
<g id="edge37" class="edge">
<title>Node19&#45;&gt;Node7</title>
<path fill="none" stroke="#191970" d="M597.7039,-168.4509C563.1747,-148.8201 484.033,-103.8259 443.0875,-80.5472"/>
<polygon fill="#191970" stroke="#191970" points="444.6767,-77.4247 434.2536,-75.5249 441.217,-83.51 444.6767,-77.4247"/>
</g>
<!-- Node19&#45;&gt;Node9 -->
<g id="edge33" class="edge">
<title>Node19&#45;&gt;Node9</title>
<path fill="none" stroke="#191970" d="M547.2698,-175.7742C467.6604,-171.8651 331.5968,-161.1609 218.5,-132 169.9872,-119.4915 116.7617,-95.4908 85.2894,-80.1374"/>
<polygon fill="#191970" stroke="#191970" points="86.7658,-76.963 76.2499,-75.6725 83.6658,-83.2391 86.7658,-76.963"/>
</g>
<!-- Node19&#45;&gt;Node11 -->
<g id="edge34" class="edge">
<title>Node19&#45;&gt;Node11</title>
<path fill="none" stroke="#191970" d="M579.1173,-168.4509C503.7749,-148.1176 327.6045,-100.5728 244.4587,-78.1334"/>
<polygon fill="#191970" stroke="#191970" points="245.3597,-74.7514 234.7931,-75.5249 243.5357,-81.5096 245.3597,-74.7514"/>
</g>
<!-- Node19&#45;&gt;Node13 -->
<g id="edge35" class="edge">
<title>Node19&#45;&gt;Node13</title>
<path fill="none" stroke="#191970" d="M590.3716,-168.4509C539.8289,-148.4482 422.7466,-102.1117 364.9741,-79.2477"/>
<polygon fill="#191970" stroke="#191970" points="366.1536,-75.9504 355.5673,-75.5249 363.5777,-82.4592 366.1536,-75.9504"/>
</g>
<!-- Node19&#45;&gt;Node14 -->
<g id="edge36" class="edge">
<title>Node19&#45;&gt;Node14</title>
<path fill="none" stroke="#191970" d="M642.8914,-168.4509C703.4805,-148.0726 845.3331,-100.3625 911.866,-77.985"/>
<polygon fill="#191970" stroke="#191970" points="913.1333,-81.2515 921.4958,-74.7462 910.9017,-74.6167 913.1333,-81.2515"/>
</g>
<!-- Node19&#45;&gt;Node18 -->
<g id="edge30" class="edge">
<title>Node19&#45;&gt;Node18</title>
<path fill="none" stroke="#191970" d="M547.2822,-170.2116C482.5075,-162.258 381.8851,-148.7231 295.5,-132 294.2457,-131.7572 292.972,-131.501 291.6875,-131.2345"/>
<polygon fill="#191970" stroke="#191970" points="292.2872,-127.7826 281.7668,-129.037 290.7732,-134.6169 292.2872,-127.7826"/>
</g>
<!-- Node20 -->
<g id="node21" class="node">
<title>Node20</title>
<g id="a_node21"><a xlink:href="../../d2/def/fnv_8hpp.html" target="_top" xlink:title="fnv.hpp">
<polygon fill="#ffffff" stroke="#000000" points="905,-112.5 905,-131.5 954,-131.5 954,-112.5 905,-112.5"/>
<text text-anchor="middle" x="929.5" y="-119.5" font-family="Helvetica,sans-Serif" font-size="10.00" fill="#000000">fnv.hpp</text>
</a>
</g>
</g>
<!-- Node19&#45;&gt;Node20 -->
<g id="edge25" class="edge">
<title>Node19&#45;&gt;Node20</title>
<path fill="none" stroke="#191970" d="M668.2925,-168.4369C733.1686,-156.9034 840.3053,-137.8568 895.0191,-128.1299"/>
<polygon fill="#191970" stroke="#191970" points="895.6863,-131.5663 904.9193,-126.3699 894.461,-124.6743 895.6863,-131.5663"/>
</g>
<!-- Node21 -->
<g id="node22" class="node">
<title>Node21</title>
<polygon fill="#ffffff" stroke="#bfbfbf" points="1051.5,-56.5 1051.5,-75.5 1107.5,-75.5 1107.5,-56.5 1051.5,-56.5"/>
<text text-anchor="middle" x="1079.5" y="-63.5" font-family="Helvetica,sans-Serif" font-size="10.00" fill="#000000">cinttypes</text>
</g>
<!-- Node19&#45;&gt;Node21 -->
<g id="edge29" class="edge">
<title>Node19&#45;&gt;Node21</title>
<path fill="none" stroke="#191970" d="M681.5014,-175.8236C780.2225,-171.6994 959.2567,-160.4532 1016.5,-132 1038.3181,-121.1552 1056.661,-99.5163 1067.8285,-83.9692"/>
<polygon fill="#191970" stroke="#191970" points="1070.7684,-85.8709 1073.5466,-75.6468 1064.999,-81.9069 1070.7684,-85.8709"/>
</g>
<!-- Node22 -->
<g id="node23" class="node">
<title>Node22</title>
<polygon fill="#ffffff" stroke="#bfbfbf" points="972,-112.5 972,-131.5 1007,-131.5 1007,-112.5 972,-112.5"/>
<text text-anchor="middle" x="989.5" y="-119.5" font-family="Helvetica,sans-Serif" font-size="10.00" fill="#000000">map</text>
</g>
<!-- Node19&#45;&gt;Node22 -->
<g id="edge31" class="edge">
<title>Node19&#45;&gt;Node22</title>
<path fill="none" stroke="#191970" d="M681.7162,-173.5858C750.2107,-168.0852 859.4385,-156.5485 962.0507,-131.5952"/>
<polygon fill="#191970" stroke="#191970" points="963.095,-134.9423 971.9586,-129.1382 961.4102,-128.148 963.095,-134.9423"/>
</g>
<!-- Node20&#45;&gt;Node15 -->
<g id="edge27" class="edge">
<title>Node20&#45;&gt;Node15</title>
<path fill="none" stroke="#191970" d="M943.9575,-112.2455C956.5732,-103.7337 975.0944,-91.2375 989.7045,-81.3801"/>
<polygon fill="#191970" stroke="#191970" points="991.8761,-84.1371 998.2082,-75.6427 987.9609,-78.3343 991.8761,-84.1371"/>
</g>
<!-- Node20&#45;&gt;Node21 -->
<g id="edge26" class="edge">
<title>Node20&#45;&gt;Node21</title>
<path fill="none" stroke="#191970" d="M954.2694,-112.7527C978.7999,-103.5947 1016.5984,-89.4833 1044.2538,-79.1586"/>
<polygon fill="#191970" stroke="#191970" points="1045.7961,-82.3188 1053.9404,-75.5423 1043.3478,-75.7609 1045.7961,-82.3188"/>
</g>
</g>
</svg>
        <g id="navigator" transform="translate(0 0)" fill="#404254">
                <rect fill="#f2f5e9" fill-opacity="0.5" stroke="#606060" stroke-width=".5" x="0" y="0" width="60" height="60"/>
                <use id="zoomplus" xlink:href="#zoomPlus" x="17" y="9" onmousedown="handleZoom(evt,'in')"/>
                <use id="zoomminus" xlink:href="#zoomMin" x="42" y="9" onmousedown="handleZoom(evt,'out')"/>
                <use id="reset" xlink:href="#resetDef" x="30" y="36" onmousedown="handleReset()"/>
                <g id="arrowUp" xlink:href="#dirArrow" transform="translate(30 24)" onmousedown="handlePan(0,-1)">
                  <use xlink:href="#rim" fill="#404040">
                        <set attributeName="fill" to="#808080" begin="arrowUp.mouseover" end="arrowUp.mouseout"/>
                  </use>
                  <path fill="none" stroke="white" stroke-width="1.5" d="M0,-3.0v7 M-2.5,-0.5L0,-3.0L2.5,-0.5"/>
                </g>
                <g id="arrowRight" xlink:href="#dirArrow" transform="rotate(90) translate(36 -43)" onmousedown="handlePan(1,0)">
                  <use xlink:href="#rim" fill="#404040">
                        <set attributeName="fill" to="#808080" begin="arrowRight.mouseover" end="arrowRight.mouseout"/>
                  </use>
                  <path fill="none" stroke="white" stroke-width="1.5" d="M0,-3.0v7 M-2.5,-0.5L0,-3.0L2.5,-0.5"/>
                </g>
                <g id="arrowDown" xlink:href="#dirArrow" transform="rotate(180) translate(-30 -48)" onmousedown="handlePan(0,1)">
                  <use xlink:href="#rim" fill="#404040">
                        <set attributeName="fill" to="#808080" begin="arrowDown.mouseover" end="arrowDown.mouseout"/>
                  </use>
                  <path fill="none" stroke="white" stroke-width="1.5" d="M0,-3.0v7 M-2.5,-0.5L0,-3.0L2.5,-0.5"/>
                </g>
                <g id="arrowLeft" xlink:href="#dirArrow" transform="rotate(270) translate(-36 17)" onmousedown="handlePan(-1,0)">
                  <use xlink:href="#rim" fill="#404040">
                        <set attributeName="fill" to="#808080" begin="arrowLeft.mouseover" end="arrowLeft.mouseout"/>
                  </use>
                  <path fill="none" stroke="white" stroke-width="1.5" d="M0,-3.0v7 M-2.5,-0.5L0,-3.0L2.5,-0.5"/>
                </g>
        </g>
        <svg viewBox="0 0 15 15" width="100%" height="30px" preserveAspectRatio="xMaxYMin meet">
         <g id="arrow_out" transform="scale(0.3 0.3)">
          <a xlink:href="_message_processor_8cpp__incl_org.svg" target="_base">
           <rect id="button" ry="5" rx="5" y="6" x="6" height="38" width="38"
                fill="#f2f5e9" fill-opacity="0.5" stroke="#606060" stroke-width="1.0"/>
           <path id="arrow"
             d="M 11.500037,31.436501 C 11.940474,20.09759 22.043105,11.32322 32.158766,21.979434 L 37.068811,17.246167 C 37.068811,17.246167 37.088388,32 37.088388,32 L 22.160133,31.978069 C 22.160133,31.978069 26.997745,27.140456 26.997745,27.140456 C 18.528582,18.264221 13.291696,25.230495 11.500037,31.436501 z"
             style="fill:#404040;"/>
          </a>
         </g>
        </svg>
</svg>
