<?xml version="1.0" encoding="UTF-8" standalone="no"?>
<!DOCTYPE svg PUBLIC "-//W3C//DTD SVG 1.1//EN"
 "http://www.w3.org/Graphics/SVG/1.1/DTD/svg11.dtd">
<!-- Generated by graphviz version 2.40.1 (20161225.0304)
 -->
<!-- Title: MessageProcessor::stop Pages: 1 -->
<svg width="326pt" height="66pt"
 viewBox="0.00 0.00 326.00 66.00" xmlns="http://www.w3.org/2000/svg" xmlns:xlink="http://www.w3.org/1999/xlink">
<g id="graph0" class="graph" transform="scale(1 1) rotate(0) translate(4 62)">
<title>MessageProcessor::stop</title>
<polygon fill="#ffffff" stroke="transparent" points="-4,4 -4,-62 322,-62 322,4 -4,4"/>
<!-- Node33 -->
<g id="node1" class="node">
<title>Node33</title>
<polygon fill="#bfbfbf" stroke="#000000" points="0,-19.5 0,-38.5 125,-38.5 125,-19.5 0,-19.5"/>
<text text-anchor="middle" x="62.5" y="-26.5" font-family="Helvetica,sans-Serif" font-size="10.00" fill="#000000">MessageProcessor::stop</text>
</g>
<!-- Node34 -->
<g id="node2" class="node">
<title>Node34</title>
<g id="a_node2"><a xlink:href="../../d3/df5/class_message_processor.html#ad5470ea591fdda8c4a05391524823a00" target="_top" xlink:title="static method for API to notify message processor that new data are available ">
<polygon fill="#ffffff" stroke="#000000" points="174,-38.5 174,-57.5 305,-57.5 305,-38.5 174,-38.5"/>
<text text-anchor="middle" x="239.5" y="-45.5" font-family="Helvetica,sans-Serif" font-size="10.00" fill="#000000">MessageProcessor::notify</text>
</a>
</g>
</g>
<!-- Node33&#45;&gt;Node34 -->
<g id="edge1" class="edge">
<title>Node33&#45;&gt;Node34</title>
<path fill="none" stroke="#191970" d="M125.402,-35.7522C137.79,-37.082 150.9102,-38.4904 163.6714,-39.8602"/>
<polygon fill="#191970" stroke="#191970" points="163.4914,-43.3609 173.8079,-40.9483 164.2386,-36.4009 163.4914,-43.3609"/>
</g>
<!-- Node35 -->
<g id="node3" class="node">
<title>Node35</title>
<g id="a_node3"><a xlink:href="../../d3/df5/class_message_processor.html#a081a93455dbac2a750465a3796858d6d" target="_top" xlink:title="Set the Run Flag object. ">
<polygon fill="#ffffff" stroke="#000000" points="161,-.5 161,-19.5 318,-19.5 318,-.5 161,-.5"/>
<text text-anchor="middle" x="239.5" y="-7.5" font-family="Helvetica,sans-Serif" font-size="10.00" fill="#000000">MessageProcessor::setRunFlag</text>
</a>
</g>
</g>
<!-- Node33&#45;&gt;Node35 -->
<g id="edge2" class="edge">
<title>Node33&#45;&gt;Node35</title>
<path fill="none" stroke="#191970" d="M125.402,-22.2478C133.6151,-21.3662 142.1501,-20.45 150.6889,-19.5334"/>
<polygon fill="#191970" stroke="#191970" points="151.1262,-23.0067 160.6954,-18.4592 150.379,-16.0466 151.1262,-23.0067"/>
</g>
</g>
</svg>
