<?xml version="1.0" encoding="UTF-8" standalone="no"?>
<!DOCTYPE svg PUBLIC "-//W3C//DTD SVG 1.1//EN"
 "http://www.w3.org/Graphics/SVG/1.1/DTD/svg11.dtd">
<!-- Generated by graphviz version 2.40.1 (20161225.0304)
 -->
<!-- Title: MessageProcessor::start Pages: 1 -->
<!--zoomable 126 -->
<svg id="main" version="1.1" xmlns="http://www.w3.org/2000/svg" xmlns:xlink="http://www.w3.org/1999/xlink" xml:space="preserve" onload="init(evt)">
<style type="text/css"><![CDATA[
.edge:hover path { stroke: red; }
.edge:hover polygon { stroke: red; fill: red; }
]]></style>
<script type="text/javascript"><![CDATA[
var edges = document.getElementsByTagName('g');
if (edges && edges.length) {
  for (var i=0;i<edges.length;i++) {
    if (edges[i].id.substr(0,4)=='edge') {
      edges[i].setAttribute('class','edge');
    }
  }
}
]]></script>
        <defs>
                <circle id="rim" cx="0" cy="0" r="7"/>
                <circle id="rim2" cx="0" cy="0" r="3.5"/>
                <g id="zoomPlus">
                        <use xlink:href="#rim" fill="#404040">
                                <set attributeName="fill" to="#808080" begin="zoomplus.mouseover" end="zoomplus.mouseout"/>
                        </use>
                        <path d="M-4,0h8M0,-4v8" fill="none" stroke="white" stroke-width="1.5" pointer-events="none"/>
                </g>
                <g id="zoomMin">
                        <use xlink:href="#rim" fill="#404040">
                                <set attributeName="fill" to="#808080" begin="zoomminus.mouseover" end="zoomminus.mouseout"/>
                        </use>
                        <path d="M-4,0h8" fill="none" stroke="white" stroke-width="1.5" pointer-events="none"/>
                </g>
                <g id="dirArrow">
                        <path fill="none" stroke="white" stroke-width="1.5" d="M0,-3.0v7 M-2.5,-0.5L0,-3.0L2.5,-0.5"/>
                </g>
               <g id="resetDef">
                       <use xlink:href="#rim2" fill="#404040">
                               <set attributeName="fill" to="#808080" begin="reset.mouseover" end="reset.mouseout"/>
                       </use>
               </g>
        </defs>

<script type="text/javascript">
var viewWidth = 708;
var viewHeight = 126;
var sectionId = 'dynsection-4';
</script>
<script xlink:href="../../svgpan.js"/>
<svg id="graph" class="graph">
<g id="viewport">
<title>MessageProcessor::start</title>
<polygon fill="#ffffff" stroke="transparent" points="-4,4 -4,-122 704,-122 704,4 -4,4"/>
<!-- Node22 -->
<g id="node1" class="node">
<title>Node22</title>
<polygon fill="#bfbfbf" stroke="#000000" points="0,-79.5 0,-98.5 126,-98.5 126,-79.5 0,-79.5"/>
<text text-anchor="middle" x="63" y="-86.5" font-family="Helvetica,sans-Serif" font-size="10.00" fill="#000000">MessageProcessor::start</text>
</g>
<!-- Node23 -->
<g id="node2" class="node">
<title>Node23</title>
<g id="a_node2"><a xlink:href="../../d3/df5/class_message_processor.html#a081a93455dbac2a750465a3796858d6d" target="_top" xlink:title="Set the Run Flag object. ">
<polygon fill="#ffffff" stroke="#000000" points="162,-98.5 162,-117.5 319,-117.5 319,-98.5 162,-98.5"/>
<text text-anchor="middle" x="240.5" y="-105.5" font-family="Helvetica,sans-Serif" font-size="10.00" fill="#000000">MessageProcessor::setRunFlag</text>
</a>
</g>
</g>
<!-- Node22&#45;&gt;Node23 -->
<g id="edge1" class="edge">
<title>Node22&#45;&gt;Node23</title>
<path fill="none" stroke="#191970" d="M126.0796,-95.7522C134.3876,-96.6415 143.0239,-97.5659 151.6614,-98.4905"/>
<polygon fill="#191970" stroke="#191970" points="151.4662,-101.9895 161.7819,-99.5738 152.2113,-95.0293 151.4662,-101.9895"/>
</g>
<!-- Node24 -->
<g id="node3" class="node">
<title>Node24</title>
<g id="a_node3"><a xlink:href="../../d3/df5/class_message_processor.html#a4a1eaa51c19e417a57f43cff6c459b9b" target="_top" xlink:title="thread body implementation ">
<polygon fill="#ffffff" stroke="#000000" points="162.5,-60.5 162.5,-79.5 318.5,-79.5 318.5,-60.5 162.5,-60.5"/>
<text text-anchor="middle" x="240.5" y="-67.5" font-family="Helvetica,sans-Serif" font-size="10.00" fill="#000000">MessageProcessor::threadBody</text>
</a>
</g>
</g>
<!-- Node22&#45;&gt;Node24 -->
<g id="edge2" class="edge">
<title>Node22&#45;&gt;Node24</title>
<path fill="none" stroke="#191970" d="M126.0796,-82.2478C134.6227,-81.3333 143.513,-80.3817 152.3947,-79.431"/>
<polygon fill="#191970" stroke="#191970" points="152.8291,-82.9046 162.3997,-78.36 152.084,-75.9443 152.8291,-82.9046"/>
</g>
<!-- Node25 -->
<g id="node4" class="node">
<title>Node25</title>
<g id="a_node4"><a xlink:href="../../d3/df5/class_message_processor.html#ab0700e40b5ae709cb970294efc37d31f" target="_top" xlink:title="get flag that indicates ">
<polygon fill="#ffffff" stroke="#000000" points="355,-98.5 355,-117.5 512,-117.5 512,-98.5 355,-98.5"/>
<text text-anchor="middle" x="433.5" y="-105.5" font-family="Helvetica,sans-Serif" font-size="10.00" fill="#000000">MessageProcessor::getRunFlag</text>
</a>
</g>
</g>
<!-- Node24&#45;&gt;Node25 -->
<g id="edge3" class="edge">
<title>Node24&#45;&gt;Node25</title>
<path fill="none" stroke="#191970" d="M289.202,-79.589C315.3588,-84.739 347.7837,-91.1232 375.2671,-96.5344"/>
<polygon fill="#191970" stroke="#191970" points="374.6604,-99.9821 385.1482,-98.4799 376.0127,-93.114 374.6604,-99.9821"/>
</g>
<!-- Node26 -->
<g id="node5" class="node">
<title>Node26</title>
<g id="a_node5"><a xlink:href="../../d3/d5f/class_abstract_a_p_i.html#a4b114a5c2a103d590a4261f5c95123cd" target="_top" xlink:title="Get the next message in message queue. ">
<polygon fill="#ffffff" stroke="#000000" points="358.5,-60.5 358.5,-79.5 508.5,-79.5 508.5,-60.5 358.5,-60.5"/>
<text text-anchor="middle" x="433.5" y="-67.5" font-family="Helvetica,sans-Serif" font-size="10.00" fill="#000000">AbstractAPI::getNextMessage</text>
</a>
</g>
</g>
<!-- Node24&#45;&gt;Node26 -->
<g id="edge4" class="edge">
<title>Node24&#45;&gt;Node26</title>
<path fill="none" stroke="#191970" d="M318.7223,-70C328.4162,-70 338.3656,-70 348.1595,-70"/>
<polygon fill="#191970" stroke="#191970" points="348.2924,-73.5001 358.2923,-70 348.2923,-66.5001 348.2924,-73.5001"/>
</g>
<!-- Node27 -->
<g id="node6" class="node">
<title>Node27</title>
<g id="a_node6"><a xlink:href="../../db/d85/class_data_storage.html#add6db588ead8c9218e88cf332b06e985" target="_top" xlink:title="add new record to the datastore ">
<polygon fill="#ffffff" stroke="#000000" points="371,-22.5 371,-41.5 496,-41.5 496,-22.5 371,-22.5"/>
<text text-anchor="middle" x="433.5" y="-29.5" font-family="Helvetica,sans-Serif" font-size="10.00" fill="#000000">DataStorage::addRecord</text>
</a>
</g>
</g>
<!-- Node24&#45;&gt;Node27 -->
<g id="edge5" class="edge">
<title>Node24&#45;&gt;Node27</title>
<path fill="none" stroke="#191970" d="M289.202,-60.411C315.3588,-55.261 347.7837,-48.8768 375.2671,-43.4656"/>
<polygon fill="#191970" stroke="#191970" points="376.0127,-46.886 385.1482,-41.5201 374.6604,-40.0179 376.0127,-46.886"/>
</g>
<!-- Node28 -->
<g id="node7" class="node">
<title>Node28</title>
<g id="a_node7"><a xlink:href="../../db/d85/class_data_storage.html#a83711f8d0caac782642317ccba89f6da" target="_top" xlink:title="add measurement record to the database ">
<polygon fill="#ffffff" stroke="#000000" points="548,-39 548,-69 700,-69 700,-39 548,-39"/>
<text text-anchor="start" x="556" y="-57" font-family="Helvetica,sans-Serif" font-size="10.00" fill="#000000">DataStorage::addMeasurement</text>
<text text-anchor="middle" x="624" y="-46" font-family="Helvetica,sans-Serif" font-size="10.00" fill="#000000">Record</text>
</a>
</g>
</g>
<!-- Node27&#45;&gt;Node28 -->
<g id="edge6" class="edge">
<title>Node27&#45;&gt;Node28</title>
<path fill="none" stroke="#191970" d="M496.1407,-39.2341C509.4048,-40.7659 523.6283,-42.4085 537.596,-44.0216"/>
<polygon fill="#191970" stroke="#191970" points="537.3684,-47.5185 547.704,-45.1889 538.1715,-40.5647 537.3684,-47.5185"/>
</g>
<!-- Node29 -->
<g id="node8" class="node">
<title>Node29</title>
<g id="a_node8"><a xlink:href="../../dd/d25/namespacefnv.html#a3d5ea8f4e1ac576cc07994d8bc74d051" target="_top" xlink:title="calculate Fnv64a hash from given string ">
<polygon fill="#ffffff" stroke="#000000" points="590,-.5 590,-19.5 658,-19.5 658,-.5 590,-.5"/>
<text text-anchor="middle" x="624" y="-7.5" font-family="Helvetica,sans-Serif" font-size="10.00" fill="#000000">fnv::Fnv64a</text>
</a>
</g>
</g>
<!-- Node27&#45;&gt;Node29 -->
<g id="edge7" class="edge">
<title>Node27&#45;&gt;Node29</title>
<path fill="none" stroke="#191970" d="M496.1407,-24.7659C523.4686,-21.6099 554.8694,-17.9836 579.7136,-15.1144"/>
<polygon fill="#191970" stroke="#191970" points="580.3963,-18.559 589.9287,-13.9347 579.5931,-11.6052 580.3963,-18.559"/>
</g>
</g>
</svg>
        <g id="navigator" transform="translate(0 0)" fill="#404254">
                <rect fill="#f2f5e9" fill-opacity="0.5" stroke="#606060" stroke-width=".5" x="0" y="0" width="60" height="60"/>
                <use id="zoomplus" xlink:href="#zoomPlus" x="17" y="9" onmousedown="handleZoom(evt,'in')"/>
                <use id="zoomminus" xlink:href="#zoomMin" x="42" y="9" onmousedown="handleZoom(evt,'out')"/>
                <use id="reset" xlink:href="#resetDef" x="30" y="36" onmousedown="handleReset()"/>
                <g id="arrowUp" xlink:href="#dirArrow" transform="translate(30 24)" onmousedown="handlePan(0,-1)">
                  <use xlink:href="#rim" fill="#404040">
                        <set attributeName="fill" to="#808080" begin="arrowUp.mouseover" end="arrowUp.mouseout"/>
                  </use>
                  <path fill="none" stroke="white" stroke-width="1.5" d="M0,-3.0v7 M-2.5,-0.5L0,-3.0L2.5,-0.5"/>
                </g>
                <g id="arrowRight" xlink:href="#dirArrow" transform="rotate(90) translate(36 -43)" onmousedown="handlePan(1,0)">
                  <use xlink:href="#rim" fill="#404040">
                        <set attributeName="fill" to="#808080" begin="arrowRight.mouseover" end="arrowRight.mouseout"/>
                  </use>
                  <path fill="none" stroke="white" stroke-width="1.5" d="M0,-3.0v7 M-2.5,-0.5L0,-3.0L2.5,-0.5"/>
                </g>
                <g id="arrowDown" xlink:href="#dirArrow" transform="rotate(180) translate(-30 -48)" onmousedown="handlePan(0,1)">
                  <use xlink:href="#rim" fill="#404040">
                        <set attributeName="fill" to="#808080" begin="arrowDown.mouseover" end="arrowDown.mouseout"/>
                  </use>
                  <path fill="none" stroke="white" stroke-width="1.5" d="M0,-3.0v7 M-2.5,-0.5L0,-3.0L2.5,-0.5"/>
                </g>
                <g id="arrowLeft" xlink:href="#dirArrow" transform="rotate(270) translate(-36 17)" onmousedown="handlePan(-1,0)">
                  <use xlink:href="#rim" fill="#404040">
                        <set attributeName="fill" to="#808080" begin="arrowLeft.mouseover" end="arrowLeft.mouseout"/>
                  </use>
                  <path fill="none" stroke="white" stroke-width="1.5" d="M0,-3.0v7 M-2.5,-0.5L0,-3.0L2.5,-0.5"/>
                </g>
        </g>
        <svg viewBox="0 0 15 15" width="100%" height="30px" preserveAspectRatio="xMaxYMin meet">
         <g id="arrow_out" transform="scale(0.3 0.3)">
          <a xlink:href="class_message_processor_a1af9c4a7a077e73077f2f25cd15a6361_cgraph_org.svg" target="_base">
           <rect id="button" ry="5" rx="5" y="6" x="6" height="38" width="38"
                fill="#f2f5e9" fill-opacity="0.5" stroke="#606060" stroke-width="1.0"/>
           <path id="arrow"
             d="M 11.500037,31.436501 C 11.940474,20.09759 22.043105,11.32322 32.158766,21.979434 L 37.068811,17.246167 C 37.068811,17.246167 37.088388,32 37.088388,32 L 22.160133,31.978069 C 22.160133,31.978069 26.997745,27.140456 26.997745,27.140456 C 18.528582,18.264221 13.291696,25.230495 11.500037,31.436501 z"
             style="fill:#404040;"/>
          </a>
         </g>
        </svg>
</svg>
