<?xml version="1.0" encoding="UTF-8" standalone="no"?>
<!DOCTYPE svg PUBLIC "-//W3C//DTD SVG 1.1//EN"
 "http://www.w3.org/Graphics/SVG/1.1/DTD/svg11.dtd">
<!-- Generated by graphviz version 2.40.1 (20161225.0304)
 -->
<!-- Title: MessageProcessor::getRunFlag Pages: 1 -->
<svg width="713pt" height="28pt"
 viewBox="0.00 0.00 713.00 28.00" xmlns="http://www.w3.org/2000/svg" xmlns:xlink="http://www.w3.org/1999/xlink">
<g id="graph0" class="graph" transform="scale(1 1) rotate(0) translate(4 24)">
<title>MessageProcessor::getRunFlag</title>
<polygon fill="#ffffff" stroke="transparent" points="-4,4 -4,-24 709,-24 709,4 -4,4"/>
<!-- Node3 -->
<g id="node1" class="node">
<title>Node3</title>
<polygon fill="#bfbfbf" stroke="#000000" points="0,-.5 0,-19.5 157,-19.5 157,-.5 0,-.5"/>
<text text-anchor="middle" x="78.5" y="-7.5" font-family="Helvetica,sans-Serif" font-size="10.00" fill="#000000">MessageProcessor::getRunFlag</text>
</g>
<!-- Node4 -->
<g id="node2" class="node">
<title>Node4</title>
<g id="a_node2"><a xlink:href="../../d3/df5/class_message_processor.html#a4a1eaa51c19e417a57f43cff6c459b9b" target="_top" xlink:title="thread body implementation ">
<polygon fill="#ffffff" stroke="#000000" points="193,-.5 193,-19.5 349,-19.5 349,-.5 193,-.5"/>
<text text-anchor="middle" x="271" y="-7.5" font-family="Helvetica,sans-Serif" font-size="10.00" fill="#000000">MessageProcessor::threadBody</text>
</a>
</g>
</g>
<!-- Node3&#45;&gt;Node4 -->
<g id="edge1" class="edge">
<title>Node3&#45;&gt;Node4</title>
<path fill="none" stroke="#191970" d="M167.1457,-10C175.771,-10 184.4782,-10 192.988,-10"/>
<polygon fill="#191970" stroke="#191970" points="167.0748,-6.5001 157.0748,-10 167.0747,-13.5001 167.0748,-6.5001"/>
</g>
<!-- Node5 -->
<g id="node3" class="node">
<title>Node5</title>
<g id="a_node3"><a xlink:href="../../d3/df5/class_message_processor.html#a1af9c4a7a077e73077f2f25cd15a6361" target="_top" xlink:title="start message processor thread ">
<polygon fill="#ffffff" stroke="#000000" points="385,-.5 385,-19.5 511,-19.5 511,-.5 385,-.5"/>
<text text-anchor="middle" x="448" y="-7.5" font-family="Helvetica,sans-Serif" font-size="10.00" fill="#000000">MessageProcessor::start</text>
</a>
</g>
</g>
<!-- Node4&#45;&gt;Node5 -->
<g id="edge2" class="edge">
<title>Node4&#45;&gt;Node5</title>
<path fill="none" stroke="#191970" d="M359.2707,-10C367.91,-10 376.5522,-10 384.8681,-10"/>
<polygon fill="#191970" stroke="#191970" points="359.15,-6.5001 349.15,-10 359.15,-13.5001 359.15,-6.5001"/>
</g>
<!-- Node6 -->
<g id="node4" class="node">
<title>Node6</title>
<g id="a_node4"><a xlink:href="../../de/d6b/class_application.html#a7fbff10e3b66542f549f6c693ec4e676" target="_top" xlink:title="Application::run">
<polygon fill="#ffffff" stroke="#000000" points="547,-.5 547,-19.5 631,-19.5 631,-.5 547,-.5"/>
<text text-anchor="middle" x="589" y="-7.5" font-family="Helvetica,sans-Serif" font-size="10.00" fill="#000000">Application::run</text>
</a>
</g>
</g>
<!-- Node5&#45;&gt;Node6 -->
<g id="edge3" class="edge">
<title>Node5&#45;&gt;Node6</title>
<path fill="none" stroke="#191970" d="M521.2605,-10C529.9406,-10 538.5648,-10 546.6057,-10"/>
<polygon fill="#191970" stroke="#191970" points="521.0767,-6.5001 511.0767,-10 521.0767,-13.5001 521.0767,-6.5001"/>
</g>
<!-- Node7 -->
<g id="node5" class="node">
<title>Node7</title>
<g id="a_node5"><a xlink:href="../../df/d0a/main_8cpp.html#a840291bc02cba5474a4cb46a9b9566fe" target="_top" xlink:title="main">
<polygon fill="#ffffff" stroke="#000000" points="667,-.5 667,-19.5 705,-19.5 705,-.5 667,-.5"/>
<text text-anchor="middle" x="686" y="-7.5" font-family="Helvetica,sans-Serif" font-size="10.00" fill="#000000">main</text>
</a>
</g>
</g>
<!-- Node6&#45;&gt;Node7 -->
<g id="edge4" class="edge">
<title>Node6&#45;&gt;Node7</title>
<path fill="none" stroke="#191970" d="M641.5386,-10C650.6287,-10 659.5282,-10 666.948,-10"/>
<polygon fill="#191970" stroke="#191970" points="641.2635,-6.5001 631.2634,-10 641.2634,-13.5001 641.2635,-6.5001"/>
</g>
</g>
</svg>
