<?xml version="1.0" encoding="UTF-8" standalone="no"?>
<!DOCTYPE svg PUBLIC "-//W3C//DTD SVG 1.1//EN"
 "http://www.w3.org/Graphics/SVG/1.1/DTD/svg11.dtd">
<!-- Generated by graphviz version 2.40.1 (20161225.0304)
 -->
<!-- Title: MessageProcessor::threadBody Pages: 1 -->
<svg width="545pt" height="132pt"
 viewBox="0.00 0.00 545.00 131.50" xmlns="http://www.w3.org/2000/svg" xmlns:xlink="http://www.w3.org/1999/xlink">
<g id="graph0" class="graph" transform="scale(1 1) rotate(0) translate(4 127.5)">
<title>MessageProcessor::threadBody</title>
<polygon fill="#ffffff" stroke="transparent" points="-4,4 -4,-127.5 541,-127.5 541,4 -4,4"/>
<!-- Node39 -->
<g id="node1" class="node">
<title>Node39</title>
<polygon fill="#bfbfbf" stroke="#000000" points="0,-38.5 0,-57.5 156,-57.5 156,-38.5 0,-38.5"/>
<text text-anchor="middle" x="78" y="-45.5" font-family="Helvetica,sans-Serif" font-size="10.00" fill="#000000">MessageProcessor::threadBody</text>
</g>
<!-- Node40 -->
<g id="node2" class="node">
<title>Node40</title>
<g id="a_node2"><a xlink:href="../../db/d85/class_data_storage.html#add6db588ead8c9218e88cf332b06e985" target="_top" xlink:title="add new record to the datastore ">
<polygon fill="#ffffff" stroke="#000000" points="208,-76.5 208,-95.5 333,-95.5 333,-76.5 208,-76.5"/>
<text text-anchor="middle" x="270.5" y="-83.5" font-family="Helvetica,sans-Serif" font-size="10.00" fill="#000000">DataStorage::addRecord</text>
</a>
</g>
</g>
<!-- Node39&#45;&gt;Node40 -->
<g id="edge1" class="edge">
<title>Node39&#45;&gt;Node40</title>
<path fill="none" stroke="#191970" d="M126.5759,-57.589C152.6649,-62.739 185.0058,-69.1232 212.4179,-74.5344"/>
<polygon fill="#191970" stroke="#191970" points="211.7849,-77.977 222.2734,-76.4799 213.1406,-71.1095 211.7849,-77.977"/>
</g>
<!-- Node43 -->
<g id="node5" class="node">
<title>Node43</title>
<g id="a_node5"><a xlink:href="../../d3/d5f/class_abstract_a_p_i.html#a4b114a5c2a103d590a4261f5c95123cd" target="_top" xlink:title="Get the next message in message queue. ">
<polygon fill="#ffffff" stroke="#000000" points="195.5,-38.5 195.5,-57.5 345.5,-57.5 345.5,-38.5 195.5,-38.5"/>
<text text-anchor="middle" x="270.5" y="-45.5" font-family="Helvetica,sans-Serif" font-size="10.00" fill="#000000">AbstractAPI::getNextMessage</text>
</a>
</g>
</g>
<!-- Node39&#45;&gt;Node43 -->
<g id="edge4" class="edge">
<title>Node39&#45;&gt;Node43</title>
<path fill="none" stroke="#191970" d="M156.0196,-48C165.6884,-48 175.612,-48 185.3806,-48"/>
<polygon fill="#191970" stroke="#191970" points="185.4872,-51.5001 195.4872,-48 185.4871,-44.5001 185.4872,-51.5001"/>
</g>
<!-- Node44 -->
<g id="node6" class="node">
<title>Node44</title>
<g id="a_node6"><a xlink:href="../../d3/df5/class_message_processor.html#ab0700e40b5ae709cb970294efc37d31f" target="_top" xlink:title="get flag that indicates ">
<polygon fill="#ffffff" stroke="#000000" points="192,-.5 192,-19.5 349,-19.5 349,-.5 192,-.5"/>
<text text-anchor="middle" x="270.5" y="-7.5" font-family="Helvetica,sans-Serif" font-size="10.00" fill="#000000">MessageProcessor::getRunFlag</text>
</a>
</g>
</g>
<!-- Node39&#45;&gt;Node44 -->
<g id="edge5" class="edge">
<title>Node39&#45;&gt;Node44</title>
<path fill="none" stroke="#191970" d="M126.5759,-38.411C152.6649,-33.261 185.0058,-26.8768 212.4179,-21.4656"/>
<polygon fill="#191970" stroke="#191970" points="213.1406,-24.8905 222.2734,-19.5201 211.7849,-18.023 213.1406,-24.8905"/>
</g>
<!-- Node41 -->
<g id="node3" class="node">
<title>Node41</title>
<g id="a_node3"><a xlink:href="../../db/d85/class_data_storage.html#a83711f8d0caac782642317ccba89f6da" target="_top" xlink:title="add measurement record to the database ">
<polygon fill="#ffffff" stroke="#000000" points="385,-93 385,-123 537,-123 537,-93 385,-93"/>
<text text-anchor="start" x="393" y="-111" font-family="Helvetica,sans-Serif" font-size="10.00" fill="#000000">DataStorage::addMeasurement</text>
<text text-anchor="middle" x="461" y="-100" font-family="Helvetica,sans-Serif" font-size="10.00" fill="#000000">Record</text>
</a>
</g>
</g>
<!-- Node40&#45;&gt;Node41 -->
<g id="edge2" class="edge">
<title>Node40&#45;&gt;Node41</title>
<path fill="none" stroke="#191970" d="M333.1407,-93.2341C346.4048,-94.7659 360.6283,-96.4085 374.596,-98.0216"/>
<polygon fill="#191970" stroke="#191970" points="374.3684,-101.5185 384.704,-99.1889 375.1715,-94.5647 374.3684,-101.5185"/>
</g>
<!-- Node42 -->
<g id="node4" class="node">
<title>Node42</title>
<g id="a_node4"><a xlink:href="../../dd/d25/namespacefnv.html#a3d5ea8f4e1ac576cc07994d8bc74d051" target="_top" xlink:title="calculate Fnv64a hash from given string ">
<polygon fill="#ffffff" stroke="#000000" points="427,-54.5 427,-73.5 495,-73.5 495,-54.5 427,-54.5"/>
<text text-anchor="middle" x="461" y="-61.5" font-family="Helvetica,sans-Serif" font-size="10.00" fill="#000000">fnv::Fnv64a</text>
</a>
</g>
</g>
<!-- Node40&#45;&gt;Node42 -->
<g id="edge3" class="edge">
<title>Node40&#45;&gt;Node42</title>
<path fill="none" stroke="#191970" d="M333.1407,-78.7659C360.4686,-75.6099 391.8694,-71.9836 416.7136,-69.1144"/>
<polygon fill="#191970" stroke="#191970" points="417.3963,-72.559 426.9287,-67.9347 416.5931,-65.6052 417.3963,-72.559"/>
</g>
</g>
</svg>
