<?xml version="1.0" encoding="UTF-8" standalone="no"?>
<!DOCTYPE svg PUBLIC "-//W3C//DTD SVG 1.1//EN"
 "http://www.w3.org/Graphics/SVG/1.1/DTD/svg11.dtd">
<!-- Generated by graphviz version 2.40.1 (20161225.0304)
 -->
<!-- Title: MessageProcessor::setRunFlag Pages: 1 -->
<svg width="521pt" height="66pt"
 viewBox="0.00 0.00 521.00 66.00" xmlns="http://www.w3.org/2000/svg" xmlns:xlink="http://www.w3.org/1999/xlink">
<g id="graph0" class="graph" transform="scale(1 1) rotate(0) translate(4 62)">
<title>MessageProcessor::setRunFlag</title>
<polygon fill="#ffffff" stroke="transparent" points="-4,4 -4,-62 517,-62 517,4 -4,4"/>
<!-- Node17 -->
<g id="node1" class="node">
<title>Node17</title>
<polygon fill="#bfbfbf" stroke="#000000" points="0,-19.5 0,-38.5 157,-38.5 157,-19.5 0,-19.5"/>
<text text-anchor="middle" x="78.5" y="-26.5" font-family="Helvetica,sans-Serif" font-size="10.00" fill="#000000">MessageProcessor::setRunFlag</text>
</g>
<!-- Node18 -->
<g id="node2" class="node">
<title>Node18</title>
<g id="a_node2"><a xlink:href="../../d3/df5/class_message_processor.html#a1af9c4a7a077e73077f2f25cd15a6361" target="_top" xlink:title="start message processor thread ">
<polygon fill="#ffffff" stroke="#000000" points="193,-38.5 193,-57.5 319,-57.5 319,-38.5 193,-38.5"/>
<text text-anchor="middle" x="256" y="-45.5" font-family="Helvetica,sans-Serif" font-size="10.00" fill="#000000">MessageProcessor::start</text>
</a>
</g>
</g>
<!-- Node17&#45;&gt;Node18 -->
<g id="edge1" class="edge">
<title>Node17&#45;&gt;Node18</title>
<path fill="none" stroke="#191970" d="M167.2617,-38.5012C175.9097,-39.427 184.5576,-40.3526 192.8769,-41.2432"/>
<polygon fill="#191970" stroke="#191970" points="167.445,-35.001 157.1292,-37.4167 166.6999,-41.9612 167.445,-35.001"/>
</g>
<!-- Node21 -->
<g id="node5" class="node">
<title>Node21</title>
<g id="a_node5"><a xlink:href="../../d3/df5/class_message_processor.html#af438aaa750f77f32edb7ca09bebd1c46" target="_top" xlink:title="stop message processor ">
<polygon fill="#ffffff" stroke="#000000" points="193.5,-.5 193.5,-19.5 318.5,-19.5 318.5,-.5 193.5,-.5"/>
<text text-anchor="middle" x="256" y="-7.5" font-family="Helvetica,sans-Serif" font-size="10.00" fill="#000000">MessageProcessor::stop</text>
</a>
</g>
</g>
<!-- Node17&#45;&gt;Node21 -->
<g id="edge4" class="edge">
<title>Node17&#45;&gt;Node21</title>
<path fill="none" stroke="#191970" d="M167.1327,-19.5126C176.0103,-18.5623 184.8894,-17.6118 193.4148,-16.6993"/>
<polygon fill="#191970" stroke="#191970" points="166.6999,-16.0388 157.1292,-20.5833 167.445,-22.999 166.6999,-16.0388"/>
</g>
<!-- Node19 -->
<g id="node3" class="node">
<title>Node19</title>
<g id="a_node3"><a xlink:href="../../de/d6b/class_application.html#a7fbff10e3b66542f549f6c693ec4e676" target="_top" xlink:title="Application::run">
<polygon fill="#ffffff" stroke="#000000" points="355,-19.5 355,-38.5 439,-38.5 439,-19.5 355,-19.5"/>
<text text-anchor="middle" x="397" y="-26.5" font-family="Helvetica,sans-Serif" font-size="10.00" fill="#000000">Application::run</text>
</a>
</g>
</g>
<!-- Node18&#45;&gt;Node19 -->
<g id="edge2" class="edge">
<title>Node18&#45;&gt;Node19</title>
<path fill="none" stroke="#191970" d="M329.2605,-38.128C337.9406,-36.9584 346.5648,-35.7962 354.6057,-34.7127"/>
<polygon fill="#191970" stroke="#191970" points="328.5197,-34.6961 319.0767,-39.5003 329.4546,-41.6334 328.5197,-34.6961"/>
</g>
<!-- Node20 -->
<g id="node4" class="node">
<title>Node20</title>
<g id="a_node4"><a xlink:href="../../df/d0a/main_8cpp.html#a840291bc02cba5474a4cb46a9b9566fe" target="_top" xlink:title="main">
<polygon fill="#ffffff" stroke="#000000" points="475,-19.5 475,-38.5 513,-38.5 513,-19.5 475,-19.5"/>
<text text-anchor="middle" x="494" y="-26.5" font-family="Helvetica,sans-Serif" font-size="10.00" fill="#000000">main</text>
</a>
</g>
</g>
<!-- Node19&#45;&gt;Node20 -->
<g id="edge3" class="edge">
<title>Node19&#45;&gt;Node20</title>
<path fill="none" stroke="#191970" d="M449.5386,-29C458.6287,-29 467.5282,-29 474.948,-29"/>
<polygon fill="#191970" stroke="#191970" points="449.2635,-25.5001 439.2634,-29 449.2634,-32.5001 449.2635,-25.5001"/>
</g>
<!-- Node21&#45;&gt;Node19 -->
<g id="edge5" class="edge">
<title>Node21&#45;&gt;Node19</title>
<path fill="none" stroke="#191970" d="M328.722,-19.7994C337.638,-21.0009 346.5066,-22.1959 354.7566,-23.3076"/>
<polygon fill="#191970" stroke="#191970" points="329.0436,-16.3112 318.6658,-18.4443 328.1088,-23.2485 329.0436,-16.3112"/>
</g>
</g>
</svg>
