<?xml version="1.0" encoding="UTF-8" standalone="no"?>
<!DOCTYPE svg PUBLIC "-//W3C//DTD SVG 1.1//EN"
 "http://www.w3.org/Graphics/SVG/1.1/DTD/svg11.dtd">
<!-- Generated by graphviz version 2.40.1 (20161225.0304)
 -->
<!-- Title: MessageProcessor::stop Pages: 1 -->
<svg width="327pt" height="28pt"
 viewBox="0.00 0.00 327.00 28.00" xmlns="http://www.w3.org/2000/svg" xmlns:xlink="http://www.w3.org/1999/xlink">
<g id="graph0" class="graph" transform="scale(1 1) rotate(0) translate(4 24)">
<title>MessageProcessor::stop</title>
<polygon fill="#ffffff" stroke="transparent" points="-4,4 -4,-24 323,-24 323,4 -4,4"/>
<!-- Node36 -->
<g id="node1" class="node">
<title>Node36</title>
<polygon fill="#bfbfbf" stroke="#000000" points="0,-.5 0,-19.5 125,-19.5 125,-.5 0,-.5"/>
<text text-anchor="middle" x="62.5" y="-7.5" font-family="Helvetica,sans-Serif" font-size="10.00" fill="#000000">MessageProcessor::stop</text>
</g>
<!-- Node37 -->
<g id="node2" class="node">
<title>Node37</title>
<g id="a_node2"><a xlink:href="../../de/d6b/class_application.html#a7fbff10e3b66542f549f6c693ec4e676" target="_top" xlink:title="Application::run">
<polygon fill="#ffffff" stroke="#000000" points="161,-.5 161,-19.5 245,-19.5 245,-.5 161,-.5"/>
<text text-anchor="middle" x="203" y="-7.5" font-family="Helvetica,sans-Serif" font-size="10.00" fill="#000000">Application::run</text>
</a>
</g>
</g>
<!-- Node36&#45;&gt;Node37 -->
<g id="edge1" class="edge">
<title>Node36&#45;&gt;Node37</title>
<path fill="none" stroke="#191970" d="M135.5007,-10C144.15,-10 152.7437,-10 160.7561,-10"/>
<polygon fill="#191970" stroke="#191970" points="135.3531,-6.5001 125.353,-10 135.353,-13.5001 135.3531,-6.5001"/>
</g>
<!-- Node38 -->
<g id="node3" class="node">
<title>Node38</title>
<g id="a_node3"><a xlink:href="../../df/d0a/main_8cpp.html#a840291bc02cba5474a4cb46a9b9566fe" target="_top" xlink:title="main">
<polygon fill="#ffffff" stroke="#000000" points="281,-.5 281,-19.5 319,-19.5 319,-.5 281,-.5"/>
<text text-anchor="middle" x="300" y="-7.5" font-family="Helvetica,sans-Serif" font-size="10.00" fill="#000000">main</text>
</a>
</g>
</g>
<!-- Node37&#45;&gt;Node38 -->
<g id="edge2" class="edge">
<title>Node37&#45;&gt;Node38</title>
<path fill="none" stroke="#191970" d="M255.5386,-10C264.6287,-10 273.5282,-10 280.948,-10"/>
<polygon fill="#191970" stroke="#191970" points="255.2635,-6.5001 245.2634,-10 255.2634,-13.5001 255.2635,-6.5001"/>
</g>
</g>
</svg>
