<?xml version="1.0" encoding="UTF-8" standalone="no"?>
<!DOCTYPE svg PUBLIC "-//W3C//DTD SVG 1.1//EN"
 "http://www.w3.org/Graphics/SVG/1.1/DTD/svg11.dtd">
<!-- Generated by graphviz version 2.40.1 (20161225.0304)
 -->
<!-- Title: MessageProcessor::notify Pages: 1 -->
<svg width="615pt" height="66pt"
 viewBox="0.00 0.00 615.00 66.00" xmlns="http://www.w3.org/2000/svg" xmlns:xlink="http://www.w3.org/1999/xlink">
<g id="graph0" class="graph" transform="scale(1 1) rotate(0) translate(4 62)">
<title>MessageProcessor::notify</title>
<polygon fill="#ffffff" stroke="transparent" points="-4,4 -4,-62 611,-62 611,4 -4,4"/>
<!-- Node9 -->
<g id="node1" class="node">
<title>Node9</title>
<polygon fill="#bfbfbf" stroke="#000000" points="0,-19.5 0,-38.5 131,-38.5 131,-19.5 0,-19.5"/>
<text text-anchor="middle" x="65.5" y="-26.5" font-family="Helvetica,sans-Serif" font-size="10.00" fill="#000000">MessageProcessor::notify</text>
</g>
<!-- Node10 -->
<g id="node2" class="node">
<title>Node10</title>
<g id="a_node2"><a xlink:href="../../d3/d5f/class_abstract_a_p_i.html#a1ba086582a2251e3393ddd2c66d2d153" target="_top" xlink:title="add newly received message to queue ">
<polygon fill="#ffffff" stroke="#000000" points="167,-38.5 167,-57.5 324,-57.5 324,-38.5 167,-38.5"/>
<text text-anchor="middle" x="245.5" y="-45.5" font-family="Helvetica,sans-Serif" font-size="10.00" fill="#000000">AbstractAPI::pushNewMessage</text>
</a>
</g>
</g>
<!-- Node9&#45;&gt;Node10 -->
<g id="edge1" class="edge">
<title>Node9&#45;&gt;Node10</title>
<path fill="none" stroke="#191970" d="M141.3876,-37.0104C149.7851,-37.8968 158.3507,-38.8009 166.7821,-39.6909"/>
<polygon fill="#191970" stroke="#191970" points="141.5604,-33.5092 131.2482,-35.9401 140.8255,-40.4706 141.5604,-33.5092"/>
</g>
<!-- Node13 -->
<g id="node5" class="node">
<title>Node13</title>
<g id="a_node5"><a xlink:href="../../d3/df5/class_message_processor.html#af438aaa750f77f32edb7ca09bebd1c46" target="_top" xlink:title="stop message processor ">
<polygon fill="#ffffff" stroke="#000000" points="183,-.5 183,-19.5 308,-19.5 308,-.5 183,-.5"/>
<text text-anchor="middle" x="245.5" y="-7.5" font-family="Helvetica,sans-Serif" font-size="10.00" fill="#000000">MessageProcessor::stop</text>
</a>
</g>
</g>
<!-- Node9&#45;&gt;Node13 -->
<g id="edge4" class="edge">
<title>Node9&#45;&gt;Node13</title>
<path fill="none" stroke="#191970" d="M141.2552,-21.0036C155.1376,-19.5382 169.484,-18.0239 182.9276,-16.6049"/>
<polygon fill="#191970" stroke="#191970" points="140.8255,-17.5294 131.2482,-22.0599 141.5604,-24.4908 140.8255,-17.5294"/>
</g>
<!-- Node11 -->
<g id="node3" class="node">
<title>Node11</title>
<g id="a_node3"><a xlink:href="../../d0/dcd/class_rest_a_p_i.html#a84de7abd0de9d4b9998f33de4c517386" target="_top" xlink:title="HTTP POST method handler. ">
<polygon fill="#ffffff" stroke="#000000" points="360,-38.5 360,-57.5 473,-57.5 473,-38.5 360,-38.5"/>
<text text-anchor="middle" x="416.5" y="-45.5" font-family="Helvetica,sans-Serif" font-size="10.00" fill="#000000">RestAPI::postHandler</text>
</a>
</g>
</g>
<!-- Node10&#45;&gt;Node11 -->
<g id="edge2" class="edge">
<title>Node10&#45;&gt;Node11</title>
<path fill="none" stroke="#191970" d="M334.5541,-48C343.1237,-48 351.6457,-48 359.7747,-48"/>
<polygon fill="#191970" stroke="#191970" points="334.4929,-44.5001 324.4929,-48 334.4929,-51.5001 334.4929,-44.5001"/>
</g>
<!-- Node12 -->
<g id="node4" class="node">
<title>Node12</title>
<g id="a_node4"><a xlink:href="../../d0/dcd/class_rest_a_p_i.html#ab61327d4e8fd3e38355f653650e6ac94" target="_top" xlink:title="perform API setup ">
<polygon fill="#ffffff" stroke="#000000" points="509,-38.5 509,-57.5 607,-57.5 607,-38.5 509,-38.5"/>
<text text-anchor="middle" x="558" y="-45.5" font-family="Helvetica,sans-Serif" font-size="10.00" fill="#000000">RestAPI::setupApi</text>
</a>
</g>
</g>
<!-- Node11&#45;&gt;Node12 -->
<g id="edge3" class="edge">
<title>Node11&#45;&gt;Node12</title>
<path fill="none" stroke="#191970" d="M483.327,-48C491.9785,-48 500.7084,-48 508.9972,-48"/>
<polygon fill="#191970" stroke="#191970" points="483.2382,-44.5001 473.2381,-48 483.2381,-51.5001 483.2382,-44.5001"/>
</g>
<!-- Node14 -->
<g id="node6" class="node">
<title>Node14</title>
<g id="a_node6"><a xlink:href="../../de/d6b/class_application.html#a7fbff10e3b66542f549f6c693ec4e676" target="_top" xlink:title="Application::run">
<polygon fill="#ffffff" stroke="#000000" points="374.5,-.5 374.5,-19.5 458.5,-19.5 458.5,-.5 374.5,-.5"/>
<text text-anchor="middle" x="416.5" y="-7.5" font-family="Helvetica,sans-Serif" font-size="10.00" fill="#000000">Application::run</text>
</a>
</g>
</g>
<!-- Node13&#45;&gt;Node14 -->
<g id="edge5" class="edge">
<title>Node13&#45;&gt;Node14</title>
<path fill="none" stroke="#191970" d="M318.395,-10C337.4945,-10 357.452,-10 374.3418,-10"/>
<polygon fill="#191970" stroke="#191970" points="318.2031,-6.5001 308.2031,-10 318.2031,-13.5001 318.2031,-6.5001"/>
</g>
<!-- Node15 -->
<g id="node7" class="node">
<title>Node15</title>
<g id="a_node7"><a xlink:href="../../df/d0a/main_8cpp.html#a840291bc02cba5474a4cb46a9b9566fe" target="_top" xlink:title="main">
<polygon fill="#ffffff" stroke="#000000" points="539,-.5 539,-19.5 577,-19.5 577,-.5 539,-.5"/>
<text text-anchor="middle" x="558" y="-7.5" font-family="Helvetica,sans-Serif" font-size="10.00" fill="#000000">main</text>
</a>
</g>
</g>
<!-- Node14&#45;&gt;Node15 -->
<g id="edge6" class="edge">
<title>Node14&#45;&gt;Node15</title>
<path fill="none" stroke="#191970" d="M468.7978,-10C493.1952,-10 520.7401,-10 538.6829,-10"/>
<polygon fill="#191970" stroke="#191970" points="468.5716,-6.5001 458.5716,-10 468.5715,-13.5001 468.5716,-6.5001"/>
</g>
</g>
</svg>
