<?xml version="1.0" encoding="UTF-8" standalone="no"?>
<!DOCTYPE svg PUBLIC "-//W3C//DTD SVG 1.1//EN"
 "http://www.w3.org/Graphics/SVG/1.1/DTD/svg11.dtd">
<!-- Generated by graphviz version 2.40.1 (20161225.0304)
 -->
<!-- Title: src/libsignalhandler/SignalHandler.cpp Pages: 1 -->
<svg width="393pt" height="151pt"
 viewBox="0.00 0.00 392.50 151.00" xmlns="http://www.w3.org/2000/svg" xmlns:xlink="http://www.w3.org/1999/xlink">
<g id="graph0" class="graph" transform="scale(1 1) rotate(0) translate(4 147)">
<title>src/libsignalhandler/SignalHandler.cpp</title>
<polygon fill="#ffffff" stroke="transparent" points="-4,4 -4,-147 388.5,-147 388.5,4 -4,4"/>
<!-- Node0 -->
<g id="node1" class="node">
<title>Node0</title>
<polygon fill="#bfbfbf" stroke="#000000" points="202.5,-112.5 202.5,-142.5 302.5,-142.5 302.5,-112.5 202.5,-112.5"/>
<text text-anchor="start" x="210.5" y="-130.5" font-family="Helvetica,sans-Serif" font-size="10.00" fill="#000000">src/libsignalhandler</text>
<text text-anchor="middle" x="252.5" y="-119.5" font-family="Helvetica,sans-Serif" font-size="10.00" fill="#000000">/SignalHandler.cpp</text>
</g>
<!-- Node1 -->
<g id="node2" class="node">
<title>Node1</title>
<g id="a_node2"><a xlink:href="../../d8/de2/_signal_handler_8hpp.html" target="_top" xlink:title="SignalHandler.hpp">
<polygon fill="#ffffff" stroke="#000000" points="62.5,-56.5 62.5,-75.5 158.5,-75.5 158.5,-56.5 62.5,-56.5"/>
<text text-anchor="middle" x="110.5" y="-63.5" font-family="Helvetica,sans-Serif" font-size="10.00" fill="#000000">SignalHandler.hpp</text>
</a>
</g>
</g>
<!-- Node0&#45;&gt;Node1 -->
<g id="edge1" class="edge">
<title>Node0&#45;&gt;Node1</title>
<path fill="none" stroke="#191970" d="M217.7629,-112.4554C194.5894,-102.419 164.3708,-89.3314 141.9158,-79.6061"/>
<polygon fill="#191970" stroke="#191970" points="143.0723,-76.2929 132.505,-75.5303 140.2903,-82.7164 143.0723,-76.2929"/>
</g>
<!-- Node6 -->
<g id="node7" class="node">
<title>Node6</title>
<polygon fill="#ffffff" stroke="#bfbfbf" points="176.5,-56.5 176.5,-75.5 250.5,-75.5 250.5,-56.5 176.5,-56.5"/>
<text text-anchor="middle" x="213.5" y="-63.5" font-family="Helvetica,sans-Serif" font-size="10.00" fill="#000000">system_error</text>
</g>
<!-- Node0&#45;&gt;Node6 -->
<g id="edge6" class="edge">
<title>Node0&#45;&gt;Node6</title>
<path fill="none" stroke="#191970" d="M242.8595,-112.2977C237.5023,-103.8498 230.7978,-93.2773 225.1487,-84.369"/>
<polygon fill="#191970" stroke="#191970" points="228.0556,-82.4176 219.7444,-75.8469 222.1441,-86.1664 228.0556,-82.4176"/>
</g>
<!-- Node7 -->
<g id="node8" class="node">
<title>Node7</title>
<polygon fill="#ffffff" stroke="#bfbfbf" points="268.5,-56.5 268.5,-75.5 314.5,-75.5 314.5,-56.5 268.5,-56.5"/>
<text text-anchor="middle" x="291.5" y="-63.5" font-family="Helvetica,sans-Serif" font-size="10.00" fill="#000000">cstring</text>
</g>
<!-- Node0&#45;&gt;Node7 -->
<g id="edge7" class="edge">
<title>Node0&#45;&gt;Node7</title>
<path fill="none" stroke="#191970" d="M262.1405,-112.2977C267.4977,-103.8498 274.2022,-93.2773 279.8513,-84.369"/>
<polygon fill="#191970" stroke="#191970" points="282.8559,-86.1664 285.2556,-75.8469 276.9444,-82.4176 282.8559,-86.1664"/>
</g>
<!-- Node8 -->
<g id="node9" class="node">
<title>Node8</title>
<polygon fill="#ffffff" stroke="#bfbfbf" points="332.5,-56.5 332.5,-75.5 384.5,-75.5 384.5,-56.5 332.5,-56.5"/>
<text text-anchor="middle" x="358.5" y="-63.5" font-family="Helvetica,sans-Serif" font-size="10.00" fill="#000000">sstream</text>
</g>
<!-- Node0&#45;&gt;Node8 -->
<g id="edge8" class="edge">
<title>Node0&#45;&gt;Node8</title>
<path fill="none" stroke="#191970" d="M278.4305,-112.4554C295.0309,-102.8241 316.4744,-90.3828 332.9917,-80.7996"/>
<polygon fill="#191970" stroke="#191970" points="335.1806,-83.5761 342.0738,-75.5303 331.6677,-77.5214 335.1806,-83.5761"/>
</g>
<!-- Node2 -->
<g id="node3" class="node">
<title>Node2</title>
<polygon fill="#ffffff" stroke="#bfbfbf" points="0,-.5 0,-19.5 47,-19.5 47,-.5 0,-.5"/>
<text text-anchor="middle" x="23.5" y="-7.5" font-family="Helvetica,sans-Serif" font-size="10.00" fill="#000000">csignal</text>
</g>
<!-- Node1&#45;&gt;Node2 -->
<g id="edge2" class="edge">
<title>Node1&#45;&gt;Node2</title>
<path fill="none" stroke="#191970" d="M95.3458,-56.2455C81.9973,-47.6534 62.3414,-35.0014 46.9617,-25.1018"/>
<polygon fill="#191970" stroke="#191970" points="48.7836,-22.1121 38.4806,-19.6427 44.9949,-27.9982 48.7836,-22.1121"/>
</g>
<!-- Node3 -->
<g id="node4" class="node">
<title>Node3</title>
<polygon fill="#ffffff" stroke="#bfbfbf" points="65,-.5 65,-19.5 100,-19.5 100,-.5 65,-.5"/>
<text text-anchor="middle" x="82.5" y="-7.5" font-family="Helvetica,sans-Serif" font-size="10.00" fill="#000000">map</text>
</g>
<!-- Node1&#45;&gt;Node3 -->
<g id="edge3" class="edge">
<title>Node1&#45;&gt;Node3</title>
<path fill="none" stroke="#191970" d="M105.6228,-56.2455C101.8487,-48.6973 96.5079,-38.0158 91.9099,-28.8197"/>
<polygon fill="#191970" stroke="#191970" points="94.924,-27.0217 87.3213,-19.6427 88.663,-30.1522 94.924,-27.0217"/>
</g>
<!-- Node4 -->
<g id="node5" class="node">
<title>Node4</title>
<polygon fill="#ffffff" stroke="#bfbfbf" points="118,-.5 118,-19.5 159,-19.5 159,-.5 118,-.5"/>
<text text-anchor="middle" x="138.5" y="-7.5" font-family="Helvetica,sans-Serif" font-size="10.00" fill="#000000">stack</text>
</g>
<!-- Node1&#45;&gt;Node4 -->
<g id="edge4" class="edge">
<title>Node1&#45;&gt;Node4</title>
<path fill="none" stroke="#191970" d="M115.3772,-56.2455C119.1513,-48.6973 124.4921,-38.0158 129.0901,-28.8197"/>
<polygon fill="#191970" stroke="#191970" points="132.337,-30.1522 133.6787,-19.6427 126.076,-27.0217 132.337,-30.1522"/>
</g>
<!-- Node5 -->
<g id="node6" class="node">
<title>Node5</title>
<polygon fill="#ffffff" stroke="#bfbfbf" points="177,-.5 177,-19.5 236,-19.5 236,-.5 177,-.5"/>
<text text-anchor="middle" x="206.5" y="-7.5" font-family="Helvetica,sans-Serif" font-size="10.00" fill="#000000">stdexcept</text>
</g>
<!-- Node1&#45;&gt;Node5 -->
<g id="edge5" class="edge">
<title>Node1&#45;&gt;Node5</title>
<path fill="none" stroke="#191970" d="M127.2219,-56.2455C142.0889,-47.5731 164.0466,-34.7645 181.0858,-24.825"/>
<polygon fill="#191970" stroke="#191970" points="183.0955,-27.7047 189.9697,-19.6427 179.5683,-21.6582 183.0955,-27.7047"/>
</g>
</g>
</svg>
