<?xml version="1.0" encoding="UTF-8" standalone="no"?>
<!DOCTYPE svg PUBLIC "-//W3C//DTD SVG 1.1//EN"
 "http://www.w3.org/Graphics/SVG/1.1/DTD/svg11.dtd">
<!-- Generated by graphviz version 2.40.1 (20161225.0304)
 -->
<!-- Title: src/deviceMonitor/middleware/MessageProcessor.hpp Pages: 1 -->
<svg width="470pt" height="162pt"
 viewBox="0.00 0.00 469.50 162.00" xmlns="http://www.w3.org/2000/svg" xmlns:xlink="http://www.w3.org/1999/xlink">
<g id="graph0" class="graph" transform="scale(1 1) rotate(0) translate(4 158)">
<title>src/deviceMonitor/middleware/MessageProcessor.hpp</title>
<polygon fill="#ffffff" stroke="transparent" points="-4,4 -4,-158 465.5,-158 465.5,4 -4,4"/>
<!-- Node18 -->
<g id="node1" class="node">
<title>Node18</title>
<polygon fill="#bfbfbf" stroke="#000000" points="142.5,-123.5 142.5,-153.5 288.5,-153.5 288.5,-123.5 142.5,-123.5"/>
<text text-anchor="start" x="150.5" y="-141.5" font-family="Helvetica,sans-Serif" font-size="10.00" fill="#000000">src/deviceMonitor/middleware</text>
<text text-anchor="middle" x="215.5" y="-130.5" font-family="Helvetica,sans-Serif" font-size="10.00" fill="#000000">/MessageProcessor.hpp</text>
</g>
<!-- Node19 -->
<g id="node2" class="node">
<title>Node19</title>
<g id="a_node2"><a xlink:href="../../d6/db0/_abstract_a_p_i_8cpp.html" target="_top" xlink:title="src/deviceMonitor/apis\l/AbstractAPI.cpp">
<polygon fill="#ffffff" stroke="#000000" points="0,-56.5 0,-86.5 115,-86.5 115,-56.5 0,-56.5"/>
<text text-anchor="start" x="8" y="-74.5" font-family="Helvetica,sans-Serif" font-size="10.00" fill="#000000">src/deviceMonitor/apis</text>
<text text-anchor="middle" x="57.5" y="-63.5" font-family="Helvetica,sans-Serif" font-size="10.00" fill="#000000">/AbstractAPI.cpp</text>
</a>
</g>
</g>
<!-- Node18&#45;&gt;Node19 -->
<g id="edge1" class="edge">
<title>Node18&#45;&gt;Node19</title>
<path fill="none" stroke="#191970" d="M170.5798,-119.4516C146.0252,-109.0392 116.0364,-96.3224 93.1129,-86.6017"/>
<polygon fill="#191970" stroke="#191970" points="169.4688,-122.7821 180.0417,-123.4639 172.2017,-116.3376 169.4688,-122.7821"/>
</g>
<!-- Node20 -->
<g id="node3" class="node">
<title>Node20</title>
<g id="a_node3"><a xlink:href="../../d2/dcb/_application_8hpp.html" target="_top" xlink:title="src/deviceMonitor/Application.hpp">
<polygon fill="#ffffff" stroke="#000000" points="133.5,-62 133.5,-81 297.5,-81 297.5,-62 133.5,-62"/>
<text text-anchor="middle" x="215.5" y="-69" font-family="Helvetica,sans-Serif" font-size="10.00" fill="#000000">src/deviceMonitor/Application.hpp</text>
</a>
</g>
</g>
<!-- Node18&#45;&gt;Node20 -->
<g id="edge2" class="edge">
<title>Node18&#45;&gt;Node20</title>
<path fill="none" stroke="#191970" d="M215.5,-113.1199C215.5,-101.9072 215.5,-89.4031 215.5,-81.055"/>
<polygon fill="#191970" stroke="#191970" points="212.0001,-113.2966 215.5,-123.2967 219.0001,-113.2967 212.0001,-113.2966"/>
</g>
<!-- Node23 -->
<g id="node6" class="node">
<title>Node23</title>
<g id="a_node6"><a xlink:href="../../d4/d7b/_message_processor_8cpp.html" target="_top" xlink:title="src/deviceMonitor/middleware\l/MessageProcessor.cpp">
<polygon fill="#ffffff" stroke="#000000" points="315.5,-56.5 315.5,-86.5 461.5,-86.5 461.5,-56.5 315.5,-56.5"/>
<text text-anchor="start" x="323.5" y="-74.5" font-family="Helvetica,sans-Serif" font-size="10.00" fill="#000000">src/deviceMonitor/middleware</text>
<text text-anchor="middle" x="388.5" y="-63.5" font-family="Helvetica,sans-Serif" font-size="10.00" fill="#000000">/MessageProcessor.cpp</text>
</a>
</g>
</g>
<!-- Node18&#45;&gt;Node23 -->
<g id="edge5" class="edge">
<title>Node18&#45;&gt;Node23</title>
<path fill="none" stroke="#191970" d="M263.9724,-119.7275C290.9887,-109.2645 324.1842,-96.4084 349.5061,-86.6017"/>
<polygon fill="#191970" stroke="#191970" points="262.3856,-116.5886 254.3246,-123.4639 264.9137,-123.1162 262.3856,-116.5886"/>
</g>
<!-- Node21 -->
<g id="node4" class="node">
<title>Node21</title>
<g id="a_node4"><a xlink:href="../../d0/d42/_application_8cpp.html" target="_top" xlink:title="src/deviceMonitor/Application.cpp">
<polygon fill="#ffffff" stroke="#000000" points="48.5,-.5 48.5,-19.5 212.5,-19.5 212.5,-.5 48.5,-.5"/>
<text text-anchor="middle" x="130.5" y="-7.5" font-family="Helvetica,sans-Serif" font-size="10.00" fill="#000000">src/deviceMonitor/Application.cpp</text>
</a>
</g>
</g>
<!-- Node20&#45;&gt;Node21 -->
<g id="edge3" class="edge">
<title>Node20&#45;&gt;Node21</title>
<path fill="none" stroke="#191970" d="M194.0338,-55.9685C178.1881,-44.5037 157.1264,-29.265 143.688,-19.5419"/>
<polygon fill="#191970" stroke="#191970" points="192.0653,-58.8643 202.2188,-61.8906 196.1686,-53.1931 192.0653,-58.8643"/>
</g>
<!-- Node22 -->
<g id="node5" class="node">
<title>Node22</title>
<g id="a_node5"><a xlink:href="../../df/d0a/main_8cpp.html" target="_top" xlink:title="src/deviceMonitor/main.cpp">
<polygon fill="#ffffff" stroke="#000000" points="231,-.5 231,-19.5 368,-19.5 368,-.5 231,-.5"/>
<text text-anchor="middle" x="299.5" y="-7.5" font-family="Helvetica,sans-Serif" font-size="10.00" fill="#000000">src/deviceMonitor/main.cpp</text>
</a>
</g>
</g>
<!-- Node20&#45;&gt;Node22 -->
<g id="edge4" class="edge">
<title>Node20&#45;&gt;Node22</title>
<path fill="none" stroke="#191970" d="M236.7137,-55.9685C252.373,-44.5037 273.1869,-29.265 286.4672,-19.5419"/>
<polygon fill="#191970" stroke="#191970" points="234.626,-53.1592 228.625,-61.8906 238.7612,-58.8072 234.626,-53.1592"/>
</g>
</g>
</svg>
