<?xml version="1.0" encoding="UTF-8" standalone="no"?>
<!DOCTYPE svg PUBLIC "-//W3C//DTD SVG 1.1//EN"
 "http://www.w3.org/Graphics/SVG/1.1/DTD/svg11.dtd">
<!-- Generated by graphviz version 2.40.1 (20161225.0304)
 -->
<!-- Title: MessageProcessor Pages: 1 -->
<svg width="915pt" height="211pt"
 viewBox="0.00 0.00 915.00 210.50" xmlns="http://www.w3.org/2000/svg" xmlns:xlink="http://www.w3.org/1999/xlink">
<g id="graph0" class="graph" transform="scale(1 1) rotate(0) translate(4 206.5)">
<title>MessageProcessor</title>
<polygon fill="#ffffff" stroke="transparent" points="-4,4 -4,-206.5 911,-206.5 911,4 -4,4"/>
<!-- Node1 -->
<g id="node1" class="node">
<title>Node1</title>
<polygon fill="#bfbfbf" stroke="#000000" points="806,-21.5 806,-40.5 907,-40.5 907,-21.5 806,-21.5"/>
<text text-anchor="middle" x="856.5" y="-28.5" font-family="Helvetica,sans-Serif" font-size="10.00" fill="#000000">MessageProcessor</text>
</g>
<!-- Node2 -->
<g id="node2" class="node">
<title>Node2</title>
<g id="a_node2"><a xlink:href="../../d3/d5f/class_abstract_a_p_i.html" target="_top" xlink:title="AbstractAPI">
<polygon fill="#ffffff" stroke="#000000" points="681,-80.5 681,-99.5 751,-99.5 751,-80.5 681,-80.5"/>
<text text-anchor="middle" x="716" y="-87.5" font-family="Helvetica,sans-Serif" font-size="10.00" fill="#000000">AbstractAPI</text>
</a>
</g>
</g>
<!-- Node2&#45;&gt;Node1 -->
<g id="edge1" class="edge">
<title>Node2&#45;&gt;Node1</title>
<path fill="none" stroke="#9a32cd" stroke-dasharray="5,2" d="M748.3478,-76.4162C774.4293,-65.4638 810.4598,-50.3336 833.6233,-40.6066"/>
<polygon fill="#9a32cd" stroke="#9a32cd" points="746.7514,-73.2905 738.8865,-80.3893 749.4617,-79.7445 746.7514,-73.2905"/>
<text text-anchor="middle" x="780" y="-68" font-family="Helvetica,sans-Serif" font-size="10.00" fill="#000000"> api</text>
</g>
<!-- Node3 -->
<g id="node3" class="node">
<title>Node3</title>
<g id="a_node3"><a xlink:title="STL class. ">
<polygon fill="#ffffff" stroke="#bfbfbf" points="444.5,-177.5 444.5,-196.5 504.5,-196.5 504.5,-177.5 444.5,-177.5"/>
<text text-anchor="middle" x="474.5" y="-184.5" font-family="Helvetica,sans-Serif" font-size="10.00" fill="#000000">std::string</text>
</a>
</g>
</g>
<!-- Node3&#45;&gt;Node2 -->
<g id="edge2" class="edge">
<title>Node3&#45;&gt;Node2</title>
<path fill="none" stroke="#9a32cd" stroke-dasharray="5,2" d="M514.6334,-185.3394C553.8861,-182.2102 614.2635,-173.2886 660,-148 681.8036,-135.9443 700.3603,-112.6129 709.6442,-99.5145"/>
<polygon fill="#9a32cd" stroke="#9a32cd" points="514.3696,-181.8492 504.6419,-186.047 514.8642,-188.8317 514.3696,-181.8492"/>
<text text-anchor="middle" x="615" y="-180" font-family="Helvetica,sans-Serif" font-size="10.00" fill="#000000"> jsonSchema</text>
</g>
<!-- Node4 -->
<g id="node4" class="node">
<title>Node4</title>
<g id="a_node4"><a xlink:title="STL class. ">
<polygon fill="#ffffff" stroke="#bfbfbf" points="113,-172 113,-202 208,-202 208,-172 113,-172"/>
<text text-anchor="start" x="121" y="-190" font-family="Helvetica,sans-Serif" font-size="10.00" fill="#000000">std::basic_string&lt;</text>
<text text-anchor="middle" x="160.5" y="-179" font-family="Helvetica,sans-Serif" font-size="10.00" fill="#000000"> char &gt;</text>
</a>
</g>
</g>
<!-- Node4&#45;&gt;Node3 -->
<g id="edge3" class="edge">
<title>Node4&#45;&gt;Node3</title>
<path fill="none" stroke="#191970" d="M218.5497,-187C285.3489,-187 392.49,-187 444.3879,-187"/>
<polygon fill="#191970" stroke="#191970" points="218.1899,-183.5001 208.1898,-187 218.1898,-190.5001 218.1899,-183.5001"/>
</g>
<!-- Node5 -->
<g id="node5" class="node">
<title>Node5</title>
<polygon fill="#ffffff" stroke="#bfbfbf" points="397,-139.5 397,-158.5 552,-158.5 552,-139.5 397,-139.5"/>
<text text-anchor="middle" x="474.5" y="-146.5" font-family="Helvetica,sans-Serif" font-size="10.00" fill="#000000">std::queue&lt; pJsonMessage_t &gt;</text>
</g>
<!-- Node5&#45;&gt;Node2 -->
<g id="edge4" class="edge">
<title>Node5&#45;&gt;Node2</title>
<path fill="none" stroke="#9a32cd" stroke-dasharray="5,2" d="M550.7979,-137.6981C584.6259,-131.7931 624.6813,-123.5664 660,-113 672.0832,-109.385 685.1431,-104.1054 695.609,-99.516"/>
<polygon fill="#9a32cd" stroke="#9a32cd" points="549.779,-134.3214 540.5116,-139.4562 550.9583,-141.2214 549.779,-134.3214"/>
<text text-anchor="middle" x="615" y="-136" font-family="Helvetica,sans-Serif" font-size="10.00" fill="#000000"> messageQueue</text>
</g>
<!-- Node6 -->
<g id="node6" class="node">
<title>Node6</title>
<g id="a_node6"><a xlink:title="STL class. ">
<polygon fill="#ffffff" stroke="#bfbfbf" points="117.5,-133.5 117.5,-152.5 203.5,-152.5 203.5,-133.5 117.5,-133.5"/>
<text text-anchor="middle" x="160.5" y="-140.5" font-family="Helvetica,sans-Serif" font-size="10.00" fill="#000000">std::queue&lt; T &gt;</text>
</a>
</g>
</g>
<!-- Node6&#45;&gt;Node5 -->
<g id="edge5" class="edge">
<title>Node6&#45;&gt;Node5</title>
<path fill="none" stroke="#ffa500" stroke-dasharray="5,2" d="M213.8101,-144.0187C264.0113,-144.9779 339.7963,-146.426 396.7363,-147.5141"/>
<polygon fill="#ffa500" stroke="#ffa500" points="213.567,-140.5135 203.502,-143.8217 213.4332,-147.5122 213.567,-140.5135"/>
<text text-anchor="middle" x="305" y="-150" font-family="Helvetica,sans-Serif" font-size="10.00" fill="#000000"> &lt; pJsonMessage_t &gt;</text>
</g>
<!-- Node7 -->
<g id="node7" class="node">
<title>Node7</title>
<polygon fill="#ffffff" stroke="#bfbfbf" points="0,-114.5 0,-133.5 29,-133.5 29,-114.5 0,-114.5"/>
<text text-anchor="middle" x="14.5" y="-121.5" font-family="Helvetica,sans-Serif" font-size="10.00" fill="#000000">T</text>
</g>
<!-- Node7&#45;&gt;Node6 -->
<g id="edge6" class="edge">
<title>Node7&#45;&gt;Node6</title>
<path fill="none" stroke="#9a32cd" stroke-dasharray="5,2" d="M39.2019,-127.2146C60.5514,-129.993 91.8984,-134.0724 117.3771,-137.3881"/>
<polygon fill="#9a32cd" stroke="#9a32cd" points="39.4009,-123.7111 29.0328,-125.8913 38.4975,-130.6526 39.4009,-123.7111"/>
<text text-anchor="middle" x="68.5" y="-136" font-family="Helvetica,sans-Serif" font-size="10.00" fill="#000000"> elements</text>
</g>
<!-- Node9 -->
<g id="node9" class="node">
<title>Node9</title>
<g id="a_node9"><a xlink:title="STL class. ">
<polygon fill="#ffffff" stroke="#bfbfbf" points="108,-95.5 108,-114.5 213,-114.5 213,-95.5 108,-95.5"/>
<text text-anchor="middle" x="160.5" y="-102.5" font-family="Helvetica,sans-Serif" font-size="10.00" fill="#000000">std::unique_ptr&lt; T &gt;</text>
</a>
</g>
</g>
<!-- Node7&#45;&gt;Node9 -->
<g id="edge9" class="edge">
<title>Node7&#45;&gt;Node9</title>
<path fill="none" stroke="#9a32cd" stroke-dasharray="5,2" d="M38.7669,-115.0392C41.5169,-114.2477 44.3008,-113.5426 47,-113 66.6569,-109.0488 88.5687,-106.9732 107.8572,-105.907"/>
<polygon fill="#9a32cd" stroke="#9a32cd" points="37.6021,-111.7373 29.1662,-118.1472 39.7581,-118.3971 37.6021,-111.7373"/>
<text text-anchor="middle" x="68.5" y="-116" font-family="Helvetica,sans-Serif" font-size="10.00" fill="#000000"> ptr</text>
</g>
<!-- Node8 -->
<g id="node8" class="node">
<title>Node8</title>
<polygon fill="#ffffff" stroke="#bfbfbf" points="410,-90 410,-120 539,-120 539,-90 410,-90"/>
<text text-anchor="start" x="418" y="-108" font-family="Helvetica,sans-Serif" font-size="10.00" fill="#000000">std::unique_ptr&lt; rapidjson</text>
<text text-anchor="middle" x="474.5" y="-97" font-family="Helvetica,sans-Serif" font-size="10.00" fill="#000000">::SchemaValidator &gt;</text>
</g>
<!-- Node8&#45;&gt;Node2 -->
<g id="edge7" class="edge">
<title>Node8&#45;&gt;Node2</title>
<path fill="none" stroke="#9a32cd" stroke-dasharray="5,2" d="M549.2928,-100.3545C593.2079,-97.6268 646.6551,-94.3071 680.9927,-92.1744"/>
<polygon fill="#9a32cd" stroke="#9a32cd" points="548.9813,-96.867 539.2176,-100.9803 549.4153,-103.8535 548.9813,-96.867"/>
<text text-anchor="middle" x="615" y="-101" font-family="Helvetica,sans-Serif" font-size="10.00" fill="#000000"> pSchemaValidator</text>
</g>
<!-- Node9&#45;&gt;Node8 -->
<g id="edge8" class="edge">
<title>Node9&#45;&gt;Node8</title>
<path fill="none" stroke="#ffa500" stroke-dasharray="5,2" d="M223.208,-105C277.3057,-105 355.1286,-105 409.7989,-105"/>
<polygon fill="#ffa500" stroke="#ffa500" points="223.0566,-101.5001 213.0565,-105 223.0565,-108.5001 223.0566,-101.5001"/>
<text text-anchor="middle" x="305" y="-108" font-family="Helvetica,sans-Serif" font-size="10.00" fill="#000000"> &lt; rapidjson::SchemaValidator &gt;</text>
</g>
<!-- Node10 -->
<g id="node10" class="node">
<title>Node10</title>
<polygon fill="#ffffff" stroke="#bfbfbf" points="410,-41 410,-71 539,-71 539,-41 410,-41"/>
<text text-anchor="start" x="418" y="-59" font-family="Helvetica,sans-Serif" font-size="10.00" fill="#000000">std::unique_ptr&lt; rapidjson</text>
<text text-anchor="middle" x="474.5" y="-48" font-family="Helvetica,sans-Serif" font-size="10.00" fill="#000000">::SchemaDocument &gt;</text>
</g>
<!-- Node9&#45;&gt;Node10 -->
<g id="edge11" class="edge">
<title>Node9&#45;&gt;Node10</title>
<path fill="none" stroke="#ffa500" stroke-dasharray="5,2" d="M213.0057,-93.4004C219.0614,-92.1898 225.1576,-91.0281 231,-90 291.4304,-79.3661 360.7722,-69.9541 409.9634,-63.7446"/>
<polygon fill="#ffa500" stroke="#ffa500" points="211.9993,-90.0338 202.9048,-95.4689 213.4037,-96.8914 211.9993,-90.0338"/>
<text text-anchor="middle" x="305" y="-93" font-family="Helvetica,sans-Serif" font-size="10.00" fill="#000000"> &lt; rapidjson::SchemaDocument &gt;</text>
</g>
<!-- Node10&#45;&gt;Node2 -->
<g id="edge10" class="edge">
<title>Node10&#45;&gt;Node2</title>
<path fill="none" stroke="#9a32cd" stroke-dasharray="5,2" d="M549.386,-63.2771C583.2684,-66.9814 623.7586,-71.9813 660,-78 666.7679,-79.124 673.9558,-80.5138 680.8455,-81.9445"/>
<polygon fill="#9a32cd" stroke="#9a32cd" points="549.4121,-59.7598 539.0949,-62.1694 548.6629,-66.7196 549.4121,-59.7598"/>
<text text-anchor="middle" x="615" y="-81" font-family="Helvetica,sans-Serif" font-size="10.00" fill="#000000"> pSchemaDocument</text>
</g>
<!-- Node11 -->
<g id="node11" class="node">
<title>Node11</title>
<g id="a_node11"><a xlink:title="STL class. ">
<polygon fill="#ffffff" stroke="#bfbfbf" points="443,-.5 443,-19.5 506,-19.5 506,-.5 443,-.5"/>
<text text-anchor="middle" x="474.5" y="-7.5" font-family="Helvetica,sans-Serif" font-size="10.00" fill="#000000">std::thread</text>
</a>
</g>
</g>
<!-- Node11&#45;&gt;Node1 -->
<g id="edge13" class="edge">
<title>Node11&#45;&gt;Node1</title>
<path fill="none" stroke="#9a32cd" stroke-dasharray="5,2" d="M516.0809,-12.217C553.6767,-14.2273 610.5482,-17.2829 660,-20 709.469,-22.718 765.9392,-25.886 805.6092,-28.1223"/>
<polygon fill="#9a32cd" stroke="#9a32cd" points="516.1828,-8.7175 506.0103,-11.6788 515.8092,-15.7075 516.1828,-8.7175"/>
<text text-anchor="middle" x="716" y="-29" font-family="Helvetica,sans-Serif" font-size="10.00" fill="#000000"> processorThread</text>
</g>
<!-- Node11&#45;&gt;Node2 -->
<g id="edge12" class="edge">
<title>Node11&#45;&gt;Node2</title>
<path fill="none" stroke="#9a32cd" stroke-dasharray="5,2" d="M516.5223,-14.5369C555.0987,-19.7913 613.1946,-30.4939 660,-51 676.9288,-58.4168 694.0206,-71.2765 704.7904,-80.1915"/>
<polygon fill="#9a32cd" stroke="#9a32cd" points="516.5523,-11.0115 506.185,-13.1957 515.6516,-17.9533 516.5523,-11.0115"/>
<text text-anchor="middle" x="615" y="-54" font-family="Helvetica,sans-Serif" font-size="10.00" fill="#000000"> apiThread</text>
</g>
</g>
</svg>
