<?xml version="1.0" encoding="UTF-8" standalone="no"?>
<!DOCTYPE svg PUBLIC "-//W3C//DTD SVG 1.1//EN"
 "http://www.w3.org/Graphics/SVG/1.1/DTD/svg11.dtd">
<!-- Generated by graphviz version 2.40.1 (20161225.0304)
 -->
<!-- Title: src/deviceMonitor/middleware Pages: 1 -->
<svg width="162pt" height="151pt"
 viewBox="0.00 0.00 162.00 151.00" xmlns="http://www.w3.org/2000/svg" xmlns:xlink="http://www.w3.org/1999/xlink">
<g id="graph0" class="graph" transform="scale(1 1) rotate(0) translate(4 147)">
<title>src/deviceMonitor/middleware</title>
<polygon fill="#ffffff" stroke="transparent" points="-4,4 -4,-147 158,-147 158,4 -4,4"/>
<g id="clust1" class="cluster">
<title>clusterdir_996c030acc57259aaa9f767d04c3ce1d</title>
<g id="a_clust1"><a xlink:href="dir_996c030acc57259aaa9f767d04c3ce1d.html" target="_top" xlink:title="deviceMonitor">
<polygon fill="#ddddee" stroke="#000000" points="8,-64 8,-135 90,-135 90,-64 8,-64"/>
<text text-anchor="middle" x="49" y="-123" font-family="Helvetica,sans-Serif" font-size="10.00" fill="#000000">deviceMonitor</text>
</a>
</g>
</g>
<!-- dir_2edc76574d9c7eeb7a6f4c171dba9a67 -->
<g id="node1" class="node">
<title>dir_2edc76574d9c7eeb7a6f4c171dba9a67</title>
<g id="a_node1"><a xlink:href="dir_2edc76574d9c7eeb7a6f4c171dba9a67.html" target="_top" xlink:title="middleware">
<polygon fill="#eeeeff" stroke="#000000" points="82,-108 16,-108 16,-72 82,-72 82,-108"/>
<text text-anchor="middle" x="49" y="-87.5" font-family="Helvetica,sans-Serif" font-size="10.00" fill="#000000">middleware</text>
</a>
</g>
</g>
<!-- dir_7b8483bbab21622dc7ccd6728ba38ea1 -->
<g id="node2" class="node">
<title>dir_7b8483bbab21622dc7ccd6728ba38ea1</title>
<g id="a_node2"><a xlink:href="dir_7b8483bbab21622dc7ccd6728ba38ea1.html" target="_top" xlink:title="apis">
<polygon fill="none" stroke="#000000" points="154,-108 100,-108 100,-72 154,-72 154,-108"/>
<text text-anchor="middle" x="127" y="-87.5" font-family="Helvetica,sans-Serif" font-size="10.00" fill="#000000">apis</text>
</a>
</g>
</g>
<!-- dir_2edc76574d9c7eeb7a6f4c171dba9a67&#45;&gt;dir_7b8483bbab21622dc7ccd6728ba38ea1 -->
<g id="edge1" class="edge">
<title>dir_2edc76574d9c7eeb7a6f4c171dba9a67&#45;&gt;dir_7b8483bbab21622dc7ccd6728ba38ea1</title>
<path fill="none" stroke="#000000" d="M82.2109,-90C84.6713,-90 87.1316,-90 89.5919,-90"/>
<polygon fill="#000000" stroke="#000000" points="89.7067,-93.5001 99.7067,-90 89.7066,-86.5001 89.7067,-93.5001"/>
<g id="a_edge1&#45;headlabel"><a xlink:href="dir_000003_000002.html" target="_top" xlink:title="1">
<text text-anchor="middle" x="86.112" y="-93.8393" font-family="Helvetica,sans-Serif" font-size="10.00" fill="#000000">1</text>
</a>
</g>
</g>
<!-- dir_cc0e5e499638d02e7245d231465f7c44 -->
<g id="node3" class="node">
<title>dir_cc0e5e499638d02e7245d231465f7c44</title>
<g id="a_node3"><a xlink:href="dir_cc0e5e499638d02e7245d231465f7c44.html" target="_top" xlink:title="storage">
<polygon fill="none" stroke="#000000" points="154,-36 100,-36 100,0 154,0 154,-36"/>
<text text-anchor="middle" x="127" y="-15.5" font-family="Helvetica,sans-Serif" font-size="10.00" fill="#000000">storage</text>
</a>
</g>
</g>
<!-- dir_2edc76574d9c7eeb7a6f4c171dba9a67&#45;&gt;dir_cc0e5e499638d02e7245d231465f7c44 -->
<g id="edge2" class="edge">
<title>dir_2edc76574d9c7eeb7a6f4c171dba9a67&#45;&gt;dir_cc0e5e499638d02e7245d231465f7c44</title>
<path fill="none" stroke="#000000" d="M68.6827,-71.8314C78.1051,-63.1337 89.5401,-52.5783 99.7796,-43.1265"/>
<polygon fill="#000000" stroke="#000000" points="102.3495,-45.5175 107.3236,-36.1628 97.6016,-40.3738 102.3495,-45.5175"/>
<g id="a_edge2&#45;headlabel"><a xlink:href="dir_000003_000004.html" target="_top" xlink:title="1">
<text text-anchor="middle" x="101.634" y="-47.5419" font-family="Helvetica,sans-Serif" font-size="10.00" fill="#000000">1</text>
</a>
</g>
</g>
<!-- dir_7b8483bbab21622dc7ccd6728ba38ea1&#45;&gt;dir_2edc76574d9c7eeb7a6f4c171dba9a67 -->
<g id="edge3" class="edge">
<title>dir_7b8483bbab21622dc7ccd6728ba38ea1&#45;&gt;dir_2edc76574d9c7eeb7a6f4c171dba9a67</title>
<path fill="none" stroke="#000000" d="M99.7067,-90C97.2463,-90 94.786,-90 92.3257,-90"/>
<polygon fill="#000000" stroke="#000000" points="92.211,-86.5001 82.2109,-90 92.2109,-93.5001 92.211,-86.5001"/>
<g id="a_edge3&#45;headlabel"><a xlink:href="dir_000002_000003.html" target="_top" xlink:title="1">
<text text-anchor="middle" x="95.8056" y="-81.1607" font-family="Helvetica,sans-Serif" font-size="10.00" fill="#000000">1</text>
</a>
</g>
</g>
<!-- dir_7b8483bbab21622dc7ccd6728ba38ea1&#45;&gt;dir_cc0e5e499638d02e7245d231465f7c44 -->
<g id="edge4" class="edge">
<title>dir_7b8483bbab21622dc7ccd6728ba38ea1&#45;&gt;dir_cc0e5e499638d02e7245d231465f7c44</title>
<path fill="none" stroke="#000000" d="M121.0476,-71.8314C120.2972,-64.131 120.0763,-54.9743 120.3849,-46.4166"/>
<polygon fill="#000000" stroke="#000000" points="123.8792,-46.6161 121.024,-36.4133 116.8935,-46.1697 123.8792,-46.6161"/>
<g id="a_edge4&#45;headlabel"><a xlink:href="dir_000002_000004.html" target="_top" xlink:title="1">
<text text-anchor="middle" x="126.4836" y="-47.8844" font-family="Helvetica,sans-Serif" font-size="10.00" fill="#000000">1</text>
</a>
</g>
</g>
<!-- dir_cc0e5e499638d02e7245d231465f7c44&#45;&gt;dir_7b8483bbab21622dc7ccd6728ba38ea1 -->
<g id="edge5" class="edge">
<title>dir_cc0e5e499638d02e7245d231465f7c44&#45;&gt;dir_7b8483bbab21622dc7ccd6728ba38ea1</title>
<path fill="none" stroke="#000000" d="M132.976,-36.4133C133.7071,-44.0593 133.9203,-53.1084 133.6155,-61.5726"/>
<polygon fill="#000000" stroke="#000000" points="130.1048,-61.6264 132.9524,-71.8314 137.0902,-62.078 130.1048,-61.6264"/>
<g id="a_edge5&#45;headlabel"><a xlink:href="dir_000004_000002.html" target="_top" xlink:title="1">
<text text-anchor="middle" x="127.5032" y="-55.3562" font-family="Helvetica,sans-Serif" font-size="10.00" fill="#000000">1</text>
</a>
</g>
</g>
</g>
</svg>
