<?xml version="1.0" encoding="UTF-8" standalone="no"?>
<!DOCTYPE svg PUBLIC "-//W3C//DTD SVG 1.1//EN"
 "http://www.w3.org/Graphics/SVG/1.1/DTD/svg11.dtd">
<!-- Generated by graphviz version 2.40.1 (20161225.0304)
 -->
<!-- Title: src/deviceMonitor/apis Pages: 1 -->
<svg width="156pt" height="188pt"
 viewBox="0.00 0.00 156.00 188.00" xmlns="http://www.w3.org/2000/svg" xmlns:xlink="http://www.w3.org/1999/xlink">
<g id="graph0" class="graph" transform="scale(1 1) rotate(0) translate(4 184)">
<title>src/deviceMonitor/apis</title>
<polygon fill="#ffffff" stroke="transparent" points="-4,4 -4,-184 152,-184 152,4 -4,4"/>
<g id="clust1" class="cluster">
<title>clusterdir_996c030acc57259aaa9f767d04c3ce1d</title>
<g id="a_clust1"><a xlink:href="dir_996c030acc57259aaa9f767d04c3ce1d.html" target="_top" xlink:title="deviceMonitor">
<polygon fill="#ddddee" stroke="#000000" points="8,-64 8,-135 85,-135 85,-64 8,-64"/>
<text text-anchor="middle" x="46.5" y="-123" font-family="Helvetica,sans-Serif" font-size="10.00" fill="#000000">deviceMonitor</text>
</a>
</g>
</g>
<!-- dir_7b8483bbab21622dc7ccd6728ba38ea1 -->
<g id="node1" class="node">
<title>dir_7b8483bbab21622dc7ccd6728ba38ea1</title>
<g id="a_node1"><a xlink:href="dir_7b8483bbab21622dc7ccd6728ba38ea1.html" target="_top" xlink:title="apis">
<polygon fill="#eeeeff" stroke="#000000" points="76,-108 22,-108 22,-72 76,-72 76,-108"/>
<text text-anchor="middle" x="49" y="-87.5" font-family="Helvetica,sans-Serif" font-size="10.00" fill="#000000">apis</text>
</a>
</g>
</g>
<!-- dir_2edc76574d9c7eeb7a6f4c171dba9a67 -->
<g id="node2" class="node">
<title>dir_2edc76574d9c7eeb7a6f4c171dba9a67</title>
<g id="a_node2"><a xlink:href="dir_2edc76574d9c7eeb7a6f4c171dba9a67.html" target="_top" xlink:title="middleware">
<polygon fill="none" stroke="#000000" points="118,-180 52,-180 52,-144 118,-144 118,-180"/>
<text text-anchor="middle" x="85" y="-159.5" font-family="Helvetica,sans-Serif" font-size="10.00" fill="#000000">middleware</text>
</a>
</g>
</g>
<!-- dir_7b8483bbab21622dc7ccd6728ba38ea1&#45;&gt;dir_2edc76574d9c7eeb7a6f4c171dba9a67 -->
<g id="edge3" class="edge">
<title>dir_7b8483bbab21622dc7ccd6728ba38ea1&#45;&gt;dir_2edc76574d9c7eeb7a6f4c171dba9a67</title>
<path fill="none" stroke="#000000" d="M52.2306,-108.4133C55.4943,-116.484 60.1167,-126.1182 64.9289,-134.9775"/>
<polygon fill="#000000" stroke="#000000" points="61.9778,-136.8684 69.9633,-143.8314 68.0628,-133.4084 61.9778,-136.8684"/>
<g id="a_edge3&#45;headlabel"><a xlink:href="dir_000002_000003.html" target="_top" xlink:title="1">
<text text-anchor="middle" x="57.7329" y="-132.6471" font-family="Helvetica,sans-Serif" font-size="10.00" fill="#000000">1</text>
</a>
</g>
</g>
<!-- dir_b49b37929e4669f6dd5144c716b3914e -->
<g id="node3" class="node">
<title>dir_b49b37929e4669f6dd5144c716b3914e</title>
<g id="a_node3"><a xlink:href="dir_b49b37929e4669f6dd5144c716b3914e.html" target="_top" xlink:title="liblogger">
<polygon fill="none" stroke="#000000" points="112,-36 58,-36 58,0 112,0 112,-36"/>
<text text-anchor="middle" x="85" y="-15.5" font-family="Helvetica,sans-Serif" font-size="10.00" fill="#000000">liblogger</text>
</a>
</g>
</g>
<!-- dir_7b8483bbab21622dc7ccd6728ba38ea1&#45;&gt;dir_b49b37929e4669f6dd5144c716b3914e -->
<g id="edge4" class="edge">
<title>dir_7b8483bbab21622dc7ccd6728ba38ea1&#45;&gt;dir_b49b37929e4669f6dd5144c716b3914e</title>
<path fill="none" stroke="#000000" d="M58.0843,-71.8314C62.0615,-63.8771 66.8155,-54.369 71.2139,-45.5723"/>
<polygon fill="#000000" stroke="#000000" points="74.4517,-46.9228 75.7934,-36.4133 68.1907,-43.7923 74.4517,-46.9228"/>
<g id="a_edge4&#45;headlabel"><a xlink:href="dir_000002_000007.html" target="_top" xlink:title="2">
<text text-anchor="middle" x="75.3837" y="-48.9077" font-family="Helvetica,sans-Serif" font-size="10.00" fill="#000000">2</text>
</a>
</g>
</g>
<!-- dir_cc0e5e499638d02e7245d231465f7c44 -->
<g id="node4" class="node">
<title>dir_cc0e5e499638d02e7245d231465f7c44</title>
<g id="a_node4"><a xlink:href="dir_cc0e5e499638d02e7245d231465f7c44.html" target="_top" xlink:title="storage">
<polygon fill="none" stroke="#000000" points="148,-108 94,-108 94,-72 148,-72 148,-108"/>
<text text-anchor="middle" x="121" y="-87.5" font-family="Helvetica,sans-Serif" font-size="10.00" fill="#000000">storage</text>
</a>
</g>
</g>
<!-- dir_7b8483bbab21622dc7ccd6728ba38ea1&#45;&gt;dir_cc0e5e499638d02e7245d231465f7c44 -->
<g id="edge5" class="edge">
<title>dir_7b8483bbab21622dc7ccd6728ba38ea1&#45;&gt;dir_cc0e5e499638d02e7245d231465f7c44</title>
<path fill="none" stroke="#000000" d="M76.2813,-90C78.7377,-90 81.1942,-90 83.6507,-90"/>
<polygon fill="#000000" stroke="#000000" points="83.7495,-93.5001 93.7495,-90 83.7495,-86.5001 83.7495,-93.5001"/>
<g id="a_edge5&#45;headlabel"><a xlink:href="dir_000002_000004.html" target="_top" xlink:title="1">
<text text-anchor="middle" x="80.1549" y="-93.8393" font-family="Helvetica,sans-Serif" font-size="10.00" fill="#000000">1</text>
</a>
</g>
</g>
<!-- dir_2edc76574d9c7eeb7a6f4c171dba9a67&#45;&gt;dir_7b8483bbab21622dc7ccd6728ba38ea1 -->
<g id="edge1" class="edge">
<title>dir_2edc76574d9c7eeb7a6f4c171dba9a67&#45;&gt;dir_7b8483bbab21622dc7ccd6728ba38ea1</title>
<path fill="none" stroke="#000000" d="M81.8681,-143.8314C78.632,-135.7925 74.0254,-126.1666 69.2172,-117.2918"/>
<polygon fill="#000000" stroke="#000000" points="72.1599,-115.3856 64.1826,-108.4133 66.0708,-118.8385 72.1599,-115.3856"/>
<g id="a_edge1&#45;headlabel"><a xlink:href="dir_000003_000002.html" target="_top" xlink:title="1">
<text text-anchor="middle" x="76.4028" y="-114.612" font-family="Helvetica,sans-Serif" font-size="10.00" fill="#000000">1</text>
</a>
</g>
</g>
<!-- dir_2edc76574d9c7eeb7a6f4c171dba9a67&#45;&gt;dir_cc0e5e499638d02e7245d231465f7c44 -->
<g id="edge2" class="edge">
<title>dir_2edc76574d9c7eeb7a6f4c171dba9a67&#45;&gt;dir_cc0e5e499638d02e7245d231465f7c44</title>
<path fill="none" stroke="#000000" d="M94.0843,-143.8314C98.0615,-135.8771 102.8155,-126.369 107.2139,-117.5723"/>
<polygon fill="#000000" stroke="#000000" points="110.4517,-118.9228 111.7934,-108.4133 104.1907,-115.7923 110.4517,-118.9228"/>
<g id="a_edge2&#45;headlabel"><a xlink:href="dir_000003_000004.html" target="_top" xlink:title="1">
<text text-anchor="middle" x="111.3837" y="-120.9077" font-family="Helvetica,sans-Serif" font-size="10.00" fill="#000000">1</text>
</a>
</g>
</g>
<!-- dir_cc0e5e499638d02e7245d231465f7c44&#45;&gt;dir_7b8483bbab21622dc7ccd6728ba38ea1 -->
<g id="edge6" class="edge">
<title>dir_cc0e5e499638d02e7245d231465f7c44&#45;&gt;dir_7b8483bbab21622dc7ccd6728ba38ea1</title>
<path fill="none" stroke="#000000" d="M93.7495,-90C91.293,-90 88.8366,-90 86.3801,-90"/>
<polygon fill="#000000" stroke="#000000" points="86.2813,-86.5001 76.2813,-90 86.2812,-93.5001 86.2813,-86.5001"/>
<g id="a_edge6&#45;headlabel"><a xlink:href="dir_000004_000002.html" target="_top" xlink:title="1">
<text text-anchor="middle" x="89.8759" y="-81.1607" font-family="Helvetica,sans-Serif" font-size="10.00" fill="#000000">1</text>
</a>
</g>
</g>
<!-- dir_cc0e5e499638d02e7245d231465f7c44&#45;&gt;dir_b49b37929e4669f6dd5144c716b3914e -->
<g id="edge7" class="edge">
<title>dir_cc0e5e499638d02e7245d231465f7c44&#45;&gt;dir_b49b37929e4669f6dd5144c716b3914e</title>
<path fill="none" stroke="#000000" d="M111.9157,-71.8314C107.9385,-63.8771 103.1845,-54.369 98.7861,-45.5723"/>
<polygon fill="#000000" stroke="#000000" points="101.8093,-43.7923 94.2066,-36.4133 95.5483,-46.9228 101.8093,-43.7923"/>
<g id="a_edge7&#45;headlabel"><a xlink:href="dir_000004_000007.html" target="_top" xlink:title="1">
<text text-anchor="middle" x="105.9563" y="-43.2377" font-family="Helvetica,sans-Serif" font-size="10.00" fill="#000000">1</text>
</a>
</g>
</g>
</g>
</svg>
