<?xml version="1.0" encoding="UTF-8" standalone="no"?>
<!DOCTYPE svg PUBLIC "-//W3C//DTD SVG 1.1//EN"
 "http://www.w3.org/Graphics/SVG/1.1/DTD/svg11.dtd">
<!-- Generated by graphviz version 2.40.1 (20161225.0304)
 -->
<!-- Title: src Pages: 1 -->
<svg width="294pt" height="148pt"
 viewBox="0.00 0.00 294.00 148.00" xmlns="http://www.w3.org/2000/svg" xmlns:xlink="http://www.w3.org/1999/xlink">
<g id="graph0" class="graph" transform="scale(1 1) rotate(0) translate(4 144)">
<title>src</title>
<polygon fill="#ffffff" stroke="transparent" points="-4,4 -4,-144 290,-144 290,4 -4,4"/>
<g id="clust1" class="cluster">
<title>clusterdir_68267d1309a1af8e8297ef4c3efbcdba</title>
<g id="a_clust1"><a xlink:href="dir_68267d1309a1af8e8297ef4c3efbcdba.html" target="_top">
<polygon fill="#eeeeff" stroke="#000000" points="8,-8 8,-132 278,-132 278,-8 8,-8"/>
</a>
</g>
</g>
<!-- dir_68267d1309a1af8e8297ef4c3efbcdba -->
<g id="node1" class="node">
<title>dir_68267d1309a1af8e8297ef4c3efbcdba</title>
<text text-anchor="middle" x="243" y="-103.5" font-family="Helvetica,sans-Serif" font-size="10.00" fill="#000000">src</text>
</g>
<!-- dir_996c030acc57259aaa9f767d04c3ce1d -->
<g id="node2" class="node">
<title>dir_996c030acc57259aaa9f767d04c3ce1d</title>
<g id="a_node2"><a xlink:href="dir_996c030acc57259aaa9f767d04c3ce1d.html" target="_top" xlink:title="deviceMonitor">
<polygon fill="#ffffff" stroke="#ff0000" points="197.5,-124 120.5,-124 120.5,-88 197.5,-88 197.5,-124"/>
<text text-anchor="middle" x="159" y="-103.5" font-family="Helvetica,sans-Serif" font-size="10.00" fill="#000000">deviceMonitor</text>
</a>
</g>
</g>
<!-- dir_a78cd663aa6ae8168028bb2649741dbb -->
<g id="node4" class="node">
<title>dir_a78cd663aa6ae8168028bb2649741dbb</title>
<g id="a_node4"><a xlink:href="dir_a78cd663aa6ae8168028bb2649741dbb.html" target="_top" xlink:title="libfnv">
<polygon fill="#ffffff" stroke="#000000" points="96,-52 42,-52 42,-16 96,-16 96,-52"/>
<text text-anchor="middle" x="69" y="-31.5" font-family="Helvetica,sans-Serif" font-size="10.00" fill="#000000">libfnv</text>
</a>
</g>
</g>
<!-- dir_996c030acc57259aaa9f767d04c3ce1d&#45;&gt;dir_a78cd663aa6ae8168028bb2649741dbb -->
<g id="edge2" class="edge">
<title>dir_996c030acc57259aaa9f767d04c3ce1d&#45;&gt;dir_a78cd663aa6ae8168028bb2649741dbb</title>
<path fill="none" stroke="#000000" d="M136.2892,-87.8314C125.204,-78.9632 111.7046,-68.1637 99.7148,-58.5718"/>
<polygon fill="#000000" stroke="#000000" points="101.6987,-55.6768 91.7035,-52.1628 97.3258,-61.1429 101.6987,-55.6768"/>
<g id="a_edge2&#45;headlabel"><a xlink:href="dir_000001_000006.html" target="_top" xlink:title="1">
<text text-anchor="middle" x="106.2793" y="-53.2052" font-family="Helvetica,sans-Serif" font-size="10.00" fill="#000000">1</text>
</a>
</g>
</g>
<!-- dir_b49b37929e4669f6dd5144c716b3914e -->
<g id="node5" class="node">
<title>dir_b49b37929e4669f6dd5144c716b3914e</title>
<g id="a_node5"><a xlink:href="dir_b49b37929e4669f6dd5144c716b3914e.html" target="_top" xlink:title="liblogger">
<polygon fill="#ffffff" stroke="#000000" points="168,-52 114,-52 114,-16 168,-16 168,-52"/>
<text text-anchor="middle" x="141" y="-31.5" font-family="Helvetica,sans-Serif" font-size="10.00" fill="#000000">liblogger</text>
</a>
</g>
</g>
<!-- dir_996c030acc57259aaa9f767d04c3ce1d&#45;&gt;dir_b49b37929e4669f6dd5144c716b3914e -->
<g id="edge3" class="edge">
<title>dir_996c030acc57259aaa9f767d04c3ce1d&#45;&gt;dir_b49b37929e4669f6dd5144c716b3914e</title>
<path fill="none" stroke="#000000" d="M154.4578,-87.8314C152.5116,-80.0463 150.1932,-70.7729 148.0337,-62.1347"/>
<polygon fill="#000000" stroke="#000000" points="151.4242,-61.2658 145.6033,-52.4133 144.6332,-62.9636 151.4242,-61.2658"/>
<g id="a_edge3&#45;headlabel"><a xlink:href="dir_000001_000007.html" target="_top" xlink:title="5">
<text text-anchor="middle" x="155.0505" y="-61.5645" font-family="Helvetica,sans-Serif" font-size="10.00" fill="#000000">5</text>
</a>
</g>
</g>
<!-- dir_f0aadf2957bf50aa683956e89ab3510f -->
<g id="node6" class="node">
<title>dir_f0aadf2957bf50aa683956e89ab3510f</title>
<g id="a_node6"><a xlink:href="dir_f0aadf2957bf50aa683956e89ab3510f.html" target="_top" xlink:title="libsignalhandler">
<polygon fill="#ffffff" stroke="#000000" points="269.5,-52 186.5,-52 186.5,-16 269.5,-16 269.5,-52"/>
<text text-anchor="middle" x="228" y="-31.5" font-family="Helvetica,sans-Serif" font-size="10.00" fill="#000000">libsignalhandler</text>
</a>
</g>
</g>
<!-- dir_996c030acc57259aaa9f767d04c3ce1d&#45;&gt;dir_f0aadf2957bf50aa683956e89ab3510f -->
<g id="edge1" class="edge">
<title>dir_996c030acc57259aaa9f767d04c3ce1d&#45;&gt;dir_f0aadf2957bf50aa683956e89ab3510f</title>
<path fill="none" stroke="#000000" d="M176.4116,-87.8314C184.521,-79.3694 194.3156,-69.1489 203.182,-59.8971"/>
<polygon fill="#000000" stroke="#000000" points="205.9618,-62.0549 210.354,-52.4133 200.9079,-57.2115 205.9618,-62.0549"/>
<g id="a_edge1&#45;headlabel"><a xlink:href="dir_000001_000008.html" target="_top" xlink:title="1">
<text text-anchor="middle" x="205.5246" y="-64.1146" font-family="Helvetica,sans-Serif" font-size="10.00" fill="#000000">1</text>
</a>
</g>
</g>
<!-- dir_e3943c2b84f7515e36e2611b330dbf96 -->
<g id="node3" class="node">
<title>dir_e3943c2b84f7515e36e2611b330dbf96</title>
<g id="a_node3"><a xlink:href="dir_e3943c2b84f7515e36e2611b330dbf96.html" target="_top" xlink:title="deviceSimulator">
<polygon fill="#ffffff" stroke="#000000" points="102,-124 16,-124 16,-88 102,-88 102,-124"/>
<text text-anchor="middle" x="59" y="-103.5" font-family="Helvetica,sans-Serif" font-size="10.00" fill="#000000">deviceSimulator</text>
</a>
</g>
</g>
</g>
</svg>
