<?xml version="1.0" encoding="UTF-8" standalone="no"?>
<!DOCTYPE svg PUBLIC "-//W3C//DTD SVG 1.1//EN"
 "http://www.w3.org/Graphics/SVG/1.1/DTD/svg11.dtd">
<!-- Generated by graphviz version 2.40.1 (20161225.0304)
 -->
<!-- Title: src/deviceMonitor/storage Pages: 1 -->
<svg width="156pt" height="151pt"
 viewBox="0.00 0.00 156.00 151.00" xmlns="http://www.w3.org/2000/svg" xmlns:xlink="http://www.w3.org/1999/xlink">
<g id="graph0" class="graph" transform="scale(1 1) rotate(0) translate(4 147)">
<title>src/deviceMonitor/storage</title>
<polygon fill="#ffffff" stroke="transparent" points="-4,4 -4,-147 152,-147 152,4 -4,4"/>
<g id="clust1" class="cluster">
<title>clusterdir_996c030acc57259aaa9f767d04c3ce1d</title>
<g id="a_clust1"><a xlink:href="dir_996c030acc57259aaa9f767d04c3ce1d.html" target="_top" xlink:title="deviceMonitor">
<polygon fill="#ddddee" stroke="#000000" points="8,-64 8,-135 85,-135 85,-64 8,-64"/>
<text text-anchor="middle" x="46.5" y="-123" font-family="Helvetica,sans-Serif" font-size="10.00" fill="#000000">deviceMonitor</text>
</a>
</g>
</g>
<!-- dir_cc0e5e499638d02e7245d231465f7c44 -->
<g id="node1" class="node">
<title>dir_cc0e5e499638d02e7245d231465f7c44</title>
<g id="a_node1"><a xlink:href="dir_cc0e5e499638d02e7245d231465f7c44.html" target="_top" xlink:title="storage">
<polygon fill="#eeeeff" stroke="#000000" points="76,-108 22,-108 22,-72 76,-72 76,-108"/>
<text text-anchor="middle" x="49" y="-87.5" font-family="Helvetica,sans-Serif" font-size="10.00" fill="#000000">storage</text>
</a>
</g>
</g>
<!-- dir_7b8483bbab21622dc7ccd6728ba38ea1 -->
<g id="node2" class="node">
<title>dir_7b8483bbab21622dc7ccd6728ba38ea1</title>
<g id="a_node2"><a xlink:href="dir_7b8483bbab21622dc7ccd6728ba38ea1.html" target="_top" xlink:title="apis">
<polygon fill="none" stroke="#000000" points="148,-108 94,-108 94,-72 148,-72 148,-108"/>
<text text-anchor="middle" x="121" y="-87.5" font-family="Helvetica,sans-Serif" font-size="10.00" fill="#000000">apis</text>
</a>
</g>
</g>
<!-- dir_cc0e5e499638d02e7245d231465f7c44&#45;&gt;dir_7b8483bbab21622dc7ccd6728ba38ea1 -->
<g id="edge3" class="edge">
<title>dir_cc0e5e499638d02e7245d231465f7c44&#45;&gt;dir_7b8483bbab21622dc7ccd6728ba38ea1</title>
<path fill="none" stroke="#000000" d="M76.2813,-90C78.7377,-90 81.1942,-90 83.6507,-90"/>
<polygon fill="#000000" stroke="#000000" points="83.7495,-93.5001 93.7495,-90 83.7495,-86.5001 83.7495,-93.5001"/>
<g id="a_edge3&#45;headlabel"><a xlink:href="dir_000004_000002.html" target="_top" xlink:title="1">
<text text-anchor="middle" x="80.1549" y="-93.8393" font-family="Helvetica,sans-Serif" font-size="10.00" fill="#000000">1</text>
</a>
</g>
</g>
<!-- dir_a78cd663aa6ae8168028bb2649741dbb -->
<g id="node3" class="node">
<title>dir_a78cd663aa6ae8168028bb2649741dbb</title>
<g id="a_node3"><a xlink:href="dir_a78cd663aa6ae8168028bb2649741dbb.html" target="_top" xlink:title="libfnv">
<polygon fill="none" stroke="#000000" points="76,-36 22,-36 22,0 76,0 76,-36"/>
<text text-anchor="middle" x="49" y="-15.5" font-family="Helvetica,sans-Serif" font-size="10.00" fill="#000000">libfnv</text>
</a>
</g>
</g>
<!-- dir_cc0e5e499638d02e7245d231465f7c44&#45;&gt;dir_a78cd663aa6ae8168028bb2649741dbb -->
<g id="edge4" class="edge">
<title>dir_cc0e5e499638d02e7245d231465f7c44&#45;&gt;dir_a78cd663aa6ae8168028bb2649741dbb</title>
<path fill="none" stroke="#000000" d="M49,-71.8314C49,-64.131 49,-54.9743 49,-46.4166"/>
<polygon fill="#000000" stroke="#000000" points="52.5001,-46.4132 49,-36.4133 45.5001,-46.4133 52.5001,-46.4132"/>
<g id="a_edge4&#45;headlabel"><a xlink:href="dir_000004_000006.html" target="_top" xlink:title="1">
<text text-anchor="middle" x="55.3393" y="-47.5079" font-family="Helvetica,sans-Serif" font-size="10.00" fill="#000000">1</text>
</a>
</g>
</g>
<!-- dir_b49b37929e4669f6dd5144c716b3914e -->
<g id="node4" class="node">
<title>dir_b49b37929e4669f6dd5144c716b3914e</title>
<g id="a_node4"><a xlink:href="dir_b49b37929e4669f6dd5144c716b3914e.html" target="_top" xlink:title="liblogger">
<polygon fill="none" stroke="#000000" points="148,-36 94,-36 94,0 148,0 148,-36"/>
<text text-anchor="middle" x="121" y="-15.5" font-family="Helvetica,sans-Serif" font-size="10.00" fill="#000000">liblogger</text>
</a>
</g>
</g>
<!-- dir_cc0e5e499638d02e7245d231465f7c44&#45;&gt;dir_b49b37929e4669f6dd5144c716b3914e -->
<g id="edge5" class="edge">
<title>dir_cc0e5e499638d02e7245d231465f7c44&#45;&gt;dir_b49b37929e4669f6dd5144c716b3914e</title>
<path fill="none" stroke="#000000" d="M67.1686,-71.8314C75.7152,-63.2848 86.0557,-52.9443 95.3802,-43.6198"/>
<polygon fill="#000000" stroke="#000000" points="97.9905,-45.9592 102.5867,-36.4133 93.0408,-41.0095 97.9905,-45.9592"/>
<g id="a_edge5&#45;headlabel"><a xlink:href="dir_000004_000007.html" target="_top" xlink:title="1">
<text text-anchor="middle" x="97.4564" y="-48.0087" font-family="Helvetica,sans-Serif" font-size="10.00" fill="#000000">1</text>
</a>
</g>
</g>
<!-- dir_7b8483bbab21622dc7ccd6728ba38ea1&#45;&gt;dir_cc0e5e499638d02e7245d231465f7c44 -->
<g id="edge2" class="edge">
<title>dir_7b8483bbab21622dc7ccd6728ba38ea1&#45;&gt;dir_cc0e5e499638d02e7245d231465f7c44</title>
<path fill="none" stroke="#000000" d="M93.7495,-90C91.293,-90 88.8366,-90 86.3801,-90"/>
<polygon fill="#000000" stroke="#000000" points="86.2813,-86.5001 76.2813,-90 86.2812,-93.5001 86.2813,-86.5001"/>
<g id="a_edge2&#45;headlabel"><a xlink:href="dir_000002_000004.html" target="_top" xlink:title="1">
<text text-anchor="middle" x="89.8759" y="-81.1607" font-family="Helvetica,sans-Serif" font-size="10.00" fill="#000000">1</text>
</a>
</g>
</g>
<!-- dir_7b8483bbab21622dc7ccd6728ba38ea1&#45;&gt;dir_b49b37929e4669f6dd5144c716b3914e -->
<g id="edge1" class="edge">
<title>dir_7b8483bbab21622dc7ccd6728ba38ea1&#45;&gt;dir_b49b37929e4669f6dd5144c716b3914e</title>
<path fill="none" stroke="#000000" d="M121,-71.8314C121,-64.131 121,-54.9743 121,-46.4166"/>
<polygon fill="#000000" stroke="#000000" points="124.5001,-46.4132 121,-36.4133 117.5001,-46.4133 124.5001,-46.4132"/>
<g id="a_edge1&#45;headlabel"><a xlink:href="dir_000002_000007.html" target="_top" xlink:title="2">
<text text-anchor="middle" x="127.3393" y="-47.5079" font-family="Helvetica,sans-Serif" font-size="10.00" fill="#000000">2</text>
</a>
</g>
</g>
</g>
</svg>
