<?xml version="1.0" encoding="UTF-8" standalone="no"?>
<!DOCTYPE svg PUBLIC "-//W3C//DTD SVG 1.1//EN"
 "http://www.w3.org/Graphics/SVG/1.1/DTD/svg11.dtd">
<!-- Generated by graphviz version 2.40.1 (20161225.0304)
 -->
<!-- Title: src/deviceMonitor Pages: 1 -->
<svg width="226pt" height="375pt"
 viewBox="0.00 0.00 225.50 375.00" xmlns="http://www.w3.org/2000/svg" xmlns:xlink="http://www.w3.org/1999/xlink">
<g id="graph0" class="graph" transform="scale(1 1) rotate(0) translate(4 371)">
<title>src/deviceMonitor</title>
<polygon fill="#ffffff" stroke="transparent" points="-4,4 -4,-371 221.5,-371 221.5,4 -4,4"/>
<g id="clust1" class="cluster">
<title>clusterdir_68267d1309a1af8e8297ef4c3efbcdba</title>
<g id="a_clust1"><a xlink:href="dir_68267d1309a1af8e8297ef4c3efbcdba.html" target="_top" xlink:title="src">
<polygon fill="#ddddee" stroke="#000000" points="8,-56 8,-359 126,-359 126,-56 8,-56"/>
<text text-anchor="middle" x="67" y="-347" font-family="Helvetica,sans-Serif" font-size="10.00" fill="#000000">src</text>
</a>
</g>
</g>
<g id="clust2" class="cluster">
<title>clusterdir_996c030acc57259aaa9f767d04c3ce1d</title>
<g id="a_clust2"><a xlink:href="dir_996c030acc57259aaa9f767d04c3ce1d.html" target="_top">
<polygon fill="#eeeeff" stroke="#000000" points="16,-64 16,-332 118,-332 118,-64 16,-64"/>
</a>
</g>
</g>
<!-- dir_996c030acc57259aaa9f767d04c3ce1d -->
<g id="node1" class="node">
<title>dir_996c030acc57259aaa9f767d04c3ce1d</title>
<text text-anchor="middle" x="71" y="-303.5" font-family="Helvetica,sans-Serif" font-size="10.00" fill="#000000">deviceMonitor</text>
</g>
<!-- dir_7b8483bbab21622dc7ccd6728ba38ea1 -->
<g id="node2" class="node">
<title>dir_7b8483bbab21622dc7ccd6728ba38ea1</title>
<g id="a_node2"><a xlink:href="dir_7b8483bbab21622dc7ccd6728ba38ea1.html" target="_top" xlink:title="apis">
<polygon fill="#ffffff" stroke="#000000" points="104,-252 50,-252 50,-216 104,-216 104,-252"/>
<text text-anchor="middle" x="77" y="-231.5" font-family="Helvetica,sans-Serif" font-size="10.00" fill="#000000">apis</text>
</a>
</g>
</g>
<!-- dir_996c030acc57259aaa9f767d04c3ce1d&#45;&gt;dir_7b8483bbab21622dc7ccd6728ba38ea1 -->
<g id="edge1" class="edge">
<title>dir_996c030acc57259aaa9f767d04c3ce1d&#45;&gt;dir_7b8483bbab21622dc7ccd6728ba38ea1</title>
<path fill="none" stroke="#000000" d="M72.5141,-287.8314C73.1558,-280.131 73.9188,-270.9743 74.6319,-262.4166"/>
<polygon fill="#000000" stroke="#000000" points="78.1229,-262.6694 75.4656,-252.4133 71.1471,-262.088 78.1229,-262.6694"/>
<g id="a_edge1&#45;headlabel"><a xlink:href="dir_000001_000002.html" target="_top" xlink:title="5">
<text text-anchor="middle" x="80.654" y="-263.9874" font-family="Helvetica,sans-Serif" font-size="10.00" fill="#000000">5</text>
</a>
</g>
</g>
<!-- dir_f0aadf2957bf50aa683956e89ab3510f -->
<g id="node5" class="node">
<title>dir_f0aadf2957bf50aa683956e89ab3510f</title>
<g id="a_node5"><a xlink:href="dir_f0aadf2957bf50aa683956e89ab3510f.html" target="_top" xlink:title="libsignalhandler">
<polygon fill="none" stroke="#000000" points="217.5,-252 134.5,-252 134.5,-216 217.5,-216 217.5,-252"/>
<text text-anchor="middle" x="176" y="-231.5" font-family="Helvetica,sans-Serif" font-size="10.00" fill="#000000">libsignalhandler</text>
</a>
</g>
</g>
<!-- dir_996c030acc57259aaa9f767d04c3ce1d&#45;&gt;dir_f0aadf2957bf50aa683956e89ab3510f -->
<g id="edge2" class="edge">
<title>dir_996c030acc57259aaa9f767d04c3ce1d&#45;&gt;dir_f0aadf2957bf50aa683956e89ab3510f</title>
<path fill="none" stroke="#000000" d="M97.4959,-287.8314C110.6774,-278.7927 126.7847,-267.7476 140.9711,-258.0198"/>
<polygon fill="#000000" stroke="#000000" points="143.2446,-260.7047 149.5125,-252.1628 139.2859,-254.9316 143.2446,-260.7047"/>
<g id="a_edge2&#45;headlabel"><a xlink:href="dir_000001_000008.html" target="_top" xlink:title="1">
<text text-anchor="middle" x="141.8857" y="-262.5792" font-family="Helvetica,sans-Serif" font-size="10.00" fill="#000000">1</text>
</a>
</g>
</g>
<!-- dir_2edc76574d9c7eeb7a6f4c171dba9a67 -->
<g id="node3" class="node">
<title>dir_2edc76574d9c7eeb7a6f4c171dba9a67</title>
<g id="a_node3"><a xlink:href="dir_2edc76574d9c7eeb7a6f4c171dba9a67.html" target="_top" xlink:title="middleware">
<polygon fill="#ffffff" stroke="#000000" points="90,-180 24,-180 24,-144 90,-144 90,-180"/>
<text text-anchor="middle" x="57" y="-159.5" font-family="Helvetica,sans-Serif" font-size="10.00" fill="#000000">middleware</text>
</a>
</g>
</g>
<!-- dir_7b8483bbab21622dc7ccd6728ba38ea1&#45;&gt;dir_2edc76574d9c7eeb7a6f4c171dba9a67 -->
<g id="edge5" class="edge">
<title>dir_7b8483bbab21622dc7ccd6728ba38ea1&#45;&gt;dir_2edc76574d9c7eeb7a6f4c171dba9a67</title>
<path fill="none" stroke="#000000" d="M66.0008,-215.8314C63.1113,-208.131 60.3469,-198.9743 58.2784,-190.4166"/>
<polygon fill="#000000" stroke="#000000" points="61.6531,-189.46 56.1388,-180.4133 54.8079,-190.9242 61.6531,-189.46"/>
<g id="a_edge5&#45;headlabel"><a xlink:href="dir_000002_000003.html" target="_top" xlink:title="1">
<text text-anchor="middle" x="65.1813" y="-189.8813" font-family="Helvetica,sans-Serif" font-size="10.00" fill="#000000">1</text>
</a>
</g>
</g>
<!-- dir_cc0e5e499638d02e7245d231465f7c44 -->
<g id="node4" class="node">
<title>dir_cc0e5e499638d02e7245d231465f7c44</title>
<g id="a_node4"><a xlink:href="dir_cc0e5e499638d02e7245d231465f7c44.html" target="_top" xlink:title="storage">
<polygon fill="#ffffff" stroke="#000000" points="110,-108 56,-108 56,-72 110,-72 110,-108"/>
<text text-anchor="middle" x="83" y="-87.5" font-family="Helvetica,sans-Serif" font-size="10.00" fill="#000000">storage</text>
</a>
</g>
</g>
<!-- dir_7b8483bbab21622dc7ccd6728ba38ea1&#45;&gt;dir_cc0e5e499638d02e7245d231465f7c44 -->
<g id="edge7" class="edge">
<title>dir_7b8483bbab21622dc7ccd6728ba38ea1&#45;&gt;dir_cc0e5e499638d02e7245d231465f7c44</title>
<path fill="none" stroke="#000000" d="M78.6136,-215.5602C82.3499,-205.373 87.5869,-192.3186 90,-180 94.017,-159.4934 89.669,-136.2723 85.7228,-118.554"/>
<polygon fill="#000000" stroke="#000000" points="89.0235,-117.2833 83.3961,-108.3064 82.1972,-118.8332 89.0235,-117.2833"/>
<g id="a_edge7&#45;headlabel"><a xlink:href="dir_000002_000004.html" target="_top" xlink:title="1">
<text text-anchor="middle" x="92.5881" y="-117.66" font-family="Helvetica,sans-Serif" font-size="10.00" fill="#000000">1</text>
</a>
</g>
</g>
<!-- dir_b49b37929e4669f6dd5144c716b3914e -->
<g id="node7" class="node">
<title>dir_b49b37929e4669f6dd5144c716b3914e</title>
<g id="a_node7"><a xlink:href="dir_b49b37929e4669f6dd5144c716b3914e.html" target="_top" xlink:title="liblogger">
<polygon fill="none" stroke="#000000" points="165,-36 111,-36 111,0 165,0 165,-36"/>
<text text-anchor="middle" x="138" y="-15.5" font-family="Helvetica,sans-Serif" font-size="10.00" fill="#000000">liblogger</text>
</a>
</g>
</g>
<!-- dir_7b8483bbab21622dc7ccd6728ba38ea1&#45;&gt;dir_b49b37929e4669f6dd5144c716b3914e -->
<g id="edge6" class="edge">
<title>dir_7b8483bbab21622dc7ccd6728ba38ea1&#45;&gt;dir_b49b37929e4669f6dd5144c716b3914e</title>
<path fill="none" stroke="#000000" d="M88.1763,-215.5826C93.9317,-205.402 100.6373,-192.3467 105,-180 120.9799,-134.7755 130.159,-79.5637 134.6068,-46.674"/>
<polygon fill="#000000" stroke="#000000" points="138.1211,-46.7898 135.9368,-36.4225 131.1793,-45.8891 138.1211,-46.7898"/>
<g id="a_edge6&#45;headlabel"><a xlink:href="dir_000002_000007.html" target="_top" xlink:title="2">
<text text-anchor="middle" x="140.4744" y="-48.2198" font-family="Helvetica,sans-Serif" font-size="10.00" fill="#000000">2</text>
</a>
</g>
</g>
<!-- dir_2edc76574d9c7eeb7a6f4c171dba9a67&#45;&gt;dir_7b8483bbab21622dc7ccd6728ba38ea1 -->
<g id="edge3" class="edge">
<title>dir_2edc76574d9c7eeb7a6f4c171dba9a67&#45;&gt;dir_7b8483bbab21622dc7ccd6728ba38ea1</title>
<path fill="none" stroke="#000000" d="M68.0908,-180.4133C70.9775,-188.1442 73.7332,-197.3097 75.7869,-205.8545"/>
<polygon fill="#000000" stroke="#000000" points="72.4046,-206.7765 77.9055,-215.8314 79.2519,-205.3224 72.4046,-206.7765"/>
<g id="a_edge3&#45;headlabel"><a xlink:href="dir_000003_000002.html" target="_top" xlink:title="1">
<text text-anchor="middle" x="68.8807" y="-201.3501" font-family="Helvetica,sans-Serif" font-size="10.00" fill="#000000">1</text>
</a>
</g>
</g>
<!-- dir_2edc76574d9c7eeb7a6f4c171dba9a67&#45;&gt;dir_cc0e5e499638d02e7245d231465f7c44 -->
<g id="edge4" class="edge">
<title>dir_2edc76574d9c7eeb7a6f4c171dba9a67&#45;&gt;dir_cc0e5e499638d02e7245d231465f7c44</title>
<path fill="none" stroke="#000000" d="M63.5609,-143.8314C66.4027,-135.9617 69.7937,-126.5712 72.9419,-117.8533"/>
<polygon fill="#000000" stroke="#000000" points="76.2462,-119.0076 76.3508,-108.4133 69.6623,-116.63 76.2462,-119.0076"/>
<g id="a_edge4&#45;headlabel"><a xlink:href="dir_000003_000004.html" target="_top" xlink:title="1">
<text text-anchor="middle" x="77.6959" y="-120.8528" font-family="Helvetica,sans-Serif" font-size="10.00" fill="#000000">1</text>
</a>
</g>
</g>
<!-- dir_cc0e5e499638d02e7245d231465f7c44&#45;&gt;dir_7b8483bbab21622dc7ccd6728ba38ea1 -->
<g id="edge8" class="edge">
<title>dir_cc0e5e499638d02e7245d231465f7c44&#45;&gt;dir_7b8483bbab21622dc7ccd6728ba38ea1</title>
<path fill="none" stroke="#000000" d="M97.0835,-108.3064C105.5038,-126.5164 112.8507,-155.2373 108,-180 106.2468,-188.9503 103.0028,-198.2889 99.1422,-206.6341"/>
<polygon fill="#000000" stroke="#000000" points="96.0137,-205.0645 94.568,-215.5602 102.2434,-208.2569 96.0137,-205.0645"/>
<g id="a_edge8&#45;headlabel"><a xlink:href="dir_000004_000002.html" target="_top" xlink:title="1">
<text text-anchor="middle" x="95.1262" y="-198.0706" font-family="Helvetica,sans-Serif" font-size="10.00" fill="#000000">1</text>
</a>
</g>
</g>
<!-- dir_a78cd663aa6ae8168028bb2649741dbb -->
<g id="node6" class="node">
<title>dir_a78cd663aa6ae8168028bb2649741dbb</title>
<g id="a_node6"><a xlink:href="dir_a78cd663aa6ae8168028bb2649741dbb.html" target="_top" xlink:title="libfnv">
<polygon fill="none" stroke="#000000" points="93,-36 39,-36 39,0 93,0 93,-36"/>
<text text-anchor="middle" x="66" y="-15.5" font-family="Helvetica,sans-Serif" font-size="10.00" fill="#000000">libfnv</text>
</a>
</g>
</g>
<!-- dir_cc0e5e499638d02e7245d231465f7c44&#45;&gt;dir_a78cd663aa6ae8168028bb2649741dbb -->
<g id="edge9" class="edge">
<title>dir_cc0e5e499638d02e7245d231465f7c44&#45;&gt;dir_a78cd663aa6ae8168028bb2649741dbb</title>
<path fill="none" stroke="#000000" d="M78.7102,-71.8314C76.892,-64.131 74.7301,-54.9743 72.7095,-46.4166"/>
<polygon fill="#000000" stroke="#000000" points="76.0519,-45.3414 70.3476,-36.4133 69.2392,-46.95 76.0519,-45.3414"/>
<g id="a_edge9&#45;headlabel"><a xlink:href="dir_000004_000006.html" target="_top" xlink:title="1">
<text text-anchor="middle" x="79.6412" y="-45.6874" font-family="Helvetica,sans-Serif" font-size="10.00" fill="#000000">1</text>
</a>
</g>
</g>
<!-- dir_cc0e5e499638d02e7245d231465f7c44&#45;&gt;dir_b49b37929e4669f6dd5144c716b3914e -->
<g id="edge10" class="edge">
<title>dir_cc0e5e499638d02e7245d231465f7c44&#45;&gt;dir_b49b37929e4669f6dd5144c716b3914e</title>
<path fill="none" stroke="#000000" d="M96.8788,-71.8314C103.2136,-63.5386 110.8384,-53.557 117.7926,-44.4533"/>
<polygon fill="#000000" stroke="#000000" points="120.6452,-46.4847 123.9343,-36.4133 115.0825,-42.2353 120.6452,-46.4847"/>
<g id="a_edge10&#45;headlabel"><a xlink:href="dir_000004_000007.html" target="_top" xlink:title="1">
<text text-anchor="middle" x="120.7195" y="-48.5647" font-family="Helvetica,sans-Serif" font-size="10.00" fill="#000000">1</text>
</a>
</g>
</g>
</g>
</svg>
