<?xml version="1.0" encoding="UTF-8" standalone="no"?>
<!DOCTYPE svg PUBLIC "-//W3C//DTD SVG 1.1//EN"
 "http://www.w3.org/Graphics/SVG/1.1/DTD/svg11.dtd">
<!-- Generated by graphviz version 2.40.1 (20161225.0304)
 -->
<!-- Title: Graphical Class Hierarchy Pages: 1 -->
<svg width="375pt" height="370pt"
 viewBox="0.00 0.00 375.00 370.00" xmlns="http://www.w3.org/2000/svg" xmlns:xlink="http://www.w3.org/1999/xlink">
<g id="graph0" class="graph" transform="scale(1 1) rotate(0) translate(4 366)">
<title>Graphical Class Hierarchy</title>
<polygon fill="#ffffff" stroke="transparent" points="-4,4 -4,-366 371,-366 371,4 -4,4"/>
<!-- Node0 -->
<g id="node1" class="node">
<title>Node0</title>
<g id="a_node1"><a xlink:title="STL class. ">
<polygon fill="#ffffff" stroke="#bfbfbf" points="0,-228.5 0,-247.5 78,-247.5 78,-228.5 0,-228.5"/>
<text text-anchor="middle" x="39" y="-235.5" font-family="Helvetica,sans-Serif" font-size="10.00" fill="#000000">std::exception</text>
</a>
</g>
</g>
<!-- Node1 -->
<g id="node2" class="node">
<title>Node1</title>
<g id="a_node2"><a xlink:title="STL class. ">
<polygon fill="#ffffff" stroke="#bfbfbf" points="129,-342.5 129,-361.5 206,-361.5 206,-342.5 129,-342.5"/>
<text text-anchor="middle" x="167.5" y="-349.5" font-family="Helvetica,sans-Serif" font-size="10.00" fill="#000000">std::bad_alloc</text>
</a>
</g>
</g>
<!-- Node0&#45;&gt;Node1 -->
<g id="edge1" class="edge">
<title>Node0&#45;&gt;Node1</title>
<path fill="none" stroke="#191970" d="M49.075,-256.2519C61.6677,-277.495 85.1185,-312.2993 114,-333 119.2874,-336.7897 125.4045,-339.8883 131.5721,-342.4001"/>
<polygon fill="#191970" stroke="#191970" points="52.0892,-254.4724 44.0727,-247.5451 46.0196,-257.9596 52.0892,-254.4724"/>
</g>
<!-- Node2 -->
<g id="node3" class="node">
<title>Node2</title>
<g id="a_node3"><a xlink:title="STL class. ">
<polygon fill="#ffffff" stroke="#bfbfbf" points="129.5,-304.5 129.5,-323.5 205.5,-323.5 205.5,-304.5 129.5,-304.5"/>
<text text-anchor="middle" x="167.5" y="-311.5" font-family="Helvetica,sans-Serif" font-size="10.00" fill="#000000">std::bad_cast</text>
</a>
</g>
</g>
<!-- Node0&#45;&gt;Node2 -->
<g id="edge2" class="edge">
<title>Node0&#45;&gt;Node2</title>
<path fill="none" stroke="#191970" d="M57.1711,-254.3791C71.7151,-266.8296 93.0735,-283.6882 114,-295 120.6765,-298.609 128.1768,-301.7659 135.4013,-304.4161"/>
<polygon fill="#191970" stroke="#191970" points="59.2835,-251.5769 49.4501,-247.633 54.6777,-256.8483 59.2835,-251.5769"/>
</g>
<!-- Node3 -->
<g id="node4" class="node">
<title>Node3</title>
<g id="a_node4"><a xlink:title="STL class. ">
<polygon fill="#ffffff" stroke="#bfbfbf" points="118,-266.5 118,-285.5 217,-285.5 217,-266.5 118,-266.5"/>
<text text-anchor="middle" x="167.5" y="-273.5" font-family="Helvetica,sans-Serif" font-size="10.00" fill="#000000">std::bad_exception</text>
</a>
</g>
</g>
<!-- Node0&#45;&gt;Node3 -->
<g id="edge3" class="edge">
<title>Node0&#45;&gt;Node3</title>
<path fill="none" stroke="#191970" d="M81.3891,-250.5353C98.87,-255.7048 118.8022,-261.5991 135.0844,-266.4141"/>
<polygon fill="#191970" stroke="#191970" points="82.008,-247.0686 71.426,-247.589 80.0229,-253.7812 82.008,-247.0686"/>
</g>
<!-- Node4 -->
<g id="node5" class="node">
<title>Node4</title>
<g id="a_node5"><a xlink:title="STL class. ">
<polygon fill="#ffffff" stroke="#bfbfbf" points="126,-228.5 126,-247.5 209,-247.5 209,-228.5 126,-228.5"/>
<text text-anchor="middle" x="167.5" y="-235.5" font-family="Helvetica,sans-Serif" font-size="10.00" fill="#000000">std::bad_typeid</text>
</a>
</g>
</g>
<!-- Node0&#45;&gt;Node4 -->
<g id="edge4" class="edge">
<title>Node0&#45;&gt;Node4</title>
<path fill="none" stroke="#191970" d="M88.4018,-238C100.7526,-238 113.8778,-238 125.813,-238"/>
<polygon fill="#191970" stroke="#191970" points="88.2525,-234.5001 78.2525,-238 88.2524,-241.5001 88.2525,-234.5001"/>
</g>
<!-- Node5 -->
<g id="node6" class="node">
<title>Node5</title>
<g id="a_node6"><a xlink:title="STL class. ">
<polygon fill="#ffffff" stroke="#bfbfbf" points="114,-190.5 114,-209.5 221,-209.5 221,-190.5 114,-190.5"/>
<text text-anchor="middle" x="167.5" y="-197.5" font-family="Helvetica,sans-Serif" font-size="10.00" fill="#000000">std::ios_base::failure</text>
</a>
</g>
</g>
<!-- Node0&#45;&gt;Node5 -->
<g id="edge5" class="edge">
<title>Node0&#45;&gt;Node5</title>
<path fill="none" stroke="#191970" d="M81.3891,-225.4647C98.87,-220.2952 118.8022,-214.4009 135.0844,-209.5859"/>
<polygon fill="#191970" stroke="#191970" points="80.0229,-222.2188 71.426,-228.411 82.008,-228.9314 80.0229,-222.2188"/>
</g>
<!-- Node6 -->
<g id="node7" class="node">
<title>Node6</title>
<g id="a_node7"><a xlink:title="STL class. ">
<polygon fill="#ffffff" stroke="#bfbfbf" points="127,-152.5 127,-171.5 208,-171.5 208,-152.5 127,-152.5"/>
<text text-anchor="middle" x="167.5" y="-159.5" font-family="Helvetica,sans-Serif" font-size="10.00" fill="#000000">std::logic_error</text>
</a>
</g>
</g>
<!-- Node0&#45;&gt;Node6 -->
<g id="edge6" class="edge">
<title>Node0&#45;&gt;Node6</title>
<path fill="none" stroke="#191970" d="M57.1711,-221.6209C71.7151,-209.1704 93.0735,-192.3118 114,-181 120.6765,-177.391 128.1768,-174.2341 135.4013,-171.5839"/>
<polygon fill="#191970" stroke="#191970" points="54.6777,-219.1517 49.4501,-228.367 59.2835,-224.4231 54.6777,-219.1517"/>
</g>
<!-- Node11 -->
<g id="node12" class="node">
<title>Node11</title>
<g id="a_node12"><a xlink:title="STL class. ">
<polygon fill="#ffffff" stroke="#bfbfbf" points="121,-57.5 121,-76.5 214,-76.5 214,-57.5 121,-57.5"/>
<text text-anchor="middle" x="167.5" y="-64.5" font-family="Helvetica,sans-Serif" font-size="10.00" fill="#000000">std::runtime_error</text>
</a>
</g>
</g>
<!-- Node0&#45;&gt;Node11 -->
<g id="edge11" class="edge">
<title>Node0&#45;&gt;Node11</title>
<path fill="none" stroke="#191970" d="M52.3811,-220.1932C79.3768,-184.2689 139.5532,-104.1899 160.3029,-76.5774"/>
<polygon fill="#191970" stroke="#191970" points="49.4864,-218.2193 46.2769,-228.3163 55.0825,-222.4246 49.4864,-218.2193"/>
</g>
<!-- Node7 -->
<g id="node8" class="node">
<title>Node7</title>
<g id="a_node8"><a xlink:title="STL class. ">
<polygon fill="#ffffff" stroke="#bfbfbf" points="266,-228.5 266,-247.5 358,-247.5 358,-228.5 266,-228.5"/>
<text text-anchor="middle" x="312" y="-235.5" font-family="Helvetica,sans-Serif" font-size="10.00" fill="#000000">std::domain_error</text>
</a>
</g>
</g>
<!-- Node6&#45;&gt;Node7 -->
<g id="edge7" class="edge">
<title>Node6&#45;&gt;Node7</title>
<path fill="none" stroke="#191970" d="M211.2075,-175.5324C214.619,-177.1818 217.9277,-179.001 221,-181 240.5001,-193.6878 237.4453,-206.3965 257,-219 262.8591,-222.7763 269.5553,-225.8973 276.2118,-228.4418"/>
<polygon fill="#191970" stroke="#191970" points="212.5959,-172.3196 202.0286,-171.556 209.8132,-178.7428 212.5959,-172.3196"/>
</g>
<!-- Node8 -->
<g id="node9" class="node">
<title>Node8</title>
<g id="a_node9"><a xlink:title="STL class. ">
<polygon fill="#ffffff" stroke="#bfbfbf" points="257,-190.5 257,-209.5 367,-209.5 367,-190.5 257,-190.5"/>
<text text-anchor="middle" x="312" y="-197.5" font-family="Helvetica,sans-Serif" font-size="10.00" fill="#000000">std::invalid_argument</text>
</a>
</g>
</g>
<!-- Node6&#45;&gt;Node8 -->
<g id="edge8" class="edge">
<title>Node6&#45;&gt;Node8</title>
<path fill="none" stroke="#191970" d="M213.8325,-174.1843C233.8939,-179.46 257.0285,-185.5438 275.7988,-190.4799"/>
<polygon fill="#191970" stroke="#191970" points="214.5248,-170.7474 203.9635,-171.589 212.7445,-177.5173 214.5248,-170.7474"/>
</g>
<!-- Node9 -->
<g id="node10" class="node">
<title>Node9</title>
<g id="a_node10"><a xlink:title="STL class. ">
<polygon fill="#ffffff" stroke="#bfbfbf" points="268.5,-152.5 268.5,-171.5 355.5,-171.5 355.5,-152.5 268.5,-152.5"/>
<text text-anchor="middle" x="312" y="-159.5" font-family="Helvetica,sans-Serif" font-size="10.00" fill="#000000">std::length_error</text>
</a>
</g>
</g>
<!-- Node6&#45;&gt;Node9 -->
<g id="edge9" class="edge">
<title>Node6&#45;&gt;Node9</title>
<path fill="none" stroke="#191970" d="M218.5653,-162C234.8404,-162 252.6888,-162 268.3857,-162"/>
<polygon fill="#191970" stroke="#191970" points="218.1359,-158.5001 208.1358,-162 218.1358,-165.5001 218.1359,-158.5001"/>
</g>
<!-- Node10 -->
<g id="node11" class="node">
<title>Node10</title>
<g id="a_node11"><a xlink:title="STL class. ">
<polygon fill="#ffffff" stroke="#bfbfbf" points="266,-114.5 266,-133.5 358,-133.5 358,-114.5 266,-114.5"/>
<text text-anchor="middle" x="312" y="-121.5" font-family="Helvetica,sans-Serif" font-size="10.00" fill="#000000">std::out_of_range</text>
</a>
</g>
</g>
<!-- Node6&#45;&gt;Node10 -->
<g id="edge10" class="edge">
<title>Node6&#45;&gt;Node10</title>
<path fill="none" stroke="#191970" d="M213.8325,-149.8157C233.8939,-144.54 257.0285,-138.4562 275.7988,-133.5201"/>
<polygon fill="#191970" stroke="#191970" points="212.7445,-146.4827 203.9635,-152.411 214.5248,-153.2526 212.7445,-146.4827"/>
</g>
<!-- Node12 -->
<g id="node13" class="node">
<title>Node12</title>
<g id="a_node13"><a xlink:title="STL class. ">
<polygon fill="#ffffff" stroke="#bfbfbf" points="263,-76.5 263,-95.5 361,-95.5 361,-76.5 263,-76.5"/>
<text text-anchor="middle" x="312" y="-83.5" font-family="Helvetica,sans-Serif" font-size="10.00" fill="#000000">std::overflow_error</text>
</a>
</g>
</g>
<!-- Node11&#45;&gt;Node12 -->
<g id="edge12" class="edge">
<title>Node11&#45;&gt;Node12</title>
<path fill="none" stroke="#191970" d="M224.0965,-74.4418C236.8907,-76.124 250.3727,-77.8968 262.8316,-79.5349"/>
<polygon fill="#191970" stroke="#191970" points="224.3871,-70.9499 214.0161,-73.1163 223.4745,-77.8902 224.3871,-70.9499"/>
</g>
<!-- Node13 -->
<g id="node14" class="node">
<title>Node13</title>
<g id="a_node14"><a xlink:title="STL class. ">
<polygon fill="#ffffff" stroke="#bfbfbf" points="269.5,-38.5 269.5,-57.5 354.5,-57.5 354.5,-38.5 269.5,-38.5"/>
<text text-anchor="middle" x="312" y="-45.5" font-family="Helvetica,sans-Serif" font-size="10.00" fill="#000000">std::range_error</text>
</a>
</g>
</g>
<!-- Node11&#45;&gt;Node13 -->
<g id="edge13" class="edge">
<title>Node11&#45;&gt;Node13</title>
<path fill="none" stroke="#191970" d="M224.2595,-59.5368C239.3224,-57.5562 255.3281,-55.4517 269.4877,-53.5899"/>
<polygon fill="#191970" stroke="#191970" points="223.4745,-56.1098 214.0161,-60.8837 224.3871,-63.0501 223.4745,-56.1098"/>
</g>
<!-- Node14 -->
<g id="node15" class="node">
<title>Node14</title>
<g id="a_node15"><a xlink:title="STL class. ">
<polygon fill="#ffffff" stroke="#bfbfbf" points="260.5,-.5 260.5,-19.5 363.5,-19.5 363.5,-.5 260.5,-.5"/>
<text text-anchor="middle" x="312" y="-7.5" font-family="Helvetica,sans-Serif" font-size="10.00" fill="#000000">std::underflow_error</text>
</a>
</g>
</g>
<!-- Node11&#45;&gt;Node14 -->
<g id="edge14" class="edge">
<title>Node11&#45;&gt;Node14</title>
<path fill="none" stroke="#191970" d="M198.5345,-53.2011C215.66,-45.7443 237.3749,-36.5457 257,-29 265.3921,-25.7733 274.5966,-22.4937 283.0344,-19.588"/>
<polygon fill="#191970" stroke="#191970" points="196.7868,-50.1456 189.0321,-57.3646 199.5961,-56.5571 196.7868,-50.1456"/>
</g>
</g>
</svg>
