<?xml version="1.0" encoding="UTF-8" standalone="no"?>
<!DOCTYPE svg PUBLIC "-//W3C//DTD SVG 1.1//EN"
 "http://www.w3.org/Graphics/SVG/1.1/DTD/svg11.dtd">
<!-- Generated by graphviz version 2.40.1 (20161225.0304)
 -->
<!-- Title: Graphical Class Hierarchy Pages: 1 -->
<svg width="834pt" height="880pt"
 viewBox="0.00 0.00 834.00 880.00" xmlns="http://www.w3.org/2000/svg" xmlns:xlink="http://www.w3.org/1999/xlink">
<g id="graph0" class="graph" transform="scale(1 1) rotate(0) translate(4 876)">
<title>Graphical Class Hierarchy</title>
<polygon fill="#ffffff" stroke="transparent" points="-4,4 -4,-876 830,-876 830,4 -4,4"/>
<!-- Node0 -->
<g id="node1" class="node">
<title>Node0</title>
<g id="a_node1"><a xlink:title="STL class. ">
<polygon fill="#ffffff" stroke="#bfbfbf" points="0,-603.5 0,-622.5 75,-622.5 75,-603.5 0,-603.5"/>
<text text-anchor="middle" x="37.5" y="-610.5" font-family="Helvetica,sans-Serif" font-size="10.00" fill="#000000">std::ios_base</text>
</a>
</g>
</g>
<!-- Node1 -->
<g id="node2" class="node">
<title>Node1</title>
<polygon fill="#ffffff" stroke="#bfbfbf" points="119,-641.5 119,-660.5 233,-660.5 233,-641.5 119,-641.5"/>
<text text-anchor="middle" x="176" y="-648.5" font-family="Helvetica,sans-Serif" font-size="10.00" fill="#000000">std::basic_ios&lt; char &gt;</text>
</g>
<!-- Node0&#45;&gt;Node1 -->
<g id="edge1" class="edge">
<title>Node0&#45;&gt;Node1</title>
<path fill="none" stroke="#191970" d="M82.1342,-625.2462C101.2247,-630.484 123.1845,-636.5091 141.0618,-641.4141"/>
<polygon fill="#191970" stroke="#191970" points="83.0191,-621.8597 72.4494,-622.589 81.1669,-628.6102 83.0191,-621.8597"/>
</g>
<!-- Node2 -->
<g id="node3" class="node">
<title>Node2</title>
<polygon fill="#ffffff" stroke="#bfbfbf" points="111,-603.5 111,-622.5 241,-622.5 241,-603.5 111,-603.5"/>
<text text-anchor="middle" x="176" y="-610.5" font-family="Helvetica,sans-Serif" font-size="10.00" fill="#000000">std::basic_ios&lt; wchar_t &gt;</text>
</g>
<!-- Node0&#45;&gt;Node2 -->
<g id="edge2" class="edge">
<title>Node0&#45;&gt;Node2</title>
<path fill="none" stroke="#191970" d="M85.4319,-613C93.6112,-613 102.2303,-613 110.7676,-613"/>
<polygon fill="#191970" stroke="#191970" points="85.3458,-609.5001 75.3457,-613 85.3457,-616.5001 85.3458,-609.5001"/>
</g>
<!-- Node3 -->
<g id="node4" class="node">
<title>Node3</title>
<g id="a_node4"><a xlink:title="STL class. ">
<polygon fill="#ffffff" stroke="#bfbfbf" points="118,-565.5 118,-584.5 234,-584.5 234,-565.5 118,-565.5"/>
<text text-anchor="middle" x="176" y="-572.5" font-family="Helvetica,sans-Serif" font-size="10.00" fill="#000000">std::basic_ios&lt; Char &gt;</text>
</a>
</g>
</g>
<!-- Node0&#45;&gt;Node3 -->
<g id="edge3" class="edge">
<title>Node0&#45;&gt;Node3</title>
<path fill="none" stroke="#191970" d="M82.1342,-600.7538C101.2247,-595.516 123.1845,-589.4909 141.0618,-584.5859"/>
<polygon fill="#191970" stroke="#191970" points="81.1669,-597.3898 72.4494,-603.411 83.0191,-604.1403 81.1669,-597.3898"/>
</g>
<!-- Node4 -->
<g id="node5" class="node">
<title>Node4</title>
<polygon fill="#ffffff" stroke="#bfbfbf" points="278.5,-732 278.5,-762 375.5,-762 375.5,-732 278.5,-732"/>
<text text-anchor="start" x="286.5" y="-750" font-family="Helvetica,sans-Serif" font-size="10.00" fill="#000000">std::basic_istream</text>
<text text-anchor="middle" x="327" y="-739" font-family="Helvetica,sans-Serif" font-size="10.00" fill="#000000">&lt; char &gt;</text>
</g>
<!-- Node3&#45;&gt;Node4 -->
<g id="edge4" class="edge">
<title>Node3&#45;&gt;Node4</title>
<path fill="none" stroke="#191970" d="M236.4354,-589.9881C238.0464,-591.2225 239.5747,-592.5572 241,-594 282.8315,-636.3466 238.7579,-677.3859 277,-723 279.8456,-726.3942 283.283,-729.3435 287.0076,-731.8982"/>
<polygon fill="#191970" stroke="#191970" points="238.1265,-586.9182 227.7855,-584.613 234.4319,-592.8638 238.1265,-586.9182"/>
</g>
<!-- Node5 -->
<g id="node6" class="node">
<title>Node5</title>
<polygon fill="#ffffff" stroke="#bfbfbf" points="278.5,-683 278.5,-713 375.5,-713 375.5,-683 278.5,-683"/>
<text text-anchor="start" x="286.5" y="-701" font-family="Helvetica,sans-Serif" font-size="10.00" fill="#000000">std::basic_istream</text>
<text text-anchor="middle" x="327" y="-690" font-family="Helvetica,sans-Serif" font-size="10.00" fill="#000000">&lt; wchar_t &gt;</text>
</g>
<!-- Node3&#45;&gt;Node5 -->
<g id="edge5" class="edge">
<title>Node3&#45;&gt;Node5</title>
<path fill="none" stroke="#191970" d="M234.7894,-589.371C236.9769,-590.773 239.06,-592.3116 241,-594 270.4111,-619.5966 249.7722,-646.0922 277,-674 280.2948,-677.3771 284.1601,-680.3407 288.2569,-682.9253"/>
<polygon fill="#191970" stroke="#191970" points="236.3828,-586.254 225.916,-584.612 233.0743,-592.4228 236.3828,-586.254"/>
</g>
<!-- Node6 -->
<g id="node7" class="node">
<title>Node6</title>
<polygon fill="#ffffff" stroke="#bfbfbf" points="277,-634 277,-664 377,-664 377,-634 277,-634"/>
<text text-anchor="start" x="285" y="-652" font-family="Helvetica,sans-Serif" font-size="10.00" fill="#000000">std::basic_ostream</text>
<text text-anchor="middle" x="327" y="-641" font-family="Helvetica,sans-Serif" font-size="10.00" fill="#000000">&lt; char &gt;</text>
</g>
<!-- Node3&#45;&gt;Node6 -->
<g id="edge6" class="edge">
<title>Node3&#45;&gt;Node6</title>
<path fill="none" stroke="#191970" d="M227.7821,-587.9085C232.3567,-589.7102 236.8289,-591.734 241,-594 259.5536,-604.0793 259.3293,-613.4426 277,-625 281.8349,-628.1623 287.1501,-631.1606 292.4548,-633.8981"/>
<polygon fill="#191970" stroke="#191970" points="228.9065,-584.5936 218.3119,-584.5159 226.5456,-591.1835 228.9065,-584.5936"/>
</g>
<!-- Node7 -->
<g id="node8" class="node">
<title>Node7</title>
<polygon fill="#ffffff" stroke="#bfbfbf" points="277,-585 277,-615 377,-615 377,-585 277,-585"/>
<text text-anchor="start" x="285" y="-603" font-family="Helvetica,sans-Serif" font-size="10.00" fill="#000000">std::basic_ostream</text>
<text text-anchor="middle" x="327" y="-592" font-family="Helvetica,sans-Serif" font-size="10.00" fill="#000000">&lt; wchar_t &gt;</text>
</g>
<!-- Node3&#45;&gt;Node7 -->
<g id="edge7" class="edge">
<title>Node3&#45;&gt;Node7</title>
<path fill="none" stroke="#191970" d="M243.5997,-586.192C254.6788,-588.0263 265.9873,-589.8986 276.5568,-591.6485"/>
<polygon fill="#191970" stroke="#191970" points="243.9548,-582.7032 233.5174,-584.5227 242.8114,-589.6092 243.9548,-582.7032"/>
</g>
<!-- Node8 -->
<g id="node9" class="node">
<title>Node8</title>
<g id="a_node9"><a xlink:title="STL class. ">
<polygon fill="#ffffff" stroke="#bfbfbf" points="278.5,-306 278.5,-336 375.5,-336 375.5,-306 278.5,-306"/>
<text text-anchor="start" x="286.5" y="-324" font-family="Helvetica,sans-Serif" font-size="10.00" fill="#000000">std::basic_istream</text>
<text text-anchor="middle" x="327" y="-313" font-family="Helvetica,sans-Serif" font-size="10.00" fill="#000000">&lt; Char &gt;</text>
</a>
</g>
</g>
<!-- Node3&#45;&gt;Node8 -->
<g id="edge8" class="edge">
<title>Node3&#45;&gt;Node8</title>
<path fill="none" stroke="#191970" d="M186.9177,-556.6351C215.4448,-508.6492 291.8136,-380.1877 318.0239,-336.0988"/>
<polygon fill="#191970" stroke="#191970" points="183.8366,-554.9687 181.735,-565.3531 189.8536,-558.5458 183.8366,-554.9687"/>
</g>
<!-- Node34 -->
<g id="node35" class="node">
<title>Node34</title>
<g id="a_node35"><a xlink:title="STL class. ">
<polygon fill="#ffffff" stroke="#bfbfbf" points="277,-536 277,-566 377,-566 377,-536 277,-536"/>
<text text-anchor="start" x="285" y="-554" font-family="Helvetica,sans-Serif" font-size="10.00" fill="#000000">std::basic_ostream</text>
<text text-anchor="middle" x="327" y="-543" font-family="Helvetica,sans-Serif" font-size="10.00" fill="#000000">&lt; Char &gt;</text>
</a>
</g>
</g>
<!-- Node3&#45;&gt;Node34 -->
<g id="edge34" class="edge">
<title>Node3&#45;&gt;Node34</title>
<path fill="none" stroke="#191970" d="M244.2931,-564.1455C255.177,-562.4156 266.2626,-560.6536 276.6339,-559.0052"/>
<polygon fill="#191970" stroke="#191970" points="243.7072,-560.6946 234.3805,-565.721 244.806,-567.6078 243.7072,-560.6946"/>
</g>
<!-- Node60 -->
<g id="node48" class="node">
<title>Node60</title>
<g id="a_node48"><a xlink:title="STL class. ">
<polygon fill="#ffffff" stroke="#bfbfbf" points="302.5,-267.5 302.5,-286.5 351.5,-286.5 351.5,-267.5 302.5,-267.5"/>
<text text-anchor="middle" x="327" y="-274.5" font-family="Helvetica,sans-Serif" font-size="10.00" fill="#000000">std::ios</text>
</a>
</g>
</g>
<!-- Node3&#45;&gt;Node60 -->
<g id="edge50" class="edge">
<title>Node3&#45;&gt;Node60</title>
<path fill="none" stroke="#191970" d="M177.7064,-555.321C183.0483,-505.4348 203.7549,-372.6291 277,-297 283.8294,-289.9483 293.468,-285.3166 302.4624,-282.3061"/>
<polygon fill="#191970" stroke="#191970" points="174.2105,-555.1098 176.7202,-565.4031 181.1772,-555.7913 174.2105,-555.1098"/>
</g>
<!-- Node61 -->
<g id="node49" class="node">
<title>Node61</title>
<g id="a_node49"><a xlink:title="STL class. ">
<polygon fill="#ffffff" stroke="#bfbfbf" points="299,-229.5 299,-248.5 355,-248.5 355,-229.5 299,-229.5"/>
<text text-anchor="middle" x="327" y="-236.5" font-family="Helvetica,sans-Serif" font-size="10.00" fill="#000000">std::wios</text>
</a>
</g>
</g>
<!-- Node3&#45;&gt;Node61 -->
<g id="edge51" class="edge">
<title>Node3&#45;&gt;Node61</title>
<path fill="none" stroke="#191970" d="M179.9705,-555.1552C192.7829,-492.8656 234.6628,-302.719 277,-258 282.8735,-251.796 290.983,-247.5973 298.9627,-244.7638"/>
<polygon fill="#191970" stroke="#191970" points="176.4839,-554.7375 177.9229,-565.2342 183.3438,-556.1312 176.4839,-554.7375"/>
</g>
<!-- Node9 -->
<g id="node10" class="node">
<title>Node9</title>
<polygon fill="#ffffff" stroke="#bfbfbf" points="425,-284 425,-314 525,-314 525,-284 425,-284"/>
<text text-anchor="start" x="433" y="-302" font-family="Helvetica,sans-Serif" font-size="10.00" fill="#000000">std::basic_ifstream</text>
<text text-anchor="middle" x="475" y="-291" font-family="Helvetica,sans-Serif" font-size="10.00" fill="#000000">&lt; char &gt;</text>
</g>
<!-- Node8&#45;&gt;Node9 -->
<g id="edge9" class="edge">
<title>Node8&#45;&gt;Node9</title>
<path fill="none" stroke="#191970" d="M386.0329,-312.2248C398.912,-310.3104 412.4224,-308.3021 424.9141,-306.4452"/>
<polygon fill="#191970" stroke="#191970" points="385.2476,-308.803 375.8709,-313.7354 386.2769,-315.727 385.2476,-308.803"/>
</g>
<!-- Node10 -->
<g id="node11" class="node">
<title>Node10</title>
<polygon fill="#ffffff" stroke="#bfbfbf" points="425,-235 425,-265 525,-265 525,-235 425,-235"/>
<text text-anchor="start" x="433" y="-253" font-family="Helvetica,sans-Serif" font-size="10.00" fill="#000000">std::basic_ifstream</text>
<text text-anchor="middle" x="475" y="-242" font-family="Helvetica,sans-Serif" font-size="10.00" fill="#000000">&lt; wchar_t &gt;</text>
</g>
<!-- Node8&#45;&gt;Node10 -->
<g id="edge10" class="edge">
<title>Node8&#45;&gt;Node10</title>
<path fill="none" stroke="#191970" d="M366.898,-301.3412C370.3292,-299.5628 373.7349,-297.7662 377,-296 393.2923,-287.1868 396.3668,-283.1516 413,-275 420.0868,-271.5269 427.7832,-268.135 435.2654,-265.0262"/>
<polygon fill="#191970" stroke="#191970" points="365.1463,-298.3057 357.8342,-305.9729 368.3316,-304.539 365.1463,-298.3057"/>
</g>
<!-- Node35 -->
<g id="node12" class="node">
<title>Node35</title>
<polygon fill="#ffffff" stroke="#bfbfbf" points="424,-372 424,-402 526,-402 526,-372 424,-372"/>
<text text-anchor="start" x="432" y="-390" font-family="Helvetica,sans-Serif" font-size="10.00" fill="#000000">std::basic_iostream</text>
<text text-anchor="middle" x="475" y="-379" font-family="Helvetica,sans-Serif" font-size="10.00" fill="#000000">&lt; char &gt;</text>
</g>
<!-- Node8&#45;&gt;Node35 -->
<g id="edge11" class="edge">
<title>Node8&#45;&gt;Node35</title>
<path fill="none" stroke="#191970" d="M366.6274,-340.519C381.1269,-347.4945 397.7213,-355.2852 413,-362 420.5439,-365.3154 428.6722,-368.7148 436.4807,-371.8966"/>
<polygon fill="#191970" stroke="#191970" points="367.9627,-337.2769 357.4365,-336.0723 364.914,-343.5782 367.9627,-337.2769"/>
</g>
<!-- Node36 -->
<g id="node13" class="node">
<title>Node36</title>
<polygon fill="#ffffff" stroke="#bfbfbf" points="424,-470 424,-500 526,-500 526,-470 424,-470"/>
<text text-anchor="start" x="432" y="-488" font-family="Helvetica,sans-Serif" font-size="10.00" fill="#000000">std::basic_iostream</text>
<text text-anchor="middle" x="475" y="-477" font-family="Helvetica,sans-Serif" font-size="10.00" fill="#000000">&lt; wchar_t &gt;</text>
</g>
<!-- Node8&#45;&gt;Node36 -->
<g id="edge12" class="edge">
<title>Node8&#45;&gt;Node36</title>
<path fill="none" stroke="#191970" d="M336.4139,-345.9141C349.2909,-376.887 375.1958,-429.5031 413,-461 417.0792,-464.3986 421.6942,-467.3507 426.5208,-469.9071"/>
<polygon fill="#191970" stroke="#191970" points="339.5266,-344.2735 332.5479,-336.3017 333.0321,-346.8855 339.5266,-344.2735"/>
</g>
<!-- Node13 -->
<g id="node14" class="node">
<title>Node13</title>
<polygon fill="#ffffff" stroke="#bfbfbf" points="414.5,-186 414.5,-216 535.5,-216 535.5,-186 414.5,-186"/>
<text text-anchor="start" x="422.5" y="-204" font-family="Helvetica,sans-Serif" font-size="10.00" fill="#000000">std::basic_istringstream</text>
<text text-anchor="middle" x="475" y="-193" font-family="Helvetica,sans-Serif" font-size="10.00" fill="#000000">&lt; char &gt;</text>
</g>
<!-- Node8&#45;&gt;Node13 -->
<g id="edge13" class="edge">
<title>Node8&#45;&gt;Node13</title>
<path fill="none" stroke="#191970" d="M372.4687,-300.0298C374.058,-298.7502 375.5766,-297.4073 377,-296 401.8778,-271.4033 387.1542,-249.5775 413,-226 417.2014,-222.1673 422.0659,-218.8859 427.1858,-216.0852"/>
<polygon fill="#191970" stroke="#191970" points="370.2453,-297.3134 364.048,-305.9067 374.2515,-303.0537 370.2453,-297.3134"/>
</g>
<!-- Node14 -->
<g id="node15" class="node">
<title>Node14</title>
<polygon fill="#ffffff" stroke="#bfbfbf" points="414.5,-137 414.5,-167 535.5,-167 535.5,-137 414.5,-137"/>
<text text-anchor="start" x="422.5" y="-155" font-family="Helvetica,sans-Serif" font-size="10.00" fill="#000000">std::basic_istringstream</text>
<text text-anchor="middle" x="475" y="-144" font-family="Helvetica,sans-Serif" font-size="10.00" fill="#000000">&lt; wchar_t &gt;</text>
</g>
<!-- Node8&#45;&gt;Node14 -->
<g id="edge14" class="edge">
<title>Node8&#45;&gt;Node14</title>
<path fill="none" stroke="#191970" d="M373.8786,-299.3346C374.9782,-298.2704 376.0226,-297.1594 377,-296 412.6163,-253.7541 375.7154,-217.781 413,-177 416.5241,-173.1455 420.725,-169.8735 425.2558,-167.0985"/>
<polygon fill="#191970" stroke="#191970" points="371.5585,-296.7087 365.947,-305.6955 375.938,-302.1695 371.5585,-296.7087"/>
</g>
<!-- Node15 -->
<g id="node16" class="node">
<title>Node15</title>
<g id="a_node16"><a xlink:title="STL class. ">
<polygon fill="#ffffff" stroke="#bfbfbf" points="425,-88 425,-118 525,-118 525,-88 425,-88"/>
<text text-anchor="start" x="433" y="-106" font-family="Helvetica,sans-Serif" font-size="10.00" fill="#000000">std::basic_ifstream</text>
<text text-anchor="middle" x="475" y="-95" font-family="Helvetica,sans-Serif" font-size="10.00" fill="#000000">&lt; Char &gt;</text>
</a>
</g>
</g>
<!-- Node8&#45;&gt;Node15 -->
<g id="edge15" class="edge">
<title>Node8&#45;&gt;Node15</title>
<path fill="none" stroke="#191970" d="M374.0076,-299.4388C375.0697,-298.3444 376.0713,-297.1988 377,-296 423.7656,-235.6337 363.8472,-186.4389 413,-128 416.3618,-124.0031 420.4574,-120.6389 424.925,-117.8084"/>
<polygon fill="#191970" stroke="#191970" points="371.6661,-296.8345 366.25,-305.9404 376.1625,-302.1994 371.6661,-296.8345"/>
</g>
<!-- Node41 -->
<g id="node19" class="node">
<title>Node41</title>
<g id="a_node19"><a xlink:title="STL class. ">
<polygon fill="#ffffff" stroke="#bfbfbf" points="424,-421 424,-451 526,-451 526,-421 424,-421"/>
<text text-anchor="start" x="432" y="-439" font-family="Helvetica,sans-Serif" font-size="10.00" fill="#000000">std::basic_iostream</text>
<text text-anchor="middle" x="475" y="-428" font-family="Helvetica,sans-Serif" font-size="10.00" fill="#000000">&lt; Char &gt;</text>
</a>
</g>
</g>
<!-- Node8&#45;&gt;Node41 -->
<g id="edge18" class="edge">
<title>Node8&#45;&gt;Node41</title>
<path fill="none" stroke="#191970" d="M344.1159,-344.2838C360.0241,-364.5256 385.3693,-393.4402 413,-412 417.9823,-415.3467 423.4986,-418.324 429.1265,-420.9439"/>
<polygon fill="#191970" stroke="#191970" points="346.7668,-341.9894 337.8967,-336.1952 341.2175,-346.2562 346.7668,-341.9894"/>
</g>
<!-- Node29 -->
<g id="node30" class="node">
<title>Node29</title>
<g id="a_node30"><a xlink:title="STL class. ">
<polygon fill="#ffffff" stroke="#bfbfbf" points="414.5,-39 414.5,-69 535.5,-69 535.5,-39 414.5,-39"/>
<text text-anchor="start" x="422.5" y="-57" font-family="Helvetica,sans-Serif" font-size="10.00" fill="#000000">std::basic_istringstream</text>
<text text-anchor="middle" x="475" y="-46" font-family="Helvetica,sans-Serif" font-size="10.00" fill="#000000">&lt; Char &gt;</text>
</a>
</g>
</g>
<!-- Node8&#45;&gt;Node29 -->
<g id="edge29" class="edge">
<title>Node8&#45;&gt;Node29</title>
<path fill="none" stroke="#191970" d="M374.5032,-299.0391C375.387,-298.0667 376.222,-297.0542 377,-296 435.0516,-217.339 351.8354,-155.2655 413,-79 416.1223,-75.1068 419.945,-71.8161 424.1446,-69.0354"/>
<polygon fill="#191970" stroke="#191970" points="372.0975,-296.4939 366.9074,-305.7304 376.7246,-301.7465 372.0975,-296.4939"/>
</g>
<!-- Node32 -->
<g id="node33" class="node">
<title>Node32</title>
<g id="a_node33"><a xlink:title="STL class. ">
<polygon fill="#ffffff" stroke="#bfbfbf" points="441,-.5 441,-19.5 509,-19.5 509,-.5 441,-.5"/>
<text text-anchor="middle" x="475" y="-7.5" font-family="Helvetica,sans-Serif" font-size="10.00" fill="#000000">std::istream</text>
</a>
</g>
</g>
<!-- Node8&#45;&gt;Node32 -->
<g id="edge32" class="edge">
<title>Node8&#45;&gt;Node32</title>
<path fill="none" stroke="#191970" d="M374.5466,-299.0706C375.4175,-298.0889 376.2381,-297.0659 377,-296 446.6305,-198.5866 335.5203,-120.2944 413,-29 419.9932,-20.7599 430.4603,-16.0279 440.8124,-13.3319"/>
<polygon fill="#191970" stroke="#191970" points="372.1335,-296.5332 367.0207,-305.8128 376.8044,-301.747 372.1335,-296.5332"/>
</g>
<!-- Node33 -->
<g id="node34" class="node">
<title>Node33</title>
<g id="a_node34"><a xlink:title="STL class. ">
<polygon fill="#ffffff" stroke="#bfbfbf" points="437,-333.5 437,-352.5 513,-352.5 513,-333.5 437,-333.5"/>
<text text-anchor="middle" x="475" y="-340.5" font-family="Helvetica,sans-Serif" font-size="10.00" fill="#000000">std::wistream</text>
</a>
</g>
</g>
<!-- Node8&#45;&gt;Node33 -->
<g id="edge33" class="edge">
<title>Node8&#45;&gt;Node33</title>
<path fill="none" stroke="#191970" d="M385.8427,-329.7469C403.0538,-332.3053 421.4078,-335.0336 436.9614,-337.3456"/>
<polygon fill="#191970" stroke="#191970" points="386.2769,-326.273 375.8709,-328.2646 385.2476,-333.197 386.2769,-326.273"/>
</g>
<!-- Node16 -->
<g id="node17" class="node">
<title>Node16</title>
<g id="a_node17"><a xlink:title="STL class. ">
<polygon fill="#ffffff" stroke="#bfbfbf" points="597,-126.5 597,-145.5 668,-145.5 668,-126.5 597,-126.5"/>
<text text-anchor="middle" x="632.5" y="-133.5" font-family="Helvetica,sans-Serif" font-size="10.00" fill="#000000">std::ifstream</text>
</a>
</g>
</g>
<!-- Node15&#45;&gt;Node16 -->
<g id="edge16" class="edge">
<title>Node15&#45;&gt;Node16</title>
<path fill="none" stroke="#191970" d="M535.2654,-115.627C555.9836,-119.968 578.5111,-124.688 596.6608,-128.4908"/>
<polygon fill="#191970" stroke="#191970" points="535.7723,-112.1573 525.267,-113.5321 534.3367,-119.0085 535.7723,-112.1573"/>
</g>
<!-- Node17 -->
<g id="node18" class="node">
<title>Node17</title>
<g id="a_node18"><a xlink:title="STL class. ">
<polygon fill="#ffffff" stroke="#bfbfbf" points="593,-88.5 593,-107.5 672,-107.5 672,-88.5 593,-88.5"/>
<text text-anchor="middle" x="632.5" y="-95.5" font-family="Helvetica,sans-Serif" font-size="10.00" fill="#000000">std::wifstream</text>
</a>
</g>
</g>
<!-- Node15&#45;&gt;Node17 -->
<g id="edge17" class="edge">
<title>Node15&#45;&gt;Node17</title>
<path fill="none" stroke="#191970" d="M535.4724,-101.0802C554.7311,-100.4689 575.5335,-99.8085 592.9189,-99.2565"/>
<polygon fill="#191970" stroke="#191970" points="535.1509,-97.5886 525.267,-101.4042 535.3731,-104.5851 535.1509,-97.5886"/>
</g>
<!-- Node42 -->
<g id="node20" class="node">
<title>Node42</title>
<polygon fill="#ffffff" stroke="#bfbfbf" points="583.5,-402 583.5,-432 681.5,-432 681.5,-402 583.5,-402"/>
<text text-anchor="start" x="591.5" y="-420" font-family="Helvetica,sans-Serif" font-size="10.00" fill="#000000">std::basic_fstream</text>
<text text-anchor="middle" x="632.5" y="-409" font-family="Helvetica,sans-Serif" font-size="10.00" fill="#000000">&lt; char &gt;</text>
</g>
<!-- Node41&#45;&gt;Node42 -->
<g id="edge19" class="edge">
<title>Node41&#45;&gt;Node42</title>
<path fill="none" stroke="#191970" d="M536.2573,-428.6102C551.915,-426.7214 568.5444,-424.7153 583.4966,-422.9115"/>
<polygon fill="#191970" stroke="#191970" points="535.6445,-425.1587 526.1357,-429.8312 536.483,-432.1083 535.6445,-425.1587"/>
</g>
<!-- Node43 -->
<g id="node21" class="node">
<title>Node43</title>
<polygon fill="#ffffff" stroke="#bfbfbf" points="583.5,-353 583.5,-383 681.5,-383 681.5,-353 583.5,-353"/>
<text text-anchor="start" x="591.5" y="-371" font-family="Helvetica,sans-Serif" font-size="10.00" fill="#000000">std::basic_fstream</text>
<text text-anchor="middle" x="632.5" y="-360" font-family="Helvetica,sans-Serif" font-size="10.00" fill="#000000">&lt; wchar_t &gt;</text>
</g>
<!-- Node41&#45;&gt;Node43 -->
<g id="edge20" class="edge">
<title>Node41&#45;&gt;Node43</title>
<path fill="none" stroke="#191970" d="M525.2889,-417.107C529.2748,-415.4354 533.2187,-413.7226 537,-412 553.4637,-404.4996 556.6446,-400.7337 573,-393 580.0905,-389.6472 587.7521,-386.2588 595.1423,-383.1049"/>
<polygon fill="#191970" stroke="#191970" points="523.9001,-413.8935 515.9686,-420.9179 526.5495,-420.3728 523.9001,-413.8935"/>
</g>
<!-- Node44 -->
<g id="node22" class="node">
<title>Node44</title>
<polygon fill="#ffffff" stroke="#bfbfbf" points="573,-304 573,-334 692,-334 692,-304 573,-304"/>
<text text-anchor="start" x="581" y="-322" font-family="Helvetica,sans-Serif" font-size="10.00" fill="#000000">std::basic_stringstream</text>
<text text-anchor="middle" x="632.5" y="-311" font-family="Helvetica,sans-Serif" font-size="10.00" fill="#000000">&lt; char &gt;</text>
</g>
<!-- Node41&#45;&gt;Node44 -->
<g id="edge21" class="edge">
<title>Node41&#45;&gt;Node44</title>
<path fill="none" stroke="#191970" d="M532.814,-415.3937C534.2659,-414.3166 535.6655,-413.1861 537,-412 562.5592,-389.2819 547.7664,-367.0792 573,-344 577.134,-340.219 581.9229,-336.9612 586.9532,-334.1666"/>
<polygon fill="#191970" stroke="#191970" points="530.57,-412.6732 524.0145,-420.9964 534.3296,-418.5779 530.57,-412.6732"/>
</g>
<!-- Node45 -->
<g id="node23" class="node">
<title>Node45</title>
<polygon fill="#ffffff" stroke="#bfbfbf" points="573,-255 573,-285 692,-285 692,-255 573,-255"/>
<text text-anchor="start" x="581" y="-273" font-family="Helvetica,sans-Serif" font-size="10.00" fill="#000000">std::basic_stringstream</text>
<text text-anchor="middle" x="632.5" y="-262" font-family="Helvetica,sans-Serif" font-size="10.00" fill="#000000">&lt; wchar_t &gt;</text>
</g>
<!-- Node41&#45;&gt;Node45 -->
<g id="edge22" class="edge">
<title>Node41&#45;&gt;Node45</title>
<path fill="none" stroke="#191970" d="M534.152,-414.806C535.1415,-413.9087 536.0928,-412.9739 537,-412 574.0844,-372.1911 536.4854,-335.3321 573,-295 576.4592,-291.1791 580.5964,-287.9242 585.0562,-285.1552"/>
<polygon fill="#191970" stroke="#191970" points="531.8189,-412.1805 525.913,-420.9766 536.0152,-417.7834 531.8189,-412.1805"/>
</g>
<!-- Node46 -->
<g id="node24" class="node">
<title>Node46</title>
<g id="a_node24"><a xlink:title="STL class. ">
<polygon fill="#ffffff" stroke="#bfbfbf" points="583.5,-500 583.5,-530 681.5,-530 681.5,-500 583.5,-500"/>
<text text-anchor="start" x="591.5" y="-518" font-family="Helvetica,sans-Serif" font-size="10.00" fill="#000000">std::basic_fstream</text>
<text text-anchor="middle" x="632.5" y="-507" font-family="Helvetica,sans-Serif" font-size="10.00" fill="#000000">&lt; Char &gt;</text>
</a>
</g>
</g>
<!-- Node41&#45;&gt;Node46 -->
<g id="edge23" class="edge">
<title>Node41&#45;&gt;Node46</title>
<path fill="none" stroke="#191970" d="M526.884,-455.4815C530.3681,-457.2271 533.7722,-459.0695 537,-461 554.8744,-471.6904 555.1263,-480.3085 573,-491 578.4486,-494.2592 584.4206,-497.2568 590.4129,-499.9478"/>
<polygon fill="#191970" stroke="#191970" points="528.0802,-452.1766 517.5409,-451.0928 525.104,-458.5124 528.0802,-452.1766"/>
</g>
<!-- Node49 -->
<g id="node27" class="node">
<title>Node49</title>
<g id="a_node27"><a xlink:title="STL class. ">
<polygon fill="#ffffff" stroke="#bfbfbf" points="573,-451 573,-481 692,-481 692,-451 573,-451"/>
<text text-anchor="start" x="581" y="-469" font-family="Helvetica,sans-Serif" font-size="10.00" fill="#000000">std::basic_stringstream</text>
<text text-anchor="middle" x="632.5" y="-458" font-family="Helvetica,sans-Serif" font-size="10.00" fill="#000000">&lt; Char &gt;</text>
</a>
</g>
</g>
<!-- Node41&#45;&gt;Node49 -->
<g id="edge26" class="edge">
<title>Node41&#45;&gt;Node49</title>
<path fill="none" stroke="#191970" d="M536.1112,-447.6402C548.1816,-449.9394 560.8349,-452.3495 572.856,-454.6392"/>
<polygon fill="#191970" stroke="#191970" points="536.614,-444.1732 526.1357,-445.7401 535.3042,-451.0495 536.614,-444.1732"/>
</g>
<!-- Node47 -->
<g id="node25" class="node">
<title>Node47</title>
<g id="a_node25"><a xlink:title="STL class. ">
<polygon fill="#ffffff" stroke="#bfbfbf" points="742.5,-540.5 742.5,-559.5 811.5,-559.5 811.5,-540.5 742.5,-540.5"/>
<text text-anchor="middle" x="777" y="-547.5" font-family="Helvetica,sans-Serif" font-size="10.00" fill="#000000">std::fstream</text>
</a>
</g>
</g>
<!-- Node46&#45;&gt;Node47 -->
<g id="edge24" class="edge">
<title>Node46&#45;&gt;Node47</title>
<path fill="none" stroke="#191970" d="M691.8224,-529.3687C709.0545,-533.5426 727.3007,-537.9621 742.4661,-541.6354"/>
<polygon fill="#191970" stroke="#191970" points="692.3675,-525.8996 681.8246,-526.9471 690.7196,-532.7029 692.3675,-525.8996"/>
</g>
<!-- Node48 -->
<g id="node26" class="node">
<title>Node48</title>
<g id="a_node26"><a xlink:title="STL class. ">
<polygon fill="#ffffff" stroke="#bfbfbf" points="738.5,-502.5 738.5,-521.5 815.5,-521.5 815.5,-502.5 738.5,-502.5"/>
<text text-anchor="middle" x="777" y="-509.5" font-family="Helvetica,sans-Serif" font-size="10.00" fill="#000000">std::wfstream</text>
</a>
</g>
</g>
<!-- Node46&#45;&gt;Node48 -->
<g id="edge25" class="edge">
<title>Node46&#45;&gt;Node48</title>
<path fill="none" stroke="#191970" d="M691.9689,-513.7654C707.6367,-513.4401 724.1326,-513.0976 738.382,-512.8018"/>
<polygon fill="#191970" stroke="#191970" points="691.7497,-510.2691 681.8246,-513.976 691.8951,-517.2675 691.7497,-510.2691"/>
</g>
<!-- Node50 -->
<g id="node28" class="node">
<title>Node50</title>
<g id="a_node28"><a xlink:title="STL class. ">
<polygon fill="#ffffff" stroke="#bfbfbf" points="732,-459.5 732,-478.5 822,-478.5 822,-459.5 732,-459.5"/>
<text text-anchor="middle" x="777" y="-466.5" font-family="Helvetica,sans-Serif" font-size="10.00" fill="#000000">std::stringstream</text>
</a>
</g>
</g>
<!-- Node49&#45;&gt;Node50 -->
<g id="edge27" class="edge">
<title>Node49&#45;&gt;Node50</title>
<path fill="none" stroke="#191970" d="M702.4144,-467.4515C712.3553,-467.6579 722.3552,-467.8655 731.6603,-468.0587"/>
<polygon fill="#191970" stroke="#191970" points="702.1785,-463.946 692.1079,-467.2375 702.0331,-470.9444 702.1785,-463.946"/>
</g>
<!-- Node51 -->
<g id="node29" class="node">
<title>Node51</title>
<g id="a_node29"><a xlink:title="STL class. ">
<polygon fill="#ffffff" stroke="#bfbfbf" points="728,-421.5 728,-440.5 826,-440.5 826,-421.5 728,-421.5"/>
<text text-anchor="middle" x="777" y="-428.5" font-family="Helvetica,sans-Serif" font-size="10.00" fill="#000000">std::wstringstream</text>
</a>
</g>
</g>
<!-- Node49&#45;&gt;Node51 -->
<g id="edge28" class="edge">
<title>Node49&#45;&gt;Node51</title>
<path fill="none" stroke="#191970" d="M701.927,-449.1838C714.2338,-446.2029 726.65,-443.1955 737.7443,-440.5083"/>
<polygon fill="#191970" stroke="#191970" points="701.003,-445.8063 692.1079,-451.5621 702.6509,-452.6096 701.003,-445.8063"/>
</g>
<!-- Node30 -->
<g id="node31" class="node">
<title>Node30</title>
<g id="a_node31"><a xlink:title="STL class. ">
<polygon fill="#ffffff" stroke="#bfbfbf" points="586.5,-47.5 586.5,-66.5 678.5,-66.5 678.5,-47.5 586.5,-47.5"/>
<text text-anchor="middle" x="632.5" y="-54.5" font-family="Helvetica,sans-Serif" font-size="10.00" fill="#000000">std::istringstream</text>
</a>
</g>
</g>
<!-- Node29&#45;&gt;Node30 -->
<g id="edge30" class="edge">
<title>Node29&#45;&gt;Node30</title>
<path fill="none" stroke="#191970" d="M546.2411,-55.357C559.8857,-55.6169 573.8338,-55.8825 586.4267,-56.1224"/>
<polygon fill="#191970" stroke="#191970" points="545.9585,-51.851 535.8936,-55.1599 545.8251,-58.8498 545.9585,-51.851"/>
</g>
<!-- Node31 -->
<g id="node32" class="node">
<title>Node31</title>
<g id="a_node32"><a xlink:title="STL class. ">
<polygon fill="#ffffff" stroke="#bfbfbf" points="582.5,-9.5 582.5,-28.5 682.5,-28.5 682.5,-9.5 582.5,-9.5"/>
<text text-anchor="middle" x="632.5" y="-16.5" font-family="Helvetica,sans-Serif" font-size="10.00" fill="#000000">std::wistringstream</text>
</a>
</g>
</g>
<!-- Node29&#45;&gt;Node31 -->
<g id="edge31" class="edge">
<title>Node29&#45;&gt;Node31</title>
<path fill="none" stroke="#191970" d="M546.0343,-38.2146C560.8036,-34.9325 575.9385,-31.5692 589.3339,-28.5925"/>
<polygon fill="#191970" stroke="#191970" points="544.8962,-34.8821 535.8936,-40.4681 546.4148,-41.7154 544.8962,-34.8821"/>
</g>
<!-- Node34&#45;&gt;Node35 -->
<g id="edge35" class="edge">
<title>Node34&#45;&gt;Node35</title>
<path fill="none" stroke="#191970" d="M336.5303,-526.348C349.5288,-495.6841 375.5606,-443.5354 413,-412 417.5271,-408.1868 422.7111,-404.9007 428.1106,-402.0831"/>
<polygon fill="#191970" stroke="#191970" points="333.1843,-525.2825 332.6241,-535.8626 339.6598,-527.9411 333.1843,-525.2825"/>
</g>
<!-- Node34&#45;&gt;Node36 -->
<g id="edge36" class="edge">
<title>Node34&#45;&gt;Node36</title>
<path fill="none" stroke="#191970" d="M366.6274,-531.481C381.1269,-524.5055 397.7213,-516.7148 413,-510 420.5439,-506.6846 428.6722,-503.2852 436.4807,-500.1034"/>
<polygon fill="#191970" stroke="#191970" points="364.914,-528.4218 357.4365,-535.9277 367.9627,-534.7231 364.914,-528.4218"/>
</g>
<!-- Node34&#45;&gt;Node41 -->
<g id="edge41" class="edge">
<title>Node34&#45;&gt;Node41</title>
<path fill="none" stroke="#191970" d="M344.5061,-527.732C360.5056,-507.7973 385.7638,-479.462 413,-461 418.4759,-457.2881 424.5871,-453.9898 430.7791,-451.1049"/>
<polygon fill="#191970" stroke="#191970" points="341.665,-525.6829 338.2373,-535.7079 347.1686,-530.0085 341.665,-525.6829"/>
</g>
<!-- Node37 -->
<g id="node36" class="node">
<title>Node37</title>
<polygon fill="#ffffff" stroke="#bfbfbf" points="423.5,-803 423.5,-833 526.5,-833 526.5,-803 423.5,-803"/>
<text text-anchor="start" x="431.5" y="-821" font-family="Helvetica,sans-Serif" font-size="10.00" fill="#000000">std::basic_ofstream</text>
<text text-anchor="middle" x="475" y="-810" font-family="Helvetica,sans-Serif" font-size="10.00" fill="#000000">&lt; char &gt;</text>
</g>
<!-- Node34&#45;&gt;Node37 -->
<g id="edge37" class="edge">
<title>Node34&#45;&gt;Node37</title>
<path fill="none" stroke="#191970" d="M374.5043,-572.9602C375.3878,-573.9327 376.2224,-574.9455 377,-576 435.2827,-655.0354 351.0564,-717.7999 413,-794 415.9122,-797.5825 419.4281,-800.6314 423.2878,-803.226"/>
<polygon fill="#191970" stroke="#191970" points="376.7266,-570.2534 366.9101,-566.2675 372.0984,-575.5051 376.7266,-570.2534"/>
</g>
<!-- Node38 -->
<g id="node37" class="node">
<title>Node38</title>
<polygon fill="#ffffff" stroke="#bfbfbf" points="423.5,-754 423.5,-784 526.5,-784 526.5,-754 423.5,-754"/>
<text text-anchor="start" x="431.5" y="-772" font-family="Helvetica,sans-Serif" font-size="10.00" fill="#000000">std::basic_ofstream</text>
<text text-anchor="middle" x="475" y="-761" font-family="Helvetica,sans-Serif" font-size="10.00" fill="#000000">&lt; wchar_t &gt;</text>
</g>
<!-- Node34&#45;&gt;Node38 -->
<g id="edge38" class="edge">
<title>Node34&#45;&gt;Node38</title>
<path fill="none" stroke="#191970" d="M374.0095,-572.5597C375.0711,-573.6546 376.072,-574.8007 377,-576 423.995,-636.7384 363.1941,-686.5445 413,-745 415.9943,-748.5143 419.5665,-751.5162 423.463,-754.0803"/>
<polygon fill="#191970" stroke="#191970" points="376.1658,-569.8002 366.2546,-566.0561 371.6677,-575.1637 376.1658,-569.8002"/>
</g>
<!-- Node39 -->
<g id="node38" class="node">
<title>Node39</title>
<polygon fill="#ffffff" stroke="#bfbfbf" points="413,-705 413,-735 537,-735 537,-705 413,-705"/>
<text text-anchor="start" x="421" y="-723" font-family="Helvetica,sans-Serif" font-size="10.00" fill="#000000">std::basic_ostringstream</text>
<text text-anchor="middle" x="475" y="-712" font-family="Helvetica,sans-Serif" font-size="10.00" fill="#000000">&lt; char &gt;</text>
</g>
<!-- Node34&#45;&gt;Node39 -->
<g id="edge39" class="edge">
<title>Node34&#45;&gt;Node39</title>
<path fill="none" stroke="#191970" d="M373.8822,-572.6625C374.9807,-573.7275 376.0239,-574.8395 377,-576 412.8414,-618.6127 375.1897,-655.1243 413,-696 416.1351,-699.3892 419.8041,-702.3053 423.7637,-704.8133"/>
<polygon fill="#191970" stroke="#191970" points="375.9442,-569.8295 365.9554,-566.2975 371.5614,-575.2877 375.9442,-569.8295"/>
</g>
<!-- Node40 -->
<g id="node39" class="node">
<title>Node40</title>
<polygon fill="#ffffff" stroke="#bfbfbf" points="413,-656 413,-686 537,-686 537,-656 413,-656"/>
<text text-anchor="start" x="421" y="-674" font-family="Helvetica,sans-Serif" font-size="10.00" fill="#000000">std::basic_ostringstream</text>
<text text-anchor="middle" x="475" y="-663" font-family="Helvetica,sans-Serif" font-size="10.00" fill="#000000">&lt; wchar_t &gt;</text>
</g>
<!-- Node34&#45;&gt;Node40 -->
<g id="edge40" class="edge">
<title>Node34&#45;&gt;Node40</title>
<path fill="none" stroke="#191970" d="M372.479,-571.9598C374.0654,-573.2423 375.5806,-574.5886 377,-576 402.0877,-600.9472 386.7642,-623.2632 413,-647 416.766,-650.4073 421.0689,-653.3522 425.613,-655.8932"/>
<polygon fill="#191970" stroke="#191970" points="374.2677,-568.9397 364.068,-566.0732 370.2539,-574.6746 374.2677,-568.9397"/>
</g>
<!-- Node52 -->
<g id="node40" class="node">
<title>Node52</title>
<g id="a_node40"><a xlink:title="STL class. ">
<polygon fill="#ffffff" stroke="#bfbfbf" points="423.5,-607 423.5,-637 526.5,-637 526.5,-607 423.5,-607"/>
<text text-anchor="start" x="431.5" y="-625" font-family="Helvetica,sans-Serif" font-size="10.00" fill="#000000">std::basic_ofstream</text>
<text text-anchor="middle" x="475" y="-614" font-family="Helvetica,sans-Serif" font-size="10.00" fill="#000000">&lt; Char &gt;</text>
</a>
</g>
</g>
<!-- Node34&#45;&gt;Node52 -->
<g id="edge42" class="edge">
<title>Node34&#45;&gt;Node52</title>
<path fill="none" stroke="#191970" d="M367.0802,-570.6613C370.4545,-572.4311 373.7982,-574.2254 377,-576 393.4005,-585.09 396.1892,-589.6933 413,-598 419.3122,-601.119 426.1364,-604.1143 432.8704,-606.8678"/>
<polygon fill="#191970" stroke="#191970" points="368.646,-567.5308 358.1531,-566.0643 365.4413,-573.7542 368.646,-567.5308"/>
</g>
<!-- Node55 -->
<g id="node43" class="node">
<title>Node55</title>
<g id="a_node43"><a xlink:title="STL class. ">
<polygon fill="#ffffff" stroke="#bfbfbf" points="413,-558 413,-588 537,-588 537,-558 413,-558"/>
<text text-anchor="start" x="421" y="-576" font-family="Helvetica,sans-Serif" font-size="10.00" fill="#000000">std::basic_ostringstream</text>
<text text-anchor="middle" x="475" y="-565" font-family="Helvetica,sans-Serif" font-size="10.00" fill="#000000">&lt; Char &gt;</text>
</a>
</g>
</g>
<!-- Node34&#45;&gt;Node55 -->
<g id="edge45" class="edge">
<title>Node34&#45;&gt;Node55</title>
<path fill="none" stroke="#191970" d="M387.2537,-559.9566C395.699,-561.212 404.3919,-562.5042 412.8713,-563.7646"/>
<polygon fill="#191970" stroke="#191970" points="387.512,-556.4566 377.106,-558.4482 386.4827,-563.3806 387.512,-556.4566"/>
</g>
<!-- Node58 -->
<g id="node46" class="node">
<title>Node58</title>
<g id="a_node46"><a xlink:title="STL class. ">
<polygon fill="#ffffff" stroke="#bfbfbf" points="439.5,-519.5 439.5,-538.5 510.5,-538.5 510.5,-519.5 439.5,-519.5"/>
<text text-anchor="middle" x="475" y="-526.5" font-family="Helvetica,sans-Serif" font-size="10.00" fill="#000000">std::ostream</text>
</a>
</g>
</g>
<!-- Node34&#45;&gt;Node58 -->
<g id="edge48" class="edge">
<title>Node34&#45;&gt;Node58</title>
<path fill="none" stroke="#191970" d="M387.3655,-542.0268C405.056,-539.3971 423.8232,-536.6074 439.4326,-534.287"/>
<polygon fill="#191970" stroke="#191970" points="386.4827,-538.6194 377.106,-543.5518 387.512,-545.5434 386.4827,-538.6194"/>
</g>
<!-- Node59 -->
<g id="node47" class="node">
<title>Node59</title>
<g id="a_node47"><a xlink:title="STL class. ">
<polygon fill="#ffffff" stroke="#bfbfbf" points="435.5,-852.5 435.5,-871.5 514.5,-871.5 514.5,-852.5 435.5,-852.5"/>
<text text-anchor="middle" x="475" y="-859.5" font-family="Helvetica,sans-Serif" font-size="10.00" fill="#000000">std::wostream</text>
</a>
</g>
</g>
<!-- Node34&#45;&gt;Node59 -->
<g id="edge49" class="edge">
<title>Node34&#45;&gt;Node59</title>
<path fill="none" stroke="#191970" d="M374.5466,-572.9294C375.4175,-573.9111 376.2381,-574.9341 377,-576 446.6305,-673.4134 335.5203,-751.7056 413,-843 418.7549,-849.781 426.8622,-854.1862 435.322,-857.0362"/>
<polygon fill="#191970" stroke="#191970" points="376.8044,-570.253 367.0207,-566.1872 372.1335,-575.4668 376.8044,-570.253"/>
</g>
<!-- Node53 -->
<g id="node41" class="node">
<title>Node53</title>
<g id="a_node41"><a xlink:title="STL class. ">
<polygon fill="#ffffff" stroke="#bfbfbf" points="595.5,-663.5 595.5,-682.5 669.5,-682.5 669.5,-663.5 595.5,-663.5"/>
<text text-anchor="middle" x="632.5" y="-670.5" font-family="Helvetica,sans-Serif" font-size="10.00" fill="#000000">std::ofstream</text>
</a>
</g>
</g>
<!-- Node52&#45;&gt;Node53 -->
<g id="edge43" class="edge">
<title>Node52&#45;&gt;Node53</title>
<path fill="none" stroke="#191970" d="M530.7084,-640.2602C544.5225,-644.769 559.2946,-649.5742 573,-654 582.5967,-657.099 593.0732,-660.4539 602.5238,-663.4698"/>
<polygon fill="#191970" stroke="#191970" points="531.4404,-636.8174 520.8479,-637.0391 529.2668,-643.4713 531.4404,-636.8174"/>
</g>
<!-- Node54 -->
<g id="node42" class="node">
<title>Node54</title>
<g id="a_node42"><a xlink:title="STL class. ">
<polygon fill="#ffffff" stroke="#bfbfbf" points="591.5,-625.5 591.5,-644.5 673.5,-644.5 673.5,-625.5 591.5,-625.5"/>
<text text-anchor="middle" x="632.5" y="-632.5" font-family="Helvetica,sans-Serif" font-size="10.00" fill="#000000">std::wofstream</text>
</a>
</g>
</g>
<!-- Node52&#45;&gt;Node54 -->
<g id="edge44" class="edge">
<title>Node52&#45;&gt;Node54</title>
<path fill="none" stroke="#191970" d="M536.6001,-627.0844C554.9418,-628.5984 574.5881,-630.22 591.2923,-631.5987"/>
<polygon fill="#191970" stroke="#191970" points="536.8254,-623.5912 526.5714,-626.2567 536.2496,-630.5675 536.8254,-623.5912"/>
</g>
<!-- Node56 -->
<g id="node44" class="node">
<title>Node56</title>
<g id="a_node44"><a xlink:title="STL class. ">
<polygon fill="#ffffff" stroke="#bfbfbf" points="585,-587.5 585,-606.5 680,-606.5 680,-587.5 585,-587.5"/>
<text text-anchor="middle" x="632.5" y="-594.5" font-family="Helvetica,sans-Serif" font-size="10.00" fill="#000000">std::ostringstream</text>
</a>
</g>
</g>
<!-- Node55&#45;&gt;Node56 -->
<g id="edge46" class="edge">
<title>Node55&#45;&gt;Node56</title>
<path fill="none" stroke="#191970" d="M547.3587,-584.0261C560.057,-585.9611 572.9785,-587.9301 584.7906,-589.73"/>
<polygon fill="#191970" stroke="#191970" points="547.6613,-580.5319 537.2482,-582.4854 546.6068,-587.452 547.6613,-580.5319"/>
</g>
<!-- Node57 -->
<g id="node45" class="node">
<title>Node57</title>
<g id="a_node45"><a xlink:title="STL class. ">
<polygon fill="#ffffff" stroke="#bfbfbf" points="581,-549.5 581,-568.5 684,-568.5 684,-549.5 581,-549.5"/>
<text text-anchor="middle" x="632.5" y="-556.5" font-family="Helvetica,sans-Serif" font-size="10.00" fill="#000000">std::wostringstream</text>
</a>
</g>
</g>
<!-- Node55&#45;&gt;Node57 -->
<g id="edge47" class="edge">
<title>Node55&#45;&gt;Node57</title>
<path fill="none" stroke="#191970" d="M547.5063,-566.555C558.7576,-565.5549 570.1799,-564.5396 580.8468,-563.5914"/>
<polygon fill="#191970" stroke="#191970" points="546.899,-563.0951 537.2482,-567.4668 547.5188,-570.0676 546.899,-563.0951"/>
</g>
</g>
</svg>
