<?xml version="1.0" encoding="UTF-8" standalone="no"?>
<!DOCTYPE svg PUBLIC "-//W3C//DTD SVG 1.1//EN"
 "http://www.w3.org/Graphics/SVG/1.1/DTD/svg11.dtd">
<!-- Generated by graphviz version 2.40.1 (20161225.0304)
 -->
<!-- Title: DataStorage::getResults Pages: 1 -->
<svg width="410pt" height="28pt"
 viewBox="0.00 0.00 410.00 28.00" xmlns="http://www.w3.org/2000/svg" xmlns:xlink="http://www.w3.org/1999/xlink">
<g id="graph0" class="graph" transform="scale(1 1) rotate(0) translate(4 24)">
<title>DataStorage::getResults</title>
<polygon fill="#ffffff" stroke="transparent" points="-4,4 -4,-24 406,-24 406,4 -4,4"/>
<!-- Node16 -->
<g id="node1" class="node">
<title>Node16</title>
<polygon fill="#bfbfbf" stroke="#000000" points="0,-.5 0,-19.5 125,-19.5 125,-.5 0,-.5"/>
<text text-anchor="middle" x="62.5" y="-7.5" font-family="Helvetica,sans-Serif" font-size="10.00" fill="#000000">DataStorage::getResults</text>
</g>
<!-- Node17 -->
<g id="node2" class="node">
<title>Node17</title>
<g id="a_node2"><a xlink:href="../../d0/dcd/class_rest_a_p_i.html#a8c833316cd57b897b64f12c694063199" target="_top" xlink:title="Get the Handler object. ">
<polygon fill="#ffffff" stroke="#000000" points="161,-.5 161,-19.5 268,-19.5 268,-.5 161,-.5"/>
<text text-anchor="middle" x="214.5" y="-7.5" font-family="Helvetica,sans-Serif" font-size="10.00" fill="#000000">RestAPI::getHandler</text>
</a>
</g>
</g>
<!-- Node16&#45;&gt;Node17 -->
<g id="edge1" class="edge">
<title>Node16&#45;&gt;Node17</title>
<path fill="none" stroke="#191970" d="M135.2159,-10C143.7906,-10 152.4211,-10 160.6698,-10"/>
<polygon fill="#191970" stroke="#191970" points="135.2018,-6.5001 125.2018,-10 135.2017,-13.5001 135.2018,-6.5001"/>
</g>
<!-- Node18 -->
<g id="node3" class="node">
<title>Node18</title>
<g id="a_node3"><a xlink:href="../../d0/dcd/class_rest_a_p_i.html#ab61327d4e8fd3e38355f653650e6ac94" target="_top" xlink:title="perform API setup ">
<polygon fill="#ffffff" stroke="#000000" points="304,-.5 304,-19.5 402,-19.5 402,-.5 304,-.5"/>
<text text-anchor="middle" x="353" y="-7.5" font-family="Helvetica,sans-Serif" font-size="10.00" fill="#000000">RestAPI::setupApi</text>
</a>
</g>
</g>
<!-- Node17&#45;&gt;Node18 -->
<g id="edge2" class="edge">
<title>Node17&#45;&gt;Node18</title>
<path fill="none" stroke="#191970" d="M278.057,-10C286.6568,-10 295.3746,-10 303.6749,-10"/>
<polygon fill="#191970" stroke="#191970" points="278.0478,-6.5001 268.0477,-10 278.0477,-13.5001 278.0478,-6.5001"/>
</g>
</g>
</svg>
