<?xml version="1.0" encoding="UTF-8" standalone="no"?>
<!DOCTYPE svg PUBLIC "-//W3C//DTD SVG 1.1//EN"
 "http://www.w3.org/Graphics/SVG/1.1/DTD/svg11.dtd">
<!-- Generated by graphviz version 2.40.1 (20161225.0304)
 -->
<!-- Title: AbstractAPI::setRunFlag Pages: 1 -->
<svg width="459pt" height="66pt"
 viewBox="0.00 0.00 459.00 66.00" xmlns="http://www.w3.org/2000/svg" xmlns:xlink="http://www.w3.org/1999/xlink">
<g id="graph0" class="graph" transform="scale(1 1) rotate(0) translate(4 62)">
<title>AbstractAPI::setRunFlag</title>
<polygon fill="#ffffff" stroke="transparent" points="-4,4 -4,-62 455,-62 455,4 -4,4"/>
<!-- Node36 -->
<g id="node1" class="node">
<title>Node36</title>
<polygon fill="#bfbfbf" stroke="#000000" points="0,-19.5 0,-38.5 126,-38.5 126,-19.5 0,-19.5"/>
<text text-anchor="middle" x="63" y="-26.5" font-family="Helvetica,sans-Serif" font-size="10.00" fill="#000000">AbstractAPI::setRunFlag</text>
</g>
<!-- Node37 -->
<g id="node2" class="node">
<title>Node37</title>
<g id="a_node2"><a xlink:href="../../d3/d5f/class_abstract_a_p_i.html#a9549b687af4bbeea35907cf5297d69c9" target="_top" xlink:title="common implementation of API start procedure ">
<polygon fill="#ffffff" stroke="#000000" points="162,-38.5 162,-57.5 257,-57.5 257,-38.5 162,-38.5"/>
<text text-anchor="middle" x="209.5" y="-45.5" font-family="Helvetica,sans-Serif" font-size="10.00" fill="#000000">AbstractAPI::start</text>
</a>
</g>
</g>
<!-- Node36&#45;&gt;Node37 -->
<g id="edge1" class="edge">
<title>Node36&#45;&gt;Node37</title>
<path fill="none" stroke="#191970" d="M136.5083,-38.5335C145.1375,-39.6526 153.7619,-40.7712 161.9024,-41.8269"/>
<polygon fill="#191970" stroke="#191970" points="136.7721,-35.0385 126.405,-37.2232 135.8717,-41.9803 136.7721,-35.0385"/>
</g>
<!-- Node40 -->
<g id="node5" class="node">
<title>Node40</title>
<g id="a_node5"><a xlink:href="../../d3/d5f/class_abstract_a_p_i.html#a3dc02a0aa489246ab40b17354da90288" target="_top" xlink:title="stop API and deallocate resources ">
<polygon fill="#ffffff" stroke="#000000" points="162,-.5 162,-19.5 257,-19.5 257,-.5 162,-.5"/>
<text text-anchor="middle" x="209.5" y="-7.5" font-family="Helvetica,sans-Serif" font-size="10.00" fill="#000000">AbstractAPI::stop</text>
</a>
</g>
</g>
<!-- Node36&#45;&gt;Node40 -->
<g id="edge4" class="edge">
<title>Node36&#45;&gt;Node40</title>
<path fill="none" stroke="#191970" d="M136.5083,-19.4665C145.1375,-18.3474 153.7619,-17.2288 161.9024,-16.1731"/>
<polygon fill="#191970" stroke="#191970" points="135.8717,-16.0197 126.405,-20.7768 136.7721,-22.9615 135.8717,-16.0197"/>
</g>
<!-- Node38 -->
<g id="node3" class="node">
<title>Node38</title>
<g id="a_node3"><a xlink:href="../../de/d6b/class_application.html#a7fbff10e3b66542f549f6c693ec4e676" target="_top" xlink:title="Application::run">
<polygon fill="#ffffff" stroke="#000000" points="293,-19.5 293,-38.5 377,-38.5 377,-19.5 293,-19.5"/>
<text text-anchor="middle" x="335" y="-26.5" font-family="Helvetica,sans-Serif" font-size="10.00" fill="#000000">Application::run</text>
</a>
</g>
</g>
<!-- Node37&#45;&gt;Node38 -->
<g id="edge2" class="edge">
<title>Node37&#45;&gt;Node38</title>
<path fill="none" stroke="#191970" d="M267.2575,-39.2558C275.8179,-37.9598 284.5029,-36.645 292.67,-35.4085"/>
<polygon fill="#191970" stroke="#191970" points="266.6676,-35.8052 257.3042,-40.7627 267.7155,-42.7263 266.6676,-35.8052"/>
</g>
<!-- Node39 -->
<g id="node4" class="node">
<title>Node39</title>
<g id="a_node4"><a xlink:href="../../df/d0a/main_8cpp.html#a840291bc02cba5474a4cb46a9b9566fe" target="_top" xlink:title="main">
<polygon fill="#ffffff" stroke="#000000" points="413,-19.5 413,-38.5 451,-38.5 451,-19.5 413,-19.5"/>
<text text-anchor="middle" x="432" y="-26.5" font-family="Helvetica,sans-Serif" font-size="10.00" fill="#000000">main</text>
</a>
</g>
</g>
<!-- Node38&#45;&gt;Node39 -->
<g id="edge3" class="edge">
<title>Node38&#45;&gt;Node39</title>
<path fill="none" stroke="#191970" d="M387.5386,-29C396.6287,-29 405.5282,-29 412.948,-29"/>
<polygon fill="#191970" stroke="#191970" points="387.2635,-25.5001 377.2634,-29 387.2634,-32.5001 387.2635,-25.5001"/>
</g>
<!-- Node40&#45;&gt;Node38 -->
<g id="edge5" class="edge">
<title>Node40&#45;&gt;Node38</title>
<path fill="none" stroke="#191970" d="M267.2575,-18.7442C275.8179,-20.0402 284.5029,-21.355 292.67,-22.5915"/>
<polygon fill="#191970" stroke="#191970" points="267.7155,-15.2737 257.3042,-17.2373 266.6676,-22.1948 267.7155,-15.2737"/>
</g>
</g>
</svg>
