<?xml version="1.0" encoding="UTF-8" standalone="no"?>
<!DOCTYPE svg PUBLIC "-//W3C//DTD SVG 1.1//EN"
 "http://www.w3.org/Graphics/SVG/1.1/DTD/svg11.dtd">
<!-- Generated by graphviz version 2.40.1 (20161225.0304)
 -->
<!-- Title: AbstractAPI::threadBody Pages: 1 -->
<svg width="295pt" height="66pt"
 viewBox="0.00 0.00 295.00 66.00" xmlns="http://www.w3.org/2000/svg" xmlns:xlink="http://www.w3.org/1999/xlink">
<g id="graph0" class="graph" transform="scale(1 1) rotate(0) translate(4 62)">
<title>AbstractAPI::threadBody</title>
<polygon fill="#ffffff" stroke="transparent" points="-4,4 -4,-62 291,-62 291,4 -4,4"/>
<!-- Node66 -->
<g id="node1" class="node">
<title>Node66</title>
<polygon fill="#bfbfbf" stroke="#000000" points="0,-19.5 0,-38.5 125,-38.5 125,-19.5 0,-19.5"/>
<text text-anchor="middle" x="62.5" y="-26.5" font-family="Helvetica,sans-Serif" font-size="10.00" fill="#000000">AbstractAPI::threadBody</text>
</g>
<!-- Node67 -->
<g id="node2" class="node">
<title>Node67</title>
<g id="a_node2"><a xlink:href="../../d3/d5f/class_abstract_a_p_i.html#a3a221fec07fb867640f701bf3113bee2" target="_top" xlink:title="safely returns flag if thread should continue to work ">
<polygon fill="#ffffff" stroke="#000000" points="161,-38.5 161,-57.5 287,-57.5 287,-38.5 161,-38.5"/>
<text text-anchor="middle" x="224" y="-45.5" font-family="Helvetica,sans-Serif" font-size="10.00" fill="#000000">AbstractAPI::getRunFlag</text>
</a>
</g>
</g>
<!-- Node66&#45;&gt;Node67 -->
<g id="edge1" class="edge">
<title>Node66&#45;&gt;Node67</title>
<path fill="none" stroke="#191970" d="M125.4026,-36.4003C133.6511,-37.3707 142.1612,-38.3719 150.5647,-39.3606"/>
<polygon fill="#191970" stroke="#191970" points="150.3971,-42.8649 160.7376,-40.5574 151.2151,-35.9128 150.3971,-42.8649"/>
</g>
<!-- Node68 -->
<g id="node3" class="node">
<title>Node68</title>
<g id="a_node3"><a xlink:href="../../d3/d5f/class_abstract_a_p_i.html#afb7effe52a40bc6ba22120797fd6133b" target="_top" xlink:title="derived API will implement its runtime ">
<polygon fill="#ffffff" stroke="#000000" points="179.5,-.5 179.5,-19.5 268.5,-19.5 268.5,-.5 179.5,-.5"/>
<text text-anchor="middle" x="224" y="-7.5" font-family="Helvetica,sans-Serif" font-size="10.00" fill="#000000">AbstractAPI::run</text>
</a>
</g>
</g>
<!-- Node66&#45;&gt;Node68 -->
<g id="edge2" class="edge">
<title>Node66&#45;&gt;Node68</title>
<path fill="none" stroke="#191970" d="M125.4026,-21.5997C139.7989,-19.906 154.992,-18.1186 169.0248,-16.4677"/>
<polygon fill="#191970" stroke="#191970" points="169.4874,-19.9375 179.0099,-15.293 168.6694,-12.9854 169.4874,-19.9375"/>
</g>
</g>
</svg>
