<?xml version="1.0" encoding="UTF-8" standalone="no"?>
<!DOCTYPE svg PUBLIC "-//W3C//DTD SVG 1.1//EN"
 "http://www.w3.org/Graphics/SVG/1.1/DTD/svg11.dtd">
<!-- Generated by graphviz version 2.40.1 (20161225.0304)
 -->
<!-- Title: AbstractAPI::start Pages: 1 -->
<svg width="427pt" height="123pt"
 viewBox="0.00 0.00 427.00 123.00" xmlns="http://www.w3.org/2000/svg" xmlns:xlink="http://www.w3.org/1999/xlink">
<g id="graph0" class="graph" transform="scale(1 1) rotate(0) translate(4 119)">
<title>AbstractAPI::start</title>
<polygon fill="#ffffff" stroke="transparent" points="-4,4 -4,-119 423,-119 423,4 -4,4"/>
<!-- Node41 -->
<g id="node1" class="node">
<title>Node41</title>
<polygon fill="#bfbfbf" stroke="#000000" points="0,-57.5 0,-76.5 95,-76.5 95,-57.5 0,-57.5"/>
<text text-anchor="middle" x="47.5" y="-64.5" font-family="Helvetica,sans-Serif" font-size="10.00" fill="#000000">AbstractAPI::start</text>
</g>
<!-- Node42 -->
<g id="node2" class="node">
<title>Node42</title>
<g id="a_node2"><a xlink:href="../../d3/d5f/class_abstract_a_p_i.html#ada2e62db474de8b3aa0ea04e1d759d2e" target="_top" xlink:title="safely sets flag if thread should continue to work ">
<polygon fill="#ffffff" stroke="#000000" points="131,-95.5 131,-114.5 257,-114.5 257,-95.5 131,-95.5"/>
<text text-anchor="middle" x="194" y="-102.5" font-family="Helvetica,sans-Serif" font-size="10.00" fill="#000000">AbstractAPI::setRunFlag</text>
</a>
</g>
</g>
<!-- Node41&#45;&gt;Node42 -->
<g id="edge1" class="edge">
<title>Node41&#45;&gt;Node42</title>
<path fill="none" stroke="#191970" d="M84.4681,-76.589C103.6262,-81.5583 127.2142,-87.6767 147.5878,-92.9613"/>
<polygon fill="#191970" stroke="#191970" points="146.7392,-96.357 157.2977,-95.4799 148.4968,-89.5812 146.7392,-96.357"/>
</g>
<!-- Node43 -->
<g id="node3" class="node">
<title>Node43</title>
<g id="a_node3"><a xlink:href="../../d3/d5f/class_abstract_a_p_i.html#aaa52851cc8c8e3b49f134b323b9a4507" target="_top" xlink:title="deviced APIs will implement setup procedures ">
<polygon fill="#ffffff" stroke="#000000" points="137,-57.5 137,-76.5 251,-76.5 251,-57.5 137,-57.5"/>
<text text-anchor="middle" x="194" y="-64.5" font-family="Helvetica,sans-Serif" font-size="10.00" fill="#000000">AbstractAPI::setupApi</text>
</a>
</g>
</g>
<!-- Node41&#45;&gt;Node43 -->
<g id="edge2" class="edge">
<title>Node41&#45;&gt;Node43</title>
<path fill="none" stroke="#191970" d="M95.0644,-67C105.1947,-67 116.0754,-67 126.7831,-67"/>
<polygon fill="#191970" stroke="#191970" points="126.9661,-70.5001 136.966,-67 126.966,-63.5001 126.9661,-70.5001"/>
</g>
<!-- Node44 -->
<g id="node4" class="node">
<title>Node44</title>
<g id="a_node4"><a xlink:href="../../d3/d5f/class_abstract_a_p_i.html#a68737cfef2126eddc4f9f2ba4158e4d9" target="_top" xlink:title="thread body representation &#45; a simple loop with no delay ">
<polygon fill="#ffffff" stroke="#000000" points="131.5,-19.5 131.5,-38.5 256.5,-38.5 256.5,-19.5 131.5,-19.5"/>
<text text-anchor="middle" x="194" y="-26.5" font-family="Helvetica,sans-Serif" font-size="10.00" fill="#000000">AbstractAPI::threadBody</text>
</a>
</g>
</g>
<!-- Node41&#45;&gt;Node44 -->
<g id="edge3" class="edge">
<title>Node41&#45;&gt;Node44</title>
<path fill="none" stroke="#191970" d="M84.4681,-57.411C103.6262,-52.4417 127.2142,-46.3233 147.5878,-41.0387"/>
<polygon fill="#191970" stroke="#191970" points="148.4968,-44.4188 157.2977,-38.5201 146.7392,-37.643 148.4968,-44.4188"/>
</g>
<!-- Node45 -->
<g id="node5" class="node">
<title>Node45</title>
<g id="a_node5"><a xlink:href="../../d3/d5f/class_abstract_a_p_i.html#a3a221fec07fb867640f701bf3113bee2" target="_top" xlink:title="safely returns flag if thread should continue to work ">
<polygon fill="#ffffff" stroke="#000000" points="293,-38.5 293,-57.5 419,-57.5 419,-38.5 293,-38.5"/>
<text text-anchor="middle" x="356" y="-45.5" font-family="Helvetica,sans-Serif" font-size="10.00" fill="#000000">AbstractAPI::getRunFlag</text>
</a>
</g>
</g>
<!-- Node44&#45;&gt;Node45 -->
<g id="edge4" class="edge">
<title>Node44&#45;&gt;Node45</title>
<path fill="none" stroke="#191970" d="M256.6334,-36.3459C265.2088,-37.3516 274.074,-38.3914 282.8167,-39.4168"/>
<polygon fill="#191970" stroke="#191970" points="282.6591,-42.9222 292.9988,-40.611 283.4746,-35.9699 282.6591,-42.9222"/>
</g>
<!-- Node46 -->
<g id="node6" class="node">
<title>Node46</title>
<g id="a_node6"><a xlink:href="../../d3/d5f/class_abstract_a_p_i.html#afb7effe52a40bc6ba22120797fd6133b" target="_top" xlink:title="derived API will implement its runtime ">
<polygon fill="#ffffff" stroke="#000000" points="311.5,-.5 311.5,-19.5 400.5,-19.5 400.5,-.5 311.5,-.5"/>
<text text-anchor="middle" x="356" y="-7.5" font-family="Helvetica,sans-Serif" font-size="10.00" fill="#000000">AbstractAPI::run</text>
</a>
</g>
</g>
<!-- Node44&#45;&gt;Node46 -->
<g id="edge5" class="edge">
<title>Node44&#45;&gt;Node46</title>
<path fill="none" stroke="#191970" d="M256.6334,-21.6541C271.2494,-19.9399 286.7075,-18.1269 300.9653,-16.4547"/>
<polygon fill="#191970" stroke="#191970" points="301.5817,-19.9065 311.1059,-15.2654 300.7662,-12.9541 301.5817,-19.9065"/>
</g>
</g>
</svg>
