<?xml version="1.0" encoding="UTF-8" standalone="no"?>
<!DOCTYPE svg PUBLIC "-//W3C//DTD SVG 1.1//EN"
 "http://www.w3.org/Graphics/SVG/1.1/DTD/svg11.dtd">
<!-- Generated by graphviz version 2.40.1 (20161225.0304)
 -->
<!-- Title: AbstractAPI::threadBody Pages: 1 -->
<svg width="458pt" height="28pt"
 viewBox="0.00 0.00 458.00 28.00" xmlns="http://www.w3.org/2000/svg" xmlns:xlink="http://www.w3.org/1999/xlink">
<g id="graph0" class="graph" transform="scale(1 1) rotate(0) translate(4 24)">
<title>AbstractAPI::threadBody</title>
<polygon fill="#ffffff" stroke="transparent" points="-4,4 -4,-24 454,-24 454,4 -4,4"/>
<!-- Node69 -->
<g id="node1" class="node">
<title>Node69</title>
<polygon fill="#bfbfbf" stroke="#000000" points="0,-.5 0,-19.5 125,-19.5 125,-.5 0,-.5"/>
<text text-anchor="middle" x="62.5" y="-7.5" font-family="Helvetica,sans-Serif" font-size="10.00" fill="#000000">AbstractAPI::threadBody</text>
</g>
<!-- Node70 -->
<g id="node2" class="node">
<title>Node70</title>
<g id="a_node2"><a xlink:href="../../d3/d5f/class_abstract_a_p_i.html#a9549b687af4bbeea35907cf5297d69c9" target="_top" xlink:title="common implementation of API start procedure ">
<polygon fill="#ffffff" stroke="#000000" points="161,-.5 161,-19.5 256,-19.5 256,-.5 161,-.5"/>
<text text-anchor="middle" x="208.5" y="-7.5" font-family="Helvetica,sans-Serif" font-size="10.00" fill="#000000">AbstractAPI::start</text>
</a>
</g>
</g>
<!-- Node69&#45;&gt;Node70 -->
<g id="edge1" class="edge">
<title>Node69&#45;&gt;Node70</title>
<path fill="none" stroke="#191970" d="M135.3659,-10C143.9965,-10 152.6295,-10 160.7825,-10"/>
<polygon fill="#191970" stroke="#191970" points="135.2645,-6.5001 125.2645,-10 135.2644,-13.5001 135.2645,-6.5001"/>
</g>
<!-- Node71 -->
<g id="node3" class="node">
<title>Node71</title>
<g id="a_node3"><a xlink:href="../../de/d6b/class_application.html#a7fbff10e3b66542f549f6c693ec4e676" target="_top" xlink:title="Application::run">
<polygon fill="#ffffff" stroke="#000000" points="292,-.5 292,-19.5 376,-19.5 376,-.5 292,-.5"/>
<text text-anchor="middle" x="334" y="-7.5" font-family="Helvetica,sans-Serif" font-size="10.00" fill="#000000">Application::run</text>
</a>
</g>
</g>
<!-- Node70&#45;&gt;Node71 -->
<g id="edge2" class="edge">
<title>Node70&#45;&gt;Node71</title>
<path fill="none" stroke="#191970" d="M266.5367,-10C275.0066,-10 283.5917,-10 291.67,-10"/>
<polygon fill="#191970" stroke="#191970" points="266.3042,-6.5001 256.3042,-10 266.3041,-13.5001 266.3042,-6.5001"/>
</g>
<!-- Node72 -->
<g id="node4" class="node">
<title>Node72</title>
<g id="a_node4"><a xlink:href="../../df/d0a/main_8cpp.html#a840291bc02cba5474a4cb46a9b9566fe" target="_top" xlink:title="main">
<polygon fill="#ffffff" stroke="#000000" points="412,-.5 412,-19.5 450,-19.5 450,-.5 412,-.5"/>
<text text-anchor="middle" x="431" y="-7.5" font-family="Helvetica,sans-Serif" font-size="10.00" fill="#000000">main</text>
</a>
</g>
</g>
<!-- Node71&#45;&gt;Node72 -->
<g id="edge3" class="edge">
<title>Node71&#45;&gt;Node72</title>
<path fill="none" stroke="#191970" d="M386.5386,-10C395.6287,-10 404.5282,-10 411.948,-10"/>
<polygon fill="#191970" stroke="#191970" points="386.2635,-6.5001 376.2634,-10 386.2634,-13.5001 386.2635,-6.5001"/>
</g>
</g>
</svg>
