<?xml version="1.0" encoding="UTF-8" standalone="no"?>
<!DOCTYPE svg PUBLIC "-//W3C//DTD SVG 1.1//EN"
 "http://www.w3.org/Graphics/SVG/1.1/DTD/svg11.dtd">
<!-- Generated by graphviz version 2.40.1 (20161225.0304)
 -->
<!-- Title: AbstractAPI::isValidJSON Pages: 1 -->
<svg width="423pt" height="28pt"
 viewBox="0.00 0.00 423.00 28.00" xmlns="http://www.w3.org/2000/svg" xmlns:xlink="http://www.w3.org/1999/xlink">
<g id="graph0" class="graph" transform="scale(1 1) rotate(0) translate(4 24)">
<title>AbstractAPI::isValidJSON</title>
<polygon fill="#ffffff" stroke="transparent" points="-4,4 -4,-24 419,-24 419,4 -4,4"/>
<!-- Node15 -->
<g id="node1" class="node">
<title>Node15</title>
<polygon fill="#bfbfbf" stroke="#000000" points="0,-.5 0,-19.5 132,-19.5 132,-.5 0,-.5"/>
<text text-anchor="middle" x="66" y="-7.5" font-family="Helvetica,sans-Serif" font-size="10.00" fill="#000000">AbstractAPI::isValidJSON</text>
</g>
<!-- Node16 -->
<g id="node2" class="node">
<title>Node16</title>
<g id="a_node2"><a xlink:href="../../d0/dcd/class_rest_a_p_i.html#a84de7abd0de9d4b9998f33de4c517386" target="_top" xlink:title="HTTP POST method handler. ">
<polygon fill="#ffffff" stroke="#000000" points="168,-.5 168,-19.5 281,-19.5 281,-.5 168,-.5"/>
<text text-anchor="middle" x="224.5" y="-7.5" font-family="Helvetica,sans-Serif" font-size="10.00" fill="#000000">RestAPI::postHandler</text>
</a>
</g>
</g>
<!-- Node15&#45;&gt;Node16 -->
<g id="edge1" class="edge">
<title>Node15&#45;&gt;Node16</title>
<path fill="none" stroke="#191970" d="M142.5232,-10C150.9422,-10 159.4023,-10 167.5228,-10"/>
<polygon fill="#191970" stroke="#191970" points="142.2999,-6.5001 132.2999,-10 142.2999,-13.5001 142.2999,-6.5001"/>
</g>
<!-- Node17 -->
<g id="node3" class="node">
<title>Node17</title>
<g id="a_node3"><a xlink:href="../../d0/dcd/class_rest_a_p_i.html#ab61327d4e8fd3e38355f653650e6ac94" target="_top" xlink:title="perform API setup ">
<polygon fill="#ffffff" stroke="#000000" points="317,-.5 317,-19.5 415,-19.5 415,-.5 317,-.5"/>
<text text-anchor="middle" x="366" y="-7.5" font-family="Helvetica,sans-Serif" font-size="10.00" fill="#000000">RestAPI::setupApi</text>
</a>
</g>
</g>
<!-- Node16&#45;&gt;Node17 -->
<g id="edge2" class="edge">
<title>Node16&#45;&gt;Node17</title>
<path fill="none" stroke="#191970" d="M291.327,-10C299.9785,-10 308.7084,-10 316.9972,-10"/>
<polygon fill="#191970" stroke="#191970" points="291.2382,-6.5001 281.2381,-10 291.2381,-13.5001 291.2382,-6.5001"/>
</g>
</g>
</svg>
