<?xml version="1.0" encoding="UTF-8" standalone="no"?>
<!DOCTYPE svg PUBLIC "-//W3C//DTD SVG 1.1//EN"
 "http://www.w3.org/Graphics/SVG/1.1/DTD/svg11.dtd">
<!-- Generated by graphviz version 2.40.1 (20161225.0304)
 -->
<!-- Title: AbstractAPI::stop Pages: 1 -->
<svg width="271pt" height="66pt"
 viewBox="0.00 0.00 271.00 66.00" xmlns="http://www.w3.org/2000/svg" xmlns:xlink="http://www.w3.org/1999/xlink">
<g id="graph0" class="graph" transform="scale(1 1) rotate(0) translate(4 62)">
<title>AbstractAPI::stop</title>
<polygon fill="#ffffff" stroke="transparent" points="-4,4 -4,-62 267,-62 267,4 -4,4"/>
<!-- Node50 -->
<g id="node1" class="node">
<title>Node50</title>
<polygon fill="#bfbfbf" stroke="#000000" points="0,-19.5 0,-38.5 95,-38.5 95,-19.5 0,-19.5"/>
<text text-anchor="middle" x="47.5" y="-26.5" font-family="Helvetica,sans-Serif" font-size="10.00" fill="#000000">AbstractAPI::stop</text>
</g>
<!-- Node51 -->
<g id="node2" class="node">
<title>Node51</title>
<g id="a_node2"><a xlink:href="../../d3/d5f/class_abstract_a_p_i.html#ada2e62db474de8b3aa0ea04e1d759d2e" target="_top" xlink:title="safely sets flag if thread should continue to work ">
<polygon fill="#ffffff" stroke="#000000" points="134,-38.5 134,-57.5 260,-57.5 260,-38.5 134,-38.5"/>
<text text-anchor="middle" x="197" y="-45.5" font-family="Helvetica,sans-Serif" font-size="10.00" fill="#000000">AbstractAPI::setRunFlag</text>
</a>
</g>
</g>
<!-- Node50&#45;&gt;Node51 -->
<g id="edge1" class="edge">
<title>Node50&#45;&gt;Node51</title>
<path fill="none" stroke="#191970" d="M95.2138,-35.064C104.3466,-36.2247 114.1018,-37.4644 123.8215,-38.6997"/>
<polygon fill="#191970" stroke="#191970" points="123.5485,-42.1931 133.91,-39.9819 124.4311,-35.249 123.5485,-42.1931"/>
</g>
<!-- Node52 -->
<g id="node3" class="node">
<title>Node52</title>
<g id="a_node3"><a xlink:href="../../d3/d5f/class_abstract_a_p_i.html#a0dc4dff87790e5009577d6a6153c7faf" target="_top" xlink:title="derived APIs will implement shutdown procedures ">
<polygon fill="#ffffff" stroke="#000000" points="131,-.5 131,-19.5 263,-19.5 263,-.5 131,-.5"/>
<text text-anchor="middle" x="197" y="-7.5" font-family="Helvetica,sans-Serif" font-size="10.00" fill="#000000">AbstractAPI::shutdownApi</text>
</a>
</g>
</g>
<!-- Node50&#45;&gt;Node52 -->
<g id="edge2" class="edge">
<title>Node50&#45;&gt;Node52</title>
<path fill="none" stroke="#191970" d="M95.2138,-22.936C103.3826,-21.8979 112.0493,-20.7964 120.7431,-19.6915"/>
<polygon fill="#191970" stroke="#191970" points="121.4544,-23.1294 130.9333,-18.3964 120.5718,-16.1852 121.4544,-23.1294"/>
</g>
</g>
</svg>
