<?xml version="1.0" encoding="UTF-8" standalone="no"?>
<!DOCTYPE svg PUBLIC "-//W3C//DTD SVG 1.1//EN"
 "http://www.w3.org/Graphics/SVG/1.1/DTD/svg11.dtd">
<!-- Generated by graphviz version 2.40.1 (20161225.0304)
 -->
<!-- Title: AbstractAPI::pushNewMessage Pages: 1 -->
<svg width="448pt" height="28pt"
 viewBox="0.00 0.00 448.00 28.00" xmlns="http://www.w3.org/2000/svg" xmlns:xlink="http://www.w3.org/1999/xlink">
<g id="graph0" class="graph" transform="scale(1 1) rotate(0) translate(4 24)">
<title>AbstractAPI::pushNewMessage</title>
<polygon fill="#ffffff" stroke="transparent" points="-4,4 -4,-24 444,-24 444,4 -4,4"/>
<!-- Node26 -->
<g id="node1" class="node">
<title>Node26</title>
<polygon fill="#bfbfbf" stroke="#000000" points="0,-.5 0,-19.5 157,-19.5 157,-.5 0,-.5"/>
<text text-anchor="middle" x="78.5" y="-7.5" font-family="Helvetica,sans-Serif" font-size="10.00" fill="#000000">AbstractAPI::pushNewMessage</text>
</g>
<!-- Node27 -->
<g id="node2" class="node">
<title>Node27</title>
<g id="a_node2"><a xlink:href="../../d0/dcd/class_rest_a_p_i.html#a84de7abd0de9d4b9998f33de4c517386" target="_top" xlink:title="HTTP POST method handler. ">
<polygon fill="#ffffff" stroke="#000000" points="193,-.5 193,-19.5 306,-19.5 306,-.5 193,-.5"/>
<text text-anchor="middle" x="249.5" y="-7.5" font-family="Helvetica,sans-Serif" font-size="10.00" fill="#000000">RestAPI::postHandler</text>
</a>
</g>
</g>
<!-- Node26&#45;&gt;Node27 -->
<g id="edge1" class="edge">
<title>Node26&#45;&gt;Node27</title>
<path fill="none" stroke="#191970" d="M167.5541,-10C176.1237,-10 184.6457,-10 192.7747,-10"/>
<polygon fill="#191970" stroke="#191970" points="167.4929,-6.5001 157.4929,-10 167.4929,-13.5001 167.4929,-6.5001"/>
</g>
<!-- Node28 -->
<g id="node3" class="node">
<title>Node28</title>
<g id="a_node3"><a xlink:href="../../d0/dcd/class_rest_a_p_i.html#ab61327d4e8fd3e38355f653650e6ac94" target="_top" xlink:title="perform API setup ">
<polygon fill="#ffffff" stroke="#000000" points="342,-.5 342,-19.5 440,-19.5 440,-.5 342,-.5"/>
<text text-anchor="middle" x="391" y="-7.5" font-family="Helvetica,sans-Serif" font-size="10.00" fill="#000000">RestAPI::setupApi</text>
</a>
</g>
</g>
<!-- Node27&#45;&gt;Node28 -->
<g id="edge2" class="edge">
<title>Node27&#45;&gt;Node28</title>
<path fill="none" stroke="#191970" d="M316.327,-10C324.9785,-10 333.7084,-10 341.9972,-10"/>
<polygon fill="#191970" stroke="#191970" points="316.2382,-6.5001 306.2381,-10 316.2381,-13.5001 316.2382,-6.5001"/>
</g>
</g>
</svg>
