<?xml version="1.0" encoding="UTF-8" standalone="no"?>
<!DOCTYPE svg PUBLIC "-//W3C//DTD SVG 1.1//EN"
 "http://www.w3.org/Graphics/SVG/1.1/DTD/svg11.dtd">
<!-- Generated by graphviz version 2.40.1 (20161225.0304)
 -->
<!-- Title: AbstractAPI::shutdownApi Pages: 1 -->
<svg width="465pt" height="28pt"
 viewBox="0.00 0.00 465.00 28.00" xmlns="http://www.w3.org/2000/svg" xmlns:xlink="http://www.w3.org/1999/xlink">
<g id="graph0" class="graph" transform="scale(1 1) rotate(0) translate(4 24)">
<title>AbstractAPI::shutdownApi</title>
<polygon fill="#ffffff" stroke="transparent" points="-4,4 -4,-24 461,-24 461,4 -4,4"/>
<!-- Node47 -->
<g id="node1" class="node">
<title>Node47</title>
<polygon fill="#bfbfbf" stroke="#000000" points="0,-.5 0,-19.5 132,-19.5 132,-.5 0,-.5"/>
<text text-anchor="middle" x="66" y="-7.5" font-family="Helvetica,sans-Serif" font-size="10.00" fill="#000000">AbstractAPI::shutdownApi</text>
</g>
<!-- Node48 -->
<g id="node2" class="node">
<title>Node48</title>
<g id="a_node2"><a xlink:href="../../d3/d5f/class_abstract_a_p_i.html#a3dc02a0aa489246ab40b17354da90288" target="_top" xlink:title="stop API and deallocate resources ">
<polygon fill="#ffffff" stroke="#000000" points="168,-.5 168,-19.5 263,-19.5 263,-.5 168,-.5"/>
<text text-anchor="middle" x="215.5" y="-7.5" font-family="Helvetica,sans-Serif" font-size="10.00" fill="#000000">AbstractAPI::stop</text>
</a>
</g>
</g>
<!-- Node47&#45;&gt;Node48 -->
<g id="edge1" class="edge">
<title>Node47&#45;&gt;Node48</title>
<path fill="none" stroke="#191970" d="M142.2164,-10C150.9261,-10 159.6093,-10 167.7927,-10"/>
<polygon fill="#191970" stroke="#191970" points="142.0081,-6.5001 132.0081,-10 142.008,-13.5001 142.0081,-6.5001"/>
</g>
<!-- Node49 -->
<g id="node3" class="node">
<title>Node49</title>
<g id="a_node3"><a xlink:href="../../de/d6b/class_application.html#a7fbff10e3b66542f549f6c693ec4e676" target="_top" xlink:title="Application::run">
<polygon fill="#ffffff" stroke="#000000" points="299,-.5 299,-19.5 383,-19.5 383,-.5 299,-.5"/>
<text text-anchor="middle" x="341" y="-7.5" font-family="Helvetica,sans-Serif" font-size="10.00" fill="#000000">Application::run</text>
</a>
</g>
</g>
<!-- Node48&#45;&gt;Node49 -->
<g id="edge2" class="edge">
<title>Node48&#45;&gt;Node49</title>
<path fill="none" stroke="#191970" d="M273.5367,-10C282.0066,-10 290.5917,-10 298.67,-10"/>
<polygon fill="#191970" stroke="#191970" points="273.3042,-6.5001 263.3042,-10 273.3041,-13.5001 273.3042,-6.5001"/>
</g>
<!-- Node50 -->
<g id="node4" class="node">
<title>Node50</title>
<g id="a_node4"><a xlink:href="../../df/d0a/main_8cpp.html#a840291bc02cba5474a4cb46a9b9566fe" target="_top" xlink:title="main">
<polygon fill="#ffffff" stroke="#000000" points="419,-.5 419,-19.5 457,-19.5 457,-.5 419,-.5"/>
<text text-anchor="middle" x="438" y="-7.5" font-family="Helvetica,sans-Serif" font-size="10.00" fill="#000000">main</text>
</a>
</g>
</g>
<!-- Node49&#45;&gt;Node50 -->
<g id="edge3" class="edge">
<title>Node49&#45;&gt;Node50</title>
<path fill="none" stroke="#191970" d="M393.5386,-10C402.6287,-10 411.5282,-10 418.948,-10"/>
<polygon fill="#191970" stroke="#191970" points="393.2635,-6.5001 383.2634,-10 393.2634,-13.5001 393.2635,-6.5001"/>
</g>
</g>
</svg>
