<?xml version="1.0" encoding="UTF-8" standalone="no"?>
<!DOCTYPE svg PUBLIC "-//W3C//DTD SVG 1.1//EN"
 "http://www.w3.org/Graphics/SVG/1.1/DTD/svg11.dtd">
<!-- Generated by graphviz version 2.40.1 (20161225.0304)
 -->
<!-- Title: AbstractAPI::setupApi Pages: 1 -->
<svg width="447pt" height="28pt"
 viewBox="0.00 0.00 447.00 28.00" xmlns="http://www.w3.org/2000/svg" xmlns:xlink="http://www.w3.org/1999/xlink">
<g id="graph0" class="graph" transform="scale(1 1) rotate(0) translate(4 24)">
<title>AbstractAPI::setupApi</title>
<polygon fill="#ffffff" stroke="transparent" points="-4,4 -4,-24 443,-24 443,4 -4,4"/>
<!-- Node42 -->
<g id="node1" class="node">
<title>Node42</title>
<polygon fill="#bfbfbf" stroke="#000000" points="0,-.5 0,-19.5 114,-19.5 114,-.5 0,-.5"/>
<text text-anchor="middle" x="57" y="-7.5" font-family="Helvetica,sans-Serif" font-size="10.00" fill="#000000">AbstractAPI::setupApi</text>
</g>
<!-- Node43 -->
<g id="node2" class="node">
<title>Node43</title>
<g id="a_node2"><a xlink:href="../../d3/d5f/class_abstract_a_p_i.html#a9549b687af4bbeea35907cf5297d69c9" target="_top" xlink:title="common implementation of API start procedure ">
<polygon fill="#ffffff" stroke="#000000" points="150,-.5 150,-19.5 245,-19.5 245,-.5 150,-.5"/>
<text text-anchor="middle" x="197.5" y="-7.5" font-family="Helvetica,sans-Serif" font-size="10.00" fill="#000000">AbstractAPI::start</text>
</a>
</g>
</g>
<!-- Node42&#45;&gt;Node43 -->
<g id="edge1" class="edge">
<title>Node42&#45;&gt;Node43</title>
<path fill="none" stroke="#191970" d="M124.2376,-10C132.8842,-10 141.5918,-10 149.8351,-10"/>
<polygon fill="#191970" stroke="#191970" points="124.1468,-6.5001 114.1467,-10 124.1467,-13.5001 124.1468,-6.5001"/>
</g>
<!-- Node44 -->
<g id="node3" class="node">
<title>Node44</title>
<g id="a_node3"><a xlink:href="../../de/d6b/class_application.html#a7fbff10e3b66542f549f6c693ec4e676" target="_top" xlink:title="Application::run">
<polygon fill="#ffffff" stroke="#000000" points="281,-.5 281,-19.5 365,-19.5 365,-.5 281,-.5"/>
<text text-anchor="middle" x="323" y="-7.5" font-family="Helvetica,sans-Serif" font-size="10.00" fill="#000000">Application::run</text>
</a>
</g>
</g>
<!-- Node43&#45;&gt;Node44 -->
<g id="edge2" class="edge">
<title>Node43&#45;&gt;Node44</title>
<path fill="none" stroke="#191970" d="M255.5367,-10C264.0066,-10 272.5917,-10 280.67,-10"/>
<polygon fill="#191970" stroke="#191970" points="255.3042,-6.5001 245.3042,-10 255.3041,-13.5001 255.3042,-6.5001"/>
</g>
<!-- Node45 -->
<g id="node4" class="node">
<title>Node45</title>
<g id="a_node4"><a xlink:href="../../df/d0a/main_8cpp.html#a840291bc02cba5474a4cb46a9b9566fe" target="_top" xlink:title="main">
<polygon fill="#ffffff" stroke="#000000" points="401,-.5 401,-19.5 439,-19.5 439,-.5 401,-.5"/>
<text text-anchor="middle" x="420" y="-7.5" font-family="Helvetica,sans-Serif" font-size="10.00" fill="#000000">main</text>
</a>
</g>
</g>
<!-- Node44&#45;&gt;Node45 -->
<g id="edge3" class="edge">
<title>Node44&#45;&gt;Node45</title>
<path fill="none" stroke="#191970" d="M375.5386,-10C384.6287,-10 393.5282,-10 400.948,-10"/>
<polygon fill="#191970" stroke="#191970" points="375.2635,-6.5001 365.2634,-10 375.2634,-13.5001 375.2635,-6.5001"/>
</g>
</g>
</svg>
