<?xml version="1.0" encoding="UTF-8" standalone="no"?>
<!DOCTYPE svg PUBLIC "-//W3C//DTD SVG 1.1//EN"
 "http://www.w3.org/Graphics/SVG/1.1/DTD/svg11.dtd">
<!-- Generated by graphviz version 2.40.1 (20161225.0304)
 -->
<!-- Title: device_simulator.random_boolean Pages: 1 -->
<!--zoomable 187 -->
<svg id="main" version="1.1" xmlns="http://www.w3.org/2000/svg" xmlns:xlink="http://www.w3.org/1999/xlink" xml:space="preserve" onload="init(evt)">
<style type="text/css"><![CDATA[
.edge:hover path { stroke: red; }
.edge:hover polygon { stroke: red; fill: red; }
]]></style>
<script type="text/javascript"><![CDATA[
var edges = document.getElementsByTagName('g');
if (edges && edges.length) {
  for (var i=0;i<edges.length;i++) {
    if (edges[i].id.substr(0,4)=='edge') {
      edges[i].setAttribute('class','edge');
    }
  }
}
]]></script>
        <defs>
                <circle id="rim" cx="0" cy="0" r="7"/>
                <circle id="rim2" cx="0" cy="0" r="3.5"/>
                <g id="zoomPlus">
                        <use xlink:href="#rim" fill="#404040">
                                <set attributeName="fill" to="#808080" begin="zoomplus.mouseover" end="zoomplus.mouseout"/>
                        </use>
                        <path d="M-4,0h8M0,-4v8" fill="none" stroke="white" stroke-width="1.5" pointer-events="none"/>
                </g>
                <g id="zoomMin">
                        <use xlink:href="#rim" fill="#404040">
                                <set attributeName="fill" to="#808080" begin="zoomminus.mouseover" end="zoomminus.mouseout"/>
                        </use>
                        <path d="M-4,0h8" fill="none" stroke="white" stroke-width="1.5" pointer-events="none"/>
                </g>
                <g id="dirArrow">
                        <path fill="none" stroke="white" stroke-width="1.5" d="M0,-3.0v7 M-2.5,-0.5L0,-3.0L2.5,-0.5"/>
                </g>
               <g id="resetDef">
                       <use xlink:href="#rim2" fill="#404040">
                               <set attributeName="fill" to="#808080" begin="reset.mouseover" end="reset.mouseout"/>
                       </use>
               </g>
        </defs>

<script type="text/javascript">
var viewWidth = 535;
var viewHeight = 187;
var sectionId = 'dynsection-0';
</script>
<script xlink:href="../../svgpan.js"/>
<svg id="graph" class="graph">
<g id="viewport">
<title>device_simulator.random_boolean</title>
<polygon fill="#ffffff" stroke="transparent" points="-4,4 -4,-183 531,-183 531,4 -4,4"/>
<!-- Node1 -->
<g id="node1" class="node">
<title>Node1</title>
<polygon fill="#bfbfbf" stroke="#000000" points="0,-79.5 0,-109.5 125,-109.5 125,-79.5 0,-79.5"/>
<text text-anchor="start" x="8" y="-97.5" font-family="Helvetica,sans-Serif" font-size="10.00" fill="#000000">device_simulator.random</text>
<text text-anchor="middle" x="62.5" y="-86.5" font-family="Helvetica,sans-Serif" font-size="10.00" fill="#000000">_boolean</text>
</g>
<!-- Node2 -->
<g id="node2" class="node">
<title>Node2</title>
<g id="a_node2"><a xlink:href="../../df/d08/classdevice__simulator_1_1_device.html#a05fef977bb7810e268f25b79cfedc9de" target="_top" xlink:title="device_simulator.Device.\l__generate_current_measurement">
<polygon fill="#ffffff" stroke="#000000" points="162,-148.5 162,-178.5 326,-178.5 326,-148.5 162,-148.5"/>
<text text-anchor="start" x="170" y="-166.5" font-family="Helvetica,sans-Serif" font-size="10.00" fill="#000000">device_simulator.Device.</text>
<text text-anchor="middle" x="244" y="-155.5" font-family="Helvetica,sans-Serif" font-size="10.00" fill="#000000">__generate_current_measurement</text>
</a>
</g>
</g>
<!-- Node1&#45;&gt;Node2 -->
<g id="edge1" class="edge">
<title>Node1&#45;&gt;Node2</title>
<path fill="none" stroke="#191970" d="M109.1652,-113.3102C125.5172,-119.8128 144.033,-127.0764 161,-133.5 174.1832,-138.4911 188.6104,-143.7693 201.685,-148.4837"/>
<polygon fill="#191970" stroke="#191970" points="110.4006,-110.0349 99.8155,-109.5816 107.8076,-116.5369 110.4006,-110.0349"/>
</g>
<!-- Node3 -->
<g id="node3" class="node">
<title>Node3</title>
<g id="a_node3"><a xlink:href="../../df/d08/classdevice__simulator_1_1_device.html#adf7758acdc7d2e831cc3f9275abe9fcc" target="_top" xlink:title="device_simulator.Device.generate\l_message">
<polygon fill="#ffffff" stroke="#000000" points="363,-79.5 363,-109.5 527,-109.5 527,-79.5 363,-79.5"/>
<text text-anchor="start" x="371" y="-97.5" font-family="Helvetica,sans-Serif" font-size="10.00" fill="#000000">device_simulator.Device.generate</text>
<text text-anchor="middle" x="445" y="-86.5" font-family="Helvetica,sans-Serif" font-size="10.00" fill="#000000">_message</text>
</a>
</g>
</g>
<!-- Node1&#45;&gt;Node3 -->
<g id="edge7" class="edge">
<title>Node1&#45;&gt;Node3</title>
<path fill="none" stroke="#191970" d="M135.1635,-99.4273C143.8664,-99.8692 152.6304,-100.2453 161,-100.5 234.7436,-102.7439 253.246,-102.3739 327,-100.5 338.5859,-100.2056 350.8054,-99.7489 362.8146,-99.2159"/>
<polygon fill="#191970" stroke="#191970" points="135.1759,-95.923 125.0025,-98.8816 134.8004,-102.9129 135.1759,-95.923"/>
</g>
<!-- Node4 -->
<g id="node4" class="node">
<title>Node4</title>
<g id="a_node4"><a xlink:href="../../df/d08/classdevice__simulator_1_1_device.html#a5260bbe263665106b72ac295b5d50f53" target="_top" xlink:title="device_simulator.Device.\l__generate_temperature\l_measurement">
<polygon fill="#ffffff" stroke="#000000" points="180.5,-50 180.5,-91 307.5,-91 307.5,-50 180.5,-50"/>
<text text-anchor="start" x="188.5" y="-79" font-family="Helvetica,sans-Serif" font-size="10.00" fill="#000000">device_simulator.Device.</text>
<text text-anchor="start" x="188.5" y="-68" font-family="Helvetica,sans-Serif" font-size="10.00" fill="#000000">__generate_temperature</text>
<text text-anchor="middle" x="244" y="-57" font-family="Helvetica,sans-Serif" font-size="10.00" fill="#000000">_measurement</text>
</a>
</g>
</g>
<!-- Node1&#45;&gt;Node4 -->
<g id="edge3" class="edge">
<title>Node1&#45;&gt;Node4</title>
<path fill="none" stroke="#191970" d="M135.3929,-84.8613C150.2767,-82.8932 165.8277,-80.8368 180.3578,-78.9155"/>
<polygon fill="#191970" stroke="#191970" points="134.671,-81.4262 125.2162,-86.207 135.5887,-88.3658 134.671,-81.4262"/>
</g>
<!-- Node5 -->
<g id="node5" class="node">
<title>Node5</title>
<g id="a_node5"><a xlink:href="../../df/d08/classdevice__simulator_1_1_device.html#afd28b25f2bfaf0a8826f5f4f78c1eec1" target="_top" xlink:title="device_simulator.Device.\l__generate_voltage_measurement">
<polygon fill="#ffffff" stroke="#000000" points="161,-.5 161,-30.5 327,-30.5 327,-.5 161,-.5"/>
<text text-anchor="start" x="169" y="-18.5" font-family="Helvetica,sans-Serif" font-size="10.00" fill="#000000">device_simulator.Device.</text>
<text text-anchor="middle" x="244" y="-7.5" font-family="Helvetica,sans-Serif" font-size="10.00" fill="#000000">__generate_voltage_measurement</text>
</a>
</g>
</g>
<!-- Node1&#45;&gt;Node5 -->
<g id="edge5" class="edge">
<title>Node1&#45;&gt;Node5</title>
<path fill="none" stroke="#191970" d="M95.2267,-74.3035C113.9972,-63.3003 138.2799,-50.0262 161,-40.5 169.6047,-36.8922 178.9099,-33.5655 188.0715,-30.5954"/>
<polygon fill="#191970" stroke="#191970" points="93.2956,-71.3797 86.4859,-79.4964 96.8709,-77.3978 93.2956,-71.3797"/>
</g>
<!-- Node2&#45;&gt;Node3 -->
<g id="edge2" class="edge">
<title>Node2&#45;&gt;Node3</title>
<path fill="none" stroke="#191970" d="M297.8415,-145.0171C330.1171,-133.9374 370.6445,-120.025 400.9926,-109.607"/>
<polygon fill="#191970" stroke="#191970" points="296.4321,-141.8004 288.1103,-148.3577 298.705,-148.4211 296.4321,-141.8004"/>
</g>
<!-- Node4&#45;&gt;Node3 -->
<g id="edge4" class="edge">
<title>Node4&#45;&gt;Node3</title>
<path fill="none" stroke="#191970" d="M317.5968,-79.2877C332.2547,-81.0379 347.7368,-82.8865 362.6657,-84.669"/>
<polygon fill="#191970" stroke="#191970" points="317.9421,-75.8041 307.5977,-78.0938 317.1121,-82.7548 317.9421,-75.8041"/>
</g>
<!-- Node5&#45;&gt;Node3 -->
<g id="edge6" class="edge">
<title>Node5&#45;&gt;Node3</title>
<path fill="none" stroke="#191970" d="M307.588,-33.6775C314.1855,-35.8536 320.7565,-38.1437 327,-40.5 357.5634,-52.0345 391.3605,-67.8267 414.9229,-79.3529"/>
<polygon fill="#191970" stroke="#191970" points="308.5291,-30.3037 297.9378,-30.5763 306.3874,-36.968 308.5291,-30.3037"/>
</g>
</g>
</svg>
        <g id="navigator" transform="translate(0 0)" fill="#404254">
                <rect fill="#f2f5e9" fill-opacity="0.5" stroke="#606060" stroke-width=".5" x="0" y="0" width="60" height="60"/>
                <use id="zoomplus" xlink:href="#zoomPlus" x="17" y="9" onmousedown="handleZoom(evt,'in')"/>
                <use id="zoomminus" xlink:href="#zoomMin" x="42" y="9" onmousedown="handleZoom(evt,'out')"/>
                <use id="reset" xlink:href="#resetDef" x="30" y="36" onmousedown="handleReset()"/>
                <g id="arrowUp" xlink:href="#dirArrow" transform="translate(30 24)" onmousedown="handlePan(0,-1)">
                  <use xlink:href="#rim" fill="#404040">
                        <set attributeName="fill" to="#808080" begin="arrowUp.mouseover" end="arrowUp.mouseout"/>
                  </use>
                  <path fill="none" stroke="white" stroke-width="1.5" d="M0,-3.0v7 M-2.5,-0.5L0,-3.0L2.5,-0.5"/>
                </g>
                <g id="arrowRight" xlink:href="#dirArrow" transform="rotate(90) translate(36 -43)" onmousedown="handlePan(1,0)">
                  <use xlink:href="#rim" fill="#404040">
                        <set attributeName="fill" to="#808080" begin="arrowRight.mouseover" end="arrowRight.mouseout"/>
                  </use>
                  <path fill="none" stroke="white" stroke-width="1.5" d="M0,-3.0v7 M-2.5,-0.5L0,-3.0L2.5,-0.5"/>
                </g>
                <g id="arrowDown" xlink:href="#dirArrow" transform="rotate(180) translate(-30 -48)" onmousedown="handlePan(0,1)">
                  <use xlink:href="#rim" fill="#404040">
                        <set attributeName="fill" to="#808080" begin="arrowDown.mouseover" end="arrowDown.mouseout"/>
                  </use>
                  <path fill="none" stroke="white" stroke-width="1.5" d="M0,-3.0v7 M-2.5,-0.5L0,-3.0L2.5,-0.5"/>
                </g>
                <g id="arrowLeft" xlink:href="#dirArrow" transform="rotate(270) translate(-36 17)" onmousedown="handlePan(-1,0)">
                  <use xlink:href="#rim" fill="#404040">
                        <set attributeName="fill" to="#808080" begin="arrowLeft.mouseover" end="arrowLeft.mouseout"/>
                  </use>
                  <path fill="none" stroke="white" stroke-width="1.5" d="M0,-3.0v7 M-2.5,-0.5L0,-3.0L2.5,-0.5"/>
                </g>
        </g>
        <svg viewBox="0 0 15 15" width="100%" height="30px" preserveAspectRatio="xMaxYMin meet">
         <g id="arrow_out" transform="scale(0.3 0.3)">
          <a xlink:href="namespacedevice__simulator_a62123025d5c9e9fb2f623db438487cc3_icgraph_org.svg" target="_base">
           <rect id="button" ry="5" rx="5" y="6" x="6" height="38" width="38"
                fill="#f2f5e9" fill-opacity="0.5" stroke="#606060" stroke-width="1.0"/>
           <path id="arrow"
             d="M 11.500037,31.436501 C 11.940474,20.09759 22.043105,11.32322 32.158766,21.979434 L 37.068811,17.246167 C 37.068811,17.246167 37.088388,32 37.088388,32 L 22.160133,31.978069 C 22.160133,31.978069 26.997745,27.140456 26.997745,27.140456 C 18.528582,18.264221 13.291696,25.230495 11.500037,31.436501 z"
             style="fill:#404040;"/>
          </a>
         </g>
        </svg>
</svg>
