<?xml version="1.0" encoding="UTF-8" standalone="no"?>
<!DOCTYPE svg PUBLIC "-//W3C//DTD SVG 1.1//EN"
 "http://www.w3.org/Graphics/SVG/1.1/DTD/svg11.dtd">
<!-- Generated by graphviz version 2.40.1 (20161225.0304)
 -->
<!-- Title: src/liblogger/Logger.cpp Pages: 1 -->
<svg width="552pt" height="140pt"
 viewBox="0.00 0.00 552.00 140.00" xmlns="http://www.w3.org/2000/svg" xmlns:xlink="http://www.w3.org/1999/xlink">
<g id="graph0" class="graph" transform="scale(1 1) rotate(0) translate(4 136)">
<title>src/liblogger/Logger.cpp</title>
<polygon fill="#ffffff" stroke="transparent" points="-4,4 -4,-136 548,-136 548,4 -4,4"/>
<!-- Node0 -->
<g id="node1" class="node">
<title>Node0</title>
<polygon fill="#bfbfbf" stroke="#000000" points="187.5,-112.5 187.5,-131.5 307.5,-131.5 307.5,-112.5 187.5,-112.5"/>
<text text-anchor="middle" x="247.5" y="-119.5" font-family="Helvetica,sans-Serif" font-size="10.00" fill="#000000">src/liblogger/Logger.cpp</text>
</g>
<!-- Node1 -->
<g id="node2" class="node">
<title>Node1</title>
<g id="a_node2"><a xlink:href="../../d3/de3/_logger_8hpp.html" target="_top" xlink:title="Logger.hpp">
<polygon fill="#ffffff" stroke="#000000" points="0,-56.5 0,-75.5 65,-75.5 65,-56.5 0,-56.5"/>
<text text-anchor="middle" x="32.5" y="-63.5" font-family="Helvetica,sans-Serif" font-size="10.00" fill="#000000">Logger.hpp</text>
</a>
</g>
</g>
<!-- Node0&#45;&gt;Node1 -->
<g id="edge1" class="edge">
<title>Node0&#45;&gt;Node1</title>
<path fill="none" stroke="#191970" d="M210.5402,-112.3733C172.8776,-102.5635 114.5327,-87.3667 74.9867,-77.0663"/>
<polygon fill="#191970" stroke="#191970" points="75.6721,-73.6281 65.1128,-74.4945 73.9077,-80.4021 75.6721,-73.6281"/>
</g>
<!-- Node2 -->
<g id="node3" class="node">
<title>Node2</title>
<polygon fill="#ffffff" stroke="#bfbfbf" points="39.5,-.5 39.5,-19.5 85.5,-19.5 85.5,-.5 39.5,-.5"/>
<text text-anchor="middle" x="62.5" y="-7.5" font-family="Helvetica,sans-Serif" font-size="10.00" fill="#000000">stdio.h</text>
</g>
<!-- Node0&#45;&gt;Node2 -->
<g id="edge5" class="edge">
<title>Node0&#45;&gt;Node2</title>
<path fill="none" stroke="#191970" d="M197.339,-112.4262C170.3668,-105.5121 137.5922,-94.1202 112.5,-76 95.1008,-63.4353 80.9901,-43.0785 72.25,-28.2915"/>
<polygon fill="#191970" stroke="#191970" points="75.2623,-26.5077 67.3014,-19.5166 69.165,-29.9462 75.2623,-26.5077"/>
</g>
<!-- Node3 -->
<g id="node4" class="node">
<title>Node3</title>
<polygon fill="#ffffff" stroke="#bfbfbf" points="121.5,-56.5 121.5,-75.5 169.5,-75.5 169.5,-56.5 121.5,-56.5"/>
<text text-anchor="middle" x="145.5" y="-63.5" font-family="Helvetica,sans-Serif" font-size="10.00" fill="#000000">stdlib.h</text>
</g>
<!-- Node0&#45;&gt;Node3 -->
<g id="edge3" class="edge">
<title>Node0&#45;&gt;Node3</title>
<path fill="none" stroke="#191970" d="M229.733,-112.2455C213.7905,-103.4928 190.1741,-90.527 172.0011,-80.5496"/>
<polygon fill="#191970" stroke="#191970" points="173.5137,-77.3873 163.0634,-75.6427 170.1448,-83.5233 173.5137,-77.3873"/>
</g>
<!-- Node4 -->
<g id="node5" class="node">
<title>Node4</title>
<polygon fill="#ffffff" stroke="#bfbfbf" points="187.5,-56.5 187.5,-75.5 239.5,-75.5 239.5,-56.5 187.5,-56.5"/>
<text text-anchor="middle" x="213.5" y="-63.5" font-family="Helvetica,sans-Serif" font-size="10.00" fill="#000000">stdarg.h</text>
</g>
<!-- Node0&#45;&gt;Node4 -->
<g id="edge4" class="edge">
<title>Node0&#45;&gt;Node4</title>
<path fill="none" stroke="#191970" d="M241.5777,-112.2455C236.8973,-104.5367 230.2327,-93.5598 224.5711,-84.2348"/>
<polygon fill="#191970" stroke="#191970" points="227.5361,-82.3741 219.3545,-75.6427 221.5525,-86.007 227.5361,-82.3741"/>
</g>
<!-- Node5 -->
<g id="node6" class="node">
<title>Node5</title>
<polygon fill="#ffffff" stroke="#bfbfbf" points="258,-56.5 258,-75.5 307,-75.5 307,-56.5 258,-56.5"/>
<text text-anchor="middle" x="282.5" y="-63.5" font-family="Helvetica,sans-Serif" font-size="10.00" fill="#000000">string.h</text>
</g>
<!-- Node0&#45;&gt;Node5 -->
<g id="edge6" class="edge">
<title>Node0&#45;&gt;Node5</title>
<path fill="none" stroke="#191970" d="M253.5965,-112.2455C258.4145,-104.5367 265.2751,-93.5598 271.1032,-84.2348"/>
<polygon fill="#191970" stroke="#191970" points="274.1413,-85.9777 276.4733,-75.6427 268.2053,-82.2677 274.1413,-85.9777"/>
</g>
<!-- Node6 -->
<g id="node7" class="node">
<title>Node6</title>
<polygon fill="#ffffff" stroke="#bfbfbf" points="325,-56.5 325,-75.5 382,-75.5 382,-56.5 325,-56.5"/>
<text text-anchor="middle" x="353.5" y="-63.5" font-family="Helvetica,sans-Serif" font-size="10.00" fill="#000000">pthread.h</text>
</g>
<!-- Node0&#45;&gt;Node6 -->
<g id="edge7" class="edge">
<title>Node0&#45;&gt;Node6</title>
<path fill="none" stroke="#191970" d="M265.9638,-112.2455C282.6074,-103.4527 307.2993,-90.4079 326.2192,-80.4125"/>
<polygon fill="#191970" stroke="#191970" points="328.0408,-83.4086 335.2478,-75.6427 324.7709,-77.2193 328.0408,-83.4086"/>
</g>
<!-- Node7 -->
<g id="node8" class="node">
<title>Node7</title>
<polygon fill="#ffffff" stroke="#bfbfbf" points="400.5,-56.5 400.5,-75.5 474.5,-75.5 474.5,-56.5 400.5,-56.5"/>
<text text-anchor="middle" x="437.5" y="-63.5" font-family="Helvetica,sans-Serif" font-size="10.00" fill="#000000">sys/syscall.h</text>
</g>
<!-- Node0&#45;&gt;Node7 -->
<g id="edge8" class="edge">
<title>Node0&#45;&gt;Node7</title>
<path fill="none" stroke="#191970" d="M280.1622,-112.3733C312.0298,-102.9807 360.6531,-88.6496 395.407,-78.4064"/>
<polygon fill="#191970" stroke="#191970" points="396.6615,-81.6855 405.264,-75.5011 394.6825,-74.9711 396.6615,-81.6855"/>
</g>
<!-- Node8 -->
<g id="node9" class="node">
<title>Node8</title>
<polygon fill="#ffffff" stroke="#bfbfbf" points="493,-56.5 493,-75.5 544,-75.5 544,-56.5 493,-56.5"/>
<text text-anchor="middle" x="518.5" y="-63.5" font-family="Helvetica,sans-Serif" font-size="10.00" fill="#000000">unistd.h</text>
</g>
<!-- Node0&#45;&gt;Node8 -->
<g id="edge9" class="edge">
<title>Node0&#45;&gt;Node8</title>
<path fill="none" stroke="#191970" d="M303.5812,-112.4675C349.3324,-104.3733 415.8191,-91.8909 483.033,-75.9499"/>
<polygon fill="#191970" stroke="#191970" points="484.0436,-79.3069 492.9527,-73.573 482.4124,-72.4996 484.0436,-79.3069"/>
</g>
<!-- Node1&#45;&gt;Node2 -->
<g id="edge2" class="edge">
<title>Node1&#45;&gt;Node2</title>
<path fill="none" stroke="#191970" d="M37.7256,-56.2455C41.8123,-48.617 47.6135,-37.7881 52.575,-28.5267"/>
<polygon fill="#191970" stroke="#191970" points="55.6972,-30.1103 57.3343,-19.6427 49.5268,-26.8047 55.6972,-30.1103"/>
</g>
</g>
</svg>
