<?xml version="1.0" encoding="UTF-8" standalone="no"?>
<!DOCTYPE svg PUBLIC "-//W3C//DTD SVG 1.1//EN"
 "http://www.w3.org/Graphics/SVG/1.1/DTD/svg11.dtd">
<!-- Generated by graphviz version 2.40.1 (20161225.0304)
 -->
<!-- Title: src/deviceMonitor/apis/AbstractAPI.hpp Pages: 1 -->
<svg width="1192pt" height="151pt"
 viewBox="0.00 0.00 1191.50 151.00" xmlns="http://www.w3.org/2000/svg" xmlns:xlink="http://www.w3.org/1999/xlink">
<g id="graph0" class="graph" transform="scale(1 1) rotate(0) translate(4 147)">
<title>src/deviceMonitor/apis/AbstractAPI.hpp</title>
<polygon fill="#ffffff" stroke="transparent" points="-4,4 -4,-147 1187.5,-147 1187.5,4 -4,4"/>
<!-- Node0 -->
<g id="node1" class="node">
<title>Node0</title>
<polygon fill="#bfbfbf" stroke="#000000" points="483,-112.5 483,-142.5 598,-142.5 598,-112.5 483,-112.5"/>
<text text-anchor="start" x="491" y="-130.5" font-family="Helvetica,sans-Serif" font-size="10.00" fill="#000000">src/deviceMonitor/apis</text>
<text text-anchor="middle" x="540.5" y="-119.5" font-family="Helvetica,sans-Serif" font-size="10.00" fill="#000000">/AbstractAPI.hpp</text>
</g>
<!-- Node1 -->
<g id="node2" class="node">
<title>Node1</title>
<g id="a_node2"><a xlink:href="../../d3/de3/_logger_8hpp.html" target="_top" xlink:title="Logger.hpp">
<polygon fill="#ffffff" stroke="#000000" points="0,-56.5 0,-75.5 65,-75.5 65,-56.5 0,-56.5"/>
<text text-anchor="middle" x="32.5" y="-63.5" font-family="Helvetica,sans-Serif" font-size="10.00" fill="#000000">Logger.hpp</text>
</a>
</g>
</g>
<!-- Node0&#45;&gt;Node1 -->
<g id="edge1" class="edge">
<title>Node0&#45;&gt;Node1</title>
<path fill="none" stroke="#191970" d="M482.7849,-123.4304C396.3108,-116.8249 227.8912,-101.9959 75.452,-75.9784"/>
<polygon fill="#191970" stroke="#191970" points="75.8851,-72.5015 65.4353,-74.2485 74.6937,-79.3994 75.8851,-72.5015"/>
</g>
<!-- Node3 -->
<g id="node4" class="node">
<title>Node3</title>
<polygon fill="#ffffff" stroke="#bfbfbf" points="83.5,-56.5 83.5,-75.5 133.5,-75.5 133.5,-56.5 83.5,-56.5"/>
<text text-anchor="middle" x="108.5" y="-63.5" font-family="Helvetica,sans-Serif" font-size="10.00" fill="#000000">fstream</text>
</g>
<!-- Node0&#45;&gt;Node3 -->
<g id="edge3" class="edge">
<title>Node0&#45;&gt;Node3</title>
<path fill="none" stroke="#191970" d="M482.682,-122.8934C406.7803,-116.2104 269.359,-101.9243 143.4541,-75.9286"/>
<polygon fill="#191970" stroke="#191970" points="144.1437,-72.4971 133.6386,-73.8729 142.7088,-79.3485 144.1437,-72.4971"/>
</g>
<!-- Node4 -->
<g id="node5" class="node">
<title>Node4</title>
<polygon fill="#ffffff" stroke="#bfbfbf" points="151.5,-56.5 151.5,-75.5 203.5,-75.5 203.5,-56.5 151.5,-56.5"/>
<text text-anchor="middle" x="177.5" y="-63.5" font-family="Helvetica,sans-Serif" font-size="10.00" fill="#000000">memory</text>
</g>
<!-- Node0&#45;&gt;Node4 -->
<g id="edge4" class="edge">
<title>Node0&#45;&gt;Node4</title>
<path fill="none" stroke="#191970" d="M482.9235,-120.6325C419.2323,-112.5503 313.455,-97.6932 213.7261,-76.0668"/>
<polygon fill="#191970" stroke="#191970" points="214.3031,-72.6102 203.7851,-73.8838 212.8017,-79.4473 214.3031,-72.6102"/>
</g>
<!-- Node5 -->
<g id="node6" class="node">
<title>Node5</title>
<polygon fill="#ffffff" stroke="#bfbfbf" points="221.5,-56.5 221.5,-75.5 265.5,-75.5 265.5,-56.5 221.5,-56.5"/>
<text text-anchor="middle" x="243.5" y="-63.5" font-family="Helvetica,sans-Serif" font-size="10.00" fill="#000000">mutex</text>
</g>
<!-- Node0&#45;&gt;Node5 -->
<g id="edge5" class="edge">
<title>Node0&#45;&gt;Node5</title>
<path fill="none" stroke="#191970" d="M482.9731,-118.2169C429.0195,-109.0638 346.2736,-93.8768 275.5,-76 275.4012,-75.9751 275.3023,-75.95 275.2033,-75.9248"/>
<polygon fill="#191970" stroke="#191970" points="276.3614,-72.614 265.7896,-73.3122 274.4894,-79.359 276.3614,-72.614"/>
</g>
<!-- Node6 -->
<g id="node7" class="node">
<title>Node6</title>
<polygon fill="#ffffff" stroke="#bfbfbf" points="284,-56.5 284,-75.5 327,-75.5 327,-56.5 284,-56.5"/>
<text text-anchor="middle" x="305.5" y="-63.5" font-family="Helvetica,sans-Serif" font-size="10.00" fill="#000000">queue</text>
</g>
<!-- Node0&#45;&gt;Node6 -->
<g id="edge6" class="edge">
<title>Node0&#45;&gt;Node6</title>
<path fill="none" stroke="#191970" d="M482.6377,-113.9496C443.9735,-104.6525 391.7915,-91.6414 337.0173,-76.0158"/>
<polygon fill="#191970" stroke="#191970" points="337.7032,-72.5713 327.1255,-73.1732 335.7698,-79.299 337.7032,-72.5713"/>
</g>
<!-- Node7 -->
<g id="node8" class="node">
<title>Node7</title>
<polygon fill="#ffffff" stroke="#bfbfbf" points="345.5,-56.5 345.5,-75.5 455.5,-75.5 455.5,-56.5 345.5,-56.5"/>
<text text-anchor="middle" x="400.5" y="-63.5" font-family="Helvetica,sans-Serif" font-size="10.00" fill="#000000">rapidjson/document.h</text>
</g>
<!-- Node0&#45;&gt;Node7 -->
<g id="edge7" class="edge">
<title>Node0&#45;&gt;Node7</title>
<path fill="none" stroke="#191970" d="M506.2521,-112.4554C483.4051,-102.419 453.6121,-89.3314 431.4733,-79.6061"/>
<polygon fill="#191970" stroke="#191970" points="432.7583,-76.3478 422.195,-75.5303 429.9429,-82.7567 432.7583,-76.3478"/>
</g>
<!-- Node8 -->
<g id="node9" class="node">
<title>Node8</title>
<polygon fill="#ffffff" stroke="#bfbfbf" points="473.5,-56.5 473.5,-75.5 607.5,-75.5 607.5,-56.5 473.5,-56.5"/>
<text text-anchor="middle" x="540.5" y="-63.5" font-family="Helvetica,sans-Serif" font-size="10.00" fill="#000000">rapidjson/istreamwrapper.h</text>
</g>
<!-- Node0&#45;&gt;Node8 -->
<g id="edge8" class="edge">
<title>Node0&#45;&gt;Node8</title>
<path fill="none" stroke="#191970" d="M540.5,-112.2977C540.5,-104.3834 540.5,-94.6043 540.5,-86.0759"/>
<polygon fill="#191970" stroke="#191970" points="544.0001,-85.8469 540.5,-75.8469 537.0001,-85.847 544.0001,-85.8469"/>
</g>
<!-- Node9 -->
<g id="node10" class="node">
<title>Node9</title>
<polygon fill="#ffffff" stroke="#bfbfbf" points="626,-56.5 626,-75.5 763,-75.5 763,-56.5 626,-56.5"/>
<text text-anchor="middle" x="694.5" y="-63.5" font-family="Helvetica,sans-Serif" font-size="10.00" fill="#000000">rapidjson/ostreamwrapper.h</text>
</g>
<!-- Node0&#45;&gt;Node9 -->
<g id="edge9" class="edge">
<title>Node0&#45;&gt;Node9</title>
<path fill="none" stroke="#191970" d="M578.1726,-112.4554C603.5298,-102.329 636.6652,-89.0964 661.0826,-79.3453"/>
<polygon fill="#191970" stroke="#191970" points="662.6467,-82.4895 670.6355,-75.5303 660.0505,-75.9887 662.6467,-82.4895"/>
</g>
<!-- Node10 -->
<g id="node11" class="node">
<title>Node10</title>
<polygon fill="#ffffff" stroke="#bfbfbf" points="781,-56.5 781,-75.5 882,-75.5 882,-56.5 781,-56.5"/>
<text text-anchor="middle" x="831.5" y="-63.5" font-family="Helvetica,sans-Serif" font-size="10.00" fill="#000000">rapidjson/schema.h</text>
</g>
<!-- Node0&#45;&gt;Node10 -->
<g id="edge10" class="edge">
<title>Node0&#45;&gt;Node10</title>
<path fill="none" stroke="#191970" d="M598.3402,-115.276C650.0855,-104.3402 725.4135,-88.4203 776.3274,-77.6602"/>
<polygon fill="#191970" stroke="#191970" points="777.1103,-81.0721 786.1704,-75.58 775.6628,-74.2234 777.1103,-81.0721"/>
</g>
<!-- Node11 -->
<g id="node12" class="node">
<title>Node11</title>
<polygon fill="#ffffff" stroke="#bfbfbf" points="900,-56.5 900,-75.5 991,-75.5 991,-56.5 900,-56.5"/>
<text text-anchor="middle" x="945.5" y="-63.5" font-family="Helvetica,sans-Serif" font-size="10.00" fill="#000000">rapidjson/writer.h</text>
</g>
<!-- Node0&#45;&gt;Node11 -->
<g id="edge11" class="edge">
<title>Node0&#45;&gt;Node11</title>
<path fill="none" stroke="#191970" d="M598.0579,-119.7282C665.5656,-110.4623 781.1003,-94.1365 889.7064,-76.2557"/>
<polygon fill="#191970" stroke="#191970" points="890.5613,-79.6619 899.856,-74.5767 889.4188,-72.7558 890.5613,-79.6619"/>
</g>
<!-- Node12 -->
<g id="node13" class="node">
<title>Node12</title>
<polygon fill="#ffffff" stroke="#bfbfbf" points="1009.5,-56.5 1009.5,-75.5 1061.5,-75.5 1061.5,-56.5 1009.5,-56.5"/>
<text text-anchor="middle" x="1035.5" y="-63.5" font-family="Helvetica,sans-Serif" font-size="10.00" fill="#000000">sstream</text>
</g>
<!-- Node0&#45;&gt;Node12 -->
<g id="edge12" class="edge">
<title>Node0&#45;&gt;Node12</title>
<path fill="none" stroke="#191970" d="M598.3424,-124.1306C684.0241,-118.4577 849.7498,-104.875 998.982,-76.0239"/>
<polygon fill="#191970" stroke="#191970" points="1000.1024,-79.3709 1009.2414,-74.0109 998.7546,-72.5019 1000.1024,-79.3709"/>
</g>
<!-- Node13 -->
<g id="node14" class="node">
<title>Node13</title>
<polygon fill="#ffffff" stroke="#bfbfbf" points="1080,-56.5 1080,-75.5 1121,-75.5 1121,-56.5 1080,-56.5"/>
<text text-anchor="middle" x="1100.5" y="-63.5" font-family="Helvetica,sans-Serif" font-size="10.00" fill="#000000">string</text>
</g>
<!-- Node0&#45;&gt;Node13 -->
<g id="edge13" class="edge">
<title>Node0&#45;&gt;Node13</title>
<path fill="none" stroke="#191970" d="M598.0057,-126.1346C694.1769,-122.9329 893.5936,-112.3708 1069.7217,-75.7114"/>
<polygon fill="#191970" stroke="#191970" points="1070.6259,-79.0977 1079.6852,-73.6041 1069.1774,-72.2492 1070.6259,-79.0977"/>
</g>
<!-- Node14 -->
<g id="node15" class="node">
<title>Node14</title>
<polygon fill="#ffffff" stroke="#bfbfbf" points="1139.5,-56.5 1139.5,-75.5 1183.5,-75.5 1183.5,-56.5 1139.5,-56.5"/>
<text text-anchor="middle" x="1161.5" y="-63.5" font-family="Helvetica,sans-Serif" font-size="10.00" fill="#000000">thread</text>
</g>
<!-- Node0&#45;&gt;Node14 -->
<g id="edge14" class="edge">
<title>Node0&#45;&gt;Node14</title>
<path fill="none" stroke="#191970" d="M598.3782,-124.1111C722.5538,-116.5777 1012.0926,-97.5418 1129.1868,-75.7955"/>
<polygon fill="#191970" stroke="#191970" points="1130.1644,-79.1708 1139.3083,-73.8193 1128.8229,-72.3005 1130.1644,-79.1708"/>
</g>
<!-- Node2 -->
<g id="node3" class="node">
<title>Node2</title>
<polygon fill="#ffffff" stroke="#bfbfbf" points="9.5,-.5 9.5,-19.5 55.5,-19.5 55.5,-.5 9.5,-.5"/>
<text text-anchor="middle" x="32.5" y="-7.5" font-family="Helvetica,sans-Serif" font-size="10.00" fill="#000000">stdio.h</text>
</g>
<!-- Node1&#45;&gt;Node2 -->
<g id="edge2" class="edge">
<title>Node1&#45;&gt;Node2</title>
<path fill="none" stroke="#191970" d="M32.5,-56.2455C32.5,-48.9382 32.5,-38.6944 32.5,-29.7046"/>
<polygon fill="#191970" stroke="#191970" points="36.0001,-29.6426 32.5,-19.6427 29.0001,-29.6427 36.0001,-29.6426"/>
</g>
</g>
</svg>
