<?xml version="1.0" encoding="UTF-8" standalone="no"?>
<!DOCTYPE svg PUBLIC "-//W3C//DTD SVG 1.1//EN"
 "http://www.w3.org/Graphics/SVG/1.1/DTD/svg11.dtd">
<!-- Generated by graphviz version 2.40.1 (20161225.0304)
 -->
<!-- Title: src/deviceMonitor/middleware/MessageProcessor.hpp Pages: 1 -->
<!--zoomable 207 -->
<svg id="main" version="1.1" xmlns="http://www.w3.org/2000/svg" xmlns:xlink="http://www.w3.org/1999/xlink" xml:space="preserve" onload="init(evt)">
<style type="text/css"><![CDATA[
.edge:hover path { stroke: red; }
.edge:hover polygon { stroke: red; fill: red; }
]]></style>
<script type="text/javascript"><![CDATA[
var edges = document.getElementsByTagName('g');
if (edges && edges.length) {
  for (var i=0;i<edges.length;i++) {
    if (edges[i].id.substr(0,4)=='edge') {
      edges[i].setAttribute('class','edge');
    }
  }
}
]]></script>
        <defs>
                <circle id="rim" cx="0" cy="0" r="7"/>
                <circle id="rim2" cx="0" cy="0" r="3.5"/>
                <g id="zoomPlus">
                        <use xlink:href="#rim" fill="#404040">
                                <set attributeName="fill" to="#808080" begin="zoomplus.mouseover" end="zoomplus.mouseout"/>
                        </use>
                        <path d="M-4,0h8M0,-4v8" fill="none" stroke="white" stroke-width="1.5" pointer-events="none"/>
                </g>
                <g id="zoomMin">
                        <use xlink:href="#rim" fill="#404040">
                                <set attributeName="fill" to="#808080" begin="zoomminus.mouseover" end="zoomminus.mouseout"/>
                        </use>
                        <path d="M-4,0h8" fill="none" stroke="white" stroke-width="1.5" pointer-events="none"/>
                </g>
                <g id="dirArrow">
                        <path fill="none" stroke="white" stroke-width="1.5" d="M0,-3.0v7 M-2.5,-0.5L0,-3.0L2.5,-0.5"/>
                </g>
               <g id="resetDef">
                       <use xlink:href="#rim2" fill="#404040">
                               <set attributeName="fill" to="#808080" begin="reset.mouseover" end="reset.mouseout"/>
                       </use>
               </g>
        </defs>

<script type="text/javascript">
var viewWidth = 1193;
var viewHeight = 207;
var sectionId = 'dynsection-0';
</script>
<script xlink:href="../../svgpan.js"/>
<svg id="graph" class="graph">
<g id="viewport">
<title>src/deviceMonitor/middleware/MessageProcessor.hpp</title>
<polygon fill="#ffffff" stroke="transparent" points="-4,4 -4,-203 1188.5,-203 1188.5,4 -4,4"/>
<!-- Node0 -->
<g id="node1" class="node">
<title>Node0</title>
<polygon fill="#bfbfbf" stroke="#000000" points="630,-168.5 630,-198.5 776,-198.5 776,-168.5 630,-168.5"/>
<text text-anchor="start" x="638" y="-186.5" font-family="Helvetica,sans-Serif" font-size="10.00" fill="#000000">src/deviceMonitor/middleware</text>
<text text-anchor="middle" x="703" y="-175.5" font-family="Helvetica,sans-Serif" font-size="10.00" fill="#000000">/MessageProcessor.hpp</text>
</g>
<!-- Node1 -->
<g id="node2" class="node">
<title>Node1</title>
<g id="a_node2"><a xlink:href="../../d6/d8f/_abstract_a_p_i_8hpp.html" target="_top" xlink:title="../apis/AbstractAPI.hpp">
<polygon fill="#ffffff" stroke="#000000" points="555.5,-112.5 555.5,-131.5 674.5,-131.5 674.5,-112.5 555.5,-112.5"/>
<text text-anchor="middle" x="615" y="-119.5" font-family="Helvetica,sans-Serif" font-size="10.00" fill="#000000">../apis/AbstractAPI.hpp</text>
</a>
</g>
</g>
<!-- Node0&#45;&gt;Node1 -->
<g id="edge1" class="edge">
<title>Node0&#45;&gt;Node1</title>
<path fill="none" stroke="#191970" d="M681.2472,-168.2977C667.8032,-158.9022 650.5989,-146.8787 637.0922,-137.4395"/>
<polygon fill="#191970" stroke="#191970" points="639.0288,-134.5228 628.8271,-131.6633 635.0189,-140.2605 639.0288,-134.5228"/>
</g>
<!-- Node6 -->
<g id="node7" class="node">
<title>Node6</title>
<polygon fill="#ffffff" stroke="#bfbfbf" points="0,-56.5 0,-75.5 44,-75.5 44,-56.5 0,-56.5"/>
<text text-anchor="middle" x="22" y="-63.5" font-family="Helvetica,sans-Serif" font-size="10.00" fill="#000000">mutex</text>
</g>
<!-- Node0&#45;&gt;Node6 -->
<g id="edge18" class="edge">
<title>Node0&#45;&gt;Node6</title>
<path fill="none" stroke="#191970" d="M629.551,-175.4388C510.0822,-161.4329 266.4786,-129.1471 54.0251,-76.0192"/>
<polygon fill="#191970" stroke="#191970" points="54.8042,-72.6061 44.2519,-73.5548 53.0926,-79.3937 54.8042,-72.6061"/>
</g>
<!-- Node8 -->
<g id="node9" class="node">
<title>Node8</title>
<polygon fill="#ffffff" stroke="#bfbfbf" points="62,-56.5 62,-75.5 172,-75.5 172,-56.5 62,-56.5"/>
<text text-anchor="middle" x="117" y="-63.5" font-family="Helvetica,sans-Serif" font-size="10.00" fill="#000000">rapidjson/document.h</text>
</g>
<!-- Node0&#45;&gt;Node8 -->
<g id="edge19" class="edge">
<title>Node0&#45;&gt;Node8</title>
<path fill="none" stroke="#191970" d="M629.9675,-168.8561C511.9697,-145.1961 281.805,-99.0454 174.5632,-77.5421"/>
<polygon fill="#191970" stroke="#191970" points="175.0695,-74.074 164.5765,-75.5397 173.6933,-80.9374 175.0695,-74.074"/>
</g>
<!-- Node10 -->
<g id="node11" class="node">
<title>Node10</title>
<polygon fill="#ffffff" stroke="#bfbfbf" points="938.5,-56.5 938.5,-75.5 1075.5,-75.5 1075.5,-56.5 938.5,-56.5"/>
<text text-anchor="middle" x="1007" y="-63.5" font-family="Helvetica,sans-Serif" font-size="10.00" fill="#000000">rapidjson/ostreamwrapper.h</text>
</g>
<!-- Node0&#45;&gt;Node10 -->
<g id="edge20" class="edge">
<title>Node0&#45;&gt;Node10</title>
<path fill="none" stroke="#191970" d="M703.6746,-168.4243C705.2679,-151.9663 710.4442,-126.0837 727,-112 734.714,-105.4379 848.0822,-88.3215 928.1668,-76.9204"/>
<polygon fill="#191970" stroke="#191970" points="928.8396,-80.3601 938.2489,-75.4902 927.8564,-73.4295 928.8396,-80.3601"/>
</g>
<!-- Node12 -->
<g id="node13" class="node">
<title>Node12</title>
<polygon fill="#ffffff" stroke="#bfbfbf" points="1093.5,-56.5 1093.5,-75.5 1184.5,-75.5 1184.5,-56.5 1093.5,-56.5"/>
<text text-anchor="middle" x="1139" y="-63.5" font-family="Helvetica,sans-Serif" font-size="10.00" fill="#000000">rapidjson/writer.h</text>
</g>
<!-- Node0&#45;&gt;Node12 -->
<g id="edge21" class="edge">
<title>Node0&#45;&gt;Node12</title>
<path fill="none" stroke="#191970" d="M710.6622,-168.2232C720.0298,-151.3245 737.5743,-124.7964 761,-112 822.0305,-78.6618 998.4221,-85.9259 1083.252,-76.0225"/>
<polygon fill="#191970" stroke="#191970" points="1083.9163,-79.4653 1093.3737,-74.6896 1083.0023,-72.5253 1083.9163,-79.4653"/>
</g>
<!-- Node16 -->
<g id="node17" class="node">
<title>Node16</title>
<polygon fill="#ffffff" stroke="#bfbfbf" points="769.5,-112.5 769.5,-131.5 864.5,-131.5 864.5,-112.5 769.5,-112.5"/>
<text text-anchor="middle" x="817" y="-119.5" font-family="Helvetica,sans-Serif" font-size="10.00" fill="#000000">condition_variable</text>
</g>
<!-- Node0&#45;&gt;Node16 -->
<g id="edge16" class="edge">
<title>Node0&#45;&gt;Node16</title>
<path fill="none" stroke="#191970" d="M730.8875,-168.4554C748.9076,-158.734 772.2341,-146.15 790.0632,-136.5317"/>
<polygon fill="#191970" stroke="#191970" points="792.1948,-139.3586 799.334,-131.5303 788.8713,-133.1979 792.1948,-139.3586"/>
</g>
<!-- Node17 -->
<g id="node18" class="node">
<title>Node17</title>
<polygon fill="#ffffff" stroke="#bfbfbf" points="883,-112.5 883,-131.5 937,-131.5 937,-112.5 883,-112.5"/>
<text text-anchor="middle" x="910" y="-119.5" font-family="Helvetica,sans-Serif" font-size="10.00" fill="#000000">iostream</text>
</g>
<!-- Node0&#45;&gt;Node17 -->
<g id="edge17" class="edge">
<title>Node0&#45;&gt;Node17</title>
<path fill="none" stroke="#191970" d="M753.6379,-168.4554C790.6263,-157.4661 839.9275,-142.8186 873.203,-132.9324"/>
<polygon fill="#191970" stroke="#191970" points="874.3949,-136.2296 882.984,-130.0265 872.4013,-129.5195 874.3949,-136.2296"/>
</g>
<!-- Node2 -->
<g id="node3" class="node">
<title>Node2</title>
<g id="a_node3"><a xlink:href="../../d3/de3/_logger_8hpp.html" target="_top" xlink:title="Logger.hpp">
<polygon fill="#ffffff" stroke="#000000" points="716.5,-56.5 716.5,-75.5 781.5,-75.5 781.5,-56.5 716.5,-56.5"/>
<text text-anchor="middle" x="749" y="-63.5" font-family="Helvetica,sans-Serif" font-size="10.00" fill="#000000">Logger.hpp</text>
</a>
</g>
</g>
<!-- Node1&#45;&gt;Node2 -->
<g id="edge2" class="edge">
<title>Node1&#45;&gt;Node2</title>
<path fill="none" stroke="#191970" d="M638.0354,-112.3733C659.7388,-103.3032 692.4618,-89.6279 716.755,-79.4755"/>
<polygon fill="#191970" stroke="#191970" points="718.3881,-82.5865 726.2652,-75.5011 715.6889,-76.1278 718.3881,-82.5865"/>
</g>
<!-- Node4 -->
<g id="node5" class="node">
<title>Node4</title>
<polygon fill="#ffffff" stroke="#bfbfbf" points="800,-56.5 800,-75.5 850,-75.5 850,-56.5 800,-56.5"/>
<text text-anchor="middle" x="825" y="-63.5" font-family="Helvetica,sans-Serif" font-size="10.00" fill="#000000">fstream</text>
</g>
<!-- Node1&#45;&gt;Node4 -->
<g id="edge4" class="edge">
<title>Node1&#45;&gt;Node4</title>
<path fill="none" stroke="#191970" d="M652.8547,-112.4605C686.4653,-103.9117 737.1525,-90.8278 789.9034,-76.2507"/>
<polygon fill="#191970" stroke="#191970" points="791.0732,-79.5584 799.7735,-73.5123 789.2017,-72.8133 791.0732,-79.5584"/>
</g>
<!-- Node5 -->
<g id="node6" class="node">
<title>Node5</title>
<polygon fill="#ffffff" stroke="#bfbfbf" points="868,-56.5 868,-75.5 920,-75.5 920,-56.5 868,-56.5"/>
<text text-anchor="middle" x="894" y="-63.5" font-family="Helvetica,sans-Serif" font-size="10.00" fill="#000000">memory</text>
</g>
<!-- Node1&#45;&gt;Node5 -->
<g id="edge5" class="edge">
<title>Node1&#45;&gt;Node5</title>
<path fill="none" stroke="#191970" d="M673.9892,-112.4442C721.2808,-104.4273 789.5229,-92.0641 857.6471,-76.1673"/>
<polygon fill="#191970" stroke="#191970" points="858.766,-79.4994 867.6949,-73.7963 857.1583,-72.6866 858.766,-79.4994"/>
</g>
<!-- Node1&#45;&gt;Node6 -->
<g id="edge6" class="edge">
<title>Node1&#45;&gt;Node6</title>
<path fill="none" stroke="#191970" d="M555.2227,-118.8536C434.5905,-112.227 164.7955,-95.9344 54.083,-75.737"/>
<polygon fill="#191970" stroke="#191970" points="54.6698,-72.2858 44.1887,-73.8342 53.3477,-79.1598 54.6698,-72.2858"/>
</g>
<!-- Node7 -->
<g id="node8" class="node">
<title>Node7</title>
<polygon fill="#ffffff" stroke="#bfbfbf" points="190.5,-56.5 190.5,-75.5 233.5,-75.5 233.5,-56.5 190.5,-56.5"/>
<text text-anchor="middle" x="212" y="-63.5" font-family="Helvetica,sans-Serif" font-size="10.00" fill="#000000">queue</text>
</g>
<!-- Node1&#45;&gt;Node7 -->
<g id="edge7" class="edge">
<title>Node1&#45;&gt;Node7</title>
<path fill="none" stroke="#191970" d="M555.4612,-118.1216C483.6071,-112.6683 359.1163,-100.7519 243.6118,-75.7426"/>
<polygon fill="#191970" stroke="#191970" points="244.0558,-72.2565 233.5368,-73.5223 242.5492,-79.0925 244.0558,-72.2565"/>
</g>
<!-- Node1&#45;&gt;Node8 -->
<g id="edge8" class="edge">
<title>Node1&#45;&gt;Node8</title>
<path fill="none" stroke="#191970" d="M555.2181,-116.6059C473.3895,-109.0131 321.6731,-94.1898 182.1561,-76.0996"/>
<polygon fill="#191970" stroke="#191970" points="182.502,-72.6152 172.1331,-74.7915 181.5961,-79.5563 182.502,-72.6152"/>
</g>
<!-- Node9 -->
<g id="node10" class="node">
<title>Node9</title>
<polygon fill="#ffffff" stroke="#bfbfbf" points="252,-56.5 252,-75.5 386,-75.5 386,-56.5 252,-56.5"/>
<text text-anchor="middle" x="319" y="-63.5" font-family="Helvetica,sans-Serif" font-size="10.00" fill="#000000">rapidjson/istreamwrapper.h</text>
</g>
<!-- Node1&#45;&gt;Node9 -->
<g id="edge9" class="edge">
<title>Node1&#45;&gt;Node9</title>
<path fill="none" stroke="#191970" d="M564.4521,-112.4369C513.1555,-102.7321 433.7421,-87.708 379.2182,-77.3926"/>
<polygon fill="#191970" stroke="#191970" points="379.8158,-73.9437 369.3394,-75.5237 378.5145,-80.8217 379.8158,-73.9437"/>
</g>
<!-- Node1&#45;&gt;Node10 -->
<g id="edge10" class="edge">
<title>Node1&#45;&gt;Node10</title>
<path fill="none" stroke="#191970" d="M674.5364,-113.4948C742.8593,-103.7344 855.1016,-87.6998 930.0147,-76.9979"/>
<polygon fill="#191970" stroke="#191970" points="930.9246,-80.4035 940.3291,-75.5244 929.9346,-73.4739 930.9246,-80.4035"/>
</g>
<!-- Node11 -->
<g id="node12" class="node">
<title>Node11</title>
<polygon fill="#ffffff" stroke="#bfbfbf" points="404.5,-56.5 404.5,-75.5 505.5,-75.5 505.5,-56.5 404.5,-56.5"/>
<text text-anchor="middle" x="455" y="-63.5" font-family="Helvetica,sans-Serif" font-size="10.00" fill="#000000">rapidjson/schema.h</text>
</g>
<!-- Node1&#45;&gt;Node11 -->
<g id="edge11" class="edge">
<title>Node1&#45;&gt;Node11</title>
<path fill="none" stroke="#191970" d="M587.495,-112.3733C561.1198,-103.1419 521.1149,-89.1402 491.9642,-78.9375"/>
<polygon fill="#191970" stroke="#191970" points="492.7409,-75.5012 482.1461,-75.5011 490.4284,-82.1082 492.7409,-75.5012"/>
</g>
<!-- Node1&#45;&gt;Node12 -->
<g id="edge12" class="edge">
<title>Node1&#45;&gt;Node12</title>
<path fill="none" stroke="#191970" d="M674.6946,-116.446C785.4923,-106.0975 1017.0779,-84.2678 1083.3016,-76.0579"/>
<polygon fill="#191970" stroke="#191970" points="1083.9219,-79.5065 1093.3798,-74.7318 1083.0087,-72.5663 1083.9219,-79.5065"/>
</g>
<!-- Node13 -->
<g id="node14" class="node">
<title>Node13</title>
<polygon fill="#ffffff" stroke="#bfbfbf" points="524,-56.5 524,-75.5 576,-75.5 576,-56.5 524,-56.5"/>
<text text-anchor="middle" x="550" y="-63.5" font-family="Helvetica,sans-Serif" font-size="10.00" fill="#000000">sstream</text>
</g>
<!-- Node1&#45;&gt;Node13 -->
<g id="edge13" class="edge">
<title>Node1&#45;&gt;Node13</title>
<path fill="none" stroke="#191970" d="M603.6779,-112.2455C594.0777,-103.9746 580.1108,-91.9416 568.8305,-82.2232"/>
<polygon fill="#191970" stroke="#191970" points="571.053,-79.5182 561.1924,-75.6427 566.484,-84.8214 571.053,-79.5182"/>
</g>
<!-- Node14 -->
<g id="node15" class="node">
<title>Node14</title>
<polygon fill="#ffffff" stroke="#bfbfbf" points="594.5,-56.5 594.5,-75.5 635.5,-75.5 635.5,-56.5 594.5,-56.5"/>
<text text-anchor="middle" x="615" y="-63.5" font-family="Helvetica,sans-Serif" font-size="10.00" fill="#000000">string</text>
</g>
<!-- Node1&#45;&gt;Node14 -->
<g id="edge14" class="edge">
<title>Node1&#45;&gt;Node14</title>
<path fill="none" stroke="#191970" d="M615,-112.2455C615,-104.9382 615,-94.6944 615,-85.7046"/>
<polygon fill="#191970" stroke="#191970" points="618.5001,-85.6426 615,-75.6427 611.5001,-85.6427 618.5001,-85.6426"/>
</g>
<!-- Node15 -->
<g id="node16" class="node">
<title>Node15</title>
<polygon fill="#ffffff" stroke="#bfbfbf" points="654,-56.5 654,-75.5 698,-75.5 698,-56.5 654,-56.5"/>
<text text-anchor="middle" x="676" y="-63.5" font-family="Helvetica,sans-Serif" font-size="10.00" fill="#000000">thread</text>
</g>
<!-- Node1&#45;&gt;Node15 -->
<g id="edge15" class="edge">
<title>Node1&#45;&gt;Node15</title>
<path fill="none" stroke="#191970" d="M625.6254,-112.2455C634.5473,-104.0549 647.488,-92.1749 658.0192,-82.5069"/>
<polygon fill="#191970" stroke="#191970" points="660.4968,-84.9837 665.4964,-75.6427 655.7629,-79.8271 660.4968,-84.9837"/>
</g>
<!-- Node3 -->
<g id="node4" class="node">
<title>Node3</title>
<polygon fill="#ffffff" stroke="#bfbfbf" points="726,-.5 726,-19.5 772,-19.5 772,-.5 726,-.5"/>
<text text-anchor="middle" x="749" y="-7.5" font-family="Helvetica,sans-Serif" font-size="10.00" fill="#000000">stdio.h</text>
</g>
<!-- Node2&#45;&gt;Node3 -->
<g id="edge3" class="edge">
<title>Node2&#45;&gt;Node3</title>
<path fill="none" stroke="#191970" d="M749,-56.2455C749,-48.9382 749,-38.6944 749,-29.7046"/>
<polygon fill="#191970" stroke="#191970" points="752.5001,-29.6426 749,-19.6427 745.5001,-29.6427 752.5001,-29.6426"/>
</g>
</g>
</svg>
        <g id="navigator" transform="translate(0 0)" fill="#404254">
                <rect fill="#f2f5e9" fill-opacity="0.5" stroke="#606060" stroke-width=".5" x="0" y="0" width="60" height="60"/>
                <use id="zoomplus" xlink:href="#zoomPlus" x="17" y="9" onmousedown="handleZoom(evt,'in')"/>
                <use id="zoomminus" xlink:href="#zoomMin" x="42" y="9" onmousedown="handleZoom(evt,'out')"/>
                <use id="reset" xlink:href="#resetDef" x="30" y="36" onmousedown="handleReset()"/>
                <g id="arrowUp" xlink:href="#dirArrow" transform="translate(30 24)" onmousedown="handlePan(0,-1)">
                  <use xlink:href="#rim" fill="#404040">
                        <set attributeName="fill" to="#808080" begin="arrowUp.mouseover" end="arrowUp.mouseout"/>
                  </use>
                  <path fill="none" stroke="white" stroke-width="1.5" d="M0,-3.0v7 M-2.5,-0.5L0,-3.0L2.5,-0.5"/>
                </g>
                <g id="arrowRight" xlink:href="#dirArrow" transform="rotate(90) translate(36 -43)" onmousedown="handlePan(1,0)">
                  <use xlink:href="#rim" fill="#404040">
                        <set attributeName="fill" to="#808080" begin="arrowRight.mouseover" end="arrowRight.mouseout"/>
                  </use>
                  <path fill="none" stroke="white" stroke-width="1.5" d="M0,-3.0v7 M-2.5,-0.5L0,-3.0L2.5,-0.5"/>
                </g>
                <g id="arrowDown" xlink:href="#dirArrow" transform="rotate(180) translate(-30 -48)" onmousedown="handlePan(0,1)">
                  <use xlink:href="#rim" fill="#404040">
                        <set attributeName="fill" to="#808080" begin="arrowDown.mouseover" end="arrowDown.mouseout"/>
                  </use>
                  <path fill="none" stroke="white" stroke-width="1.5" d="M0,-3.0v7 M-2.5,-0.5L0,-3.0L2.5,-0.5"/>
                </g>
                <g id="arrowLeft" xlink:href="#dirArrow" transform="rotate(270) translate(-36 17)" onmousedown="handlePan(-1,0)">
                  <use xlink:href="#rim" fill="#404040">
                        <set attributeName="fill" to="#808080" begin="arrowLeft.mouseover" end="arrowLeft.mouseout"/>
                  </use>
                  <path fill="none" stroke="white" stroke-width="1.5" d="M0,-3.0v7 M-2.5,-0.5L0,-3.0L2.5,-0.5"/>
                </g>
        </g>
        <svg viewBox="0 0 15 15" width="100%" height="30px" preserveAspectRatio="xMaxYMin meet">
         <g id="arrow_out" transform="scale(0.3 0.3)">
          <a xlink:href="_message_processor_8hpp__incl_org.svg" target="_base">
           <rect id="button" ry="5" rx="5" y="6" x="6" height="38" width="38"
                fill="#f2f5e9" fill-opacity="0.5" stroke="#606060" stroke-width="1.0"/>
           <path id="arrow"
             d="M 11.500037,31.436501 C 11.940474,20.09759 22.043105,11.32322 32.158766,21.979434 L 37.068811,17.246167 C 37.068811,17.246167 37.088388,32 37.088388,32 L 22.160133,31.978069 C 22.160133,31.978069 26.997745,27.140456 26.997745,27.140456 C 18.528582,18.264221 13.291696,25.230495 11.500037,31.436501 z"
             style="fill:#404040;"/>
          </a>
         </g>
        </svg>
</svg>
