<?xml version="1.0" encoding="UTF-8" standalone="no"?>
<!DOCTYPE svg PUBLIC "-//W3C//DTD SVG 1.1//EN"
 "http://www.w3.org/Graphics/SVG/1.1/DTD/svg11.dtd">
<!-- Generated by graphviz version 2.40.1 (20161225.0304)
 -->
<!-- Title: signalHandler Pages: 1 -->
<svg width="209pt" height="66pt"
 viewBox="0.00 0.00 209.00 66.00" xmlns="http://www.w3.org/2000/svg" xmlns:xlink="http://www.w3.org/1999/xlink">
<g id="graph0" class="graph" transform="scale(1 1) rotate(0) translate(4 62)">
<title>signalHandler</title>
<polygon fill="#ffffff" stroke="transparent" points="-4,4 -4,-62 205,-62 205,4 -4,4"/>
<!-- Node64 -->
<g id="node1" class="node">
<title>Node64</title>
<polygon fill="#bfbfbf" stroke="#000000" points="0,-19.5 0,-38.5 76,-38.5 76,-19.5 0,-19.5"/>
<text text-anchor="middle" x="38" y="-26.5" font-family="Helvetica,sans-Serif" font-size="10.00" fill="#000000">signalHandler</text>
</g>
<!-- Node65 -->
<g id="node2" class="node">
<title>Node65</title>
<g id="a_node2"><a xlink:href="../../de/d6b/class_application.html#a46e8ee5d5e4d04679c826ad23a287f2b" target="_top" xlink:title="Application::get">
<polygon fill="#ffffff" stroke="#000000" points="114.5,-38.5 114.5,-57.5 198.5,-57.5 198.5,-38.5 114.5,-38.5"/>
<text text-anchor="middle" x="156.5" y="-45.5" font-family="Helvetica,sans-Serif" font-size="10.00" fill="#000000">Application::get</text>
</a>
</g>
</g>
<!-- Node64&#45;&gt;Node65 -->
<g id="edge1" class="edge">
<title>Node64&#45;&gt;Node65</title>
<path fill="none" stroke="#191970" d="M76.1464,-35.1163C85.0901,-36.5503 94.7717,-38.1026 104.214,-39.6166"/>
<polygon fill="#191970" stroke="#191970" points="103.8918,-43.1096 114.3198,-41.2369 105.0001,-36.1978 103.8918,-43.1096"/>
</g>
<!-- Node66 -->
<g id="node3" class="node">
<title>Node66</title>
<g id="a_node3"><a xlink:href="../../de/d6b/class_application.html#a7a9e487106abcd163331ad98910cc48f" target="_top" xlink:title="Application::stop">
<polygon fill="#ffffff" stroke="#000000" points="112,-.5 112,-19.5 201,-19.5 201,-.5 112,-.5"/>
<text text-anchor="middle" x="156.5" y="-7.5" font-family="Helvetica,sans-Serif" font-size="10.00" fill="#000000">Application::stop</text>
</a>
</g>
</g>
<!-- Node64&#45;&gt;Node66 -->
<g id="edge2" class="edge">
<title>Node64&#45;&gt;Node66</title>
<path fill="none" stroke="#191970" d="M76.1464,-22.8837C84.3162,-21.5738 93.1018,-20.1651 101.7583,-18.7772"/>
<polygon fill="#191970" stroke="#191970" points="102.4966,-22.2036 111.8163,-17.1645 101.3883,-15.2918 102.4966,-22.2036"/>
</g>
</g>
</svg>
