<?xml version="1.0" encoding="UTF-8" standalone="no"?>
<!DOCTYPE svg PUBLIC "-//W3C//DTD SVG 1.1//EN"
 "http://www.w3.org/Graphics/SVG/1.1/DTD/svg11.dtd">
<!-- Generated by graphviz version 2.40.1 (20161225.0304)
 -->
<!-- Title: main Pages: 1 -->
<svg width="923pt" height="484pt"
 viewBox="0.00 0.00 923.00 484.00" xmlns="http://www.w3.org/2000/svg" xmlns:xlink="http://www.w3.org/1999/xlink">
<g id="graph0" class="graph" transform="scale(1 1) rotate(0) translate(4 480)">
<title>main</title>
<polygon fill="#ffffff" stroke="transparent" points="-4,4 -4,-480 919,-480 919,4 -4,4"/>
<!-- Node26 -->
<g id="node1" class="node">
<title>Node26</title>
<polygon fill="#bfbfbf" stroke="#000000" points="0,-285.5 0,-304.5 38,-304.5 38,-285.5 0,-285.5"/>
<text text-anchor="middle" x="19" y="-292.5" font-family="Helvetica,sans-Serif" font-size="10.00" fill="#000000">main</text>
</g>
<!-- Node27 -->
<g id="node2" class="node">
<title>Node27</title>
<g id="a_node2"><a xlink:href="../../df/d0a/main_8cpp.html#a0ae2256c09ff62743965e0e07f582b3f" target="_top" xlink:title="exitProcedure">
<polygon fill="#ffffff" stroke="#000000" points="77.5,-389.5 77.5,-408.5 154.5,-408.5 154.5,-389.5 77.5,-389.5"/>
<text text-anchor="middle" x="116" y="-396.5" font-family="Helvetica,sans-Serif" font-size="10.00" fill="#000000">exitProcedure</text>
</a>
</g>
</g>
<!-- Node26&#45;&gt;Node27 -->
<g id="edge1" class="edge">
<title>Node26&#45;&gt;Node27</title>
<path fill="none" stroke="#191970" d="M27.9517,-304.5977C44.4094,-322.2431 79.6665,-360.0444 100.2235,-382.085"/>
<polygon fill="#191970" stroke="#191970" points="97.6897,-384.4999 107.07,-389.4255 102.8088,-379.7254 97.6897,-384.4999"/>
</g>
<!-- Node34 -->
<g id="node9" class="node">
<title>Node34</title>
<g id="a_node9"><a xlink:href="../../de/d6b/class_application.html#a46e8ee5d5e4d04679c826ad23a287f2b" target="_top" xlink:title="Application::get">
<polygon fill="#ffffff" stroke="#000000" points="413.5,-266.5 413.5,-285.5 497.5,-285.5 497.5,-266.5 413.5,-266.5"/>
<text text-anchor="middle" x="455.5" y="-273.5" font-family="Helvetica,sans-Serif" font-size="10.00" fill="#000000">Application::get</text>
</a>
</g>
</g>
<!-- Node26&#45;&gt;Node34 -->
<g id="edge8" class="edge">
<title>Node26&#45;&gt;Node34</title>
<path fill="none" stroke="#191970" d="M38.0365,-294.1714C101.2856,-291.4183 305.9077,-282.5115 403.1921,-278.2769"/>
<polygon fill="#191970" stroke="#191970" points="403.5485,-281.7648 413.3868,-277.8331 403.2441,-274.7714 403.5485,-281.7648"/>
</g>
<!-- Node35 -->
<g id="node10" class="node">
<title>Node35</title>
<g id="a_node10"><a xlink:href="../../df/d0a/main_8cpp.html#a59a5d10c3e8acb2a11dad76e5d644020" target="_top" xlink:title="initProcedure">
<polygon fill="#ffffff" stroke="#000000" points="79,-323.5 79,-342.5 153,-342.5 153,-323.5 79,-323.5"/>
<text text-anchor="middle" x="116" y="-330.5" font-family="Helvetica,sans-Serif" font-size="10.00" fill="#000000">initProcedure</text>
</a>
</g>
</g>
<!-- Node26&#45;&gt;Node35 -->
<g id="edge9" class="edge">
<title>Node26&#45;&gt;Node35</title>
<path fill="none" stroke="#191970" d="M38.1641,-302.5076C50.7551,-307.4401 67.5714,-314.028 82.3512,-319.818"/>
<polygon fill="#191970" stroke="#191970" points="81.117,-323.0934 91.7047,-323.4822 83.6703,-316.5757 81.117,-323.0934"/>
</g>
<!-- Node44 -->
<g id="node19" class="node">
<title>Node44</title>
<g id="a_node19"><a xlink:href="../../de/d6b/class_application.html#a7fbff10e3b66542f549f6c693ec4e676" target="_top" xlink:title="Application::run">
<polygon fill="#ffffff" stroke="#000000" points="74,-133.5 74,-152.5 158,-152.5 158,-133.5 74,-133.5"/>
<text text-anchor="middle" x="116" y="-140.5" font-family="Helvetica,sans-Serif" font-size="10.00" fill="#000000">Application::run</text>
</a>
</g>
</g>
<!-- Node26&#45;&gt;Node44 -->
<g id="edge24" class="edge">
<title>Node26&#45;&gt;Node44</title>
<path fill="none" stroke="#191970" d="M25.0678,-285.4917C40.9226,-260.6471 83.791,-193.4719 104.4976,-161.0243"/>
<polygon fill="#191970" stroke="#191970" points="107.5054,-162.8173 109.9345,-152.5047 101.6045,-159.0516 107.5054,-162.8173"/>
</g>
<!-- Node28 -->
<g id="node3" class="node">
<title>Node28</title>
<g id="a_node3"><a xlink:href="../../de/d27/_logger_8cpp.html#a664f9cf48341e0b23122227e55a620b6" target="_top" xlink:title="function de&#45;initializes logger (writes all remaining message to stream a release resources) ...">
<polygon fill="#ffffff" stroke="#000000" points="419.5,-418.5 419.5,-437.5 491.5,-437.5 491.5,-418.5 419.5,-418.5"/>
<text text-anchor="middle" x="455.5" y="-425.5" font-family="Helvetica,sans-Serif" font-size="10.00" fill="#000000">logDestroy_f</text>
</a>
</g>
</g>
<!-- Node27&#45;&gt;Node28 -->
<g id="edge2" class="edge">
<title>Node27&#45;&gt;Node28</title>
<path fill="none" stroke="#191970" d="M154.8332,-404.4059C167.3225,-406.0299 181.2308,-407.7185 194,-409 269.2108,-416.5478 356.8798,-422.2982 409.1977,-425.4072"/>
<polygon fill="#191970" stroke="#191970" points="409.3038,-428.9193 419.4918,-426.0118 409.7143,-421.9314 409.3038,-428.9193"/>
</g>
<!-- Node29 -->
<g id="node4" class="node">
<title>Node29</title>
<g id="a_node4"><a xlink:href="../../de/d27/_logger_8cpp.html#a7b0614b46b009eec456e166c4010757e" target="_top" xlink:title="lockLoggerData">
<polygon fill="#ffffff" stroke="#000000" points="606,-456.5 606,-475.5 691,-475.5 691,-456.5 606,-456.5"/>
<text text-anchor="middle" x="648.5" y="-463.5" font-family="Helvetica,sans-Serif" font-size="10.00" fill="#000000">lockLoggerData</text>
</a>
</g>
</g>
<!-- Node28&#45;&gt;Node29 -->
<g id="edge3" class="edge">
<title>Node28&#45;&gt;Node29</title>
<path fill="none" stroke="#191970" d="M491.8018,-435.1475C521.1921,-440.9342 562.9862,-449.1631 596.0206,-455.6673"/>
<polygon fill="#191970" stroke="#191970" points="595.4802,-459.128 605.968,-457.6258 596.8326,-452.2599 595.4802,-459.128"/>
</g>
<!-- Node30 -->
<g id="node5" class="node">
<title>Node30</title>
<g id="a_node5"><a xlink:href="../../de/d27/_logger_8cpp.html#aeeb83b8b6ec1dbdf1a3e72fc836caef6" target="_top" xlink:title="unlockLoggerData">
<polygon fill="#ffffff" stroke="#000000" points="601,-380.5 601,-399.5 696,-399.5 696,-380.5 601,-380.5"/>
<text text-anchor="middle" x="648.5" y="-387.5" font-family="Helvetica,sans-Serif" font-size="10.00" fill="#000000">unlockLoggerData</text>
</a>
</g>
</g>
<!-- Node28&#45;&gt;Node30 -->
<g id="edge4" class="edge">
<title>Node28&#45;&gt;Node30</title>
<path fill="none" stroke="#191970" d="M491.8018,-420.8525C519.5875,-415.3817 558.4594,-407.7282 590.5349,-401.4128"/>
<polygon fill="#191970" stroke="#191970" points="591.5521,-404.7798 600.6876,-399.4138 590.1998,-397.9117 591.5521,-404.7798"/>
</g>
<!-- Node31 -->
<g id="node6" class="node">
<title>Node31</title>
<g id="a_node6"><a xlink:href="../../de/d27/_logger_8cpp.html#a11eaecfa4e0eaee60ec32d2aa435f0ef" target="_top" xlink:title="writeMessage">
<polygon fill="#ffffff" stroke="#000000" points="610,-418.5 610,-437.5 687,-437.5 687,-418.5 610,-418.5"/>
<text text-anchor="middle" x="648.5" y="-425.5" font-family="Helvetica,sans-Serif" font-size="10.00" fill="#000000">writeMessage</text>
</a>
</g>
</g>
<!-- Node28&#45;&gt;Node31 -->
<g id="edge5" class="edge">
<title>Node28&#45;&gt;Node31</title>
<path fill="none" stroke="#191970" d="M491.8018,-428C522.2806,-428 566.0991,-428 599.654,-428"/>
<polygon fill="#191970" stroke="#191970" points="599.712,-431.5001 609.712,-428 599.7119,-424.5001 599.712,-431.5001"/>
</g>
<!-- Node32 -->
<g id="node7" class="node">
<title>Node32</title>
<g id="a_node7"><a xlink:href="../../de/d27/_logger_8cpp.html#a295eb774fde642a4021e2c059844bb69" target="_top" xlink:title="lockStream">
<polygon fill="#ffffff" stroke="#000000" points="806,-446.5 806,-465.5 872,-465.5 872,-446.5 806,-446.5"/>
<text text-anchor="middle" x="839" y="-453.5" font-family="Helvetica,sans-Serif" font-size="10.00" fill="#000000">lockStream</text>
</a>
</g>
</g>
<!-- Node31&#45;&gt;Node32 -->
<g id="edge6" class="edge">
<title>Node31&#45;&gt;Node32</title>
<path fill="none" stroke="#191970" d="M687.0505,-433.6662C718.5415,-438.2948 763.0329,-444.8342 795.7367,-449.6411"/>
<polygon fill="#191970" stroke="#191970" points="795.5065,-453.1448 805.9092,-451.1363 796.5245,-446.2192 795.5065,-453.1448"/>
</g>
<!-- Node33 -->
<g id="node8" class="node">
<title>Node33</title>
<g id="a_node8"><a xlink:href="../../de/d27/_logger_8cpp.html#a923bd0383982e840b71866e794fa1405" target="_top" xlink:title="unlockStream">
<polygon fill="#ffffff" stroke="#000000" points="800.5,-408.5 800.5,-427.5 877.5,-427.5 877.5,-408.5 800.5,-408.5"/>
<text text-anchor="middle" x="839" y="-415.5" font-family="Helvetica,sans-Serif" font-size="10.00" fill="#000000">unlockStream</text>
</a>
</g>
</g>
<!-- Node31&#45;&gt;Node33 -->
<g id="edge7" class="edge">
<title>Node31&#45;&gt;Node33</title>
<path fill="none" stroke="#191970" d="M687.0505,-425.9764C716.7757,-424.416 758.0841,-422.2476 790.1283,-420.5654"/>
<polygon fill="#191970" stroke="#191970" points="790.3776,-424.0573 800.1804,-420.0378 790.0106,-417.0669 790.3776,-424.0573"/>
</g>
<!-- Node36 -->
<g id="node11" class="node">
<title>Node36</title>
<g id="a_node11"><a xlink:href="../../d9/db5/classsighandler_1_1_signal_handler.html#a9414881bcdac4fbb6c3f4c560812e5e7" target="_top" xlink:title="get singleton instance ">
<polygon fill="#ffffff" stroke="#000000" points="194,-342.5 194,-361.5 341,-361.5 341,-342.5 194,-342.5"/>
<text text-anchor="middle" x="267.5" y="-349.5" font-family="Helvetica,sans-Serif" font-size="10.00" fill="#000000">sighandler::SignalHandler::get</text>
</a>
</g>
</g>
<!-- Node35&#45;&gt;Node36 -->
<g id="edge10" class="edge">
<title>Node35&#45;&gt;Node36</title>
<path fill="none" stroke="#191970" d="M153.0611,-337.6479C162.5178,-338.8339 173.0742,-340.1578 183.8461,-341.5088"/>
<polygon fill="#191970" stroke="#191970" points="183.4161,-344.9822 193.774,-342.7538 184.2873,-338.0366 183.4161,-344.9822"/>
</g>
<!-- Node37 -->
<g id="node12" class="node">
<title>Node37</title>
<g id="a_node12"><a xlink:href="../../de/d27/_logger_8cpp.html#aeda367459d679e6d5d4476e7d7aa3963" target="_top" xlink:title="initialize logger for usage ">
<polygon fill="#ffffff" stroke="#000000" points="230.5,-380.5 230.5,-399.5 304.5,-399.5 304.5,-380.5 230.5,-380.5"/>
<text text-anchor="middle" x="267.5" y="-387.5" font-family="Helvetica,sans-Serif" font-size="10.00" fill="#000000">logInitialize_f</text>
</a>
</g>
</g>
<!-- Node35&#45;&gt;Node37 -->
<g id="edge11" class="edge">
<title>Node35&#45;&gt;Node37</title>
<path fill="none" stroke="#191970" d="M133.2178,-342.6334C148.738,-351.0126 172.3756,-363.0291 194,-371 202.4459,-374.1132 211.6167,-376.9176 220.5243,-379.3564"/>
<polygon fill="#191970" stroke="#191970" points="219.8561,-382.7995 230.417,-381.9515 221.6324,-376.0286 219.8561,-382.7995"/>
</g>
<!-- Node42 -->
<g id="node17" class="node">
<title>Node42</title>
<g id="a_node17"><a xlink:href="../../df/d0a/main_8cpp.html#adad1029c9dc4631507923fa3ed8ba868" target="_top" xlink:title="signalHandler">
<polygon fill="#ffffff" stroke="#000000" points="229.5,-304.5 229.5,-323.5 305.5,-323.5 305.5,-304.5 229.5,-304.5"/>
<text text-anchor="middle" x="267.5" y="-311.5" font-family="Helvetica,sans-Serif" font-size="10.00" fill="#000000">signalHandler</text>
</a>
</g>
</g>
<!-- Node35&#45;&gt;Node42 -->
<g id="edge21" class="edge">
<title>Node35&#45;&gt;Node42</title>
<path fill="none" stroke="#191970" d="M153.0611,-328.3521C172.9354,-325.8596 197.6667,-322.758 219.0482,-320.0765"/>
<polygon fill="#191970" stroke="#191970" points="219.7529,-323.5156 229.2396,-318.7983 218.8817,-316.57 219.7529,-323.5156"/>
</g>
<!-- Node37&#45;&gt;Node29 -->
<g id="edge12" class="edge">
<title>Node37&#45;&gt;Node29</title>
<path fill="none" stroke="#191970" d="M281.2388,-399.5417C301.2535,-412.8676 340.0776,-436.586 377,-447 450.6971,-467.7863 539.8866,-469.8697 595.4218,-468.5996"/>
<polygon fill="#191970" stroke="#191970" points="595.8268,-472.0899 605.7269,-468.3163 595.6344,-465.0925 595.8268,-472.0899"/>
</g>
<!-- Node37&#45;&gt;Node30 -->
<g id="edge13" class="edge">
<title>Node37&#45;&gt;Node30</title>
<path fill="none" stroke="#191970" d="M304.5443,-381.9406C325.6604,-377.758 352.6825,-373.0941 377,-371 446.5205,-365.0133 464.4579,-365.2693 534,-371 552.9777,-372.5639 573.5468,-375.5622 591.9465,-378.7229"/>
<polygon fill="#191970" stroke="#191970" points="591.4646,-382.1919 601.9215,-380.4874 592.684,-375.2989 591.4646,-382.1919"/>
</g>
<!-- Node38 -->
<g id="node13" class="node">
<title>Node38</title>
<g id="a_node13"><a xlink:href="../../de/d27/_logger_8cpp.html#aa4df9360b15f4315ce68c9dc16bbd996" target="_top" xlink:title="loggerThreadBody">
<polygon fill="#ffffff" stroke="#000000" points="408,-380.5 408,-399.5 503,-399.5 503,-380.5 408,-380.5"/>
<text text-anchor="middle" x="455.5" y="-387.5" font-family="Helvetica,sans-Serif" font-size="10.00" fill="#000000">loggerThreadBody</text>
</a>
</g>
</g>
<!-- Node37&#45;&gt;Node38 -->
<g id="edge14" class="edge">
<title>Node37&#45;&gt;Node38</title>
<path fill="none" stroke="#191970" d="M304.6428,-390C331.1778,-390 367.3953,-390 397.6926,-390"/>
<polygon fill="#191970" stroke="#191970" points="397.7178,-393.5001 407.7178,-390 397.7178,-386.5001 397.7178,-393.5001"/>
</g>
<!-- Node38&#45;&gt;Node29 -->
<g id="edge15" class="edge">
<title>Node38&#45;&gt;Node29</title>
<path fill="none" stroke="#191970" d="M503.2629,-396.9408C513.8324,-399.7141 524.6569,-403.589 534,-409 554.1319,-420.6593 549.8681,-435.3407 570,-447 577.9307,-451.593 586.9287,-455.0792 595.932,-457.7244"/>
<polygon fill="#191970" stroke="#191970" points="595.0925,-461.1225 605.6535,-460.2772 596.8704,-454.3521 595.0925,-461.1225"/>
</g>
<!-- Node38&#45;&gt;Node30 -->
<g id="edge16" class="edge">
<title>Node38&#45;&gt;Node30</title>
<path fill="none" stroke="#191970" d="M503.2079,-390C529.6529,-390 562.7321,-390 590.6443,-390"/>
<polygon fill="#191970" stroke="#191970" points="590.6721,-393.5001 600.6721,-390 590.672,-386.5001 590.6721,-393.5001"/>
</g>
<!-- Node38&#45;&gt;Node31 -->
<g id="edge20" class="edge">
<title>Node38&#45;&gt;Node31</title>
<path fill="none" stroke="#191970" d="M503.2079,-399.3933C532.5648,-405.1734 570.0973,-412.5632 599.6609,-418.384"/>
<polygon fill="#191970" stroke="#191970" points="599.2713,-421.8744 609.7591,-420.3722 600.6236,-415.0063 599.2713,-421.8744"/>
</g>
<!-- Node39 -->
<g id="node14" class="node">
<title>Node39</title>
<g id="a_node14"><a xlink:href="../../de/d27/_logger_8cpp.html#adba7e7852defaa150e7be9b81114fd62" target="_top" xlink:title="popMessage">
<polygon fill="#ffffff" stroke="#000000" points="612.5,-342.5 612.5,-361.5 684.5,-361.5 684.5,-342.5 612.5,-342.5"/>
<text text-anchor="middle" x="648.5" y="-349.5" font-family="Helvetica,sans-Serif" font-size="10.00" fill="#000000">popMessage</text>
</a>
</g>
</g>
<!-- Node38&#45;&gt;Node39 -->
<g id="edge17" class="edge">
<title>Node38&#45;&gt;Node39</title>
<path fill="none" stroke="#191970" d="M503.2079,-380.6067C533.3636,-374.6693 572.1459,-367.0334 602.0562,-361.1444"/>
<polygon fill="#191970" stroke="#191970" points="603.1017,-364.5058 612.2371,-359.1398 601.7493,-357.6377 603.1017,-364.5058"/>
</g>
<!-- Node40 -->
<g id="node15" class="node">
<title>Node40</title>
<g id="a_node15"><a xlink:href="../../de/d27/_logger_8cpp.html#a16c9d4e11162a42fdf0c5a47f4797336" target="_top" xlink:title="lockLoggerQueue">
<polygon fill="#ffffff" stroke="#000000" points="793,-351.5 793,-370.5 885,-370.5 885,-351.5 793,-351.5"/>
<text text-anchor="middle" x="839" y="-358.5" font-family="Helvetica,sans-Serif" font-size="10.00" fill="#000000">lockLoggerQueue</text>
</a>
</g>
</g>
<!-- Node39&#45;&gt;Node40 -->
<g id="edge18" class="edge">
<title>Node39&#45;&gt;Node40</title>
<path fill="none" stroke="#191970" d="M684.78,-353.714C712.4446,-355.021 751.0509,-356.8449 782.7154,-358.3409"/>
<polygon fill="#191970" stroke="#191970" points="782.5754,-361.8381 792.7295,-358.814 782.9058,-354.8459 782.5754,-361.8381"/>
</g>
<!-- Node41 -->
<g id="node16" class="node">
<title>Node41</title>
<g id="a_node16"><a xlink:href="../../de/d27/_logger_8cpp.html#aa47defada9b881330abec76ff50b017c" target="_top" xlink:title="unlockLoggerQueue">
<polygon fill="#ffffff" stroke="#000000" points="787.5,-313.5 787.5,-332.5 890.5,-332.5 890.5,-313.5 787.5,-313.5"/>
<text text-anchor="middle" x="839" y="-320.5" font-family="Helvetica,sans-Serif" font-size="10.00" fill="#000000">unlockLoggerQueue</text>
</a>
</g>
</g>
<!-- Node39&#45;&gt;Node41 -->
<g id="edge19" class="edge">
<title>Node39&#45;&gt;Node41</title>
<path fill="none" stroke="#191970" d="M684.78,-346.4771C710.87,-342.5054 746.6916,-337.0522 777.2445,-332.4011"/>
<polygon fill="#191970" stroke="#191970" points="778.0229,-335.823 787.3822,-330.8578 776.9693,-328.9027 778.0229,-335.823"/>
</g>
<!-- Node42&#45;&gt;Node34 -->
<g id="edge22" class="edge">
<title>Node42&#45;&gt;Node34</title>
<path fill="none" stroke="#191970" d="M305.5446,-306.3101C333.5959,-300.6402 372.0999,-292.8575 403.0672,-286.5981"/>
<polygon fill="#191970" stroke="#191970" points="404.1459,-289.9509 413.2542,-284.539 402.759,-283.0897 404.1459,-289.9509"/>
</g>
<!-- Node43 -->
<g id="node18" class="node">
<title>Node43</title>
<g id="a_node18"><a xlink:href="../../de/d6b/class_application.html#a7a9e487106abcd163331ad98910cc48f" target="_top" xlink:title="Application::stop">
<polygon fill="#ffffff" stroke="#000000" points="411,-304.5 411,-323.5 500,-323.5 500,-304.5 411,-304.5"/>
<text text-anchor="middle" x="455.5" y="-311.5" font-family="Helvetica,sans-Serif" font-size="10.00" fill="#000000">Application::stop</text>
</a>
</g>
</g>
<!-- Node42&#45;&gt;Node43 -->
<g id="edge23" class="edge">
<title>Node42&#45;&gt;Node43</title>
<path fill="none" stroke="#191970" d="M305.5446,-314C332.9212,-314 370.2535,-314 400.8196,-314"/>
<polygon fill="#191970" stroke="#191970" points="400.902,-317.5001 410.9019,-314 400.9019,-310.5001 400.902,-317.5001"/>
</g>
<!-- Node45 -->
<g id="node20" class="node">
<title>Node45</title>
<g id="a_node20"><a xlink:href="../../d3/d5f/class_abstract_a_p_i.html#a9549b687af4bbeea35907cf5297d69c9" target="_top" xlink:title="common implementation of API start procedure ">
<polygon fill="#ffffff" stroke="#000000" points="220,-171.5 220,-190.5 315,-190.5 315,-171.5 220,-171.5"/>
<text text-anchor="middle" x="267.5" y="-178.5" font-family="Helvetica,sans-Serif" font-size="10.00" fill="#000000">AbstractAPI::start</text>
</a>
</g>
</g>
<!-- Node44&#45;&gt;Node45 -->
<g id="edge25" class="edge">
<title>Node44&#45;&gt;Node45</title>
<path fill="none" stroke="#191970" d="M154.2298,-152.589C174.1319,-157.5809 198.6567,-163.7324 219.7909,-169.0334"/>
<polygon fill="#191970" stroke="#191970" points="218.994,-172.4418 229.5451,-171.4799 220.6971,-165.6521 218.994,-172.4418"/>
</g>
<!-- Node51 -->
<g id="node26" class="node">
<title>Node51</title>
<g id="a_node26"><a xlink:href="../../d3/df5/class_message_processor.html#a1af9c4a7a077e73077f2f25cd15a6361" target="_top" xlink:title="start message processor thread ">
<polygon fill="#ffffff" stroke="#000000" points="204.5,-76.5 204.5,-95.5 330.5,-95.5 330.5,-76.5 204.5,-76.5"/>
<text text-anchor="middle" x="267.5" y="-83.5" font-family="Helvetica,sans-Serif" font-size="10.00" fill="#000000">MessageProcessor::start</text>
</a>
</g>
</g>
<!-- Node44&#45;&gt;Node51 -->
<g id="edge31" class="edge">
<title>Node44&#45;&gt;Node51</title>
<path fill="none" stroke="#191970" d="M141.3577,-133.4595C166.3742,-124.0473 204.8104,-109.5862 232.6813,-99.1001"/>
<polygon fill="#191970" stroke="#191970" points="233.9326,-102.3689 242.0596,-95.5716 231.4676,-95.8173 233.9326,-102.3689"/>
</g>
<!-- Node59 -->
<g id="node34" class="node">
<title>Node59</title>
<g id="a_node34"><a xlink:href="../../d3/df5/class_message_processor.html#af438aaa750f77f32edb7ca09bebd1c46" target="_top" xlink:title="stop message processor ">
<polygon fill="#ffffff" stroke="#000000" points="205,-38.5 205,-57.5 330,-57.5 330,-38.5 205,-38.5"/>
<text text-anchor="middle" x="267.5" y="-45.5" font-family="Helvetica,sans-Serif" font-size="10.00" fill="#000000">MessageProcessor::stop</text>
</a>
</g>
</g>
<!-- Node44&#45;&gt;Node59 -->
<g id="edge39" class="edge">
<title>Node44&#45;&gt;Node59</title>
<path fill="none" stroke="#191970" d="M123.0301,-133.4524C135.4787,-117.25 163.0251,-84.4356 194,-67 197.984,-64.7574 202.2377,-62.7738 206.615,-61.02"/>
<polygon fill="#191970" stroke="#191970" points="208.1046,-64.2043 216.3383,-57.5367 205.7438,-57.6144 208.1046,-64.2043"/>
</g>
<!-- Node61 -->
<g id="node36" class="node">
<title>Node61</title>
<g id="a_node36"><a xlink:href="../../d3/d5f/class_abstract_a_p_i.html#a3dc02a0aa489246ab40b17354da90288" target="_top" xlink:title="stop API and deallocate resources ">
<polygon fill="#ffffff" stroke="#000000" points="220,-133.5 220,-152.5 315,-152.5 315,-133.5 220,-133.5"/>
<text text-anchor="middle" x="267.5" y="-140.5" font-family="Helvetica,sans-Serif" font-size="10.00" fill="#000000">AbstractAPI::stop</text>
</a>
</g>
</g>
<!-- Node44&#45;&gt;Node61 -->
<g id="edge42" class="edge">
<title>Node44&#45;&gt;Node61</title>
<path fill="none" stroke="#191970" d="M158.2012,-143C174.0799,-143 192.4233,-143 209.493,-143"/>
<polygon fill="#191970" stroke="#191970" points="209.9234,-146.5001 219.9233,-143 209.9233,-139.5001 209.9234,-146.5001"/>
</g>
<!-- Node46 -->
<g id="node21" class="node">
<title>Node46</title>
<g id="a_node21"><a xlink:href="../../d3/d5f/class_abstract_a_p_i.html#aaa52851cc8c8e3b49f134b323b9a4507" target="_top" xlink:title="deviced APIs will implement setup procedures ">
<polygon fill="#ffffff" stroke="#000000" points="398.5,-228.5 398.5,-247.5 512.5,-247.5 512.5,-228.5 398.5,-228.5"/>
<text text-anchor="middle" x="455.5" y="-235.5" font-family="Helvetica,sans-Serif" font-size="10.00" fill="#000000">AbstractAPI::setupApi</text>
</a>
</g>
</g>
<!-- Node45&#45;&gt;Node46 -->
<g id="edge26" class="edge">
<title>Node45&#45;&gt;Node46</title>
<path fill="none" stroke="#191970" d="M292.9389,-190.6115C314.9886,-198.7533 347.847,-210.4351 377,-219 385.4063,-221.4697 394.3856,-223.8657 403.1574,-226.0768"/>
<polygon fill="#191970" stroke="#191970" points="402.3839,-229.4909 412.9312,-228.4889 404.0611,-222.6948 402.3839,-229.4909"/>
</g>
<!-- Node47 -->
<g id="node22" class="node">
<title>Node47</title>
<g id="a_node22"><a xlink:href="../../d3/d5f/class_abstract_a_p_i.html#ada2e62db474de8b3aa0ea04e1d759d2e" target="_top" xlink:title="safely sets flag if thread should continue to work ">
<polygon fill="#ffffff" stroke="#000000" points="392.5,-152.5 392.5,-171.5 518.5,-171.5 518.5,-152.5 392.5,-152.5"/>
<text text-anchor="middle" x="455.5" y="-159.5" font-family="Helvetica,sans-Serif" font-size="10.00" fill="#000000">AbstractAPI::setRunFlag</text>
</a>
</g>
</g>
<!-- Node45&#45;&gt;Node47 -->
<g id="edge27" class="edge">
<title>Node45&#45;&gt;Node47</title>
<path fill="none" stroke="#191970" d="M315.4268,-176.1563C335.7099,-174.1064 359.7953,-171.6723 382.2241,-169.4055"/>
<polygon fill="#191970" stroke="#191970" points="382.7958,-172.8657 392.3931,-168.3778 382.0918,-165.9012 382.7958,-172.8657"/>
</g>
<!-- Node48 -->
<g id="node23" class="node">
<title>Node48</title>
<g id="a_node23"><a xlink:href="../../d3/d5f/class_abstract_a_p_i.html#a68737cfef2126eddc4f9f2ba4158e4d9" target="_top" xlink:title="thread body representation &#45; a simple loop with no delay ">
<polygon fill="#ffffff" stroke="#000000" points="393,-190.5 393,-209.5 518,-209.5 518,-190.5 393,-190.5"/>
<text text-anchor="middle" x="455.5" y="-197.5" font-family="Helvetica,sans-Serif" font-size="10.00" fill="#000000">AbstractAPI::threadBody</text>
</a>
</g>
</g>
<!-- Node45&#45;&gt;Node48 -->
<g id="edge28" class="edge">
<title>Node45&#45;&gt;Node48</title>
<path fill="none" stroke="#191970" d="M315.4268,-185.8437C335.8042,-187.9031 360.0194,-190.3504 382.537,-192.6261"/>
<polygon fill="#191970" stroke="#191970" points="382.4423,-196.1343 392.7436,-193.6576 383.1462,-189.1697 382.4423,-196.1343"/>
</g>
<!-- Node49 -->
<g id="node24" class="node">
<title>Node49</title>
<g id="a_node24"><a xlink:href="../../d3/d5f/class_abstract_a_p_i.html#a3a221fec07fb867640f701bf3113bee2" target="_top" xlink:title="safely returns flag if thread should continue to work ">
<polygon fill="#ffffff" stroke="#000000" points="585.5,-171.5 585.5,-190.5 711.5,-190.5 711.5,-171.5 585.5,-171.5"/>
<text text-anchor="middle" x="648.5" y="-178.5" font-family="Helvetica,sans-Serif" font-size="10.00" fill="#000000">AbstractAPI::getRunFlag</text>
</a>
</g>
</g>
<!-- Node48&#45;&gt;Node49 -->
<g id="edge29" class="edge">
<title>Node48&#45;&gt;Node49</title>
<path fill="none" stroke="#191970" d="M518.1616,-193.8312C536.4483,-192.031 556.5913,-190.048 575.4604,-188.1904"/>
<polygon fill="#191970" stroke="#191970" points="575.8834,-191.6658 585.4924,-187.2028 575.1976,-184.6995 575.8834,-191.6658"/>
</g>
<!-- Node50 -->
<g id="node25" class="node">
<title>Node50</title>
<g id="a_node25"><a xlink:href="../../d3/d5f/class_abstract_a_p_i.html#afb7effe52a40bc6ba22120797fd6133b" target="_top" xlink:title="derived API will implement its runtime ">
<polygon fill="#ffffff" stroke="#000000" points="604,-209.5 604,-228.5 693,-228.5 693,-209.5 604,-209.5"/>
<text text-anchor="middle" x="648.5" y="-216.5" font-family="Helvetica,sans-Serif" font-size="10.00" fill="#000000">AbstractAPI::run</text>
</a>
</g>
</g>
<!-- Node48&#45;&gt;Node50 -->
<g id="edge30" class="edge">
<title>Node48&#45;&gt;Node50</title>
<path fill="none" stroke="#191970" d="M518.1616,-206.1688C542.5149,-208.5662 570.1605,-211.2878 593.7049,-213.6057"/>
<polygon fill="#191970" stroke="#191970" points="593.5691,-217.1091 603.8639,-214.6058 594.255,-210.1428 593.5691,-217.1091"/>
</g>
<!-- Node52 -->
<g id="node27" class="node">
<title>Node52</title>
<g id="a_node27"><a xlink:href="../../d3/df5/class_message_processor.html#a081a93455dbac2a750465a3796858d6d" target="_top" xlink:title="Set the Run Flag object. ">
<polygon fill="#ffffff" stroke="#000000" points="377,-38.5 377,-57.5 534,-57.5 534,-38.5 377,-38.5"/>
<text text-anchor="middle" x="455.5" y="-45.5" font-family="Helvetica,sans-Serif" font-size="10.00" fill="#000000">MessageProcessor::setRunFlag</text>
</a>
</g>
</g>
<!-- Node51&#45;&gt;Node52 -->
<g id="edge32" class="edge">
<title>Node51&#45;&gt;Node52</title>
<path fill="none" stroke="#191970" d="M314.9403,-76.411C340.3077,-71.2835 371.7274,-64.9328 398.4232,-59.5368"/>
<polygon fill="#191970" stroke="#191970" points="399.2925,-62.932 408.4008,-57.5201 397.9056,-56.0707 399.2925,-62.932"/>
</g>
<!-- Node53 -->
<g id="node28" class="node">
<title>Node53</title>
<g id="a_node28"><a xlink:href="../../d3/df5/class_message_processor.html#a4a1eaa51c19e417a57f43cff6c459b9b" target="_top" xlink:title="thread body implementation ">
<polygon fill="#ffffff" stroke="#000000" points="377.5,-76.5 377.5,-95.5 533.5,-95.5 533.5,-76.5 377.5,-76.5"/>
<text text-anchor="middle" x="455.5" y="-83.5" font-family="Helvetica,sans-Serif" font-size="10.00" fill="#000000">MessageProcessor::threadBody</text>
</a>
</g>
</g>
<!-- Node51&#45;&gt;Node53 -->
<g id="edge33" class="edge">
<title>Node51&#45;&gt;Node53</title>
<path fill="none" stroke="#191970" d="M330.6243,-86C342.2915,-86 354.6726,-86 366.9302,-86"/>
<polygon fill="#191970" stroke="#191970" points="367.1792,-89.5001 377.1792,-86 367.1791,-82.5001 367.1792,-89.5001"/>
</g>
<!-- Node54 -->
<g id="node29" class="node">
<title>Node54</title>
<g id="a_node29"><a xlink:href="../../d3/df5/class_message_processor.html#ab0700e40b5ae709cb970294efc37d31f" target="_top" xlink:title="get flag that indicates ">
<polygon fill="#ffffff" stroke="#000000" points="570,-114.5 570,-133.5 727,-133.5 727,-114.5 570,-114.5"/>
<text text-anchor="middle" x="648.5" y="-121.5" font-family="Helvetica,sans-Serif" font-size="10.00" fill="#000000">MessageProcessor::getRunFlag</text>
</a>
</g>
</g>
<!-- Node53&#45;&gt;Node54 -->
<g id="edge34" class="edge">
<title>Node53&#45;&gt;Node54</title>
<path fill="none" stroke="#191970" d="M504.202,-95.589C530.3588,-100.739 562.7837,-107.1232 590.2671,-112.5344"/>
<polygon fill="#191970" stroke="#191970" points="589.6604,-115.9821 600.1482,-114.4799 591.0127,-109.114 589.6604,-115.9821"/>
</g>
<!-- Node55 -->
<g id="node30" class="node">
<title>Node55</title>
<g id="a_node30"><a xlink:href="../../d3/d5f/class_abstract_a_p_i.html#a4b114a5c2a103d590a4261f5c95123cd" target="_top" xlink:title="Get the next message in message queue. ">
<polygon fill="#ffffff" stroke="#000000" points="573.5,-76.5 573.5,-95.5 723.5,-95.5 723.5,-76.5 573.5,-76.5"/>
<text text-anchor="middle" x="648.5" y="-83.5" font-family="Helvetica,sans-Serif" font-size="10.00" fill="#000000">AbstractAPI::getNextMessage</text>
</a>
</g>
</g>
<!-- Node53&#45;&gt;Node55 -->
<g id="edge35" class="edge">
<title>Node53&#45;&gt;Node55</title>
<path fill="none" stroke="#191970" d="M533.7223,-86C543.4162,-86 553.3656,-86 563.1595,-86"/>
<polygon fill="#191970" stroke="#191970" points="563.2924,-89.5001 573.2923,-86 563.2923,-82.5001 563.2924,-89.5001"/>
</g>
<!-- Node56 -->
<g id="node31" class="node">
<title>Node56</title>
<g id="a_node31"><a xlink:href="../../db/d85/class_data_storage.html#add6db588ead8c9218e88cf332b06e985" target="_top" xlink:title="add new record to the datastore ">
<polygon fill="#ffffff" stroke="#000000" points="586,-38.5 586,-57.5 711,-57.5 711,-38.5 586,-38.5"/>
<text text-anchor="middle" x="648.5" y="-45.5" font-family="Helvetica,sans-Serif" font-size="10.00" fill="#000000">DataStorage::addRecord</text>
</a>
</g>
</g>
<!-- Node53&#45;&gt;Node56 -->
<g id="edge36" class="edge">
<title>Node53&#45;&gt;Node56</title>
<path fill="none" stroke="#191970" d="M504.202,-76.411C530.3588,-71.261 562.7837,-64.8768 590.2671,-59.4656"/>
<polygon fill="#191970" stroke="#191970" points="591.0127,-62.886 600.1482,-57.5201 589.6604,-56.0179 591.0127,-62.886"/>
</g>
<!-- Node57 -->
<g id="node32" class="node">
<title>Node57</title>
<g id="a_node32"><a xlink:href="../../dd/d25/namespacefnv.html#a3d5ea8f4e1ac576cc07994d8bc74d051" target="_top" xlink:title="calculate Fnv64a hash from given string ">
<polygon fill="#ffffff" stroke="#000000" points="805,-60.5 805,-79.5 873,-79.5 873,-60.5 805,-60.5"/>
<text text-anchor="middle" x="839" y="-67.5" font-family="Helvetica,sans-Serif" font-size="10.00" fill="#000000">fnv::Fnv64a</text>
</a>
</g>
</g>
<!-- Node56&#45;&gt;Node57 -->
<g id="edge37" class="edge">
<title>Node56&#45;&gt;Node57</title>
<path fill="none" stroke="#191970" d="M711.1407,-55.2341C738.4686,-58.3901 769.8694,-62.0164 794.7136,-64.8856"/>
<polygon fill="#191970" stroke="#191970" points="794.5931,-68.3948 804.9287,-66.0653 795.3963,-61.441 794.5931,-68.3948"/>
</g>
<!-- Node58 -->
<g id="node33" class="node">
<title>Node58</title>
<g id="a_node33"><a xlink:href="../../db/d85/class_data_storage.html#a83711f8d0caac782642317ccba89f6da" target="_top" xlink:title="add measurement record to the database ">
<polygon fill="#ffffff" stroke="#000000" points="763,-11 763,-41 915,-41 915,-11 763,-11"/>
<text text-anchor="start" x="771" y="-29" font-family="Helvetica,sans-Serif" font-size="10.00" fill="#000000">DataStorage::addMeasurement</text>
<text text-anchor="middle" x="839" y="-18" font-family="Helvetica,sans-Serif" font-size="10.00" fill="#000000">Record</text>
</a>
</g>
</g>
<!-- Node56&#45;&gt;Node58 -->
<g id="edge38" class="edge">
<title>Node56&#45;&gt;Node58</title>
<path fill="none" stroke="#191970" d="M711.1407,-40.7659C724.4048,-39.2341 738.6283,-37.5915 752.596,-35.9784"/>
<polygon fill="#191970" stroke="#191970" points="753.1715,-39.4353 762.704,-34.8111 752.3684,-32.4815 753.1715,-39.4353"/>
</g>
<!-- Node59&#45;&gt;Node52 -->
<g id="edge40" class="edge">
<title>Node59&#45;&gt;Node52</title>
<path fill="none" stroke="#191970" d="M330.1013,-48C341.7842,-48 354.1981,-48 366.4977,-48"/>
<polygon fill="#191970" stroke="#191970" points="366.7839,-51.5001 376.7838,-48 366.7838,-44.5001 366.7839,-51.5001"/>
</g>
<!-- Node60 -->
<g id="node35" class="node">
<title>Node60</title>
<g id="a_node35"><a xlink:href="../../d3/df5/class_message_processor.html#ad5470ea591fdda8c4a05391524823a00" target="_top" xlink:title="static method for API to notify message processor that new data are available ">
<polygon fill="#ffffff" stroke="#000000" points="390,-.5 390,-19.5 521,-19.5 521,-.5 390,-.5"/>
<text text-anchor="middle" x="455.5" y="-7.5" font-family="Helvetica,sans-Serif" font-size="10.00" fill="#000000">MessageProcessor::notify</text>
</a>
</g>
</g>
<!-- Node59&#45;&gt;Node60 -->
<g id="edge41" class="edge">
<title>Node59&#45;&gt;Node60</title>
<path fill="none" stroke="#191970" d="M314.9403,-38.411C340.3077,-33.2835 371.7274,-26.9328 398.4232,-21.5368"/>
<polygon fill="#191970" stroke="#191970" points="399.2925,-24.932 408.4008,-19.5201 397.9056,-18.0707 399.2925,-24.932"/>
</g>
<!-- Node61&#45;&gt;Node47 -->
<g id="edge43" class="edge">
<title>Node61&#45;&gt;Node47</title>
<path fill="none" stroke="#191970" d="M315.4268,-147.8437C335.7099,-149.8936 359.7953,-152.3277 382.2241,-154.5945"/>
<polygon fill="#191970" stroke="#191970" points="382.0918,-158.0988 392.3931,-155.6222 382.7958,-151.1343 382.0918,-158.0988"/>
</g>
<!-- Node62 -->
<g id="node37" class="node">
<title>Node62</title>
<g id="a_node37"><a xlink:href="../../d3/d5f/class_abstract_a_p_i.html#a0dc4dff87790e5009577d6a6153c7faf" target="_top" xlink:title="derived APIs will implement shutdown procedures ">
<polygon fill="#ffffff" stroke="#000000" points="389.5,-114.5 389.5,-133.5 521.5,-133.5 521.5,-114.5 389.5,-114.5"/>
<text text-anchor="middle" x="455.5" y="-121.5" font-family="Helvetica,sans-Serif" font-size="10.00" fill="#000000">AbstractAPI::shutdownApi</text>
</a>
</g>
</g>
<!-- Node61&#45;&gt;Node62 -->
<g id="edge44" class="edge">
<title>Node61&#45;&gt;Node62</title>
<path fill="none" stroke="#191970" d="M315.4268,-138.1563C334.7733,-136.2011 357.5791,-133.8963 379.107,-131.7206"/>
<polygon fill="#191970" stroke="#191970" points="379.6229,-135.1863 389.2203,-130.6985 378.919,-128.2218 379.6229,-135.1863"/>
</g>
</g>
</svg>
