<?xml version="1.0" encoding="UTF-8" standalone="no"?>
<!DOCTYPE svg PUBLIC "-//W3C//DTD SVG 1.1//EN"
 "http://www.w3.org/Graphics/SVG/1.1/DTD/svg11.dtd">
<!-- Generated by graphviz version 2.40.1 (20161225.0304)
 -->
<!-- Title: initProcedure Pages: 1 -->
<svg width="666pt" height="208pt"
 viewBox="0.00 0.00 666.00 208.00" xmlns="http://www.w3.org/2000/svg" xmlns:xlink="http://www.w3.org/1999/xlink">
<g id="graph0" class="graph" transform="scale(1 1) rotate(0) translate(4 204)">
<title>initProcedure</title>
<polygon fill="#ffffff" stroke="transparent" points="-4,4 -4,-204 662,-204 662,4 -4,4"/>
<!-- Node9 -->
<g id="node1" class="node">
<title>Node9</title>
<polygon fill="#bfbfbf" stroke="#000000" points="0,-95.5 0,-114.5 74,-114.5 74,-95.5 0,-95.5"/>
<text text-anchor="middle" x="37" y="-102.5" font-family="Helvetica,sans-Serif" font-size="10.00" fill="#000000">initProcedure</text>
</g>
<!-- Node10 -->
<g id="node2" class="node">
<title>Node10</title>
<g id="a_node2"><a xlink:href="../../d9/db5/classsighandler_1_1_signal_handler.html#a9414881bcdac4fbb6c3f4c560812e5e7" target="_top" xlink:title="get singleton instance ">
<polygon fill="#ffffff" stroke="#000000" points="110,-133.5 110,-152.5 257,-152.5 257,-133.5 110,-133.5"/>
<text text-anchor="middle" x="183.5" y="-140.5" font-family="Helvetica,sans-Serif" font-size="10.00" fill="#000000">sighandler::SignalHandler::get</text>
</a>
</g>
</g>
<!-- Node9&#45;&gt;Node10 -->
<g id="edge1" class="edge">
<title>Node9&#45;&gt;Node10</title>
<path fill="none" stroke="#191970" d="M73.7594,-114.5802C85.3534,-117.5984 98.211,-120.9421 110,-124 118.6204,-126.236 127.8107,-128.6154 136.6696,-130.9066"/>
<polygon fill="#191970" stroke="#191970" points="135.9248,-134.329 146.4826,-133.4436 137.677,-127.5519 135.9248,-134.329"/>
</g>
<!-- Node11 -->
<g id="node3" class="node">
<title>Node11</title>
<g id="a_node3"><a xlink:href="../../de/d27/_logger_8cpp.html#aeda367459d679e6d5d4476e7d7aa3963" target="_top" xlink:title="initialize logger for usage ">
<polygon fill="#ffffff" stroke="#000000" points="146.5,-95.5 146.5,-114.5 220.5,-114.5 220.5,-95.5 146.5,-95.5"/>
<text text-anchor="middle" x="183.5" y="-102.5" font-family="Helvetica,sans-Serif" font-size="10.00" fill="#000000">logInitialize_f</text>
</a>
</g>
</g>
<!-- Node9&#45;&gt;Node11 -->
<g id="edge2" class="edge">
<title>Node9&#45;&gt;Node11</title>
<path fill="none" stroke="#191970" d="M74.3472,-105C93.1889,-105 116.2411,-105 136.2978,-105"/>
<polygon fill="#191970" stroke="#191970" points="136.475,-108.5001 146.4749,-105 136.4749,-101.5001 136.475,-108.5001"/>
</g>
<!-- Node21 -->
<g id="node13" class="node">
<title>Node21</title>
<g id="a_node13"><a xlink:href="../../df/d0a/main_8cpp.html#adad1029c9dc4631507923fa3ed8ba868" target="_top" xlink:title="signalHandler">
<polygon fill="#ffffff" stroke="#000000" points="145.5,-38.5 145.5,-57.5 221.5,-57.5 221.5,-38.5 145.5,-38.5"/>
<text text-anchor="middle" x="183.5" y="-45.5" font-family="Helvetica,sans-Serif" font-size="10.00" fill="#000000">signalHandler</text>
</a>
</g>
</g>
<!-- Node9&#45;&gt;Node21 -->
<g id="edge14" class="edge">
<title>Node9&#45;&gt;Node21</title>
<path fill="none" stroke="#191970" d="M61.5208,-95.4595C85.606,-86.0884 122.555,-71.7124 149.4767,-61.2377"/>
<polygon fill="#191970" stroke="#191970" points="150.8489,-64.4595 158.8992,-57.5716 148.3106,-57.9359 150.8489,-64.4595"/>
</g>
<!-- Node12 -->
<g id="node4" class="node">
<title>Node12</title>
<g id="a_node4"><a xlink:href="../../de/d27/_logger_8cpp.html#a7b0614b46b009eec456e166c4010757e" target="_top" xlink:title="lockLoggerData">
<polygon fill="#ffffff" stroke="#000000" points="429,-66.5 429,-85.5 514,-85.5 514,-66.5 429,-66.5"/>
<text text-anchor="middle" x="471.5" y="-73.5" font-family="Helvetica,sans-Serif" font-size="10.00" fill="#000000">lockLoggerData</text>
</a>
</g>
</g>
<!-- Node11&#45;&gt;Node12 -->
<g id="edge3" class="edge">
<title>Node11&#45;&gt;Node12</title>
<path fill="none" stroke="#191970" d="M220.5614,-101.2681C271.0091,-96.1883 361.5723,-87.0691 418.9966,-81.2868"/>
<polygon fill="#191970" stroke="#191970" points="419.3669,-84.7673 428.9659,-80.2829 418.6655,-77.8025 419.3669,-84.7673"/>
</g>
<!-- Node13 -->
<g id="node5" class="node">
<title>Node13</title>
<g id="a_node5"><a xlink:href="../../de/d27/_logger_8cpp.html#aeeb83b8b6ec1dbdf1a3e72fc836caef6" target="_top" xlink:title="unlockLoggerData">
<polygon fill="#ffffff" stroke="#000000" points="424,-180.5 424,-199.5 519,-199.5 519,-180.5 424,-180.5"/>
<text text-anchor="middle" x="471.5" y="-187.5" font-family="Helvetica,sans-Serif" font-size="10.00" fill="#000000">unlockLoggerData</text>
</a>
</g>
</g>
<!-- Node11&#45;&gt;Node13 -->
<g id="edge4" class="edge">
<title>Node11&#45;&gt;Node13</title>
<path fill="none" stroke="#191970" d="M220.6679,-112.8238C232.4674,-115.7785 245.4462,-119.5281 257,-124 273.872,-130.5303 276.1427,-136.4318 293,-143 332.2702,-158.3012 378.3024,-170.2854 413.7842,-178.3223"/>
<polygon fill="#191970" stroke="#191970" points="413.4454,-181.8323 423.9667,-180.5863 414.9647,-174.9992 413.4454,-181.8323"/>
</g>
<!-- Node14 -->
<g id="node6" class="node">
<title>Node14</title>
<g id="a_node6"><a xlink:href="../../de/d27/_logger_8cpp.html#aa4df9360b15f4315ce68c9dc16bbd996" target="_top" xlink:title="loggerThreadBody">
<polygon fill="#ffffff" stroke="#000000" points="293,-114.5 293,-133.5 388,-133.5 388,-114.5 293,-114.5"/>
<text text-anchor="middle" x="340.5" y="-121.5" font-family="Helvetica,sans-Serif" font-size="10.00" fill="#000000">loggerThreadBody</text>
</a>
</g>
</g>
<!-- Node11&#45;&gt;Node14 -->
<g id="edge5" class="edge">
<title>Node11&#45;&gt;Node14</title>
<path fill="none" stroke="#191970" d="M220.7068,-109.5027C239.2532,-111.7472 262.0986,-114.5119 282.8487,-117.0231"/>
<polygon fill="#191970" stroke="#191970" points="282.4907,-120.5052 292.8388,-118.2321 283.3317,-113.5559 282.4907,-120.5052"/>
</g>
<!-- Node14&#45;&gt;Node12 -->
<g id="edge6" class="edge">
<title>Node14&#45;&gt;Node12</title>
<path fill="none" stroke="#191970" d="M366.695,-114.4018C386.5084,-107.142 413.9361,-97.0921 435.7633,-89.0944"/>
<polygon fill="#191970" stroke="#191970" points="437.1651,-92.3084 445.3504,-85.5815 434.7567,-85.7357 437.1651,-92.3084"/>
</g>
<!-- Node14&#45;&gt;Node13 -->
<g id="edge7" class="edge">
<title>Node14&#45;&gt;Node13</title>
<path fill="none" stroke="#191970" d="M356.1752,-133.6492C372.7126,-143.6313 399.694,-159.3609 424,-171 427.8752,-172.8557 431.9819,-174.6884 436.0944,-176.4408"/>
<polygon fill="#191970" stroke="#191970" points="435.0148,-179.7814 445.594,-180.3563 437.6824,-173.3096 435.0148,-179.7814"/>
</g>
<!-- Node15 -->
<g id="node7" class="node">
<title>Node15</title>
<g id="a_node7"><a xlink:href="../../de/d27/_logger_8cpp.html#adba7e7852defaa150e7be9b81114fd62" target="_top" xlink:title="popMessage">
<polygon fill="#ffffff" stroke="#000000" points="435.5,-142.5 435.5,-161.5 507.5,-161.5 507.5,-142.5 435.5,-142.5"/>
<text text-anchor="middle" x="471.5" y="-149.5" font-family="Helvetica,sans-Serif" font-size="10.00" fill="#000000">popMessage</text>
</a>
</g>
</g>
<!-- Node14&#45;&gt;Node15 -->
<g id="edge8" class="edge">
<title>Node14&#45;&gt;Node15</title>
<path fill="none" stroke="#191970" d="M385.2164,-133.5577C398.0832,-136.3079 412.1438,-139.3132 425.1095,-142.0845"/>
<polygon fill="#191970" stroke="#191970" points="424.7186,-145.5799 435.2293,-144.2475 426.1818,-138.7345 424.7186,-145.5799"/>
</g>
<!-- Node18 -->
<g id="node10" class="node">
<title>Node18</title>
<g id="a_node10"><a xlink:href="../../de/d27/_logger_8cpp.html#a11eaecfa4e0eaee60ec32d2aa435f0ef" target="_top" xlink:title="writeMessage">
<polygon fill="#ffffff" stroke="#000000" points="433,-104.5 433,-123.5 510,-123.5 510,-104.5 433,-104.5"/>
<text text-anchor="middle" x="471.5" y="-111.5" font-family="Helvetica,sans-Serif" font-size="10.00" fill="#000000">writeMessage</text>
</a>
</g>
</g>
<!-- Node14&#45;&gt;Node18 -->
<g id="edge11" class="edge">
<title>Node14&#45;&gt;Node18</title>
<path fill="none" stroke="#191970" d="M388.1646,-120.3615C399.3667,-119.5064 411.3222,-118.5937 422.5785,-117.7345"/>
<polygon fill="#191970" stroke="#191970" points="422.9731,-121.2146 432.6776,-116.9635 422.4402,-114.2349 422.9731,-121.2146"/>
</g>
<!-- Node16 -->
<g id="node8" class="node">
<title>Node16</title>
<g id="a_node8"><a xlink:href="../../de/d27/_logger_8cpp.html#a16c9d4e11162a42fdf0c5a47f4797336" target="_top" xlink:title="lockLoggerQueue">
<polygon fill="#ffffff" stroke="#000000" points="560.5,-180.5 560.5,-199.5 652.5,-199.5 652.5,-180.5 560.5,-180.5"/>
<text text-anchor="middle" x="606.5" y="-187.5" font-family="Helvetica,sans-Serif" font-size="10.00" fill="#000000">lockLoggerQueue</text>
</a>
</g>
</g>
<!-- Node15&#45;&gt;Node16 -->
<g id="edge9" class="edge">
<title>Node15&#45;&gt;Node16</title>
<path fill="none" stroke="#191970" d="M505.5662,-161.589C522.9135,-166.4719 544.2022,-172.4643 562.7492,-177.685"/>
<polygon fill="#191970" stroke="#191970" points="561.8704,-181.0735 572.4447,-180.4141 563.7671,-174.3354 561.8704,-181.0735"/>
</g>
<!-- Node17 -->
<g id="node9" class="node">
<title>Node17</title>
<g id="a_node9"><a xlink:href="../../de/d27/_logger_8cpp.html#aa47defada9b881330abec76ff50b017c" target="_top" xlink:title="unlockLoggerQueue">
<polygon fill="#ffffff" stroke="#000000" points="555,-142.5 555,-161.5 658,-161.5 658,-142.5 555,-142.5"/>
<text text-anchor="middle" x="606.5" y="-149.5" font-family="Helvetica,sans-Serif" font-size="10.00" fill="#000000">unlockLoggerQueue</text>
</a>
</g>
</g>
<!-- Node15&#45;&gt;Node17 -->
<g id="edge10" class="edge">
<title>Node15&#45;&gt;Node17</title>
<path fill="none" stroke="#191970" d="M507.6775,-152C519.1403,-152 532.1516,-152 544.8818,-152"/>
<polygon fill="#191970" stroke="#191970" points="544.9959,-155.5001 554.9959,-152 544.9958,-148.5001 544.9959,-155.5001"/>
</g>
<!-- Node19 -->
<g id="node11" class="node">
<title>Node19</title>
<g id="a_node11"><a xlink:href="../../de/d27/_logger_8cpp.html#a295eb774fde642a4021e2c059844bb69" target="_top" xlink:title="lockStream">
<polygon fill="#ffffff" stroke="#000000" points="573.5,-104.5 573.5,-123.5 639.5,-123.5 639.5,-104.5 573.5,-104.5"/>
<text text-anchor="middle" x="606.5" y="-111.5" font-family="Helvetica,sans-Serif" font-size="10.00" fill="#000000">lockStream</text>
</a>
</g>
</g>
<!-- Node18&#45;&gt;Node19 -->
<g id="edge12" class="edge">
<title>Node18&#45;&gt;Node19</title>
<path fill="none" stroke="#191970" d="M510.1856,-114C526.7035,-114 546.0554,-114 563.0624,-114"/>
<polygon fill="#191970" stroke="#191970" points="563.3024,-117.5001 573.3024,-114 563.3023,-110.5001 563.3024,-117.5001"/>
</g>
<!-- Node20 -->
<g id="node12" class="node">
<title>Node20</title>
<g id="a_node12"><a xlink:href="../../de/d27/_logger_8cpp.html#a923bd0383982e840b71866e794fa1405" target="_top" xlink:title="unlockStream">
<polygon fill="#ffffff" stroke="#000000" points="568,-66.5 568,-85.5 645,-85.5 645,-66.5 568,-66.5"/>
<text text-anchor="middle" x="606.5" y="-73.5" font-family="Helvetica,sans-Serif" font-size="10.00" fill="#000000">unlockStream</text>
</a>
</g>
</g>
<!-- Node18&#45;&gt;Node20 -->
<g id="edge13" class="edge">
<title>Node18&#45;&gt;Node20</title>
<path fill="none" stroke="#191970" d="M505.5662,-104.411C522.9135,-99.5281 544.2022,-93.5357 562.7492,-88.315"/>
<polygon fill="#191970" stroke="#191970" points="563.7671,-91.6646 572.4447,-85.5859 561.8704,-84.9265 563.7671,-91.6646"/>
</g>
<!-- Node22 -->
<g id="node14" class="node">
<title>Node22</title>
<g id="a_node14"><a xlink:href="../../de/d6b/class_application.html#a46e8ee5d5e4d04679c826ad23a287f2b" target="_top" xlink:title="Application::get">
<polygon fill="#ffffff" stroke="#000000" points="298.5,-.5 298.5,-19.5 382.5,-19.5 382.5,-.5 298.5,-.5"/>
<text text-anchor="middle" x="340.5" y="-7.5" font-family="Helvetica,sans-Serif" font-size="10.00" fill="#000000">Application::get</text>
</a>
</g>
</g>
<!-- Node21&#45;&gt;Node22 -->
<g id="edge15" class="edge">
<title>Node21&#45;&gt;Node22</title>
<path fill="none" stroke="#191970" d="M221.5053,-38.8013C242.5334,-33.7117 268.8999,-27.33 291.4662,-21.8681"/>
<polygon fill="#191970" stroke="#191970" points="292.3091,-25.2652 301.2051,-19.5109 290.6623,-18.4616 292.3091,-25.2652"/>
</g>
<!-- Node23 -->
<g id="node15" class="node">
<title>Node23</title>
<g id="a_node15"><a xlink:href="../../de/d6b/class_application.html#a7a9e487106abcd163331ad98910cc48f" target="_top" xlink:title="Application::stop">
<polygon fill="#ffffff" stroke="#000000" points="296,-38.5 296,-57.5 385,-57.5 385,-38.5 296,-38.5"/>
<text text-anchor="middle" x="340.5" y="-45.5" font-family="Helvetica,sans-Serif" font-size="10.00" fill="#000000">Application::stop</text>
</a>
</g>
</g>
<!-- Node21&#45;&gt;Node23 -->
<g id="edge16" class="edge">
<title>Node21&#45;&gt;Node23</title>
<path fill="none" stroke="#191970" d="M221.5053,-48C240.7687,-48 264.5121,-48 285.7099,-48"/>
<polygon fill="#191970" stroke="#191970" points="285.8809,-51.5001 295.8809,-48 285.8809,-44.5001 285.8809,-51.5001"/>
</g>
</g>
</svg>
