<?xml version="1.0" encoding="UTF-8" standalone="no"?>
<!DOCTYPE svg PUBLIC "-//W3C//DTD SVG 1.1//EN"
 "http://www.w3.org/Graphics/SVG/1.1/DTD/svg11.dtd">
<!-- Generated by graphviz version 2.40.1 (20161225.0304)
 -->
<!-- Title: signalHandler Pages: 1 -->
<svg width="268pt" height="28pt"
 viewBox="0.00 0.00 268.00 28.00" xmlns="http://www.w3.org/2000/svg" xmlns:xlink="http://www.w3.org/1999/xlink">
<g id="graph0" class="graph" transform="scale(1 1) rotate(0) translate(4 24)">
<title>signalHandler</title>
<polygon fill="#ffffff" stroke="transparent" points="-4,4 -4,-24 264,-24 264,4 -4,4"/>
<!-- Node67 -->
<g id="node1" class="node">
<title>Node67</title>
<polygon fill="#bfbfbf" stroke="#000000" points="0,-.5 0,-19.5 76,-19.5 76,-.5 0,-.5"/>
<text text-anchor="middle" x="38" y="-7.5" font-family="Helvetica,sans-Serif" font-size="10.00" fill="#000000">signalHandler</text>
</g>
<!-- Node68 -->
<g id="node2" class="node">
<title>Node68</title>
<g id="a_node2"><a xlink:href="../../df/d0a/main_8cpp.html#a59a5d10c3e8acb2a11dad76e5d644020" target="_top" xlink:title="initProcedure">
<polygon fill="#ffffff" stroke="#000000" points="112,-.5 112,-19.5 186,-19.5 186,-.5 112,-.5"/>
<text text-anchor="middle" x="149" y="-7.5" font-family="Helvetica,sans-Serif" font-size="10.00" fill="#000000">initProcedure</text>
</a>
</g>
</g>
<!-- Node67&#45;&gt;Node68 -->
<g id="edge1" class="edge">
<title>Node67&#45;&gt;Node68</title>
<path fill="none" stroke="#191970" d="M86.429,-10C94.9522,-10 103.7016,-10 111.8553,-10"/>
<polygon fill="#191970" stroke="#191970" points="86.1999,-6.5001 76.1999,-10 86.1999,-13.5001 86.1999,-6.5001"/>
</g>
<!-- Node69 -->
<g id="node3" class="node">
<title>Node69</title>
<g id="a_node3"><a xlink:href="../../df/d0a/main_8cpp.html#a840291bc02cba5474a4cb46a9b9566fe" target="_top" xlink:title="main">
<polygon fill="#ffffff" stroke="#000000" points="222,-.5 222,-19.5 260,-19.5 260,-.5 222,-.5"/>
<text text-anchor="middle" x="241" y="-7.5" font-family="Helvetica,sans-Serif" font-size="10.00" fill="#000000">main</text>
</a>
</g>
</g>
<!-- Node68&#45;&gt;Node69 -->
<g id="edge2" class="edge">
<title>Node68&#45;&gt;Node69</title>
<path fill="none" stroke="#191970" d="M196.3389,-10C205.3996,-10 214.391,-10 221.9053,-10"/>
<polygon fill="#191970" stroke="#191970" points="196.1548,-6.5001 186.1547,-10 196.1547,-13.5001 196.1548,-6.5001"/>
</g>
</g>
</svg>
