<?xml version="1.0" encoding="UTF-8" standalone="no"?>
<!DOCTYPE svg PUBLIC "-//W3C//DTD SVG 1.1//EN"
 "http://www.w3.org/Graphics/SVG/1.1/DTD/svg11.dtd">
<!-- Generated by graphviz version 2.40.1 (20161225.0304)
 -->
<!-- Title: src/deviceMonitor/storage/DataStorage.hpp Pages: 1 -->
<svg width="617pt" height="162pt"
 viewBox="0.00 0.00 617.00 162.00" xmlns="http://www.w3.org/2000/svg" xmlns:xlink="http://www.w3.org/1999/xlink">
<g id="graph0" class="graph" transform="scale(1 1) rotate(0) translate(4 158)">
<title>src/deviceMonitor/storage/DataStorage.hpp</title>
<polygon fill="#ffffff" stroke="transparent" points="-4,4 -4,-158 613,-158 613,4 -4,4"/>
<!-- Node20 -->
<g id="node1" class="node">
<title>Node20</title>
<polygon fill="#bfbfbf" stroke="#000000" points="237,-123.5 237,-153.5 366,-153.5 366,-123.5 237,-123.5"/>
<text text-anchor="start" x="245" y="-141.5" font-family="Helvetica,sans-Serif" font-size="10.00" fill="#000000">src/deviceMonitor/storage</text>
<text text-anchor="middle" x="301.5" y="-130.5" font-family="Helvetica,sans-Serif" font-size="10.00" fill="#000000">/DataStorage.hpp</text>
</g>
<!-- Node21 -->
<g id="node2" class="node">
<title>Node21</title>
<g id="a_node2"><a xlink:href="../../d0/d9b/_rest_a_p_i_8cpp.html" target="_top" xlink:title="src/deviceMonitor/apis\l/RestAPI.cpp">
<polygon fill="#ffffff" stroke="#000000" points="0,-56.5 0,-86.5 115,-86.5 115,-56.5 0,-56.5"/>
<text text-anchor="start" x="8" y="-74.5" font-family="Helvetica,sans-Serif" font-size="10.00" fill="#000000">src/deviceMonitor/apis</text>
<text text-anchor="middle" x="57.5" y="-63.5" font-family="Helvetica,sans-Serif" font-size="10.00" fill="#000000">/RestAPI.cpp</text>
</a>
</g>
</g>
<!-- Node20&#45;&gt;Node21 -->
<g id="edge1" class="edge">
<title>Node20&#45;&gt;Node21</title>
<path fill="none" stroke="#191970" d="M236.6187,-120.6842C197.9157,-110.0568 149.3078,-96.7095 112.4972,-86.6017"/>
<polygon fill="#191970" stroke="#191970" points="236.1718,-124.191 246.7416,-123.4639 238.0254,-117.4409 236.1718,-124.191"/>
</g>
<!-- Node22 -->
<g id="node3" class="node">
<title>Node22</title>
<g id="a_node3"><a xlink:href="../../d2/dcb/_application_8hpp.html" target="_top" xlink:title="src/deviceMonitor/Application.hpp">
<polygon fill="#ffffff" stroke="#000000" points="133.5,-62 133.5,-81 297.5,-81 297.5,-62 133.5,-62"/>
<text text-anchor="middle" x="215.5" y="-69" font-family="Helvetica,sans-Serif" font-size="10.00" fill="#000000">src/deviceMonitor/Application.hpp</text>
</a>
</g>
</g>
<!-- Node20&#45;&gt;Node22 -->
<g id="edge2" class="edge">
<title>Node20&#45;&gt;Node22</title>
<path fill="none" stroke="#191970" d="M273.7448,-116.8767C258.239,-104.7967 239.6952,-90.3498 227.7646,-81.055"/>
<polygon fill="#191970" stroke="#191970" points="271.9456,-119.9119 281.9853,-123.2967 276.2477,-114.3899 271.9456,-119.9119"/>
</g>
<!-- Node25 -->
<g id="node6" class="node">
<title>Node25</title>
<g id="a_node6"><a xlink:href="../../d4/d7b/_message_processor_8cpp.html" target="_top" xlink:title="src/deviceMonitor/middleware\l/MessageProcessor.cpp">
<polygon fill="#ffffff" stroke="#000000" points="315.5,-56.5 315.5,-86.5 461.5,-86.5 461.5,-56.5 315.5,-56.5"/>
<text text-anchor="start" x="323.5" y="-74.5" font-family="Helvetica,sans-Serif" font-size="10.00" fill="#000000">src/deviceMonitor/middleware</text>
<text text-anchor="middle" x="388.5" y="-63.5" font-family="Helvetica,sans-Serif" font-size="10.00" fill="#000000">/MessageProcessor.cpp</text>
</a>
</g>
</g>
<!-- Node20&#45;&gt;Node25 -->
<g id="edge5" class="edge">
<title>Node20&#45;&gt;Node25</title>
<path fill="none" stroke="#191970" d="M329.3344,-117.0643C342.1982,-107.1577 357.1715,-95.6265 368.8365,-86.6432"/>
<polygon fill="#191970" stroke="#191970" points="327.029,-114.4221 321.2416,-123.2967 331.3001,-119.9681 327.029,-114.4221"/>
</g>
<!-- Node26 -->
<g id="node7" class="node">
<title>Node26</title>
<g id="a_node7"><a xlink:href="../../dc/d79/_data_storage_8cpp.html" target="_top" xlink:title="src/deviceMonitor/storage\l/DataStorage.cpp">
<polygon fill="#ffffff" stroke="#000000" points="480,-56.5 480,-86.5 609,-86.5 609,-56.5 480,-56.5"/>
<text text-anchor="start" x="488" y="-74.5" font-family="Helvetica,sans-Serif" font-size="10.00" fill="#000000">src/deviceMonitor/storage</text>
<text text-anchor="middle" x="544.5" y="-63.5" font-family="Helvetica,sans-Serif" font-size="10.00" fill="#000000">/DataStorage.cpp</text>
</a>
</g>
</g>
<!-- Node20&#45;&gt;Node26 -->
<g id="edge6" class="edge">
<title>Node20&#45;&gt;Node26</title>
<path fill="none" stroke="#191970" d="M366.1154,-120.6842C404.6598,-110.0568 453.0684,-96.7095 489.7282,-86.6017"/>
<polygon fill="#191970" stroke="#191970" points="364.7439,-117.4317 356.0339,-123.4639 366.6046,-124.1799 364.7439,-117.4317"/>
</g>
<!-- Node23 -->
<g id="node4" class="node">
<title>Node23</title>
<g id="a_node4"><a xlink:href="../../d0/d42/_application_8cpp.html" target="_top" xlink:title="src/deviceMonitor/Application.cpp">
<polygon fill="#ffffff" stroke="#000000" points="48.5,-.5 48.5,-19.5 212.5,-19.5 212.5,-.5 48.5,-.5"/>
<text text-anchor="middle" x="130.5" y="-7.5" font-family="Helvetica,sans-Serif" font-size="10.00" fill="#000000">src/deviceMonitor/Application.cpp</text>
</a>
</g>
</g>
<!-- Node22&#45;&gt;Node23 -->
<g id="edge3" class="edge">
<title>Node22&#45;&gt;Node23</title>
<path fill="none" stroke="#191970" d="M194.0338,-55.9685C178.1881,-44.5037 157.1264,-29.265 143.688,-19.5419"/>
<polygon fill="#191970" stroke="#191970" points="192.0653,-58.8643 202.2188,-61.8906 196.1686,-53.1931 192.0653,-58.8643"/>
</g>
<!-- Node24 -->
<g id="node5" class="node">
<title>Node24</title>
<g id="a_node5"><a xlink:href="../../df/d0a/main_8cpp.html" target="_top" xlink:title="src/deviceMonitor/main.cpp">
<polygon fill="#ffffff" stroke="#000000" points="231,-.5 231,-19.5 368,-19.5 368,-.5 231,-.5"/>
<text text-anchor="middle" x="299.5" y="-7.5" font-family="Helvetica,sans-Serif" font-size="10.00" fill="#000000">src/deviceMonitor/main.cpp</text>
</a>
</g>
</g>
<!-- Node22&#45;&gt;Node24 -->
<g id="edge4" class="edge">
<title>Node22&#45;&gt;Node24</title>
<path fill="none" stroke="#191970" d="M236.7137,-55.9685C252.373,-44.5037 273.1869,-29.265 286.4672,-19.5419"/>
<polygon fill="#191970" stroke="#191970" points="234.626,-53.1592 228.625,-61.8906 238.7612,-58.8072 234.626,-53.1592"/>
</g>
</g>
</svg>
