<?xml version="1.0" encoding="UTF-8" standalone="no"?>
<!DOCTYPE svg PUBLIC "-//W3C//DTD SVG 1.1//EN"
 "http://www.w3.org/Graphics/SVG/1.1/DTD/svg11.dtd">
<!-- Generated by graphviz version 2.40.1 (20161225.0304)
 -->
<!-- Title: RestAPI::postHandler Pages: 1 -->
<svg width="481pt" height="66pt"
 viewBox="0.00 0.00 481.00 66.00" xmlns="http://www.w3.org/2000/svg" xmlns:xlink="http://www.w3.org/1999/xlink">
<g id="graph0" class="graph" transform="scale(1 1) rotate(0) translate(4 62)">
<title>RestAPI::postHandler</title>
<polygon fill="#ffffff" stroke="transparent" points="-4,4 -4,-62 477,-62 477,4 -4,4"/>
<!-- Node18 -->
<g id="node1" class="node">
<title>Node18</title>
<polygon fill="#bfbfbf" stroke="#000000" points="0,-19.5 0,-38.5 113,-38.5 113,-19.5 0,-19.5"/>
<text text-anchor="middle" x="56.5" y="-26.5" font-family="Helvetica,sans-Serif" font-size="10.00" fill="#000000">RestAPI::postHandler</text>
</g>
<!-- Node19 -->
<g id="node2" class="node">
<title>Node19</title>
<g id="a_node2"><a xlink:href="../../d3/d5f/class_abstract_a_p_i.html#a3e5de4171c5ae4316b90150a2ed9036a" target="_top" xlink:title="checks if json document/message is valid by give JSON schema ">
<polygon fill="#ffffff" stroke="#000000" points="161.5,-38.5 161.5,-57.5 293.5,-57.5 293.5,-38.5 161.5,-38.5"/>
<text text-anchor="middle" x="227.5" y="-45.5" font-family="Helvetica,sans-Serif" font-size="10.00" fill="#000000">AbstractAPI::isValidJSON</text>
</a>
</g>
</g>
<!-- Node18&#45;&gt;Node19 -->
<g id="edge1" class="edge">
<title>Node18&#45;&gt;Node19</title>
<path fill="none" stroke="#191970" d="M113.4405,-35.3267C125.5532,-36.6726 138.5298,-38.1144 151.2315,-39.5257"/>
<polygon fill="#191970" stroke="#191970" points="151.0119,-43.0228 161.3372,-40.6486 151.7849,-36.0656 151.0119,-43.0228"/>
</g>
<!-- Node20 -->
<g id="node3" class="node">
<title>Node20</title>
<g id="a_node3"><a xlink:href="../../d3/d5f/class_abstract_a_p_i.html#a1ba086582a2251e3393ddd2c66d2d153" target="_top" xlink:title="add newly received message to queue ">
<polygon fill="#ffffff" stroke="#000000" points="149,-.5 149,-19.5 306,-19.5 306,-.5 149,-.5"/>
<text text-anchor="middle" x="227.5" y="-7.5" font-family="Helvetica,sans-Serif" font-size="10.00" fill="#000000">AbstractAPI::pushNewMessage</text>
</a>
</g>
</g>
<!-- Node18&#45;&gt;Node20 -->
<g id="edge2" class="edge">
<title>Node18&#45;&gt;Node20</title>
<path fill="none" stroke="#191970" d="M113.4405,-22.6733C121.6108,-21.7655 130.1741,-20.814 138.781,-19.8577"/>
<polygon fill="#191970" stroke="#191970" points="139.3315,-23.3181 148.8838,-18.7351 138.5584,-16.3609 139.3315,-23.3181"/>
</g>
<!-- Node21 -->
<g id="node4" class="node">
<title>Node21</title>
<g id="a_node4"><a xlink:href="../../d3/df5/class_message_processor.html#ad5470ea591fdda8c4a05391524823a00" target="_top" xlink:title="static method for API to notify message processor that new data are available ">
<polygon fill="#ffffff" stroke="#000000" points="342,-.5 342,-19.5 473,-19.5 473,-.5 342,-.5"/>
<text text-anchor="middle" x="407.5" y="-7.5" font-family="Helvetica,sans-Serif" font-size="10.00" fill="#000000">MessageProcessor::notify</text>
</a>
</g>
</g>
<!-- Node20&#45;&gt;Node21 -->
<g id="edge3" class="edge">
<title>Node20&#45;&gt;Node21</title>
<path fill="none" stroke="#191970" d="M306.1888,-10C314.6629,-10 323.2729,-10 331.7119,-10"/>
<polygon fill="#191970" stroke="#191970" points="331.9002,-13.5001 341.9002,-10 331.9001,-6.5001 331.9002,-13.5001"/>
</g>
</g>
</svg>
