<?xml version="1.0" encoding="UTF-8" standalone="no"?>
<!DOCTYPE svg PUBLIC "-//W3C//DTD SVG 1.1//EN"
 "http://www.w3.org/Graphics/SVG/1.1/DTD/svg11.dtd">
<!-- Generated by graphviz version 2.40.1 (20161225.0304)
 -->
<!-- Title: RestAPI::setupApi Pages: 1 -->
<!--zoomable 104 -->
<svg id="main" version="1.1" xmlns="http://www.w3.org/2000/svg" xmlns:xlink="http://www.w3.org/1999/xlink" xml:space="preserve" onload="init(evt)">
<style type="text/css"><![CDATA[
.edge:hover path { stroke: red; }
.edge:hover polygon { stroke: red; fill: red; }
]]></style>
<script type="text/javascript"><![CDATA[
var edges = document.getElementsByTagName('g');
if (edges && edges.length) {
  for (var i=0;i<edges.length;i++) {
    if (edges[i].id.substr(0,4)=='edge') {
      edges[i].setAttribute('class','edge');
    }
  }
}
]]></script>
        <defs>
                <circle id="rim" cx="0" cy="0" r="7"/>
                <circle id="rim2" cx="0" cy="0" r="3.5"/>
                <g id="zoomPlus">
                        <use xlink:href="#rim" fill="#404040">
                                <set attributeName="fill" to="#808080" begin="zoomplus.mouseover" end="zoomplus.mouseout"/>
                        </use>
                        <path d="M-4,0h8M0,-4v8" fill="none" stroke="white" stroke-width="1.5" pointer-events="none"/>
                </g>
                <g id="zoomMin">
                        <use xlink:href="#rim" fill="#404040">
                                <set attributeName="fill" to="#808080" begin="zoomminus.mouseover" end="zoomminus.mouseout"/>
                        </use>
                        <path d="M-4,0h8" fill="none" stroke="white" stroke-width="1.5" pointer-events="none"/>
                </g>
                <g id="dirArrow">
                        <path fill="none" stroke="white" stroke-width="1.5" d="M0,-3.0v7 M-2.5,-0.5L0,-3.0L2.5,-0.5"/>
                </g>
               <g id="resetDef">
                       <use xlink:href="#rim2" fill="#404040">
                               <set attributeName="fill" to="#808080" begin="reset.mouseover" end="reset.mouseout"/>
                       </use>
               </g>
        </defs>

<script type="text/javascript">
var viewWidth = 615;
var viewHeight = 104;
var sectionId = 'dynsection-10';
</script>
<script xlink:href="../../svgpan.js"/>
<svg id="graph" class="graph">
<g id="viewport">
<title>RestAPI::setupApi</title>
<polygon fill="#ffffff" stroke="transparent" points="-4,4 -4,-100 611,-100 611,4 -4,4"/>
<!-- Node31 -->
<g id="node1" class="node">
<title>Node31</title>
<polygon fill="#bfbfbf" stroke="#000000" points="0,-57.5 0,-76.5 98,-76.5 98,-57.5 0,-57.5"/>
<text text-anchor="middle" x="49" y="-64.5" font-family="Helvetica,sans-Serif" font-size="10.00" fill="#000000">RestAPI::setupApi</text>
</g>
<!-- Node32 -->
<g id="node2" class="node">
<title>Node32</title>
<g id="a_node2"><a xlink:href="../../d0/dcd/class_rest_a_p_i.html#a8c833316cd57b897b64f12c694063199" target="_top" xlink:title="Get the Handler object. ">
<polygon fill="#ffffff" stroke="#000000" points="137,-76.5 137,-95.5 244,-95.5 244,-76.5 137,-76.5"/>
<text text-anchor="middle" x="190.5" y="-83.5" font-family="Helvetica,sans-Serif" font-size="10.00" fill="#000000">RestAPI::getHandler</text>
</a>
</g>
</g>
<!-- Node31&#45;&gt;Node32 -->
<g id="edge1" class="edge">
<title>Node31&#45;&gt;Node32</title>
<path fill="none" stroke="#191970" d="M98.0927,-73.592C107.3345,-74.8329 117.122,-76.1471 126.7357,-77.438"/>
<polygon fill="#191970" stroke="#191970" points="126.2843,-80.9087 136.6612,-78.7708 127.216,-73.971 126.2843,-80.9087"/>
</g>
<!-- Node34 -->
<g id="node4" class="node">
<title>Node34</title>
<g id="a_node4"><a xlink:href="../../d0/dcd/class_rest_a_p_i.html#a84de7abd0de9d4b9998f33de4c517386" target="_top" xlink:title="HTTP POST method handler. ">
<polygon fill="#ffffff" stroke="#000000" points="134,-38.5 134,-57.5 247,-57.5 247,-38.5 134,-38.5"/>
<text text-anchor="middle" x="190.5" y="-45.5" font-family="Helvetica,sans-Serif" font-size="10.00" fill="#000000">RestAPI::postHandler</text>
</a>
</g>
</g>
<!-- Node31&#45;&gt;Node34 -->
<g id="edge3" class="edge">
<title>Node31&#45;&gt;Node34</title>
<path fill="none" stroke="#191970" d="M98.0927,-60.408C106.3542,-59.2987 115.0518,-58.1309 123.6715,-56.9734"/>
<polygon fill="#191970" stroke="#191970" points="124.2784,-60.4234 133.7237,-55.6237 123.3468,-53.4857 124.2784,-60.4234"/>
</g>
<!-- Node33 -->
<g id="node3" class="node">
<title>Node33</title>
<g id="a_node3"><a xlink:href="../../db/d85/class_data_storage.html#af9579c2c18cf1fe73f91ffec1dd89a8f" target="_top" xlink:title="Get the Results object. ">
<polygon fill="#ffffff" stroke="#000000" points="299,-76.5 299,-95.5 424,-95.5 424,-76.5 299,-76.5"/>
<text text-anchor="middle" x="361.5" y="-83.5" font-family="Helvetica,sans-Serif" font-size="10.00" fill="#000000">DataStorage::getResults</text>
</a>
</g>
</g>
<!-- Node32&#45;&gt;Node33 -->
<g id="edge2" class="edge">
<title>Node32&#45;&gt;Node33</title>
<path fill="none" stroke="#191970" d="M244.1363,-86C258.2223,-86 273.6547,-86 288.5658,-86"/>
<polygon fill="#191970" stroke="#191970" points="288.7827,-89.5001 298.7827,-86 288.7827,-82.5001 288.7827,-89.5001"/>
</g>
<!-- Node35 -->
<g id="node5" class="node">
<title>Node35</title>
<g id="a_node5"><a xlink:href="../../d3/d5f/class_abstract_a_p_i.html#a3e5de4171c5ae4316b90150a2ed9036a" target="_top" xlink:title="checks if json document/message is valid by give JSON schema ">
<polygon fill="#ffffff" stroke="#000000" points="295.5,-38.5 295.5,-57.5 427.5,-57.5 427.5,-38.5 295.5,-38.5"/>
<text text-anchor="middle" x="361.5" y="-45.5" font-family="Helvetica,sans-Serif" font-size="10.00" fill="#000000">AbstractAPI::isValidJSON</text>
</a>
</g>
</g>
<!-- Node34&#45;&gt;Node35 -->
<g id="edge4" class="edge">
<title>Node34&#45;&gt;Node35</title>
<path fill="none" stroke="#191970" d="M247.4405,-48C259.5532,-48 272.5298,-48 285.2315,-48"/>
<polygon fill="#191970" stroke="#191970" points="285.3373,-51.5001 295.3372,-48 285.3372,-44.5001 285.3373,-51.5001"/>
</g>
<!-- Node36 -->
<g id="node6" class="node">
<title>Node36</title>
<g id="a_node6"><a xlink:href="../../d3/d5f/class_abstract_a_p_i.html#a1ba086582a2251e3393ddd2c66d2d153" target="_top" xlink:title="add newly received message to queue ">
<polygon fill="#ffffff" stroke="#000000" points="283,-.5 283,-19.5 440,-19.5 440,-.5 283,-.5"/>
<text text-anchor="middle" x="361.5" y="-7.5" font-family="Helvetica,sans-Serif" font-size="10.00" fill="#000000">AbstractAPI::pushNewMessage</text>
</a>
</g>
</g>
<!-- Node34&#45;&gt;Node36 -->
<g id="edge5" class="edge">
<title>Node34&#45;&gt;Node36</title>
<path fill="none" stroke="#191970" d="M233.6505,-38.411C256.4191,-33.3513 284.5482,-27.1004 308.6194,-21.7512"/>
<polygon fill="#191970" stroke="#191970" points="309.6572,-25.1061 318.6598,-19.5201 308.1386,-18.2728 309.6572,-25.1061"/>
</g>
<!-- Node37 -->
<g id="node7" class="node">
<title>Node37</title>
<g id="a_node7"><a xlink:href="../../d3/df5/class_message_processor.html#ad5470ea591fdda8c4a05391524823a00" target="_top" xlink:title="static method for API to notify message processor that new data are available ">
<polygon fill="#ffffff" stroke="#000000" points="476,-.5 476,-19.5 607,-19.5 607,-.5 476,-.5"/>
<text text-anchor="middle" x="541.5" y="-7.5" font-family="Helvetica,sans-Serif" font-size="10.00" fill="#000000">MessageProcessor::notify</text>
</a>
</g>
</g>
<!-- Node36&#45;&gt;Node37 -->
<g id="edge6" class="edge">
<title>Node36&#45;&gt;Node37</title>
<path fill="none" stroke="#191970" d="M440.1888,-10C448.6629,-10 457.2729,-10 465.7119,-10"/>
<polygon fill="#191970" stroke="#191970" points="465.9002,-13.5001 475.9002,-10 465.9001,-6.5001 465.9002,-13.5001"/>
</g>
</g>
</svg>
        <g id="navigator" transform="translate(0 0)" fill="#404254">
                <rect fill="#f2f5e9" fill-opacity="0.5" stroke="#606060" stroke-width=".5" x="0" y="0" width="60" height="60"/>
                <use id="zoomplus" xlink:href="#zoomPlus" x="17" y="9" onmousedown="handleZoom(evt,'in')"/>
                <use id="zoomminus" xlink:href="#zoomMin" x="42" y="9" onmousedown="handleZoom(evt,'out')"/>
                <use id="reset" xlink:href="#resetDef" x="30" y="36" onmousedown="handleReset()"/>
                <g id="arrowUp" xlink:href="#dirArrow" transform="translate(30 24)" onmousedown="handlePan(0,-1)">
                  <use xlink:href="#rim" fill="#404040">
                        <set attributeName="fill" to="#808080" begin="arrowUp.mouseover" end="arrowUp.mouseout"/>
                  </use>
                  <path fill="none" stroke="white" stroke-width="1.5" d="M0,-3.0v7 M-2.5,-0.5L0,-3.0L2.5,-0.5"/>
                </g>
                <g id="arrowRight" xlink:href="#dirArrow" transform="rotate(90) translate(36 -43)" onmousedown="handlePan(1,0)">
                  <use xlink:href="#rim" fill="#404040">
                        <set attributeName="fill" to="#808080" begin="arrowRight.mouseover" end="arrowRight.mouseout"/>
                  </use>
                  <path fill="none" stroke="white" stroke-width="1.5" d="M0,-3.0v7 M-2.5,-0.5L0,-3.0L2.5,-0.5"/>
                </g>
                <g id="arrowDown" xlink:href="#dirArrow" transform="rotate(180) translate(-30 -48)" onmousedown="handlePan(0,1)">
                  <use xlink:href="#rim" fill="#404040">
                        <set attributeName="fill" to="#808080" begin="arrowDown.mouseover" end="arrowDown.mouseout"/>
                  </use>
                  <path fill="none" stroke="white" stroke-width="1.5" d="M0,-3.0v7 M-2.5,-0.5L0,-3.0L2.5,-0.5"/>
                </g>
                <g id="arrowLeft" xlink:href="#dirArrow" transform="rotate(270) translate(-36 17)" onmousedown="handlePan(-1,0)">
                  <use xlink:href="#rim" fill="#404040">
                        <set attributeName="fill" to="#808080" begin="arrowLeft.mouseover" end="arrowLeft.mouseout"/>
                  </use>
                  <path fill="none" stroke="white" stroke-width="1.5" d="M0,-3.0v7 M-2.5,-0.5L0,-3.0L2.5,-0.5"/>
                </g>
        </g>
        <svg viewBox="0 0 15 15" width="100%" height="30px" preserveAspectRatio="xMaxYMin meet">
         <g id="arrow_out" transform="scale(0.3 0.3)">
          <a xlink:href="class_rest_a_p_i_ab61327d4e8fd3e38355f653650e6ac94_cgraph_org.svg" target="_base">
           <rect id="button" ry="5" rx="5" y="6" x="6" height="38" width="38"
                fill="#f2f5e9" fill-opacity="0.5" stroke="#606060" stroke-width="1.0"/>
           <path id="arrow"
             d="M 11.500037,31.436501 C 11.940474,20.09759 22.043105,11.32322 32.158766,21.979434 L 37.068811,17.246167 C 37.068811,17.246167 37.088388,32 37.088388,32 L 22.160133,31.978069 C 22.160133,31.978069 26.997745,27.140456 26.997745,27.140456 C 18.528582,18.264221 13.291696,25.230495 11.500037,31.436501 z"
             style="fill:#404040;"/>
          </a>
         </g>
        </svg>
</svg>
