<?xml version="1.0" encoding="UTF-8" standalone="no"?>
<!DOCTYPE svg PUBLIC "-//W3C//DTD SVG 1.1//EN"
 "http://www.w3.org/Graphics/SVG/1.1/DTD/svg11.dtd">
<!-- Generated by graphviz version 2.40.1 (20161225.0304)
 -->
<!-- Title: src/deviceMonitor/Application.cpp Pages: 1 -->
<svg width="1267pt" height="308pt"
 viewBox="0.00 0.00 1267.00 308.00" xmlns="http://www.w3.org/2000/svg" xmlns:xlink="http://www.w3.org/1999/xlink">
<g id="graph0" class="graph" transform="scale(1 1) rotate(0) translate(4 304)">
<title>src/deviceMonitor/Application.cpp</title>
<polygon fill="#ffffff" stroke="transparent" points="-4,4 -4,-304 1263,-304 1263,4 -4,4"/>
<!-- Node0 -->
<g id="node1" class="node">
<title>Node0</title>
<polygon fill="#bfbfbf" stroke="#000000" points="800,-280.5 800,-299.5 964,-299.5 964,-280.5 800,-280.5"/>
<text text-anchor="middle" x="882" y="-287.5" font-family="Helvetica,sans-Serif" font-size="10.00" fill="#000000">src/deviceMonitor/Application.cpp</text>
</g>
<!-- Node1 -->
<g id="node2" class="node">
<title>Node1</title>
<g id="a_node2"><a xlink:href="../../d2/dcb/_application_8hpp.html" target="_top" xlink:title="Application.hpp">
<polygon fill="#ffffff" stroke="#000000" points="840.5,-224.5 840.5,-243.5 923.5,-243.5 923.5,-224.5 840.5,-224.5"/>
<text text-anchor="middle" x="882" y="-231.5" font-family="Helvetica,sans-Serif" font-size="10.00" fill="#000000">Application.hpp</text>
</a>
</g>
</g>
<!-- Node0&#45;&gt;Node1 -->
<g id="edge1" class="edge">
<title>Node0&#45;&gt;Node1</title>
<path fill="none" stroke="#191970" d="M882,-280.2455C882,-272.9382 882,-262.6944 882,-253.7046"/>
<polygon fill="#191970" stroke="#191970" points="885.5001,-253.6426 882,-243.6427 878.5001,-253.6427 885.5001,-253.6426"/>
</g>
<!-- Node2 -->
<g id="node3" class="node">
<title>Node2</title>
<g id="a_node3"><a xlink:href="../../d6/d8f/_abstract_a_p_i_8hpp.html" target="_top" xlink:title="apis/AbstractAPI.hpp">
<polygon fill="#ffffff" stroke="#000000" points="642,-112.5 642,-131.5 752,-131.5 752,-112.5 642,-112.5"/>
<text text-anchor="middle" x="697" y="-119.5" font-family="Helvetica,sans-Serif" font-size="10.00" fill="#000000">apis/AbstractAPI.hpp</text>
</a>
</g>
</g>
<!-- Node1&#45;&gt;Node2 -->
<g id="edge2" class="edge">
<title>Node1&#45;&gt;Node2</title>
<path fill="none" stroke="#191970" d="M840.2387,-227.2038C797.0376,-219.3647 733.4794,-205.3059 716,-188 703.7111,-175.8331 699.2481,-156.269 697.688,-141.5942"/>
<polygon fill="#191970" stroke="#191970" points="701.1731,-141.2582 696.9792,-131.5288 694.1904,-141.7499 701.1731,-141.2582"/>
</g>
<!-- Node3 -->
<g id="node4" class="node">
<title>Node3</title>
<g id="a_node4"><a xlink:href="../../d3/de3/_logger_8hpp.html" target="_top" xlink:title="Logger.hpp">
<polygon fill="#ffffff" stroke="#000000" points="1057.5,-56.5 1057.5,-75.5 1122.5,-75.5 1122.5,-56.5 1057.5,-56.5"/>
<text text-anchor="middle" x="1090" y="-63.5" font-family="Helvetica,sans-Serif" font-size="10.00" fill="#000000">Logger.hpp</text>
</a>
</g>
</g>
<!-- Node1&#45;&gt;Node3 -->
<g id="edge46" class="edge">
<title>Node1&#45;&gt;Node3</title>
<path fill="none" stroke="#191970" d="M923.643,-226.3011C998.4295,-211.4704 1150.217,-176.4404 1177,-132 1191.2872,-108.2936 1160.9827,-90.1608 1132.3008,-78.9547"/>
<polygon fill="#191970" stroke="#191970" points="1133.2964,-75.5916 1122.7029,-75.4218 1130.8783,-82.1607 1133.2964,-75.5916"/>
</g>
<!-- Node16 -->
<g id="node17" class="node">
<title>Node16</title>
<polygon fill="#ffffff" stroke="#bfbfbf" points="1141,-56.5 1141,-75.5 1185,-75.5 1185,-56.5 1141,-56.5"/>
<text text-anchor="middle" x="1163" y="-63.5" font-family="Helvetica,sans-Serif" font-size="10.00" fill="#000000">thread</text>
</g>
<!-- Node1&#45;&gt;Node16 -->
<g id="edge47" class="edge">
<title>Node1&#45;&gt;Node16</title>
<path fill="none" stroke="#191970" d="M923.5494,-231.3938C971.8369,-227.1336 1053.0625,-216.1063 1117,-188 1155.4097,-171.1155 1174.0774,-169.4477 1193,-132 1201.2735,-115.6268 1190.4019,-96.5038 1179.5034,-83.0694"/>
<polygon fill="#191970" stroke="#191970" points="1182.1074,-80.7304 1172.885,-75.5152 1176.8422,-85.3433 1182.1074,-80.7304"/>
</g>
<!-- Node17 -->
<g id="node18" class="node">
<title>Node17</title>
<g id="a_node18"><a xlink:href="../../df/d16/_rest_a_p_i_8hpp.html" target="_top" xlink:title="apis/RestAPI.hpp">
<polygon fill="#ffffff" stroke="#000000" points="968,-168.5 968,-187.5 1062,-187.5 1062,-168.5 968,-168.5"/>
<text text-anchor="middle" x="1015" y="-175.5" font-family="Helvetica,sans-Serif" font-size="10.00" fill="#000000">apis/RestAPI.hpp</text>
</a>
</g>
</g>
<!-- Node1&#45;&gt;Node17 -->
<g id="edge17" class="edge">
<title>Node1&#45;&gt;Node17</title>
<path fill="none" stroke="#191970" d="M904.8635,-224.3733C926.405,-215.3032 958.8838,-201.6279 982.9956,-191.4755"/>
<polygon fill="#191970" stroke="#191970" points="984.5767,-194.6075 992.4348,-187.5011 981.8603,-188.156 984.5767,-194.6075"/>
</g>
<!-- Node20 -->
<g id="node21" class="node">
<title>Node20</title>
<g id="a_node21"><a xlink:href="../../d8/dc9/_message_processor_8hpp.html" target="_top" xlink:title="middleware/MessageProcessor.hpp">
<polygon fill="#ffffff" stroke="#000000" points="285,-168.5 285,-187.5 457,-187.5 457,-168.5 285,-168.5"/>
<text text-anchor="middle" x="371" y="-175.5" font-family="Helvetica,sans-Serif" font-size="10.00" fill="#000000">middleware/MessageProcessor.hpp</text>
</a>
</g>
</g>
<!-- Node1&#45;&gt;Node20 -->
<g id="edge23" class="edge">
<title>Node1&#45;&gt;Node20</title>
<path fill="none" stroke="#191970" d="M840.1827,-229.4173C759.1999,-220.5425 579.1012,-200.8056 467.0851,-188.5299"/>
<polygon fill="#191970" stroke="#191970" points="467.4552,-185.0496 457.1334,-187.4393 466.6926,-192.0079 467.4552,-185.0496"/>
</g>
<!-- Node23 -->
<g id="node24" class="node">
<title>Node23</title>
<g id="a_node24"><a xlink:href="../../d7/d83/_data_storage_8hpp.html" target="_top" xlink:title="storage/DataStorage.hpp">
<polygon fill="#ffffff" stroke="#000000" points="725.5,-168.5 725.5,-187.5 850.5,-187.5 850.5,-168.5 725.5,-168.5"/>
<text text-anchor="middle" x="788" y="-175.5" font-family="Helvetica,sans-Serif" font-size="10.00" fill="#000000">storage/DataStorage.hpp</text>
</a>
</g>
</g>
<!-- Node1&#45;&gt;Node23 -->
<g id="edge31" class="edge">
<title>Node1&#45;&gt;Node23</title>
<path fill="none" stroke="#191970" d="M865.6264,-224.2455C851.0692,-215.5731 829.569,-202.7645 812.8848,-192.825"/>
<polygon fill="#191970" stroke="#191970" points="814.5683,-189.7539 804.1859,-187.6427 810.9856,-195.7676 814.5683,-189.7539"/>
</g>
<!-- Node2&#45;&gt;Node3 -->
<g id="edge3" class="edge">
<title>Node2&#45;&gt;Node3</title>
<path fill="none" stroke="#191970" d="M752.2952,-116.5414C819.6515,-109.4944 937.0564,-95.9325 1047.1103,-76.0063"/>
<polygon fill="#191970" stroke="#191970" points="1047.8478,-79.4295 1057.0533,-74.1847 1046.5863,-72.5441 1047.8478,-79.4295"/>
</g>
<!-- Node5 -->
<g id="node6" class="node">
<title>Node5</title>
<polygon fill="#ffffff" stroke="#bfbfbf" points="455,-56.5 455,-75.5 505,-75.5 505,-56.5 455,-56.5"/>
<text text-anchor="middle" x="480" y="-63.5" font-family="Helvetica,sans-Serif" font-size="10.00" fill="#000000">fstream</text>
</g>
<!-- Node2&#45;&gt;Node5 -->
<g id="edge5" class="edge">
<title>Node2&#45;&gt;Node5</title>
<path fill="none" stroke="#191970" d="M657.2568,-112.493C622.212,-104.0021 569.5359,-90.9789 515.0497,-76.2161"/>
<polygon fill="#191970" stroke="#191970" points="515.7876,-72.7896 505.2193,-73.5387 513.9481,-79.5436 515.7876,-72.7896"/>
</g>
<!-- Node6 -->
<g id="node7" class="node">
<title>Node6</title>
<polygon fill="#ffffff" stroke="#bfbfbf" points="987,-56.5 987,-75.5 1039,-75.5 1039,-56.5 987,-56.5"/>
<text text-anchor="middle" x="1013" y="-63.5" font-family="Helvetica,sans-Serif" font-size="10.00" fill="#000000">memory</text>
</g>
<!-- Node2&#45;&gt;Node6 -->
<g id="edge6" class="edge">
<title>Node2&#45;&gt;Node6</title>
<path fill="none" stroke="#191970" d="M752.0598,-114.7486C808.7675,-106.8614 899.5452,-93.0676 977,-76 977.099,-75.9782 977.1981,-75.9563 977.2973,-75.9343"/>
<polygon fill="#191970" stroke="#191970" points="977.8407,-79.4039 986.7362,-73.6488 976.1934,-72.6005 977.8407,-79.4039"/>
</g>
<!-- Node7 -->
<g id="node8" class="node">
<title>Node7</title>
<polygon fill="#ffffff" stroke="#bfbfbf" points="393,-56.5 393,-75.5 437,-75.5 437,-56.5 393,-56.5"/>
<text text-anchor="middle" x="415" y="-63.5" font-family="Helvetica,sans-Serif" font-size="10.00" fill="#000000">mutex</text>
</g>
<!-- Node2&#45;&gt;Node7 -->
<g id="edge7" class="edge">
<title>Node2&#45;&gt;Node7</title>
<path fill="none" stroke="#191970" d="M641.7153,-113.9984C592.7566,-106.4322 519.241,-93.901 446.9741,-76.005"/>
<polygon fill="#191970" stroke="#191970" points="447.8015,-72.6042 437.25,-73.5621 446.0958,-79.3932 447.8015,-72.6042"/>
</g>
<!-- Node8 -->
<g id="node9" class="node">
<title>Node8</title>
<polygon fill="#ffffff" stroke="#bfbfbf" points="523.5,-56.5 523.5,-75.5 566.5,-75.5 566.5,-56.5 523.5,-56.5"/>
<text text-anchor="middle" x="545" y="-63.5" font-family="Helvetica,sans-Serif" font-size="10.00" fill="#000000">queue</text>
</g>
<!-- Node2&#45;&gt;Node8 -->
<g id="edge8" class="edge">
<title>Node2&#45;&gt;Node8</title>
<path fill="none" stroke="#191970" d="M670.8703,-112.3733C644.7137,-102.7366 604.4469,-87.9015 576.5299,-77.6163"/>
<polygon fill="#191970" stroke="#191970" points="577.4459,-74.2238 566.8525,-74.0509 575.0259,-80.7922 577.4459,-74.2238"/>
</g>
<!-- Node9 -->
<g id="node10" class="node">
<title>Node9</title>
<polygon fill="#ffffff" stroke="#bfbfbf" points="0,-56.5 0,-75.5 110,-75.5 110,-56.5 0,-56.5"/>
<text text-anchor="middle" x="55" y="-63.5" font-family="Helvetica,sans-Serif" font-size="10.00" fill="#000000">rapidjson/document.h</text>
</g>
<!-- Node2&#45;&gt;Node9 -->
<g id="edge9" class="edge">
<title>Node2&#45;&gt;Node9</title>
<path fill="none" stroke="#191970" d="M641.8741,-119.0042C540.6161,-113.1978 318.0008,-99.0236 120.1215,-76.0543"/>
<polygon fill="#191970" stroke="#191970" points="120.4609,-72.5702 110.1217,-74.8835 119.6468,-79.5227 120.4609,-72.5702"/>
</g>
<!-- Node10 -->
<g id="node11" class="node">
<title>Node10</title>
<polygon fill="#ffffff" stroke="#bfbfbf" points="585,-56.5 585,-75.5 719,-75.5 719,-56.5 585,-56.5"/>
<text text-anchor="middle" x="652" y="-63.5" font-family="Helvetica,sans-Serif" font-size="10.00" fill="#000000">rapidjson/istreamwrapper.h</text>
</g>
<!-- Node2&#45;&gt;Node10 -->
<g id="edge10" class="edge">
<title>Node2&#45;&gt;Node10</title>
<path fill="none" stroke="#191970" d="M689.1616,-112.2455C682.838,-104.3761 673.7776,-93.101 666.1864,-83.6542"/>
<polygon fill="#191970" stroke="#191970" points="668.7408,-81.2454 659.7486,-75.6427 663.2842,-85.6302 668.7408,-81.2454"/>
</g>
<!-- Node11 -->
<g id="node12" class="node">
<title>Node11</title>
<polygon fill="#ffffff" stroke="#bfbfbf" points="128.5,-56.5 128.5,-75.5 265.5,-75.5 265.5,-56.5 128.5,-56.5"/>
<text text-anchor="middle" x="197" y="-63.5" font-family="Helvetica,sans-Serif" font-size="10.00" fill="#000000">rapidjson/ostreamwrapper.h</text>
</g>
<!-- Node2&#45;&gt;Node11 -->
<g id="edge11" class="edge">
<title>Node2&#45;&gt;Node11</title>
<path fill="none" stroke="#191970" d="M641.8654,-116.3744C563.0582,-108.2515 413.3829,-92.5209 276.1186,-76.2357"/>
<polygon fill="#191970" stroke="#191970" points="276.1817,-72.7186 265.8381,-75.0122 275.3544,-79.6696 276.1817,-72.7186"/>
</g>
<!-- Node12 -->
<g id="node13" class="node">
<title>Node12</title>
<polygon fill="#ffffff" stroke="#bfbfbf" points="737.5,-56.5 737.5,-75.5 838.5,-75.5 838.5,-56.5 737.5,-56.5"/>
<text text-anchor="middle" x="788" y="-63.5" font-family="Helvetica,sans-Serif" font-size="10.00" fill="#000000">rapidjson/schema.h</text>
</g>
<!-- Node2&#45;&gt;Node12 -->
<g id="edge12" class="edge">
<title>Node2&#45;&gt;Node12</title>
<path fill="none" stroke="#191970" d="M712.851,-112.2455C726.8132,-103.6534 747.3728,-91.0014 763.4596,-81.1018"/>
<polygon fill="#191970" stroke="#191970" points="765.6484,-83.8645 772.3307,-75.6427 761.9797,-77.9029 765.6484,-83.8645"/>
</g>
<!-- Node13 -->
<g id="node14" class="node">
<title>Node13</title>
<polygon fill="#ffffff" stroke="#bfbfbf" points="283.5,-56.5 283.5,-75.5 374.5,-75.5 374.5,-56.5 283.5,-56.5"/>
<text text-anchor="middle" x="329" y="-63.5" font-family="Helvetica,sans-Serif" font-size="10.00" fill="#000000">rapidjson/writer.h</text>
</g>
<!-- Node2&#45;&gt;Node13 -->
<g id="edge13" class="edge">
<title>Node2&#45;&gt;Node13</title>
<path fill="none" stroke="#191970" d="M641.7854,-114.4628C581.2601,-106.0709 481.0335,-91.7952 384.5261,-76.0417"/>
<polygon fill="#191970" stroke="#191970" points="385.0325,-72.578 374.5979,-74.4135 383.8996,-79.4858 385.0325,-72.578"/>
</g>
<!-- Node14 -->
<g id="node15" class="node">
<title>Node14</title>
<polygon fill="#ffffff" stroke="#bfbfbf" points="857,-56.5 857,-75.5 909,-75.5 909,-56.5 857,-56.5"/>
<text text-anchor="middle" x="883" y="-63.5" font-family="Helvetica,sans-Serif" font-size="10.00" fill="#000000">sstream</text>
</g>
<!-- Node2&#45;&gt;Node14 -->
<g id="edge14" class="edge">
<title>Node2&#45;&gt;Node14</title>
<path fill="none" stroke="#191970" d="M728.9745,-112.3733C761.8729,-102.4684 813.0125,-87.0715 847.2344,-76.7681"/>
<polygon fill="#191970" stroke="#191970" points="848.2741,-80.1104 856.8404,-73.876 846.256,-73.4076 848.2741,-80.1104"/>
</g>
<!-- Node15 -->
<g id="node16" class="node">
<title>Node15</title>
<polygon fill="#ffffff" stroke="#bfbfbf" points="927.5,-56.5 927.5,-75.5 968.5,-75.5 968.5,-56.5 927.5,-56.5"/>
<text text-anchor="middle" x="948" y="-63.5" font-family="Helvetica,sans-Serif" font-size="10.00" fill="#000000">string</text>
</g>
<!-- Node2&#45;&gt;Node15 -->
<g id="edge15" class="edge">
<title>Node2&#45;&gt;Node15</title>
<path fill="none" stroke="#191970" d="M751.4568,-112.4964C794.1608,-104.6292 855.2246,-92.4705 917.4458,-75.9015"/>
<polygon fill="#191970" stroke="#191970" points="918.6967,-79.1892 927.4392,-73.2044 916.8727,-72.431 918.6967,-79.1892"/>
</g>
<!-- Node2&#45;&gt;Node16 -->
<g id="edge16" class="edge">
<title>Node2&#45;&gt;Node16</title>
<path fill="none" stroke="#191970" d="M752.2394,-117.5134C852.3467,-109.1552 1059.9588,-90.7147 1131,-76 1131.0997,-75.9793 1131.1996,-75.9585 1131.2996,-75.9375"/>
<polygon fill="#191970" stroke="#191970" points="1131.9196,-79.3904 1140.7681,-73.5633 1130.2171,-72.6006 1131.9196,-79.3904"/>
</g>
<!-- Node4 -->
<g id="node5" class="node">
<title>Node4</title>
<polygon fill="#ffffff" stroke="#bfbfbf" points="1067,-.5 1067,-19.5 1113,-19.5 1113,-.5 1067,-.5"/>
<text text-anchor="middle" x="1090" y="-7.5" font-family="Helvetica,sans-Serif" font-size="10.00" fill="#000000">stdio.h</text>
</g>
<!-- Node3&#45;&gt;Node4 -->
<g id="edge4" class="edge">
<title>Node3&#45;&gt;Node4</title>
<path fill="none" stroke="#191970" d="M1090,-56.2455C1090,-48.9382 1090,-38.6944 1090,-29.7046"/>
<polygon fill="#191970" stroke="#191970" points="1093.5001,-29.6426 1090,-19.6427 1086.5001,-29.6427 1093.5001,-29.6426"/>
</g>
<!-- Node17&#45;&gt;Node2 -->
<g id="edge18" class="edge">
<title>Node17&#45;&gt;Node2</title>
<path fill="none" stroke="#191970" d="M967.7356,-169.6767C912.9132,-160.0224 822.2554,-144.0576 761.1138,-133.2905"/>
<polygon fill="#191970" stroke="#191970" points="761.6437,-129.83 751.1882,-131.5426 760.4296,-136.7239 761.6437,-129.83"/>
</g>
<!-- Node17&#45;&gt;Node3 -->
<g id="edge19" class="edge">
<title>Node17&#45;&gt;Node3</title>
<path fill="none" stroke="#191970" d="M1021.3945,-168.4509C1033.9036,-149.7707 1061.7921,-108.1238 1077.8954,-84.0761"/>
<polygon fill="#191970" stroke="#191970" points="1080.9658,-85.7814 1083.6217,-75.5249 1075.1494,-81.8865 1080.9658,-85.7814"/>
</g>
<!-- Node17&#45;&gt;Node6 -->
<g id="edge21" class="edge">
<title>Node17&#45;&gt;Node6</title>
<path fill="none" stroke="#191970" d="M1014.8295,-168.4509C1014.5033,-150.184 1013.7849,-109.9553 1013.3517,-85.6976"/>
<polygon fill="#191970" stroke="#191970" points="1016.8482,-85.4608 1013.1701,-75.5249 1009.8493,-85.5858 1016.8482,-85.4608"/>
</g>
<!-- Node18 -->
<g id="node19" class="node">
<title>Node18</title>
<polygon fill="#ffffff" stroke="#bfbfbf" points="1203,-56.5 1203,-75.5 1259,-75.5 1259,-56.5 1203,-56.5"/>
<text text-anchor="middle" x="1231" y="-63.5" font-family="Helvetica,sans-Serif" font-size="10.00" fill="#000000">cinttypes</text>
</g>
<!-- Node17&#45;&gt;Node18 -->
<g id="edge20" class="edge">
<title>Node17&#45;&gt;Node18</title>
<path fill="none" stroke="#191970" d="M1062.1163,-172.3117C1096.2451,-166.4435 1142.2929,-154.7821 1177,-132 1195.478,-119.8709 1210.7696,-99.4416 1220.3068,-84.5185"/>
<polygon fill="#191970" stroke="#191970" points="1223.4974,-86.009 1225.7188,-75.6497 1217.5221,-82.3627 1223.4974,-86.009"/>
</g>
<!-- Node19 -->
<g id="node20" class="node">
<title>Node19</title>
<polygon fill="#ffffff" stroke="#bfbfbf" points="1119.5,-112.5 1119.5,-131.5 1168.5,-131.5 1168.5,-112.5 1119.5,-112.5"/>
<text text-anchor="middle" x="1144" y="-119.5" font-family="Helvetica,sans-Serif" font-size="10.00" fill="#000000">restbed</text>
</g>
<!-- Node17&#45;&gt;Node19 -->
<g id="edge22" class="edge">
<title>Node17&#45;&gt;Node19</title>
<path fill="none" stroke="#191970" d="M1037.1759,-168.3733C1057.9766,-159.3435 1089.2917,-145.7494 1112.6458,-135.6111"/>
<polygon fill="#191970" stroke="#191970" points="1114.3343,-138.6938 1122.1135,-131.5011 1111.5468,-132.2727 1114.3343,-138.6938"/>
</g>
<!-- Node20&#45;&gt;Node2 -->
<g id="edge24" class="edge">
<title>Node20&#45;&gt;Node2</title>
<path fill="none" stroke="#191970" d="M426.671,-168.4369C483.487,-158.6771 571.6216,-143.5374 631.6976,-133.2176"/>
<polygon fill="#191970" stroke="#191970" points="632.5677,-136.6195 641.8308,-131.4769 631.3825,-129.7205 632.5677,-136.6195"/>
</g>
<!-- Node20&#45;&gt;Node7 -->
<g id="edge27" class="edge">
<title>Node20&#45;&gt;Node7</title>
<path fill="none" stroke="#191970" d="M374.7514,-168.4509C381.9927,-150.0186 398.0186,-109.2254 407.5188,-85.043"/>
<polygon fill="#191970" stroke="#191970" points="410.8591,-86.1122 411.2581,-75.5249 404.3439,-83.5526 410.8591,-86.1122"/>
</g>
<!-- Node20&#45;&gt;Node9 -->
<g id="edge28" class="edge">
<title>Node20&#45;&gt;Node9</title>
<path fill="none" stroke="#191970" d="M316.2974,-168.454C277.7473,-160.8402 225.3097,-148.6795 181,-132 143.9076,-118.0373 103.8,-95.6407 79.0371,-80.8733"/>
<polygon fill="#191970" stroke="#191970" points="80.706,-77.7925 70.3361,-75.6206 77.0882,-83.7852 80.706,-77.7925"/>
</g>
<!-- Node20&#45;&gt;Node11 -->
<g id="edge29" class="edge">
<title>Node20&#45;&gt;Node11</title>
<path fill="none" stroke="#191970" d="M361.2325,-168.1045C347.2456,-154.306 320.288,-129.0628 294,-112 274.2065,-99.1526 250.2655,-87.7616 231.1209,-79.5288"/>
<polygon fill="#191970" stroke="#191970" points="232.446,-76.2891 221.8713,-75.6346 229.7298,-82.7407 232.446,-76.2891"/>
</g>
<!-- Node20&#45;&gt;Node13 -->
<g id="edge30" class="edge">
<title>Node20&#45;&gt;Node13</title>
<path fill="none" stroke="#191970" d="M367.4191,-168.4509C360.507,-150.0186 345.2095,-109.2254 336.1411,-85.043"/>
<polygon fill="#191970" stroke="#191970" points="339.3603,-83.6592 332.5718,-75.5249 332.806,-86.1171 339.3603,-83.6592"/>
</g>
<!-- Node21 -->
<g id="node22" class="node">
<title>Node21</title>
<polygon fill="#ffffff" stroke="#bfbfbf" points="190.5,-112.5 190.5,-131.5 285.5,-131.5 285.5,-112.5 190.5,-112.5"/>
<text text-anchor="middle" x="238" y="-119.5" font-family="Helvetica,sans-Serif" font-size="10.00" fill="#000000">condition_variable</text>
</g>
<!-- Node20&#45;&gt;Node21 -->
<g id="edge25" class="edge">
<title>Node20&#45;&gt;Node21</title>
<path fill="none" stroke="#191970" d="M348.1365,-168.3733C326.595,-159.3032 294.1162,-145.6279 270.0044,-135.4755"/>
<polygon fill="#191970" stroke="#191970" points="271.1397,-132.156 260.5652,-131.5011 268.4233,-138.6075 271.1397,-132.156"/>
</g>
<!-- Node22 -->
<g id="node23" class="node">
<title>Node22</title>
<polygon fill="#ffffff" stroke="#bfbfbf" points="418,-112.5 418,-131.5 472,-131.5 472,-112.5 418,-112.5"/>
<text text-anchor="middle" x="445" y="-119.5" font-family="Helvetica,sans-Serif" font-size="10.00" fill="#000000">iostream</text>
</g>
<!-- Node20&#45;&gt;Node22 -->
<g id="edge26" class="edge">
<title>Node20&#45;&gt;Node22</title>
<path fill="none" stroke="#191970" d="M383.8898,-168.2455C394.9254,-159.8943 411.0292,-147.7076 423.9353,-137.9408"/>
<polygon fill="#191970" stroke="#191970" points="426.3959,-140.4681 432.2579,-131.6427 422.1717,-134.8862 426.3959,-140.4681"/>
</g>
<!-- Node23&#45;&gt;Node2 -->
<g id="edge32" class="edge">
<title>Node23&#45;&gt;Node2</title>
<path fill="none" stroke="#191970" d="M772.149,-168.2455C758.1868,-159.6534 737.6272,-147.0014 721.5404,-137.1018"/>
<polygon fill="#191970" stroke="#191970" points="723.0203,-133.9029 712.6693,-131.6427 719.3516,-139.8645 723.0203,-133.9029"/>
</g>
<!-- Node23&#45;&gt;Node3 -->
<g id="edge36" class="edge">
<title>Node23&#45;&gt;Node3</title>
<path fill="none" stroke="#191970" d="M832.1627,-168.4728C866.7047,-160.4285 915.6429,-147.7179 957,-132 995.6281,-117.3193 1038.033,-95.1432 1064.3364,-80.6164"/>
<polygon fill="#191970" stroke="#191970" points="1066.2331,-83.5662 1073.2618,-75.6386 1062.8235,-77.4527 1066.2331,-83.5662"/>
</g>
<!-- Node23&#45;&gt;Node6 -->
<g id="edge40" class="edge">
<title>Node23&#45;&gt;Node6</title>
<path fill="none" stroke="#191970" d="M792.5128,-168.2767C799.7727,-153.7367 815.4457,-126.492 837,-112 890.316,-76.1531 914.9347,-92.5984 977,-76 977.0979,-75.9738 977.196,-75.9476 977.2942,-75.9213"/>
<polygon fill="#191970" stroke="#191970" points="977.9357,-79.3739 986.6699,-73.3769 976.1023,-72.6182 977.9357,-79.3739"/>
</g>
<!-- Node23&#45;&gt;Node7 -->
<g id="edge45" class="edge">
<title>Node23&#45;&gt;Node7</title>
<path fill="none" stroke="#191970" d="M750.2194,-168.455C718.5145,-160.0504 672.2457,-146.8585 633,-132 613.2883,-124.5371 609.8694,-119.0323 590,-112 530.7256,-91.0214 511.2473,-93.8053 447.0956,-76.1484"/>
<polygon fill="#191970" stroke="#191970" points="447.8707,-72.7306 437.2964,-73.3897 445.9737,-79.4687 447.8707,-72.7306"/>
</g>
<!-- Node23&#45;&gt;Node9 -->
<g id="edge41" class="edge">
<title>Node23&#45;&gt;Node9</title>
<path fill="none" stroke="#191970" d="M725.3322,-174.2281C668.6448,-169.2547 583.6349,-157.8614 514,-132 497.9229,-126.0292 497.2686,-117.4273 481,-112 330.7722,-61.8836 281.4023,-95.0622 120.3922,-76.0766"/>
<polygon fill="#191970" stroke="#191970" points="120.4827,-72.5615 110.1302,-74.8143 119.628,-79.5091 120.4827,-72.5615"/>
</g>
<!-- Node23&#45;&gt;Node11 -->
<g id="edge42" class="edge">
<title>Node23&#45;&gt;Node11</title>
<path fill="none" stroke="#191970" d="M725.3205,-170.8564C676.9882,-164.1455 608.9948,-152.0644 552,-132 533.9977,-125.6625 532.1504,-117.9001 514,-112 502.7215,-108.3338 365.6893,-89.1245 275.5229,-76.717"/>
<polygon fill="#191970" stroke="#191970" points="275.9728,-73.246 265.5893,-75.3514 275.0194,-80.1808 275.9728,-73.246"/>
</g>
<!-- Node23&#45;&gt;Node13 -->
<g id="edge43" class="edge">
<title>Node23&#45;&gt;Node13</title>
<path fill="none" stroke="#191970" d="M729.233,-168.438C689.2207,-160.9431 635.4755,-148.9292 590,-132 572.1139,-125.3415 569.9674,-118.4357 552,-112 536.3787,-106.4046 445.3215,-88.3613 384.5005,-76.6054"/>
<polygon fill="#191970" stroke="#191970" points="385.124,-73.1613 374.6421,-74.7038 383.7981,-80.0346 385.124,-73.1613"/>
</g>
<!-- Node23&#45;&gt;Node14 -->
<g id="edge44" class="edge">
<title>Node23&#45;&gt;Node14</title>
<path fill="none" stroke="#191970" d="M788.0573,-168.0382C788.6204,-154.161 791.4556,-128.8248 804,-112 814.92,-97.3539 831.9921,-86.5786 847.4759,-79.1542"/>
<polygon fill="#191970" stroke="#191970" points="849.146,-82.2413 856.8423,-74.9599 846.2851,-75.8526 849.146,-82.2413"/>
</g>
<!-- Node23&#45;&gt;Node18 -->
<g id="edge37" class="edge">
<title>Node23&#45;&gt;Node18</title>
<path fill="none" stroke="#191970" d="M833.9791,-168.4474C875.8333,-159.5824 939.2613,-145.7236 994,-132 1064.6329,-114.2915 1146.3016,-90.8972 1192.9794,-77.2445"/>
<polygon fill="#191970" stroke="#191970" points="1194.06,-80.5751 1202.6711,-74.4027 1192.0902,-73.858 1194.06,-80.5751"/>
</g>
<!-- Node23&#45;&gt;Node22 -->
<g id="edge38" class="edge">
<title>Node23&#45;&gt;Node22</title>
<path fill="none" stroke="#191970" d="M725.254,-170.0832C663.9758,-161.9658 568.2045,-148.2527 486,-132 484.7467,-131.7522 483.4738,-131.4918 482.19,-131.2216"/>
<polygon fill="#191970" stroke="#191970" points="482.7953,-127.7706 472.2728,-129.0065 481.2694,-134.6023 482.7953,-127.7706"/>
</g>
<!-- Node24 -->
<g id="node25" class="node">
<title>Node24</title>
<g id="a_node25"><a xlink:href="../../d2/def/fnv_8hpp.html" target="_top" xlink:title="fnv.hpp">
<polygon fill="#ffffff" stroke="#000000" points="899.5,-112.5 899.5,-131.5 948.5,-131.5 948.5,-112.5 899.5,-112.5"/>
<text text-anchor="middle" x="924" y="-119.5" font-family="Helvetica,sans-Serif" font-size="10.00" fill="#000000">fnv.hpp</text>
</a>
</g>
</g>
<!-- Node23&#45;&gt;Node24 -->
<g id="edge33" class="edge">
<title>Node23&#45;&gt;Node24</title>
<path fill="none" stroke="#191970" d="M811.3792,-168.3733C833.5045,-159.2629 866.9134,-145.5062 891.6019,-135.3404"/>
<polygon fill="#191970" stroke="#191970" points="893.0117,-138.5451 900.9258,-131.5011 890.3464,-132.0723 893.0117,-138.5451"/>
</g>
<!-- Node25 -->
<g id="node26" class="node">
<title>Node25</title>
<polygon fill="#ffffff" stroke="#bfbfbf" points="846.5,-112.5 846.5,-131.5 881.5,-131.5 881.5,-112.5 846.5,-112.5"/>
<text text-anchor="middle" x="864" y="-119.5" font-family="Helvetica,sans-Serif" font-size="10.00" fill="#000000">map</text>
</g>
<!-- Node23&#45;&gt;Node25 -->
<g id="edge39" class="edge">
<title>Node23&#45;&gt;Node25</title>
<path fill="none" stroke="#191970" d="M801.2382,-168.2455C812.681,-159.814 829.4296,-147.4729 842.7475,-137.6598"/>
<polygon fill="#191970" stroke="#191970" points="844.9391,-140.3924 850.9135,-131.6427 840.7867,-134.757 844.9391,-140.3924"/>
</g>
<!-- Node24&#45;&gt;Node15 -->
<g id="edge35" class="edge">
<title>Node24&#45;&gt;Node15</title>
<path fill="none" stroke="#191970" d="M928.1805,-112.2455C931.381,-104.7776 935.896,-94.2427 939.8084,-85.1137"/>
<polygon fill="#191970" stroke="#191970" points="943.1452,-86.2129 943.8674,-75.6427 936.7112,-83.4554 943.1452,-86.2129"/>
</g>
<!-- Node24&#45;&gt;Node18 -->
<g id="edge34" class="edge">
<title>Node24&#45;&gt;Node18</title>
<path fill="none" stroke="#191970" d="M948.7221,-118.593C994.8389,-112.066 1097.2655,-96.7625 1192.954,-76.0728"/>
<polygon fill="#191970" stroke="#191970" points="1193.7653,-79.4782 1202.7865,-73.9222 1192.2695,-72.6399 1193.7653,-79.4782"/>
</g>
</g>
</svg>
